<svg width="58" height="58" viewBox="0 0 58 58" fill="none" xmlns="http://www.w3.org/2000/svg">
<circle cx="34" cy="34" r="24" fill="#B4DBFF"/>
<g clip-path="url(#clip0_147_1837)">
<mask id="mask0_147_1837" style="mask-type:luminance" maskUnits="userSpaceOnUse" x="0" y="0" width="48" height="48">
<path d="M0 3.8147e-06H48V48H0V3.8147e-06Z" fill="white"/>
</mask>
<g mask="url(#mask0_147_1837)">
<path d="M19.2013 47.0625H36.42C37.5149 47.0625 38.4025 46.1749 38.4025 45.08V30.7813C38.4025 29.688 37.5175 28.8014 36.4248 28.7989H36.4201H32.7785C33.0083 29.329 33.1215 29.9215 33.0855 30.5439C32.9754 32.446 31.4434 33.9973 29.5427 34.1288C27.3093 34.2833 25.4494 32.5174 25.4494 30.317C25.4494 29.7774 25.5613 29.2642 25.7629 28.7989H19.2014V28.7988H19.2013" stroke="#0487FF" stroke-width="1.875" stroke-miterlimit="10" stroke-linecap="round" stroke-linejoin="round"/>
<path d="M2.92003 28.7988C1.82512 28.7988 0.9375 29.6864 0.9375 30.7813V45.08C0.9375 46.1749 1.82512 47.0625 2.92003 47.0625H19.2012V41.4384C19.6665 41.6401 20.1798 41.7519 20.7193 41.7519C22.9197 41.7519 24.6857 39.8921 24.5312 37.6587C24.3997 35.7579 22.8484 34.226 20.9463 34.1159C20.3239 34.0799 19.7314 34.1931 19.2012 34.4228V28.7988" stroke="#0487FF" stroke-width="1.875" stroke-miterlimit="10" stroke-linecap="round" stroke-linejoin="round"/>
<path d="M2.92009 10.5351H19.2013V16.1591C19.6666 15.9574 20.1798 15.8456 20.7194 15.8456C22.9198 15.8456 24.6857 17.7055 24.5312 19.9389C24.3997 21.8396 22.8484 23.3716 20.9463 23.4817C20.3239 23.5176 19.7314 23.4045 19.2013 23.1747V28.7987H13.5772C13.7789 29.2641 13.8907 29.7774 13.8907 30.3168C13.8907 32.5173 12.0309 34.2833 9.7975 34.1288C7.89672 33.9972 6.36475 32.446 6.25469 30.5439C6.21869 29.9215 6.33184 29.329 6.56162 28.7987H2.92009C1.82519 28.7987 0.937561 27.9112 0.937561 26.8163V12.5175C0.937561 11.4226 1.82519 10.5351 2.92009 10.5351Z" stroke="#0487FF" stroke-width="1.875" stroke-miterlimit="10" stroke-linecap="round" stroke-linejoin="round"/>
<path d="M47.0625 6.07238V2.91994C47.0625 1.82503 46.1749 0.93741 45.08 0.93741H28.7988V6.56138C29.264 6.35972 29.7773 6.24797 30.3168 6.24797C32.5172 6.24797 34.2832 8.10778 34.1286 10.3412C33.9971 12.242 32.4458 13.7739 30.5437 13.884C29.9214 13.92 29.3289 13.8068 28.7988 13.5772V19.2011H34.4228C34.2212 19.6664 34.1093 20.1798 34.1093 20.7192C34.1093 22.9196 35.9691 24.6857 38.2026 24.5311C40.1033 24.3996 41.6353 22.8483 41.7454 20.9462C41.7814 20.3238 41.6682 19.7313 41.4384 19.2011H45.08C46.1749 19.2011 47.0625 18.3135 47.0625 17.2186V14.5485" stroke="#0487FF" stroke-width="1.875" stroke-miterlimit="10" stroke-linecap="round" stroke-linejoin="round"/>
</g>
</g>
<defs>
<clipPath id="clip0_147_1837">
<rect width="48" height="48" fill="white"/>
</clipPath>
</defs>
</svg>
