<svg width="48" height="48" viewBox="0 0 48 48" fill="none" xmlns="http://www.w3.org/2000/svg">
<path d="M6.21326 24.1924C6.45621 24.1398 6.6683 23.9928 6.8029 23.7838C6.9375 23.5748 6.98358 23.3209 6.93101 23.0779C6.87323 22.6014 6.85404 22.1209 6.87363 21.6413V19.9257C6.83774 19.4247 6.86774 18.9211 6.96288 18.4279C7.39468 18.1784 7.8567 17.9853 8.33763 17.8534C8.35301 17.8489 8.36801 17.844 8.38301 17.8388L8.57913 17.7705C9.85676 17.3273 10.0578 17.133 10.534 15.879L10.6146 15.6683C10.7109 15.416 10.8095 15.1785 10.9105 14.9558L11.0009 14.7533C11.5473 13.5319 11.5428 13.2533 10.9574 12.0465L10.8648 11.8549C10.8565 11.838 10.8479 11.8212 10.8385 11.805C10.5911 11.3743 10.4019 10.9127 10.276 10.4322C10.5647 10.0074 10.9079 9.62236 11.2968 9.28692L12.5249 8.06255C12.9865 7.60055 13.51 7.07705 13.6431 7.07705C14.1352 7.21391 14.6085 7.41089 15.0524 7.66355L15.2538 7.76067C16.4594 8.3438 16.738 8.34717 17.9646 7.7948L18.148 7.71267C18.3869 7.60917 18.6258 7.50905 18.8676 7.41642L19.0806 7.3358C19.5396 7.20987 19.9636 6.98037 20.32 6.66492C20.6346 6.29298 20.8576 5.85243 20.971 5.37867L21.0531 5.1428C21.185 4.66083 21.3782 4.1978 21.628 3.76505C22.1219 3.66923 22.6263 3.63922 23.128 3.6758H24.9111C25.4004 3.64145 25.8921 3.67146 26.3736 3.76505C26.6244 4.19673 26.8176 4.65942 26.9481 5.1413L27.0318 5.3813C27.475 6.65892 27.6693 6.85992 28.9236 7.33617L29.1333 7.41605C29.3759 7.50905 29.6148 7.60917 29.8428 7.7078L30.0333 7.7933C30.4471 8.02682 30.9072 8.16638 31.381 8.20205C31.8671 8.16448 32.3375 8.01233 32.7535 7.75805L32.983 7.64555C33.5894 7.35305 34.213 7.04817 34.3705 7.07667C34.794 7.3667 35.1779 7.71072 35.5124 8.10005L36.7383 9.32592C37.1999 9.78755 37.7249 10.3125 37.7249 10.4438C37.5878 10.9358 37.3909 11.4091 37.1384 11.853L37.0416 12.054C36.4581 13.2597 36.4548 13.5387 37.0071 14.7657L37.0896 14.9487C37.1931 15.1872 37.2929 15.426 37.3855 15.6687L37.4639 15.8749C37.9405 17.1323 38.1389 17.3269 39.4109 17.7672L39.6168 17.8388C39.6314 17.8437 39.646 17.8485 39.661 17.8527C40.1421 17.9847 40.6042 18.1779 41.0361 18.4275C41.1324 18.9326 41.1624 19.4481 41.1254 19.9609V21.6409C41.145 22.1206 41.1258 22.601 41.068 23.0775C41.0387 23.199 41.034 23.3251 41.0541 23.4484C41.0742 23.5717 41.1188 23.6897 41.1852 23.7955C41.2516 23.9013 41.3384 23.9928 41.4407 24.0646C41.5429 24.1364 41.6585 24.187 41.7806 24.2135C41.9027 24.24 42.0288 24.2418 42.1516 24.2189C42.2744 24.1959 42.3914 24.1487 42.4957 24.0799C42.5999 24.0111 42.6894 23.9221 42.7588 23.8183C42.8282 23.7144 42.8762 23.5977 42.8999 23.475C42.9943 22.8688 43.0279 22.2546 43 21.6417V19.9257C43 17.3044 42.7458 16.9455 40.2794 16.083L40.2381 16.0688C40.2231 16.0635 40.2081 16.0587 40.1928 16.0542L40.024 15.9957C39.8288 15.9334 39.6369 15.8611 39.4491 15.7789C39.3615 15.5936 39.2836 15.4039 39.2159 15.2104L39.1368 15C39.0344 14.7323 38.9245 14.4687 38.8056 14.1945L38.7171 13.9965C38.6277 13.811 38.548 13.6209 38.4786 13.4269C38.5525 13.2374 38.6362 13.0519 38.7295 12.8712L38.833 12.6563C39.3273 11.6337 39.5999 11.07 39.5999 10.4438C39.5999 9.53405 39.0546 8.9888 38.065 7.99955L36.8159 6.75005C34.9638 4.89342 34.5284 4.81955 32.1351 5.97267L31.9338 6.07055C31.7523 6.16404 31.5661 6.24827 31.3761 6.32292C31.181 6.25326 30.9897 6.17314 30.8031 6.08292L30.5973 5.99067C30.3348 5.8763 30.07 5.76567 29.803 5.66405L29.5881 5.5823C29.3957 5.51494 29.2071 5.43733 29.023 5.3498C28.9388 5.1591 28.865 4.96394 28.8021 4.76517L28.717 4.52217C27.8556 2.0543 27.4998 1.80005 24.9111 1.80005H23.1239C20.503 1.80005 20.1438 2.05505 19.282 4.52442L19.1984 4.76517C19.1073 5.02767 19.0135 5.29955 18.9918 5.34192C18.8053 5.43437 18.6129 5.5143 18.4158 5.58117L18.1971 5.66442C17.9298 5.7668 17.6658 5.87667 17.392 5.99555L17.194 6.08442C17.0085 6.1736 16.8185 6.25309 16.6248 6.32255C16.4355 6.2486 16.2501 6.16499 16.0694 6.07205L15.8538 5.9678C14.8311 5.47355 14.2679 5.2013 13.6413 5.2013C12.7319 5.2013 12.1866 5.74617 11.1974 6.7358L9.94826 7.98455C8.09126 9.83705 8.01701 10.272 9.17051 12.6657C9.17876 12.6825 9.18738 12.6998 9.19713 12.7167L9.26913 12.8667C9.36422 13.0481 9.44959 13.2345 9.52488 13.425C9.45697 13.6165 9.37899 13.8043 9.29126 13.9875L9.20201 14.187C9.08951 14.4372 8.97476 14.7102 8.86451 14.9974L8.78276 15.2119C8.7153 15.4045 8.63756 15.5932 8.54988 15.7774C8.35923 15.8615 8.1642 15.9352 7.96563 15.9983L7.80813 16.053C7.79238 16.0575 7.77701 16.0628 7.76163 16.068L7.72038 16.0823C5.25401 16.9448 4.99976 17.3037 4.99976 19.9605V21.6405C4.97183 22.2539 5.00537 22.8684 5.09988 23.475C5.15263 23.7177 5.29948 23.9295 5.50821 24.064C5.71694 24.1985 5.97051 24.2447 6.21326 24.1924Z" fill="#C300CB"/>
<path d="M31.4498 20.4C31.5868 20.4002 31.7222 20.3704 31.8464 20.3125C31.9707 20.2547 32.0807 20.1704 32.1688 20.0655C32.257 19.9606 32.321 19.8376 32.3565 19.7052C32.392 19.5729 32.398 19.4344 32.3741 19.2994C32.0228 17.3339 30.9913 15.5547 29.4603 14.2731C27.9293 12.9915 25.9963 12.2892 23.9996 12.2892C22.003 12.2892 20.07 12.9915 18.539 14.2731C17.008 15.5547 15.9765 17.3339 15.6251 19.2994C15.5819 19.5443 15.6377 19.7963 15.7802 20C15.9228 20.2038 16.1404 20.3425 16.3853 20.3858C16.6301 20.4291 16.8821 20.3733 17.0859 20.2307C17.2896 20.0882 17.4284 19.8705 17.4716 19.6257C17.746 18.0939 18.5502 16.7075 19.7436 15.7088C20.937 14.7102 22.4435 14.163 23.9996 14.163C25.5557 14.163 27.0623 14.7102 28.2557 15.7088C29.4491 16.7075 30.2533 18.0939 30.5276 19.6257C30.566 19.8425 30.6793 20.0389 30.8479 20.1805C31.0165 20.3221 31.2296 20.3998 31.4498 20.4Z" fill="#C300CB"/>
<path d="M11.275 25.9875C10.3458 25.9875 9.4375 26.2629 8.66487 26.7791C7.89223 27.2953 7.29002 28.029 6.93438 28.8874C6.57875 29.7459 6.48566 30.6905 6.66689 31.6019C6.84812 32.5132 7.29553 33.3503 7.95254 34.0074C8.60955 34.6645 9.44666 35.1119 10.358 35.2932C11.2693 35.4746 12.214 35.3815 13.0724 35.026C13.9309 34.6704 14.6646 34.0682 15.1809 33.2957C15.6971 32.5231 15.9727 31.6147 15.9727 30.6855C15.9713 29.4401 15.4759 28.246 14.5952 27.3652C13.7146 26.4845 12.5205 25.989 11.275 25.9875ZM11.275 33.5082C10.7167 33.5082 10.1708 33.3427 9.70652 33.0326C9.24222 32.7224 8.88033 32.2815 8.66662 31.7657C8.45291 31.2498 8.39697 30.6822 8.50589 30.1345C8.6148 29.5869 8.88367 29.0838 9.2785 28.689C9.67333 28.2942 10.1764 28.0253 10.724 27.9164C11.2717 27.8075 11.8393 27.8634 12.3552 28.0771C12.871 28.2908 13.3119 28.6527 13.6221 29.117C13.9322 29.5813 14.0977 30.1272 14.0977 30.6855C14.0968 31.4339 13.7991 32.1513 13.2699 32.6805C12.7408 33.2096 12.0234 33.5073 11.275 33.5082Z" fill="#C300CB"/>
<path d="M36.7874 35.3832C37.7167 35.3836 38.6252 35.1083 39.3981 34.5923C40.1709 34.0763 40.7733 33.3427 41.1292 32.4842C41.485 31.6258 41.5783 30.6811 41.3972 29.7697C41.2161 28.8582 40.7688 28.0209 40.1118 27.3637C39.4548 26.7065 38.6177 26.2589 37.7063 26.0775C36.7949 25.8962 35.8502 25.9891 34.9916 26.3447C34.1331 26.7003 33.3993 27.3025 32.883 28.0752C32.3668 28.8479 32.0912 29.7563 32.0913 30.6856C32.0928 31.9307 32.588 33.1245 33.4683 34.0051C34.3487 34.8857 35.5423 35.3813 36.7874 35.3832ZM36.7874 27.8626C37.3458 27.8625 37.8916 28.028 38.3559 28.3381C38.8202 28.6483 39.1821 29.0892 39.3958 29.605C39.6095 30.1208 39.6655 30.6884 39.5566 31.2361C39.4477 31.7837 39.1789 32.2867 38.7841 32.6816C38.3893 33.0764 37.8863 33.3453 37.3387 33.4543C36.7911 33.5632 36.2234 33.5074 35.7076 33.2937C35.1917 33.0801 34.7508 32.7182 34.4406 32.254C34.1304 31.7897 33.9648 31.2439 33.9648 30.6856C33.9656 29.9372 34.2632 29.2196 34.7924 28.6904C35.3216 28.1612 36.039 27.8635 36.7874 27.8626Z" fill="#C300CB"/>
<path d="M45.9268 43.5065L45.8675 43.3471C43.6423 37.3786 43.307 37.1401 36.9564 37.1401H36.5623C35.4256 37.1401 34.4821 37.1401 33.6905 37.1828C32.0626 34.6272 30.0478 34.5125 24.2836 34.5125H23.7193C17.9548 34.5125 15.938 34.6276 14.3094 37.1825C13.5193 37.1405 12.5746 37.1393 11.4406 37.1401H11.0469C4.69739 37.1401 4.36101 37.3786 2.13614 43.3362L2.07314 43.5053C1.89914 43.9703 1.57514 44.8358 2.04839 45.5183C2.52164 46.2008 3.44451 46.2001 3.94101 46.2001H18.5435H18.5525H29.4433H29.4523H44.0585C44.5546 46.2001 45.4779 46.2001 45.9515 45.5165C46.4251 44.8328 46.1004 43.9685 45.9268 43.5065ZM16.8043 37.1738C17.9386 36.3863 19.8943 36.3837 23.7594 36.3863H24.2439C28.1244 36.3863 30.0616 36.3863 31.1956 37.1738C31.688 37.5493 32.0881 38.0322 32.3656 38.5857C32.3705 38.5955 32.3758 38.6048 32.3814 38.6146C32.9619 39.6586 33.5371 41.1972 34.3636 43.4112L34.4484 43.6381C34.5313 43.8501 34.5999 44.0675 34.6535 44.2887C34.4274 44.3168 34.1996 44.3294 33.9718 44.3262H14.0248C13.7981 44.3298 13.5715 44.318 13.3464 44.291C13.3997 44.0707 13.4679 43.8544 13.5504 43.6433L13.6351 43.4161C14.4646 41.1942 15.0414 39.6522 15.6226 38.6075L15.6294 38.5947C15.9075 38.0377 16.3094 37.5517 16.8043 37.1738ZM3.77151 44.3228C3.78801 44.2752 3.80676 44.2216 3.82926 44.162L3.89264 43.9921C4.83539 41.4676 5.35514 40.0771 6.12051 39.5461C6.88589 39.0151 8.36151 39.017 11.0705 39.0151H11.4418C12.1543 39.0151 12.7918 39.0151 13.3516 39.0256C12.9061 40.0302 12.4393 41.258 11.879 42.7587L11.7943 42.9856C11.618 43.4137 11.5037 43.8647 11.4549 44.3251H3.94101C3.87764 44.3251 3.82139 44.3251 3.77151 44.3228ZM44.0585 44.3251H36.545C36.4963 43.8634 36.3818 43.4111 36.2049 42.9818L36.1205 42.7568C35.5606 41.2568 35.0941 40.031 34.6494 39.0275C35.2119 39.017 35.8475 39.0166 36.5619 39.0166H36.9331C39.6211 39.0143 41.1159 39.0166 41.8831 39.5483C42.6504 40.0801 43.1686 41.474 44.1118 44.0033L44.1721 44.165C44.1943 44.2242 44.213 44.2775 44.2295 44.3243C44.1781 44.3251 44.1219 44.3251 44.0585 44.3251Z" fill="#C300CB"/>
<path d="M23.9998 21.0728C22.7983 21.0728 21.6237 21.429 20.6247 22.0966C19.6257 22.7641 18.847 23.7129 18.3872 24.823C17.9274 25.933 17.8071 27.1545 18.0415 28.3329C18.2759 29.5114 18.8545 30.5938 19.7041 31.4434C20.5537 32.293 21.6362 32.8716 22.8146 33.106C23.9931 33.3404 25.2145 33.2201 26.3246 32.7603C27.4347 32.3005 28.3835 31.5219 29.051 30.5228C29.7185 29.5238 30.0748 28.3493 30.0748 27.1478C30.0732 25.5371 29.4327 23.9928 28.2937 22.8538C27.1548 21.7149 25.6105 21.0743 23.9998 21.0728ZM23.9998 31.3459C23.1691 31.3459 22.3571 31.0996 21.6664 30.6381C20.9757 30.1766 20.4374 29.5206 20.1195 28.7531C19.8016 27.9857 19.7185 27.1412 19.8805 26.3265C20.0426 25.5118 20.4426 24.7634 21.03 24.176C21.6173 23.5887 22.3657 23.1886 23.1804 23.0266C23.9951 22.8645 24.8396 22.9477 25.6071 23.2656C26.3745 23.5835 27.0305 24.1218 27.492 24.8125C27.9535 25.5032 28.1998 26.3152 28.1998 27.1459C28.1987 28.2595 27.7559 29.3271 26.9685 30.1145C26.181 30.9019 25.1134 31.3448 23.9998 31.3459Z" fill="#C300CB"/>
</svg>
