<svg width="480" height="480" viewBox="0 0 480 480" fill="none" xmlns="http://www.w3.org/2000/svg">
<g clip-path="url(#clip0_506_81)">
<g clip-path="url(#clip1_506_81)">
<rect width="480" height="480" rx="24" fill="#E6F3FF"/>
<path d="M-63.0307 40.797C-37.594 54.9419 19.0022 75.7463 41.8932 45.8041C70.5069 8.37637 41.7034 0.871226 33.2448 19.5474C24.7861 38.2236 66.9969 63.6025 108.765 25.1247C142.179 -5.65755 157.787 -53.1177 161.414 -73" stroke="#0487FF" stroke-dasharray="6 6"/>
<path d="M479.529 315.123C454.601 330.146 408.389 368.881 422.967 403.637C441.189 447.083 462.034 425.835 450.045 409.203C438.056 392.572 395.035 416.553 407.622 471.93C417.691 516.232 451.088 553.391 466.528 566.432" stroke="#0487FF" stroke-dasharray="6 6"/>
</g>
<path d="M225.434 140.154C225.434 140.154 263.758 180.02 333.416 188.854C403.073 197.689 432.386 279.182 399.771 331.324C367.156 383.466 297.419 379.479 261.91 358.123C226.401 336.766 195.277 322.377 160.519 325.902C125.76 329.427 12.8486 304.315 27.4004 188.259C41.9515 72.203 155.275 28.6758 225.434 140.154Z" fill="#E6F3FF"/>
<path d="M156.845 399.894C177.99 407.803 208.307 402.582 214.873 385.069C221.439 367.556 201.768 344.383 180.623 336.475C159.478 328.567 137.013 336.353 130.447 353.866C123.881 371.378 135.699 391.986 156.845 399.894Z" fill="#E6F3FF"/>
<path d="M197.96 392.899C197.96 392.899 194.247 346.758 182.559 316.885C182.553 363.279 193.727 393.281 193.727 393.281L197.96 392.899Z" fill="white"/>
<path d="M193.516 393.617L193.432 393.391C193.32 393.091 182.239 362.804 182.244 316.885L182.245 315.217L182.852 316.77C194.424 346.345 198.237 392.412 198.275 392.874L198.3 393.185L193.516 393.617ZM182.879 318.601C183.131 361.37 192.941 390.128 193.941 392.946L197.621 392.613C197.272 388.591 193.451 346.82 182.879 318.601Z" fill="#263238"/>
<path d="M208.663 393.365C208.663 393.365 223.984 349.686 225.418 317.638C206.595 360.04 204.639 391.997 204.639 391.997L208.663 393.365Z" fill="white"/>
<path d="M208.857 393.764L204.31 392.218L204.324 391.978C204.344 391.658 206.5 359.479 225.13 317.51L225.807 315.986L225.732 317.652C224.313 349.379 209.114 393.033 208.96 393.47L208.857 393.764ZM204.97 391.777L208.468 392.966C209.781 389.149 223.231 349.419 225.014 319.336C207.897 358.53 205.199 388.795 204.97 391.777Z" fill="#263238"/>
<path d="M206.692 393.729C206.692 393.729 216.658 345.08 213.545 310.807C199.672 358.604 202.216 392.857 202.216 392.857L206.692 393.729Z" fill="white"/>
<path d="M206.938 394.098L201.92 393.12L201.902 392.88C201.877 392.537 199.512 358.024 213.242 310.719L213.707 309.117L213.858 310.779C216.94 344.706 207.1 393.305 207.001 393.792L206.938 394.098ZM202.515 392.594L206.445 393.36C207.264 389.239 215.869 344.847 213.374 312.541C200.789 356.826 202.332 389.489 202.515 392.594Z" fill="#263238"/>
<path d="M202.917 393.841C202.917 393.841 209.366 338.948 202.672 301.235C191.809 355.554 197.871 393.298 197.871 393.298L202.917 393.841Z" fill="white"/>
<path d="M203.193 394.188L197.598 393.585L197.56 393.347C197.499 392.969 191.613 354.926 202.363 301.173L202.69 299.537L202.982 301.18C209.608 338.507 203.294 393.328 203.23 393.878L203.193 394.188ZM198.146 393.011L202.639 393.495C203.135 389.063 208.54 338.671 202.65 302.972C192.804 353.52 197.67 389.749 198.146 393.011Z" fill="#263238"/>
<path d="M199.161 393.774C199.161 393.774 202.56 344.196 193.79 310.566C185.954 359.8 194.094 393.482 194.094 393.482L199.161 393.774Z" fill="white"/>
<path d="M199.454 394.107L193.842 393.783L193.788 393.556C193.706 393.219 185.723 359.249 193.48 310.517L193.716 309.033L194.095 310.487C202.777 343.782 199.509 393.3 199.475 393.796L199.454 394.107ZM194.347 393.181L198.866 393.442C199.127 389.243 201.701 343.899 193.863 312.136C186.848 357.849 193.672 390.172 194.347 393.181Z" fill="#263238"/>
<path d="M207.703 407.292H194.193C189.673 407.292 186.009 403.627 186.009 399.106V379.688H215.886V399.106C215.887 403.627 212.223 407.292 207.703 407.292Z" fill="#263238"/>
<path d="M218.116 379.688H183.78V385.884H218.116V379.688Z" fill="white"/>
<path d="M218.431 386.198H183.465V379.373H218.431V386.198ZM184.095 385.569H217.802V380.002H184.095V385.569Z" fill="#263238"/>
<path d="M353.444 104.953H172.469V231.933H353.444V104.953Z" fill="white"/>
<path d="M353.759 232.248H172.154V104.638H353.759V232.248ZM172.784 231.618H353.129V105.268H172.784V231.618Z" fill="#263238"/>
<path d="M193.866 213.982V154.052H209.722V213.982H193.866Z" fill="#52D180" stroke="#263238"/>
<path d="M226.098 213.982V162.925H241.954V213.982H226.098Z" fill="#52D180" stroke="#263238"/>
<path d="M258.331 213.982V142.517H274.187V213.982H258.331Z" fill="#52D180" stroke="#263238"/>
<path d="M290.563 213.982V120.161H306.419V213.982H290.563Z" fill="#52D180" stroke="#263238"/>
<path d="M207.756 152.26C207.756 152.26 210.208 148.617 210.348 144.623C210.488 140.63 214.62 135.001 215.041 140.56C215.461 146.118 222.248 139.889 230.118 130.813C234.304 125.987 236.405 138.983 228.139 147.356C219.874 155.729 221.345 154.642 216.862 159.407C214.06 157.935 207.756 152.26 207.756 152.26Z" fill="white"/>
<path d="M216.927 159.796L216.716 159.685C213.911 158.212 207.804 152.727 207.545 152.494L207.342 152.311L207.494 152.084C207.519 152.049 209.898 148.466 210.033 144.612C210.135 141.703 212.273 137.948 213.846 137.917C214.438 137.9 215.189 138.349 215.355 140.536C215.43 141.537 215.721 142.128 216.218 142.293C217.468 142.706 220.855 141.015 229.881 130.607C230.851 129.488 231.643 129.379 232.135 129.486C232.863 129.643 233.429 130.334 233.771 131.483C234.78 134.869 233.77 142.101 228.364 147.577C223.107 152.902 221.782 154.409 220.379 156.005C219.565 156.931 218.724 157.888 217.092 159.622L216.927 159.796ZM208.166 152.204C209.228 153.15 214.262 157.584 216.799 159.014C218.316 157.398 219.124 156.479 219.906 155.589C221.315 153.986 222.646 152.472 227.915 147.135C233.084 141.899 234.105 134.807 233.168 131.662C232.899 130.76 232.485 130.206 232.002 130.102C231.534 130 230.964 130.318 230.356 131.019C222.718 139.827 218.162 143.6 216.02 142.89C215.259 142.639 214.823 141.862 214.727 140.583C214.628 139.28 214.315 138.547 213.858 138.546C212.724 138.569 210.756 141.974 210.662 144.634C210.539 148.142 208.711 151.328 208.166 152.204Z" fill="#263238"/>
<path d="M149.411 303.515L121.754 214.312H153.017L176.889 287.536C178.786 293.353 178.733 299.63 176.738 305.414L148.709 386.702L132.354 379.461L149.422 303.799L149.455 303.656L149.411 303.515Z" fill="white" stroke="#263238" stroke-width="1.10032"/>
<path d="M102.35 209.473L135.97 212.059L104.837 316.084L104.837 316.084L104.835 316.092L83.4168 391.76H65.3708L81.4004 310.994L81.4012 310.99L102.35 209.473Z" fill="white" stroke="#263238" stroke-width="1.10032"/>
<path d="M221.635 159.839L181.289 214.525C176.016 221.672 164.997 220.483 161.371 212.373L155.701 199.696L152.629 192.825L154.91 150.21C156.24 150.784 157.431 151.362 158.413 151.943C159.039 152.31 159.576 152.678 160.015 153.041C165.698 157.778 175.886 190.092 175.886 190.092L206.987 150.58L221.635 159.839Z" fill="#E9E9E9"/>
<path d="M171.999 219.555C171.561 219.555 171.121 219.531 170.678 219.483C166.419 219.023 162.832 216.413 161.084 212.502L152.311 192.884L154.62 149.742L155.035 149.921C156.471 150.541 157.629 151.113 158.574 151.672C159.216 152.049 159.769 152.429 160.216 152.799C165.556 157.25 174.575 184.954 176.006 189.431L206.916 150.162L222.09 159.754L181.543 214.713C179.263 217.801 175.765 219.555 171.999 219.555ZM152.948 192.766L161.658 212.245C163.315 215.95 166.712 218.421 170.746 218.857C174.78 219.292 178.627 217.604 181.036 214.339L221.181 159.925L207.059 150.998L175.765 190.755L175.586 190.187C175.484 189.865 165.361 157.907 159.814 153.283C159.394 152.935 158.869 152.575 158.254 152.214C157.424 151.724 156.422 151.22 155.2 150.68L152.948 192.766Z" fill="#263238"/>
<path d="M154.91 150.21C156.691 161.418 157.259 172.786 156.603 184.116L155.701 199.696L154.839 213.603C154.839 213.603 127.787 221.6 102.067 208.538C104.311 191.675 105.88 181.499 106.88 175.576C107.767 170.337 108.206 168.424 108.27 168.153L112.496 144.971C114.473 144.575 116.507 144.414 118.557 144.5L130.14 144.982L141.773 146.42C148.594 148.064 155.101 149.757 158.413 151.943C157.431 151.362 156.24 150.784 154.91 150.21Z" fill="#E9E9E9"/>
<path d="M135.068 216.339C126.08 216.339 113.862 214.882 101.925 208.819L101.726 208.718L101.755 208.496C104.066 191.126 105.649 180.978 106.569 175.524C107.475 170.177 107.916 168.279 107.964 168.08L112.225 144.704L112.434 144.662C114.447 144.259 116.511 144.098 118.571 144.186L130.153 144.667L141.846 146.114C146.548 147.247 151.051 148.387 154.51 149.703L154.509 149.694L154.687 149.771C156.226 150.366 157.552 150.997 158.586 151.68L158.253 152.214C157.448 151.738 156.482 151.251 155.31 150.73C157.022 161.758 157.563 172.994 156.917 184.135L156.015 199.714L155.14 213.843L154.928 213.905C154.86 213.925 148.013 215.92 138.11 216.284C137.145 216.319 136.128 216.339 135.068 216.339ZM102.409 208.358C115.565 214.981 129.05 215.985 138.067 215.655C146.929 215.331 153.318 213.694 154.539 213.36L155.386 199.676L156.289 184.098C156.939 172.868 156.38 161.541 154.626 150.429C151.104 149.052 146.381 147.855 141.716 146.73L130.102 145.294L118.544 144.814C116.606 144.733 114.664 144.875 112.767 145.238L108.58 168.209C108.53 168.422 108.093 170.302 107.19 175.628C106.275 181.055 104.703 191.132 102.409 208.358Z" fill="#263238"/>
<path d="M144.039 140.155L143.663 145.909L142.786 159.289C135.451 158.891 127.704 152.931 127.704 146.129L132.179 137.887L135.351 138.495L144.039 140.155Z" fill="white"/>
<path d="M143.079 159.621L142.768 159.604C135.509 159.209 127.389 153.363 127.389 146.129V146.049L132.012 137.535L144.371 139.897L143.079 159.621ZM128.02 146.208C128.08 152.853 135.755 158.433 142.492 158.954L143.707 140.412L132.346 138.24L128.02 146.208Z" fill="#263238"/>
<path d="M136.693 157.743L131.191 162.425L125.386 152.115C124.102 149.834 125.219 146.949 127.704 146.128C127.543 150.674 131.608 153.491 136.693 157.743Z" fill="white"/>
<path d="M131.104 162.913L125.112 152.27C124.453 151.1 124.354 149.712 124.838 148.461C125.323 147.209 126.332 146.25 127.606 145.829L128.035 145.687L128.019 146.139C127.88 150.065 131.02 152.653 135.367 156.236C135.863 156.645 136.373 157.066 136.895 157.502L137.181 157.741L131.104 162.913ZM127.388 146.591C126.49 147.007 125.788 147.752 125.426 148.688C125.009 149.763 125.095 150.956 125.661 151.961L131.278 161.938L136.204 157.746C135.783 157.395 135.37 157.055 134.966 156.722C130.812 153.298 127.499 150.566 127.388 146.591Z" fill="#263238"/>
<path d="M136.693 157.757L140.982 163.57L145.757 155.544C147.304 152.943 146.352 149.577 143.673 148.173C142.794 152.636 142.613 154.776 136.693 157.757Z" fill="white"/>
<path d="M141.01 164.139L136.218 157.644L136.551 157.476C142.083 154.69 142.475 152.677 143.256 148.666L143.446 147.697L143.819 147.893C145.192 148.614 146.181 149.832 146.603 151.324C147.025 152.816 146.82 154.372 146.028 155.704L141.01 164.139ZM137.167 157.869L140.954 163.002L145.487 155.383C146.19 154.2 146.371 152.82 145.997 151.496C145.662 150.31 144.923 149.319 143.897 148.666L143.874 148.787C143.095 152.787 142.659 155.026 137.167 157.869Z" fill="#263238"/>
<path d="M164.354 408.679L121.721 389.803L132.529 377.373L150.024 385.119L164.354 408.679Z" fill="white"/>
<path d="M165.145 409.374L121.203 389.917L132.444 376.99L150.241 384.871L150.293 384.955L165.145 409.374ZM122.238 389.687L163.563 407.984L149.806 385.367L132.614 377.754L122.238 389.687Z" fill="#263238"/>
<path d="M149.928 384.819L142.069 387.879L142.302 388.478L150.161 385.418L149.928 384.819Z" fill="#263238"/>
<path d="M124.056 386.987L123.801 387.563L156.785 402.168L157.04 401.592L124.056 386.987Z" fill="#263238"/>
<path d="M42.0618 408.052H88.6854L83.8329 392.31H64.7007L42.0618 408.052Z" fill="white"/>
<path d="M89.1122 408.366H41.0574L64.6021 391.995H84.0655L89.1122 408.366ZM43.0661 407.737H88.259L83.6004 392.625H64.7993L43.0661 407.737Z" fill="#263238"/>
<path d="M64.9182 392.108L64.4719 392.552L70.4181 398.533L70.8645 398.089L64.9182 392.108Z" fill="#263238"/>
<path d="M87.6946 404.522H51.6232V405.152H87.6946V404.522Z" fill="#263238"/>
<path d="M107.436 174.09L106.958 174.003L108.034 168.095L108.278 168.118L108.516 168.165L108.512 168.187L107.436 174.09Z" fill="#263238"/>
<path d="M99.7963 230.873C99.7963 230.873 104.589 231.74 106.115 234.215C107.641 236.689 107.986 243.291 104.72 239.063C101.454 234.834 101.015 246.858 93.9329 255.368C86.8504 263.879 89.5615 253.695 90.8111 249.132C92.8692 241.618 92.9848 237.609 92.9848 237.609L99.7963 230.873Z" fill="white"/>
<path d="M90.0562 258.971C89.8958 258.971 89.749 258.936 89.6149 258.865C88.3109 258.185 89.0287 254.449 90.5077 249.049C92.5293 241.669 92.669 237.64 92.6703 237.6L92.674 237.474L99.6915 230.535L99.8525 230.564C100.054 230.6 104.802 231.485 106.383 234.05C107.432 235.75 108.119 239.784 106.926 240.609C106.317 241.031 105.49 240.576 104.471 239.255C104.055 238.718 103.696 238.467 103.403 238.508C102.596 238.623 101.741 240.796 100.752 243.312C99.381 246.797 97.5033 251.571 94.1749 255.57C92.2466 257.887 90.9428 258.97 90.0562 258.971ZM93.2941 237.746C93.2571 238.495 92.9827 242.396 91.1149 249.216C89.5689 254.86 89.1622 257.919 89.906 258.307C90.0976 258.407 90.9373 258.476 93.6909 255.167C96.9548 251.246 98.8108 246.527 100.166 243.081C101.357 240.052 102.144 238.051 103.314 237.884C103.855 237.808 104.397 238.13 104.969 238.871C105.833 239.99 106.37 240.228 106.568 240.091C107.244 239.624 106.927 236.131 105.848 234.38C104.565 232.301 100.727 231.39 99.8989 231.215L93.2941 237.746Z" fill="#263238"/>
<path d="M77.6703 188.756L101.586 229.771L90.6175 240.329L58.9986 195.188L58.7733 195.345L58.9986 195.188C53.9849 188.03 55.9999 178.129 63.4133 173.504C71.9514 168.177 83.0493 161.294 92.5857 155.629C97.3542 152.796 101.73 150.269 105.199 148.394C106.933 147.457 108.438 146.684 109.651 146.118C110.607 145.671 111.367 145.36 111.909 145.195L106.444 175.369L77.7943 188.367L77.5169 188.493L77.6703 188.756Z" fill="#E9E9E9" stroke="#263238" stroke-width="0.550162"/>
<path d="M135.29 158.937L124.901 201.35L130.253 210.516L136.693 203.269L137.91 159.407L136.693 157.757L135.29 158.937Z" fill="#0487FF"/>
<path d="M144.039 140.155L143.663 145.909C132.99 148.165 131.213 140.871 131.213 140.871L135.351 138.495L144.039 140.155Z" fill="#263238"/>
<path d="M124.491 123.988C124.491 123.988 122.887 116.013 126.014 110.52C129.141 105.027 132.955 105.867 132.955 105.867C132.955 105.867 139.896 100.129 151.337 105.821C162.778 111.512 156.158 127.683 150.125 134.016C139.209 130.737 124.491 123.988 124.491 123.988Z" fill="#263238"/>
<path d="M152.035 126.314C152.035 126.314 155.879 123.783 156.01 126.741C156.142 129.699 153.185 136.436 149.242 133.511C150.425 128.22 152.035 126.314 152.035 126.314Z" fill="white"/>
<path d="M151.181 134.544C150.473 134.544 149.755 134.283 149.055 133.764L148.89 133.642L148.935 133.442C150.121 128.137 151.727 126.191 151.794 126.11L151.862 126.051C152.103 125.892 154.252 124.519 155.507 125.161C156.015 125.42 156.29 125.947 156.325 126.727C156.42 128.857 154.994 132.911 152.629 134.169C152.157 134.42 151.671 134.544 151.181 134.544ZM149.595 133.375C150.528 134.003 151.448 134.083 152.333 133.612C154.412 132.508 155.785 128.749 155.696 126.755C155.672 126.211 155.516 125.873 155.221 125.721C154.45 125.327 152.855 126.161 152.25 126.549C152.042 126.821 150.655 128.759 149.595 133.375Z" fill="#263238"/>
<path d="M129.241 121.281C129.241 121.281 127.005 117.258 125.52 119.819C124.034 122.379 123.537 129.721 128.386 128.954C129.786 123.716 129.241 121.281 129.241 121.281Z" fill="white"/>
<path d="M127.716 129.324C126.595 129.324 125.693 128.863 125.08 127.968C123.565 125.759 124.178 121.505 125.247 119.66C125.639 118.986 126.117 118.654 126.697 118.651C128.106 118.664 129.376 120.876 129.516 121.128L129.549 121.212C129.571 121.314 130.094 123.783 128.69 129.035L128.637 129.233L128.435 129.264C128.186 129.304 127.946 129.324 127.716 129.324ZM126.685 119.281C126.355 119.281 126.063 119.508 125.792 119.977C124.79 121.704 124.268 125.67 125.599 127.612C126.166 128.439 127.019 128.796 128.135 128.67C129.333 124.088 129 121.727 128.942 121.391C128.585 120.766 127.557 119.288 126.691 119.281C126.689 119.281 126.687 119.281 126.685 119.281Z" fill="#263238"/>
<path d="M129.922 113.497L127.091 130.207C126.406 134.248 127.987 138.339 131.212 140.869L131.97 141.464C134.548 143.487 137.883 144.275 141.094 143.622C145.138 142.8 148.4 139.814 149.577 135.857L154.762 118.426C154.762 118.426 144.773 106.53 129.922 113.497Z" fill="white"/>
<path d="M138.861 144.162C136.313 144.162 133.819 143.314 131.776 141.712L131.017 141.117C127.699 138.513 126.075 134.313 126.78 130.154L129.639 113.281L129.789 113.211C137.572 109.56 144.015 111.116 148.048 113.065C152.412 115.173 154.899 118.1 155.003 118.223L155.112 118.353L149.879 135.946C148.666 140.023 145.324 143.083 141.157 143.931C140.394 144.086 139.625 144.162 138.861 144.162ZM130.205 113.712L127.401 130.259C126.735 134.19 128.27 138.161 131.406 140.621L132.165 141.216C134.674 143.185 137.906 143.949 141.031 143.314C144.97 142.512 148.129 139.621 149.276 135.767L154.411 118.503C153.884 117.921 151.501 115.427 147.752 113.621C143.872 111.752 137.687 110.26 130.205 113.712Z" fill="#263238"/>
<path d="M129.922 113.497C129.922 113.497 140.048 120.896 150.116 120.667C160.184 120.438 158.43 114.258 155.532 111.741C152.633 109.223 140.753 106.554 129.922 113.497Z" fill="#263238"/>
<path d="M208.352 151.25L220.777 155.077L218.287 157.861L208.352 151.25Z" fill="#263238"/>
<path d="M92.8609 239.088L102.947 231.982L100.697 231.232L92.8609 239.088Z" fill="#263238"/>
<path d="M110.09 158.174L103.032 177.324L106.921 175.56L110.09 158.174Z" fill="#263238"/>
<path d="M156.834 178.25L159.812 208.887L155.701 199.695L156.834 178.25Z" fill="#263238"/>
<path d="M70.1839 93.226L34.1619 78.5603L19.4996 114.59L55.5215 129.256L70.1839 93.226Z" fill="white"/>
<path d="M55.6877 129.678L19.0826 114.774L33.9836 78.1603L70.5888 93.065L55.6877 129.678ZM19.9033 114.428L55.3419 128.857L69.7683 93.4108L34.3297 78.9812L19.9033 114.428Z" fill="#263238"/>
<path d="M47.1584 95.3312L33.6694 89.8394L32.8332 91.894L46.3223 97.3858L47.1584 95.3312Z" fill="white"/>
<path d="M46.4894 97.8073L32.4172 92.0777L33.4907 89.4399L47.5629 95.1696L46.4894 97.8073ZM33.2376 91.7315L46.1433 96.9864L46.7422 95.5151L33.8365 90.2603L33.2376 91.7315Z" fill="#263238"/>
<path d="M56.748 104.912L31.6873 94.7095L30.8511 96.7641L55.9119 106.967L56.748 104.912Z" fill="white"/>
<path d="M56.079 107.389L30.4351 96.9477L31.5087 94.3099L57.1525 104.751L56.079 107.389ZM31.2556 96.6018L55.7329 106.568L56.3318 105.097L31.8541 95.1306L31.2556 96.6018Z" fill="#263238"/>
<path d="M56.683 110.564L29.7051 99.5803L28.869 101.635L55.8469 112.618L56.683 110.564Z" fill="white"/>
<path d="M56.0141 113.04L28.4531 101.818L29.5266 99.18L57.0876 110.402L56.0141 113.04ZM29.2735 101.472L55.6683 112.219L56.2672 110.748L29.8724 100.001L29.2735 101.472Z" fill="#263238"/>
<path d="M46.7585 112.2L27.7234 104.45L26.8873 106.505L45.9223 114.255L46.7585 112.2Z" fill="white"/>
<path d="M46.0892 114.676L26.471 106.688L27.5445 104.05L47.1628 112.038L46.0892 114.676ZM27.2915 106.343L45.7434 113.856L46.3423 112.384L27.8903 104.871L27.2915 106.343Z" fill="#263238"/>
<path d="M49.1588 118.855L25.7415 109.321L24.9054 111.375L48.3227 120.909L49.1588 118.855Z" fill="white"/>
<path d="M48.4891 121.331L24.4886 111.559L25.5621 108.921L49.5626 118.693L48.4891 121.331ZM25.309 111.213L48.1433 120.51L48.7422 119.039L25.9079 109.741L25.309 111.213Z" fill="#263238"/>
<path d="M63.4829 91.7191C64.4178 90.2944 64.021 88.3815 62.5966 87.4464C61.1722 86.5114 59.2597 86.9082 58.3249 88.3329C57.39 89.7576 57.7868 91.6706 59.2112 92.6056C60.6355 93.5407 62.5481 93.1438 63.4829 91.7191Z" fill="#263238"/>
<path d="M80.33 111.839L41.5895 115.255L45.0042 154.004L83.7448 150.588L80.33 111.839Z" fill="#0487FF"/>
<path d="M60.81 124.234L46.3029 125.513L46.4976 127.723L61.0047 126.444L60.81 124.234Z" fill="white"/>
<path d="M73.7166 128.375L46.7645 130.751L46.9593 132.96L73.9114 130.584L73.7166 128.375Z" fill="white"/>
<path d="M76.2399 133.43L47.226 135.988L47.4207 138.198L76.4346 135.64L76.2399 133.43Z" fill="white"/>
<path d="M68.1592 139.421L47.6876 141.226L47.8823 143.436L68.3539 141.631L68.1592 139.421Z" fill="white"/>
<path d="M73.3338 144.244L48.1492 146.464L48.3439 148.674L73.5285 146.453L73.3338 144.244Z" fill="white"/>
<path d="M73.6812 112.952C73.8307 114.649 72.5761 116.147 70.8789 116.297C69.1818 116.446 67.6846 115.191 67.535 113.494C67.3855 111.796 68.6401 110.299 70.3373 110.149C72.0344 109.999 73.5316 111.254 73.6812 112.952Z" fill="#263238"/>
<path d="M261.337 105.179L250.457 88.0484L239.578 105.179H244.641V122.99H256.273V105.179H261.337Z" fill="#0487FF"/>
<path d="M278.732 97.9375L271.246 86.1497L263.76 97.9375H267.244V110.193H275.248V97.9375H278.732Z" fill="#0487FF"/>
<path d="M237.394 81.7878L229.907 70L222.421 81.7878H225.905V94.0433H233.91V81.7878H237.394Z" fill="#0487FF"/>
<path d="M219.38 407.985H215.135L221.503 378.813H229.994L219.38 407.985Z" fill="#263238"/>
<path d="M320.415 407.985H324.66L318.292 378.813H309.801L320.415 407.985Z" fill="#263238"/>
<path d="M323.535 321.728H216.114V382.658H323.535V321.728Z" fill="white"/>
<path d="M323.85 382.973H215.8V321.413H323.85V382.973ZM216.429 382.343H323.22V322.043H216.429V382.343Z" fill="#263238"/>
<path d="M314.231 327.348H225.418V348.939H314.231V327.348Z" fill="white"/>
<path d="M314.546 349.254H225.103V327.033H314.546V349.254ZM225.733 348.624H313.917V327.663H225.733V348.624Z" fill="#263238"/>
<path d="M314.231 354.598H225.418V376.189H314.231V354.598Z" fill="white"/>
<path d="M314.546 376.504H225.103V354.283H314.546V376.504ZM225.733 375.874H313.917V354.913H225.733V375.874Z" fill="#263238"/>
<path d="M270.941 342.425C272.408 341.817 273.104 340.136 272.497 338.669C271.889 337.202 270.208 336.505 268.741 337.113C267.275 337.72 266.578 339.402 267.186 340.869C267.793 342.336 269.475 343.033 270.941 342.425Z" fill="#263238"/>
<path d="M272.676 365.855C272.93 364.287 271.866 362.811 270.299 362.556C268.732 362.302 267.256 363.366 267.001 364.933C266.747 366.501 267.811 367.977 269.378 368.232C270.945 368.486 272.421 367.422 272.676 365.855Z" fill="#263238"/>
<path d="M288.24 314.925H228.802V321.728H288.24V314.925Z" fill="white"/>
<path d="M288.555 322.043H228.487V314.61H288.555V322.043ZM229.117 321.413H287.925V315.24H229.117V321.413Z" fill="#263238"/>
<path d="M283.181 308.122H223.744V314.925H283.181V308.122Z" fill="white"/>
<path d="M283.496 315.24H223.429V307.807H283.496V315.24ZM224.059 314.61H282.867V308.437H224.059V314.61Z" fill="#263238"/>
<path d="M286.662 235.362C286.662 235.362 284.473 232.047 284.377 228.433C284.282 224.819 280.587 219.695 280.164 224.72C279.74 229.745 273.649 224.057 266.6 215.785C262.852 211.386 260.849 223.127 268.261 230.766C275.673 238.404 274.351 237.41 278.369 241.755C280.915 240.446 286.662 235.362 286.662 235.362Z" fill="white"/>
<path d="M278.293 242.182L278.115 241.99C276.652 240.407 275.898 239.534 275.168 238.69C273.913 237.236 272.726 235.863 268.013 231.006C263.149 225.993 262.289 219.414 263.233 216.345C263.559 215.285 264.092 214.651 264.774 214.51C265.237 214.413 265.975 214.518 266.864 215.561C274.925 225.022 277.95 226.579 279.067 226.221C279.492 226.084 279.746 225.569 279.82 224.691C279.99 222.667 280.696 222.26 281.267 222.278C282.858 222.324 284.657 225.925 284.723 228.424C284.815 231.899 286.93 235.139 286.951 235.171L287.116 235.422L286.892 235.62C286.655 235.829 281.083 240.749 278.527 242.062L278.293 242.182ZM265.054 215.172C265.006 215.172 264.959 215.177 264.914 215.186C264.505 215.271 264.133 215.767 263.893 216.548C263.025 219.372 263.892 225.767 268.509 230.525C273.235 235.396 274.428 236.777 275.691 238.238C276.386 239.043 277.103 239.873 278.441 241.324C280.724 240.046 285.175 236.202 286.213 235.296C285.694 234.437 284.115 231.574 284.032 228.442C283.965 225.904 282.165 222.995 281.247 222.969C280.884 222.973 280.602 223.624 280.507 224.749C280.408 225.932 279.994 226.648 279.277 226.879C278.038 227.276 275.348 226.584 266.337 216.009C265.868 215.458 265.428 215.172 265.054 215.172Z" fill="#263238"/>
<path d="M343.139 259.018C330.741 261.907 311.919 270.101 311.919 270.101L287.821 235.551L275.206 237.697L304.046 282.502C306.495 286.306 311.099 288.123 315.482 287.006C323.805 284.886 337.324 280.176 347.164 270.499C351.235 266.495 348.821 259.568 343.139 259.018Z" fill="#E9E9E9"/>
<path d="M312.883 287.654C309.26 287.654 305.806 285.83 303.776 282.676L274.672 237.462L287.968 235.2L312.033 269.703C314.275 268.738 331.54 261.391 343.066 258.705L343.117 258.693L343.17 258.698C345.912 258.964 348.186 260.74 349.104 263.333C350.028 265.946 349.371 268.779 347.39 270.728C337.769 280.189 324.771 284.972 315.562 287.317C314.671 287.544 313.772 287.654 312.883 287.654ZM275.739 237.932L304.316 282.328C306.695 286.023 311.15 287.778 315.403 286.695C324.536 284.368 337.421 279.631 346.939 270.27C348.741 268.498 349.338 265.922 348.498 263.547C347.67 261.208 345.628 259.602 343.159 259.343C330.931 262.203 312.235 270.314 312.047 270.396L311.806 270.501L287.674 235.902L275.739 237.932Z" fill="#263238"/>
<path d="M335.69 263.551C335.69 263.551 330.88 269.514 332.275 280.851C335.692 279.293 335.692 279.293 335.692 279.293L335.69 263.551Z" fill="#263238"/>
<path d="M303.96 336.183L303.212 335.867L303.195 336.678L301.924 398.871L288.443 398.571L282.465 322.633L281.917 322.676L282.465 322.633C282.01 316.86 286.787 312.031 292.562 312.422L292.562 312.422L363.549 317.232L365.347 327.9C366.4 334.146 364.412 341.441 360.66 346.614C356.907 351.787 351.519 354.695 345.748 352.567C321.899 343.777 313.383 340.172 305.255 336.731C304.823 336.548 304.392 336.366 303.96 336.183Z" fill="white" stroke="#263238" stroke-width="1.10032"/>
<path d="M270.546 408.78L305.913 409.567L302.498 397.544L287.985 397.221L270.546 408.78Z" fill="white"/>
<path d="M306.341 409.897L269.515 409.078L287.891 396.898L302.742 397.228L306.341 409.897ZM271.578 408.482L305.485 409.236L302.254 397.86L288.078 397.545L271.578 408.482Z" fill="#263238"/>
<path d="M288.232 396.998L287.766 397.44L292.176 402.078L292.642 401.635L288.232 396.998Z" fill="#263238"/>
<path d="M277.858 406.138L277.843 406.78L305.207 407.388L305.222 406.745L277.858 406.138Z" fill="#263238"/>
<path d="M380.873 317.985C382.253 356.005 381.076 368.059 380.24 376.616C379.898 380.122 379.613 383.04 379.584 386.916L379.58 387.413L380.074 387.467L443.471 394.414L442.659 407.885L356.13 408.239L346.99 322.382L380.873 317.985Z" fill="white" stroke="#263238" stroke-width="1.10032"/>
<path d="M464.137 409.622L436.271 387.825L431.815 399.503L443.25 408.447L464.137 409.622Z" fill="white"/>
<path d="M465.142 410L443.132 408.762L431.431 399.61L436.126 387.304L465.142 410ZM443.369 408.132L463.133 409.244L436.416 388.346L432.2 399.396L443.369 408.132Z" fill="#263238"/>
<path d="M442.805 402.007L442.167 402.083L442.927 408.438L443.564 408.362L442.805 402.007Z" fill="#263238"/>
<path d="M435.535 389.978L435.14 390.484L456.698 407.347L457.094 406.841L435.535 389.978Z" fill="#263238"/>
<path d="M336.319 262.272C326.586 281.084 346.886 281.026 332.458 321.071C332.076 322.131 332.3 323.317 333.048 324.159C340.874 332.968 357.591 332.515 381.021 323.663C382.846 322.974 383.57 320.792 382.53 319.141C373.847 305.351 377.24 275.307 379.072 263.169C379.549 260.007 377.205 257.087 374.012 256.938C373.99 256.937 373.969 256.937 373.948 256.936L362.367 256.421L350.654 256.856L340.957 258.771C338.956 259.165 337.256 260.461 336.319 262.272Z" fill="#E9E9E9"/>
<path d="M350.539 330.782C342.62 330.782 336.676 328.61 332.867 324.32C332.06 323.413 331.816 322.136 332.229 320.989C340.39 298.338 337.441 288.687 335.072 280.932C333.271 275.039 331.849 270.384 336.104 262.16C337.085 260.263 338.837 258.941 340.909 258.532L350.645 256.612L362.357 256.178L374.021 256.696C375.596 256.769 377.076 257.514 378.082 258.741C379.104 259.986 379.552 261.613 379.312 263.205C377.468 275.421 374.11 305.312 382.735 319.012C383.271 319.863 383.396 320.896 383.077 321.846C382.76 322.792 382.041 323.537 381.106 323.89C369.325 328.342 359.258 330.658 351.186 330.777C350.969 330.78 350.753 330.782 350.539 330.782ZM350.682 257.097L341.004 259.008C339.077 259.389 337.448 260.619 336.535 262.384C332.372 270.431 333.768 275.002 335.537 280.79C337.927 288.613 340.903 298.35 332.687 321.153C332.334 322.133 332.542 323.223 333.23 323.997C336.946 328.181 342.794 330.271 350.56 330.271C358.67 330.272 368.873 327.992 380.935 323.435C381.733 323.134 382.347 322.498 382.617 321.691C382.889 320.88 382.783 319.998 382.325 319.27C373.612 305.433 376.979 275.401 378.832 263.132C379.052 261.676 378.642 260.188 377.707 259.049C376.788 257.928 375.437 257.247 374 257.18L362.356 256.663L350.682 257.097Z" fill="#263238"/>
<path d="M364.695 257.771C364.11 264.55 355.882 269.823 348.539 269.591L348.784 257.66L348.931 250.418L360.203 249.254L360.944 249.179L364.695 257.771Z" fill="white"/>
<path d="M349 269.842C348.843 269.842 348.687 269.839 348.531 269.834L348.291 269.827L348.693 250.198L361.096 248.919L364.943 257.73L364.937 257.792C364.332 264.806 356.13 269.842 349 269.842ZM348.787 269.354C352.274 269.415 355.987 268.232 359.012 266.111C362.23 263.855 364.159 260.91 364.448 257.811L360.792 249.438L360.228 249.495L349.17 250.637L348.787 269.354Z" fill="#263238"/>
<path d="M354.743 268.573L355.73 269.571C357.852 271.716 361.403 271.394 363.104 268.901L366.491 263.936C367.966 261.774 367.1 258.803 364.695 257.772C364.466 262.316 360.174 264.773 354.743 268.573Z" fill="#263238"/>
<path d="M354.742 268.587C352.475 271.163 348.317 270.596 346.823 267.507L345.901 265.604C344.583 262.88 345.82 259.608 348.61 258.438C349.103 262.961 349.099 265.108 354.742 268.587Z" fill="#263238"/>
<path d="M361.925 254.052C361.925 254.052 356.002 259.681 348.784 257.659L348.932 250.418L360.204 249.253C361.228 251.203 361.925 254.052 361.925 254.052Z" fill="#263238"/>
<path d="M367.341 223.063C368.111 217.955 364.595 213.191 359.488 212.421C354.382 211.651 349.618 215.168 348.849 220.276C348.079 225.383 351.595 230.148 356.702 230.918C361.808 231.687 366.572 228.171 367.341 223.063Z" fill="#263238"/>
<path d="M356.729 220.957C356.729 220.957 370.069 221.937 371.317 232.693C372.572 243.502 365.475 254.499 365.475 254.499L342.326 251.487C342.326 251.487 341.6 237.885 345.824 230.516C350.048 223.147 356.729 220.957 356.729 220.957Z" fill="#263238"/>
<path d="M346.327 233.842C346.327 233.842 343.951 229.9 342.556 232.511C341.162 235.123 340.923 242.477 345.742 241.54C346.957 236.256 346.327 233.842 346.327 233.842Z" fill="white"/>
<path d="M344.947 241.863C343.913 241.863 343.063 241.445 342.461 240.629C340.886 238.496 341.346 234.262 342.342 232.397C342.697 231.733 343.152 231.389 343.694 231.375C345.096 231.341 346.477 233.619 346.535 233.716L346.562 233.78C346.588 233.881 347.193 236.313 345.978 241.594L345.943 241.748L345.788 241.778C345.496 241.835 345.215 241.863 344.947 241.863ZM343.728 231.86C343.721 231.86 343.714 231.86 343.707 231.861C343.352 231.87 343.037 232.127 342.771 232.626C341.822 234.403 341.438 238.425 342.852 240.339C343.473 241.181 344.378 241.514 345.541 241.328C346.606 236.606 346.164 234.233 346.099 233.934C345.723 233.324 344.629 231.86 343.728 231.86Z" fill="#263238"/>
<path d="M367.806 238.666C367.806 238.666 371.559 236.002 371.794 238.953C372.029 241.904 369.311 248.741 365.268 245.957C366.264 240.628 367.806 238.666 367.806 238.666Z" fill="white"/>
<path d="M367.141 246.851C366.478 246.851 365.8 246.619 365.13 246.157L365 246.068L365.029 245.913C366.024 240.586 367.55 238.598 367.615 238.516L367.665 238.468C367.758 238.403 369.944 236.868 371.205 237.457C371.697 237.687 371.977 238.184 372.036 238.934C372.204 241.042 370.935 245.107 368.64 246.433C368.157 246.712 367.654 246.851 367.141 246.851ZM365.537 245.844C366.529 246.478 367.49 246.535 368.397 246.012C370.458 244.821 371.712 240.981 371.552 238.973C371.507 238.409 371.321 238.047 371 237.897C370.18 237.514 368.571 238.429 367.978 238.842C367.8 239.09 366.447 241.09 365.537 245.844Z" fill="#263238"/>
<path d="M368.304 239.213L365.896 247.647C364.77 251.588 361.578 254.596 357.578 255.487L356.637 255.696C353.439 256.408 350.09 255.68 347.476 253.706C344.182 251.218 342.528 247.116 343.173 243.039L344.607 233.972C345.723 226.921 352.652 222.314 359.568 224.081C359.677 224.109 359.786 224.138 359.895 224.168C366.392 225.949 370.155 232.734 368.304 239.213Z" fill="white"/>
<path d="M354.204 256.207C351.744 256.207 349.331 255.411 347.329 253.899C343.957 251.352 342.272 247.176 342.933 243.001L344.367 233.934C344.912 230.489 346.896 227.413 349.81 225.496C352.704 223.592 356.282 222.99 359.628 223.845C359.738 223.873 359.849 223.902 359.96 223.933C363.144 224.806 365.793 226.878 367.419 229.768C369.059 232.684 369.457 236.062 368.538 239.279L366.13 247.713C364.978 251.744 361.722 254.813 357.631 255.724L356.69 255.933C355.865 256.117 355.032 256.207 354.204 256.207ZM356.597 223.951C354.303 223.951 352.028 224.618 350.077 225.902C347.277 227.744 345.371 230.7 344.847 234.01L343.413 243.077C342.78 247.074 344.393 251.072 347.622 253.511C350.184 255.446 353.451 256.156 356.584 255.459L357.525 255.249C361.442 254.378 364.56 251.438 365.662 247.579L368.071 239.146C368.953 236.054 368.572 232.809 366.995 230.007C365.434 227.231 362.889 225.24 359.831 224.402C359.724 224.372 359.615 224.344 359.508 224.316C358.55 224.072 357.571 223.951 356.597 223.951Z" fill="#263238"/>
<path d="M356.763 228.55C356.763 228.55 354.565 234.214 343.014 232.345C342.062 219.928 354.281 217.952 358.239 221.506C365.177 220.474 371.343 223.586 368.737 237.198C363.457 234.827 358.046 234.298 356.763 228.55Z" fill="#263238"/>
<path d="M202.773 254.796L303.907 147.831L348.066 165.922L401.688 101.69L383.551 91.8301L437.962 73.6683V115.696L422.585 109.935L359.895 208.958L311.398 189.634L242.004 268.508L202.773 254.796Z" fill="#0487FF"/>
<path d="M380.586 184.745C380.586 184.745 380.309 180.782 378.189 177.855C376.068 174.928 375.887 168.613 379.277 172.345C382.668 176.076 386.636 167.51 391.811 157.952C394.563 152.87 398.962 163.937 393.3 172.95C387.639 181.964 391.606 178.885 391.057 184.778C388.24 185.287 380.586 184.745 380.586 184.745Z" fill="white"/>
<path d="M387.261 185.343C384.185 185.343 380.773 185.105 380.562 185.09L380.263 185.069L380.242 184.769C380.239 184.731 379.945 180.867 377.909 178.057C376.443 176.033 375.682 172.081 376.917 171.076C377.357 170.719 378.168 170.609 379.533 172.112C380.068 172.701 380.61 172.951 381.19 172.88C383.597 172.582 386.548 167.058 389.965 160.661C390.467 159.721 390.981 158.759 391.508 157.787C392.16 156.583 392.86 156.327 393.333 156.324C393.335 156.324 393.338 156.324 393.341 156.324C394.035 156.324 394.685 156.834 395.221 157.799C396.783 160.605 397.31 167.218 393.593 173.134C390.059 178.76 390.367 179.526 390.877 180.795C391.202 181.603 391.606 182.609 391.402 184.809L391.377 185.071L391.119 185.118C390.19 185.286 388.766 185.343 387.261 185.343ZM380.903 184.42C382.277 184.508 388.145 184.853 390.736 184.48C390.87 182.63 390.52 181.759 390.236 181.052C389.595 179.457 389.445 178.439 393.008 172.767C396.535 167.152 396.053 160.716 394.617 158.135C394.22 157.421 393.758 157.017 393.336 157.015C392.926 157.018 392.503 157.398 392.114 158.116C391.589 159.087 391.076 160.048 390.574 160.986C386.922 167.823 384.037 173.223 381.275 173.566C380.467 173.667 379.709 173.333 379.022 172.576C378.262 171.74 377.638 171.38 377.353 171.612C376.639 172.192 376.979 175.596 378.468 177.652C380.307 180.189 380.792 183.423 380.903 184.42Z" fill="#263238"/>
<path d="M368.706 267.245C373.587 248.953 382.202 229.873 382.202 229.873L379.781 185.6L391.102 179.632L397.649 228.639C398.285 233.397 397.929 238.237 396.575 242.842C394.284 250.638 389.481 262.526 379.99 271.65C375.915 275.569 369.105 272.886 368.706 267.245Z" fill="#E9E9E9"/>
<path d="M375.429 273.824C374.582 273.824 373.724 273.667 372.892 273.347C370.307 272.353 368.58 270.023 368.385 267.268L368.382 267.215L368.396 267.163C373.077 249.615 381.294 231.116 381.877 229.812L379.449 185.412L391.359 179.134L397.968 228.596C398.617 233.454 398.252 238.277 396.884 242.933C394.469 251.149 389.616 262.841 380.213 271.882C378.89 273.154 377.183 273.824 375.429 273.824ZM369.03 267.276C369.226 269.756 370.79 271.85 373.123 272.748C375.441 273.639 377.988 273.13 379.768 271.418C389.069 262.475 393.874 250.893 396.267 242.751C397.61 238.183 397.968 233.449 397.331 228.681L390.845 180.131L380.113 185.788L382.527 229.933L382.495 230.004C382.409 230.195 373.851 249.234 369.03 267.276Z" fill="#263238"/>
<path d="M139.178 133.819C139.194 133.819 139.204 133.819 139.208 133.818C139.344 133.814 139.451 133.693 139.446 133.549C139.442 133.405 139.32 133.296 139.191 133.296C139.19 133.296 138.381 133.312 137.758 132.76C137.663 132.677 137.935 132.113 138.133 131.701C138.487 130.966 138.971 129.96 139.239 128.633C139.267 128.492 139.182 128.353 139.048 128.323C138.916 128.293 138.784 128.383 138.755 128.524C138.501 129.784 138.034 130.755 137.692 131.464C137.316 132.246 137.045 132.81 137.44 133.161C138.146 133.786 139.004 133.819 139.178 133.819Z" fill="#1D1E20"/>
<path d="M354.841 247.152C354.858 247.152 354.868 247.152 354.871 247.152C355.008 247.148 355.115 247.052 355.11 246.936C355.106 246.821 354.983 246.734 354.855 246.734C354.853 246.734 354.045 246.747 353.421 246.305C353.327 246.239 353.598 245.787 353.796 245.458C354.15 244.87 354.634 244.065 354.902 243.003C354.93 242.89 354.845 242.779 354.712 242.755C354.579 242.732 354.447 242.803 354.418 242.916C354.165 243.924 353.697 244.701 353.356 245.268C352.98 245.894 352.708 246.345 353.104 246.626C353.809 247.126 354.667 247.152 354.841 247.152Z" fill="#1D1E20"/>
<path d="M348.632 239.31C348.388 240.471 348.88 241.557 349.731 241.736C350.583 241.916 351.471 241.121 351.715 239.96C351.959 238.799 351.467 237.713 350.616 237.534C349.765 237.354 348.877 238.149 348.632 239.31Z" fill="#1D1E20"/>
<path d="M358.018 241.018C357.475 242.072 357.661 243.25 358.434 243.649C359.207 244.048 360.274 243.517 360.818 242.463C361.362 241.409 361.176 240.231 360.403 239.832C359.629 239.433 358.562 239.964 358.018 241.018Z" fill="#1D1E20"/>
<path d="M347.923 236.62C347.823 236.585 347.733 236.52 347.666 236.429C347.487 236.185 347.539 235.843 347.782 235.664C349.928 234.09 352.246 235.386 352.342 235.441C352.605 235.591 352.695 235.926 352.545 236.188C352.395 236.449 352.06 236.54 351.799 236.39C351.714 236.343 349.989 235.403 348.431 236.546C348.279 236.658 348.088 236.679 347.923 236.62Z" fill="#1D1E20"/>
<path d="M359.177 237.852C359.102 237.778 359.048 237.681 359.025 237.57C358.967 237.273 359.159 236.986 359.456 236.927C362.067 236.414 363.614 238.573 363.678 238.663C363.852 238.911 363.791 239.252 363.544 239.425C363.297 239.598 362.956 239.538 362.783 239.291C362.726 239.213 361.564 237.629 359.668 238.001C359.483 238.037 359.301 237.976 359.177 237.852Z" fill="#1D1E20"/>
<path d="M353.997 252C351.812 252 350.18 249.753 350.159 249.724C350.032 249.545 350.044 249.271 350.187 249.111C350.33 248.951 350.547 248.966 350.676 249.144C350.769 249.274 352.984 252.305 355.566 250.637C355.736 250.527 355.945 250.611 356.033 250.825C356.12 251.038 356.054 251.3 355.883 251.41C355.228 251.833 354.592 252 353.997 252Z" fill="#1D1E20"/>
<path d="M132.969 125.977C132.724 127.137 133.216 128.224 134.068 128.403C134.919 128.583 135.807 127.788 136.051 126.627C136.296 125.466 135.804 124.38 134.953 124.201C134.101 124.021 133.213 124.816 132.969 125.977Z" fill="#1D1E20"/>
<path d="M142.355 127.684C141.811 128.739 141.997 129.916 142.77 130.316C143.544 130.715 144.611 130.184 145.155 129.13C145.698 128.075 145.512 126.897 144.739 126.498C143.966 126.099 142.899 126.63 142.355 127.684Z" fill="#1D1E20"/>
<path d="M132.26 123.287C132.16 123.251 132.07 123.187 132.002 123.096C131.824 122.852 131.876 122.51 132.119 122.331C134.265 120.756 136.582 122.053 136.678 122.108C136.941 122.258 137.032 122.592 136.881 122.854C136.731 123.116 136.397 123.206 136.135 123.057C136.051 123.01 134.325 122.07 132.768 123.213C132.616 123.324 132.425 123.346 132.26 123.287Z" fill="#1D1E20"/>
<path d="M143.513 124.519C143.438 124.445 143.384 124.348 143.362 124.237C143.303 123.94 143.496 123.653 143.792 123.594C146.404 123.081 147.951 125.239 148.014 125.33C148.188 125.578 148.128 125.919 147.881 126.092C147.633 126.265 147.292 126.205 147.119 125.958C147.063 125.88 145.9 124.295 144.004 124.668C143.82 124.704 143.638 124.642 143.513 124.519Z" fill="#1D1E20"/>
<path d="M138.63 139.404C135.177 139.404 132.597 136.576 132.564 136.539C132.363 136.314 132.383 135.969 132.608 135.768C132.834 135.567 133.178 135.586 133.381 135.81C133.528 135.973 137.029 139.788 141.11 137.689C141.378 137.551 141.709 137.656 141.847 137.925C141.986 138.193 141.88 138.523 141.611 138.661C140.576 139.194 139.57 139.404 138.63 139.404Z" fill="#1D1E20"/>
</g>
<defs>
<clipPath id="clip0_506_81">
<rect width="480" height="480" rx="24" fill="white"/>
</clipPath>
<clipPath id="clip1_506_81">
<rect width="480" height="480" rx="24" fill="white"/>
</clipPath>
</defs>
</svg>
