<svg width="480" height="480" viewBox="0 0 480 480" fill="none" xmlns="http://www.w3.org/2000/svg">
<g clip-path="url(#clip0_332_4924)">
<g clip-path="url(#clip1_332_4924)">
<rect width="480" height="480" rx="24" fill="#E6F3FF"/>
<path d="M364.208 406.351H130.529C125.006 406.351 120.529 401.874 120.529 396.351V88C120.529 82.477 125.006 78 130.529 78H364.208C369.731 78 374.208 82.477 374.208 88V396.351C374.208 401.874 369.731 406.351 364.208 406.351Z" fill="white" stroke="#263238" stroke-width="1.0229" stroke-miterlimit="10" stroke-linecap="round" stroke-linejoin="round"/>
<path d="M227.041 168.234V169.256H226.018" stroke="#263238" stroke-width="1.0229" stroke-linecap="round" stroke-linejoin="round"/>
<path d="M224.001 169.256H164.505" stroke="#263238" stroke-width="1.0229" stroke-linecap="round" stroke-linejoin="round" stroke-dasharray="2.02 2.02"/>
<path d="M163.497 169.256H162.474V168.234" stroke="#263238" stroke-width="1.0229" stroke-linecap="round" stroke-linejoin="round"/>
<path d="M162.474 166.265V119.99" stroke="#263238" stroke-width="1.0229" stroke-linecap="round" stroke-linejoin="round" stroke-dasharray="1.97 1.97"/>
<path d="M162.474 119.006V117.983H163.497" stroke="#263238" stroke-width="1.0229" stroke-linecap="round" stroke-linejoin="round"/>
<path d="M165.513 117.983H225.01" stroke="#263238" stroke-width="1.0229" stroke-linecap="round" stroke-linejoin="round" stroke-dasharray="2.02 2.02"/>
<path d="M226.018 117.983H227.041V119.006" stroke="#263238" stroke-width="1.0229" stroke-linecap="round" stroke-linejoin="round"/>
<path d="M227.041 120.975V167.249" stroke="#263238" stroke-width="1.0229" stroke-linecap="round" stroke-linejoin="round" stroke-dasharray="1.97 1.97"/>
<path d="M216.731 126.169H172.782V161.07H216.731V126.169Z" fill="#0487FF" stroke="#263238" stroke-width="1.0229" stroke-miterlimit="10" stroke-linecap="round" stroke-linejoin="round"/>
<path d="M170.197 123.584L155.116 111.951" stroke="#263238" stroke-width="1.0229" stroke-miterlimit="10" stroke-linecap="round" stroke-linejoin="round"/>
<path d="M219.747 162.793L232.673 173.996" stroke="#263238" stroke-width="1.0229" stroke-miterlimit="10" stroke-linecap="round" stroke-linejoin="round"/>
<path d="M154.523 115.785L154.073 110.836H159.247" stroke="#263238" stroke-width="1.0229" stroke-miterlimit="10" stroke-linecap="round" stroke-linejoin="round"/>
<path d="M233.024 169.318L233.923 174.716L227.625 174.941" stroke="#263238" stroke-width="1.0229" stroke-miterlimit="10" stroke-linecap="round" stroke-linejoin="round"/>
<path d="M271.158 300.859H249.82V308.555H271.158V300.859Z" fill="#263238"/>
<path d="M279.827 304.707L266.145 296.808V312.607L279.827 304.707Z" fill="#263238"/>
<path d="M234.433 370.584H185.345C181.518 370.584 178.417 367.482 178.417 363.656V254.677C178.417 250.85 181.519 247.749 185.345 247.749H234.433C238.259 247.749 241.361 250.851 241.361 254.677V363.656C241.362 367.482 238.26 370.584 234.433 370.584Z" fill="#263238" stroke="#263238" stroke-width="0.8292" stroke-miterlimit="10" stroke-linecap="round" stroke-linejoin="round"/>
<path d="M238.562 256.091H181.216V363.294H238.562V256.091Z" fill="white" stroke="#263238" stroke-width="0.8292" stroke-miterlimit="10" stroke-linecap="round" stroke-linejoin="round"/>
<path d="M227.933 387.51L232.322 370.488C232.795 368.653 233.035 366.765 233.035 364.87V344.456C233.111 344.196 233.165 343.927 233.165 343.646C233.165 341.864 231.536 340.419 229.525 340.419C228.471 340.419 227.53 340.822 226.865 341.456C226.707 339.803 225.162 338.5 223.256 338.5C221.961 338.5 220.831 339.104 220.186 340.007C220 338.379 218.468 337.105 216.583 337.105C215.287 337.105 214.157 337.709 213.512 338.613C213.507 335.908 213.465 322.961 213.058 321.907C211.734 318.492 205.089 320.052 206.249 323.675V343.054C206.249 343.054 206.249 353.299 206.249 353.619C206.249 351.518 204.689 348.75 204.037 346.712C203.427 344.804 203.002 342.727 201.797 341.011C199.736 338.076 196.111 339.691 196.314 342.756C196.492 345.443 198.436 347.561 199.488 350C201.431 354.507 200.264 359.215 202.098 363.733C202.614 365.005 206.035 370.523 207.157 372.031C208.292 373.557 209.506 377.568 209.506 377.568L207.806 387.51" fill="white"/>
<path d="M227.933 387.51L232.322 370.488C232.795 368.653 233.035 366.765 233.035 364.87V344.456C233.111 344.196 233.165 343.927 233.165 343.646C233.165 341.864 231.536 340.419 229.525 340.419C228.471 340.419 227.53 340.822 226.865 341.456C226.707 339.803 225.162 338.5 223.256 338.5C221.961 338.5 220.831 339.104 220.186 340.007C220 338.379 218.468 337.105 216.583 337.105C215.287 337.105 214.157 337.709 213.512 338.613C213.507 335.908 213.465 322.961 213.058 321.907C211.734 318.492 205.089 320.052 206.249 323.675V343.054C206.249 343.054 206.249 353.299 206.249 353.619C206.249 351.518 204.689 348.75 204.037 346.712C203.427 344.804 203.002 342.727 201.797 341.011C199.736 338.076 196.111 339.691 196.314 342.756C196.492 345.443 198.436 347.561 199.488 350C201.431 354.507 200.264 359.215 202.098 363.733C202.614 365.005 206.035 370.523 207.157 372.031C208.292 373.557 209.506 377.568 209.506 377.568L207.806 387.51" stroke="#263238" stroke-width="1.0229" stroke-miterlimit="10" stroke-linecap="round" stroke-linejoin="round"/>
<path d="M209.941 311.602V317.198" stroke="#263238" stroke-width="1.0229" stroke-miterlimit="10" stroke-linecap="round" stroke-linejoin="round"/>
<path d="M216.238 322.446H220.786" stroke="#263238" stroke-width="1.0229" stroke-miterlimit="10" stroke-linecap="round" stroke-linejoin="round"/>
<path d="M197.349 322.446H201.896" stroke="#263238" stroke-width="1.0229" stroke-miterlimit="10" stroke-linecap="round" stroke-linejoin="round"/>
<path d="M203.645 316.499L205.394 319.297" stroke="#263238" stroke-width="1.0229" stroke-miterlimit="10" stroke-linecap="round" stroke-linejoin="round"/>
<path d="M214.139 319.647L216.588 316.499" stroke="#263238" stroke-width="1.0229" stroke-miterlimit="10" stroke-linecap="round" stroke-linejoin="round"/>
<path d="M236.527 297.609H183.356V304.255H236.527V297.609Z" stroke="#263238" stroke-width="1.0229" stroke-miterlimit="10" stroke-linecap="round" stroke-linejoin="round"/>
<path d="M210.641 261.929H185.105V292.362H210.641V261.929Z" stroke="#263238" stroke-width="1.0229" stroke-miterlimit="10" stroke-linecap="round" stroke-linejoin="round"/>
<path d="M185.105 261.929L210.641 292.362" stroke="#263238" stroke-width="1.0229" stroke-miterlimit="10" stroke-linecap="round" stroke-linejoin="round"/>
<path d="M184.405 351.13V307.754H236.177V350.78" stroke="#263238" stroke-width="1.0229" stroke-miterlimit="10" stroke-linecap="round" stroke-linejoin="round"/>
<path d="M340.289 370.584H291.201C287.374 370.584 284.273 367.482 284.273 363.656V254.677C284.273 250.85 287.375 247.749 291.201 247.749H340.289C344.116 247.749 347.218 250.851 347.218 254.677V363.656C347.218 367.482 344.116 370.584 340.289 370.584Z" fill="#263238" stroke="#263238" stroke-width="0.8292" stroke-miterlimit="10" stroke-linecap="round" stroke-linejoin="round"/>
<path d="M344.418 256.091H287.072V363.294H344.418V256.091Z" fill="white" stroke="#263238" stroke-width="0.8292" stroke-miterlimit="10" stroke-linecap="round" stroke-linejoin="round"/>
<path d="M341.821 261.229H290.049V317.898H341.821V261.229Z" stroke="#263238" stroke-width="1.0229" stroke-miterlimit="10" stroke-linecap="round" stroke-linejoin="round"/>
<path d="M290.049 323.145H341.821" stroke="#263238" stroke-width="1.0229" stroke-miterlimit="10" stroke-linecap="round" stroke-linejoin="round"/>
<path d="M290.049 327.343H341.821" stroke="#263238" stroke-width="1.0229" stroke-miterlimit="10" stroke-linecap="round" stroke-linejoin="round"/>
<path d="M290.049 331.541H341.821" stroke="#263238" stroke-width="1.0229" stroke-miterlimit="10" stroke-linecap="round" stroke-linejoin="round"/>
<path d="M290.049 335.738H341.821" stroke="#263238" stroke-width="1.0229" stroke-miterlimit="10" stroke-linecap="round" stroke-linejoin="round"/>
<path d="M290.049 339.936H341.821" stroke="#263238" stroke-width="1.0229" stroke-miterlimit="10" stroke-linecap="round" stroke-linejoin="round"/>
<path d="M290.049 344.134H341.821" stroke="#263238" stroke-width="1.0229" stroke-miterlimit="10" stroke-linecap="round" stroke-linejoin="round"/>
<path d="M290.049 348.331H341.821" stroke="#263238" stroke-width="1.0229" stroke-miterlimit="10" stroke-linecap="round" stroke-linejoin="round"/>
<path d="M290.049 317.898L341.821 261.229" stroke="#263238" stroke-width="1.0229" stroke-miterlimit="10" stroke-linecap="round" stroke-linejoin="round"/>
<path d="M340.289 229.578H291.201C287.374 229.578 284.273 226.476 284.273 222.65V113.671C284.273 109.845 287.375 106.742 291.201 106.742H340.289C344.116 106.742 347.218 109.844 347.218 113.671V222.65C347.218 226.476 344.116 229.578 340.289 229.578Z" fill="#263238" stroke="#263238" stroke-width="0.8292" stroke-miterlimit="10" stroke-linecap="round" stroke-linejoin="round"/>
<path d="M344.418 115.084H287.072V222.287H344.418V115.084Z" fill="white" stroke="#263238" stroke-width="0.8292" stroke-miterlimit="10" stroke-linecap="round" stroke-linejoin="round"/>
<path d="M220.856 244.091V211.419H266.823" stroke="#263238" stroke-width="1.0229" stroke-linecap="round" stroke-linejoin="round"/>
<path d="M265.331 216.52L274.163 211.42L265.331 206.319V216.52Z" fill="#263238"/>
<path d="M314.574 243.232V218.156" stroke="#263238" stroke-width="1.0229" stroke-linecap="round" stroke-linejoin="round"/>
<path d="M319.675 219.649L314.575 210.816L309.475 219.649H319.675Z" fill="#263238"/>
<path d="M290.877 381.771H314.065" stroke="#263238" stroke-width="1.0229" stroke-miterlimit="10" stroke-linecap="round" stroke-linejoin="round"/>
<path d="M290.877 386.988H314.065" stroke="#263238" stroke-width="1.0229" stroke-miterlimit="10" stroke-linecap="round" stroke-linejoin="round"/>
<path d="M290.877 392.206H314.065" stroke="#263238" stroke-width="1.0229" stroke-miterlimit="10" stroke-linecap="round" stroke-linejoin="round"/>
<path d="M234.646 381.771H257.833" stroke="#263238" stroke-width="1.0229" stroke-miterlimit="10" stroke-linecap="round" stroke-linejoin="round"/>
<path d="M234.646 386.988H257.833" stroke="#263238" stroke-width="1.0229" stroke-miterlimit="10" stroke-linecap="round" stroke-linejoin="round"/>
<path d="M234.646 392.206H257.833" stroke="#263238" stroke-width="1.0229" stroke-miterlimit="10" stroke-linecap="round" stroke-linejoin="round"/>
<path d="M228.269 221.77H251.458" stroke="#263238" stroke-width="1.0229" stroke-miterlimit="10" stroke-linecap="round" stroke-linejoin="round"/>
<path d="M228.269 226.988H251.458" stroke="#263238" stroke-width="1.0229" stroke-miterlimit="10" stroke-linecap="round" stroke-linejoin="round"/>
<path d="M228.269 232.205H251.458" stroke="#263238" stroke-width="1.0229" stroke-miterlimit="10" stroke-linecap="round" stroke-linejoin="round"/>
<path d="M245.66 158.582H268.848" stroke="#263238" stroke-width="1.0229" stroke-miterlimit="10" stroke-linecap="round" stroke-linejoin="round"/>
<path d="M245.66 163.799H268.848" stroke="#263238" stroke-width="1.0229" stroke-miterlimit="10" stroke-linecap="round" stroke-linejoin="round"/>
<path d="M245.66 169.017H268.848" stroke="#263238" stroke-width="1.0229" stroke-miterlimit="10" stroke-linecap="round" stroke-linejoin="round"/>
<path d="M162.182 176.553H185.371" stroke="#263238" stroke-width="1.0229" stroke-miterlimit="10" stroke-linecap="round" stroke-linejoin="round"/>
<path d="M162.182 181.77H185.371" stroke="#263238" stroke-width="1.0229" stroke-miterlimit="10" stroke-linecap="round" stroke-linejoin="round"/>
<path d="M162.182 186.988H185.371" stroke="#263238" stroke-width="1.0229" stroke-miterlimit="10" stroke-linecap="round" stroke-linejoin="round"/>
<path d="M68.1714 425.515C68.1714 425.515 66.0204 433.788 66.0204 435.883C66.0204 437.978 65.4964 439.375 70.0354 440.248C74.5744 441.121 77.5424 440.597 78.2404 438.502C78.9384 436.407 79.4624 425.932 79.4624 425.932L68.4634 423.837L68.1714 425.515Z" fill="white" stroke="#263238" stroke-width="1.0348" stroke-miterlimit="10" stroke-linecap="round" stroke-linejoin="round"/>
<path d="M78.24 438.502C78.345 438.188 78.445 437.671 78.54 437.044C73.866 437.194 68.293 436.418 66.017 436.057C65.993 438.055 65.624 439.4 70.034 440.248C74.574 441.121 77.542 440.597 78.24 438.502Z" fill="white" stroke="#263238" stroke-width="1.0348" stroke-miterlimit="10" stroke-linecap="round" stroke-linejoin="round"/>
<path d="M174.259 426.282C174.259 426.282 177.751 427.504 182.813 429.075C187.876 430.646 198.176 432.392 199.223 432.567C200.271 432.742 200.271 434.837 199.397 435.71C198.524 436.583 193.985 439.202 188.573 440.598C183.161 441.995 164.83 443.217 163.259 442.169C161.944 441.292 162.386 432.742 162.91 430.821C163.435 428.9 174.259 426.282 174.259 426.282Z" fill="white" stroke="#263238" stroke-width="1.0348" stroke-miterlimit="10" stroke-linecap="round" stroke-linejoin="round"/>
<path d="M199.399 435.709C199.984 435.124 200.166 434 199.915 433.263C196.38 436.087 189.312 439.179 182.116 439.899C174.896 440.621 165.547 440.031 162.523 439.804C162.65 441.002 162.88 441.913 163.262 442.168C164.833 443.216 183.164 441.993 188.576 440.597C193.987 439.2 198.526 436.582 199.399 435.709Z" fill="white" stroke="#263238" stroke-width="1.0348" stroke-miterlimit="10" stroke-linecap="round" stroke-linejoin="round"/>
<path d="M89.8049 274.078C89.8049 274.078 86.7629 292.332 89.1289 302.473C89.1289 302.473 84.7349 342.699 84.0589 360.614C84.0589 360.614 74.5939 392.051 73.2419 401.854C71.8899 411.657 68.1719 425.516 68.1719 425.516C68.1719 425.516 70.1999 426.868 74.9329 427.882C79.6649 428.896 80.3419 425.178 80.3419 425.178C80.3419 425.178 106.37 365.347 108.398 356.558C110.426 347.769 117.187 316.332 117.187 316.332L145.244 367.713C145.244 367.713 146.596 385.291 150.652 395.431C154.708 405.572 162.483 433.628 162.483 433.628C162.483 433.628 167.553 433.966 171.61 432.614C175.666 431.262 175.666 429.234 175.666 429.234C175.666 429.234 169.581 406.586 169.581 399.149C169.581 391.712 167.215 366.36 165.525 359.261C163.835 352.162 152.342 314.979 150.652 310.923C148.962 306.867 145.244 294.022 145.244 294.022L142.878 274.078C142.875 274.078 113.805 282.191 89.8049 274.078Z" fill="white" stroke="#263238" stroke-width="1.0348" stroke-miterlimit="10" stroke-linecap="round" stroke-linejoin="round"/>
<path d="M111.254 187.921C111.254 187.921 109.701 184.556 109.701 182.485C109.701 180.414 108.666 170.578 108.666 170.578C108.666 170.578 123.679 143.399 127.821 138.222C131.962 133.045 136.881 129.162 136.881 129.162C136.881 129.162 146.976 127.091 149.047 127.091C151.118 127.091 153.447 126.056 153.447 124.761C153.447 123.467 150.082 123.726 148.011 123.726C145.94 123.726 143.352 121.914 143.352 121.914C143.352 121.914 146.724 112.265 147.752 108.454C148.296 106.439 150.081 102.242 148.787 102.242C147.493 102.242 147.234 103.277 146.457 104.831C145.68 106.384 142.315 111.561 142.315 111.561L143.092 100.172C143.092 100.172 142.057 98.6191 141.28 100.431C140.503 102.243 138.95 107.679 138.691 108.973C138.432 110.267 137.396 111.438 137.396 111.438L136.36 102.94C136.36 102.94 134.598 101.075 134.291 104.313C134.12 106.117 134.291 112.078 134.291 113.114C134.291 114.149 133.251 111.644 133.251 111.644C133.251 111.644 132.64 108.833 131.961 108.454C131.178 108.017 130.667 108.972 130.926 111.042C131.185 113.113 130.667 121.655 130.667 121.655C130.667 121.655 129.114 123.726 126.784 126.573C124.454 129.42 105.817 146.245 98.8285 151.681C91.8395 157.117 91.0635 161.517 90.0275 166.953C88.9925 172.389 87.9565 203.968 87.9565 215.358C87.9565 226.748 88.9915 244.867 89.7685 250.82C90.5445 256.773 89.2505 264.539 88.2155 268.681C87.1805 272.823 88.2155 276.446 91.0625 278.517C93.9095 280.588 106.075 281.882 116.17 281.882C126.265 281.882 136.619 280.847 139.725 279.811C142.831 278.776 145.161 278.517 145.161 274.375C145.161 270.233 143.09 261.95 143.09 259.621C143.09 257.291 147.232 233.218 147.232 233.218C147.232 233.218 173.635 241.242 178.553 239.43C183.471 237.618 224.629 198.791 224.629 198.791C224.629 198.791 231.1 196.202 234.465 195.685C237.83 195.167 243.007 192.838 243.266 192.061C243.525 191.284 242.747 191.543 240.677 191.543C238.606 191.543 235.241 192.578 235.241 192.578C235.241 192.578 242.31 188.104 243.525 187.66C244.366 187.353 245.821 185.438 243.784 185.848C241.234 186.361 234.982 188.178 234.982 188.178L243.266 183.001C243.266 183.001 244.559 180.93 243.007 180.93C241.454 180.93 233.688 185.589 233.688 185.589L239.732 179.976C240.902 178.89 239.926 177.364 238.546 178.164C238.521 178.179 231.602 182.13 231.577 182.146C228.988 183.699 226.181 184.554 226.181 184.554L224.887 185.331C224.887 185.331 225.405 182.484 225.405 181.19C225.405 179.896 224.628 176.531 222.816 176.272C221.005 176.013 222.557 178.602 222.557 179.896C222.557 181.19 219.969 187.92 219.969 188.956C219.969 189.991 219.969 192.062 219.969 192.062C219.969 192.062 211.167 199.828 203.143 203.969C195.119 208.11 176.999 221.829 176.999 221.829C176.999 221.829 156.291 211.216 151.632 207.334C146.973 203.451 141.796 198.792 136.619 194.65C131.442 190.508 128.077 188.696 128.077 188.696L111.254 187.921Z" fill="white" stroke="#263238" stroke-width="1.0348" stroke-miterlimit="10" stroke-linecap="round" stroke-linejoin="round"/>
<path d="M197.754 207.155C188.964 212.773 177.001 221.83 177.001 221.83C177.001 221.83 156.293 211.217 151.634 207.335C146.975 203.452 141.798 198.793 136.621 194.651C131.444 190.509 128.079 188.697 128.079 188.697L111.254 187.92C111.254 187.92 109.701 184.555 109.701 182.484C109.701 180.413 108.666 170.577 108.666 170.577C108.666 170.577 116.418 156.544 122.318 146.724C122.16 146.564 122.008 146.406 121.847 146.244C118.954 143.352 114.942 141.793 111.436 140.945C106.56 145.274 101.708 149.444 98.8304 151.682C91.8414 157.118 91.0644 161.518 90.0294 166.954C88.9934 172.39 87.9584 203.97 87.9584 215.359C87.9584 226.748 88.9934 244.868 89.7704 250.821C90.5474 256.774 89.2524 264.54 88.2174 268.682C87.1824 272.823 88.2174 276.447 91.0644 278.518C93.9114 280.589 106.077 281.883 116.172 281.883C126.267 281.883 136.621 280.848 139.727 279.812C142.833 278.777 145.163 278.518 145.163 274.376C145.163 270.234 143.092 261.951 143.092 259.622C143.092 257.292 147.233 233.219 147.233 233.219C147.233 233.219 173.636 241.243 178.554 239.431C181.182 238.463 194.154 226.928 205.667 216.394C203.315 212.35 200.322 209.29 197.754 207.155Z" fill="#E9E9E9" stroke="#263238" stroke-width="1.0348" stroke-miterlimit="10" stroke-linecap="round" stroke-linejoin="round"/>
<path d="M139.203 199.266C139.203 199.266 128.788 202.106 128.157 209.996" stroke="#263238" stroke-width="1.0348" stroke-miterlimit="10" stroke-linecap="round" stroke-linejoin="round"/>
<path d="M147.233 233.219C147.233 233.219 135.1 229.879 128.788 223.567" stroke="#263238" stroke-width="1.0348" stroke-miterlimit="10" stroke-linecap="round" stroke-linejoin="round"/>
<path d="M140.466 231.457C140.466 231.457 130.051 234.297 120.583 230.51" stroke="#263238" stroke-width="1.0348" stroke-miterlimit="10" stroke-linecap="round" stroke-linejoin="round"/>
<path d="M96.5117 214.733C96.5117 214.733 99.7937 237.706 115.656 249.192" stroke="#263238" stroke-width="1.0348" stroke-miterlimit="10" stroke-linecap="round" stroke-linejoin="round"/>
<path d="M120.663 255.451C121.866 255.786 123.114 256.073 124.407 256.303" stroke="#263238" stroke-width="1.0348" stroke-miterlimit="10" stroke-linecap="round" stroke-linejoin="round"/>
<path d="M96.5117 237.706C96.5117 237.706 102.382 247.443 114.256 253.059" stroke="#263238" stroke-width="1.0348" stroke-miterlimit="10" stroke-linecap="round" stroke-linejoin="round"/>
<path d="M93.4414 186.642C93.4414 186.642 103.54 181.592 109.537 186.326" stroke="#263238" stroke-width="1.0348" stroke-miterlimit="10" stroke-linecap="round" stroke-linejoin="round"/>
<path d="M96.2822 163.603C96.2822 163.603 105.434 166.759 107.959 173.071" stroke="#263238" stroke-width="1.0348" stroke-miterlimit="10" stroke-linecap="round" stroke-linejoin="round"/>
<path d="M102.278 161.394C102.278 161.394 105.434 163.603 106.696 168.337" stroke="#263238" stroke-width="1.0348" stroke-miterlimit="10" stroke-linecap="round" stroke-linejoin="round"/>
<path d="M145.422 146.505C145.422 146.505 146.975 155.306 146.975 157.636C146.975 159.966 144.386 160.742 145.422 163.848C146.458 166.954 148.787 167.213 148.269 169.802C147.751 172.39 144.386 173.944 144.386 173.944C144.386 173.944 142.574 181.192 140.762 184.298C138.95 187.404 132.22 185.075 132.22 185.075L131.702 193.358C131.702 193.358 129.372 196.723 120.83 195.688C112.288 194.653 106.593 191.805 106.593 191.805L105.299 189.993C105.299 189.993 112.029 186.628 112.288 184.298C112.547 181.969 112.288 176.533 112.288 168.767C112.288 161.001 109.958 145.988 122.642 142.105C135.326 138.222 145.422 146.505 145.422 146.505Z" fill="white" stroke="#263238" stroke-width="1.0348" stroke-miterlimit="10" stroke-linecap="round" stroke-linejoin="round"/>
<path d="M129.609 167.754C129.609 167.754 126.687 161.05 123.418 164.884C121.294 167.375 123.936 174.72 125.23 175.756C126.524 176.791 129.372 176.274 129.372 176.274C129.372 176.274 125.23 180.415 120.83 180.415C116.43 180.415 112.547 176.274 109.7 169.026C106.853 161.778 104.782 149.353 107.888 141.847C110.994 134.34 127.043 134.082 130.667 134.082C134.291 134.082 139.727 136.153 139.727 136.153C139.727 136.153 151.375 135.118 151.634 139C151.893 142.883 150.081 143.141 150.081 143.141C150.081 143.141 158.364 147.541 154.481 149.353C150.598 151.165 144.645 150.13 140.762 150.13C136.879 150.13 135.585 152.977 135.585 152.977C135.585 152.977 139.209 155.307 137.915 156.342C136.621 157.377 131.961 159.448 131.444 161.26C130.926 163.072 133.256 165.919 131.703 167.214C130.148 168.507 129.609 167.754 129.609 167.754Z" fill="#263238" stroke="#263238" stroke-width="1.0348" stroke-miterlimit="10" stroke-linecap="round" stroke-linejoin="round"/>
<path d="M144.004 164.626C144.004 165.945 143.462 167.015 142.793 167.015C142.124 167.015 141.582 165.946 141.582 164.626C141.582 163.307 142.124 162.238 142.793 162.238C143.462 162.238 144.004 163.307 144.004 164.626Z" fill="#263238"/>
<path d="M139.769 161.575C139.769 161.575 141.443 157.67 144.093 159.762" stroke="#263238" stroke-width="1.0348" stroke-miterlimit="10" stroke-linecap="round" stroke-linejoin="round"/>
<path d="M117.185 316.331L114.819 311.937L102.988 308.895" stroke="#263238" stroke-width="1.0348" stroke-miterlimit="10" stroke-linecap="round" stroke-linejoin="round"/>
<path d="M-63.0307 40.797C-37.594 54.9419 19.0022 75.7463 41.8932 45.8041C70.5069 8.37635 41.7034 0.871211 33.2448 19.5474C24.7861 38.2236 66.9969 63.6024 108.765 25.1247C142.179 -5.65756 157.787 -53.1177 161.414 -73" stroke="#0487FF" stroke-dasharray="6 6"/>
<path d="M479.529 315.123C454.601 330.146 408.389 368.881 422.967 403.637C441.189 447.083 462.034 425.835 450.045 409.204C438.056 392.572 395.035 416.553 407.622 471.93C417.691 516.232 451.088 553.391 466.527 566.432" stroke="#0487FF" stroke-dasharray="6 6"/>
</g>
</g>
<defs>
<clipPath id="clip0_332_4924">
<rect width="480" height="480" rx="24" fill="white"/>
</clipPath>
<clipPath id="clip1_332_4924">
<rect width="480" height="480" rx="24" fill="white"/>
</clipPath>
</defs>
</svg>
