<svg width="480" height="480" viewBox="0 0 480 480" fill="none" xmlns="http://www.w3.org/2000/svg">
<g clip-path="url(#clip0_332_5337)">
<g clip-path="url(#clip1_332_5337)">
<rect width="480" height="480" rx="24" fill="#E6F3FF"/>
<path d="M180.229 411.906H383.045C389.04 411.906 393.9 407.046 393.9 401.051V114.563C393.9 108.568 389.04 103.708 383.045 103.708H180.229C174.234 103.708 169.374 108.568 169.374 114.563V401.051C169.374 407.046 174.234 411.906 180.229 411.906Z" fill="#263238"/>
<path d="M182.514 406.693H381.835C385.099 406.693 387.745 404.047 387.745 400.783V114.831C387.745 111.567 385.099 108.921 381.835 108.921H182.514C179.25 108.921 176.604 111.567 176.604 114.831V400.783C176.604 404.047 179.25 406.693 182.514 406.693Z" fill="white"/>
<path d="M229.018 112.448C229.678 112.448 230.214 111.912 230.214 111.252C230.214 110.591 229.678 110.056 229.018 110.056C228.358 110.056 227.822 110.591 227.822 111.252C227.822 111.912 228.358 112.448 229.018 112.448Z" fill="#312A2A"/>
<path d="M193.416 112.448C194.076 112.448 194.611 111.912 194.611 111.252C194.611 110.591 194.076 110.056 193.416 110.056C192.755 110.056 192.22 110.591 192.22 111.252C192.22 111.912 192.755 112.448 193.416 112.448Z" fill="#312A2A"/>
<path d="M371.426 112.448C372.087 112.448 372.622 111.912 372.622 111.252C372.622 110.591 372.087 110.056 371.426 110.056C370.766 110.056 370.23 110.591 370.23 111.252C370.23 111.912 370.766 112.448 371.426 112.448Z" fill="#312A2A"/>
<path d="M335.824 112.448C336.484 112.448 337.019 111.912 337.019 111.252C337.019 110.591 336.484 110.056 335.824 110.056C335.163 110.056 334.628 110.591 334.628 111.252C334.628 111.912 335.163 112.448 335.824 112.448Z" fill="#312A2A"/>
<path d="M300.222 112.448C300.883 112.448 301.418 111.912 301.418 111.252C301.418 110.591 300.883 110.056 300.222 110.056C299.562 110.056 299.026 110.591 299.026 111.252C299.026 111.912 299.562 112.448 300.222 112.448Z" fill="#312A2A"/>
<path d="M264.62 112.448C265.28 112.448 265.815 111.912 265.815 111.252C265.815 110.591 265.28 110.056 264.62 110.056C263.959 110.056 263.424 110.591 263.424 111.252C263.424 111.912 263.959 112.448 264.62 112.448Z" fill="#312A2A"/>
<path d="M371.589 111.96C371.198 111.96 370.88 111.643 370.88 111.252C370.88 110.86 371.198 110.543 371.589 110.543C375.44 110.543 378.573 107.41 378.573 103.559C378.573 99.7078 375.44 96.5748 371.589 96.5748C367.738 96.5748 364.605 99.7078 364.605 103.559C364.605 103.95 364.288 104.268 363.896 104.268C363.505 104.268 363.188 103.95 363.188 103.559C363.188 98.9264 366.956 95.1575 371.589 95.1575C376.222 95.1575 379.99 98.9264 379.99 103.559C379.991 108.192 376.222 111.96 371.589 111.96Z" fill="#312A2A"/>
<path d="M371.59 111.96C371.198 111.96 370.881 111.643 370.881 111.252C370.881 110.86 371.198 110.543 371.59 110.543C375.441 110.543 378.574 107.41 378.574 103.559C378.574 103.168 378.891 102.85 379.282 102.85C379.674 102.85 379.991 103.168 379.991 103.559C379.991 108.192 376.222 111.96 371.59 111.96Z" fill="#312A2A"/>
<path d="M335.823 111.96C335.432 111.96 335.115 111.643 335.115 111.252C335.115 110.86 335.432 110.543 335.823 110.543C339.675 110.543 342.808 107.41 342.808 103.559C342.808 99.7078 339.675 96.5748 335.823 96.5748C331.972 96.5748 328.839 99.7078 328.839 103.559C328.839 103.95 328.522 104.268 328.131 104.268C327.739 104.268 327.422 103.95 327.422 103.559C327.422 98.9264 331.191 95.1575 335.823 95.1575C340.456 95.1575 344.225 98.9264 344.225 103.559C344.225 108.192 340.456 111.96 335.823 111.96Z" fill="#312A2A"/>
<path d="M335.824 111.96C335.432 111.96 335.115 111.643 335.115 111.252C335.115 110.86 335.432 110.543 335.824 110.543C339.675 110.543 342.808 107.41 342.808 103.559C342.808 103.168 343.125 102.85 343.517 102.85C343.908 102.85 344.225 103.168 344.225 103.559C344.225 108.192 340.457 111.96 335.824 111.96Z" fill="#312A2A"/>
<path d="M300.058 111.96C299.666 111.96 299.349 111.643 299.349 111.252C299.349 110.86 299.666 110.543 300.058 110.543C303.909 110.543 307.042 107.41 307.042 103.559C307.042 99.7078 303.909 96.5748 300.058 96.5748C296.207 96.5748 293.074 99.7078 293.074 103.559C293.074 103.95 292.756 104.268 292.365 104.268C291.973 104.268 291.656 103.95 291.656 103.559C291.656 98.9264 295.425 95.1575 300.058 95.1575C304.69 95.1575 308.459 98.9264 308.459 103.559C308.459 108.192 304.69 111.96 300.058 111.96Z" fill="#312A2A"/>
<path d="M300.058 111.96C299.667 111.96 299.35 111.643 299.35 111.252C299.35 110.86 299.667 110.543 300.058 110.543C303.909 110.543 307.043 107.41 307.043 103.559C307.043 103.168 307.36 102.85 307.751 102.85C308.143 102.85 308.46 103.168 308.46 103.559C308.46 108.192 304.691 111.96 300.058 111.96Z" fill="#312A2A"/>
<path d="M264.292 111.96C263.901 111.96 263.583 111.643 263.583 111.252C263.583 110.86 263.901 110.543 264.292 110.543C268.143 110.543 271.276 107.41 271.276 103.559C271.276 99.7078 268.143 96.5748 264.292 96.5748C260.441 96.5748 257.308 99.7078 257.308 103.559C257.308 103.95 256.991 104.268 256.599 104.268C256.208 104.268 255.891 103.95 255.891 103.559C255.891 98.9264 259.66 95.1575 264.292 95.1575C268.925 95.1575 272.693 98.9264 272.693 103.559C272.694 108.192 268.925 111.96 264.292 111.96Z" fill="#312A2A"/>
<path d="M264.292 111.96C263.9 111.96 263.583 111.643 263.583 111.252C263.583 110.86 263.9 110.543 264.292 110.543C268.143 110.543 271.276 107.41 271.276 103.559C271.276 103.168 271.593 102.85 271.985 102.85C272.376 102.85 272.693 103.168 272.693 103.559C272.693 108.192 268.924 111.96 264.292 111.96Z" fill="#312A2A"/>
<path d="M228.526 111.96C228.134 111.96 227.817 111.643 227.817 111.252C227.817 110.86 228.134 110.543 228.526 110.543C232.377 110.543 235.51 107.41 235.51 103.559C235.51 99.7078 232.377 96.5748 228.526 96.5748C224.674 96.5748 221.541 99.7078 221.541 103.559C221.541 103.95 221.224 104.268 220.833 104.268C220.441 104.268 220.124 103.95 220.124 103.559C220.124 98.9264 223.893 95.1575 228.526 95.1575C233.158 95.1575 236.927 98.9264 236.927 103.559C236.927 108.192 233.158 111.96 228.526 111.96Z" fill="#312A2A"/>
<path d="M228.525 111.96C228.134 111.96 227.816 111.643 227.816 111.252C227.816 110.86 228.134 110.543 228.525 110.543C232.376 110.543 235.509 107.41 235.509 103.559C235.509 103.168 235.826 102.85 236.218 102.85C236.609 102.85 236.927 103.168 236.927 103.559C236.927 108.192 233.158 111.96 228.525 111.96Z" fill="#312A2A"/>
<path d="M192.76 111.96C192.369 111.96 192.051 111.643 192.051 111.252C192.051 110.86 192.369 110.543 192.76 110.543C196.611 110.543 199.744 107.41 199.744 103.559C199.744 99.7078 196.611 96.5748 192.76 96.5748C188.909 96.5748 185.776 99.7078 185.776 103.559C185.776 103.95 185.458 104.268 185.067 104.268C184.676 104.268 184.358 103.95 184.358 103.559C184.358 98.9264 188.127 95.1575 192.76 95.1575C197.392 95.1575 201.161 98.9264 201.161 103.559C201.161 108.192 197.392 111.96 192.76 111.96Z" fill="#312A2A"/>
<path d="M192.759 111.96C192.368 111.96 192.051 111.643 192.051 111.252C192.051 110.86 192.368 110.543 192.759 110.543C196.611 110.543 199.744 107.41 199.744 103.559C199.744 103.168 200.061 102.85 200.452 102.85C200.844 102.85 201.161 103.168 201.161 103.559C201.161 108.192 197.392 111.96 192.759 111.96Z" fill="#312A2A"/>
<path d="M368.711 225.359H233.001C231.289 225.359 229.901 223.769 229.901 221.807C229.901 219.846 231.289 218.256 233.001 218.256H368.711C370.423 218.256 371.811 219.846 371.811 221.807C371.811 223.769 370.423 225.359 368.711 225.359Z" fill="#B4DBFF"/>
<path d="M368.71 234.024H233.001C232.744 234.024 232.536 233.816 232.536 233.56C232.536 233.303 232.744 233.095 233.001 233.095H368.71C368.966 233.095 369.174 233.303 369.174 233.56C369.174 233.816 368.967 234.024 368.71 234.024Z" fill="#252525"/>
<path d="M326.3 248.063H233.001C231.378 248.063 230.062 246.556 230.062 244.697C230.062 242.838 231.378 241.33 233.001 241.33H326.3C327.923 241.33 329.238 242.838 329.238 244.697C329.238 246.556 327.923 248.063 326.3 248.063Z" fill="#B4DBFF"/>
<path d="M368.711 169.356H233.001C231.289 169.356 229.901 167.766 229.901 165.804C229.901 163.843 231.289 162.253 233.001 162.253H368.711C370.423 162.253 371.811 163.843 371.811 165.804C371.811 167.766 370.423 169.356 368.711 169.356Z" fill="#B4DBFF"/>
<path d="M368.71 178.021H233.001C232.744 178.021 232.536 177.813 232.536 177.557C232.536 177.3 232.744 177.093 233.001 177.093H368.71C368.966 177.093 369.174 177.3 369.174 177.557C369.174 177.813 368.967 178.021 368.71 178.021Z" fill="#252525"/>
<path d="M326.3 192.06H233.001C231.378 192.06 230.062 190.553 230.062 188.694C230.062 186.834 231.378 185.327 233.001 185.327H326.3C327.923 185.327 329.238 186.834 329.238 188.694C329.238 190.553 327.923 192.06 326.3 192.06Z" fill="#B4DBFF"/>
<path d="M368.711 281.002H233.001C231.289 281.002 229.901 279.412 229.901 277.45C229.901 275.489 231.289 273.899 233.001 273.899H368.711C370.423 273.899 371.811 275.489 371.811 277.45C371.811 279.412 370.423 281.002 368.711 281.002Z" fill="#B4DBFF"/>
<path d="M368.71 289.667H233.001C232.744 289.667 232.536 289.459 232.536 289.203C232.536 288.946 232.744 288.738 233.001 288.738H368.71C368.966 288.738 369.174 288.946 369.174 289.203C369.174 289.459 368.967 289.667 368.71 289.667Z" fill="#252525"/>
<path d="M326.3 303.706H233.001C231.378 303.706 230.062 302.199 230.062 300.339C230.062 298.48 231.378 296.973 233.001 296.973H326.3C327.923 296.973 329.238 298.48 329.238 300.339C329.238 302.199 327.923 303.706 326.3 303.706Z" fill="#B4DBFF"/>
<path d="M367.979 332.625H200.241C198.125 332.625 196.409 331.035 196.409 329.074C196.409 327.112 198.125 325.522 200.241 325.522H367.979C370.095 325.522 371.81 327.112 371.81 329.074C371.81 331.035 370.095 332.625 367.979 332.625Z" fill="#B4DBFF"/>
<path d="M367.979 341.291H200.241C199.984 341.291 199.776 341.083 199.776 340.827C199.776 340.57 199.984 340.362 200.241 340.362H367.979C368.235 340.362 368.443 340.57 368.443 340.827C368.443 341.083 368.235 341.291 367.979 341.291Z" fill="#252525"/>
<path d="M367.056 355.33H229.174C226.775 355.33 224.831 353.823 224.831 351.963C224.831 350.104 226.775 348.597 229.174 348.597H367.056C369.454 348.597 371.398 350.104 371.398 351.963C371.398 353.823 369.454 355.33 367.056 355.33Z" fill="#B4DBFF"/>
<path d="M222.605 232.924C222.605 241.494 215.657 248.441 207.087 248.441C198.517 248.441 191.569 241.494 191.569 232.924C191.569 224.354 198.517 217.406 207.087 217.406C215.657 217.406 222.605 224.354 222.605 232.924Z" fill="#0487FF" stroke="black"/>
<path d="M205.564 244.199C205.159 244.199 204.786 243.979 204.592 243.623L198.669 232.776C198.376 232.239 198.573 231.566 199.11 231.273C199.647 230.98 200.32 231.177 200.613 231.714L205.521 240.703L213.746 224.269C214.019 223.722 214.684 223.501 215.232 223.775C215.779 224.048 216 224.714 215.726 225.261L206.554 243.588C206.37 243.956 205.996 244.192 205.584 244.199C205.577 244.199 205.571 244.199 205.564 244.199Z" fill="white"/>
<path d="M207.087 196.727C215.933 196.727 223.105 189.556 223.105 180.709C223.105 171.863 215.933 164.692 207.087 164.692C198.241 164.692 191.069 171.863 191.069 180.709C191.069 189.556 198.241 196.727 207.087 196.727Z" fill="#BA6157"/>
<path d="M205.564 191.342C205.395 191.342 205.238 191.249 205.157 191.1L199.234 180.253C199.111 180.028 199.194 179.746 199.419 179.623C199.644 179.5 199.926 179.582 200.049 179.808L205.547 189.876L214.321 172.343C214.436 172.113 214.715 172.02 214.944 172.135C215.174 172.25 215.267 172.529 215.152 172.758L205.98 191.085C205.902 191.24 205.746 191.339 205.573 191.342C205.57 191.342 205.567 191.342 205.564 191.342Z" fill="#252525"/>
<path d="M218.057 169.146C224.117 175.206 224.117 185.031 218.057 191.091C211.997 197.151 202.172 197.151 196.112 191.091C190.052 185.031 190.052 175.206 196.112 169.146C202.172 163.086 211.997 163.086 218.057 169.146Z" fill="#0487FF" stroke="black"/>
<path d="M205.564 191.394C205.159 191.394 204.786 191.174 204.592 190.818L198.669 179.97C198.376 179.434 198.573 178.761 199.11 178.468C199.647 178.174 200.32 178.372 200.613 178.909L205.521 187.898L213.746 171.464C214.019 170.917 214.685 170.695 215.232 170.969C215.779 171.243 216 171.908 215.726 172.455L206.554 190.783C206.37 191.151 205.996 191.387 205.584 191.394C205.577 191.394 205.571 191.394 205.564 191.394Z" fill="white"/>
<path d="M222.605 287.114C222.605 295.684 215.657 302.632 207.087 302.632C198.517 302.632 191.569 295.684 191.569 287.114C191.569 278.544 198.517 271.596 207.087 271.596C215.657 271.596 222.605 278.544 222.605 287.114Z" fill="#0487FF" stroke="black"/>
<path d="M205.564 299.12C205.159 299.12 204.786 298.9 204.592 298.544L198.669 287.697C198.376 287.16 198.573 286.487 199.11 286.194C199.647 285.9 200.32 286.098 200.613 286.635L205.521 295.624L213.746 279.19C214.019 278.643 214.685 278.422 215.232 278.696C215.779 278.969 216 279.635 215.726 280.182L206.554 298.509C206.37 298.877 205.996 299.113 205.584 299.12C205.577 299.12 205.571 299.12 205.564 299.12Z" fill="white"/>
<path d="M359.229 148.834H203.651C201.479 148.834 199.718 147.073 199.718 144.901V135.11C199.718 132.938 201.479 131.177 203.651 131.177H359.229C361.401 131.177 363.162 132.938 363.162 135.11V144.901C363.162 147.073 361.401 148.834 359.229 148.834Z" fill="#E6F3FF"/>
<path d="M367.104 384.437H226.598C223.999 384.437 221.892 382.33 221.892 379.731V370.14C221.892 367.541 223.999 365.434 226.598 365.434H367.104C369.703 365.434 371.81 367.541 371.81 370.14V379.731C371.81 382.33 369.703 384.437 367.104 384.437Z" fill="#E6F3FF"/>
<path d="M357.21 65.3974C353.758 66.4722 352.887 67.3434 351.812 70.7949C350.738 67.3434 349.866 66.4721 346.415 65.3974C349.866 64.3227 350.738 63.4514 351.812 60C352.887 63.4514 353.758 64.3227 357.21 65.3974Z" fill="#0487FF"/>
<path d="M173.401 87.7009C169.205 89.0078 168.145 90.0672 166.838 94.264C165.532 90.0672 164.472 89.0077 160.275 87.7009C164.472 86.3941 165.532 85.3347 166.838 81.1379C168.145 85.3346 169.205 86.3941 173.401 87.7009Z" fill="#0487FF"/>
<path d="M439.17 243.339C436.434 244.191 435.743 244.882 434.891 247.618C434.04 244.882 433.349 244.191 430.613 243.339C433.349 242.488 434.04 241.797 434.891 239.061C435.743 241.797 436.434 242.488 439.17 243.339Z" fill="#0487FF"/>
<path d="M94.8699 252.094C92.1342 252.946 91.4435 253.636 90.5917 256.372C89.7398 253.636 89.0492 252.945 86.3135 252.094C89.0492 251.242 89.7398 250.551 90.5917 247.815C91.4435 250.551 92.134 251.242 94.8699 252.094Z" fill="url(#paint0_linear_332_5337)"/>
<path d="M328.04 258.762L307.18 282.582L341.602 133.075L372.64 140.355L338.195 289.962L328.895 258.948L328.635 258.082L328.04 258.762Z" fill="#0487FF" stroke="black"/>
<path d="M390.444 258.864L384.016 289.867L340.365 142.79L370.965 133.844L414.645 281.02L391.28 258.605L390.628 257.979L390.444 258.864Z" fill="#0487FF" stroke="black"/>
<path d="M418.881 95.345C421.268 98.1206 422.164 101.814 422.737 105.633C422.878 106.577 423 107.522 423.12 108.46L423.123 108.481C423.244 109.425 423.364 110.361 423.502 111.27C423.778 113.085 424.13 114.822 424.723 116.34C425.314 117.854 426.584 119.107 428.058 120.298C428.733 120.843 429.467 121.389 430.217 121.945C430.291 122.001 430.366 122.056 430.44 122.111C431.271 122.728 432.12 123.365 432.95 124.049C436.261 126.779 439.227 130.236 439.227 136.035C439.227 137.464 438.765 138.983 438.03 140.58C437.295 142.175 436.307 143.807 435.285 145.465C435.203 145.598 435.121 145.731 435.039 145.864C434.102 147.383 433.152 148.921 432.393 150.431C431.567 152.073 430.943 153.724 430.805 155.334C430.641 157.24 431.032 159.147 431.642 161.018C432.125 162.499 432.757 163.988 433.377 165.449C433.538 165.827 433.698 166.204 433.854 166.578C435.397 170.273 436.58 173.722 435.328 176.972C433.962 180.517 431.02 182.108 427.59 183.652C427.256 183.803 426.918 183.952 426.576 184.104C423.449 185.487 420.057 186.988 417.564 190.054C416.304 191.603 415.525 193.467 414.966 195.423C414.502 197.045 414.181 198.761 413.869 200.432C413.806 200.77 413.743 201.106 413.679 201.44C412.91 205.469 412.022 209.022 409.236 210.947C406.079 213.129 402.136 213.345 397.928 213.269C397.283 213.257 396.632 213.238 395.977 213.219C392.416 213.117 388.75 213.011 385.502 214.016C383.903 214.511 382.45 215.461 381.086 216.581C379.968 217.499 378.886 218.553 377.824 219.586C377.593 219.811 377.363 220.034 377.134 220.256C374.521 222.778 372.029 224.942 369.097 225.117C365.769 225.315 362.482 223.531 359.06 221.405C358.63 221.138 358.197 220.865 357.763 220.591C354.803 218.724 351.748 216.797 348.628 216.131C347.231 215.833 345.462 215.89 343.562 216.087C342.075 216.241 340.47 216.485 338.857 216.731C338.403 216.8 337.947 216.87 337.493 216.937C335.421 217.246 333.381 217.515 331.552 217.571C329.714 217.627 328.15 217.464 327.002 216.952C325.583 216.319 324.48 215.177 323.535 213.699C322.588 212.216 321.824 210.433 321.065 208.555C320.948 208.264 320.831 207.971 320.713 207.677C320.076 206.086 319.424 204.458 318.662 202.968C317.758 201.201 316.676 199.582 315.229 198.405C311.999 195.778 308.375 194.93 305.06 194.154C304.662 194.061 304.268 193.969 303.88 193.875C300.233 192.991 297.068 191.943 294.935 188.48C292.779 184.979 293.284 180.89 294.175 176.492C294.287 175.936 294.406 175.375 294.525 174.811C294.873 173.169 295.226 171.499 295.451 169.853C295.754 167.632 295.83 165.405 295.341 163.254C294.924 161.417 293.987 159.601 292.854 157.818C291.989 156.459 290.993 155.093 290.006 153.74C289.701 153.32 289.396 152.903 289.096 152.486C287.82 150.714 286.628 148.963 285.78 147.22C284.934 145.477 284.448 143.774 284.551 142.094C284.854 137.104 287.164 133.674 289.722 130.63C290.234 130.02 290.767 129.414 291.297 128.813C292.068 127.937 292.831 127.069 293.513 126.209C294.681 124.738 295.686 123.203 296.253 121.465C297.476 117.72 297.372 114.238 297.275 110.986C297.254 110.294 297.234 109.611 297.227 108.939C297.186 105.098 297.559 101.502 300.575 97.7938C303.022 94.7854 306.468 93.6106 310.212 92.6612C310.779 92.5173 311.354 92.3786 311.933 92.2389C315.13 91.4679 318.449 90.6672 321.242 88.8116C323.849 87.0795 325.734 84.4373 327.523 81.9305C327.805 81.5359 328.084 81.1446 328.363 80.7608C330.45 77.892 332.544 75.4228 335.673 74.5569C340.114 73.3278 343.872 74.0331 347.469 75.0356C348.129 75.2194 348.786 75.4146 349.443 75.6098C352.34 76.47 355.233 77.3291 358.276 77.2007C360.901 77.09 363.849 76.1316 366.866 75.151C367.425 74.9692 367.986 74.7867 368.549 74.6086C372.192 73.4548 375.914 72.4682 379.503 72.864C384.346 73.3983 387.509 76.3171 390.222 79.5329C390.835 80.2597 391.421 80.9967 392 81.7238C392.061 81.8008 392.122 81.8777 392.183 81.9545C392.819 82.7533 393.448 83.5376 394.084 84.264C395.352 85.7111 396.683 86.9715 398.231 87.6882C399.729 88.3816 401.513 88.8843 403.39 89.3306C404.258 89.5371 405.153 89.7329 406.053 89.93L406.278 89.9793C407.256 90.1935 408.239 90.4105 409.212 90.6472C413.128 91.6008 416.733 92.8485 418.881 95.345Z" fill="#0487FF" stroke="black"/>
<path d="M410.38 147.404C410.38 174.702 388.252 196.83 360.954 196.83C333.657 196.83 311.528 174.702 311.528 147.404C311.528 120.107 333.657 97.9783 360.954 97.9783C388.252 97.9783 410.38 120.107 410.38 147.404Z" fill="white" stroke="black"/>
<path d="M360.954 192.528C385.875 192.528 406.077 172.325 406.077 147.404C406.077 122.483 385.875 102.281 360.954 102.281C336.033 102.281 315.83 122.483 315.83 147.404C315.83 172.325 336.033 192.528 360.954 192.528Z" fill="white"/>
<path d="M332.418 152.067L332.418 152.067C330.318 149.933 330.345 146.5 332.479 144.4C334.613 142.3 338.046 142.328 340.146 144.461L340.146 144.461L355.083 159.64L355.444 160.006L355.8 159.635L383.571 130.7L383.211 130.354L383.572 130.7C385.645 128.54 389.076 128.47 391.237 130.543C393.397 132.616 393.467 136.048 391.394 138.209L359.404 171.539C358.39 172.595 356.992 173.197 355.528 173.206C355.528 173.206 355.527 173.206 355.527 173.206L355.493 173.206C354.04 173.206 352.648 172.623 351.629 171.588L351.273 171.938L351.629 171.588L332.418 152.067Z" fill="#0487FF" stroke="black"/>
<path d="M206.698 162.957C206.698 162.957 209.15 159.314 209.29 155.32C209.43 151.327 213.563 145.698 213.983 151.257C214.403 156.815 221.19 150.586 229.061 141.51C233.246 136.683 235.348 149.68 227.082 158.053C218.816 166.425 220.287 165.339 215.804 170.104C213.002 168.632 206.698 162.957 206.698 162.957Z" fill="white"/>
<path d="M215.869 170.493L215.658 170.382C212.853 168.909 206.746 163.424 206.487 163.191L206.284 163.008L206.437 162.781C206.461 162.746 208.84 159.162 208.975 155.309C209.077 152.4 211.215 148.645 212.788 148.614C213.38 148.597 214.131 149.046 214.297 151.233C214.372 152.234 214.663 152.825 215.161 152.99C216.411 153.403 219.797 151.712 228.823 141.304C229.793 140.185 230.585 140.076 231.078 140.183C231.805 140.34 232.371 141.031 232.714 142.179C233.723 145.566 232.712 152.798 227.306 158.274C222.049 163.599 220.724 165.106 219.321 166.702C218.508 167.628 217.666 168.585 216.034 170.319L215.869 170.493ZM207.108 162.901C208.17 163.847 213.204 168.281 215.741 169.711C217.258 168.095 218.066 167.176 218.848 166.286C220.258 164.683 221.588 163.169 226.858 157.832C232.026 152.596 233.047 145.504 232.11 142.359C231.841 141.457 231.427 140.903 230.944 140.798C230.476 140.697 229.906 141.015 229.298 141.716C221.66 150.524 217.104 154.297 214.962 153.587C214.201 153.336 213.766 152.559 213.669 151.28C213.57 149.977 213.257 149.244 212.801 149.243C211.666 149.266 209.698 152.671 209.604 155.331C209.481 158.839 207.653 162.025 207.108 162.901Z" fill="#263238"/>
<path d="M148.353 314.212L120.697 225.009H151.959L175.832 298.233C177.728 304.05 177.675 310.327 175.681 316.111L147.652 397.399L131.296 390.158L148.365 314.496L148.397 314.353L148.353 314.212Z" fill="white" stroke="#263238" stroke-width="1.10032"/>
<path d="M101.293 220.17L134.913 222.756L103.78 326.781L103.78 326.781L103.778 326.789L82.3596 402.457H64.3136L80.3433 321.691L80.3441 321.687L101.293 220.17Z" fill="white" stroke="#263238" stroke-width="1.10032"/>
<path d="M220.578 170.536L180.232 225.222C174.959 232.368 163.94 231.18 160.314 223.07L154.644 210.393L151.572 203.522L153.853 160.907C155.183 161.481 156.374 162.059 157.356 162.64C157.982 163.007 158.519 163.375 158.958 163.738C164.64 168.474 174.829 200.789 174.829 200.789L205.93 161.277L220.578 170.536Z" fill="#E9E9E9"/>
<path d="M170.941 230.252C170.504 230.252 170.064 230.228 169.621 230.18C165.362 229.72 161.775 227.11 160.026 223.199L151.254 203.581L153.563 160.439L153.978 160.618C155.414 161.238 156.572 161.811 157.517 162.369C158.159 162.746 158.712 163.126 159.159 163.496C164.499 167.947 173.518 195.651 174.949 200.128L205.858 160.859L221.033 170.451L180.485 225.41C178.206 228.498 174.708 230.252 170.941 230.252ZM151.891 203.463L160.601 222.942C162.258 226.647 165.655 229.118 169.689 229.554C173.723 229.989 177.57 228.301 179.979 225.036L220.124 170.622L206.002 161.695L174.707 201.452L174.528 200.884C174.427 200.562 164.304 168.604 158.756 163.98C158.336 163.632 157.811 163.273 157.197 162.911C156.367 162.421 155.365 161.917 154.143 161.377L151.891 203.463Z" fill="#263238"/>
<path d="M153.852 160.907C155.634 172.115 156.202 183.483 155.546 194.813L154.643 210.393L153.781 224.3C153.781 224.3 126.729 232.298 101.01 219.235C103.254 202.372 104.823 192.196 105.822 186.273C106.71 181.034 107.148 179.121 107.213 178.85L111.438 155.668C113.416 155.272 115.449 155.111 117.5 155.197L129.083 155.679L140.715 157.117C147.537 158.761 154.044 160.454 157.356 162.64C156.373 162.059 155.183 161.481 153.852 160.907Z" fill="#E9E9E9"/>
<path d="M134.01 227.036C125.022 227.036 112.804 225.579 100.867 219.516L100.668 219.415L100.697 219.193C103.008 201.823 104.591 191.675 105.511 186.221C106.417 180.874 106.859 178.976 106.906 178.777L111.167 155.401L111.376 155.359C113.389 154.956 115.453 154.795 117.513 154.883L129.095 155.364L140.789 156.811C145.49 157.944 149.993 159.084 153.452 160.4L153.451 160.392L153.629 160.468C155.168 161.063 156.494 161.694 157.529 162.377L157.195 162.911C156.39 162.436 155.424 161.948 154.252 161.427C155.964 172.455 156.505 183.691 155.86 194.832L154.957 210.411L154.082 224.54L153.87 224.602C153.802 224.622 146.955 226.617 137.052 226.981C136.087 227.016 135.07 227.036 134.01 227.036ZM101.351 219.055C114.507 225.678 127.992 226.683 137.009 226.352C145.871 226.028 152.26 224.391 153.481 224.057L154.329 210.373L155.231 194.796C155.881 183.565 155.322 172.238 153.568 161.126C150.047 159.749 145.323 158.552 140.658 157.427L129.044 155.991L117.486 155.511C115.548 155.43 113.606 155.572 111.709 155.935L107.522 178.906C107.472 179.119 107.035 180.999 106.132 186.325C105.217 191.752 103.645 201.829 101.351 219.055Z" fill="#263238"/>
<path d="M142.981 150.852L142.605 156.606L141.728 169.986C134.393 169.588 126.646 163.628 126.646 156.826L131.121 148.584L134.293 149.192L142.981 150.852Z" fill="white"/>
<path d="M142.022 170.318L141.711 170.301C134.451 169.906 126.332 164.06 126.332 156.826V156.746L130.955 148.232L143.313 150.594L142.022 170.318ZM126.962 156.905C127.023 163.55 134.698 169.13 141.435 169.651L142.649 151.109L131.289 148.937L126.962 156.905Z" fill="#263238"/>
<path d="M135.635 168.441L130.134 173.122L124.329 162.812C123.045 160.532 124.162 157.646 126.647 156.825C126.485 161.371 130.55 164.188 135.635 168.441Z" fill="white"/>
<path d="M130.047 173.61L124.054 162.967C123.396 161.798 123.296 160.409 123.781 159.158C124.265 157.906 125.274 156.947 126.548 156.526L126.978 156.384L126.962 156.836C126.822 160.762 129.963 163.35 134.309 166.933C134.805 167.342 135.316 167.763 135.837 168.199L136.123 168.438L130.047 173.61ZM126.33 157.288C125.433 157.704 124.73 158.45 124.368 159.385C123.952 160.46 124.037 161.653 124.603 162.658L130.221 172.635L135.146 168.443C134.725 168.093 134.312 167.752 133.908 167.419C129.755 163.995 126.441 161.263 126.33 157.288Z" fill="#263238"/>
<path d="M135.635 168.454L139.924 174.267L144.699 166.241C146.246 163.64 145.294 160.274 142.615 158.87C141.736 163.333 141.555 165.473 135.635 168.454Z" fill="white"/>
<path d="M139.953 174.836L135.16 168.341L135.494 168.173C141.026 165.387 141.418 163.374 142.198 159.363L142.388 158.394L142.761 158.59C144.135 159.311 145.123 160.529 145.545 162.021C145.967 163.513 145.763 165.069 144.97 166.401L139.953 174.836ZM136.109 168.566L139.897 173.699L144.429 166.08C145.132 164.897 145.314 163.517 144.939 162.193C144.604 161.007 143.865 160.016 142.84 159.363L142.816 159.484C142.037 163.484 141.602 165.723 136.109 168.566Z" fill="#263238"/>
<path d="M163.297 419.376L120.664 400.499L131.472 388.07L148.967 395.816L163.297 419.376Z" fill="white"/>
<path d="M164.088 420.071L120.146 400.614L131.387 387.687L149.184 395.568L149.236 395.652L164.088 420.071ZM121.181 400.384L162.506 418.681L148.749 396.064L131.557 388.451L121.181 400.384Z" fill="#263238"/>
<path d="M148.871 395.516L141.012 398.576L141.245 399.175L149.104 396.115L148.871 395.516Z" fill="#263238"/>
<path d="M122.999 397.684L122.744 398.26L155.728 412.865L155.983 412.289L122.999 397.684Z" fill="#263238"/>
<path d="M41.0039 418.749H87.6276L82.775 403.007H63.6429L41.0039 418.749Z" fill="white"/>
<path d="M88.0547 419.063H40L63.5447 402.692H83.0081L88.0547 419.063ZM42.0086 418.434H87.2015L82.543 403.322H63.7418L42.0086 418.434Z" fill="#263238"/>
<path d="M63.8604 402.805L63.4141 403.249L69.3603 409.23L69.8067 408.786L63.8604 402.805Z" fill="#263238"/>
<path d="M86.6369 415.219H50.5654V415.849H86.6369V415.219Z" fill="#263238"/>
<path d="M106.378 184.787L105.9 184.7L106.977 178.792L107.221 178.814L107.459 178.862L107.454 178.884L106.378 184.787Z" fill="#263238"/>
<path d="M98.7382 241.57C98.7382 241.57 103.531 242.438 105.057 244.912C106.583 247.386 106.928 253.988 103.662 249.76C100.396 245.531 99.9573 257.555 92.8749 266.065C85.7924 274.576 88.5034 264.392 89.7531 259.829C91.8112 252.315 91.9268 248.306 91.9268 248.306L98.7382 241.57Z" fill="white"/>
<path d="M88.9984 269.668C88.838 269.668 88.6912 269.632 88.5571 269.562C87.2531 268.882 87.9709 265.146 89.4499 259.746C91.4715 252.366 91.6112 248.337 91.6125 248.297L91.6162 248.171L98.6337 241.232L98.7947 241.261C98.9962 241.297 103.744 242.182 105.326 244.747C106.374 246.447 107.061 250.481 105.869 251.306C105.259 251.728 104.433 251.273 103.413 249.952C102.997 249.415 102.639 249.164 102.345 249.205C101.538 249.32 100.683 251.493 99.694 254.009C98.3232 257.494 96.4455 262.268 93.1171 266.267C91.1888 268.584 89.885 269.667 88.9984 269.668ZM92.2363 248.443C92.1993 249.192 91.9249 253.093 90.0571 259.913C88.5111 265.557 88.1044 268.616 88.8482 269.004C89.0398 269.104 89.8795 269.173 92.6331 265.864C95.897 261.943 97.753 257.224 99.1081 253.778C100.299 250.749 101.086 248.748 102.256 248.581C102.797 248.505 103.339 248.827 103.911 249.568C104.776 250.687 105.313 250.925 105.51 250.788C106.187 250.32 105.869 246.828 104.79 245.077C103.507 242.998 99.6693 242.087 98.8411 241.912L92.2363 248.443Z" fill="#263238"/>
<path d="M76.6133 199.453L100.529 240.468L89.5605 251.026L57.9416 205.885L57.7163 206.042L57.9416 205.885C52.9279 198.727 54.9429 188.826 62.3563 184.201C70.8944 178.874 81.9923 171.991 91.5287 166.326C96.2972 163.493 100.673 160.966 104.142 159.091C105.876 158.154 107.381 157.381 108.594 156.815C109.55 156.368 110.31 156.057 110.852 155.892L105.387 186.066L76.7373 199.064L76.4599 199.19L76.6133 199.453Z" fill="#E9E9E9" stroke="#263238" stroke-width="0.550162"/>
<path d="M134.232 169.634L123.844 212.047L129.195 221.213L135.635 213.966L136.852 170.104L135.635 168.454L134.232 169.634Z" fill="#0487FF"/>
<path d="M142.982 150.852L142.606 156.606C131.933 158.862 130.156 151.568 130.156 151.568L134.294 149.192L142.982 150.852Z" fill="#263238"/>
<path d="M123.433 134.685C123.433 134.685 121.829 126.71 124.956 121.217C128.083 115.724 131.897 116.564 131.897 116.564C131.897 116.564 138.838 110.826 150.279 116.518C161.72 122.209 155.101 138.38 149.067 144.713C138.151 141.434 123.433 134.685 123.433 134.685Z" fill="#263238"/>
<path d="M150.978 137.011C150.978 137.011 154.822 134.48 154.953 137.438C155.084 140.395 152.127 147.133 148.185 144.208C149.368 138.917 150.978 137.011 150.978 137.011Z" fill="white"/>
<path d="M150.124 145.241C149.415 145.241 148.697 144.98 147.997 144.461L147.833 144.339L147.878 144.139C149.064 138.834 150.67 136.888 150.737 136.807L150.805 136.748C151.046 136.589 153.195 135.216 154.45 135.858C154.958 136.117 155.233 136.644 155.268 137.424C155.362 139.554 153.937 143.608 151.572 144.866C151.1 145.117 150.614 145.241 150.124 145.241ZM148.538 144.072C149.471 144.7 150.391 144.78 151.276 144.309C153.354 143.205 154.727 139.446 154.639 137.452C154.614 136.908 154.459 136.57 154.164 136.418C153.393 136.024 151.798 136.858 151.192 137.246C150.985 137.518 149.598 139.456 148.538 144.072Z" fill="#263238"/>
<path d="M128.184 131.978C128.184 131.978 125.947 127.955 124.462 130.516C122.976 133.076 122.479 140.418 127.328 139.651C128.728 134.413 128.184 131.978 128.184 131.978Z" fill="white"/>
<path d="M126.658 140.021C125.537 140.021 124.635 139.56 124.022 138.665C122.507 136.456 123.12 132.202 124.19 130.357C124.581 129.683 125.059 129.351 125.64 129.348C127.049 129.361 128.319 131.573 128.459 131.825L128.491 131.909C128.514 132.011 129.037 134.48 127.632 139.732L127.58 139.93L127.377 139.961C127.129 140.001 126.889 140.021 126.658 140.021ZM125.627 129.978C125.298 129.978 125.006 130.205 124.734 130.674C123.733 132.4 123.21 136.367 124.541 138.309C125.108 139.136 125.961 139.493 127.077 139.367C128.275 134.785 127.942 132.424 127.884 132.088C127.527 131.463 126.5 129.985 125.633 129.978C125.631 129.978 125.629 129.978 125.627 129.978Z" fill="#263238"/>
<path d="M128.865 124.193L126.033 140.904C125.349 144.945 126.93 149.036 130.155 151.566L130.913 152.161C133.491 154.184 136.826 154.972 140.036 154.319C144.081 153.497 147.343 150.511 148.52 146.554L153.704 129.123C153.704 129.123 143.716 117.227 128.865 124.193Z" fill="white"/>
<path d="M137.803 154.859C135.256 154.859 132.761 154.011 130.719 152.409L129.96 151.814C126.642 149.21 125.018 145.01 125.723 140.851L128.582 123.978L128.731 123.908C136.515 120.257 142.957 121.813 146.991 123.762C151.355 125.87 153.842 128.797 153.946 128.92L154.055 129.05L148.822 146.643C147.609 150.72 144.267 153.78 140.099 154.627C139.336 154.783 138.567 154.859 137.803 154.859ZM129.148 124.409L126.344 140.956C125.677 144.887 127.212 148.858 130.349 151.318L131.107 151.913C133.616 153.882 136.848 154.646 139.974 154.011C143.912 153.209 147.072 150.318 148.218 146.464L153.353 129.2C152.827 128.617 150.444 126.124 146.695 124.318C142.814 122.449 136.629 120.957 129.148 124.409Z" fill="#263238"/>
<path d="M128.865 124.193C128.865 124.193 138.991 131.593 149.059 131.364C159.127 131.135 157.373 124.955 154.475 122.438C151.576 119.92 139.696 117.251 128.865 124.193Z" fill="#263238"/>
<path d="M207.295 161.947L219.719 165.774L217.23 168.558L207.295 161.947Z" fill="#263238"/>
<path d="M91.8037 249.785L101.89 242.679L99.6396 241.929L91.8037 249.785Z" fill="#263238"/>
<path d="M109.033 168.871L101.975 188.021L105.864 186.256L109.033 168.871Z" fill="#263238"/>
<path d="M155.776 188.947L158.755 219.584L154.644 210.393L155.776 188.947Z" fill="#263238"/>
<path d="M138.12 144.516C138.136 144.516 138.146 144.516 138.15 144.515C138.286 144.511 138.393 144.39 138.389 144.246C138.384 144.102 138.262 143.993 138.133 143.993C138.132 143.993 137.323 144.009 136.7 143.457C136.606 143.374 136.877 142.81 137.075 142.398C137.429 141.663 137.913 140.657 138.181 139.33C138.209 139.189 138.124 139.05 137.99 139.02C137.858 138.99 137.726 139.08 137.697 139.221C137.443 140.481 136.976 141.452 136.634 142.161C136.258 142.943 135.987 143.507 136.382 143.858C137.088 144.483 137.946 144.516 138.12 144.516Z" fill="#263238"/>
<path d="M131.912 136.674C131.667 137.835 132.159 138.921 133.01 139.1C133.862 139.28 134.75 138.485 134.994 137.324C135.239 136.163 134.747 135.077 133.895 134.898C133.044 134.718 132.156 135.513 131.912 136.674Z" fill="#263238"/>
<path d="M141.297 138.381C140.754 139.436 140.94 140.613 141.713 141.013C142.486 141.412 143.553 140.881 144.097 139.827C144.641 138.772 144.455 137.594 143.681 137.195C142.908 136.796 141.841 137.327 141.297 138.381Z" fill="#263238"/>
<path d="M131.202 133.984C131.103 133.948 131.013 133.884 130.945 133.792C130.766 133.549 130.818 133.207 131.062 133.028C133.207 131.453 135.525 132.749 135.621 132.805C135.884 132.955 135.974 133.289 135.824 133.551C135.674 133.813 135.339 133.903 135.078 133.754C134.994 133.707 133.268 132.767 131.71 133.91C131.558 134.021 131.367 134.042 131.202 133.984Z" fill="#263238"/>
<path d="M142.456 135.216C142.381 135.142 142.327 135.045 142.305 134.934C142.246 134.637 142.439 134.35 142.735 134.291C145.347 133.778 146.893 135.936 146.957 136.027C147.131 136.275 147.071 136.616 146.823 136.789C146.576 136.962 146.235 136.902 146.062 136.655C146.006 136.577 144.843 134.992 142.947 135.365C142.762 135.401 142.581 135.34 142.456 135.216Z" fill="#263238"/>
<path d="M137.573 150.101C134.12 150.101 131.54 147.273 131.507 147.236C131.306 147.011 131.325 146.666 131.55 146.465C131.777 146.264 132.121 146.283 132.324 146.507C132.47 146.671 135.972 150.485 140.053 148.386C140.321 148.248 140.651 148.353 140.79 148.622C140.928 148.89 140.823 149.22 140.554 149.358C139.519 149.891 138.513 150.101 137.573 150.101Z" fill="#263238"/>
<path d="M-63.0307 40.7969C-37.594 54.9419 19.0022 75.7462 41.8932 45.8041C70.5069 8.37631 41.7034 0.871165 33.2448 19.5474C24.7861 38.2236 66.9969 63.6024 108.765 25.1246C142.179 -5.65761 157.787 -53.1178 161.414 -73" stroke="#0487FF" stroke-dasharray="6 6"/>
<path d="M479.529 315.123C454.601 330.146 408.389 368.881 422.967 403.637C441.189 447.083 462.034 425.835 450.045 409.203C438.056 392.572 395.035 416.553 407.622 471.93C417.691 516.232 451.088 553.391 466.527 566.432" stroke="#0487FF" stroke-dasharray="6 6"/>
</g>
</g>
<defs>
<linearGradient id="paint0_linear_332_5337" x1="86.3133" y1="252.094" x2="94.8698" y2="252.094" gradientUnits="userSpaceOnUse">
<stop stop-color="#E8C46D"/>
<stop offset="1" stop-color="#E4B26B"/>
</linearGradient>
<clipPath id="clip0_332_5337">
<rect width="480" height="480" rx="24" fill="white"/>
</clipPath>
<clipPath id="clip1_332_5337">
<rect width="480" height="480" rx="24" fill="white"/>
</clipPath>
</defs>
</svg>
