<svg width="484" height="473" viewBox="0 0 484 473" fill="none" xmlns="http://www.w3.org/2000/svg">
<path fill-rule="evenodd" clip-rule="evenodd" d="M46.7562 290.639C21.4487 206.223 89.9381 131.531 162.341 81.2072C227.111 36.1887 309.673 18.7552 375.531 62.1241C449.708 110.972 495.925 198.856 469.981 283.797C443.272 371.245 356.509 422.344 265.055 423.823C170.802 425.347 73.8121 380.888 46.7562 290.639Z" fill="#F1E2FF"/>
<path d="M448.687 381.177C448.467 382.04 448.165 382.873 447.774 383.66C447.383 384.448 446.901 385.191 446.319 385.873C445.737 386.535 445.095 387.127 444.412 387.669C443.73 388.211 443.008 388.702 442.265 389.164C439.837 390.729 437.147 392.114 434.373 392.912C431.598 393.71 428.738 393.92 425.969 393.138C424.685 392.777 423.47 392.215 422.296 391.552C421.122 390.89 419.988 390.128 418.865 389.365C416.918 388.04 414.971 386.725 413.024 385.411C411.078 384.097 409.131 382.782 407.184 381.458C406.221 380.796 405.247 380.133 404.319 379.421C403.391 378.708 402.508 377.946 401.725 377.083C400.942 376.2 400.26 375.206 399.773 374.138C399.287 373.069 398.996 371.925 398.996 370.741C398.996 370.079 399.086 369.437 399.252 368.819C399.418 368.202 399.658 367.61 399.96 367.048C400.461 366.005 401.154 365.041 401.946 364.173C402.739 363.306 403.632 362.533 404.535 361.87C404.576 361.83 404.616 361.79 404.656 361.755C404.696 361.72 404.736 361.69 404.776 361.67C405.037 361.469 405.308 361.288 405.584 361.113C405.86 360.938 406.141 360.767 406.422 360.586C411.419 357.656 417.58 356.612 423.626 357.109C429.672 357.606 435.602 359.643 440.138 362.874C441.944 364.178 443.64 365.704 445.059 367.43C446.479 369.156 447.624 371.082 448.326 373.189C448.767 374.474 449.018 375.818 449.078 377.168C449.139 378.518 449.009 379.872 448.687 381.177Z" fill="url(#paint0_linear_332_4199)"/>
<path d="M424.244 368.614C424.183 368.674 424.113 368.714 424.043 368.739C423.973 368.764 423.902 368.774 423.842 368.774C423.762 368.774 423.681 368.764 423.611 368.739C423.541 368.714 423.481 368.674 423.441 368.614C421.052 366.045 418.052 364.128 414.785 362.969C411.519 361.81 407.987 361.409 404.535 361.87C404.575 361.83 404.615 361.79 404.655 361.755C404.696 361.72 404.736 361.69 404.776 361.67C405.037 361.469 405.307 361.288 405.583 361.113C405.859 360.938 406.141 360.767 406.422 360.586C409.733 360.446 413.054 361.038 416.115 362.272C419.175 363.506 421.975 365.383 424.243 367.811C424.363 367.931 424.413 368.082 424.408 368.227C424.404 368.373 424.344 368.513 424.244 368.614Z" fill="url(#paint1_linear_332_4199)"/>
<path d="M448.687 381.177C448.467 382.04 448.179 382.97 447.801 383.854C447.423 384.739 446.956 385.578 446.374 386.26C445.792 386.923 445.149 387.515 444.467 388.057C443.785 388.598 443.062 389.09 442.32 389.552C439.891 391.117 437.189 392.471 434.401 393.238C431.612 394.005 428.739 394.185 425.969 393.403C424.685 393.041 423.471 392.479 422.297 391.817C421.123 391.155 419.989 390.392 418.865 389.63C416.918 388.305 414.911 386.996 412.904 385.686C410.898 384.377 408.891 383.068 406.944 381.743C405.98 381.081 405.007 380.418 404.079 379.706C403.151 378.994 402.268 378.231 401.485 377.368C400.702 376.486 400.02 375.492 399.533 374.423C399.047 373.355 398.756 372.211 398.756 371.027C398.756 370.365 398.907 369.651 399.132 368.962C399.358 368.274 399.659 367.61 399.96 367.048C400.482 367.951 401.054 368.653 401.776 369.236C402.499 369.818 403.372 370.279 404.496 370.701C406.824 371.584 409.252 372.226 411.635 372.959C414.018 373.691 416.356 374.514 418.504 375.758C420.25 376.762 421.825 378.026 423.415 379.26C425.006 380.495 426.612 381.699 428.418 382.582C430.545 383.625 432.853 384.187 435.201 384.343C437.55 384.498 439.938 384.248 442.225 383.665C443.349 383.384 444.453 383.033 445.532 382.617C446.61 382.2 447.664 381.719 448.687 381.177Z" fill="url(#paint2_linear_332_4199)"/>
<path d="M33.6803 133.946C33.608 133.946 33.5351 133.932 33.4664 133.905C33.3978 133.878 33.3335 133.837 33.2786 133.782C33.167 133.67 33.1113 133.524 33.1113 133.378C33.1113 133.232 33.1673 133.086 33.2786 132.974L38.1706 128.082L43.0622 123.19C43.172 123.081 43.3183 123.026 43.4639 123.026C43.6102 123.026 43.7561 123.081 43.8656 123.19C43.9776 123.302 44.0332 123.448 44.0332 123.594C44.0332 123.74 43.9776 123.886 43.8656 123.998L38.974 128.89L34.082 133.782C34.0274 133.837 33.9631 133.878 33.8945 133.905C33.8259 133.932 33.7529 133.946 33.6803 133.946Z" fill="white"/>
<path d="M43.4639 133.946C43.3916 133.946 43.3186 133.932 43.25 133.905C43.1814 133.878 43.1171 133.837 43.0622 133.782L38.1706 128.89L33.2786 123.998C33.167 123.886 33.1113 123.741 33.1113 123.594C33.1113 123.448 33.1673 123.302 33.2786 123.19C33.3884 123.081 33.5347 123.026 33.6803 123.026C33.8262 123.026 33.9725 123.081 34.082 123.19L38.974 128.082L43.8656 132.974C43.9776 133.086 44.0332 133.232 44.0332 133.378C44.0332 133.524 43.9776 133.67 43.8656 133.782C43.811 133.837 43.7467 133.878 43.6781 133.905C43.6094 133.932 43.5365 133.946 43.4639 133.946Z" fill="white"/>
<path d="M10.2601 165.775C7.43079 165.775 4.86596 164.624 3.00844 162.766C1.15093 160.908 0 158.342 0 155.512C0 152.685 1.15093 150.12 3.00844 148.263C4.86596 146.405 7.43079 145.255 10.2601 145.255C13.089 145.255 15.6542 146.405 17.5117 148.263C19.3692 150.12 20.5197 152.685 20.5197 155.512C20.5197 158.342 19.3695 160.908 17.5117 162.766C15.6542 164.624 13.089 165.775 10.2601 165.775ZM10.2601 146.391C7.74471 146.391 5.46346 147.414 3.81185 149.066C2.15988 150.718 1.13647 152.998 1.13647 155.512C1.13647 158.029 2.15952 160.31 3.81185 161.962C5.46346 163.614 7.74471 164.638 10.2601 164.638C12.7754 164.638 15.0563 163.615 16.7083 161.962C18.3602 160.31 19.3829 158.029 19.3829 155.512C19.3829 152.998 18.3602 150.718 16.7083 149.066C15.0559 147.414 12.7754 146.391 10.2601 146.391Z" fill="white"/>
<path d="M469.754 309.814C469.682 309.814 469.609 309.8 469.541 309.773C469.472 309.745 469.407 309.704 469.35 309.649C469.241 309.538 469.186 309.392 469.186 309.245C469.186 309.1 469.24 308.954 469.35 308.842L474.242 303.95L479.134 299.058C479.247 298.949 479.393 298.893 479.538 298.893C479.683 298.893 479.828 298.948 479.942 299.058C480.051 299.17 480.106 299.316 480.106 299.462C480.106 299.608 480.051 299.754 479.942 299.866L475.05 304.758L470.158 309.649C470.101 309.704 470.036 309.745 469.968 309.773C469.899 309.8 469.827 309.814 469.754 309.814Z" fill="white"/>
<path d="M479.539 309.814C479.466 309.814 479.394 309.8 479.325 309.773C479.257 309.745 479.192 309.704 479.135 309.649L474.243 304.758L469.351 299.866C469.242 299.754 469.187 299.608 469.187 299.462C469.187 299.315 469.241 299.17 469.351 299.058C469.465 298.948 469.61 298.893 469.755 298.893C469.9 298.893 470.045 298.948 470.159 299.058L475.051 303.95L479.943 308.841C480.052 308.953 480.107 309.099 480.107 309.245C480.107 309.392 480.052 309.538 479.943 309.649C479.886 309.704 479.821 309.745 479.752 309.773C479.684 309.8 479.611 309.814 479.539 309.814Z" fill="white"/>
<path d="M445.654 114.254C444.812 114.495 444.039 114.816 443.321 115.207C442.604 115.599 441.942 116.06 441.319 116.582C439.734 117.826 438.311 119.878 436.874 121.915C435.436 123.952 433.984 125.973 432.338 127.157C431.314 125.732 430.716 124.957 430.374 124.539C430.032 124.12 429.946 124.058 429.946 124.058C427.164 120.03 425.539 116.765 424.47 113.262C423.401 109.76 422.889 106.019 422.333 101.038C422.047 98.4814 421.415 95.1825 420.855 92.523C420.294 89.8632 419.805 87.8424 419.805 87.8424C420.006 85.5344 419.424 83.5775 418.732 82.0924C418.039 80.6074 417.236 79.5937 416.995 79.1725C418.46 77.7676 420.587 77.1654 422.795 77.0502C425.002 76.9346 427.291 77.306 429.077 77.8478C430.08 78.1487 431.204 78.8615 432.353 79.8144C433.502 80.7678 434.676 81.9617 435.78 83.226C436.883 84.4904 437.917 85.8248 438.805 87.0794C439.693 88.3337 440.436 89.5077 440.958 90.4509C440.958 90.4509 440.887 91.4342 440.903 93.0801C440.917 94.7255 441.018 97.0335 441.359 99.6829C441.68 102.111 442.121 104.379 442.799 106.727C443.477 109.076 444.39 111.505 445.654 114.254Z" fill="url(#paint3_linear_332_4199)"/>
<path d="M445.655 114.254C444.812 114.495 444.039 114.816 443.322 115.207C442.604 115.599 441.942 116.06 441.32 116.582C441.259 116.481 441.209 116.391 441.164 116.301C441.119 116.21 441.079 116.12 441.039 116.02C439.353 112.407 438.149 108.604 437.336 104.711C436.523 100.817 436.101 96.8337 435.981 92.86C435.961 91.997 435.961 91.1238 435.916 90.2608C435.871 89.3978 435.781 88.5449 435.58 87.722C435.46 87.14 435.108 86.5581 434.863 85.9761C434.617 85.3941 434.476 84.8122 434.777 84.2302C434.897 84.0095 435.038 83.8086 435.204 83.6381C435.369 83.4676 435.56 83.3271 435.781 83.2267C436.884 84.491 437.918 85.8255 438.806 87.0801C439.694 88.3343 440.436 89.5084 440.958 90.4516C440.958 90.4516 440.922 91.4331 440.97 93.0767C441.018 94.72 441.152 97.0258 441.493 99.6752C441.814 102.103 442.222 104.374 442.866 106.724C443.511 109.074 444.39 111.505 445.655 114.254Z" fill="url(#paint4_linear_332_4199)"/>
<path opacity="0.78" d="M479.29 133.881C479.29 134.423 479.271 134.955 479.236 135.482C479.2 136.009 479.15 136.531 479.09 137.053C478.307 143.395 475.217 149.014 470.686 153.048C466.156 157.082 460.185 159.53 453.642 159.53C446.558 159.53 440.146 156.66 435.505 152.019C430.864 147.378 427.994 140.966 427.994 133.881C427.994 127.801 430.111 122.212 433.654 117.816C437.196 113.421 442.163 110.22 447.863 108.916C448.786 108.695 449.739 108.524 450.708 108.409C451.676 108.293 452.659 108.233 453.642 108.233C460.727 108.233 467.139 111.103 471.78 115.744C476.421 120.385 479.29 126.797 479.29 133.881Z" fill="url(#paint5_linear_332_4199)"/>
<path d="M464.153 133.882C464.153 136.786 462.976 139.415 461.073 141.319C459.169 143.222 456.54 144.399 453.636 144.399C450.731 144.399 448.102 143.222 446.199 141.319C444.295 139.415 443.118 136.786 443.118 133.882C443.118 130.977 444.295 128.348 446.199 126.445C448.102 124.542 450.731 123.364 453.636 123.364C456.54 123.364 459.169 124.542 461.073 126.445C462.976 128.348 464.153 130.977 464.153 133.882Z" fill="url(#paint6_linear_332_4199)"/>
<path d="M467.65 131.342C467.67 131.431 467.69 131.521 467.71 131.61C467.73 131.699 467.748 131.788 467.767 131.877C467.904 132.546 468.031 133.221 468.193 133.885C468.355 134.549 468.551 135.202 468.825 135.828C469.1 136.453 469.465 137.054 469.92 137.564C470.374 138.074 470.918 138.493 471.549 138.754C472.562 139.174 473.611 139.033 474.528 138.564C475.444 138.096 476.227 137.3 476.707 136.409C477.272 135.363 477.524 134.219 477.581 133.046C477.639 131.873 477.502 130.673 477.287 129.518C476.915 127.511 476.323 125.531 475.496 123.648C474.668 121.765 473.606 119.978 472.293 118.359C470.98 116.739 469.408 115.293 467.644 114.112C465.88 112.932 463.924 112.017 461.842 111.461C461.115 111.266 460.36 111.115 459.605 111.063C458.85 111.011 458.095 111.056 457.368 111.254C456.155 111.582 455.254 112.3 454.798 113.203C454.342 114.107 454.332 115.197 454.904 116.271C455.372 117.151 455.966 117.701 456.663 118.124C457.359 118.546 458.157 118.842 459.034 119.213C461.352 120.196 463.231 122.04 464.669 124.232C466.105 126.425 467.1 128.966 467.65 131.342Z" fill="white"/>
<path d="M261.02 317.715V339.309V360.904H257.568H254.116V339.309V317.715H257.568H261.02Z" fill="url(#paint7_linear_332_4199)"/>
<path d="M261.279 317.715L261.149 327.649L261.02 337.583C260.506 338.005 259.992 338.406 259.471 338.797C258.951 339.189 258.425 339.57 257.886 339.951C257.274 340.393 256.65 340.834 256.019 341.271C255.389 341.707 254.752 342.139 254.116 342.56L253.89 330.138L253.664 317.715H257.471H261.279Z" fill="url(#paint8_linear_332_4199)"/>
<path d="M445.976 100.607V204.726V308.844C445.976 312.356 444.551 315.547 442.243 317.86C439.935 320.173 436.744 321.608 433.212 321.608H256.844H80.4767C76.9647 321.608 73.7739 320.173 71.4604 317.86C69.1478 315.547 67.7129 312.356 67.7129 308.844V204.726V100.607C67.7129 98.7003 68.1345 96.8941 68.8869 95.2685C69.6394 93.6429 70.7231 92.1979 72.0478 91.0138C73.1717 90.0305 74.4761 89.2375 75.9012 88.691C77.326 88.1441 78.8714 87.8428 80.4771 87.8428H256.844H433.212C436.744 87.8428 439.935 89.2675 442.243 91.5755C444.551 93.8839 445.976 97.0747 445.976 100.607Z" fill="url(#paint9_linear_332_4199)"/>
<path d="M445.976 154.834V184.837V214.841C444.39 215.383 442.745 215.794 441.054 216.07C439.363 216.346 437.627 216.486 435.861 216.486C427.131 216.486 419.223 212.944 413.499 207.22C407.774 201.495 404.232 193.587 404.232 184.858C404.232 183.894 404.272 182.931 404.358 181.978C404.443 181.024 404.574 180.081 404.754 179.158C404.232 178.736 403.74 178.285 403.299 177.873C402.858 177.462 402.466 177.09 402.145 176.83C393.355 169.645 385.468 160.834 379.663 150.91C373.858 140.986 370.135 129.948 369.673 118.308C369.493 113.913 369.503 109.197 370.09 104.581C370.677 99.9647 371.841 95.4491 373.968 91.4556C377.56 91.4957 381.073 91.5357 384.494 91.5813C387.916 91.6261 391.248 91.6763 394.479 91.7366C388.759 98.48 387.425 108.113 388.543 117.742C389.662 127.369 393.235 136.993 397.329 143.716C398.513 145.642 399.817 147.569 401.207 149.451C402.597 151.332 404.072 153.168 405.597 154.914C406.039 155.456 406.49 155.998 406.952 156.53C407.414 157.061 407.885 157.583 408.367 158.085C409.009 158.767 409.882 159.48 410.785 160.232C411.688 160.985 412.621 161.778 413.384 162.621C416.234 159.691 419.656 157.332 423.464 155.707C427.272 154.081 431.466 153.188 435.862 153.188C437.628 153.188 439.363 153.329 441.055 153.605C442.745 153.88 444.39 154.292 445.976 154.834Z" fill="#612FC5"/>
<path opacity="0.25" d="M410.855 321.608H245.666H80.4767C76.9647 321.608 73.7739 320.173 71.4604 317.86C69.1478 315.547 67.7129 312.356 67.7129 308.844V204.726V100.607C67.7129 98.7004 68.1345 96.8941 68.8869 95.2685C69.6394 93.6429 70.7231 92.198 72.0478 91.0138C72.8906 94.7465 73.9444 98.4796 75.1534 102.177C76.3629 105.875 77.7277 109.537 79.1925 113.13V196.176V279.222C79.1925 282.313 80.4468 285.113 82.4737 287.139C84.5006 289.166 87.3003 290.421 90.3911 290.421H181.826H273.261C295.236 298.99 317.854 305.844 340.869 311.027C363.883 316.209 387.294 319.722 410.855 321.608Z" fill="#2B096D"/>
<path d="M432.764 110.115V195.515V280.914C432.764 284.028 431.51 286.849 429.483 288.89C427.456 290.932 424.656 292.196 421.565 292.196H255.112H88.6585C85.5677 292.196 82.7681 290.932 80.7411 288.89C78.7142 286.849 77.46 284.028 77.46 280.914V195.515V110.115C77.46 107.002 78.7142 104.181 80.7411 102.139C82.7681 100.098 85.5677 98.834 88.6585 98.834H255.112H421.565C424.656 98.834 427.456 100.098 429.483 102.139C431.509 104.182 432.764 107.002 432.764 110.115Z" fill="url(#paint10_linear_332_4199)"/>
<path d="M273.261 290.421H181.826H90.391C87.3001 290.421 84.5005 289.166 82.4736 287.139C80.4466 285.113 79.1924 282.313 79.1924 279.222V196.176V113.13C80.8783 117.264 82.6943 121.328 84.5561 125.287C86.4173 129.246 88.3239 133.099 90.1905 136.812C95.9704 148.231 102.603 159.219 109.969 169.695C117.334 180.171 125.432 190.135 134.142 199.508C150.016 216.587 167.838 231.729 186.984 245.045C206.13 258.361 226.601 269.85 247.774 279.624C251.968 281.55 256.193 283.417 260.442 285.218C264.691 287.019 268.966 288.755 273.261 290.421Z" fill="#2B096D"/>
<path d="M434.496 109.678V194.45V279.222C434.496 282.313 433.242 285.113 431.215 287.14C429.188 289.167 426.388 290.421 423.298 290.421H348.279H273.26C268.966 288.755 264.691 287.019 260.441 285.218C256.192 283.417 251.967 281.551 247.773 279.624C226.6 269.85 206.129 258.361 186.983 245.045C167.837 231.729 150.016 216.587 134.141 199.508C125.431 190.135 117.333 180.171 109.968 169.695C102.602 159.219 95.9694 148.231 90.1895 136.812C88.3229 133.099 86.4166 129.246 84.5551 125.287C82.6937 121.328 80.8773 117.264 79.1914 113.13V111.404V109.678C79.1914 106.588 80.4456 103.788 82.4726 101.761C84.4995 99.7339 87.2992 98.4796 90.39 98.4796H256.843H423.297C426.388 98.4796 429.187 99.7339 431.214 101.761C433.242 103.788 434.496 106.588 434.496 109.678Z" fill="url(#paint11_linear_332_4199)"/>
<path d="M413.454 308.455C413.454 309.587 413.913 310.612 414.655 311.354C415.397 312.096 416.422 312.555 417.554 312.555C418.687 312.555 419.712 312.096 420.454 311.354C421.196 310.612 421.654 309.587 421.654 308.455C421.654 307.322 421.196 306.298 420.454 305.556C419.712 304.814 418.687 304.355 417.554 304.355C416.422 304.355 415.397 304.814 414.655 305.556C413.913 306.297 413.454 307.322 413.454 308.455Z" fill="white"/>
<path d="M398.755 308.455C398.755 309.587 399.214 310.612 399.956 311.354C400.697 312.096 401.723 312.555 402.855 312.555C403.988 312.555 405.012 312.096 405.754 311.354C406.496 310.612 406.955 309.587 406.955 308.455C406.955 307.322 406.496 306.298 405.754 305.556C405.012 304.814 403.988 304.355 402.855 304.355C401.723 304.355 400.698 304.814 399.956 305.556C399.214 306.297 398.755 307.322 398.755 308.455Z" fill="white"/>
<path d="M384.363 308.455C384.363 309.587 384.822 310.612 385.564 311.354C386.306 312.096 387.331 312.555 388.464 312.555C389.596 312.555 390.621 312.096 391.363 311.354C392.105 310.612 392.564 309.587 392.564 308.455C392.564 307.322 392.105 306.298 391.363 305.556C390.621 304.814 389.596 304.355 388.464 304.355C387.331 304.355 386.306 304.814 385.564 305.556C384.822 306.297 384.363 307.322 384.363 308.455Z" fill="white"/>
<path d="M389.983 99.8047H380.471H370.958C370.998 99.5836 371.048 99.3629 371.104 99.1421C371.158 98.9214 371.219 98.7007 371.279 98.48H380.872H390.465C390.385 98.7007 390.304 98.9214 390.224 99.1421C390.144 99.3629 390.063 99.5836 389.983 99.8047Z" fill="#2B096D"/>
<path d="M434.496 153.228V184.837V216.446C426.067 216.085 418.501 212.432 413.042 206.748C407.583 201.063 404.232 193.346 404.232 184.857C404.232 183.894 404.272 182.931 404.357 181.977C404.443 181.024 404.573 180.081 404.754 179.157C404.232 178.736 403.74 178.284 403.299 177.873C402.857 177.461 402.466 177.09 402.145 176.83C393.374 169.665 385.507 160.885 379.708 150.995C373.907 141.106 370.175 130.108 369.673 118.508H379.166H388.658C389.261 123.184 390.435 127.851 391.955 132.165C393.475 136.48 395.341 140.444 397.328 143.715C398.512 145.641 399.817 147.568 401.207 149.45C402.597 151.331 404.072 153.168 405.597 154.914C406.038 155.455 406.49 155.997 406.951 156.529C407.413 157.061 407.885 157.583 408.366 158.084C409.009 158.767 409.882 159.479 410.785 160.232C411.688 160.984 412.621 161.777 413.384 162.62C416.093 159.85 419.314 157.582 422.886 155.967C426.458 154.352 430.382 153.389 434.496 153.228Z" fill="#2B096D"/>
<path d="M397.208 141.427V202.317V263.207C397.208 265.194 396.395 266.98 395.091 268.27C393.786 269.559 391.99 270.352 390.023 270.352H352.554H315.085C313.118 270.352 311.342 269.559 310.058 268.27C308.773 266.98 307.98 265.194 307.98 263.207V202.317V141.427H352.594H397.208Z" fill="url(#paint12_linear_332_4199)"/>
<path d="M397.208 132.517V136.972V141.427H352.594H307.98V136.972V132.517C307.98 130.55 308.773 128.764 310.058 127.469C311.342 126.175 313.118 125.372 315.085 125.372H352.554H390.023C391.99 125.372 393.786 126.175 395.091 127.469C396.395 128.764 397.208 130.55 397.208 132.517Z" fill="url(#paint13_linear_332_4199)"/>
<path d="M396.044 141.428H385.507H374.971C373.867 138.859 372.924 136.23 372.157 133.55C371.389 130.871 370.797 128.142 370.396 125.372H380.169H389.943C390.645 128.322 391.548 131.192 392.587 133.897C393.625 136.601 394.799 139.14 396.044 141.428Z" fill="#C689EB"/>
<path d="M387.683 133.401C387.683 134.062 387.95 134.66 388.383 135.092C388.816 135.526 389.414 135.793 390.075 135.793C390.735 135.793 391.333 135.526 391.766 135.092C392.199 134.66 392.467 134.062 392.467 133.401C392.467 132.74 392.199 132.142 391.766 131.709C391.333 131.277 390.735 131.009 390.075 131.009C389.414 131.009 388.816 131.277 388.383 131.709C387.951 132.142 387.683 132.74 387.683 133.401Z" fill="#FFD9F8"/>
<path d="M379.106 133.401C379.106 134.062 379.374 134.66 379.807 135.092C380.24 135.526 380.838 135.793 381.499 135.793C382.159 135.793 382.757 135.526 383.19 135.092C383.623 134.66 383.891 134.062 383.891 133.401C383.891 132.74 383.623 132.142 383.19 131.709C382.757 131.277 382.159 131.009 381.499 131.009C380.838 131.009 380.24 131.277 379.807 131.709C379.374 132.142 379.106 132.74 379.106 133.401Z" fill="#FFD9F8"/>
<path d="M370.709 133.401C370.709 134.062 370.977 134.66 371.41 135.092C371.843 135.526 372.44 135.793 373.101 135.793C373.762 135.793 374.36 135.526 374.793 135.092C375.226 134.66 375.493 134.062 375.493 133.401C375.493 132.74 375.226 132.142 374.793 131.709C374.36 131.277 373.762 131.009 373.101 131.009C372.44 131.009 371.843 131.277 371.41 131.709C370.977 132.142 370.709 132.74 370.709 133.401Z" fill="#FFD9F8"/>
<path d="M331.132 156.487H323.503H315.873V154.368V152.249H323.503H331.132V154.368V156.487Z" fill="url(#paint14_linear_332_4199)"/>
<path d="M385.207 165.855H352.499H319.79V163.737V161.618H352.499H385.207V163.737V165.855Z" fill="url(#paint15_linear_332_4199)"/>
<path d="M385.207 175.223H352.499H319.79V173.105V170.986H352.499H385.207V173.105V175.223Z" fill="#E4D6F8"/>
<path d="M338.025 184.592H326.949H315.873V182.473V180.354H326.949H338.025V182.473V184.592Z" fill="#E26BA0"/>
<path d="M385.207 193.96H352.499H319.79V191.841V189.722H352.499H385.207V191.841V193.96Z" fill="url(#paint16_linear_332_4199)"/>
<path d="M379.498 203.328H349.644H319.79V201.21V199.09H349.644H379.498V201.21V203.328Z" fill="white"/>
<path d="M397.207 143.515V158.005V172.495C392.511 168.16 388.166 163.343 384.388 158.135C380.61 152.927 377.399 147.328 374.971 141.428H385.507H396.044C396.224 141.789 396.415 142.15 396.611 142.501C396.806 142.852 397.007 143.194 397.207 143.515Z" fill="#A357D6"/>
<path d="M260.321 141.427V202.097V262.768C260.321 264.873 259.467 266.769 258.093 268.139C256.718 269.508 254.822 270.352 252.736 270.352H189.658H126.579C124.494 270.352 122.598 269.508 121.223 268.139C119.848 266.769 118.995 264.873 118.995 262.768V202.097V141.427H189.658H260.321Z" fill="white"/>
<path d="M260.32 132.97V137.198V141.427H189.658H118.995V137.198V132.97C118.995 130.866 119.848 128.97 121.223 127.6C122.597 126.23 124.494 125.386 126.579 125.386H189.658H252.736C254.822 125.386 256.718 126.23 258.093 127.6C259.467 128.97 260.32 130.866 260.32 132.97Z" fill="url(#paint17_linear_332_4199)"/>
<path d="M248.995 133.401C248.995 134.062 249.263 134.66 249.696 135.092C250.129 135.526 250.727 135.793 251.387 135.793C252.048 135.793 252.646 135.526 253.079 135.092C253.512 134.66 253.779 134.062 253.779 133.401C253.779 132.74 253.512 132.142 253.079 131.709C252.646 131.277 252.048 131.009 251.387 131.009C250.727 131.009 250.129 131.277 249.696 131.709C249.263 132.142 248.995 132.74 248.995 133.401Z" fill="white"/>
<path d="M240.419 133.401C240.419 134.062 240.687 134.66 241.12 135.092C241.553 135.526 242.15 135.793 242.811 135.793C243.472 135.793 244.07 135.526 244.503 135.092C244.936 134.66 245.203 134.062 245.203 133.401C245.203 132.74 244.936 132.142 244.503 131.709C244.07 131.277 243.472 131.009 242.811 131.009C242.15 131.009 241.553 131.277 241.12 131.709C240.687 132.142 240.419 132.74 240.419 133.401Z" fill="white"/>
<path d="M232.021 133.401C232.021 134.062 232.289 134.66 232.722 135.092C233.155 135.526 233.753 135.793 234.414 135.793C235.074 135.793 235.672 135.526 236.105 135.092C236.538 134.66 236.806 134.062 236.806 133.401C236.806 132.74 236.538 132.142 236.105 131.709C235.672 131.277 235.074 131.009 234.414 131.009C233.753 131.009 233.155 131.277 232.722 131.709C232.289 132.142 232.021 132.74 232.021 133.401Z" fill="white"/>
<path d="M149.966 155.396H137.714H125.462V153.277V151.158H137.714H149.966V153.277V155.396Z" fill="url(#paint18_linear_332_4199)"/>
<path d="M236.806 164.765H184.28H131.754V162.646V160.526H184.28H236.806V162.646V164.765Z" fill="url(#paint19_linear_332_4199)"/>
<path d="M236.806 174.133H184.28H131.754V172.014V169.895H184.28H236.806V172.014V174.133Z" fill="#E4D6F8"/>
<path d="M161.036 183.501H143.249H125.462V181.382V179.263H143.249H161.036V181.382V183.501Z" fill="url(#paint20_linear_332_4199)"/>
<path d="M236.806 192.869H184.28H131.754V190.751V188.631H184.28H236.806V190.751V192.869Z" fill="url(#paint21_linear_332_4199)"/>
<path d="M227.639 202.238H179.696H131.754V200.119V197.999H179.696H227.639V200.119V202.238Z" fill="#E4D6F8"/>
<path d="M149.966 211.828H137.714H125.462V209.709V207.59H137.714H149.966V209.709V211.828Z" fill="url(#paint22_linear_332_4199)"/>
<path d="M236.805 221.196H184.279H131.753V219.077V216.958H184.279H236.805V219.077V221.196Z" fill="url(#paint23_linear_332_4199)"/>
<path d="M236.805 230.565H184.279H131.753V228.445V226.326H184.279H236.805V228.445V230.565Z" fill="#E4D6F8"/>
<path d="M161.036 239.933H143.249H125.462V237.814V235.695H143.249H161.036V237.814V239.933Z" fill="#E26BA0"/>
<path d="M236.805 249.301H184.279H131.753V247.182V245.063H184.279H236.805V247.182V249.301Z" fill="url(#paint24_linear_332_4199)"/>
<path d="M227.638 258.669H179.695H131.753V256.55V254.431H179.695H227.638V256.55V258.669Z" fill="#E4D6F8"/>
<path d="M434.496 109.678V114.093V118.508H256.844H79.1924V114.093V109.678C79.1924 106.588 80.4466 103.788 82.4736 101.761C84.5005 99.7339 87.3001 98.4796 90.391 98.4796H256.844H423.298C426.389 98.4796 429.188 99.7339 431.215 101.761C433.242 103.788 434.496 106.588 434.496 109.678Z" fill="url(#paint25_linear_332_4199)"/>
<path d="M398.733 87.8431C397.91 88.4251 397.148 89.037 396.44 89.6847C395.733 90.3317 395.08 91.0141 394.478 91.7366C391.248 91.6763 387.916 91.6261 384.494 91.5813C381.072 91.5358 377.56 91.4957 373.968 91.4556C374.289 90.8133 374.64 90.1912 375.016 89.589C375.393 88.9868 375.794 88.4049 376.215 87.8431H387.474H398.733Z" fill="#ED83E8"/>
<path d="M88.7451 87.8431H232.48H376.215C375.794 88.4049 375.392 88.9872 375.016 89.589C374.64 90.1912 374.289 90.8133 373.968 91.4556C320.965 90.7732 249.66 89.8701 191.605 89.1375C133.55 88.4049 88.7451 87.8431 88.7451 87.8431Z" fill="#FFD7F7"/>
<path d="M445.976 100.607V111.986V123.365C445.976 108.575 443.588 100.798 439.559 96.6987C435.53 92.5993 429.861 92.1781 423.298 92.0975C419.224 92.0372 414.758 91.9772 409.942 91.9169C405.125 91.8566 399.958 91.7966 394.479 91.7363C395.081 91.0138 395.733 90.3314 396.44 89.6844C397.148 89.0371 397.91 88.4247 398.733 87.8428H415.973H433.212C436.744 87.8428 439.935 89.2675 442.243 91.5755C444.551 93.8839 445.976 97.0747 445.976 100.607Z" fill="#FFD7F7"/>
<path d="M434.496 110.26V114.384V118.509H256.844H79.1924V114.384V110.26C79.1924 107.373 80.4466 104.757 82.4736 102.864C84.5005 100.97 87.3001 99.799 90.391 99.799H256.844H423.298C426.389 99.799 429.188 100.97 431.215 102.864C433.242 104.757 434.496 107.373 434.496 110.26Z" fill="url(#paint26_linear_332_4199)"/>
<path d="M388.659 118.509H379.166H369.673V118.408V118.308C369.533 115.338 369.503 112.227 369.683 109.101C369.864 105.975 370.255 102.834 370.958 99.8043H380.47H389.983C389.02 102.634 388.478 105.684 388.282 108.84C388.087 111.996 388.237 115.258 388.659 118.509Z" fill="url(#paint27_linear_332_4199)"/>
<path d="M483.465 167.397C483.465 168.22 483.435 169.033 483.365 169.835C483.294 170.638 483.184 171.431 483.024 172.214C481.9 179.037 478.378 185.038 473.356 189.333C468.333 193.627 461.811 196.216 454.686 196.216C446.739 196.216 439.544 192.995 434.336 187.782C429.128 182.569 425.907 175.364 425.907 167.397C425.907 160.152 428.576 153.539 432.987 148.492C437.397 143.445 443.548 139.963 450.512 138.979C451.194 138.859 451.887 138.769 452.584 138.708C453.282 138.648 453.984 138.618 454.686 138.618C462.634 138.618 469.829 141.839 475.036 147.047C480.244 152.255 483.465 159.45 483.465 167.397Z" fill="white"/>
<path d="M406.22 76.4734C407.313 76.3726 407.806 76.2198 408.28 76.1974C408.754 76.175 409.208 76.2823 410.221 76.7042C414.669 78.5563 417.082 81.3411 418.375 83.6628C419.669 85.9846 419.844 87.8439 419.816 87.8453C419.816 87.8453 420.078 87.845 420.391 87.8457C420.704 87.8464 421.067 87.8486 421.272 87.8536C423.826 87.9194 426.537 87.8363 429.148 87.8323C431.758 87.8287 434.268 87.9046 436.42 88.289C436.448 86.7255 436.126 85.1255 435.538 83.6245C434.949 82.1239 434.093 80.7216 433.051 79.5555C432.011 78.389 430.796 77.396 429.472 76.5633C428.149 75.7303 426.717 75.058 425.245 74.5328C422.393 73.5162 419.364 73.0412 416.337 73.082C413.31 73.1228 410.286 73.6806 407.446 74.7282C407.025 74.8835 406.607 75.0678 406.24 75.3105C405.872 75.5536 405.554 75.8556 405.334 76.2465L405.777 76.3596L406.22 76.4734Z" fill="url(#paint28_linear_332_4199)"/>
<path d="M440.959 90.452C440.417 90.0705 439.872 89.736 439.281 89.4409C438.691 89.1457 438.055 88.8914 437.333 88.6707C437.024 88.554 436.617 88.4587 436.286 88.3926C435.955 88.3264 435.701 88.2892 435.701 88.2892C435.701 88.2892 435.63 87.967 435.54 87.5743C435.45 87.1817 435.339 86.7189 435.259 86.4379C435.159 86.0766 435.058 85.7255 434.948 85.3841C434.838 85.0431 434.717 84.7118 434.577 84.3907C434.316 83.7285 434.005 83.0862 433.643 82.4793C433.282 81.8721 432.871 81.3002 432.409 80.7782C431.084 79.3535 429.509 78.1795 427.793 77.2561C426.077 76.3331 424.221 75.6605 422.334 75.2393C420.869 74.9181 419.334 74.7675 417.799 74.7928C416.263 74.8177 414.728 75.0186 413.263 75.3997C412.741 75.5402 412.219 75.7309 411.708 75.9517C411.196 76.1724 410.694 76.4234 410.212 76.6843C400.339 82.1228 397.067 92.5689 397.444 103.592C397.82 114.615 401.844 126.215 406.56 133.962C407.744 135.888 409.049 137.815 410.439 139.697C411.828 141.578 413.303 143.414 414.828 145.16C415.27 145.702 415.721 146.244 416.183 146.776C416.645 147.308 417.116 147.83 417.598 148.331C418.642 149.435 420.318 150.629 421.742 151.964C423.167 153.298 424.341 154.773 424.381 156.439C424.401 157.101 424.231 157.764 423.955 158.506C423.679 159.248 423.297 160.071 422.896 161.055C422.354 162.299 421.792 164.497 420.979 166.513C420.167 168.53 419.103 170.367 417.558 170.888C416.574 171.21 415.38 170.547 414.256 169.659C413.132 168.771 412.079 167.657 411.376 167.076C402.586 159.891 394.699 151.08 388.894 141.156C383.089 131.232 379.366 120.194 378.905 108.554C378.684 102.955 378.764 96.8337 379.944 91.0538C381.123 85.2739 383.401 79.835 387.575 75.6005C389.14 74.0353 390.876 72.6903 392.738 71.5517C394.599 70.4127 396.586 69.4792 398.653 68.7369C401.041 67.8536 403.519 67.2117 406.018 66.7699C408.517 66.3285 411.035 66.0875 413.504 66.0073C418.481 65.8668 424.933 67.7435 430.347 71.7724C435.761 75.8014 440.136 81.9826 440.959 90.452Z" fill="url(#paint29_linear_332_4199)"/>
<path opacity="0.78" d="M483.024 172.213C481.9 179.037 478.378 185.038 473.356 189.332C468.333 193.627 461.811 196.216 454.686 196.216C446.739 196.216 439.544 192.995 434.336 187.782C429.128 182.569 425.907 175.364 425.907 167.397C425.907 160.152 428.576 153.539 432.987 148.492C437.397 143.445 443.548 139.963 450.512 138.979C451.676 141.107 454.194 142.602 456.929 143.821C459.663 145.04 462.614 145.984 464.641 147.007C467.55 148.612 470.129 150.82 472.217 153.424C474.304 156.028 475.899 159.028 476.842 162.219C477.184 163.403 477.455 164.637 477.801 165.837C478.147 167.036 478.568 168.2 479.21 169.243C479.652 169.946 480.214 170.588 480.861 171.105C481.508 171.621 482.241 172.013 483.024 172.213Z" fill="url(#paint30_linear_332_4199)"/>
<path d="M424.382 156.439C424.402 157.102 424.232 157.764 423.956 158.506C423.68 159.249 423.298 160.072 422.897 161.055C422.355 162.3 421.793 164.497 420.98 166.514C420.168 168.531 419.104 170.367 417.559 170.889C416.575 171.21 415.381 170.547 414.257 169.66C413.133 168.772 412.08 167.658 411.377 167.076C402.587 159.891 394.7 151.081 388.895 141.157C383.09 131.233 379.367 120.194 378.906 108.554C378.685 102.955 378.765 96.8342 379.945 91.0543C381.124 85.2743 383.402 79.8355 387.576 75.6009C389.141 74.0357 390.877 72.6908 392.739 71.5521C394.6 70.4131 396.587 69.4797 398.654 68.7373C396.928 70.122 395.382 71.7277 394.033 73.4888C392.683 75.2498 391.529 77.1662 390.586 79.1733C389.201 82.0633 388.208 85.1136 387.485 88.2398C386.763 91.3653 386.311 94.5663 386.01 97.7575C385.609 102.273 385.529 106.869 385.966 111.394C386.402 115.92 387.355 120.375 389.021 124.61C390.707 128.844 393.175 132.828 396.291 136.135C399.407 139.441 403.17 142.07 407.445 143.595C408.629 144.017 409.843 144.348 411.077 144.604C412.312 144.859 413.566 145.04 414.83 145.16C415.272 145.702 415.723 146.244 416.185 146.776C416.647 147.308 417.118 147.83 417.6 148.331C418.643 149.435 420.319 150.629 421.744 151.964C423.168 153.298 424.342 154.773 424.382 156.439Z" fill="url(#paint31_linear_332_4199)"/>
<path d="M476.722 175.104C476.722 176.508 476.631 177.893 476.451 179.253C476.27 180.612 475.999 181.947 475.638 183.252C473.852 190.015 469.878 195.885 464.52 200.065C459.161 204.244 452.418 206.733 445.093 206.733C436.362 206.733 428.455 203.19 422.731 197.466C417.006 191.741 413.464 183.834 413.464 175.104C413.464 170.909 414.277 166.906 415.762 163.238C417.247 159.57 419.404 156.239 422.094 153.389C424.963 150.319 428.445 147.83 432.344 146.109C436.242 144.388 440.557 143.435 445.093 143.435C453.823 143.435 461.73 146.977 467.455 152.707C473.18 158.436 476.722 166.353 476.722 175.104Z" fill="url(#paint32_linear_332_4199)"/>
<path d="M475.639 183.252C473.853 190.015 469.879 195.885 464.521 200.065C459.162 204.244 452.419 206.733 445.094 206.733C436.363 206.733 428.456 203.19 422.732 197.466C417.007 191.741 413.465 183.834 413.465 175.104C413.465 170.909 414.278 166.906 415.763 163.238C417.248 159.57 419.405 156.239 422.095 153.389C422.315 157.001 422.958 160.604 424.101 164.021C425.245 167.437 426.891 170.669 429.119 173.539C433.072 178.596 438.541 182.118 444.617 184.185C450.693 186.252 457.376 186.864 463.758 186.102C465.785 185.861 467.792 185.49 469.773 185.008C471.756 184.526 473.712 183.934 475.639 183.252Z" fill="url(#paint33_linear_332_4199)"/>
<path d="M449.591 145.966C452.026 146.497 454.413 147.271 456.71 148.269C459.008 149.266 461.217 150.487 463.296 151.915C464.839 152.976 466.322 154.161 467.657 155.496C468.991 156.831 470.178 158.314 471.128 159.97C471.867 161.256 472.488 162.78 472.96 164.351C473.432 165.923 473.755 167.541 473.898 169.015C473.96 169.653 473.986 170.306 473.932 170.945C473.879 171.585 473.746 172.213 473.492 172.802C473.237 173.391 472.838 173.934 472.343 174.342C471.848 174.75 471.256 175.022 470.616 175.07C469.269 175.171 468.458 174.696 467.93 173.929C467.401 173.162 467.154 172.102 466.935 171.034C466.43 168.567 465.182 166.192 463.557 164.081C461.931 161.971 459.929 160.124 457.914 158.712C455.764 157.206 453.431 156.049 451.02 155.062C448.609 154.075 446.119 153.258 443.655 152.432C443.076 152.238 442.484 152.034 441.934 151.762C441.384 151.49 440.875 151.149 440.463 150.682C438.433 148.384 440.164 147.084 442.679 146.42C445.193 145.755 448.49 145.725 449.591 145.966Z" fill="url(#paint34_linear_332_4199)"/>
<path d="M391.679 91.0201C390.277 96.3882 390.169 101.853 390.894 107.242C391.618 112.631 393.176 117.943 395.106 123.007C395.242 123.364 395.389 123.722 395.567 124.061C395.745 124.399 395.955 124.718 396.217 124.997C396.48 125.275 396.803 125.508 397.156 125.655C397.509 125.802 397.891 125.863 398.268 125.797C399.867 125.519 399.83 123.599 399.332 121.536C398.834 119.473 397.874 117.269 397.628 116.425C396.554 112.746 395.813 108.936 395.557 105.112C395.3 101.288 395.528 97.4499 396.392 93.7168C396.951 91.3026 397.792 88.9404 398.904 86.7166C400.016 84.4924 401.399 82.4062 403.043 80.5433C404.412 78.991 406.232 77.3044 408.231 75.91C410.23 74.5156 412.408 73.413 414.49 73.0294C415.134 72.9109 415.809 72.8007 416.434 72.5999C417.059 72.3994 417.634 72.1082 418.077 71.6274C418.257 71.4327 418.407 71.1845 418.478 70.9291C418.549 70.6734 418.54 70.41 418.401 70.1842C418.306 70.0296 418.165 69.9176 418.005 69.832C417.844 69.7464 417.664 69.6864 417.489 69.6366C414.737 68.8473 411.854 69.3841 409.137 70.5328C406.42 71.6812 403.867 73.4416 401.774 75.0997C399.147 77.1804 397.025 79.621 395.359 82.3108C393.693 85.001 392.483 87.9408 391.679 91.0201Z" fill="url(#paint35_linear_332_4199)"/>
<path d="M94.0436 329.395C94.0436 331 90.7823 332.466 85.5143 333.529C80.2463 334.593 72.9711 335.255 64.9432 335.255C56.8954 335.255 49.6106 334.593 44.3375 333.529C39.064 332.466 35.8027 331 35.8027 329.395C35.8027 327.79 39.064 326.324 44.3375 325.261C49.6106 324.197 56.8954 323.535 64.9432 323.535C72.9708 323.535 80.2459 324.197 85.5143 325.261C90.7823 326.324 94.0436 327.79 94.0436 329.395Z" fill="url(#paint36_linear_332_4199)"/>
<path d="M94.0439 329.395V360.522V391.649C94.0439 392.111 93.9135 392.573 93.6674 393.019C93.4218 393.465 93.0606 393.897 92.5989 394.298C90.7526 395.984 87.2102 397.439 82.5643 398.488C77.9183 399.536 72.1684 400.179 65.9069 400.239C65.9069 400.239 65.8968 400.239 65.882 400.239C65.8668 400.239 65.8466 400.239 65.8267 400.239H65.3853H64.9438C57.3176 400.239 50.3637 399.376 45.1657 397.961C39.9678 396.546 36.5258 394.579 35.924 392.372C35.8839 392.252 35.8536 392.131 35.8337 392.011C35.8135 391.89 35.8037 391.77 35.8037 391.649V360.522V329.395C35.8037 331 39.065 332.465 44.3385 333.529C49.6116 334.592 56.8964 335.255 64.9442 335.255C72.9718 335.255 80.2469 334.593 85.5153 333.529C90.7826 332.465 94.0439 331 94.0439 329.395Z" fill="url(#paint37_linear_332_4199)"/>
<path d="M35.9175 392.357L35.8572 392.337L35.7969 392.317V391.976V391.635C35.7969 391.755 35.807 391.876 35.8269 391.996C35.8475 392.116 35.8774 392.237 35.9175 392.357Z" fill="url(#paint38_linear_332_4199)"/>
<path d="M73.7285 269.305L75.6969 270.722L77.6654 272.138L77.9515 283.353L78.2372 294.569L76.5256 297.52L74.8141 300.471L74.2711 284.888L73.7285 269.305Z" fill="url(#paint39_linear_332_4199)"/>
<path d="M91.5468 329.394C91.5468 328.169 88.5669 327.059 83.7501 326.256C78.9329 325.453 72.2777 324.956 64.9267 324.956C57.5758 324.956 50.9206 325.453 46.1034 326.256C41.2858 327.059 38.3066 328.169 38.3066 329.394C38.3066 330.62 41.2862 331.729 46.1034 332.533C50.9202 333.335 57.5758 333.832 64.9267 333.832C72.2777 333.832 78.9325 333.335 83.7501 332.533C88.5669 331.73 91.5468 330.62 91.5468 329.394Z" fill="url(#paint40_linear_332_4199)"/>
<path d="M80.1556 333.048C76.9044 333.549 73.7536 333.74 71.4156 333.805C69.0777 333.87 67.5521 333.81 67.5521 333.81L64.0401 307.078L60.5281 280.346L59.7655 274.646L59.0029 268.947L60.1268 268.806L61.2506 268.666L67.3917 267.923L73.5329 267.18L74.1351 273.181L74.7373 279.182L77.2259 303.946L79.7145 328.712L79.9352 330.879L80.1556 333.048Z" fill="#EAE3EB"/>
<path d="M74.7367 279.182L69.1172 279.644L63.4977 280.105C63.2368 278.861 62.9858 277.607 62.73 276.352C62.4743 275.098 62.2134 273.844 61.9324 272.599C61.8121 271.997 61.7016 271.365 61.591 270.708C61.4808 270.051 61.3703 269.368 61.25 268.666L67.489 267.842L73.7277 267.018L74.2324 273.1L74.7367 279.182Z" fill="url(#paint41_linear_332_4199)"/>
<path d="M59.5651 333.73C59.5651 333.73 59.0131 333.73 58.0652 333.705C57.1166 333.68 55.772 333.629 54.1865 333.529C54.0059 333.509 53.8152 333.499 53.6197 333.489C53.424 333.479 53.2231 333.469 53.0226 333.449C52.3402 333.389 51.6278 333.318 50.8952 333.238C50.1626 333.158 49.4102 333.068 48.6476 332.967C48.4467 332.947 48.2462 332.917 48.0407 332.887C47.8348 332.857 47.6242 332.827 47.4035 332.807C46.5202 332.647 45.6373 332.486 44.7591 332.305C43.8813 332.125 43.0082 331.924 42.1452 331.683L35.723 309.126L29.3008 286.568C29.3008 286.588 29.3109 286.598 29.321 286.603C29.3311 286.608 29.3412 286.608 29.3412 286.608C29.8629 286.327 30.4351 286.036 31.0525 285.745C31.6695 285.454 32.3316 285.163 33.0342 284.882C33.877 287.17 34.7502 289.438 35.6583 291.691C36.5661 293.943 37.5093 296.181 38.493 298.409C39.1754 299.954 39.8679 301.49 40.5853 303.015C41.3028 304.54 42.0451 306.055 42.8279 307.56C45.0557 311.935 47.5039 316.22 50.2035 320.33C52.9027 324.438 55.8529 328.372 59.0839 332.045L59.3249 332.887L59.5651 333.73Z" fill="#2B096D"/>
<path d="M59.083 332.044C55.852 328.371 52.9017 324.438 50.2025 320.329C47.5033 316.22 45.0548 311.935 42.827 307.56C42.0441 306.055 41.3018 304.539 40.5844 303.014C39.8666 301.489 39.1744 299.954 38.492 298.408C37.5087 296.181 36.5655 293.943 35.6573 291.69C34.7492 289.437 33.876 287.169 33.0333 284.882C32.3306 285.163 31.6685 285.454 31.0515 285.745C30.4341 286.036 29.8623 286.327 29.3403 286.608C29.3403 286.608 29.3301 286.608 29.32 286.603C29.3099 286.598 29.2998 286.588 29.2998 286.568C29.2998 286.568 29.621 286.337 30.238 285.981C30.8553 285.624 31.7685 285.143 32.9523 284.641C33.1731 284.54 33.4039 284.44 33.6449 284.34C33.8858 284.239 34.1365 284.139 34.3973 284.039C34.5577 283.979 34.7286 283.919 34.9092 283.858C35.0898 283.798 35.2806 283.738 35.4811 283.678C36.1031 283.457 36.7754 283.256 37.4932 283.075C38.2103 282.895 38.9732 282.734 39.7759 282.594C39.9565 282.554 40.1371 282.514 40.3178 282.479C40.4984 282.443 40.679 282.413 40.8596 282.393C41.5619 282.293 42.3046 282.212 43.0726 282.158C43.8399 282.102 44.6328 282.072 45.4355 282.072V282.092V282.112L52.259 307.078L59.083 332.044Z" fill="url(#paint42_linear_332_4199)"/>
<path d="M45.5969 282.112C42.8673 282.233 40.4994 282.594 38.4273 283.091C36.3548 283.588 34.5789 284.22 33.0335 284.882C32.8327 284.36 32.6423 283.849 32.4566 283.337C32.271 282.825 32.0903 282.313 31.9097 281.791C31.5485 280.808 31.1572 279.815 30.7758 278.816C30.3943 277.818 30.0233 276.814 29.7021 275.81C30.4445 274.747 31.4983 273.794 32.6875 273.101C33.8763 272.409 35.201 271.977 36.4852 271.957C37.7297 271.937 38.9536 272.258 40.0626 272.83C41.1713 273.402 42.1647 274.225 42.9475 275.208C43.7303 276.172 44.3224 277.275 44.7537 278.449C45.1854 279.624 45.4564 280.868 45.5969 282.112Z" fill="url(#paint43_linear_332_4199)"/>
<path d="M92.5984 394.299C90.752 395.985 87.1512 397.492 82.4362 398.593C77.7216 399.695 71.8926 400.389 65.591 400.45H65.1496H64.7081C57.0819 400.45 50.1279 399.587 44.93 398.172C39.7321 396.757 36.2901 394.79 35.6883 392.583C35.6482 392.462 35.6179 392.342 35.598 392.221C35.5778 392.101 35.5684 391.981 35.5684 391.86L35.6854 362.274L35.8032 332.687C36.5257 335.677 37.6195 338.637 38.894 341.487C40.1684 344.337 41.6235 347.076 43.0685 349.625C46.2464 355.23 49.952 360.489 54.1121 365.363C58.2715 370.236 62.8846 374.725 67.8759 378.789C71.6462 381.859 75.6029 384.746 79.729 387.361C83.8548 389.975 88.1507 392.318 92.5984 394.299Z" fill="url(#paint44_linear_332_4199)"/>
<path d="M69.9937 343.382C70.0255 342.937 70.1205 342.434 70.2726 341.978C70.4246 341.523 70.6334 341.114 70.8921 340.858C71.1775 340.577 71.5756 340.46 71.9856 340.401C72.3949 340.342 72.8161 340.343 73.1466 340.297C76.008 339.9 78.8752 339.461 81.7186 338.826C84.5616 338.191 87.3815 337.362 90.1486 336.185C90.4481 336.058 90.78 336.009 91.0853 336.101C91.3913 336.194 91.6702 336.429 91.8645 336.871C91.9494 337.063 91.9945 337.282 92.0191 337.511C92.0437 337.74 92.0476 337.979 92.0494 338.211C92.0986 343.328 92.1647 347.436 92.1918 351.738C92.2189 356.04 92.2066 360.537 92.0989 366.434C92.0765 367.666 91.9425 368.824 91.6611 369.927C91.3797 371.031 90.9516 372.08 90.3404 373.096C89.8097 373.978 89.231 374.776 88.5992 375.451C87.967 376.125 87.2817 376.676 86.5376 377.065C85.3812 377.669 84.1675 378.15 82.9504 378.343C81.7334 378.536 80.5131 378.442 79.3445 377.897C77.2482 376.921 75.6522 374.696 74.4402 371.912C73.2279 369.128 72.3999 365.783 71.8396 362.564C71.3635 359.828 70.9647 357.061 70.6587 354.27C70.3524 351.48 70.1393 348.665 70.0345 345.834C70.0193 345.42 69.9948 345.004 69.981 344.594C69.968 344.183 69.9655 343.777 69.9937 343.382Z" fill="url(#paint45_linear_332_4199)"/>
<path d="M33.0333 284.882C32.3307 285.163 31.6685 285.454 31.0515 285.745C30.4342 286.036 29.8623 286.327 29.3403 286.608C29.3403 286.608 29.3302 286.608 29.3201 286.603C29.31 286.598 29.2999 286.588 29.2999 286.568C29.2395 286.467 29.1492 286.206 29.0643 285.951C28.9787 285.695 28.8985 285.444 28.8584 285.363C28.5575 284.521 28.3465 283.587 28.2414 282.629C28.1359 281.671 28.1359 280.687 28.2562 279.744C28.3566 279.082 28.5069 278.429 28.7179 277.807C28.9285 277.185 29.1994 276.593 29.5408 276.051C29.561 276.011 29.591 275.971 29.621 275.931C29.651 275.891 29.6813 275.851 29.7012 275.811C30.0223 276.814 30.3937 277.818 30.7748 278.816C31.1559 279.814 31.5475 280.808 31.9088 281.791C32.0692 282.273 32.24 282.745 32.4156 283.216C32.5912 283.688 32.7718 284.159 32.9524 284.641C32.9524 284.681 32.9625 284.721 32.9777 284.761C32.9932 284.802 33.0131 284.842 33.0333 284.882Z" fill="url(#paint46_linear_332_4199)"/>
<path d="M63.4983 280.105L62.0132 280.226L60.5281 280.346L59.7655 274.646L59.0029 268.947L60.1268 268.806L61.2506 268.666C61.3709 269.368 61.4814 270.05 61.5916 270.708C61.7022 271.365 61.8123 271.997 61.933 272.599C62.214 273.843 62.4748 275.097 62.7306 276.352C62.9867 277.607 63.2374 278.861 63.4983 280.105Z" fill="#820051"/>
<path d="M73.3727 333.73C71.6669 333.81 70.2118 333.83 69.1834 333.83C68.1545 333.83 67.5524 333.81 67.5524 333.81L64.0403 307.078L60.5283 280.346L62.0134 280.226L63.4985 280.106C63.7145 280.106 64.3543 283.209 64.9713 286.469C65.5883 289.729 66.1825 293.145 66.3082 293.772C66.784 296.145 67.2503 298.521 67.7012 300.899C68.1517 303.277 68.5866 305.659 68.9999 308.044C69.7411 312.323 70.4625 316.605 71.1843 320.887C71.9061 325.169 72.6286 329.451 73.3727 333.73Z" fill="url(#paint47_linear_332_4199)"/>
<path d="M284.818 368.397H257.568H230.319C230.319 366.282 233.366 364.377 238.295 363.003C243.225 361.627 250.037 360.781 257.568 360.781C265.1 360.781 271.912 361.627 276.841 363.003C281.771 364.377 284.818 366.282 284.818 368.397Z" fill="url(#paint48_linear_332_4199)"/>
<path d="M278.739 366.857H256.851H234.963V363.737V360.617H256.851H278.739V363.737V366.857ZM235.531 366.285H256.851H278.171V363.737V361.189H256.851H235.531V363.737V366.285Z" fill="#727272"/>
<path d="M376.49 397.382H256.851H137.213V401.691V406H256.851H376.49V401.691V397.382Z" fill="url(#paint49_linear_332_4199)"/>
<path d="M376.497 397.389H256.865H137.232L142.671 381.976L148.11 366.562H255.961H363.813L370.155 381.976L376.497 397.389Z" fill="white"/>
<path d="M361.766 391.007L303.686 394.198L245.606 397.389H191.419H137.232L142.671 381.976L148.11 366.562H156.96H165.811L162.359 372.664L158.907 378.765L260.336 384.886L361.766 391.007Z" fill="url(#paint50_linear_332_4199)"/>
<path d="M361.75 384.273H256.851H151.951V387.64V391.007H256.851H361.75V387.64V384.273Z" fill="url(#paint51_linear_332_4199)"/>
<path d="M361.766 384.264H256.864H151.963L153.027 380.852L154.09 377.44L154.271 376.878L154.452 376.316L155.615 372.584L156.779 368.851L156.96 368.289L157.141 367.727L158.325 363.954L159.509 360.181H256.222H352.935L354.32 363.954L355.705 367.727L355.906 368.289L356.106 368.851L357.471 372.584L358.836 376.316L359.056 376.878L359.277 377.44L360.521 380.852L361.766 384.264Z" fill="white"/>
<path d="M359.277 377.44L359.056 376.878L358.835 376.316H350.928H343.021L342.158 372.583L341.295 368.851H348.7H356.106L355.905 368.288L355.704 367.727H348.359H341.014L340.131 363.953L339.248 360.181H338.666H338.084L338.967 363.953L339.85 367.727H332.023H324.196L323.514 363.953L322.831 360.181H322.249H321.667L322.35 363.953L323.032 367.727H315.707H308.382L307.76 363.953L307.137 360.181H306.596H306.054L306.636 363.953L307.218 367.727H299.732H292.246L291.825 363.953L291.403 360.181H290.841H290.279L290.68 363.953L291.082 367.727H284.198H277.314L277.154 363.953L276.993 360.181H276.411H275.829L276.01 363.953L276.19 367.727H268.223H260.255V363.953V360.181H259.693H259.131V363.953V367.727H251.184H243.237L243.437 363.953L243.638 360.181H243.076H242.514L242.313 363.953L242.113 367.727H234.386H226.659L227.141 363.953L227.623 360.181H227.02H226.418L225.977 363.953L225.535 367.727H217.127H208.718L209.4 363.953L210.083 360.181H209.501H208.919L208.236 363.953L207.554 367.727H199.346H191.138L191.9 363.953L192.663 360.181H192.081H191.499L190.736 363.953L189.974 367.727H181.203H172.433L173.416 363.953L174.4 360.181H173.818H173.236L172.252 363.953L171.269 367.727H164.205H157.14L156.96 368.288L156.779 368.851H163.863H170.948L169.984 372.583L169.021 376.316H161.736H154.451L154.27 376.878L154.09 377.44H161.415H168.74L167.837 380.852L166.934 384.263H167.536H168.139L169.022 380.852L169.905 377.44H178.956H188.007L187.325 380.852L186.642 384.263H187.224H187.806L188.489 380.852L189.171 377.44H197.5H205.828L205.226 380.852L204.624 384.263H205.186H205.748L206.37 380.852L206.992 377.44H215.662H224.332L223.91 380.852L223.489 384.263H224.071H224.653L225.054 380.852L225.455 377.44H233.523H241.591L241.43 380.852L241.27 384.263H241.832H242.393L242.574 380.852L242.755 377.44H250.943H259.131V380.852V384.263H259.693H260.255V380.852V377.44H268.444H276.632L276.793 380.852L276.953 384.263H277.515H278.077L277.936 380.852L277.796 377.44H284.981H292.165L292.547 380.852L292.928 384.263H293.49H294.052L293.691 380.852L293.329 377.44H301.056H308.783L309.324 380.852L309.866 384.263H310.448H311.03L310.488 380.852L309.946 377.44H317.372H324.798L325.42 380.852L326.042 384.263H326.624H327.206L326.584 380.852L325.962 377.44H334.05H342.138L342.94 380.852L343.743 384.263H344.325H344.907L344.104 380.852L343.302 377.44H351.289H359.277ZM188.248 376.316H179.217H170.185L171.169 372.584L172.152 368.851H180.962H189.773L189.01 372.584L188.248 376.316ZM206.029 376.316H197.72H189.412L190.174 372.584L190.937 368.851H199.145H207.353L206.691 372.584L206.029 376.316ZM224.452 376.316H215.823H207.193L207.855 372.584L208.517 368.851H216.946H225.375L224.913 372.584L224.452 376.316ZM241.671 376.316H233.644H225.616L226.078 372.584L226.54 368.851H234.306H242.073L241.872 372.584L241.671 376.316ZM259.132 376.316H250.964H242.796L242.996 372.584L243.197 368.851H251.164H259.132V372.584L259.132 376.316ZM260.256 376.316V372.584V368.851H268.243H276.23L276.411 372.584L276.592 376.316H268.424H260.256ZM277.716 376.316L277.555 372.584L277.394 368.851H284.318H291.242L291.644 372.584L292.045 376.316H284.88H277.716ZM293.209 376.316L292.787 372.584L292.366 368.851H299.892H307.417L308.02 372.584L308.622 376.316H300.915H293.209ZM309.746 376.316L309.164 372.584L308.582 368.851H315.907H323.233L323.915 372.584L324.597 376.316H317.172H309.746ZM325.761 376.316L325.079 372.584L324.396 368.851H332.263H340.131L340.994 372.584L341.857 376.316H333.809H325.761Z" fill="url(#paint52_linear_332_4199)"/>
<defs>
<linearGradient id="paint0_linear_332_4199" x1="456.651" y1="344.109" x2="348.278" y2="447.169" gradientUnits="userSpaceOnUse">
<stop offset="0.1213" stop-color="white"/>
<stop offset="0.9989" stop-color="#CA6EDF"/>
</linearGradient>
<linearGradient id="paint1_linear_332_4199" x1="404.536" y1="364.67" x2="424.409" y2="364.67" gradientUnits="userSpaceOnUse">
<stop offset="0.1126" stop-color="#CA6EDF"/>
<stop offset="0.9989" stop-color="#E8AFDC"/>
</linearGradient>
<linearGradient id="paint2_linear_332_4199" x1="394.946" y1="389.623" x2="431.07" y2="374.394" gradientUnits="userSpaceOnUse">
<stop offset="0.00031174" stop-color="#8A4DE2"/>
<stop offset="1" stop-color="#FFC2F4"/>
</linearGradient>
<linearGradient id="paint3_linear_332_4199" x1="406.345" y1="118.591" x2="446.011" y2="85.2115" gradientUnits="userSpaceOnUse">
<stop offset="0.117" stop-color="#F78D50"/>
<stop offset="0.2383" stop-color="#EF8251"/>
<stop offset="0.4498" stop-color="#D96653"/>
<stop offset="0.7245" stop-color="#B63756"/>
<stop offset="0.9258" stop-color="#991159"/>
</linearGradient>
<linearGradient id="paint4_linear_332_4199" x1="445.497" y1="81.6736" x2="436.023" y2="113.105" gradientUnits="userSpaceOnUse">
<stop stop-color="#FEC045"/>
<stop offset="1" stop-color="#F47555"/>
</linearGradient>
<linearGradient id="paint5_linear_332_4199" x1="440.605" y1="150.873" x2="468.053" y2="115.103" gradientUnits="userSpaceOnUse">
<stop offset="0.4328" stop-color="#CA6EDF"/>
<stop offset="1" stop-color="#F4D3F0"/>
</linearGradient>
<linearGradient id="paint6_linear_332_4199" x1="471.072" y1="115.844" x2="424.854" y2="163.656" gradientUnits="userSpaceOnUse">
<stop stop-color="#ED83E8"/>
<stop offset="0.4625" stop-color="#5B2CC4"/>
</linearGradient>
<linearGradient id="paint7_linear_332_4199" x1="275.609" y1="325.501" x2="233.346" y2="357.848" gradientUnits="userSpaceOnUse">
<stop stop-color="#ED83E8"/>
<stop offset="0.9942" stop-color="#5B2CC4"/>
</linearGradient>
<linearGradient id="paint8_linear_332_4199" x1="253.664" y1="330.138" x2="261.279" y2="330.138" gradientUnits="userSpaceOnUse">
<stop stop-color="#2F167F"/>
<stop offset="0.9942" stop-color="#5B2CC4"/>
</linearGradient>
<linearGradient id="paint9_linear_332_4199" x1="467.997" y1="-27.0269" x2="158.216" y2="312.976" gradientUnits="userSpaceOnUse">
<stop stop-color="#ED83E8"/>
<stop offset="0.9942" stop-color="#5B2CC4"/>
</linearGradient>
<linearGradient id="paint10_linear_332_4199" x1="412.189" y1="116.135" x2="15.5274" y2="316.591" gradientUnits="userSpaceOnUse">
<stop offset="0.0094" stop-color="#ED83E8"/>
<stop offset="0.6016" stop-color="#954FD2"/>
<stop offset="0.9942" stop-color="#5B2CC4"/>
</linearGradient>
<linearGradient id="paint11_linear_332_4199" x1="223.208" y1="226.007" x2="417.996" y2="43.2601" gradientUnits="userSpaceOnUse">
<stop stop-color="#2F167F"/>
<stop offset="0.9942" stop-color="#5B2CC4"/>
</linearGradient>
<linearGradient id="paint12_linear_332_4199" x1="439.153" y1="91.4869" x2="160.055" y2="452.756" gradientUnits="userSpaceOnUse">
<stop stop-color="#ED83E8"/>
<stop offset="0.9942" stop-color="#5B2CC4"/>
</linearGradient>
<linearGradient id="paint13_linear_332_4199" x1="249.461" y1="221.593" x2="365.153" y2="124.789" gradientUnits="userSpaceOnUse">
<stop offset="0.00031174" stop-color="#8A4DE2"/>
<stop offset="0.6429" stop-color="#FFC2F4"/>
</linearGradient>
<linearGradient id="paint14_linear_332_4199" x1="315.873" y1="154.368" x2="331.132" y2="154.368" gradientUnits="userSpaceOnUse">
<stop offset="0.00095345" stop-color="#FEC045"/>
<stop offset="1" stop-color="#F47555"/>
</linearGradient>
<linearGradient id="paint15_linear_332_4199" x1="310.936" y1="163.736" x2="376.353" y2="163.736" gradientUnits="userSpaceOnUse">
<stop stop-color="#D67FD2"/>
<stop offset="0.228" stop-color="#8148C9"/>
<stop offset="0.9025" stop-color="#2F0D8E"/>
</linearGradient>
<linearGradient id="paint16_linear_332_4199" x1="319.79" y1="191.841" x2="385.207" y2="191.841" gradientUnits="userSpaceOnUse">
<stop offset="0.00095345" stop-color="#FEC045"/>
<stop offset="1" stop-color="#F47555"/>
</linearGradient>
<linearGradient id="paint17_linear_332_4199" x1="59.1115" y1="191.193" x2="206.443" y2="127.444" gradientUnits="userSpaceOnUse">
<stop offset="0.00031174" stop-color="#8A4DE2"/>
<stop offset="1" stop-color="#FFC2F4"/>
</linearGradient>
<linearGradient id="paint18_linear_332_4199" x1="125.462" y1="153.277" x2="149.966" y2="153.277" gradientUnits="userSpaceOnUse">
<stop offset="0.00095345" stop-color="#FEC045"/>
<stop offset="1" stop-color="#F47555"/>
</linearGradient>
<linearGradient id="paint19_linear_332_4199" x1="131.754" y1="162.646" x2="236.806" y2="162.646" gradientUnits="userSpaceOnUse">
<stop stop-color="#D67FD2"/>
<stop offset="0.228" stop-color="#8148C9"/>
<stop offset="0.9025" stop-color="#2F0D8E"/>
</linearGradient>
<linearGradient id="paint20_linear_332_4199" x1="125.462" y1="181.382" x2="161.036" y2="181.382" gradientUnits="userSpaceOnUse">
<stop stop-color="#FF915A"/>
<stop offset="0.5053" stop-color="#E53E53"/>
<stop offset="1" stop-color="#991159"/>
</linearGradient>
<linearGradient id="paint21_linear_332_4199" x1="131.754" y1="190.75" x2="236.806" y2="190.75" gradientUnits="userSpaceOnUse">
<stop offset="0.00095345" stop-color="#FEC045"/>
<stop offset="1" stop-color="#F47555"/>
</linearGradient>
<linearGradient id="paint22_linear_332_4199" x1="125.462" y1="209.709" x2="149.966" y2="209.709" gradientUnits="userSpaceOnUse">
<stop offset="0.00095345" stop-color="#FEC045"/>
<stop offset="1" stop-color="#F47555"/>
</linearGradient>
<linearGradient id="paint23_linear_332_4199" x1="131.753" y1="219.077" x2="236.805" y2="219.077" gradientUnits="userSpaceOnUse">
<stop stop-color="#D67FD2"/>
<stop offset="0.228" stop-color="#8148C9"/>
<stop offset="0.9025" stop-color="#2F0D8E"/>
</linearGradient>
<linearGradient id="paint24_linear_332_4199" x1="131.753" y1="247.182" x2="236.805" y2="247.182" gradientUnits="userSpaceOnUse">
<stop offset="0.00031174" stop-color="#8A4DE2"/>
<stop offset="1" stop-color="#FFC2F4"/>
</linearGradient>
<linearGradient id="paint25_linear_332_4199" x1="79.1923" y1="108.494" x2="434.496" y2="108.494" gradientUnits="userSpaceOnUse">
<stop stop-color="#2F167F"/>
<stop offset="0.9942" stop-color="#5B2CC4"/>
</linearGradient>
<linearGradient id="paint26_linear_332_4199" x1="193.621" y1="200.754" x2="320.998" y2="23.534" gradientUnits="userSpaceOnUse">
<stop offset="0.118" stop-color="#AC5CD8"/>
<stop offset="0.552" stop-color="#DF89F4"/>
</linearGradient>
<linearGradient id="paint27_linear_332_4199" x1="402.175" y1="85.098" x2="345.982" y2="145.541" gradientUnits="userSpaceOnUse">
<stop stop-color="#ED83E8"/>
<stop offset="0.9942" stop-color="#5B2CC4"/>
</linearGradient>
<linearGradient id="paint28_linear_332_4199" x1="405.334" y1="80.6846" x2="436.422" y2="80.6846" gradientUnits="userSpaceOnUse">
<stop stop-color="#F78D50"/>
<stop offset="1" stop-color="#991159"/>
</linearGradient>
<linearGradient id="paint29_linear_332_4199" x1="457.9" y1="68.553" x2="361.922" y2="163.822" gradientUnits="userSpaceOnUse">
<stop offset="0.00095345" stop-color="#FEC045"/>
<stop offset="1" stop-color="#F47555"/>
</linearGradient>
<linearGradient id="paint30_linear_332_4199" x1="425.907" y1="167.598" x2="483.023" y2="167.598" gradientUnits="userSpaceOnUse">
<stop offset="0.1126" stop-color="#CA6EDF"/>
<stop offset="0.9989" stop-color="#E8AFDC"/>
</linearGradient>
<linearGradient id="paint31_linear_332_4199" x1="378.808" y1="119.854" x2="424.384" y2="119.854" gradientUnits="userSpaceOnUse">
<stop offset="0.4242" stop-color="#F37753"/>
<stop offset="0.999" stop-color="#D85335"/>
</linearGradient>
<linearGradient id="paint32_linear_332_4199" x1="478.84" y1="140.293" x2="411.077" y2="210.181" gradientUnits="userSpaceOnUse">
<stop offset="0.00095345" stop-color="#FEC045"/>
<stop offset="1" stop-color="#F47555"/>
</linearGradient>
<linearGradient id="paint33_linear_332_4199" x1="413.465" y1="180.061" x2="475.639" y2="180.061" gradientUnits="userSpaceOnUse">
<stop offset="0.4242" stop-color="#F37753"/>
<stop offset="0.999" stop-color="#D85335"/>
</linearGradient>
<linearGradient id="paint34_linear_332_4199" x1="445.504" y1="188.561" x2="462.948" y2="144.455" gradientUnits="userSpaceOnUse">
<stop offset="0.0052" stop-color="#FAA24B"/>
<stop offset="0.8263" stop-color="#FFDFC0"/>
</linearGradient>
<linearGradient id="paint35_linear_332_4199" x1="364.71" y1="132.145" x2="426.78" y2="76.6666" gradientUnits="userSpaceOnUse">
<stop offset="0.0052" stop-color="#FAA24B"/>
<stop offset="0.8263" stop-color="#FFD8AE"/>
</linearGradient>
<linearGradient id="paint36_linear_332_4199" x1="111.62" y1="312.249" x2="-81.2805" y2="383.081" gradientUnits="userSpaceOnUse">
<stop offset="0.1445" stop-color="white"/>
<stop offset="0.5108" stop-color="#C39DEE"/>
</linearGradient>
<linearGradient id="paint37_linear_332_4199" x1="21.4782" y1="401.216" x2="201.864" y2="234.996" gradientUnits="userSpaceOnUse">
<stop offset="0.1452" stop-color="#A17FF4"/>
<stop offset="0.3826" stop-color="#F4CEF3"/>
</linearGradient>
<linearGradient id="paint38_linear_332_4199" x1="35.7972" y1="391.996" x2="35.9176" y2="391.996" gradientUnits="userSpaceOnUse">
<stop offset="0.2065" stop-color="#A17FF4"/>
<stop offset="0.6058" stop-color="#EAC1E7"/>
</linearGradient>
<linearGradient id="paint39_linear_332_4199" x1="82.0187" y1="262.691" x2="72.6335" y2="292.617" gradientUnits="userSpaceOnUse">
<stop stop-color="#FF915A"/>
<stop offset="0.5053" stop-color="#E53E53"/>
<stop offset="1" stop-color="#991159"/>
</linearGradient>
<linearGradient id="paint40_linear_332_4199" x1="46.7349" y1="329.227" x2="123.588" y2="329.935" gradientUnits="userSpaceOnUse">
<stop stop-color="#D67FD2"/>
<stop offset="0.228" stop-color="#8148C9"/>
<stop offset="0.9025" stop-color="#2F0D8E"/>
</linearGradient>
<linearGradient id="paint41_linear_332_4199" x1="81.3931" y1="244.59" x2="63.9214" y2="282.839" gradientUnits="userSpaceOnUse">
<stop stop-color="#FF915A"/>
<stop offset="0.5053" stop-color="#E53E53"/>
<stop offset="1" stop-color="#991159"/>
</linearGradient>
<linearGradient id="paint42_linear_332_4199" x1="29.3004" y1="307.058" x2="59.083" y2="307.058" gradientUnits="userSpaceOnUse">
<stop stop-color="#2F167F"/>
<stop offset="0.9942" stop-color="#5B2CC4"/>
</linearGradient>
<linearGradient id="paint43_linear_332_4199" x1="47.8198" y1="265.502" x2="25.1535" y2="295.488" gradientUnits="userSpaceOnUse">
<stop offset="0.00095345" stop-color="#FEC045"/>
<stop offset="1" stop-color="#F47555"/>
</linearGradient>
<linearGradient id="paint44_linear_332_4199" x1="-8.89522" y1="446.242" x2="117.108" y2="303.597" gradientUnits="userSpaceOnUse">
<stop offset="0.0053" stop-color="#260082"/>
<stop offset="0.5821" stop-color="#B38FF1"/>
</linearGradient>
<linearGradient id="paint45_linear_332_4199" x1="116.88" y1="295.658" x2="12.8698" y2="471.377" gradientUnits="userSpaceOnUse">
<stop offset="0.2619" stop-color="#F9E6FF"/>
<stop offset="0.4834" stop-color="#BB98F4"/>
</linearGradient>
<linearGradient id="paint46_linear_332_4199" x1="36.2487" y1="271.135" x2="19.0126" y2="303.482" gradientUnits="userSpaceOnUse">
<stop offset="0.4242" stop-color="#F37753"/>
<stop offset="0.999" stop-color="#D85335"/>
</linearGradient>
<linearGradient id="paint47_linear_332_4199" x1="25.6061" y1="364.561" x2="85.3489" y2="281.44" gradientUnits="userSpaceOnUse">
<stop offset="0.00031174" stop-color="#8A4DE2"/>
<stop offset="1" stop-color="#FFC2F4"/>
</linearGradient>
<linearGradient id="paint48_linear_332_4199" x1="302.892" y1="340.236" x2="226.896" y2="386.032" gradientUnits="userSpaceOnUse">
<stop stop-color="#ED83E8"/>
<stop offset="0.9942" stop-color="#5B2CC4"/>
</linearGradient>
<linearGradient id="paint49_linear_332_4199" x1="67.1787" y1="499.263" x2="361.841" y2="347.683" gradientUnits="userSpaceOnUse">
<stop offset="0.00031174" stop-color="#8A4DE2"/>
<stop offset="1" stop-color="#FFC2F4"/>
</linearGradient>
<linearGradient id="paint50_linear_332_4199" x1="278.302" y1="371.237" x2="26.1391" y2="452.694" gradientUnits="userSpaceOnUse">
<stop stop-color="white"/>
<stop offset="0.9989" stop-color="#CA6EDF"/>
</linearGradient>
<linearGradient id="paint51_linear_332_4199" x1="156.338" y1="440.134" x2="331.293" y2="348.761" gradientUnits="userSpaceOnUse">
<stop stop-color="#8A4DE2"/>
<stop offset="1" stop-color="#FFC2F4"/>
</linearGradient>
<linearGradient id="paint52_linear_332_4199" x1="154.09" y1="372.222" x2="359.277" y2="372.222" gradientUnits="userSpaceOnUse">
<stop offset="0.1126" stop-color="#CA6EDF"/>
<stop offset="0.9989" stop-color="#E8AFDC"/>
</linearGradient>
</defs>
</svg>
