<svg width="58" height="58" viewBox="0 0 58 58" fill="none" xmlns="http://www.w3.org/2000/svg">
<circle cx="34" cy="34" r="24" fill="#B4DBFF"/>
<g clip-path="url(#clip0_147_1858)">
<path d="M4.45312 24.8438H26.9531C27.1396 24.8438 27.3184 24.7697 27.4503 24.6378C27.5822 24.5059 27.6562 24.3271 27.6562 24.1406C27.6562 23.9541 27.5822 23.7753 27.4503 23.6434C27.3184 23.5116 27.1396 23.4375 26.9531 23.4375H24.8438V9.14062C24.8438 8.95414 24.7697 8.7753 24.6378 8.64344C24.5059 8.51158 24.3271 8.4375 24.1406 8.4375H21.3281C21.1416 8.4375 20.9628 8.51158 20.8309 8.64344C20.6991 8.7753 20.625 8.95414 20.625 9.14062V23.4375H17.8125V4.45312C17.8125 4.26664 17.7384 4.0878 17.6066 3.95594C17.4747 3.82408 17.2959 3.75 17.1094 3.75H14.2969C14.1104 3.75 13.9316 3.82408 13.7997 3.95594C13.6678 4.0878 13.5938 4.26664 13.5938 4.45312V23.4375H10.7812V14.7656C10.7812 14.5791 10.7072 14.4003 10.5753 14.2684C10.4434 14.1366 10.2646 14.0625 10.0781 14.0625H7.26562C7.07914 14.0625 6.9003 14.1366 6.76844 14.2684C6.63658 14.4003 6.5625 14.5791 6.5625 14.7656V23.4375H4.45312C4.26664 23.4375 4.0878 23.5116 3.95594 23.6434C3.82408 23.7753 3.75 23.9541 3.75 24.1406C3.75 24.3271 3.82408 24.5059 3.95594 24.6378C4.0878 24.7697 4.26664 24.8438 4.45312 24.8438ZM22.0312 9.84375H23.4375V23.4375H22.0312V9.84375ZM15 5.15625H16.4062V23.4375H15V5.15625ZM7.96875 15.4688H9.375V23.4375H7.96875V15.4688Z" fill="#0487FF"/>
<path d="M25.875 32.3438C26.0615 32.3438 26.2403 32.2697 26.3722 32.1378C26.504 32.0059 26.5781 31.8271 26.5781 31.6406V27.8906C26.5781 27.7041 26.504 27.5253 26.3722 27.3934C26.2403 27.2616 26.0615 27.1875 25.875 27.1875H22.125C21.9385 27.1875 21.7597 27.2616 21.6278 27.3934C21.4959 27.5253 21.4219 27.7041 21.4219 27.8906C21.4219 28.0771 21.4959 28.2559 21.6278 28.3878C21.7597 28.5197 21.9385 28.5938 22.125 28.5938H24.1772L13.9509 38.82L10.6697 33.6637C10.6121 33.5731 10.5345 33.4969 10.4428 33.441C10.3511 33.385 10.2479 33.3508 10.1409 33.3411C10.034 33.3313 9.92626 33.3462 9.82598 33.3846C9.72569 33.4229 9.63555 33.4838 9.56248 33.5625L5.0156 38.5228C4.88954 38.6603 4.82326 38.8423 4.83135 39.0286C4.83944 39.215 4.92123 39.3905 5.05873 39.5166C5.19622 39.6426 5.37817 39.7089 5.56453 39.7008C5.7509 39.6927 5.92641 39.6109 6.05248 39.4734L9.97966 35.1881L13.2347 40.3125C13.291 40.4015 13.3667 40.4766 13.4561 40.5324C13.5455 40.5882 13.6463 40.6231 13.751 40.6346C13.8557 40.6461 13.9616 40.634 14.061 40.599C14.1604 40.564 14.2506 40.5071 14.325 40.4325L25.1719 29.5884V31.6406C25.1719 31.8271 25.2459 32.0059 25.3778 32.1378C25.5097 32.2697 25.6885 32.3438 25.875 32.3438Z" fill="#0487FF"/>
<path d="M38.8594 27.375C40.111 27.375 41.3344 27.0039 42.3751 26.3085C43.4157 25.6132 44.2268 24.6249 44.7058 23.4685C45.1848 22.3122 45.3101 21.0399 45.0659 19.8123C44.8217 18.5848 44.219 17.4572 43.334 16.5722C42.449 15.6872 41.3215 15.0845 40.0939 14.8403C38.8664 14.5962 37.594 14.7215 36.4377 15.2005C35.2814 15.6794 34.2931 16.4905 33.5977 17.5312C32.9024 18.5718 32.5312 19.7953 32.5312 21.0469C32.5332 22.7246 33.2006 24.333 34.3869 25.5193C35.5732 26.7057 37.1817 27.373 38.8594 27.375ZM38.8594 16.125C39.8328 16.125 40.7844 16.4137 41.5938 16.9545C42.4032 17.4953 43.0341 18.264 43.4066 19.1634C43.7791 20.0627 43.8766 21.0523 43.6867 22.0071C43.4968 22.9618 43.028 23.8388 42.3397 24.5272C41.6513 25.2155 40.7743 25.6843 39.8196 25.8742C38.8648 26.0641 37.8752 25.9666 36.9759 25.5941C36.0765 25.2216 35.3078 24.5907 34.767 23.7813C34.2262 22.9719 33.9375 22.0203 33.9375 21.0469C33.939 19.742 34.458 18.4909 35.3807 17.5682C36.3034 16.6455 37.5545 16.1265 38.8594 16.125Z" fill="#0487FF"/>
<path d="M26.9531 42.8438H9.14062C8.95414 42.8438 8.7753 42.9178 8.64344 43.0497C8.51158 43.1816 8.4375 43.3604 8.4375 43.5469C8.4375 43.7334 8.51158 43.9122 8.64344 44.0441C8.7753 44.1759 8.95414 44.25 9.14062 44.25H26.9531C27.1396 44.25 27.3184 44.1759 27.4503 44.0441C27.5822 43.9122 27.6562 43.7334 27.6562 43.5469C27.6562 43.3604 27.5822 43.1816 27.4503 43.0497C27.3184 42.9178 27.1396 42.8438 26.9531 42.8438Z" fill="#0487FF"/>
<path d="M6.32812 42.8438H4.45312C4.26664 42.8438 4.0878 42.9178 3.95594 43.0497C3.82408 43.1816 3.75 43.3604 3.75 43.5469C3.75 43.7334 3.82408 43.9122 3.95594 44.0441C4.0878 44.1759 4.26664 44.25 4.45312 44.25H6.32812C6.51461 44.25 6.69345 44.1759 6.82531 44.0441C6.95717 43.9122 7.03125 43.7334 7.03125 43.5469C7.03125 43.3604 6.95717 43.1816 6.82531 43.0497C6.69345 42.9178 6.51461 42.8438 6.32812 42.8438Z" fill="#0487FF"/>
<path d="M26.9531 40.0312H18.5156C18.3291 40.0312 18.1503 40.1053 18.0184 40.2372C17.8866 40.3691 17.8125 40.5479 17.8125 40.7344C17.8125 40.9209 17.8866 41.0997 18.0184 41.2316C18.1503 41.3634 18.3291 41.4375 18.5156 41.4375H26.9531C27.1396 41.4375 27.3184 41.3634 27.4503 41.2316C27.5822 41.0997 27.6562 40.9209 27.6562 40.7344C27.6562 40.5479 27.5822 40.3691 27.4503 40.2372C27.3184 40.1053 27.1396 40.0312 26.9531 40.0312Z" fill="#0487FF"/>
<path d="M26.9531 37.2188H22.2656C22.0791 37.2188 21.9003 37.2928 21.7684 37.4247C21.6366 37.5566 21.5625 37.7354 21.5625 37.9219C21.5625 38.1084 21.6366 38.2872 21.7684 38.4191C21.9003 38.5509 22.0791 38.625 22.2656 38.625H26.9531C27.1396 38.625 27.3184 38.5509 27.4503 38.4191C27.5822 38.2872 27.6562 38.1084 27.6562 37.9219C27.6562 37.7354 27.5822 37.5566 27.4503 37.4247C27.3184 37.2928 27.1396 37.2188 26.9531 37.2188Z" fill="#0487FF"/>
<path d="M47.2969 31.5938H35.1562V29.4028C36.5478 30.0199 38.0715 30.2797 39.589 30.1585C41.1064 30.0374 42.5696 29.5392 43.8456 28.7091C45.1217 27.8791 46.1703 26.7435 46.8961 25.4054C47.622 24.0673 48.0022 22.5691 48.0022 21.0469C48.0022 19.5246 47.622 18.0264 46.8961 16.6884C46.1703 15.3503 45.1217 14.2147 43.8456 13.3846C42.5696 12.5546 41.1064 12.0564 39.589 11.9352C38.0715 11.8141 36.5478 12.0739 35.1562 12.6909V8.20312C35.1563 8.1108 35.1381 8.01937 35.1027 7.93409C35.0673 7.84882 35.0154 7.77139 34.95 7.70625L27.45 0.20625C27.3849 0.140815 27.3074 0.0889062 27.2222 0.0535097C27.1369 0.0181132 27.0455 -7.20904e-05 26.9531 2.1477e-07H0.703125C0.516645 2.1477e-07 0.337802 0.0740792 0.205941 0.205941C0.074079 0.337802 0 0.516645 0 0.703125L0 47.2969C0 47.4834 0.074079 47.6622 0.205941 47.7941C0.337802 47.9259 0.516645 48 0.703125 48H47.2969C47.4834 48 47.6622 47.9259 47.7941 47.7941C47.9259 47.6622 48 47.4834 48 47.2969V32.2969C48 32.1104 47.9259 31.9316 47.7941 31.7997C47.6622 31.6678 47.4834 31.5938 47.2969 31.5938ZM46.5938 35.3438H31.125V33H46.5938V35.3438ZM31.125 40.5H46.5938V42.8438H31.125V40.5ZM31.125 39.0938V36.75H46.5938V39.0938H31.125ZM46.5938 21.0469C46.5938 22.5766 46.1401 24.072 45.2903 25.3439C44.4404 26.6158 43.2325 27.6071 41.8192 28.1925C40.4059 28.7779 38.8508 28.9311 37.3505 28.6326C35.8502 28.3342 34.472 27.5976 33.3903 26.5159C32.3087 25.4342 31.572 24.0561 31.2736 22.5558C30.9752 21.0555 31.1283 19.5003 31.7137 18.0871C32.2991 16.6738 33.2905 15.4658 34.5624 14.616C35.8343 13.7661 37.3297 13.3125 38.8594 13.3125C40.91 13.3147 42.8759 14.1303 44.3259 15.5803C45.7759 17.0303 46.5915 18.9963 46.5938 21.0469ZM27.6562 2.40094L32.7553 7.5H27.6562V2.40094ZM1.40625 1.40625H26.25V8.20312C26.25 8.38961 26.3241 8.56845 26.4559 8.70031C26.5878 8.83217 26.7666 8.90625 26.9531 8.90625H33.75V13.4709C32.5089 14.3069 31.4921 15.4349 30.7891 16.756C30.0862 18.077 29.7185 19.5505 29.7185 21.0469C29.7185 22.5433 30.0862 24.0168 30.7891 25.3378C31.4921 26.6588 32.5089 27.7869 33.75 28.6228V31.5938H30.4219C30.2354 31.5938 30.0566 31.6678 29.9247 31.7997C29.7928 31.9316 29.7188 32.1104 29.7188 32.2969V46.5938H1.40625V1.40625ZM31.125 46.5938V44.25H46.5938V46.5938H31.125Z" fill="#0487FF"/>
</g>
<defs>
<clipPath id="clip0_147_1858">
<rect width="48" height="48" fill="white"/>
</clipPath>
</defs>
</svg>
