<svg width="58" height="58" viewBox="0 0 58 58" fill="none" xmlns="http://www.w3.org/2000/svg">
<circle cx="34" cy="34" r="24" fill="#B4DBFF"/>
<g clip-path="url(#clip0_265_18)">
<path d="M38.0815 38.694C34.1566 42.6189 28.9381 44.7805 23.3874 44.7805H0.75C0.335812 44.7805 0 44.4447 0 44.0305C0 43.6163 0.335812 43.2805 0.75 43.2805H23.3874C34.0189 43.2805 42.6682 34.6313 42.6682 23.9998C42.6682 14.2428 35.2456 6.04538 25.7539 4.86554L27.9715 6.59738C28.298 6.85229 28.356 7.32366 28.101 7.6501C27.9531 7.83947 27.7324 7.93857 27.5093 7.93857C27.3479 7.93857 27.1853 7.88672 27.0483 7.77966L22.9258 4.56038C22.7438 4.41825 22.6374 4.20019 22.6374 3.96929C22.6374 3.73838 22.7438 3.52032 22.9258 3.37819L27.0483 0.15891C27.3746 -0.0959959 27.8461 -0.0380584 28.101 0.288379C28.3559 0.614817 28.298 1.08619 27.9715 1.3411L25.4376 3.31997C30.2801 3.79238 34.768 5.93035 38.2151 9.44054C42.054 13.3496 44.1682 18.5203 44.1682 24C44.1681 29.5506 42.0066 34.7691 38.0815 38.694ZM10.1464 40.0164C10.2863 40.1322 10.4557 40.1887 10.6241 40.1887C10.8398 40.1887 11.054 40.096 11.2023 39.9169C11.4664 39.5978 11.4218 39.125 11.1026 38.8609C6.65663 35.1813 4.10672 29.7647 4.10672 23.9998C4.10672 15.2554 10.0034 7.58954 18.4465 5.35782C18.8469 5.25197 19.0858 4.84154 18.98 4.44104C18.874 4.04054 18.4635 3.80175 18.0632 3.9076C8.96269 6.31313 2.60672 14.5753 2.60672 23.9998C2.60672 30.2131 5.35481 36.0509 10.1464 40.0164ZM47.7116 43.4394L43.5892 40.2201C43.2627 39.9652 42.7915 40.0231 42.5364 40.3495C42.2815 40.676 42.3395 41.1474 42.6659 41.4023L45.0711 43.2804H36.8327C36.4185 43.2804 36.0827 43.6163 36.0827 44.0304C36.0827 44.4446 36.4185 44.7804 36.8327 44.7804H45.0711L42.6659 46.6586C42.3395 46.9135 42.2814 47.3849 42.5364 47.7113C42.6844 47.9007 42.9051 47.9998 43.1281 47.9998C43.2895 47.9998 43.4522 47.9479 43.5892 47.8409L47.7116 44.6216C47.8936 44.4795 48 44.2614 48 44.0305C48 43.7996 47.8936 43.5816 47.7116 43.4394ZM15.9838 24.0018C15.9838 19.9194 19.3051 16.5982 23.3874 16.5982C27.4698 16.5982 30.7911 19.9194 30.7911 24.0018C30.7911 28.0841 27.4698 31.4054 23.3874 31.4054C19.3051 31.4053 15.9838 28.084 15.9838 24.0018ZM17.4838 24.0018C17.4838 27.2571 20.1322 29.9054 23.3874 29.9054C26.6427 29.9054 29.2911 27.2571 29.2911 24.0018C29.2911 20.7465 26.6427 18.0982 23.3874 18.0982C20.1322 18.0981 17.4838 20.7464 17.4838 24.0018ZM16.9009 13.5698C18.0466 12.8552 19.2869 12.3411 20.5982 12.037L21.329 10.1386C21.4404 9.8491 21.7186 9.65804 22.0289 9.65804H24.7458C25.0561 9.65804 25.3342 9.8491 25.4457 10.1386L26.1765 12.037C27.4878 12.3411 28.7281 12.8553 29.8738 13.5698L31.7346 12.7435C32.0182 12.6177 32.3498 12.6792 32.5693 12.8987L34.4905 14.8198C34.7099 15.0392 34.7716 15.371 34.6456 15.6546L33.8196 17.5146C34.5341 18.6598 35.0483 19.9006 35.3527 21.2129L37.2505 21.9434C37.5401 22.0548 37.7311 22.333 37.7311 22.6433V25.3603C37.7311 25.6706 37.54 25.9488 37.2505 26.0603L35.3521 26.791C35.048 28.1023 34.5338 29.3426 33.8192 30.4883L34.6456 32.3491C34.7715 32.6326 34.7099 32.9645 34.4904 33.1838L32.5693 35.1051C32.3499 35.3244 32.0182 35.3861 31.7346 35.2602L29.8746 34.4341C28.7292 35.1487 27.4885 35.663 26.1763 35.9672L25.4458 37.8651C25.3344 38.1547 25.0562 38.3456 24.7459 38.3456H22.0289C21.7187 38.3456 21.4404 38.1546 21.329 37.8651L20.5982 35.9666C19.2869 35.6626 18.0466 35.1484 16.9009 34.4338L15.0401 35.2602C14.7566 35.3862 14.4248 35.3246 14.2054 35.1051L12.2842 33.1839C12.0648 32.9646 12.0031 32.6328 12.1291 32.3492L12.9552 30.4892C12.2407 29.3439 11.7264 28.1033 11.4221 26.7909L9.52416 26.0604C9.23456 25.9491 9.04359 25.6708 9.04359 25.3605V22.6433C9.04359 22.3329 9.23466 22.0548 9.52416 21.9433L11.4225 21.2126C11.7265 19.9009 12.2407 18.6606 12.9554 17.515L12.1291 15.6545C12.0032 15.371 12.0648 15.0391 12.2843 14.8197L14.2055 12.8986C14.4247 12.6791 14.7567 12.6176 15.0402 12.7434L16.9009 13.5698ZM16.663 15.1055L14.9019 14.3233L13.709 15.5163L14.491 17.2772C14.5957 17.5128 14.5719 17.7857 14.4282 17.9997C13.6279 19.1917 13.0823 20.5076 12.8067 21.9113C12.757 22.1643 12.5809 22.3741 12.3401 22.4666L10.5435 23.1581V24.8453L12.3397 25.5367C12.5804 25.6293 12.7566 25.839 12.8063 26.092C13.0822 27.4965 13.6278 28.8128 14.428 30.0042C14.5718 30.2183 14.5956 30.4912 14.4908 30.7268L13.709 32.4872L14.9019 33.6802L16.663 32.898C16.8986 32.7934 17.1713 32.817 17.3855 32.9607C18.5777 33.7611 19.8937 34.3066 21.2968 34.5822C21.5498 34.6319 21.7596 34.8081 21.8522 35.0487L22.5439 36.8455H24.2309L24.9223 35.0494C25.0149 34.8087 25.2247 34.6326 25.4777 34.5828C26.8821 34.307 28.1983 33.7613 29.3899 32.9611C29.6039 32.8173 29.8768 32.7937 30.1124 32.8983L31.8728 33.6802L33.0658 32.4872L32.2837 30.7261C32.179 30.4905 32.2028 30.2177 32.3464 30.0037C33.1467 28.8114 33.6922 27.4955 33.9679 26.0923C34.0176 25.8393 34.1938 25.6296 34.4344 25.5369L36.2312 24.8453V23.1583L34.435 22.4669C34.1944 22.3743 34.0182 22.1646 33.9684 21.9115C33.6925 20.5072 33.1469 19.1908 32.3468 17.9993C32.2029 17.7852 32.1792 17.5123 32.2839 17.2767L33.0657 15.5164L31.8728 14.3234L30.1117 15.1056C29.876 15.2101 29.6032 15.1865 29.3892 15.0428C28.197 14.2425 26.881 13.697 25.4779 13.4213C25.2248 13.3717 25.0151 13.1954 24.9225 12.9548L24.2309 11.158H22.5439L21.8523 12.9548C21.7597 13.1954 21.5499 13.3717 21.2969 13.4213C19.8938 13.6969 18.5779 14.2424 17.3856 15.0428C17.1713 15.1865 16.8985 15.21 16.663 15.1055Z" fill="#0487FF"/>
</g>
<defs>
<clipPath id="clip0_265_18">
<rect width="48" height="48" fill="white"/>
</clipPath>
</defs>
</svg>
