<svg width="58" height="58" viewBox="0 0 58 58" fill="none" xmlns="http://www.w3.org/2000/svg">
<circle cx="34" cy="34" r="24" fill="#B4DBFF"/>
<path d="M40.5819 32.0726C39.4182 31.6362 38.1091 31.7817 36.9455 32.509L29.9637 36.7271C29.6728 36.509 29.3819 36.2908 29.091 36.2181L18.5455 32.4362C17.7455 32.1453 16.8728 32.1453 16.1455 32.509C16.1455 32.509 16.0728 32.509 16.0728 32.5817L11.8546 35.1271V34.909C11.8546 34.109 11.2 33.4544 10.4 33.4544H6.90914C6.10914 33.4544 5.45459 34.109 5.45459 34.909V45.8181C5.45459 46.6181 6.10914 47.2726 6.90914 47.2726H10.3273C11.1273 47.2726 11.7819 46.6181 11.7819 45.8181V45.4544C13.3819 44.5817 14.0364 43.7817 15.1273 43.9272L26.7637 46.4726C27.7091 46.7635 28.7273 46.5453 29.6 45.9635L41.4546 36.5817C43.0546 35.4908 42.9091 32.9453 40.5819 32.0726ZM6.90914 45.8181V34.909H10.3273V45.8181H6.90914ZM40.5819 35.4181C28.5091 44.5817 28.8 45.5272 27.1273 45.0181L15.4182 42.4726H15.3455C13.6728 42.1817 12.5091 43.3453 11.7819 43.709V36.7271L16.7273 33.7453C17.1637 33.5999 17.6 33.5999 18.0364 33.7453L28.5819 37.5271C29.5273 37.8908 29.891 39.0544 29.3091 39.8544C28.8728 40.4362 28.1455 40.6544 27.4182 40.3635L21.1637 37.9635C20.8 37.8181 20.3637 38.0362 20.2182 38.3999C20.0728 38.7635 20.291 39.1999 20.6546 39.3453L26.9091 41.7453C28.2182 42.3272 29.6728 41.8908 30.4728 40.7999C31.0546 39.9999 31.2728 39.0544 30.8364 37.9635L37.7455 33.8181C38.4728 33.3817 39.3455 33.2362 40.1455 33.5271C41.2364 33.8908 41.3091 34.909 40.5819 35.4181Z" fill="#0487FF"/>
<path d="M22.7636 24.7999C23.4182 25.2363 23.8545 25.9635 24 26.6908C23.3454 27.0544 22.9818 27.7817 22.9818 28.509C22.9818 29.5272 23.7091 30.3999 24.7273 30.6181L25.0182 32.9454C25.0909 33.309 25.3818 33.5999 25.7454 33.5999H31.4182C31.7818 33.5999 32.0727 33.309 32.1454 32.9454L32.4363 30.5454C33.3091 30.2544 34.0363 29.4544 34.0363 28.509C34.0363 27.709 33.6 27.0544 33.0182 26.6908C33.0909 25.9635 33.5273 25.2363 34.2545 24.7272C36.9454 22.8363 38.6182 19.7817 38.6182 16.509C38.6182 10.8363 33.8909 6.25445 28.1454 6.54535C22.9818 6.76354 18.6909 11.1999 18.6182 16.3635C18.4 19.7817 20 22.909 22.7636 24.7999ZM26.3273 32.2181L26.1818 30.7635H30.9091L30.7636 32.2181H26.3273ZM31.7091 29.309H25.0909C24.7273 29.309 24.3636 29.0181 24.3636 28.5817C24.3636 28.2181 24.6545 27.8544 25.0909 27.8544H31.7091C32.0727 27.8544 32.4363 28.1454 32.4363 28.5817C32.4363 28.9454 32.1454 29.309 31.7091 29.309ZM28 8.07263C32.8727 7.85445 36.9454 11.7817 36.9454 16.5817C36.9454 19.4181 35.5636 22.0363 33.2364 23.6363C32.2182 24.2908 31.5636 25.309 31.4182 26.4726H25.4545C25.3091 25.3817 24.6545 24.3635 23.6364 23.6363C21.3091 22.0363 19.9273 19.3454 19.9273 16.509C20 12.0726 23.6364 8.29081 28 8.07263Z" fill="#0487FF"/>
<path d="M28.2182 11.7088C30.9818 11.5633 33.3091 13.8179 33.3091 16.5815C33.3091 17.0179 33.6 17.3088 34.0364 17.3088C34.4728 17.3088 34.7637 17.0179 34.7637 16.5815C34.7637 13.0179 31.7818 10.1088 28.1455 10.2543C27.7091 10.2543 27.4182 10.6179 27.4182 10.9815C27.4182 11.4179 27.7818 11.7088 28.2182 11.7088Z" fill="#0487FF"/>
<path d="M28.4364 5.01796C28.8727 5.01796 29.1637 4.72705 29.1637 4.29069V1.45432C29.1637 1.01796 28.8727 0.727051 28.4364 0.727051C28 0.727051 27.7091 1.01796 27.7091 1.45432V4.29069C27.7091 4.72705 28 5.01796 28.4364 5.01796Z" fill="#0487FF"/>
<path d="M23.2728 5.38164C23.4183 5.67255 23.6364 5.81801 23.9274 5.81801C24.0001 5.81801 24.1455 5.81801 24.2183 5.74528C24.5819 5.59983 24.8001 5.16346 24.5819 4.79983L23.491 2.18164C23.3455 1.81801 22.9092 1.59983 22.5455 1.81801C22.1819 1.96346 21.9637 2.39983 22.1819 2.76346L23.2728 5.38164Z" fill="#0487FF"/>
<path d="M19.6364 8.14529C19.9273 8.4362 20.3637 8.4362 20.6546 8.14529C20.9455 7.85438 20.9455 7.41801 20.6546 7.1271L18.6182 5.09074C18.3273 4.79983 17.8909 4.79983 17.6 5.09074C17.3091 5.38165 17.3091 5.81801 17.6 6.10892L19.6364 8.14529Z" fill="#0487FF"/>
<path d="M37.1637 8.36355L39.2001 6.32718C39.491 6.03627 39.491 5.59991 39.2001 5.309C38.9092 5.01809 38.4728 5.01809 38.1819 5.309L36.1455 7.27264C35.8546 7.56355 35.8546 7.99991 36.1455 8.29082C36.3637 8.58173 36.8728 8.58173 37.1637 8.36355Z" fill="#0487FF"/>
<path d="M32.5819 5.89073C32.6546 5.96345 32.8 5.96345 32.8728 5.96345C33.1637 5.96345 33.4546 5.818 33.5273 5.52709L34.6182 2.90891C34.7637 2.54527 34.6182 2.10891 34.2546 1.96345C33.8909 1.818 33.4546 1.96345 33.3091 2.32709L32.2182 4.94527C32.0728 5.30891 32.2182 5.74527 32.5819 5.89073Z" fill="#0487FF"/>
</svg>
