<svg width="58" height="58" viewBox="0 0 58 58" fill="none" xmlns="http://www.w3.org/2000/svg">
<circle cx="34" cy="34" r="24" fill="#B4DBFF"/>
<path d="M31.8171 29.0401H26.4685L27.5828 25.3372C27.9236 24.2301 27.8165 23.0334 27.2843 22.0043C26.7522 20.9753 25.8376 20.1962 24.7371 19.8344C24.421 19.7302 24.0869 19.6924 23.7555 19.7234C23.4242 19.7543 23.1028 19.8534 22.8115 20.0143C22.5202 20.1753 22.2653 20.3946 22.0627 20.6586C21.8602 20.9226 21.7143 21.2256 21.6342 21.5487L21.4628 22.2687C20.8163 24.8631 19.4772 27.2332 17.5885 29.1258L16.6114 30.0858C16.3631 29.773 16.0479 29.5199 15.689 29.3448C15.33 29.1698 14.9364 29.0774 14.5371 29.0744H13.2857C12.5823 29.0743 11.9072 29.3514 11.4067 29.8455C10.9061 30.3396 10.6204 31.0111 10.6114 31.7144V42.7544C10.6114 43.4636 10.8931 44.1439 11.3947 44.6454C11.8962 45.1469 12.5764 45.4287 13.2857 45.4287H14.5371C14.9974 45.4276 15.4496 45.307 15.8493 45.0786C16.249 44.8502 16.5825 44.5219 16.8171 44.1258L17.0571 44.2458C18.6065 45.0195 20.3138 45.4244 22.0457 45.4287H28.2C29.2174 45.4336 30.2201 45.1855 31.1178 44.7067C32.0155 44.2279 32.7801 43.5335 33.3428 42.6858C34.5405 40.895 35.1789 38.7887 35.1771 36.6344V32.3658C35.1771 31.9262 35.09 31.4909 34.9207 31.0851C34.7514 30.6794 34.5034 30.3112 34.1909 30.002C33.8785 29.6927 33.5078 29.4484 33.1003 29.2833C32.6929 29.1182 32.2567 29.0356 31.8171 29.0401ZM15.4285 42.7544C15.4285 43.009 15.3274 43.2532 15.1474 43.4332C14.9673 43.6132 14.7231 43.7144 14.4685 43.7144H13.2857C13.0311 43.7144 12.7869 43.6132 12.6069 43.4332C12.4268 43.2532 12.3257 43.009 12.3257 42.7544V31.7144C12.3257 31.4598 12.4268 31.2156 12.6069 31.0356C12.7869 30.8555 13.0311 30.7544 13.2857 30.7544H14.5371C14.7796 30.7717 15.0066 30.8805 15.172 31.0587C15.3375 31.2369 15.4292 31.4712 15.4285 31.7144V42.7544ZM33.4285 36.6344C33.4357 38.4637 32.8986 40.2539 31.8857 41.7772C31.4804 42.3832 30.9321 42.88 30.2893 43.2238C29.6465 43.5676 28.9289 43.7479 28.2 43.7487H22.0457C20.5821 43.7472 19.1386 43.4069 17.8285 42.7544L17.1428 42.4115V31.8858L18.72 30.3087C20.8301 28.1989 22.3289 25.5567 23.0571 22.663L23.2285 21.9601C23.2794 21.7721 23.4027 21.6118 23.5714 21.5144C23.6579 21.4766 23.7513 21.4571 23.8457 21.4571C23.9401 21.4571 24.0334 21.4766 24.12 21.5144C24.4578 21.6267 24.7702 21.8046 25.0392 22.0377C25.3083 22.2709 25.5287 22.5548 25.6879 22.8733C25.8471 23.1917 25.942 23.5384 25.9671 23.8935C25.9922 24.2487 25.9471 24.6053 25.8342 24.943L24.3942 29.7601C24.357 29.8878 24.35 30.0225 24.3738 30.1534C24.3976 30.2843 24.4516 30.4079 24.5314 30.5144C24.6093 30.6229 24.7124 30.7108 24.8319 30.7705C24.9513 30.8303 25.0836 30.86 25.2171 30.8572H31.7142C31.9259 30.8572 32.1354 30.8989 32.3309 30.9799C32.5264 31.0609 32.7041 31.1796 32.8537 31.3292C33.0033 31.4788 33.122 31.6565 33.203 31.852C33.284 32.0475 33.3257 32.2571 33.3257 32.4687L33.4285 36.6344Z" fill="#0487FF"/>
<path d="M18.8571 12.5144L18.3086 15.6859C18.2426 16.0369 18.2786 16.3994 18.4122 16.7306C18.5459 17.0617 18.7717 17.3476 19.0628 17.5544C19.3851 17.7947 19.7752 17.9267 20.1771 17.9316C20.4874 17.9267 20.7924 17.8504 21.0686 17.7087L24 16.2002L26.8628 17.7087C27.1776 17.875 27.5331 17.9487 27.888 17.9214C28.2429 17.8941 28.5829 17.7669 28.8686 17.5544C29.1567 17.349 29.3806 17.0659 29.5141 16.7381C29.6477 16.4103 29.6854 16.0514 29.6228 15.703L29.1428 12.5144L31.3886 10.2859C31.6479 10.0406 31.8323 9.72672 31.9203 9.38077C32.0083 9.03482 31.9963 8.67099 31.8857 8.33159C31.7749 7.99255 31.5719 7.69107 31.2994 7.46095C31.0269 7.23082 30.6957 7.08116 30.3428 7.02873L27.1371 6.56588L25.7143 3.63445C25.5542 3.3171 25.3092 3.05042 25.0065 2.86409C24.7039 2.67776 24.3554 2.5791 24 2.5791C23.6446 2.5791 23.2961 2.67776 22.9934 2.86409C22.6908 3.05042 22.4458 3.3171 22.2857 3.63445L20.8628 6.53159L17.6571 6.99445C17.3043 7.04687 16.9731 7.19654 16.7006 7.42666C16.4281 7.65678 16.225 7.95826 16.1143 8.29731C15.9966 8.64141 15.9809 9.01221 16.0691 9.36504C16.1573 9.71786 16.3456 10.0377 16.6114 10.2859L18.8571 12.5144ZM17.8286 8.69159L21.48 8.16016C21.6449 8.17084 21.8094 8.13262 21.9527 8.05029C22.096 7.96795 22.2118 7.84517 22.2857 7.69731L24 4.38873C24.015 4.35591 24.0392 4.32809 24.0696 4.30859C24.1 4.28909 24.1353 4.27872 24.1714 4.27872C24.2075 4.27872 24.2429 4.28909 24.2733 4.30859C24.3037 4.32809 24.3278 4.35591 24.3428 4.38873L26.0571 7.69731C26.1187 7.82249 26.2105 7.93035 26.3243 8.01116C26.438 8.09197 26.5701 8.14318 26.7086 8.16016L30.36 8.69159C30.3955 8.69883 30.4285 8.71533 30.4556 8.73941C30.4827 8.76349 30.5029 8.79431 30.5143 8.82873C30.5308 8.8574 30.5395 8.88992 30.5395 8.92302C30.5395 8.95612 30.5308 8.98864 30.5143 9.01731L27.8743 11.5887C27.7744 11.6885 27.6992 11.8102 27.6546 11.9441C27.61 12.078 27.5971 12.2204 27.6171 12.3602L28.2514 15.9773C28.2631 16.0138 28.2608 16.0533 28.2449 16.0881C28.2291 16.123 28.2008 16.1507 28.1657 16.1659C28.136 16.1881 28.0999 16.2002 28.0628 16.2002C28.0258 16.2002 27.9897 16.1881 27.96 16.1659L24.7028 14.4516C24.5824 14.384 24.4467 14.3485 24.3086 14.3485C24.1705 14.3485 24.0347 14.384 23.9143 14.4516L20.64 16.1659C20.613 16.1867 20.5798 16.198 20.5457 16.198C20.5116 16.198 20.4784 16.1867 20.4514 16.1659C20.4163 16.1507 20.3881 16.123 20.3722 16.0881C20.3564 16.0533 20.3541 16.0138 20.3657 15.9773L21 12.3602C21.02 12.2204 21.0072 12.078 20.9625 11.9441C20.9179 11.8102 20.8427 11.6885 20.7428 11.5887L18.1028 9.01731C18.0863 8.98864 18.0776 8.95612 18.0776 8.92302C18.0776 8.88992 18.0863 8.8574 18.1028 8.82873C18.0583 8.83126 18.0142 8.81925 17.9771 8.79452C17.94 8.76978 17.9119 8.73366 17.8971 8.69159H17.8286Z" fill="#0487FF"/>
<path d="M12.5828 22.7143C12.8382 22.7189 13.0914 22.6665 13.3238 22.5607C13.5563 22.455 13.7622 22.2987 13.9265 22.1031C14.0909 21.9076 14.2094 21.6778 14.2735 21.4306C14.3376 21.1834 14.3457 20.925 14.2971 20.6743L13.8343 18.0686L15.7543 16.2C15.9962 15.978 16.1692 15.6912 16.2529 15.3737C16.3365 15.0562 16.3272 14.7214 16.2261 14.409C16.125 14.0966 15.9363 13.8199 15.6825 13.6116C15.4287 13.4034 15.1204 13.2724 14.7943 13.2343L12.1714 12.8571L10.9886 10.4743C10.8307 10.2001 10.6034 9.97235 10.3296 9.814C10.0557 9.65564 9.74492 9.57227 9.42856 9.57227C9.1122 9.57227 8.80143 9.65564 8.52756 9.814C8.25369 9.97235 8.02639 10.2001 7.86856 10.4743L6.6857 12.8571L4.06285 13.2343C3.73674 13.2724 3.42845 13.4034 3.17462 13.6116C2.92079 13.8199 2.7321 14.0966 2.63099 14.409C2.52987 14.7214 2.52059 15.0562 2.60424 15.3737C2.68789 15.6912 2.86095 15.978 3.10285 16.2L5.0057 18.0686L4.54285 20.6743C4.48346 20.9973 4.51813 21.3306 4.64273 21.6345C4.76734 21.9385 4.97663 22.2002 5.2457 22.3886C5.50851 22.5806 5.82057 22.6939 6.1454 22.7152C6.47023 22.7364 6.7944 22.6648 7.07999 22.5086L9.42856 21.2743L11.7771 22.5086C12.0248 22.6422 12.3015 22.7129 12.5828 22.7143ZM9.42856 19.4571C9.29039 19.4563 9.15442 19.4917 9.03428 19.56L6.23999 20.9657L6.85713 17.9143C6.86667 17.7675 6.84046 17.6207 6.78074 17.4863C6.72102 17.3519 6.62958 17.2341 6.51428 17.1428L4.30285 14.9314L7.38856 14.4857C7.52499 14.469 7.65488 14.4178 7.7659 14.3368C7.87692 14.2557 7.96538 14.1477 8.02285 14.0228L9.4457 11.2286L10.8343 14.0228C10.8917 14.1477 10.9802 14.2557 11.0912 14.3368C11.2022 14.4178 11.3321 14.469 11.4686 14.4857L14.5543 14.9828L12.3428 17.1428C12.243 17.2426 12.1678 17.3643 12.1232 17.4982C12.0785 17.6321 12.0657 17.7745 12.0857 17.9143L12.5828 21L9.82285 19.56C9.7027 19.4917 9.56673 19.4563 9.42856 19.4571Z" fill="#0487FF"/>
<path d="M45.3429 14.4171C45.2449 14.1069 45.0608 13.8309 44.8118 13.6215C44.5629 13.412 44.2596 13.2777 43.9372 13.2343L41.3143 12.8571L40.1314 10.4743C39.9736 10.2001 39.7463 9.97235 39.4724 9.814C39.1986 9.65564 38.8878 9.57227 38.5714 9.57227C38.2551 9.57227 37.9443 9.65564 37.6704 9.814C37.3966 9.97235 37.1693 10.2001 37.0114 10.4743L35.8286 12.8571L33.2057 13.2343C32.8796 13.2724 32.5713 13.4034 32.3175 13.6116C32.0637 13.8199 31.875 14.0966 31.7739 14.409C31.6728 14.7214 31.6635 15.0562 31.7471 15.3737C31.8308 15.6912 32.0038 15.978 32.2457 16.2L34.1486 18.0686L33.6857 20.6743C33.6263 20.9973 33.661 21.3306 33.7856 21.6345C33.9102 21.9385 34.1195 22.2002 34.3886 22.3886C34.6514 22.5806 34.9635 22.6939 35.2883 22.7152C35.6131 22.7364 35.9373 22.6648 36.2229 22.5086L38.5714 21.2743L40.92 22.5086C41.1676 22.6422 41.4443 22.7129 41.7257 22.7143C41.9811 22.7189 42.2343 22.6665 42.4667 22.5607C42.6992 22.455 42.9051 22.2987 43.0694 22.1031C43.2337 21.9076 43.3523 21.6778 43.4164 21.4306C43.4805 21.1834 43.4886 20.925 43.44 20.6743L42.9772 18.0686L44.88 16.2C45.1188 15.9777 45.2892 15.6918 45.3712 15.376C45.4532 15.0602 45.4434 14.7275 45.3429 14.4171ZM41.4857 17.1428C41.3859 17.2426 41.3107 17.3643 41.266 17.4982C41.2214 17.6321 41.2086 17.7745 41.2286 17.9143L41.7257 21L38.9657 19.56C38.8453 19.4924 38.7095 19.4569 38.5714 19.4569C38.4334 19.4569 38.2976 19.4924 38.1772 19.56L35.3829 20.9657L36 17.9143C36.0096 17.7675 35.9833 17.6207 35.9236 17.4863C35.8639 17.3519 35.7725 17.2341 35.6572 17.1428L33.4457 14.9314L36.5314 14.4857C36.6679 14.469 36.7978 14.4178 36.9088 14.3368C37.0198 14.2557 37.1083 14.1477 37.1657 14.0228L38.5886 11.2286L39.9772 14.0228C40.0346 14.1477 40.1231 14.2557 40.2341 14.3368C40.3451 14.4178 40.475 14.469 40.6114 14.4857L43.6972 14.9828L41.4857 17.1428Z" fill="#0487FF"/>
</svg>
