<svg width="25" height="24" viewBox="0 0 25 24" fill="none" xmlns="http://www.w3.org/2000/svg">
<g clip-path="url(#clip0_373_51)">
<path d="M15.9116 13.6257C16.0154 13.5566 16.1349 13.5145 16.2591 13.5032C16.3834 13.4919 16.5085 13.5118 16.6231 13.561L21.0444 15.542C21.1934 15.6057 21.3177 15.7159 21.3989 15.8562C21.48 15.9964 21.5135 16.1592 21.4944 16.3201C21.3487 17.4086 20.8127 18.4071 19.986 19.13C19.1593 19.8529 18.0982 20.2509 17 20.2501C13.6185 20.2501 10.3755 18.9068 7.98439 16.5157C5.5933 14.1246 4.25 10.8816 4.25 7.5001C4.24916 6.40192 4.6472 5.3408 5.37009 4.5141C6.09298 3.6874 7.09152 3.15138 8.18 3.00573C8.34091 2.98661 8.50368 3.02012 8.64395 3.10124C8.78422 3.18236 8.89444 3.30673 8.95813 3.45573L10.9391 7.88073C10.9877 7.99438 11.0076 8.1183 10.9968 8.24146C10.986 8.36463 10.9449 8.48321 10.8772 8.58666L8.87375 10.9689C8.80269 11.0761 8.76066 11.1999 8.75179 11.3283C8.74291 11.4566 8.76749 11.585 8.82313 11.701C9.59844 13.2882 11.2391 14.9092 12.8309 15.677C12.9475 15.7324 13.0766 15.7564 13.2053 15.7467C13.334 15.737 13.458 15.6939 13.565 15.6217L15.9116 13.6257Z" stroke="white" stroke-width="1.5" stroke-linecap="round" stroke-linejoin="round"/>
</g>
<defs>
<clipPath id="clip0_373_51">
<rect width="24" height="24" fill="white" transform="translate(0.5)"/>
</clipPath>
</defs>
</svg>
