<svg width="48" height="48" viewBox="0 0 48 48" fill="none" xmlns="http://www.w3.org/2000/svg">
<path d="M42.1201 26.4875C42.0216 26.4875 41.9241 26.5069 41.833 26.5445C41.742 26.5822 41.6593 26.6374 41.5897 26.7071C41.52 26.7767 41.4648 26.8594 41.4271 26.9505C41.3894 27.0415 41.3701 27.139 41.3701 27.2375V33.5744C41.37 33.7733 41.2909 33.964 41.1503 34.1046C41.0097 34.2452 40.819 34.3243 40.6201 34.3244H5.25C5.05113 34.3243 4.86044 34.2452 4.71982 34.1046C4.57919 33.964 4.50013 33.7733 4.5 33.5744V10.9998C4.50014 10.8009 4.5792 10.6102 4.71982 10.4696C4.86044 10.329 5.05113 10.2499 5.25 10.2498H20.9473C21.1462 10.2498 21.3369 10.1707 21.4776 10.0301C21.6182 9.88943 21.6973 9.69867 21.6973 9.49976C21.6973 9.30084 21.6182 9.11008 21.4776 8.96943C21.3369 8.82877 21.1462 8.74976 20.9473 8.74976H5.25C4.65346 8.75041 4.08154 8.98767 3.65973 9.40948C3.23791 9.8313 3.00065 10.4032 3 10.9998V33.5744C3.00065 34.171 3.23791 34.7429 3.65973 35.1647C4.08154 35.5865 4.65346 35.8238 5.25 35.8244H19.7864V38.1213C19.7846 38.7249 19.7063 39.3258 19.5535 39.9097C11.5287 40.3899 8.62962 42.4813 8.4961 42.5818C8.3428 42.7027 8.2427 42.8787 8.21707 43.0722C8.19144 43.2658 8.2423 43.4617 8.35883 43.6184C8.47537 43.7751 8.64841 43.8801 8.84117 43.9113C9.03394 43.9424 9.23124 43.8971 9.39116 43.7851C9.42554 43.7602 12.9133 41.3088 22.9343 41.3088C33.6543 41.3605 35.9723 43.7602 36.9221 43.9317C37.0781 43.9288 37.2293 43.8776 37.355 43.7852C37.4808 43.6928 37.5748 43.5638 37.6241 43.4158C37.6735 43.2678 37.6758 43.1082 37.6308 42.9588C37.5857 42.8095 37.4955 42.6777 37.3725 42.5817C37.239 42.4813 34.3398 40.3898 26.3145 39.9097C26.0798 38.5614 26.0019 37.1906 26.0823 35.8244H40.6201C41.2167 35.8238 41.7886 35.5865 42.2104 35.1647C42.6322 34.7429 42.8695 34.171 42.8701 33.5744V27.2375C42.8702 27.139 42.8508 27.0415 42.8131 26.9505C42.7755 26.8594 42.7202 26.7767 42.6506 26.7071C42.5809 26.6374 42.4982 26.5822 42.4072 26.5445C42.3162 26.5069 42.2186 26.4875 42.1201 26.4875ZM21.1052 39.8375C21.2229 39.2729 21.2836 38.698 21.2864 38.1213V35.8244H24.5823C24.518 37.1648 24.5786 38.5083 24.7632 39.8374C23.6047 39.7998 22.2638 39.7998 21.1052 39.8375Z" fill="#EA9704"/>
<path d="M43.5225 13.6804C43.5011 13.6795 43.4805 13.6724 43.4632 13.6599C43.4459 13.6474 43.4327 13.6301 43.4251 13.6101C43.1791 12.3023 42.527 11.4122 42.1754 10.4256C42.437 10.1166 42.5724 9.72037 42.5546 9.31592C42.5369 8.91146 42.3673 8.52858 42.0796 8.2437L40.8198 6.98391C40.5352 6.69526 40.152 6.52495 39.747 6.50715C39.342 6.48936 38.9453 6.62539 38.6365 6.88796C37.618 6.37094 36.5523 5.95257 35.4541 5.63859C35.4335 5.63062 35.4157 5.61678 35.403 5.59878C35.3902 5.58078 35.383 5.55943 35.3823 5.53738C35.3486 5.13406 35.1641 4.75829 34.8656 4.48501C34.567 4.21173 34.1765 4.06105 33.7717 4.06301H31.9905C31.5902 4.06093 31.2036 4.20828 30.9063 4.47622C30.6089 4.74416 30.4223 5.11341 30.3828 5.51171C30.3835 5.56472 30.3566 5.62744 30.3089 5.63771C29.2281 5.89787 28.1946 6.3254 27.2459 6.9048C27.2264 6.91477 27.2043 6.91843 27.1826 6.91528C27.161 6.91213 27.1408 6.90232 27.125 6.88721C26.816 6.62569 26.4197 6.49031 26.0153 6.50809C25.6109 6.52588 25.228 6.69552 24.9431 6.98316L23.6834 8.24365C23.3957 8.52852 23.2261 8.91138 23.2083 9.31581C23.1905 9.72025 23.3259 10.1165 23.5874 10.4255C23.2377 11.4077 22.5814 12.3094 22.3373 13.6101C22.3296 13.6305 22.3159 13.648 22.2982 13.6605C22.2804 13.673 22.2593 13.68 22.2376 13.6804C21.8342 13.714 21.4584 13.8985 21.1851 14.1971C20.9118 14.4956 20.7611 14.8863 20.7632 15.291V17.0723C20.7612 17.4775 20.9123 17.8685 21.1862 18.1671C21.4601 18.4657 21.8366 18.6499 22.2405 18.6829C22.2619 18.6838 22.2824 18.691 22.2997 18.7036C22.3169 18.7163 22.3299 18.7338 22.3372 18.7539C22.5847 20.0632 23.2385 20.9556 23.5876 21.9377C23.326 22.2466 23.1906 22.6429 23.2083 23.0474C23.2261 23.4519 23.3957 23.8347 23.6834 24.1196L24.9439 25.3809C25.2289 25.668 25.6117 25.8371 26.016 25.8547C26.4202 25.8722 26.8162 25.7367 27.125 25.4754C27.1411 25.4606 27.1612 25.4511 27.1827 25.4479C27.2043 25.4448 27.2263 25.4482 27.2459 25.4578C28.1948 26.0381 29.2288 26.4659 30.3103 26.7256C30.357 26.7347 30.3827 26.8012 30.3836 26.8523C30.423 27.2504 30.6096 27.6195 30.9068 27.8873C31.204 28.1551 31.5904 28.3024 31.9905 28.3003H33.7718C34.177 28.3021 34.568 28.1509 34.8666 27.8769C35.1652 27.6028 35.3494 27.2262 35.3823 26.8223C35.3834 26.8009 35.3907 26.7802 35.4035 26.763C35.4163 26.7458 35.4339 26.7328 35.4541 26.7256C36.5524 26.411 37.618 25.992 38.6364 25.4744C38.9451 25.7369 39.3415 25.8731 39.7463 25.8556C40.1511 25.8381 40.5343 25.6683 40.8191 25.3801L42.0796 24.1196C42.3673 23.8346 42.537 23.4516 42.5546 23.047C42.5723 22.6424 42.4367 22.246 42.1749 21.937C42.5256 20.9541 43.1812 20.0547 43.425 18.7531C43.4327 18.7327 43.4464 18.715 43.4643 18.7024C43.4823 18.6899 43.5036 18.6831 43.5255 18.6829C43.9288 18.6493 44.3046 18.4648 44.5779 18.1662C44.8512 17.8677 45.0019 17.477 44.9998 17.0723V15.291C45.0017 14.8858 44.8507 14.4948 44.5768 14.1962C44.3029 13.8976 43.9263 13.7134 43.5225 13.6804ZM43.4998 17.0723C43.4999 17.102 43.4886 17.1305 43.4683 17.1522C43.4481 17.1739 43.4203 17.1869 43.3906 17.1887C43.0559 17.2164 42.7383 17.3486 42.4827 17.5665C42.2271 17.7843 42.0464 18.077 41.9661 18.4031C41.7435 19.3319 41.3763 20.22 40.8777 21.0347C40.7035 21.3221 40.6241 21.657 40.6506 21.992C40.6772 22.327 40.8084 22.6452 41.0256 22.9016C41.0447 22.9238 41.0546 22.9524 41.0534 22.9817C41.0522 23.0109 41.0399 23.0386 41.0191 23.0591L39.7586 24.3196C39.7377 24.3399 39.71 24.3517 39.6809 24.3528C39.6518 24.3539 39.6234 24.3442 39.6011 24.3255C39.3446 24.1086 39.0266 23.9777 38.6918 23.9511C38.357 23.9246 38.0223 24.0038 37.7348 24.1775C36.9203 24.6759 36.0325 25.0435 35.104 25.2666C34.7772 25.3467 34.4839 25.5276 34.2657 25.7837C34.0475 26.0398 33.9154 26.3581 33.8882 26.6934C33.8857 26.7226 33.8724 26.7498 33.8508 26.7696C33.8293 26.7895 33.801 26.8004 33.7717 26.8003H31.9905C31.9735 26.7995 31.9568 26.7952 31.9415 26.7878C31.9262 26.7803 31.9125 26.7699 31.9014 26.757C31.8902 26.7441 31.8818 26.7291 31.8766 26.7129C31.8714 26.6967 31.8695 26.6796 31.8711 26.6626C31.8385 26.3333 31.7046 26.0222 31.4877 25.7721C31.2709 25.5221 30.9818 25.3455 30.6604 25.2666C29.7313 25.0437 28.843 24.6762 28.0281 24.1775C27.7403 24.0039 27.4053 23.9248 27.0703 23.9515C26.7353 23.9781 26.417 24.1092 26.1604 24.3262C26.1382 24.3451 26.1098 24.3549 26.0807 24.3537C26.0516 24.3525 26.0241 24.3403 26.0036 24.3196L24.7439 23.0591C24.723 23.0386 24.7107 23.0109 24.7095 22.9817C24.7083 22.9524 24.7182 22.9238 24.7373 22.9016C24.9546 22.6451 25.0858 22.3267 25.1122 21.9915C25.1386 21.6564 25.0589 21.3214 24.8845 21.034C24.3863 20.2196 24.019 19.3321 23.7961 18.4038C23.7162 18.077 23.5354 17.7837 23.2792 17.5656C23.0231 17.3474 22.7047 17.2156 22.3694 17.1887C22.3402 17.1863 22.3131 17.1729 22.2934 17.1513C22.2737 17.1297 22.2629 17.1015 22.2632 17.0723V15.291C22.263 15.2614 22.2743 15.2328 22.2946 15.2111C22.3149 15.1895 22.3427 15.1764 22.3723 15.1746C22.7069 15.147 23.0243 15.0151 23.2798 14.7973C23.5353 14.5795 23.7159 14.287 23.7961 13.961C24.019 13.032 24.3863 12.1438 24.8845 11.3286C25.0589 11.0413 25.1386 10.7065 25.1121 10.3714C25.0857 10.0364 24.9546 9.71809 24.7373 9.46169C24.7182 9.43949 24.7083 9.41088 24.7095 9.38164C24.7107 9.35241 24.723 9.32472 24.7439 9.30419L26.0037 8.04371C26.0241 8.02295 26.0516 8.01067 26.0806 8.00931C26.1097 8.00795 26.1382 8.01762 26.1604 8.03638C26.4167 8.25407 26.735 8.38558 27.0703 8.41227C27.4055 8.43895 27.7406 8.35946 28.0281 8.18506C28.8433 7.68682 29.7315 7.31933 30.6604 7.09596C30.9818 7.01705 31.2709 6.84043 31.4877 6.59041C31.7045 6.34039 31.8385 6.02929 31.8711 5.69996C31.8695 5.68304 31.8714 5.66597 31.8766 5.64978C31.8818 5.6336 31.8902 5.61865 31.9014 5.60583C31.9126 5.59302 31.9262 5.58261 31.9415 5.57525C31.9569 5.56788 31.9735 5.56371 31.9905 5.56299H33.7717C33.8015 5.56292 33.8302 5.57428 33.8519 5.59472C33.8735 5.61516 33.8865 5.64312 33.8882 5.67286C33.9161 6.00743 34.0483 6.32481 34.2662 6.58026C34.484 6.8357 34.7766 7.01633 35.1026 7.09669C36.0312 7.31941 36.9192 7.68642 37.7341 8.18434C38.0214 8.35893 38.3563 8.43867 38.6914 8.41224C39.0265 8.38582 39.3448 8.25457 39.6011 8.03712C39.6234 8.01823 39.6519 8.00842 39.6811 8.00964C39.7103 8.01086 39.738 8.02303 39.7586 8.04371L41.0191 9.3042C41.0398 9.32459 41.0521 9.35207 41.0535 9.38114C41.0549 9.41021 41.0452 9.43872 41.0264 9.46096C40.8087 9.71712 40.6772 10.0353 40.6506 10.3704C40.6239 10.7055 40.7034 11.0405 40.8777 11.3279C41.3764 12.1434 41.7439 13.0322 41.9668 13.9617C42.0475 14.2879 42.2286 14.5805 42.4847 14.7982C42.7407 15.0158 43.0587 15.1475 43.3936 15.1746C43.4227 15.177 43.4498 15.1904 43.4695 15.212C43.4892 15.2336 43.5 15.2618 43.4998 15.291V17.0723Z" fill="#EA9704"/>
<path d="M32.8814 9.07874C31.4765 9.07873 30.1032 9.49531 28.9351 10.2758C27.767 11.0563 26.8566 12.1656 26.319 13.4635C25.7814 14.7615 25.6407 16.1896 25.9148 17.5675C26.1889 18.9453 26.8654 20.211 27.8587 21.2044C28.8521 22.1977 30.1178 22.8742 31.4956 23.1483C32.8735 23.4224 34.3017 23.2817 35.5996 22.7441C36.8975 22.2065 38.0068 21.2961 38.7873 20.128C39.5678 18.9599 39.9844 17.5866 39.9844 16.1818C39.9821 14.2986 39.2331 12.4932 37.9015 11.1617C36.5699 9.83007 34.7645 9.08099 32.8814 9.07874ZM32.8814 21.7848C31.7732 21.7848 30.6899 21.4562 29.7685 20.8405C28.8471 20.2249 28.1289 19.3498 27.7048 18.326C27.2808 17.3021 27.1698 16.1756 27.386 15.0887C27.6022 14.0018 28.1358 13.0034 28.9194 12.2198C29.703 11.4362 30.7014 10.9026 31.7882 10.6864C32.8751 10.4702 34.0017 10.5812 35.0255 11.0052C36.0494 11.4293 36.9244 12.1475 37.5401 13.0689C38.1558 13.9903 38.4844 15.0736 38.4844 16.1818C38.4827 17.6672 37.8918 19.0914 36.8414 20.1418C35.791 21.1922 34.3669 21.7831 32.8814 21.7848Z" fill="#EA9704"/>
<path d="M10.7231 24.6843C10.6535 24.6147 10.5709 24.5594 10.4799 24.5217C10.3889 24.484 10.2914 24.4646 10.1929 24.4646C10.0944 24.4646 9.99686 24.484 9.90587 24.5217C9.81489 24.5594 9.73222 24.6147 9.6626 24.6843L7.12989 27.2171C7.06023 27.2867 7.00497 27.3694 6.96726 27.4604C6.92956 27.5513 6.91016 27.6489 6.91016 27.7474C6.91016 27.8458 6.92956 27.9434 6.96726 28.0344C7.00497 28.1253 7.06023 28.208 7.12989 28.2776L9.6626 30.8104C9.73224 30.88 9.81491 30.9353 9.90589 30.9729C9.99688 31.0106 10.0944 31.03 10.1929 31.03C10.2914 31.03 10.3889 31.0106 10.4799 30.9729C10.5708 30.9352 10.6535 30.88 10.7231 30.8104C10.7928 30.7407 10.848 30.6581 10.8857 30.5671C10.9234 30.4761 10.9428 30.3786 10.9428 30.2801C10.9428 30.1816 10.9234 30.0841 10.8857 29.9931C10.848 29.9021 10.7928 29.8195 10.7231 29.7498L8.7207 27.7473L10.7231 25.7449C10.7928 25.6753 10.8481 25.5926 10.8858 25.5016C10.9235 25.4106 10.9429 25.3131 10.9429 25.2146C10.9429 25.1161 10.9235 25.0186 10.8858 24.9276C10.8481 24.8366 10.7928 24.754 10.7231 24.6843Z" fill="#EA9704"/>
<path d="M18.5268 29.7499C18.3862 29.8905 18.3072 30.0812 18.3072 30.2801C18.3072 30.479 18.3862 30.6697 18.5268 30.8104C18.6674 30.951 18.8582 31.03 19.0571 31.03C19.2559 31.03 19.4467 30.951 19.5873 30.8104L22.1201 28.2777C22.1897 28.208 22.245 28.1254 22.2827 28.0344C22.3204 27.9434 22.3398 27.8459 22.3398 27.7474C22.3398 27.6489 22.3204 27.5514 22.2827 27.4604C22.245 27.3694 22.1897 27.2867 22.1201 27.2171L19.5873 24.6844C19.5177 24.6147 19.435 24.5595 19.344 24.5218C19.253 24.4841 19.1555 24.4647 19.057 24.4647C18.9586 24.4647 18.8611 24.4841 18.7701 24.5218C18.6791 24.5595 18.5964 24.6147 18.5268 24.6844C18.4571 24.754 18.4019 24.8367 18.3642 24.9277C18.3265 25.0186 18.3071 25.1162 18.3071 25.2146C18.3071 25.3131 18.3265 25.4106 18.3642 25.5016C18.4019 25.5926 18.4571 25.6753 18.5268 25.7449L20.5292 27.7474L18.5268 29.7499Z" fill="#EA9704"/>
<path d="M14.5306 25.0331L13.265 30.0985C13.2412 30.194 13.2364 30.2933 13.2509 30.3907C13.2654 30.488 13.2989 30.5816 13.3496 30.666C13.4003 30.7504 13.4671 30.824 13.5462 30.8826C13.6253 30.9412 13.7152 30.9836 13.8107 31.0074C13.9062 31.0313 14.0055 31.0361 14.1028 31.0216C14.2002 31.0071 14.2937 30.9735 14.3782 30.9229C14.4626 30.8722 14.5361 30.8054 14.5947 30.7263C14.6533 30.6472 14.6958 30.5573 14.7196 30.4618L15.9852 25.3964C16.0292 25.205 15.9964 25.0039 15.8937 24.8365C15.791 24.6691 15.6268 24.5486 15.4362 24.501C15.2457 24.4534 15.044 24.4825 14.8747 24.582C14.7053 24.6815 14.5818 24.8434 14.5306 25.0331Z" fill="#EA9704"/>
</svg>
