<svg width="48" height="48" viewBox="0 0 48 48" fill="none" xmlns="http://www.w3.org/2000/svg">
<g clip-path="url(#clip0_363_227)">
<path d="M41.25 33.7545V30.75C41.2488 29.7558 40.8533 28.8027 40.1503 28.0997C39.4473 27.3967 38.4942 27.0012 37.5 27H31.1865C31.8807 25.7194 32.4407 24.3705 32.8575 22.9748L35.7075 20.694C36.1505 20.3403 36.4743 19.8593 36.6354 19.3158C36.7964 18.7723 36.7868 18.1924 36.6079 17.6546C36.429 17.1167 36.0894 16.6466 35.635 16.3078C35.1805 15.9689 34.6331 15.7777 34.0665 15.7598L35.7375 11.1653C36.1639 9.99271 36.3013 8.73468 36.1382 7.49773C35.9751 6.26078 35.5163 5.08137 34.8005 4.05943C34.0848 3.03749 33.1333 2.20313 32.0266 1.62704C30.9199 1.05095 29.6907 0.750106 28.443 0.750001H22.0755C17.311 0.748812 12.6422 2.0878 8.6025 4.614C8.48112 4.68919 8.38373 4.79745 8.32177 4.92608C8.2598 5.05471 8.23584 5.19835 8.25269 5.34013C8.26955 5.48191 8.32652 5.61593 8.41692 5.72644C8.50732 5.83695 8.62738 5.91937 8.763 5.964L10.5713 6.564C10.8201 6.64702 11.0494 6.78002 11.2451 6.95483C11.4407 7.12964 11.5986 7.34258 11.709 7.58059C11.8194 7.81859 11.88 8.07664 11.8871 8.33891C11.8942 8.60117 11.8476 8.86212 11.7502 9.10575C11.5705 9.55489 11.488 10.037 11.508 10.5203C11.5281 11.0037 11.6502 11.4773 11.8665 11.91L13.8 15.7733C13.2469 15.8173 12.7198 16.0266 12.2871 16.3741C11.8545 16.7215 11.5363 17.191 11.3739 17.7216C11.2115 18.2522 11.2124 18.8193 11.3765 19.3494C11.5406 19.8795 11.8603 20.3479 12.294 20.694L15.144 22.9748C15.5604 24.3704 16.1198 25.7193 16.8135 27H10.5C9.5058 27.0012 8.55267 27.3967 7.84966 28.0997C7.14666 28.8027 6.75119 29.7558 6.75 30.75V33.7545C4.97493 34.496 3.45848 35.7454 2.39102 37.3458C1.32356 38.9462 0.75266 40.8263 0.75 42.75V46.5C0.75 46.6989 0.829018 46.8897 0.96967 47.0303C1.11032 47.171 1.30109 47.25 1.5 47.25H46.5C46.6989 47.25 46.8897 47.171 47.0303 47.0303C47.171 46.8897 47.25 46.6989 47.25 46.5V42.75C47.2473 40.8263 46.6764 38.9462 45.609 37.3458C44.5415 35.7454 43.0251 34.496 41.25 33.7545ZM30 15.75H25.5C25.3011 15.75 25.1103 15.829 24.9697 15.9697C24.829 16.1103 24.75 16.3011 24.75 16.5V17.25H23.25V16.5C23.25 16.3011 23.171 16.1103 23.0303 15.9697C22.8897 15.829 22.6989 15.75 22.5 15.75H15.75V14.6513L20.4315 11.5305C21.4389 10.8575 22.6235 10.4988 23.835 10.5C25.5683 10.498 27.2496 9.90809 28.6042 8.82675L29.8297 7.8465L31.116 9.777C31.8566 10.8851 32.2512 12.1882 32.25 13.521V15.75H30ZM29.25 17.25V19.5C29.25 19.6989 29.171 19.8897 29.0303 20.0303C28.8897 20.171 28.6989 20.25 28.5 20.25H27C26.8011 20.25 26.6103 20.171 26.4697 20.0303C26.329 19.8897 26.25 19.6989 26.25 19.5V17.25H29.25ZM21.75 17.25V19.5C21.75 19.6989 21.671 19.8897 21.5303 20.0303C21.3897 20.171 21.1989 20.25 21 20.25H19.5C19.3011 20.25 19.1103 20.171 18.9697 20.0303C18.829 19.8897 18.75 19.6989 18.75 19.5V17.25H21.75ZM35.25 18.525C35.2504 18.7163 35.2076 18.9053 35.1247 19.0777C35.0418 19.2502 34.9211 19.4017 34.7715 19.521L33.4117 20.6085C33.61 19.4995 33.7191 18.3764 33.738 17.25H33.975C34.1424 17.25 34.3082 17.283 34.4629 17.3471C34.6176 17.4111 34.7582 17.505 34.8766 17.6234C34.995 17.7418 35.0889 17.8824 35.1529 18.0371C35.217 18.1918 35.25 18.3576 35.25 18.525ZM13.1423 9.663C13.3155 9.22967 13.3984 8.7655 13.3859 8.29898C13.3734 7.83245 13.2657 7.37341 13.0694 6.95C12.8731 6.52659 12.5924 6.14776 12.2444 5.83672C11.8965 5.52569 11.4887 5.28903 11.046 5.14125L10.8165 5.06625C14.2811 3.21658 18.1481 2.24931 22.0755 2.25H28.443C29.4493 2.25019 30.4407 2.49286 31.3333 2.95746C32.2259 3.42206 32.9934 4.09492 33.5708 4.91904C34.1482 5.74317 34.5185 6.6943 34.6503 7.69189C34.7822 8.68948 34.6717 9.70416 34.3282 10.65L33.6765 12.4425C33.5136 11.1902 33.0645 9.99226 32.364 8.9415L30.624 6.33075C30.5663 6.24428 30.4912 6.17075 30.4035 6.11485C30.3158 6.05894 30.2175 6.02187 30.1147 6.006C30.012 5.99049 29.9072 5.99627 29.8069 6.02297C29.7065 6.04968 29.6127 6.09675 29.5312 6.16125L27.6675 7.656C26.5786 8.52427 25.2277 8.99802 23.835 9C22.3272 8.99863 20.8529 9.44499 19.599 10.2825L14.5837 13.626C14.5373 13.6576 14.4945 13.6943 14.4562 13.7355L13.2083 11.2388C13.0866 10.9956 13.0179 10.7295 13.0065 10.4579C12.9951 10.1864 13.0414 9.91543 13.1423 9.663ZM13.2292 19.5225C13.0222 19.3577 12.8716 19.1326 12.7983 18.8783C12.725 18.6241 12.7326 18.3534 12.82 18.1036C12.9075 17.8539 13.0704 17.6376 13.2863 17.4846C13.5023 17.3317 13.7604 17.2497 14.025 17.25H14.2605C14.2794 18.3769 14.3885 19.5005 14.5867 20.61L13.2292 19.5225ZM15.762 17.25H17.25V19.5C17.25 20.0967 17.4871 20.669 17.909 21.091C18.331 21.5129 18.9033 21.75 19.5 21.75H21C21.5967 21.75 22.169 21.5129 22.591 21.091C23.0129 20.669 23.25 20.0967 23.25 19.5V18.75H24.75V19.5C24.75 20.0967 24.9871 20.669 25.409 21.091C25.831 21.5129 26.4033 21.75 27 21.75H28.5C29.0967 21.75 29.669 21.5129 30.091 21.091C30.5129 20.669 30.75 20.0967 30.75 19.5V17.25H32.238C32.1798 20.6876 31.22 24.0497 29.4547 27H18.5452C16.78 24.0497 15.8202 20.6876 15.762 17.25ZM10.5 28.5H37.5C38.0967 28.5 38.669 28.7371 39.091 29.159C39.5129 29.581 39.75 30.1533 39.75 30.75V45.75H8.25V30.75C8.25 30.1533 8.48705 29.581 8.90901 29.159C9.33097 28.7371 9.90326 28.5 10.5 28.5ZM2.25 42.75C2.25204 41.2303 2.67318 39.7406 3.46711 38.4448C4.26104 37.149 5.39698 36.0972 6.75 35.4053V45.75H2.25V42.75ZM45.75 45.75H41.25V35.4053C42.603 36.0973 43.7389 37.1491 44.5328 38.4449C45.3267 39.7407 45.7479 41.2303 45.75 42.75V45.75Z" fill="#C300CB"/>
<path d="M24 43.5C24.5933 43.5 25.1734 43.3241 25.6667 42.9944C26.1601 42.6648 26.5446 42.1962 26.7716 41.6481C26.9987 41.0999 27.0581 40.4967 26.9424 39.9147C26.8266 39.3328 26.5409 38.7982 26.1213 38.3787C25.7018 37.9591 25.1672 37.6734 24.5853 37.5576C24.0033 37.4419 23.4001 37.5013 22.852 37.7284C22.3038 37.9554 21.8352 38.3399 21.5056 38.8333C21.1759 39.3266 21 39.9067 21 40.5C21 41.2957 21.3161 42.0587 21.8787 42.6213C22.4413 43.1839 23.2044 43.5 24 43.5ZM24 39C24.2967 39 24.5867 39.088 24.8334 39.2528C25.08 39.4176 25.2723 39.6519 25.3858 39.926C25.4994 40.2001 25.5291 40.5017 25.4712 40.7926C25.4133 41.0836 25.2704 41.3509 25.0607 41.5607C24.8509 41.7704 24.5836 41.9133 24.2926 41.9712C24.0017 42.0291 23.7001 41.9994 23.426 41.8858C23.1519 41.7723 22.9176 41.58 22.7528 41.3334C22.588 41.0867 22.5 40.7967 22.5 40.5C22.5 40.1022 22.658 39.7206 22.9393 39.4393C23.2206 39.158 23.6022 39 24 39Z" fill="#C300CB"/>
<path d="M18.9696 36.5302L20.0301 35.4697L17.5603 33L20.0301 30.5302L18.9696 29.4697L15.9696 32.4697C15.829 32.6104 15.75 32.8011 15.75 33C15.75 33.1989 15.829 33.3896 15.9696 33.5302L18.9696 36.5302Z" fill="#C300CB"/>
<path d="M29.0302 36.5302L32.0302 33.5302C32.1708 33.3896 32.2498 33.1989 32.2498 33C32.2498 32.8011 32.1708 32.6104 32.0302 32.4697L29.0302 29.4697L27.9697 30.5302L30.4395 33L27.9697 35.4697L29.0302 36.5302Z" fill="#C300CB"/>
<path d="M25.6506 29.5499L21.1494 35.5491L22.3492 36.4493L26.8504 30.4502L25.6506 29.5499Z" fill="#C300CB"/>
</g>
<defs>
<clipPath id="clip0_363_227">
<rect width="48" height="48" fill="white"/>
</clipPath>
</defs>
</svg>
