<svg width="48" height="48" viewBox="0 0 48 48" fill="none" xmlns="http://www.w3.org/2000/svg">
<path d="M47.1244 35.3437C46.6172 33.449 44.6475 32.2978 42.6403 32.7187L28.6509 35.6887C28.9262 34.932 28.9267 34.1027 28.6526 33.3456C28.3784 32.5885 27.8469 31.9518 27.1509 31.5468L19.0416 26.864C18.7161 26.6608 18.4104 26.4276 18.1284 26.1675C17.4159 25.5515 16.5291 24.7856 14.8762 24.6093C13.3059 24.4425 11.2622 24.8109 8.50125 25.7662C8.40909 25.1807 8.11111 24.6473 7.66088 24.2619C7.21064 23.8764 6.63769 23.6642 6.045 23.6634H3.23625C2.57708 23.6641 1.94513 23.9263 1.47903 24.3924C1.01293 24.8585 0.750744 25.4905 0.75 26.1497V39.9693C0.750744 40.6285 1.01293 41.2605 1.47903 41.7266C1.94513 42.1927 2.57708 42.4548 3.23625 42.4556H6.03656C6.68881 42.4547 7.31465 42.1978 7.77943 41.7402C8.24422 41.2826 8.51082 40.6609 8.52187 40.0087C10.7587 39.6947 13.6003 41.3165 16.3547 42.8897C18.7284 44.2453 20.9916 45.5381 22.8825 45.5381C23.2382 45.541 23.5923 45.4895 23.9325 45.3853L44.5125 39.8709C45.4589 39.6165 46.2657 38.9968 46.7554 38.1479C47.2452 37.299 47.3779 36.2904 47.1244 35.3437ZM6.03656 40.9556H3.23625C2.97476 40.9553 2.72404 40.8514 2.53914 40.6665C2.35424 40.4815 2.25025 40.2308 2.25 39.9693V26.1497C2.25025 25.8882 2.35424 25.6374 2.53914 25.4525C2.72404 25.2676 2.97476 25.1637 3.23625 25.1634H6.03656C6.29806 25.1637 6.54877 25.2676 6.73367 25.4525C6.91858 25.6374 7.02256 25.8882 7.02281 26.1497V39.9693C7.02256 40.2308 6.91858 40.4815 6.73367 40.6665C6.54877 40.8514 6.29806 40.9553 6.03656 40.9556ZM44.1244 38.4243L23.5312 43.9406L23.4966 43.9509C22.05 44.4131 19.5337 42.9768 17.1009 41.5875C14.2012 39.93 11.2125 38.2256 8.52562 38.4937V27.3459C14.6522 25.1484 15.9197 26.2425 17.1506 27.3018C17.5031 27.6253 17.8862 27.9139 18.2944 28.1634L26.4037 32.8453C26.6227 32.9723 26.8145 33.1413 26.9682 33.3424C27.1218 33.5436 27.2344 33.7731 27.2994 34.0178C27.3644 34.2624 27.3805 34.5175 27.3469 34.7684C27.3133 35.0193 27.2306 35.2612 27.1036 35.4801C26.9765 35.6991 26.8076 35.8909 26.6064 36.0445C26.4053 36.1982 26.1758 36.3108 25.9311 36.3757C25.6864 36.4407 25.4314 36.4569 25.1805 36.4233C24.9295 36.3897 24.6877 36.307 24.4687 36.18L17.6981 32.2715C17.5263 32.1782 17.3249 32.1557 17.1367 32.2088C16.9486 32.2618 16.7886 32.3862 16.6908 32.5555C16.593 32.7248 16.5652 32.9255 16.6133 33.115C16.6613 33.3045 16.7815 33.4678 16.9481 33.57L23.7187 37.4793C24.2376 37.7797 24.8265 37.9378 25.4259 37.9378C25.9639 37.937 26.4943 37.8105 26.9747 37.5684C27.01 37.566 27.045 37.5613 27.0797 37.5543L42.9478 34.1943C44.1956 33.93 45.3666 34.5928 45.6731 35.7356C45.8228 36.2971 45.7438 36.895 45.4535 37.3984C45.1632 37.9019 44.6853 38.2697 44.1244 38.4215V38.4243ZM5.88656 27.8718C5.8873 28.1194 5.81456 28.3616 5.67755 28.5678C5.54054 28.7739 5.34543 28.9348 5.11692 29.03C4.88841 29.1252 4.63678 29.1505 4.39391 29.1026C4.15104 29.0547 3.92786 28.9358 3.75261 28.7609C3.57737 28.5861 3.45796 28.3631 3.40951 28.1204C3.36106 27.8776 3.38574 27.6259 3.48042 27.3972C3.57511 27.1685 3.73555 26.973 3.94142 26.8355C4.14729 26.6981 4.38933 26.6248 4.63687 26.625C4.9676 26.6257 5.28461 26.7572 5.51873 26.9908C5.75285 27.2244 5.88508 27.5411 5.88656 27.8718ZM20.6934 19.6322H21.9628C22.2144 20.5363 22.5751 21.4065 23.0372 22.2234L22.14 23.1215C21.9046 23.3539 21.7619 23.664 21.7386 23.9939C21.7153 24.3238 21.813 24.6509 22.0134 24.914C22.8069 25.9668 23.7438 26.9034 24.7969 27.6965C25.0597 27.8975 25.3868 27.9956 25.7169 27.9724C26.0469 27.9493 26.3571 27.8065 26.5894 27.5709L27.4875 26.6737C28.3043 27.1359 29.174 27.4972 30.0778 27.75V29.0193C30.0758 29.3501 30.1945 29.6702 30.4116 29.9198C30.6287 30.1693 30.9293 30.3312 31.2572 30.375C32.5632 30.5589 33.8886 30.5589 35.1947 30.375C35.523 30.3313 35.8242 30.1693 36.0415 29.9194C36.2588 29.6694 36.3774 29.3487 36.375 29.0175V27.75C37.2791 27.4981 38.1492 27.1373 38.9662 26.6756L39.8634 27.5728C40.0957 27.8084 40.4059 27.9512 40.7359 27.9743C41.066 27.9974 41.3931 27.8993 41.6559 27.6984C42.7087 26.9049 43.645 25.9676 44.4375 24.914C44.638 24.651 44.7359 24.324 44.7128 23.9941C44.6897 23.6642 44.5471 23.354 44.3119 23.1215L43.4137 22.2234C43.8759 21.4069 44.2366 20.537 44.4881 19.6331H45.7584C46.0893 19.6353 46.4095 19.5167 46.6591 19.2996C46.9087 19.0824 47.0705 18.7817 47.1141 18.4537C47.298 17.1477 47.298 15.8223 47.1141 14.5162C47.0702 14.1884 46.9084 13.8879 46.6588 13.671C46.4092 13.454 46.0891 13.3355 45.7584 13.3378H44.4872C44.2352 12.4336 43.8741 11.5635 43.4119 10.7465L44.31 9.84934C44.544 9.61744 44.686 9.30849 44.7094 8.97985C44.7329 8.65122 44.6362 8.32524 44.4375 8.06246C43.6446 7.00891 42.7076 6.07195 41.6541 5.27903C41.3912 5.0781 41.0641 4.98 40.7341 5.00313C40.404 5.02626 40.0938 5.16903 39.8616 5.40465L38.9644 6.30278C38.1481 5.8396 37.2786 5.47726 36.375 5.22371V3.95434C36.3773 3.62356 36.2588 3.3033 36.0419 3.05358C35.825 2.80385 35.5244 2.6418 35.1966 2.59778C33.8904 2.41581 32.5653 2.41581 31.2591 2.59778C30.9313 2.64199 30.6309 2.8041 30.414 3.05378C30.1971 3.30346 30.0786 3.62361 30.0806 3.95434V5.22371C29.1759 5.47571 28.3051 5.8368 27.4875 6.29903L26.5894 5.4009C26.3569 5.16564 26.0467 5.02312 25.7168 5C25.3869 4.97688 25.0599 5.07474 24.7969 5.27528C23.7431 6.06935 22.8061 7.00759 22.0134 8.06246C21.8128 8.32549 21.715 8.65263 21.7383 8.98261C21.7616 9.31258 21.9044 9.62274 22.14 9.85496L23.0372 10.7522C22.5749 11.569 22.2142 12.4391 21.9628 13.3434H20.6934C20.3627 13.3411 20.0424 13.4596 19.7927 13.6765C19.543 13.8934 19.3809 14.194 19.3369 14.5218C19.1529 15.8279 19.1529 17.1533 19.3369 18.4593C19.382 18.7862 19.5445 19.0856 19.7941 19.3014C20.0438 19.5172 20.3634 19.6348 20.6934 19.6322ZM20.8069 14.8397H22.5469C22.7175 14.8397 22.883 14.7816 23.0161 14.6749C23.1492 14.5682 23.242 14.4193 23.2791 14.2528C23.5346 13.1106 23.9863 12.0213 24.6141 11.0334C24.7053 10.8895 24.7448 10.7187 24.7261 10.5494C24.7073 10.38 24.6314 10.222 24.5109 10.1015L23.2809 8.87059C23.9516 7.99551 24.7346 7.21254 25.6097 6.54184L26.8397 7.77278C26.9603 7.89351 27.1184 7.96952 27.288 7.98827C27.4576 8.00702 27.6285 7.96738 27.7725 7.8759C28.7604 7.24816 29.8496 6.79647 30.9919 6.5409C31.1576 6.50375 31.3058 6.41147 31.4122 6.27914C31.5187 6.14682 31.577 5.98228 31.5778 5.81246V4.06778C32.671 3.92528 33.7781 3.92528 34.8712 4.06778V5.81246C34.8712 5.98306 34.9293 6.14856 35.036 6.28168C35.1427 6.41479 35.2916 6.50755 35.4581 6.54465C36.5998 6.79873 37.6887 7.24884 38.6766 7.87496C38.8206 7.96644 38.9915 8.00608 39.1611 7.98733C39.3307 7.96858 39.4888 7.89257 39.6094 7.77184L40.8403 6.5409C41.7149 7.21187 42.4975 7.99482 43.1681 8.86965L41.9381 10.1006C41.8176 10.2211 41.7417 10.379 41.723 10.5484C41.7043 10.7178 41.7438 10.8885 41.835 11.0325C42.4628 12.0196 42.9145 13.1083 43.17 14.25C43.2073 14.4163 43.3001 14.565 43.4332 14.6715C43.5663 14.778 43.7317 14.836 43.9022 14.8359H45.6422C45.7859 15.929 45.7859 17.0362 45.6422 18.1293H43.9012C43.7309 18.1295 43.5658 18.1876 43.4329 18.2941C43.3 18.4005 43.2073 18.5491 43.17 18.7153C42.9147 19.8585 42.463 20.9487 41.835 21.9375C41.7438 22.0814 41.7043 22.2521 41.723 22.4215C41.7417 22.5909 41.8176 22.7488 41.9381 22.8693L43.1691 24.1003C42.4979 24.9749 41.7149 25.7578 40.8403 26.429L39.6094 25.199C39.4888 25.0787 39.3307 25.003 39.1614 24.9844C38.992 24.9658 38.8213 25.0055 38.6775 25.0968C37.6894 25.7248 36.5998 26.1765 35.4572 26.4318C35.291 26.4691 35.1425 26.5618 35.036 26.6947C34.9295 26.8276 34.8714 26.9928 34.8712 27.1631V28.904C33.7781 29.0465 32.671 29.0465 31.5778 28.904V27.1631C31.5779 26.9926 31.5199 26.8272 31.4134 26.6941C31.3069 26.561 31.1582 26.4682 30.9919 26.4309C29.8493 26.1764 28.7599 25.7246 27.7725 25.0959C27.6285 25.0044 27.4576 24.9648 27.288 24.9835C27.1184 25.0023 26.9603 25.0783 26.8397 25.199L25.6097 26.43C24.7346 25.7593 23.9516 24.9763 23.2809 24.1012L24.5109 22.875C24.6314 22.7545 24.7073 22.5965 24.7261 22.4271C24.7448 22.2577 24.7053 22.087 24.6141 21.9431C23.9861 20.9553 23.5344 19.866 23.2791 18.7237C23.242 18.5572 23.1492 18.4083 23.0161 18.3016C22.883 18.1949 22.7175 18.1368 22.5469 18.1368H20.8069C20.6631 17.044 20.6631 15.9371 20.8069 14.8443V14.8397ZM33.225 24C34.7104 24 36.1624 23.5595 37.3975 22.7342C38.6326 21.909 39.5952 20.7361 40.1636 19.3637C40.7321 17.9914 40.8808 16.4813 40.591 15.0245C40.3012 13.5676 39.5859 12.2294 38.5356 11.1791C37.4853 10.1287 36.147 9.41343 34.6902 9.12365C33.2333 8.83386 31.7233 8.98259 30.3509 9.55103C28.9786 10.1195 27.8056 11.0821 26.9804 12.3171C26.1552 13.5522 25.7147 15.0043 25.7147 16.4897C25.7169 18.4808 26.5089 20.3898 27.9169 21.7978C29.3248 23.2058 31.2338 23.9977 33.225 24ZM33.225 10.4793C34.4137 10.4793 35.5758 10.8318 36.5641 11.4923C37.5525 12.1527 38.3229 13.0914 38.7778 14.1896C39.2327 15.2878 39.3517 16.4963 39.1198 17.6622C38.8879 18.8281 38.3155 19.899 37.4749 20.7396C36.6344 21.5801 35.5634 22.1526 34.3975 22.3845C33.2317 22.6164 32.0232 22.4974 30.9249 22.0425C29.8267 21.5876 28.888 20.8172 28.2276 19.8288C27.5672 18.8404 27.2147 17.6784 27.2147 16.4897C27.2154 14.8955 27.8488 13.3668 28.9757 12.2392C30.1025 11.1116 31.6308 10.4773 33.225 10.4756V10.4793ZM30.1059 17.1993C30.0363 17.1297 29.9811 17.0469 29.9434 16.9559C29.9058 16.8649 29.8864 16.7674 29.8865 16.6689C29.8865 16.5703 29.906 16.4728 29.9437 16.3818C29.9814 16.2908 30.0367 16.2082 30.1064 16.1386C30.1761 16.0689 30.2588 16.0137 30.3498 15.9761C30.4408 15.9384 30.5384 15.9191 30.6369 15.9191C30.7354 15.9191 30.8329 15.9386 30.9239 15.9763C31.0149 16.0141 31.0976 16.0693 31.1672 16.139L32.3719 17.3437L35.25 14.0409C35.3849 13.9077 35.5652 13.8306 35.7547 13.825C35.9442 13.8194 36.1287 13.8857 36.2713 14.0107C36.4138 14.1357 36.5037 14.31 36.523 14.4985C36.5422 14.6871 36.4894 14.876 36.375 15.0272L32.9719 18.9309C32.9043 19.0085 32.8215 19.0713 32.7286 19.1155C32.6357 19.1597 32.5347 19.1843 32.4319 19.1878H32.4066C32.308 19.1879 32.2105 19.1685 32.1194 19.1309C32.0284 19.0932 31.9456 19.038 31.8759 18.9684L30.1059 17.1993Z" fill="#EA9704"/>
</svg>
