<svg width="48" height="48" viewBox="0 0 48 48" fill="none" xmlns="http://www.w3.org/2000/svg">
<path d="M26.25 6H21.75C21.336 6 21 5.664 21 5.25C21 4.836 21.336 4.5 21.75 4.5H26.25C26.664 4.5 27 4.836 27 5.25C27 5.664 26.664 6 26.25 6Z" fill="#00AA25"/>
<path d="M32.25 46.5H15.75C13.6815 46.5 12 44.817 12 42.75V17.25C12 16.836 12.336 16.5 12.75 16.5C13.164 16.5 13.5 16.836 13.5 17.25V42.75C13.5 43.9905 14.5095 45 15.75 45H32.25C33.4905 45 34.5 43.9905 34.5 42.75V17.25C34.5 16.836 34.836 16.5 35.25 16.5C35.664 16.5 36 16.836 36 17.25V42.75C36 44.817 34.3185 46.5 32.25 46.5Z" fill="#00AA25"/>
<path d="M35.25 22.5C34.836 22.5 34.5 22.164 34.5 21.75V5.25C34.5 4.0095 33.4905 3 32.25 3H15.75C14.5095 3 13.5 4.0095 13.5 5.25V21.75C13.5 22.164 13.164 22.5 12.75 22.5C12.336 22.5 12 22.164 12 21.75V5.25C12 3.183 13.6815 1.5 15.75 1.5H32.25C34.3185 1.5 36 3.183 36 5.25V21.75C36 22.164 35.664 22.5 35.25 22.5Z" fill="#00AA25"/>
<path d="M39.75 9.075C39.336 9.075 39 8.814 39 8.4V8.25C39 7.836 39.336 7.5 39.75 7.5C40.164 7.5 40.5 7.836 40.5 8.25C40.5 8.664 40.164 9.075 39.75 9.075Z" fill="#00AA25"/>
<path d="M39.75 12.075C39.336 12.075 39 11.814 39 11.4V11.25C39 10.836 39.336 10.5 39.75 10.5C40.164 10.5 40.5 10.836 40.5 11.25C40.5 11.664 40.164 12.075 39.75 12.075Z" fill="#00AA25"/>
<path d="M39.75 15.075C39.336 15.075 39 14.814 39 14.4V14.25C39 13.836 39.336 13.5 39.75 13.5C40.164 13.5 40.5 13.836 40.5 14.25C40.5 14.664 40.164 15.075 39.75 15.075Z" fill="#00AA25"/>
<path d="M8.25 34.425C7.836 34.425 7.5 34.164 7.5 33.75V33.6C7.5 33.186 7.836 32.85 8.25 32.85C8.664 32.85 9 33.186 9 33.6C9 34.014 8.664 34.425 8.25 34.425Z" fill="#00AA25"/>
<path d="M8.25 37.425C7.836 37.425 7.5 37.164 7.5 36.75V36.6C7.5 36.186 7.836 35.85 8.25 35.85C8.664 35.85 9 36.186 9 36.6C9 37.014 8.664 37.425 8.25 37.425Z" fill="#00AA25"/>
<path d="M8.25 40.425C7.836 40.425 7.5 40.164 7.5 39.75V39.6C7.5 39.186 7.836 38.85 8.25 38.85C8.664 38.85 9 39.186 9 39.6C9 40.014 8.664 40.425 8.25 40.425Z" fill="#00AA25"/>
<path d="M37.2615 40.5C37.209 40.5 37.155 40.4955 37.1025 40.4835C36.6975 40.3965 36.441 39.9975 36.528 39.5925L37.023 37.2975C37.083 37.0155 37.3005 36.795 37.5795 36.7275C38.2875 36.5565 38.9775 36.2685 39.63 35.871C39.8715 35.721 40.182 35.7255 40.4235 35.8785L41.9085 36.828L42.828 35.901L41.8785 34.428C41.7225 34.1865 41.7195 33.876 41.868 33.6315C42.2655 32.979 42.5535 32.289 42.723 31.581C42.7905 31.302 43.0095 31.086 43.29 31.023L45 30.6435V29.358L43.2915 28.9785C43.011 28.9155 42.792 28.6995 42.7245 28.4205C42.555 27.7125 42.2655 27.0225 41.8695 26.37C41.7195 26.1255 41.7225 25.8165 41.8785 25.575L42.8295 24.0885L41.9115 23.1705L40.425 24.1215C40.1835 24.276 39.8745 24.279 39.6315 24.129C38.9775 23.7315 38.2875 23.4435 37.581 23.2725C37.3005 23.205 37.0845 22.983 37.0245 22.7025L36.6555 21H36C35.586 21 35.25 20.664 35.25 20.25C35.25 19.836 35.586 19.5 36 19.5H37.26C37.6125 19.5 37.9185 19.7475 37.992 20.0925L38.3925 21.942C38.9415 22.1085 39.48 22.3335 39.999 22.614L41.61 21.5835C41.907 21.3945 42.294 21.4365 42.5445 21.6855L44.316 23.4555C44.565 23.7045 44.607 24.093 44.4165 24.39L43.386 26.001C43.6665 26.5215 43.8915 27.06 44.058 27.6105L45.9105 28.0215C46.2555 28.098 46.5 28.404 46.5 28.755V31.245C46.5 31.596 46.2555 31.902 45.912 31.977L44.0595 32.388C43.893 32.9385 43.668 33.477 43.3875 33.996L44.4165 35.592C44.6085 35.8875 44.568 36.2775 44.319 36.5265L42.5475 38.3115C42.297 38.562 41.9085 38.604 41.6115 38.415L40.0005 37.3845C39.48 37.665 38.943 37.89 38.394 38.0565L37.9935 39.906C37.917 40.26 37.605 40.5 37.2615 40.5Z" fill="#00AA25"/>
<path d="M38.0863 33.867C37.8463 33.867 37.6093 33.75 37.4638 33.5355C37.2328 33.192 37.3243 32.7255 37.6693 32.4945C38.5018 31.9335 38.9998 31.0005 38.9998 30C38.9998 28.3455 37.6543 27 35.9998 27C35.7958 27 35.5933 27.021 35.3998 27.06C34.9978 27.141 34.5973 26.883 34.5133 26.475C34.4308 26.0685 34.6918 25.6725 35.0983 25.59C35.3923 25.5315 35.6953 25.5 35.9998 25.5C38.4808 25.5 40.4998 27.519 40.4998 30C40.4998 31.5015 39.7543 32.8995 38.5033 33.7395C38.3758 33.825 38.2303 33.867 38.0863 33.867Z" fill="#00AA25"/>
<path d="M12 22.5C9.519 22.5 7.5 20.481 7.5 18C7.5 16.4925 8.25 15.093 9.507 14.253C9.8475 14.025 10.3155 14.115 10.5465 14.4615C10.776 14.805 10.683 15.2715 10.338 15.501C9.501 16.062 9 16.995 9 18C9 19.6545 10.3455 21 12 21C12.201 21 12.399 20.9805 12.588 20.9415C12.9855 20.859 13.389 21.1215 13.4715 21.5295C13.554 21.936 13.29 22.3305 12.8835 22.4115C12.597 22.47 12.303 22.5 12 22.5Z" fill="#00AA25"/>
<path d="M12 28.5H10.74C10.3875 28.5 10.0815 28.2525 10.008 27.9075L9.6075 26.058C9.0585 25.8915 8.52 25.6665 8.001 25.386L6.39 26.4165C6.0915 26.6055 5.706 26.565 5.4555 26.3145L3.684 24.5445C3.435 24.2955 3.393 23.907 3.5835 23.61L4.614 21.999C4.3335 21.4785 4.1085 20.94 3.942 20.3895L2.0895 19.9785C1.7445 19.902 1.5 19.596 1.5 19.245V16.755C1.5 16.404 1.7445 16.098 2.088 16.023L3.9405 15.612C4.107 15.0615 4.332 14.523 4.6125 14.004L3.585 12.4065C3.393 12.111 3.4335 11.721 3.6825 11.472L5.454 9.68704C5.7015 9.43504 6.0915 9.39304 6.39 9.58354L8.001 10.614C8.5215 10.3335 9.0585 10.1085 9.6075 9.94204L10.008 8.09254C10.095 7.68604 10.5015 7.42804 10.899 7.51804C11.304 7.60504 11.5605 8.00404 11.4735 8.40904L10.9785 10.704C10.9185 10.986 10.701 11.2065 10.422 11.274C9.714 11.445 9.024 11.733 8.37 12.1305C8.127 12.2805 7.818 12.276 7.5765 12.123L6.0915 11.1735L5.1705 12.1005L6.12 13.5735C6.2775 13.815 6.2805 14.1255 6.1305 14.37C5.733 15.0225 5.445 15.7125 5.2755 16.4205C5.208 16.6995 4.989 16.9155 4.7085 16.9785L3 17.3565V18.642L4.7085 19.0215C4.989 19.0845 5.208 19.3005 5.2755 19.5795C5.445 20.2875 5.7345 20.9775 6.1305 21.63C6.2805 21.8745 6.2775 22.1835 6.1215 22.425L5.1705 23.91L6.0885 24.828L7.575 23.877C7.8165 23.724 8.127 23.721 8.3685 23.8695C9.0225 24.267 9.7125 24.555 10.419 24.726C10.6995 24.7935 10.9155 25.0155 10.9755 25.296L11.3445 27H12C12.414 27 12.75 27.336 12.75 27.75C12.75 28.164 12.414 28.5 12 28.5Z" fill="#00AA25"/>
<path d="M23.2497 27.75C23.1897 27.75 23.1297 27.7425 23.0682 27.7275C22.6647 27.627 22.4217 27.2205 22.5222 26.8185L24.0222 20.8185C24.1212 20.415 24.5217 20.172 24.9312 20.2725C25.3347 20.373 25.5777 20.7795 25.4772 21.1815L23.9772 27.1815C23.8932 27.5235 23.5872 27.75 23.2497 27.75Z" fill="#00AA25"/>
<path d="M27.7499 27.7501C27.5579 27.7501 27.3659 27.6766 27.2189 27.5311C26.9264 27.2386 26.9264 26.7631 27.2189 26.4706L29.6894 24.0001L27.2204 21.5311C26.9279 21.2386 26.9279 20.7631 27.2204 20.4706C27.5129 20.1781 27.9884 20.1781 28.2809 20.4706L31.2809 23.4706C31.5734 23.7631 31.5734 24.2386 31.2809 24.5311L28.2809 27.5311C28.1339 27.6766 27.9419 27.7501 27.7499 27.7501Z" fill="#00AA25"/>
<path d="M20.2499 27.7501C20.0579 27.7501 19.8659 27.6766 19.7189 27.5311L16.7189 24.5311C16.4264 24.2386 16.4264 23.7631 16.7189 23.4706L19.7189 20.4706C20.0114 20.1781 20.4869 20.1781 20.7794 20.4706C21.0719 20.7631 21.0719 21.2386 20.7794 21.5311L18.3104 24.0001L20.7794 26.4691C21.0719 26.7616 21.0719 27.2371 20.7794 27.5296C20.6339 27.6766 20.4419 27.7501 20.2499 27.7501Z" fill="#00AA25"/>
</svg>
