<svg width="48" height="48" viewBox="0 0 48 48" fill="none" xmlns="http://www.w3.org/2000/svg">
<g clip-path="url(#clip0_363_192)">
<path d="M47.2733 30.9345H0.726562V3.35623C0.726562 1.89093 1.91437 0.703125 3.37967 0.703125H44.6202C46.0855 0.703125 47.2734 1.89093 47.2734 3.35623L47.2733 30.9345Z" stroke="#2003D0" stroke-width="1.5" stroke-miterlimit="10" stroke-linecap="round" stroke-linejoin="round"/>
<path d="M44.6202 38.237H3.37967C1.91437 38.237 0.726562 37.0492 0.726562 35.5839V30.9344H47.2733V35.584C47.2734 37.0492 46.0855 38.237 44.6202 38.237Z" stroke="#2003D0" stroke-width="1.5" stroke-miterlimit="10" stroke-linecap="round" stroke-linejoin="round"/>
<path d="M29.0402 44.1655V47.297H18.9595V38.2371H29.0402V40.8635" stroke="#2003D0" stroke-width="1.5" stroke-miterlimit="10" stroke-linecap="round" stroke-linejoin="round"/>
<path d="M15.543 47.2823H32.4563" stroke="#2003D0" stroke-width="1.5" stroke-miterlimit="10" stroke-linecap="round" stroke-linejoin="round"/>
<path d="M22.5962 34.5858H25.4033" stroke="#2003D0" stroke-width="1.5" stroke-miterlimit="10" stroke-linecap="round" stroke-linejoin="round"/>
<path d="M23.8452 21.3705C21.9868 24.3616 18.6713 26.3532 14.8908 26.3532C9.07279 26.3532 4.35645 21.6368 4.35645 15.8188C4.35645 13.4432 5.14282 11.2513 6.46937 9.48914" stroke="#2003D0" stroke-width="1.5" stroke-miterlimit="10" stroke-linecap="round" stroke-linejoin="round"/>
<path d="M8.79639 7.22533C10.5167 6.00302 12.6199 5.28442 14.8909 5.28442C18.721 5.28442 22.0737 7.32846 23.9177 10.3853" stroke="#2003D0" stroke-width="1.5" stroke-miterlimit="10" stroke-linecap="round" stroke-linejoin="round"/>
<path d="M18.7427 12.6792V18.9585" stroke="#2003D0" stroke-width="1.5" stroke-miterlimit="10" stroke-linecap="round" stroke-linejoin="round"/>
<path d="M11.0386 12.6792V17C11.0386 17.7359 11.4035 18.2312 12.0237 18.6274C12.3257 18.8204 12.7071 18.9578 13.1811 18.9585C13.5917 18.959 13.9347 18.864 14.2184 18.7211C14.941 18.3571 15.4018 17.8046 15.4018 16.9954V12.6791" stroke="#2003D0" stroke-width="1.5" stroke-miterlimit="10" stroke-linecap="round" stroke-linejoin="round"/>
<path d="M33.1091 26.3531C38.927 26.3531 43.6434 21.6367 43.6434 15.8188C43.6434 10.0008 38.927 5.28442 33.1091 5.28442C27.2911 5.28442 22.5747 10.0008 22.5747 15.8188C22.5747 21.6367 27.2911 26.3531 33.1091 26.3531Z" stroke="#2003D0" stroke-width="1.5" stroke-miterlimit="10" stroke-linecap="round" stroke-linejoin="round"/>
<path d="M34.5815 12.6792L38.9989 18.9585" stroke="#2003D0" stroke-width="1.5" stroke-miterlimit="10" stroke-linecap="round" stroke-linejoin="round"/>
<path d="M38.6882 12.6792L34.2646 18.9585" stroke="#2003D0" stroke-width="1.5" stroke-miterlimit="10" stroke-linecap="round" stroke-linejoin="round"/>
<path d="M27.2188 12.6792V17C27.2188 17.7359 27.5837 18.2312 28.2039 18.6274C28.5058 18.8204 28.8873 18.9578 29.3613 18.9585C29.7718 18.959 30.1149 18.864 30.3986 18.7211C31.1212 18.3571 31.582 17.8046 31.582 16.9954V12.6791" stroke="#2003D0" stroke-width="1.5" stroke-miterlimit="10" stroke-linecap="round" stroke-linejoin="round"/>
</g>
<defs>
<clipPath id="clip0_363_192">
<rect width="48" height="48" fill="white"/>
</clipPath>
</defs>
</svg>
