<svg width="48" height="48" viewBox="0 0 48 48" fill="none" xmlns="http://www.w3.org/2000/svg">
<path d="M9.74854 1.49902C8.51504 1.49902 7.5 2.51406 7.5 3.74759V27.7476C7.5 28.7486 9.00146 28.7486 9.00146 27.7476V9.00199H38.9971V27.7476C38.9744 28.7703 40.52 28.7703 40.4971 27.7476V3.74759C40.4971 2.51406 39.4835 1.49902 38.25 1.49902H9.74854ZM9.74854 3.00052H38.25C38.6785 3.00052 38.9971 3.3191 38.9971 3.74759V7.5005H9.00146V3.74759C9.00146 3.3191 9.32008 3.00052 9.74854 3.00052ZM11.25 4.49907C10.8358 4.49907 10.5 4.83488 10.5 5.24908C10.5 5.66331 10.8358 5.99901 11.25 5.99901C11.6642 5.99901 12 5.66331 12 5.24908C12 4.83488 11.6642 4.49907 11.25 4.49907ZM14.25 4.49907C13.8358 4.49907 13.5 4.83488 13.5 5.24908C13.5 5.66331 13.8358 5.99901 14.25 5.99901C14.6642 5.99901 15 5.66331 15 5.24908C15 4.83488 14.6642 4.49907 14.25 4.49907ZM17.25 4.49907C16.8358 4.49907 16.5 4.83488 16.5 5.24908C16.5 5.66331 16.8358 5.99901 17.25 5.99901C17.6642 5.99901 18 5.66331 18 5.24908C18 4.83488 17.6642 4.49907 17.25 4.49907ZM27.7119 4.50054C26.6993 4.56942 26.7684 6.02537 27.7471 6.00056H36.75C37.7281 5.97789 37.7281 4.52223 36.75 4.50054H27.7119ZM3.75293 6.00056C2.51941 6.00056 1.5 7.01413 1.5 8.24766V35.249C1.5 36.4826 2.51941 37.4976 3.75293 37.4976H44.2515C45.485 37.4976 46.5 36.4826 46.5 35.249V8.24757C46.5 7.01405 45.485 6.00048 44.2515 6.00048H42.7515C41.729 5.9778 41.729 7.52318 42.7515 7.5005H44.2515C44.6799 7.5005 44.9985 7.81908 44.9985 8.24757V30.0005H3V8.24757C3 7.81908 3.32447 7.5005 3.75293 7.5005H5.24707C6.2695 7.52318 6.2695 5.9778 5.24707 6.00048L3.75293 6.00056ZM26.2588 11.9873C25.9291 11.9851 25.6366 12.1986 25.5381 12.5133L21.0366 26.0118C20.7192 26.961 22.1431 27.4371 22.4605 26.4878L26.9619 12.9849C27.1317 12.4993 26.7732 11.9907 26.2588 11.9873ZM29.5195 16.3233L33.3281 19.5005L29.5195 22.6734C28.7058 23.3105 29.7106 24.5127 30.4819 23.8248L34.9775 20.0762C35.3365 19.7764 35.3365 19.2247 34.9775 18.9249L30.4819 15.1705C30.3475 15.0554 30.1769 14.9916 29.9619 14.9919C29.253 15.054 28.9959 15.8995 29.5195 16.3233ZM17.981 14.9933C17.812 14.9989 17.65 15.0613 17.521 15.1704L13.021 18.9248C12.662 19.2247 12.662 19.7763 13.021 20.0761L17.521 23.8247C18.2949 24.5455 19.3285 23.3033 18.479 22.6733L14.6704 19.5004L18.479 16.3232C19.0332 15.8695 18.6969 14.9714 17.981 14.9933ZM3 31.502H44.9985V35.249C44.9985 35.6775 44.6799 35.9961 44.2515 35.9961H3.75293C3.32447 35.9961 3 35.6775 3 35.249V31.502ZM25.541 33.0005L22.4634 33.002C21.5074 33.1163 21.5716 34.4706 22.4986 34.4962H25.5C26.53 34.5871 26.6157 33.0212 25.541 33.0005ZM19.793 38.939C19.4919 38.9333 19.2162 39.1068 19.0928 39.3814C18.7316 40.156 18.0846 41.0606 16.9673 41.9976H15.75C14.5165 41.9976 13.5029 43.0185 13.5029 44.252V45.7462C13.5014 46.1604 13.8358 46.4974 14.25 46.499H33.7485C34.165 46.5005 34.5031 46.1626 34.5015 45.7462V44.252C34.5015 43.0185 33.4821 41.9976 32.2485 41.9976H31.0327C29.9155 41.0606 29.2684 40.1559 28.9072 39.3814C28.7802 39.0996 28.4936 38.9246 28.1851 38.9404C27.6493 38.9688 27.3146 39.5325 27.5478 40.0157C27.8402 40.6428 28.2867 41.3154 28.8882 41.9976H19.1118C19.7133 41.3154 20.1598 40.6428 20.4521 40.0157C20.6903 39.5238 20.3393 38.9506 19.793 38.939ZM15.75 43.4991H32.2485C32.677 43.4991 33.0015 43.8235 33.0015 44.252V44.9991H15.0029V44.252C15.0029 43.8235 15.3215 43.4991 15.75 43.4991Z" fill="#0487FF"/>
</svg>
