<svg width="48" height="48" viewBox="0 0 48 48" fill="none" xmlns="http://www.w3.org/2000/svg">
<g clip-path="url(#clip0_363_52)">
<path d="M24.0319 30.9225C20.1718 30.9225 17.0312 27.8447 17.0312 24.0608C17.0312 20.2769 20.1718 17.1987 24.0319 17.1987C24.5792 17.1987 25.2462 17.3334 25.2021 18.0341C25.1599 18.703 24.5537 18.7471 24.0319 18.7471C21.0253 18.7471 18.5796 21.1309 18.5796 24.0608C18.5796 26.9907 21.0253 29.3741 24.0319 29.3741C27.0385 29.3741 29.4842 26.9903 29.4842 24.0608C29.4842 23.2045 29.2821 22.3878 28.8834 21.6325C28.6836 21.2547 28.8284 20.7863 29.2062 20.5866C29.584 20.3869 30.0532 20.5309 30.2525 20.9098C30.7627 21.876 31.0325 22.9657 31.0325 24.0608C31.0325 27.8447 27.8924 30.9225 24.0319 30.9225Z" fill="#009280"/>
<path d="M27.7239 19.9331C27.5671 19.9331 27.4088 19.8855 27.2717 19.7868C27.067 19.6393 26.8494 19.5042 26.6253 19.3854C26.2471 19.1852 26.1031 18.7172 26.3028 18.339C26.5026 17.9616 26.971 17.8165 27.3492 18.017C27.6364 18.1691 27.9151 18.3418 28.1775 18.531C28.7721 18.9596 28.4578 19.9331 27.7239 19.9331Z" fill="#009280"/>
<path d="M45.0868 11.8471L45.0593 8.48592C45.0558 8.0605 44.7097 7.71831 44.2851 7.71831C44.2828 7.71831 44.2808 7.71831 44.2785 7.71831C43.8511 7.72179 43.507 8.07134 43.5105 8.4987L43.5186 9.5187C38.8708 3.98399 31.4257 0.387085 24.2846 0.387085C16.9003 0.387085 10.0649 3.69444 5.53398 9.46025C5.26998 9.79625 5.32843 10.2828 5.66443 10.5468C6.00082 10.8112 6.4874 10.7528 6.75179 10.4164C10.9874 5.02644 17.378 1.93547 24.2846 1.93547C31.2268 1.93547 38.4767 5.56102 42.7928 11.0799H40.668C40.2407 11.0799 39.8938 11.4263 39.8938 11.8541C39.8938 12.2814 40.2407 12.6282 40.668 12.6282H44.3126C44.5622 12.6279 45.0868 12.3495 45.0868 11.8471Z" fill="#009280"/>
<path d="M46.4273 15.3933C46.2725 14.9953 45.8234 14.7979 45.4251 14.9531C45.0268 15.108 44.8294 15.557 44.9846 15.9557C45.9581 18.4537 46.4517 21.0902 46.4517 23.7921C46.4517 32.2815 40.538 40.4334 32.1117 43.9432L32.6885 43.0606C32.9223 42.7029 32.8216 42.2229 32.4639 41.9895C32.1059 41.7561 31.6263 41.856 31.3921 42.214L29.5456 45.0391C29.2886 45.4312 29.4539 45.982 29.8812 46.1709L32.9919 47.5428C33.9051 47.9435 34.5303 46.5294 33.6167 46.126L32.2932 45.5427C36.3558 43.9297 40.0387 41.2471 42.8103 37.8488C46.2059 33.6851 48.0001 28.8248 48.0001 23.7921C48.0001 20.897 47.4709 18.0716 46.4273 15.3933C47.4709 18.0716 46.2721 14.9949 46.4273 15.3933Z" fill="#009280"/>
<path d="M25.2031 45.6302C24.8984 45.6422 24.5922 45.6484 24.2845 45.6484C12.0615 45.6484 2.11738 35.844 2.11738 23.7922C2.11738 21.66 3.01351 18.9933 3.86744 16.7423L4.55028 18.2532C4.96254 19.1644 6.37196 18.5238 5.96164 17.616L4.51815 14.4225C4.34047 14.03 3.85157 13.8562 3.46602 14.0489L0.4277 15.5706C0.0452489 15.7618 -0.109203 16.2271 0.082023 16.6092C0.273636 16.9916 0.7397 17.1469 1.12099 16.9545L2.36783 16.3301C1.48447 18.672 0.569378 21.4483 0.569378 23.7918C0.569378 36.6968 11.208 47.196 24.2849 47.196C24.6131 47.196 24.9398 47.1891 25.2646 47.1763C25.692 47.1596 26.0245 46.7993 26.0074 46.3723C25.9904 45.9453 25.6292 45.614 25.2031 45.6302C25.6292 45.614 24.8988 45.6422 25.2031 45.6302Z" fill="#009280"/>
<path d="M25.2392 39.48C24.4793 39.48 22.2268 39.4889 21.8761 39.3395C21.2722 39.0824 20.7798 38.4271 20.7798 37.7551V36.2129C19.6131 35.9071 18.4863 35.431 17.4659 34.8128L16.382 35.8943C15.7015 36.5663 14.5414 36.4537 13.8883 35.8289C13.5694 35.5235 12.3276 34.2553 12.0403 33.9217C11.428 33.2098 11.4415 32.1066 12.1108 31.4384L13.2016 30.3503C12.5637 29.2633 12.0984 28.121 11.8336 26.9911H10.3069C9.35505 26.9911 8.56847 26.2091 8.51621 25.2658C8.49183 24.8249 8.50344 23.0462 8.51621 22.6033C8.54254 21.691 9.28073 20.8146 10.2434 20.8146H11.7911C12.0972 19.6513 12.5738 18.5276 13.1931 17.5107L12.1112 16.4311C11.4341 15.7541 11.5514 14.5889 12.1766 13.9386C12.4828 13.6204 13.754 12.3809 14.0881 12.0948C14.8003 11.4851 15.9036 11.4987 16.5725 12.1653L17.6649 13.2553C18.7545 12.6182 19.9003 12.1537 21.0338 11.8889V10.3045C21.0338 9.35224 21.8188 8.56837 22.761 8.51573C23.2027 8.49134 24.9856 8.50179 25.4296 8.51573C26.3947 8.54592 27.1569 9.33444 27.1569 10.3045V11.8467C28.3236 12.1525 29.4504 12.6282 30.4708 13.2468L31.5547 12.1653C32.2336 11.491 33.3969 11.6075 34.0483 12.2311C34.3673 12.5365 35.6091 13.8042 35.896 14.1379C36.5083 14.8502 36.4948 15.953 35.8251 16.6211L34.7347 17.7093C35.3726 18.7959 35.8375 19.9378 36.1027 21.0681H37.6294C38.5592 21.0681 39.3825 21.756 39.4778 22.6974C39.5238 23.153 39.4971 25.0006 39.484 25.4562C39.4576 26.369 38.7202 27.2446 37.7567 27.2446H36.2091C35.9029 28.4079 35.4264 29.5312 34.8071 30.5489L35.889 31.6281C36.5664 32.3055 36.4487 33.4707 35.8236 34.121C35.5174 34.4392 34.2465 35.6783 33.9121 35.9644C33.1994 36.5744 32.097 36.5617 31.4277 35.8943L30.3353 34.8042C29.2456 35.441 28.1002 35.9059 26.9664 36.1707V37.6916C26.9664 38.6044 26.1821 39.48 25.2392 39.48ZM22.3278 37.6935C22.3445 37.7721 22.3998 37.9316 22.5701 37.9316H25.178C25.2574 37.915 25.418 37.86 25.418 37.6912V35.5359C25.418 35.1577 25.6917 34.8344 26.0652 34.7725C27.3849 34.553 28.7552 34.0002 30.0283 33.1746C30.3345 32.976 30.7383 33.0186 30.9965 33.276L32.5212 34.7977C32.644 34.9204 32.8085 34.848 32.8859 34.8023L34.7409 33.0131C34.8516 32.9028 34.7846 32.7461 34.7389 32.6679L33.2703 31.2023C33.0059 30.9387 32.9676 30.5241 33.1785 30.2164C33.9616 29.0741 34.5512 27.6875 34.8384 26.3113C34.9135 25.9525 35.2298 25.6955 35.5963 25.6955H37.696C37.7749 25.6792 37.9356 25.6246 37.9356 25.4559V22.8522C37.9038 22.6955 37.8009 22.6161 37.6294 22.6161H35.469C35.0904 22.6161 34.7676 22.3428 34.7052 21.9693C34.4858 20.6535 33.9318 19.2871 33.1046 18.017C32.9045 17.7101 32.947 17.3051 33.2064 17.0462L34.7312 15.5245C34.8516 15.4045 34.7807 15.2423 34.7358 15.1653L32.9428 13.3146C32.8305 13.2031 32.671 13.2704 32.5917 13.3161L31.1227 14.7821C30.8594 15.0449 30.4464 15.0832 30.1394 14.873C28.9948 14.0922 27.6043 13.5035 26.2243 13.2166C25.8651 13.1423 25.6077 12.8253 25.6077 12.4587V10.3033C25.6077 10.1543 25.5036 10.063 25.4289 10.063H22.821C22.7416 10.0796 22.581 10.1346 22.581 10.3033V12.5222C22.581 12.9004 22.3073 13.2236 21.9338 13.2855C20.6145 13.505 19.2442 14.0574 17.9707 14.8831C17.6645 15.0824 17.2611 15.0395 17.0029 14.7817L15.4781 13.2604C15.3558 13.1381 15.1909 13.2101 15.1135 13.2553L13.2585 15.0445C13.1478 15.1548 13.2148 15.3116 13.2605 15.3898L14.7291 16.8557C14.9935 17.1197 15.0318 17.5339 14.8209 17.8417C14.0381 18.9832 13.4486 20.3702 13.161 21.7463C13.0859 22.1051 12.7696 22.3622 12.4031 22.3622H10.3046C10.2252 22.3792 10.0646 22.4338 10.0646 22.603V25.2042C10.0812 25.2828 10.1366 25.4423 10.3069 25.4423H12.4673C12.8459 25.4423 13.1687 25.716 13.2311 26.0891C13.4505 27.4045 14.0041 28.7713 14.8317 30.0418C15.0318 30.3488 14.9892 30.7537 14.7299 31.0126L13.2051 32.5339C13.0847 32.6543 13.1556 32.8165 13.2005 32.8935L14.9935 34.7442C15.1058 34.8561 15.2652 34.7888 15.3446 34.7423L16.8136 33.2764C17.0765 33.0135 17.4899 32.9752 17.7972 33.1854C18.9415 33.9666 20.3316 34.5553 21.712 34.8422C22.0712 34.9165 22.3286 35.2335 22.3286 35.6001V37.6935H22.3278Z" fill="#009280"/>
</g>
<defs>
<clipPath id="clip0_363_52">
<rect width="48" height="48" fill="white"/>
</clipPath>
</defs>
</svg>
