<svg width="480" height="480" viewBox="0 0 480 480" fill="none" xmlns="http://www.w3.org/2000/svg">
<g clip-path="url(#clip0_518_756)">
<g clip-path="url(#clip1_518_756)">
<rect width="480" height="480" rx="24" fill="#E6F3FF"/>
<g clip-path="url(#clip2_518_756)">
<path d="M216.85 143.342C216.581 143.342 216.358 143.118 216.358 142.85V138.15C216.358 137.837 216.581 137.613 216.85 137.613C217.163 137.613 217.387 137.837 217.387 138.15V142.85C217.387 143.118 217.163 143.342 216.85 143.342ZM216.85 133.495C216.581 133.495 216.358 133.226 216.358 132.958V127.766C216.358 127.452 216.581 127.229 216.85 127.229C217.163 127.229 217.387 127.452 217.387 127.766V132.958C217.387 133.226 217.163 133.495 216.85 133.495ZM216.85 123.066C216.581 123.066 216.358 122.842 216.358 122.574V117.382C216.358 117.068 216.581 116.844 216.85 116.844C217.163 116.844 217.387 117.068 217.387 117.382V122.574C217.387 122.842 217.163 123.066 216.85 123.066ZM216.85 112.682C216.581 112.682 216.358 112.458 216.358 112.19V110.936H213.403C213.135 110.936 212.911 110.712 212.911 110.444C212.911 110.131 213.135 109.907 213.403 109.907H216.85C217.163 109.907 217.387 110.131 217.387 110.444V112.19C217.387 112.458 217.163 112.682 216.85 112.682ZM208.211 110.936H203.019C202.751 110.936 202.527 110.712 202.527 110.444C202.527 110.131 202.751 109.907 203.019 109.907H208.211C208.525 109.907 208.748 110.131 208.748 110.444C208.748 110.712 208.525 110.936 208.211 110.936ZM197.827 110.936H192.635C192.366 110.936 192.143 110.712 192.143 110.444C192.143 110.131 192.366 109.907 192.635 109.907H197.827C198.14 109.907 198.364 110.131 198.364 110.444C198.364 110.712 198.14 110.936 197.827 110.936ZM187.443 110.936H182.251C181.982 110.936 181.758 110.712 181.758 110.444C181.758 110.131 181.982 109.907 182.251 109.907H187.443C187.756 109.907 187.98 110.131 187.98 110.444C187.98 110.712 187.756 110.936 187.443 110.936ZM177.059 110.936H171.867C171.598 110.936 171.33 110.712 171.33 110.444C171.33 110.131 171.598 109.907 171.867 109.907H177.059C177.372 109.907 177.596 110.131 177.596 110.444C177.596 110.712 177.372 110.936 177.059 110.936ZM166.675 110.936H161.482C161.214 110.936 160.945 110.712 160.945 110.444C160.945 110.131 161.214 109.907 161.482 109.907H166.675C166.988 109.907 167.212 110.131 167.212 110.444C167.212 110.712 166.988 110.936 166.675 110.936ZM156.29 110.936H151.098C150.83 110.936 150.561 110.712 150.561 110.444C150.561 110.131 150.83 109.907 151.098 109.907H156.29C156.559 109.907 156.827 110.131 156.827 110.444C156.827 110.712 156.559 110.936 156.29 110.936ZM145.906 110.936H140.714C140.401 110.936 140.177 110.712 140.177 110.444C140.177 110.131 140.401 109.907 140.714 109.907H145.906C146.175 109.907 146.443 110.131 146.443 110.444C146.443 110.712 146.175 110.936 145.906 110.936ZM135.522 110.936H130.33C130.017 110.936 129.793 110.712 129.793 110.444C129.793 110.131 130.017 109.907 130.33 109.907H135.522C135.791 109.907 136.059 110.131 136.059 110.444C136.059 110.712 135.791 110.936 135.522 110.936ZM125.138 110.936H119.946C119.632 110.936 119.409 110.712 119.409 110.444C119.409 110.131 119.632 109.907 119.946 109.907H125.138C125.406 109.907 125.675 110.131 125.675 110.444C125.675 110.712 125.406 110.936 125.138 110.936ZM114.754 110.936H109.562C109.248 110.936 109.024 110.712 109.024 110.444C109.024 110.131 109.248 109.907 109.562 109.907H114.754C115.022 109.907 115.246 110.131 115.246 110.444C115.246 110.712 115.022 110.936 114.754 110.936Z" fill="#263238"/>
<path d="M290.748 182.999H289.405C289.137 182.999 288.868 182.775 288.868 182.507C288.868 182.193 289.137 181.969 289.405 181.969H290.256V178.657C290.256 178.389 290.479 178.12 290.748 178.12C291.061 178.12 291.285 178.389 291.285 178.657V182.507C291.285 182.775 291.061 182.999 290.748 182.999ZM284.213 182.999H279.021C278.752 182.999 278.484 182.775 278.484 182.507C278.484 182.193 278.752 181.969 279.021 181.969H284.213C284.526 181.969 284.75 182.193 284.75 182.507C284.75 182.775 284.526 182.999 284.213 182.999ZM273.829 182.999H268.637C268.368 182.999 268.1 182.775 268.1 182.507C268.1 182.193 268.368 181.969 268.637 181.969H273.829C274.097 181.969 274.366 182.193 274.366 182.507C274.366 182.775 274.097 182.999 273.829 182.999ZM263.445 182.999H258.253C257.984 182.999 257.715 182.775 257.715 182.507C257.715 182.193 257.984 181.969 258.253 181.969H263.445C263.713 181.969 263.982 182.193 263.982 182.507C263.982 182.775 263.713 182.999 263.445 182.999ZM253.06 182.999H247.868C247.555 182.999 247.331 182.775 247.331 182.507C247.331 182.193 247.555 181.969 247.868 181.969H253.06C253.329 181.969 253.598 182.193 253.598 182.507C253.598 182.775 253.329 182.999 253.06 182.999ZM242.676 182.999H237.484C237.171 182.999 236.947 182.775 236.947 182.507C236.947 182.193 237.171 181.969 237.484 181.969H242.676C242.945 181.969 243.213 182.193 243.213 182.507C243.213 182.775 242.945 182.999 242.676 182.999ZM232.292 182.999H227.1C226.787 182.999 226.563 182.775 226.563 182.507C226.563 182.193 226.787 181.969 227.1 181.969H232.292C232.561 181.969 232.784 182.193 232.784 182.507C232.784 182.775 232.561 182.999 232.292 182.999ZM221.908 182.999H216.716C216.403 182.999 216.179 182.775 216.179 182.507C216.179 182.193 216.403 181.969 216.716 181.969H221.908C222.176 181.969 222.4 182.193 222.4 182.507C222.4 182.775 222.176 182.999 221.908 182.999ZM290.748 174.002C290.479 174.002 290.256 173.734 290.256 173.465V168.273C290.256 167.96 290.479 167.736 290.748 167.736C291.061 167.736 291.285 167.96 291.285 168.273V173.465C291.285 173.734 291.061 174.002 290.748 174.002ZM290.748 163.618C290.479 163.618 290.256 163.349 290.256 163.081V157.889C290.256 157.576 290.479 157.352 290.748 157.352C291.061 157.352 291.285 157.576 291.285 157.889V163.081C291.285 163.349 291.061 163.618 290.748 163.618ZM290.748 153.189C290.479 153.189 290.256 152.965 290.256 152.697V147.505C290.256 147.191 290.479 146.968 290.748 146.968C291.061 146.968 291.285 147.191 291.285 147.505V152.697C291.285 152.965 291.061 153.189 290.748 153.189ZM290.748 142.805C290.479 142.805 290.256 142.581 290.256 142.313V137.12C290.256 136.807 290.479 136.583 290.748 136.583C291.061 136.583 291.285 136.807 291.285 137.12V142.313C291.285 142.581 291.061 142.805 290.748 142.805ZM290.748 132.421C290.479 132.421 290.256 132.197 290.256 131.928V126.736C290.256 126.423 290.479 126.199 290.748 126.199C291.061 126.199 291.285 126.423 291.285 126.736V131.928C291.285 132.197 291.061 132.421 290.748 132.421ZM290.748 122.037C290.479 122.037 290.256 121.813 290.256 121.544V116.352C290.256 116.039 290.479 115.815 290.748 115.815C291.061 115.815 291.285 116.039 291.285 116.352V121.544C291.285 121.813 291.061 122.037 290.748 122.037ZM290.748 111.652C290.479 111.652 290.256 111.429 290.256 111.16V105.968C290.256 105.655 290.479 105.431 290.748 105.431C291.061 105.431 291.285 105.655 291.285 105.968V111.16C291.285 111.429 291.061 111.652 290.748 111.652ZM290.748 101.268C290.479 101.268 290.256 101.044 290.256 100.731V95.539C290.256 95.2704 290.479 95.0466 290.748 95.0466C291.061 95.0466 291.285 95.2704 291.285 95.539V100.731C291.285 101.044 291.061 101.268 290.748 101.268ZM290.748 90.884C290.479 90.884 290.256 90.6602 290.256 90.3469V85.1548C290.256 84.8862 290.479 84.6624 290.748 84.6624C291.061 84.6624 291.285 84.8862 291.285 85.1548V90.3469C291.285 90.6602 291.061 90.884 290.748 90.884ZM290.748 80.4998C290.479 80.4998 290.256 80.276 290.256 79.9627V77.0086C290.256 76.6952 290.479 76.4714 290.748 76.4714C291.061 76.4714 291.285 76.6952 291.285 77.0086V79.9627C291.285 80.276 291.061 80.4998 290.748 80.4998Z" fill="#263238"/>
<path d="M103.072 284.11C102.803 284.11 102.534 283.887 102.534 283.618V278.426C102.534 278.113 102.803 277.889 103.072 277.889C103.34 277.889 103.609 278.113 103.609 278.426V283.618C103.609 283.887 103.34 284.11 103.072 284.11ZM103.072 273.726C102.803 273.726 102.534 273.502 102.534 273.234V268.042C102.534 267.729 102.803 267.505 103.072 267.505C103.34 267.505 103.609 267.729 103.609 268.042V273.234C103.609 273.502 103.34 273.726 103.072 273.726ZM103.072 263.342C102.803 263.342 102.534 263.118 102.534 262.85V257.658C102.534 257.344 102.803 257.121 103.072 257.121C103.34 257.121 103.609 257.344 103.609 257.658V262.85C103.609 263.118 103.34 263.342 103.072 263.342ZM103.072 252.958C102.803 252.958 102.534 252.734 102.534 252.466V247.273C102.534 246.96 102.803 246.736 103.072 246.736C103.34 246.736 103.609 246.96 103.609 247.273V252.466C103.609 252.734 103.34 252.958 103.072 252.958ZM103.072 242.574C102.803 242.574 102.534 242.35 102.534 242.081V236.889C102.534 236.576 102.803 236.352 103.072 236.352C103.34 236.352 103.609 236.576 103.609 236.889V242.081C103.609 242.35 103.34 242.574 103.072 242.574ZM103.072 232.19C102.803 232.19 102.534 231.966 102.534 231.652V226.46C102.534 226.192 102.803 225.968 103.072 225.968C103.34 225.968 103.609 226.192 103.609 226.46V231.652C103.609 231.966 103.34 232.19 103.072 232.19ZM103.072 221.805C102.803 221.805 102.534 221.582 102.534 221.268V216.076C102.534 215.808 102.803 215.584 103.072 215.584C103.34 215.584 103.609 215.808 103.609 216.076V221.268C103.609 221.582 103.34 221.805 103.072 221.805ZM103.072 211.421C102.803 211.421 102.534 211.197 102.534 210.884V205.692C102.534 205.423 102.803 205.2 103.072 205.2C103.34 205.2 103.609 205.423 103.609 205.692V210.884C103.609 211.197 103.34 211.421 103.072 211.421ZM184.757 208.154C184.265 208.154 184.041 207.93 184.041 207.617C184.041 207.348 184.265 207.08 184.578 207.08C185.071 207.08 185.295 207.348 185.295 207.617C185.295 207.93 185.071 208.154 184.757 208.154ZM179.386 208.154H174.194C173.881 208.154 173.657 207.93 173.657 207.617C173.657 207.348 173.881 207.08 174.194 207.08H179.386C179.655 207.08 179.879 207.348 179.879 207.617C179.879 207.93 179.655 208.154 179.386 208.154ZM169.002 208.154H163.81C163.497 208.154 163.273 207.93 163.273 207.617C163.273 207.348 163.497 207.08 163.81 207.08H169.002C169.271 207.08 169.495 207.348 169.495 207.617C169.495 207.93 169.271 208.154 169.002 208.154ZM158.573 208.154H153.381C153.113 208.154 152.889 207.93 152.889 207.617C152.889 207.348 153.113 207.08 153.381 207.08H158.573C158.887 207.08 159.11 207.348 159.11 207.617C159.11 207.93 158.887 208.154 158.573 208.154ZM148.726 207.617C148.458 207.617 148.234 207.393 148.234 207.08V201.887C148.234 201.619 148.458 201.395 148.726 201.395C149.04 201.395 149.263 201.619 149.263 201.887V207.08C149.263 207.393 149.04 207.617 148.726 207.617ZM103.072 201.037C102.803 201.037 102.534 200.813 102.534 200.5V195.308C102.534 195.039 102.803 194.815 103.072 194.815C103.34 194.815 103.609 195.039 103.609 195.308V200.5C103.609 200.813 103.34 201.037 103.072 201.037ZM148.726 197.232C148.458 197.232 148.234 197.009 148.234 196.695V191.503C148.234 191.235 148.458 191.011 148.726 191.011C149.04 191.011 149.263 191.235 149.263 191.503V196.695C149.263 197.009 149.04 197.232 148.726 197.232ZM103.072 190.653C102.803 190.653 102.534 190.429 102.534 190.116V184.924C102.534 184.655 102.803 184.431 103.072 184.431C103.34 184.431 103.609 184.655 103.609 184.924V190.116C103.609 190.429 103.34 190.653 103.072 190.653ZM148.726 186.848C148.458 186.848 148.234 186.624 148.234 186.311V182.999H147.383C147.07 182.999 146.846 182.775 146.846 182.507C146.846 182.193 147.07 181.969 147.383 181.969H148.726C149.04 181.969 149.263 182.193 149.263 182.507V186.311C149.263 186.624 149.04 186.848 148.726 186.848ZM142.191 182.999H136.999C136.686 182.999 136.462 182.775 136.462 182.507C136.462 182.193 136.686 181.969 136.999 181.969H142.191C142.46 181.969 142.684 182.193 142.684 182.507C142.684 182.775 142.46 182.999 142.191 182.999ZM131.807 182.999H126.615C126.302 182.999 126.078 182.775 126.078 182.507C126.078 182.193 126.302 181.969 126.615 181.969H131.807C132.076 181.969 132.299 182.193 132.299 182.507C132.299 182.775 132.076 182.999 131.807 182.999ZM121.423 182.999H116.231C115.918 182.999 115.694 182.775 115.694 182.507C115.694 182.193 115.918 181.969 116.231 181.969H121.423C121.691 181.969 121.915 182.193 121.915 182.507C121.915 182.775 121.691 182.999 121.423 182.999ZM111.039 182.999H105.802C105.533 182.999 105.31 182.775 105.31 182.507C105.31 182.193 105.533 181.969 105.802 181.969H111.039C111.307 181.969 111.531 182.193 111.531 182.507C111.531 182.775 111.307 182.999 111.039 182.999Z" fill="#263238"/>
<path d="M246.973 230.078H186.459C176.888 230.078 169.144 222.291 169.144 212.764V152.249C169.144 142.678 176.888 134.935 186.459 134.935H246.973C256.5 134.935 264.288 142.679 264.288 152.249V212.764C264.288 222.29 256.499 230.078 246.973 230.078Z" fill="#0487FF" stroke="#263238"/>
<path d="M268.593 241.699C268.612 241.646 268.629 241.601 268.643 241.563L284.141 231.677L300.75 258.903L301.037 259.374L301.477 259.042L316.827 247.474C330.192 244.935 342.261 249.142 352.57 257.343C362.917 265.573 371.473 277.816 377.726 291.237C383.978 304.655 387.913 319.219 389.04 332.059C390.169 344.927 388.47 355.956 383.583 362.406C376.179 372.167 362.203 377.843 347.821 380.146C333.444 382.448 318.822 381.355 310.233 377.734C270 360.764 259.601 326.76 259.273 296.9C259.108 281.967 261.465 268.091 263.866 257.944C265.066 252.872 266.276 248.734 267.185 245.866C267.64 244.433 268.02 243.316 268.285 242.559C268.418 242.181 268.522 241.892 268.593 241.699Z" fill="#E9E9E9" stroke="#263238"/>
<path d="M113.09 417.725H92.6951V351.989H113.09V417.725Z" fill="white" stroke="#263238"/>
<path d="M148.584 417.725H128.189V377.546H148.584V417.725Z" fill="white" stroke="#263238"/>
<path d="M183.676 417.725H163.281V392.093H183.676V417.725Z" fill="white" stroke="#263238"/>
<path d="M260.27 232.838L260.268 232.835C259.404 231.648 257.868 228.735 256.399 225.663C254.934 222.599 253.571 219.45 253.045 217.806C252.78 216.947 252.783 216.173 253.034 215.531C253.282 214.896 253.795 214.335 254.659 213.933V213.934L254.667 213.93C255.231 213.655 255.895 213.785 256.691 214.354C257.485 214.92 258.302 215.854 259.071 216.932C260.604 219.08 261.853 221.664 262.273 222.593L262.274 222.595C262.627 223.368 263.019 224.124 263.629 224.574C264.293 225.065 265.115 225.133 266.154 224.786L266.166 224.782C266.735 224.577 267.087 224.143 267.28 223.635C267.467 223.142 267.512 222.563 267.486 221.989C267.432 220.838 267.079 219.553 266.733 218.631C266.312 217.51 265.84 216.75 265.462 216.262C265.278 216.025 265.117 215.853 264.996 215.736C265.139 214.098 265.211 210.808 265.248 207.886C265.268 206.337 265.278 204.882 265.283 203.815C265.285 203.281 265.286 202.844 265.287 202.541V202.473C265.415 202.485 265.586 202.526 265.808 202.62C266.224 202.794 266.702 203.101 267.178 203.469C267.651 203.834 268.101 204.244 268.46 204.608C268.829 204.983 269.068 205.276 269.146 205.408L269.346 205.749L269.724 205.633C270.244 205.473 271.144 205.313 272.189 205.633C273.224 205.95 274.465 206.758 275.643 208.643C276.309 209.706 277.155 211.631 278.058 213.959C278.956 216.276 279.896 218.955 280.751 221.5C281.606 224.044 282.374 226.451 282.929 228.222C283.206 229.107 283.43 229.833 283.584 230.338C283.655 230.57 283.712 230.755 283.752 230.887C283.676 230.989 283.57 231.128 283.436 231.297C283.132 231.681 282.686 232.219 282.117 232.835C280.977 234.069 279.354 235.602 277.412 236.824C275.376 238.094 272.987 239.075 271.095 239.741C270.151 240.073 269.336 240.325 268.758 240.494C268.469 240.578 268.239 240.641 268.082 240.683C268.042 240.694 268.007 240.704 267.976 240.712C267.958 240.701 267.937 240.687 267.912 240.671C267.759 240.572 267.541 240.41 267.266 240.187C266.719 239.744 265.982 239.092 265.166 238.313C263.532 236.751 261.61 234.705 260.27 232.838Z" fill="white" stroke="#263238"/>
<path d="M274.276 219.254C272.128 210.794 269.263 205.379 269.263 205.334C269.98 205.02 272.889 210.526 274.679 218.762C274.321 219.209 274.321 219.254 274.276 219.254Z" fill="#263238"/>
<path d="M204.72 228.519L197.469 218.493C197.111 221.223 196.753 224.804 196.843 227.803L201.99 234.92L205.213 239.396L210.047 235.86L204.72 228.519Z" fill="#0487FF"/>
<path d="M210.046 235.86L205.212 239.396L206.913 241.723L211.747 238.232L210.046 235.86Z" fill="#263238"/>
<path d="M191.292 209.765L184.758 206.05L186.056 212.495C186.354 212.137 186.667 211.794 186.996 211.466C188.249 210.392 189.681 209.81 191.292 209.765Z" fill="#263238"/>
<path d="M204.444 227.285L197.874 218.2L197.137 217.181L196.973 218.428C196.614 221.165 196.252 224.778 196.343 227.818L196.347 227.971L196.437 228.096L204.746 239.604L206.103 245.812L184.71 252.397C184.689 252.353 184.667 252.304 184.642 252.251C184.481 251.902 184.248 251.388 183.966 250.731C183.402 249.419 182.64 247.54 181.85 245.279C180.275 240.769 178.596 234.758 178.145 228.689C178.153 228.652 178.161 228.614 178.169 228.576C178.516 226.978 179.151 224.048 180.244 221.231C180.812 219.767 181.497 218.351 182.318 217.176C183.141 215.999 184.079 215.093 185.144 214.606L185.295 214.537L185.375 214.392C185.688 213.822 186.044 213.296 186.44 212.814C186.725 212.473 187.023 212.146 187.335 211.833C188.484 210.854 189.797 210.308 192.063 210.265L192.218 210.262L192.344 210.172C192.904 209.772 193.521 209.549 194.112 209.549H194.12C195.302 209.53 196.076 210.161 196.608 211.019C197.15 211.893 197.405 212.958 197.512 213.647L197.538 213.812L197.659 213.929C198.32 214.568 199.896 216.155 201.376 218.23C202.861 220.312 204.213 222.833 204.491 225.346C204.545 225.966 204.529 226.624 204.444 227.285Z" fill="white" stroke="#263238"/>
<path d="M182.251 226.55C182.251 220.328 184.444 214.062 184.444 214.017C185.384 214.375 183.235 220.552 182.743 226.102C182.743 226.371 182.519 226.55 182.251 226.55Z" fill="#263238"/>
<path d="M189.771 225.565C190.084 218.09 191.561 209.765 191.561 209.676C192.501 209.944 191.069 218.225 190.263 225.118C190.218 225.386 189.994 225.565 189.771 225.565Z" fill="#263238"/>
<path d="M329.623 216.507L326.051 249.994C325.89 249.991 325.688 249.987 325.451 249.982C324.781 249.968 323.828 249.944 322.697 249.901C320.432 249.816 317.457 249.66 314.604 249.376C311.739 249.091 309.04 248.68 307.304 248.1C306.414 247.802 305.884 247.493 305.668 247.218C305.575 247.101 305.56 247.016 305.569 246.945C305.579 246.858 305.634 246.71 305.829 246.499C306.376 245.913 306.833 244.992 307.225 243.891C307.622 242.777 307.971 241.427 308.28 239.939C308.896 236.961 309.357 233.387 309.698 229.952C310.039 226.516 310.26 223.208 310.396 220.76C310.464 219.536 310.511 218.526 310.541 217.823C310.552 217.569 310.56 217.356 310.567 217.186L329.623 216.507Z" fill="white" stroke="#263238"/>
<path d="M272.8 389.743C271.86 398.471 269.308 413.957 267.697 418.702H381.61C381.61 418.702 375.343 390.727 378.521 359.888C385.638 290.153 372.479 252.465 331.3 239.978L307.533 237.292L272.8 389.743Z" fill="#F49370"/>
<path d="M380.856 417.538C380.908 417.798 380.954 418.02 380.992 418.202H268.381C269.165 415.592 270.117 410.886 270.993 405.801C271.949 400.25 272.821 394.2 273.294 389.825L307.921 237.839L331.199 240.469C351.619 246.674 365.069 259.105 372.555 278.644C380.06 298.234 381.58 324.995 378.024 359.837C376.43 375.302 377.205 390.043 378.377 400.913C378.963 406.35 379.648 410.821 380.188 413.934C380.457 415.491 380.69 416.709 380.856 417.538Z" fill="#E9E9E9" stroke="#263238"/>
<path d="M390.606 419.135H73.9335C73.1726 419.135 72.5012 418.917 72.5012 418.635C72.5012 418.37 73.1726 418.135 73.9335 418.135H390.606C391.412 418.135 392.039 418.37 392.039 418.635C392.039 418.917 391.412 419.135 390.606 419.135Z" fill="#263238"/>
<path d="M201.571 85.5499H186.253L193.932 73.5513L201.571 85.5499Z" fill="#52D180" stroke="#263238"/>
<path d="M358.961 127.542L365.048 121.5C365.675 120.828 365.675 119.799 365.048 119.172C364.377 118.501 363.347 118.501 362.676 119.172L356.634 125.215L350.546 119.172C349.92 118.501 348.845 118.501 348.219 119.172C347.592 119.799 347.592 120.828 348.219 121.5L354.306 127.542L348.219 133.629C347.592 134.256 347.592 135.33 348.219 135.957C348.532 136.27 348.98 136.449 349.382 136.449C349.83 136.449 350.233 136.27 350.546 135.957L356.634 129.914L362.676 135.957C363.034 136.27 363.437 136.449 363.84 136.449C364.287 136.449 364.69 136.27 365.048 135.957C365.675 135.33 365.675 134.256 365.048 133.629L358.961 127.542Z" fill="#0487FF"/>
<path fill-rule="evenodd" clip-rule="evenodd" d="M154.679 359.485C149.308 359.485 146.399 356.263 146.354 356.218C147.025 355.994 151.546 360.917 159.961 357.829C162.199 356.979 163.586 355.457 164.482 353.89C161.751 352.861 159.648 350.444 158.797 348.161C157.678 345.207 158.529 342.745 160.99 341.76C162.333 341.268 163.542 341.447 164.526 342.208C166.227 343.64 167.033 346.863 166.451 350.22C166.272 351.384 165.914 352.503 165.422 353.487C166.675 353.846 168.018 353.801 169.405 353.308C176.88 350.533 178.67 344.133 178.67 344.043C179.297 344.312 177.417 351.026 169.629 353.935C168.062 354.517 166.54 354.517 165.108 354.114C163.989 356.173 162.288 357.695 160.185 358.456C158.17 359.217 156.335 359.485 154.679 359.485ZM162.467 342.163C162.079 342.163 161.677 342.253 161.259 342.432C158.081 343.64 159.066 346.953 159.424 347.937C160.229 350.086 162.244 352.368 164.795 353.308C165.377 352.055 165.645 350.847 165.78 350.13C166.317 346.997 165.601 343.998 164.079 342.745C163.601 342.357 163.064 342.163 162.467 342.163Z" fill="#263238"/>
<path d="M133.329 335.8H72.8142C63.2433 335.8 55.5 328.057 55.5 318.486V257.971C55.5 248.4 63.2433 240.657 72.8142 240.657H133.329C142.9 240.657 150.643 248.4 150.643 257.971V318.486C150.643 328.057 142.9 335.8 133.329 335.8Z" fill="#52D180" stroke="#263238"/>
<path d="M139.087 283.476H108.137V252.546C108.165 252.546 108.195 252.546 108.225 252.545C108.592 252.542 109.132 252.549 109.813 252.592C111.175 252.676 113.098 252.9 115.332 253.46C119.8 254.578 125.502 257.033 130.456 262.384C135.401 267.726 137.546 273.126 138.459 277.182C138.915 279.211 139.063 280.904 139.097 282.087C139.114 282.678 139.103 283.141 139.088 283.453C139.087 283.461 139.087 283.469 139.087 283.476Z" fill="white" stroke="#263238"/>
<path d="M130.632 292.622C130.366 309.974 116.236 323.939 98.82 323.939C81.2814 323.939 67.0037 309.705 67.0037 292.122C67.0037 274.707 81.0108 260.577 98.32 260.31V292.122V292.622H98.82H130.632Z" fill="white" stroke="#263238"/>
<path d="M331.031 210.123L329.599 209.541C330.047 209.78 330.524 209.974 331.031 210.123Z" fill="#263238"/>
<path d="M301.311 101.708H280.229C274.69 101.708 270.166 97.1455 270.166 91.6002V70.5632C270.166 65.0206 274.687 60.5 280.229 60.5H301.311C306.854 60.5 311.374 65.0206 311.374 70.5632V91.6002C311.374 97.1455 306.851 101.708 301.311 101.708Z" fill="#0487FF" stroke="#263238"/>
<path d="M252.388 316.612C262.983 315.673 269.825 311.911 274.519 306.458C279.195 301.026 281.699 293.962 283.722 286.507C284.331 284.263 284.895 281.986 285.462 279.704C286.785 274.368 288.117 269.003 290.036 263.954C292.766 256.771 296.661 250.314 303.342 245.67C310.899 240.413 321.086 239.983 330.22 242.998C339.355 246.014 347.326 252.44 350.482 260.745C357.553 279.312 359.269 313.976 348.058 343.986C342.457 358.98 333.638 372.785 320.675 382.842C307.718 392.894 290.591 399.224 268.323 399.224C244.016 399.224 225.965 391.886 212.723 380.461C199.474 369.029 191.004 353.475 185.923 336.992C180.842 320.509 179.158 303.122 179.463 288.061C179.765 273.145 182.016 260.556 184.82 253.41L206.339 246.785C206.364 246.877 206.392 246.981 206.423 247.097C206.568 247.628 206.782 248.406 207.065 249.395C207.631 251.373 208.468 254.195 209.558 257.573C211.736 264.327 214.924 273.314 218.957 282.23C222.987 291.14 227.875 300.009 233.464 306.509C239.041 312.997 245.407 317.226 252.388 316.612Z" fill="#E9E9E9" stroke="#263238"/>
<path d="M419.342 205.468C418.626 205.513 417.909 205.737 417.193 205.961C416.835 206.11 416.477 206.259 416.119 206.408C412.225 207.93 408.197 208.87 404.034 209.407C387.742 211.555 399.558 199.649 386.354 190.116C373.195 180.627 370.241 197.725 359.14 193.07C348.04 188.46 360.394 175.256 332.195 168.765C315.008 164.782 308.652 175.479 306.324 182.865C306.638 182.283 306.906 181.701 307.219 181.209C307.846 180.09 308.517 179.15 309.278 178.254C313.844 192.354 325.436 199.023 331.076 196.695C331.076 196.695 331.434 196.561 332.061 196.382C334.612 195.666 341.55 194.234 343.295 199.56C345.623 206.498 336.984 211.914 331.031 210.123C330.524 209.974 330.047 209.78 329.599 209.541C329.599 209.541 323.646 211.466 318.499 215.315C315.768 217.374 313.307 220.015 312.053 223.238C311.606 224.401 311.337 225.61 311.248 226.908C310.979 232.145 313.217 237.158 317.425 240.336C321.945 243.737 327.585 244.006 333.001 243.558C336.134 243.29 339.133 243.603 341.147 246.289C342.177 247.632 342.848 249.153 343.698 250.541C346.071 254.48 349.875 256.942 354.172 258.329C359.006 259.896 363.348 257.3 368.182 258.15C374.269 259.269 376.955 266.207 382.415 268.579C389.487 271.667 395.798 268.803 400.588 263.118C404.974 257.926 404.437 246.289 407.122 240.022C409.137 235.188 412.001 230.712 415.492 226.774C419.163 222.611 422.922 219.254 424.041 213.48C424.713 209.989 423.952 205.289 419.342 205.468Z" fill="#263238"/>
<path d="M309 179C306.6 180.6 303.333 191 302 196H301.5L300 195.5H298.5H297L296 196L295.5 197L296 198L297 199L298.5 200L300.5 201V202L300 205L299.5 207.5V210V212.5L300 215.5L302.5 219.5C303.7 222.3 309.333 222.667 312 222.5L315 218C315.5 217.167 325.023 207.894 334.5 210C339 211 345.5 204.5 342.5 198.5C342.184 197.868 336.5 195 333 196.5C330.2 197.7 327.167 197.333 326 197C317.6 195.4 311.167 184.333 309 179Z" fill="white"/>
<path d="M307.398 194.054C306.995 193.92 306.727 193.473 306.861 193.07L307.443 191.19C307.577 190.787 307.98 190.563 308.428 190.697C308.831 190.832 309.054 191.235 308.92 191.637L308.383 193.517C308.249 193.92 307.801 194.144 307.398 194.054Z" fill="#263238"/>
<path d="M299.565 209.72C299.297 209.72 299.013 209.661 298.715 209.541C300.595 209.273 302.877 206.766 303.638 205.737C304.131 206.677 301.803 209.72 299.565 209.72Z" fill="#263238"/>
<path d="M300.327 200.705L300.325 200.704L300.314 200.699L300.268 200.681C300.227 200.665 300.167 200.64 300.089 200.607C299.935 200.542 299.714 200.446 299.451 200.323C298.924 200.075 298.237 199.723 297.583 199.297C296.923 198.868 296.33 198.386 295.96 197.889C295.594 197.398 295.494 196.965 295.647 196.558L295.649 196.554C295.797 196.147 296.107 195.883 296.575 195.717C297.057 195.545 297.673 195.492 298.343 195.511C299.006 195.53 299.682 195.617 300.27 195.7C300.342 195.71 300.413 195.72 300.483 195.73C300.694 195.76 300.894 195.789 301.068 195.81C301.294 195.838 301.516 195.86 301.691 195.852L302.048 195.836L302.149 195.494C303.486 190.947 304.964 186.044 306.602 182.723C306.715 182.512 306.818 182.312 306.916 182.121C307.105 181.751 307.276 181.417 307.474 181.106L307.482 181.094L307.489 181.082C307.961 180.238 308.44 179.535 309 179C311.288 185.663 315.392 191.006 319.492 194.069C321.612 195.653 323.786 196.733 325.807 197.266C327.821 197.797 329.718 197.794 331.258 197.161L331.264 197.159L331.309 197.143C331.349 197.128 331.411 197.107 331.492 197.08C331.653 197.026 331.892 196.95 332.197 196.863C333.456 196.51 335.755 195.994 337.932 196.203C340.093 196.41 342.033 197.312 342.82 199.716L342.821 199.719C343.898 202.927 342.462 205.808 339.965 207.717C337.46 209.632 333.987 210.48 331.197 209.651L329.787 209.078L329.618 209.009L329.445 209.065M329.445 209.065L329.599 209.541C329.445 209.065 329.445 209.065 329.445 209.065ZM329.445 209.065L329.443 209.066L329.44 209.067L329.425 209.072L329.372 209.09C329.325 209.105 329.257 209.128 329.169 209.159C328.992 209.221 328.736 209.312 328.412 209.434C327.765 209.678 326.85 210.043 325.773 210.529C323.622 211.5 320.812 212.961 318.199 214.915L318.198 214.916C315.509 216.943 313.04 219.552 311.709 222.754C308.336 222.882 304.974 221.704 302.035 218.555C300.065 216.436 299.347 213.763 299.276 210.916C299.205 208.065 299.784 205.088 300.366 202.404C300.455 202.045 300.545 201.671 300.634 201.284L300.732 200.861L300.328 200.705" stroke="#263238"/>
<path d="M333.538 210.168C333.538 212.003 332.016 213.48 330.181 213.48C328.39 213.48 326.869 212.003 326.869 210.168C326.869 208.333 328.39 206.856 330.181 206.856C332.016 206.856 333.538 208.333 333.538 210.168Z" fill="#0487FF"/>
<path d="M109.062 182.506C109.062 185.807 106.381 188.452 103.072 188.452C99.7625 188.452 97.0815 185.807 97.0815 182.506C97.0815 179.202 99.767 176.516 103.072 176.516C106.376 176.516 109.062 179.202 109.062 182.506Z" fill="#0487FF" stroke="#263238"/>
<path d="M154.716 207.661C154.716 210.966 152.031 213.651 148.726 213.651C145.422 213.651 142.736 210.966 142.736 207.661C142.736 204.361 145.417 201.716 148.726 201.716C152.035 201.716 154.716 204.361 154.716 207.661Z" fill="#0487FF" stroke="#263238"/>
<path d="M296.738 182.506C296.738 185.807 294.057 188.452 290.748 188.452C287.486 188.452 284.802 185.809 284.802 182.506C284.802 179.2 287.49 176.516 290.748 176.516C294.052 176.516 296.738 179.202 296.738 182.506Z" fill="#0487FF" stroke="#263238"/>
<path d="M222.661 110.444C222.661 113.749 220.02 116.389 216.716 116.389C213.407 116.389 210.726 113.744 210.726 110.444C210.726 107.139 213.411 104.454 216.716 104.454C220.016 104.454 222.661 107.135 222.661 110.444Z" fill="#0487FF" stroke="#263238"/>
<path d="M280.754 80.056L280.762 80.0479C281.551 79.2587 282.801 79.2584 283.59 80.047C283.59 80.0473 283.591 80.0476 283.591 80.0479L287.841 84.3429L288.189 84.6947L288.545 84.3502L300.272 72.9813L300.277 72.9759C301.067 72.1864 302.317 72.1864 303.106 72.9759L304.046 73.9158C304.835 74.7047 304.835 75.9533 304.048 76.7429L289.64 90.8378C288.849 91.5901 287.591 91.5906 286.8 90.8396L279.782 83.821C279.032 83.0319 279.031 81.7781 279.778 80.9875L280.754 80.056Z" fill="#FEF5F2"/>
<path d="M304.046 73.9158L303.106 72.9759C302.317 72.1864 301.067 72.1864 300.277 72.9759L300.272 72.9813L288.545 84.3502L288.189 84.6947L287.841 84.3429L283.591 80.0479C283.591 80.0476 283.59 80.0473 283.59 80.047C282.801 79.2584 281.551 79.2587 280.762 80.0479L280.754 80.056L279.778 80.9875C279.031 81.7781 279.032 83.0319 279.782 83.821L286.8 90.8396C287.591 91.5906 288.849 91.5901 289.64 90.8378L304.048 76.7429C304.835 75.9533 304.835 74.7047 304.046 73.9158ZM304.046 73.9158L304.399 73.5623" stroke="#263238"/>
<path d="M193 166.5V168L189 175L181.5 178V185.5L188.5 188L189.5 189L193 196.5L191 201L189.5 204L194.5 209H195.5L202 206H203L210 209L210.5 210L213.5 217H221L223.5 211L224.5 209.5L230 206.5L231.5 206L232.5 206.5L238.5 209L239.5 209.5L244.5 204V203L242 198L241.5 196L244 189L245 188.5L251 186L252 185.5V185V179.5V178L245 175L244 174.5L241.5 167L244.5 159.5L239 154L233.5 157L231 157.5L227.5 156L223.5 154L221 147H214.5H213L211 153.5L210 155L203.5 157.5H202.5L200 156.5L195.5 154L195 154.5L194.5 155L193.5 155.5L192 157L190.5 158.5L189.5 160L190.5 161.5L191.5 164L193 166.5Z" fill="white"/>
<circle cx="217" cy="182" r="14" fill="#0487FF"/>
<path d="M251.294 185.906C251.583 185.809 251.675 185.723 251.715 185.664C251.758 185.6 251.802 185.478 251.802 185.175C251.772 182.904 251.772 180.633 251.802 178.362V178.351L251.803 178.34C251.821 178.031 251.763 177.913 251.71 177.848C251.641 177.761 251.505 177.667 251.188 177.54C249.217 176.868 247.243 176.15 245.266 175.341M251.294 185.906L251.284 185.91L251.278 185.912C249.269 186.626 247.246 187.346 245.267 188.155M251.294 185.906L245.267 188.155M245.266 175.341L245.265 175.34M245.266 175.341L245.268 175.342M245.266 175.341C244.668 175.101 244.141 174.495 243.88 173.921L243.875 173.911C243.066 172.022 242.302 170.09 241.584 168.159L241.581 168.151L241.578 168.143C241.412 167.644 241.405 166.988 241.584 166.511L241.59 166.495L241.598 166.478C242.091 165.401 242.596 164.336 243.099 163.274L243.1 163.272C243.602 162.212 244.103 161.154 244.593 160.086C244.598 160.073 244.608 160.036 244.612 159.971C244.617 159.904 244.613 159.825 244.601 159.745C244.589 159.664 244.57 159.593 244.549 159.539C244.53 159.491 244.516 159.473 244.516 159.473L244.512 159.469L244.505 159.461C243.436 158.303 242.352 157.209 241.254 156.102C240.703 155.546 240.148 154.986 239.59 154.413L239.584 154.406L239.577 154.399C239.417 154.221 239.323 154.187 239.266 154.178C239.199 154.167 239.074 154.176 238.824 154.291M245.267 188.155L245.265 188.156C244.457 188.479 244.029 189.191 243.916 189.506C243.108 191.511 242.345 193.531 241.627 195.565M238.824 154.291C238.827 154.289 238.83 154.287 238.833 154.286M238.824 154.291C238.821 154.292 238.818 154.293 238.815 154.295M238.824 154.291C236.806 155.322 234.741 156.309 232.675 157.208M232.675 157.208L232.677 157.207M232.675 157.208C232.171 157.431 231.462 157.492 230.928 157.314L230.915 157.309C228.939 156.591 226.977 155.812 225.031 154.974M232.675 157.208L232.673 157.208M225.031 154.974C225.033 154.974 225.035 154.975 225.037 154.976L225.223 154.512L225.025 154.971C225.027 154.972 225.029 154.973 225.031 154.974ZM225.031 154.974C224.5 154.76 223.884 154.278 223.64 153.67M223.64 153.67L223.641 153.672L224.104 153.482L223.64 153.668V153.67ZM223.64 153.67C222.83 151.688 222.11 149.665 221.394 147.606C221.29 147.316 221.205 147.189 221.123 147.121C221.054 147.064 220.928 147.001 220.619 147C218.347 147.06 216.075 147.06 213.803 147C213.507 147.001 213.377 147.057 213.303 147.114C213.223 147.176 213.129 147.3 213.03 147.598C212.692 148.614 212.32 149.606 211.951 150.588L211.95 150.592C211.58 151.578 211.214 152.554 210.882 153.551C210.751 153.943 210.568 154.267 210.292 154.529C210.02 154.786 209.689 154.95 209.316 155.075C207.452 155.726 205.618 156.465 203.813 157.294L203.801 157.299L203.79 157.304C203.42 157.451 203.071 157.543 202.704 157.535C202.335 157.528 201.993 157.421 201.637 157.243C200.833 156.85 200.024 156.462 199.216 156.074C198.014 155.497 196.814 154.921 195.637 154.333C195.368 154.198 195.241 154.194 195.167 154.208C195.086 154.224 194.961 154.284 194.739 154.505L194.738 154.506C193.174 156.115 191.601 157.733 189.938 159.306L189.933 159.311C189.69 159.535 189.651 159.664 189.645 159.738C189.636 159.836 189.667 159.986 189.818 160.286C190.803 162.257 191.792 164.28 192.693 166.352C192.823 166.646 192.86 166.986 192.847 167.295C192.833 167.61 192.767 167.935 192.655 168.215L192.65 168.227C191.811 170.175 190.927 172.092 189.998 173.979L189.989 173.998L189.978 174.016C189.686 174.503 189.167 175.104 188.571 175.342L188.565 175.345C186.683 176.065 184.731 176.714 182.815 177.352C182.577 177.431 182.34 177.51 182.104 177.588C181.816 177.692 181.689 177.777 181.621 177.859C181.565 177.927 181.501 178.054 181.5 178.363C181.56 180.637 181.56 182.911 181.5 185.186L181 185.172H181.5C181.5 185.459 181.55 185.586 181.599 185.656C181.648 185.726 181.749 185.812 182.009 185.906C184.209 186.58 186.408 187.343 188.559 188.15C188.909 188.278 189.197 188.519 189.419 188.767C189.643 189.018 189.824 189.303 189.952 189.559L189.954 189.563C190.388 190.453 190.78 191.362 191.164 192.254L191.217 192.377C191.621 193.312 192.018 194.228 192.459 195.109C192.657 195.506 192.787 195.903 192.802 196.317C192.817 196.735 192.712 197.133 192.5 197.531C192.035 198.462 191.591 199.416 191.144 200.378L191.143 200.381C190.696 201.341 190.246 202.309 189.773 203.255C189.629 203.543 189.605 203.692 189.615 203.785C189.624 203.86 189.666 203.982 189.887 204.185L189.893 204.19C191.569 205.776 193.185 207.392 194.742 209.038C194.968 209.263 195.103 209.312 195.185 209.321C195.274 209.332 195.41 209.31 195.668 209.171L195.675 209.167L195.682 209.164C196.672 208.669 197.672 208.197 198.667 207.727H198.668C199.665 207.256 200.656 206.789 201.635 206.299C202.002 206.115 202.355 206.019 202.735 206.034C203.105 206.049 203.454 206.169 203.815 206.338L203.828 206.344C204.755 206.808 205.706 207.228 206.668 207.648C206.778 207.696 206.888 207.743 206.998 207.791C207.848 208.161 208.704 208.534 209.543 208.933C209.812 209.054 210.074 209.252 210.285 209.47C210.494 209.685 210.689 209.957 210.789 210.249C211.596 212.403 212.359 214.6 213.076 216.796L213.079 216.805L213.081 216.814C213.156 217.074 213.233 217.162 213.292 217.203C213.358 217.25 213.492 217.302 213.809 217.302M213.803 217.302C216.075 217.272 218.347 217.272 220.619 217.302H220.631L220.644 217.303C220.94 217.322 221.057 217.269 221.118 217.221C221.192 217.165 221.287 217.038 221.389 216.713L221.39 216.71C222.077 214.558 222.824 212.421 223.631 210.299C223.733 209.975 223.946 209.687 224.175 209.465C224.407 209.239 224.69 209.047 224.976 208.929C226.921 208.002 228.882 207.149 230.857 206.371M230.857 206.371L230.856 206.372M230.857 206.371C231.133 206.261 231.445 206.194 231.746 206.18C232.037 206.167 232.361 206.202 232.641 206.338M232.641 206.338C232.638 206.337 232.634 206.335 232.631 206.334M232.641 206.338C234.122 206.993 235.591 207.687 237.081 208.392C237.829 208.745 238.583 209.101 239.346 209.456C239.879 208.911 240.414 208.367 240.949 207.824C242.175 206.579 243.397 205.337 244.582 204.093M232.641 206.338C232.645 206.34 232.649 206.342 232.653 206.344M244.582 204.093L244.579 204.097L244.578 204.098V204.099M244.582 204.093C244.588 204.087 244.594 204.08 244.6 204.074M244.582 204.093C244.585 204.088 244.588 204.082 244.593 204.074C244.601 204.057 244.611 204.034 244.621 204.004C244.641 203.943 244.657 203.867 244.665 203.783C244.683 203.603 244.657 203.454 244.637 203.41M244.637 203.41L244.639 203.414M244.637 203.41C244.171 202.367 243.682 201.344 243.191 200.322C243.147 200.231 243.104 200.141 243.06 200.05C242.612 199.118 242.162 198.185 241.732 197.241L241.73 197.237C241.511 196.746 241.439 196.073 241.627 195.565M244.637 203.41L244.636 203.407M241.627 195.565C241.627 195.567 241.627 195.567 241.626 195.569M241.627 195.565C241.627 195.565 241.628 195.562 241.629 195.56M217.212 195.519C224.826 195.519 231.004 189.389 231.004 181.771C231.004 174.204 224.878 167.977 217.345 167.977C209.599 167.977 203.463 174.059 203.462 181.724C203.416 189.385 209.548 195.565 217.212 195.519ZM217.212 195.519L217.211 195.02L217.214 195.519H217.212Z" stroke="#263238"/>
</g>
<path d="M-63.0307 40.797C-37.594 54.942 19.0022 75.7464 41.8932 45.8042C70.5069 8.37643 41.7034 0.871287 33.2448 19.5475C24.7861 38.2237 66.9969 63.6025 108.765 25.1247C142.179 -5.65749 157.787 -53.1176 161.414 -72.9999" stroke="#0487FF" stroke-dasharray="6 6"/>
<path d="M479.529 315.123C454.601 330.146 408.389 368.881 422.967 403.637C441.189 447.083 462.034 425.835 450.045 409.203C438.056 392.572 395.035 416.553 407.622 471.93C417.691 516.232 451.088 553.391 466.528 566.432" stroke="#0487FF" stroke-dasharray="6 6"/>
</g>
</g>
<defs>
<clipPath id="clip0_518_756">
<rect width="480" height="480" rx="24" fill="white"/>
</clipPath>
<clipPath id="clip1_518_756">
<rect width="480" height="480" rx="24" fill="white"/>
</clipPath>
<clipPath id="clip2_518_756">
<rect width="370" height="360" fill="white" transform="translate(55 60)"/>
</clipPath>
</defs>
</svg>
