<svg width="480" height="480" viewBox="0 0 480 480" fill="none" xmlns="http://www.w3.org/2000/svg">
<g clip-path="url(#clip0_518_24)">
<rect width="480" height="480" rx="24" fill="#E6F3FF"/>
<path d="M-63.0307 40.797C-37.594 54.942 19.0022 75.7464 41.8932 45.8042C70.5069 8.37643 41.7034 0.871287 33.2448 19.5475C24.7861 38.2237 66.9969 63.6025 108.765 25.1247C142.179 -5.65749 157.787 -53.1176 161.414 -72.9999" stroke="#0487FF" stroke-dasharray="6 6"/>
<path d="M479.529 315.123C454.601 330.146 408.389 368.881 422.967 403.637C441.189 447.083 462.034 425.835 450.045 409.203C438.056 392.572 395.035 416.553 407.622 471.93C417.691 516.232 451.088 553.391 466.528 566.432" stroke="#0487FF" stroke-dasharray="6 6"/>
<g clip-path="url(#clip1_518_24)">
<path d="M380.072 119.395C380.072 154.475 351.635 182.912 316.555 182.912C281.476 182.912 253.038 154.475 253.038 119.395C253.038 84.3158 281.476 55.8782 316.555 55.8782C351.635 55.8782 380.072 84.3158 380.072 119.395Z" fill="white" stroke="#263238"/>
<path d="M297.753 152.279C297.484 151.857 297.484 151.857 297.484 151.858L297.481 151.859L297.471 151.866L297.433 151.89L297.282 151.985C297.15 152.069 296.956 152.192 296.707 152.348C296.21 152.66 295.496 153.105 294.629 153.635C292.894 154.695 290.551 156.095 288.112 157.458C285.67 158.822 283.144 160.143 281.041 161.047C279.988 161.5 279.056 161.843 278.302 162.036C277.925 162.133 277.604 162.189 277.343 162.206C277.075 162.223 276.903 162.198 276.802 162.159C276.158 161.916 275.305 161.163 274.378 160.03C273.47 158.92 272.547 157.516 271.75 156.075C270.953 154.634 270.292 153.174 269.899 151.953C269.702 151.343 269.577 150.807 269.532 150.372C269.485 149.922 269.53 149.649 269.601 149.512C269.699 149.319 270.002 148.94 270.533 148.388C271.049 147.852 271.739 147.193 272.564 146.449C274.213 144.963 276.381 143.153 278.725 141.339C281.068 139.524 283.579 137.709 285.913 136.21C288.256 134.705 290.389 133.538 291.984 132.997C295.269 131.88 298.43 131.09 300.772 130.58C301.942 130.324 302.906 130.139 303.577 130.018C303.913 129.957 304.175 129.912 304.352 129.883C304.441 129.868 304.509 129.857 304.554 129.85L304.578 129.846L304.715 129.85C304.835 129.853 305.012 129.857 305.24 129.863C305.696 129.874 306.358 129.889 307.179 129.906C308.823 129.939 311.107 129.979 313.67 130.006C318.793 130.06 325.044 130.06 329.524 129.845C333.94 129.632 339.404 130.092 344.582 131.141C349.769 132.192 354.616 133.824 357.827 135.924C360.994 137.995 363.142 141.496 363.81 144.882C364.479 148.277 363.647 151.407 361.076 152.949C359.823 153.7 357.904 153.803 355.619 153.446C353.357 153.093 350.842 152.308 348.481 151.41C346.124 150.512 343.939 149.509 342.342 148.73C341.544 148.34 340.894 148.007 340.444 147.771C340.219 147.653 340.044 147.56 339.926 147.496C339.867 147.465 339.822 147.44 339.792 147.424L339.758 147.405L339.75 147.401L339.748 147.4L338.707 146.826L339.024 147.971C340.235 152.348 342.115 165.564 343.596 176.881C335.392 180.749 326.228 182.913 316.555 182.913C309.48 182.913 302.684 181.74 296.327 179.605C296.766 173.074 297.242 166.32 297.611 161.165C297.799 158.537 297.959 156.324 298.072 154.769C298.129 153.991 298.174 153.378 298.205 152.959L298.24 152.48L298.249 152.357L298.251 152.326L298.252 152.318V152.316C298.252 152.315 298.252 152.315 297.753 152.279ZM297.753 152.279L297.484 151.858L298.325 151.319L298.252 152.316L297.753 152.279Z" fill="#E9E9E9"/>
<path d="M297.753 152.279C297.484 151.857 297.484 151.857 297.484 151.858M297.753 152.279C298.252 152.315 298.252 152.315 298.252 152.316M297.753 152.279L297.484 151.858M297.753 152.279L298.252 152.316M297.484 151.858L297.481 151.859L297.471 151.866L297.433 151.89L297.282 151.985C297.15 152.069 296.956 152.192 296.707 152.348C296.21 152.66 295.496 153.105 294.629 153.635C292.894 154.695 290.551 156.095 288.112 157.458C285.67 158.822 283.144 160.143 281.041 161.047C279.988 161.5 279.056 161.843 278.302 162.036C277.925 162.133 277.604 162.189 277.343 162.206C277.075 162.223 276.903 162.198 276.802 162.159C276.158 161.916 275.305 161.163 274.378 160.03C273.47 158.92 272.547 157.516 271.75 156.075C270.953 154.634 270.292 153.174 269.899 151.953C269.702 151.343 269.577 150.807 269.532 150.372C269.485 149.922 269.53 149.649 269.601 149.512C269.699 149.319 270.002 148.94 270.533 148.388C271.049 147.852 271.739 147.193 272.564 146.449C274.213 144.963 276.381 143.153 278.725 141.339C281.068 139.524 283.579 137.709 285.913 136.21C288.256 134.705 290.389 133.538 291.984 132.997C295.269 131.88 298.43 131.09 300.772 130.58C301.942 130.324 302.906 130.139 303.577 130.018C303.913 129.957 304.175 129.912 304.352 129.883C304.441 129.868 304.509 129.857 304.554 129.85L304.578 129.846L304.715 129.85C304.835 129.853 305.012 129.857 305.24 129.863C305.696 129.874 306.358 129.889 307.179 129.906C308.823 129.939 311.107 129.979 313.67 130.006C318.793 130.06 325.044 130.06 329.524 129.845C333.94 129.632 339.404 130.092 344.582 131.141C349.769 132.192 354.616 133.824 357.827 135.924C360.994 137.995 363.142 141.496 363.81 144.882C364.479 148.277 363.647 151.407 361.076 152.949M297.484 151.858L298.325 151.319L298.252 152.316M361.076 152.949L361.312 153.343M361.076 152.949C359.823 153.7 357.904 153.803 355.619 153.446C353.357 153.093 350.842 152.308 348.481 151.41C346.124 150.512 343.939 149.509 342.342 148.73C341.544 148.34 340.894 148.007 340.444 147.771C340.219 147.653 340.044 147.56 339.926 147.496C339.867 147.465 339.822 147.44 339.792 147.424L339.758 147.405L339.75 147.401L339.748 147.4M339.748 147.4L339.506 147.837M339.748 147.4L338.707 146.826L339.024 147.971C340.235 152.348 342.115 165.564 343.596 176.881C335.392 180.749 326.228 182.913 316.555 182.913C309.48 182.913 302.684 181.74 296.327 179.605C296.766 173.074 297.242 166.32 297.611 161.165C297.799 158.537 297.959 156.324 298.072 154.769C298.129 153.991 298.174 153.378 298.205 152.959L298.24 152.48L298.249 152.357L298.251 152.326L298.252 152.318V152.316" stroke="#263238"/>
<path d="M314.703 124.012C314.703 124.012 304.808 122.046 302.178 129.344C299.548 136.642 318.955 143.639 318.955 143.639C318.955 143.639 335.715 132.732 330.771 126.958C325.827 121.185 314.703 124.012 314.703 124.012Z" fill="#263238"/>
<path d="M322.878 73.9677C322.878 73.9677 312.113 64.9468 298.239 75.1072C286.081 84.0102 282.191 108.54 298.239 125.189C298.239 125.189 315.56 115.815 336.274 124.011C336.274 124.011 348.492 109.87 344.808 91.1809C340.686 70.2756 322.878 73.9677 322.878 73.9677Z" fill="#263238"/>
<path d="M336.274 124.012C336.274 124.012 336.31 123.97 336.364 123.906L336.274 123.302C336.274 123.302 341.723 104.996 333.296 97.0058C326.348 90.4186 325.974 109.097 325.974 109.097L324.861 101.97L296.446 98.4849C296.446 98.4849 291.484 107.969 298.239 125.19C298.239 125.19 315.559 115.815 336.274 124.012Z" fill="#263238"/>
<path d="M313.011 121.553L319.972 120.969C319.972 121.169 319.968 121.419 319.958 121.705C319.929 122.469 319.851 123.479 319.655 124.483C319.457 125.495 319.147 126.457 318.68 127.155C318.223 127.836 317.645 128.23 316.872 128.229C315.9 128.228 315.193 127.827 314.654 127.206C314.101 126.57 313.723 125.696 313.47 124.777C313.219 123.864 313.103 122.944 313.049 122.248C313.028 121.976 313.017 121.739 313.011 121.553Z" fill="white" stroke="#263238"/>
<path d="M321.129 85.8476L321.132 85.8438C321.767 86.8901 322.684 88.0187 323.715 89.1357C324.972 90.4987 326.423 91.8715 327.794 93.0938C329.167 94.3169 330.466 95.3937 331.421 96.1645C331.899 96.55 332.291 96.8592 332.564 97.0724C332.658 97.1452 332.737 97.2069 332.801 97.2565C332.802 97.2641 332.802 97.2721 332.802 97.2801C332.804 97.4506 332.806 97.7023 332.804 98.0247C332.799 98.6697 332.776 99.5965 332.704 100.719C332.467 104.405 331.701 110.142 329.336 114.942C326.982 119.72 323.08 123.512 316.543 123.512C307.982 123.512 303.086 117.364 300.306 111.047C298.919 107.898 298.078 104.743 297.582 102.371C297.335 101.187 297.175 100.2 297.077 99.5112C297.046 99.3001 297.022 99.1169 297.003 98.9646C304.23 98.6219 310.323 95.2615 314.621 91.9761C316.827 90.2899 318.57 88.6162 319.762 87.3632C320.358 86.7365 320.818 86.2143 321.129 85.8476Z" fill="white" stroke="#263238"/>
<path d="M332.442 101.066L332.443 101.065C332.568 100.724 332.782 100.443 333.049 100.239L333.05 100.238C333.561 99.8459 334.262 99.7309 334.9 100L339.486 101.938C340.099 102.197 340.502 102.749 340.596 103.367C340.643 103.676 340.613 103.999 340.492 104.311L335.3 117.723C335.113 118.204 334.749 118.563 334.309 118.753C333.88 118.939 333.383 118.964 332.912 118.784L328.505 117.099C328.505 117.099 328.505 117.098 328.505 117.099C328.152 116.963 327.864 116.732 327.66 116.446C327.316 115.964 327.21 115.327 327.428 114.731L332.442 101.066Z" fill="white"/>
<path d="M328.505 117.099L332.912 118.784C333.383 118.964 333.88 118.939 334.309 118.753C334.749 118.563 335.113 118.204 335.3 117.723L340.492 104.311C340.613 103.999 340.643 103.676 340.596 103.367C340.502 102.749 340.099 102.197 339.486 101.938L334.9 100C334.262 99.7309 333.561 99.8459 333.05 100.238L333.049 100.239C332.782 100.443 332.568 100.724 332.443 101.065L332.442 101.066L327.428 114.731C327.21 115.327 327.316 115.964 327.66 116.446C327.864 116.732 328.152 116.963 328.505 117.099ZM328.505 117.099C328.505 117.098 328.505 117.099 328.505 117.099Z" stroke="#263238"/>
<path d="M333.555 119.251L329.147 117.565C328.699 117.395 328.334 117.101 328.075 116.737C327.639 116.126 327.502 115.317 327.78 114.559L332.794 100.894C332.954 100.46 333.228 100.102 333.567 99.8408C333.865 99.6121 334.217 99.4677 334.586 99.4006C333.927 99.2837 333.26 99.4464 332.746 99.8408C332.405 100.102 332.132 100.46 331.973 100.894L326.958 114.559C326.681 115.317 326.817 116.126 327.253 116.737C327.512 117.1 327.878 117.394 328.326 117.565L332.733 119.251C333.143 119.407 333.567 119.434 333.971 119.365C333.831 119.338 333.692 119.303 333.555 119.251Z" fill="#3E4B75"/>
<path d="M307.097 104.137C308.005 104.137 308.74 103.167 308.74 101.97C308.74 100.773 308.005 99.8022 307.097 99.8022C306.19 99.8022 305.455 100.773 305.455 101.97C305.455 103.167 306.19 104.137 307.097 104.137Z" fill="#263238"/>
<path d="M323.115 104.137C324.022 104.137 324.758 103.167 324.758 101.97C324.758 100.773 324.022 99.8022 323.115 99.8022C322.208 99.8022 321.472 100.773 321.472 101.97C321.472 103.167 322.208 104.137 323.115 104.137Z" fill="#263238"/>
<path d="M312.702 107.313C312.702 107.313 311.453 110.248 315.266 109.936C315.266 109.936 313 109.96 312.702 107.313Z" fill="#263238"/>
<path d="M316.413 118.894C314.628 118.865 313.328 117.405 312.438 115.746C312.004 114.936 311.692 114.124 311.489 113.512C311.443 113.374 311.403 113.246 311.368 113.131L321.259 113.285C321.226 113.406 321.187 113.542 321.142 113.69C320.957 114.296 320.671 115.097 320.263 115.892C319.426 117.52 318.184 118.924 316.413 118.894Z" fill="white" stroke="#263238"/>
<path d="M339.32 121.699C344.198 130.002 352.252 150.141 356.451 151.678C363.033 154.086 367.702 150.706 366.828 145.435C365.955 140.164 343.632 115.705 343.632 115.705C343.632 115.705 343.499 108.636 337.311 104.586C334.17 102.531 330.421 108.182 332.889 110.646C335.358 113.11 334.177 119.115 339.32 121.699Z" fill="white"/>
<path d="M277.101 160.652C277.153 160.897 277.184 161.096 277.202 161.238C277.165 161.264 277.125 161.293 277.081 161.324C276.853 161.485 276.524 161.714 276.117 161.99C275.303 162.542 274.18 163.277 272.946 164.01C271.71 164.744 270.371 165.471 269.122 166.01C267.857 166.556 266.745 166.883 265.942 166.874C265.8 166.873 265.564 166.824 265.218 166.696C264.881 166.571 264.475 166.386 264.007 166.143C263.071 165.657 261.92 164.959 260.627 164.115C258.045 162.427 254.935 160.177 251.933 157.922C248.931 155.668 246.044 153.415 243.906 151.725C242.837 150.88 241.955 150.176 241.342 149.683C241.109 149.497 240.915 149.341 240.764 149.219L244.689 144.204C245.941 144.546 247.723 145.305 249.746 146.288C251.927 147.348 254.348 148.649 256.609 149.914C258.87 151.179 260.966 152.406 262.498 153.317C263.264 153.772 263.888 154.149 264.321 154.411C264.537 154.542 264.706 154.645 264.82 154.714L264.95 154.794L264.983 154.814L264.991 154.819L264.993 154.821H264.994C264.994 154.821 264.994 154.821 265.256 154.395L264.994 154.821L265.246 154.976L265.503 154.83L270.534 151.975C273.786 154.174 275.454 156.549 276.312 158.369C276.753 159.305 276.982 160.098 277.101 160.652Z" fill="white"/>
<path d="M264.994 154.821H264.993L264.991 154.819L264.983 154.814L264.95 154.794L264.82 154.714C264.706 154.645 264.537 154.542 264.321 154.411C263.888 154.149 263.264 153.772 262.498 153.317C260.966 152.406 258.87 151.179 256.609 149.914C254.348 148.649 251.927 147.348 249.746 146.288C247.723 145.305 245.941 144.546 244.689 144.204L240.764 149.219C240.915 149.341 241.109 149.497 241.342 149.683C241.955 150.176 242.837 150.88 243.906 151.725C246.044 153.415 248.931 155.668 251.933 157.922C254.935 160.177 258.045 162.427 260.627 164.115C261.92 164.959 263.071 165.657 264.007 166.143C264.475 166.386 264.881 166.571 265.218 166.696C265.564 166.824 265.8 166.873 265.942 166.874C266.745 166.883 267.857 166.556 269.122 166.01C270.371 165.471 271.71 164.744 272.946 164.01C274.18 163.277 275.303 162.542 276.117 161.99C276.524 161.714 276.853 161.485 277.081 161.324C277.125 161.293 277.165 161.264 277.202 161.238C277.184 161.096 277.153 160.897 277.101 160.652C276.982 160.098 276.753 159.305 276.312 158.369C275.454 156.549 273.786 154.174 270.534 151.975L265.503 154.83L265.246 154.976L264.994 154.821ZM264.994 154.821C264.994 154.821 264.994 154.821 265.256 154.395L264.994 154.821Z" stroke="#263238"/>
<path d="M356.624 151.208C356.22 151.06 355.703 150.656 355.084 149.957C354.477 149.271 353.815 148.35 353.111 147.244C351.704 145.033 350.16 142.131 348.587 139.001C347.537 136.911 346.473 134.717 345.43 132.567C343.494 128.576 341.631 124.735 340.065 121.988C340.111 121.97 340.159 121.952 340.209 121.931C340.661 121.749 341.263 121.448 341.86 120.976C342.869 120.18 343.846 118.906 344.084 116.949C344.128 116.998 344.174 117.049 344.222 117.102C344.833 117.78 345.707 118.755 346.76 119.942C348.864 122.315 351.679 125.534 354.52 128.916C357.362 132.3 360.226 135.841 362.432 138.862C363.535 140.373 364.468 141.746 365.151 142.9C365.844 144.072 366.243 144.96 366.335 145.518C366.743 147.98 365.858 149.933 364.166 151.015C362.454 152.11 359.815 152.377 356.624 151.208Z" fill="white" stroke="#263238"/>
<path d="M343.135 115.826L343.02 114.612C342.914 113.911 342.711 112.933 342.321 111.832C341.539 109.63 340.015 106.954 337.037 105.005C336.396 104.585 335.741 104.559 335.121 104.788C334.484 105.024 333.874 105.537 333.406 106.207C332.94 106.876 332.643 107.662 332.596 108.402C332.549 109.135 332.748 109.798 333.242 110.292C333.942 110.991 334.362 111.918 334.686 112.891C334.849 113.38 334.993 113.895 335.135 114.412C335.15 114.469 335.166 114.526 335.181 114.584C335.308 115.048 335.436 115.513 335.579 115.98C336.206 118.016 337.112 119.957 339.377 121.165C339.487 121.132 339.644 121.08 339.834 121.003C340.222 120.847 340.735 120.59 341.24 120.191C342.235 119.405 343.224 118.053 343.132 115.725" stroke="#263238"/>
<path d="M240.456 148.759C240.396 148.749 240.323 148.74 240.237 148.732C239.982 148.709 239.615 148.704 239.135 148.761C238.175 148.875 236.767 149.24 234.892 150.215C233.178 151.106 230.821 151.34 228.943 150.879C228.008 150.65 227.232 150.258 226.714 149.732C226.209 149.218 225.93 148.561 225.994 147.725C226.052 146.974 226.689 146.149 227.835 145.304C228.954 144.479 230.437 143.723 231.936 143.078C233.431 142.435 234.92 141.913 236.036 141.551C236.594 141.37 237.058 141.229 237.382 141.134C237.544 141.087 237.67 141.051 237.756 141.026C237.799 141.014 237.832 141.005 237.854 140.999L237.878 140.993L237.884 140.991L237.886 140.991L238.608 140.795L238.151 140.202C237.456 139.301 236.543 137.565 236.14 136.165C236.041 135.819 235.976 135.507 235.951 135.242C235.926 134.971 235.945 134.783 235.985 134.667C236.018 134.568 236.055 134.547 236.084 134.535C236.135 134.515 236.272 134.49 236.556 134.569L236.557 134.569C236.802 134.637 237.117 134.811 237.492 135.106C237.862 135.396 238.263 135.78 238.682 136.234C239.519 137.141 240.395 138.292 241.197 139.431C241.997 140.568 242.714 141.684 243.232 142.516C243.49 142.931 243.699 143.276 243.842 143.516C243.914 143.636 243.97 143.73 244.007 143.793L244.01 143.798C244.15 145.347 243.306 146.576 242.333 147.462C241.841 147.911 241.333 148.255 240.946 148.486C240.754 148.602 240.593 148.688 240.482 148.746C240.473 148.75 240.464 148.755 240.456 148.759Z" fill="white" stroke="#263238"/>
<path d="M217.287 286.32H211.604V289.255H217.287V286.32Z" fill="#263238"/>
<path d="M227.198 286.32H221.514V289.255H227.198V286.32Z" fill="#263238"/>
<path d="M237.107 286.32H231.424V289.255H237.107V286.32Z" fill="#263238"/>
<path d="M247.016 286.32H241.333V289.255H247.016V286.32Z" fill="#263238"/>
<path d="M256.927 286.32H251.243V289.255H256.927V286.32Z" fill="#263238"/>
<path d="M266.836 286.32H261.153V289.255H266.836V286.32Z" fill="#263238"/>
<path d="M208.486 288.455H272.298V291.69H208.486V288.455Z" fill="white" stroke="#263238"/>
<path d="M208.486 288.455H246.672V291.69H208.486V288.455Z" fill="white" stroke="#263238"/>
<path d="M159.644 351.963H162.521V395.341H159.644V351.963Z" fill="white" stroke="#263238"/>
<path d="M155.5 351.5H162.5V395.5H155.5V351.5Z" fill="white" stroke="#263238"/>
<path d="M165.713 398.776H159.644V372.097H163.799C164.328 372.097 164.805 372.311 165.153 372.657C165.5 373.004 165.713 373.481 165.713 374.01V398.776Z" fill="#263238" stroke="#263238"/>
<path d="M159.145 399.276H152.076V374.01C152.076 373.358 152.335 372.765 152.756 372.331C153.195 371.879 153.809 371.597 154.489 371.597H159.145V399.276Z" fill="#263238"/>
<path d="M142.906 355.837C141.931 354.931 141.322 353.638 141.322 352.201V344.847H176.967V352.201C176.967 353.305 176.608 354.322 176 355.146C175.095 356.373 173.641 357.166 172.002 357.166H146.287C144.98 357.166 143.793 356.662 142.906 355.837Z" fill="white" stroke="#263238"/>
<path d="M182.266 399.277V398.777H181.766H159.645V394.687H181.765H183.584C184.678 394.687 185.641 395.253 186.195 396.111C186.506 396.595 186.687 397.171 186.687 397.79V399.277V404.509H182.266V399.277Z" fill="#263238" stroke="#263238"/>
<path d="M159.145 394.187H136.523H134.706C133.817 394.187 133.004 394.508 132.376 395.041C131.596 395.701 131.102 396.688 131.102 397.79V399.277V405.009H136.523V399.277H159.145V394.187Z" fill="#263238"/>
<path d="M140.004 410.117C140.004 413.597 137.183 416.419 133.703 416.419C130.222 416.419 127.401 413.597 127.401 410.117C127.401 406.637 130.222 403.815 133.703 403.815C137.183 403.815 140.004 406.637 140.004 410.117Z" fill="white" stroke="#263238"/>
<path d="M133.703 413.742C135.705 413.742 137.328 412.119 137.328 410.117C137.328 408.115 135.705 406.492 133.703 406.492C131.701 406.492 130.078 408.115 130.078 410.117C130.078 412.119 131.701 413.742 133.703 413.742Z" fill="#263238"/>
<path d="M191.412 410.117C191.412 413.597 188.591 416.419 185.11 416.419C181.63 416.419 178.809 413.597 178.809 410.117C178.809 406.637 181.63 403.815 185.11 403.815C188.591 403.815 191.412 406.637 191.412 410.117Z" fill="white" stroke="#263238"/>
<path d="M185.11 413.742C187.112 413.742 188.735 412.119 188.735 410.117C188.735 408.115 187.112 406.492 185.11 406.492C183.108 406.492 181.485 408.115 181.485 410.117C181.485 412.119 183.108 413.742 185.11 413.742Z" fill="#263238"/>
<path d="M124.858 321.977L106.098 242.524H155.973C156.037 242.714 156.127 242.982 156.242 243.323C156.493 244.067 156.861 245.158 157.332 246.546C158.276 249.323 159.632 253.289 161.283 258.049C164.586 267.568 169.072 280.261 173.801 292.955C178.529 305.646 183.505 318.348 187.787 327.88C189.927 332.644 191.901 336.631 193.59 339.432C194.433 340.831 195.216 341.954 195.924 342.733C195.97 342.783 196.016 342.832 196.061 342.88C195.185 342.846 194.119 342.807 192.899 342.765C188.194 342.602 181.19 342.385 173.944 342.168C166.698 341.951 159.209 341.733 153.531 341.571C150.692 341.489 148.306 341.421 146.63 341.374L144.68 341.319L144.186 341.305L124.858 321.977Z" fill="white" stroke="#263238"/>
<path d="M213.992 350.219H149.577C129.995 350.219 113.482 336.194 110.314 316.872L99.4184 250.445C98.7628 246.45 101.471 242.679 105.466 242.025C109.461 241.371 113.231 244.077 113.886 248.072L124.781 314.499C126.783 326.702 137.211 335.558 149.577 335.558H213.992C218.04 335.558 221.322 338.841 221.322 342.889C221.323 346.936 218.04 350.219 213.992 350.219Z" fill="#263238"/>
<path d="M99.9127 250.363C99.3018 246.64 101.825 243.127 105.548 242.517C109.273 241.906 112.783 244.428 113.393 248.152L124.289 314.579C126.33 327.024 136.967 336.058 149.578 336.058C153.351 336.058 156.408 339.117 156.408 342.889C156.408 346.661 153.35 349.719 149.578 349.719C130.241 349.719 113.937 335.872 110.808 316.79L99.9127 250.363Z" fill="white"/>
<path d="M110.808 316.79C113.937 335.872 130.241 349.719 149.578 349.719C153.35 349.719 156.408 346.661 156.408 342.889C156.408 339.117 153.351 336.058 149.578 336.058C136.967 336.058 126.33 327.024 124.289 314.579L113.393 248.152C112.783 244.428 109.273 241.906 105.548 242.517C101.825 243.127 99.3018 246.64 99.9127 250.363L110.808 316.79ZM110.808 316.79L110.316 316.871M105.467 242.026L105.467 242.024" stroke="#263238"/>
<path d="M199.66 286.52C199.669 286.524 199.679 286.529 199.689 286.534C199.761 286.571 199.87 286.631 200.006 286.718C200.278 286.893 200.659 287.178 201.073 287.61C201.825 288.397 202.697 289.682 203.204 291.706C203.105 291.708 202.995 291.711 202.875 291.714C202.278 291.729 201.426 291.75 200.404 291.773C198.358 291.82 195.632 291.876 192.905 291.913C190.178 291.951 187.455 291.969 185.415 291.941C184.394 291.927 183.552 291.902 182.969 291.862C182.766 291.848 182.602 291.833 182.476 291.817C182.426 291.122 182.291 289.675 182.16 288.312C182.077 287.447 181.994 286.602 181.932 285.972C181.915 285.801 181.9 285.646 181.887 285.51L199.66 286.52Z" fill="white" stroke="#263238"/>
<path d="M267.672 325.5H275.122V421.184H267.672V325.5Z" fill="white" stroke="#263238"/>
<path d="M211.673 331.835L211.633 331.785L211.581 331.746L197.308 321.171L227.381 315.363L270.033 381.528L256.892 388.221L211.673 331.835Z" fill="white" stroke="#263238"/>
<path d="M143.257 315.306H172.88L172.944 315.312C173.001 315.317 173.086 315.325 173.198 315.336C173.422 315.358 173.751 315.39 174.174 315.433C175.019 315.519 176.238 315.649 177.729 315.821C180.711 316.165 184.78 316.68 189.131 317.361C193.484 318.043 198.112 318.891 202.213 319.902C206.328 320.915 209.864 322.081 212.065 323.383C212.552 323.67 213.106 324.209 213.717 325.012C214.323 325.809 214.964 326.837 215.631 328.07C216.967 330.535 218.39 333.779 219.849 337.539C222.767 345.057 225.813 354.588 228.578 363.962C231.343 373.334 233.825 382.54 235.616 389.403C236.511 392.835 237.234 395.68 237.732 397.668C237.981 398.662 238.175 399.441 238.306 399.971C238.345 400.132 238.379 400.27 238.408 400.385L225.538 406.348L200.248 343.595L200.13 343.304L199.816 343.283L199.784 343.782C199.816 343.283 199.816 343.283 199.816 343.283H199.81L199.793 343.282L199.723 343.277L199.45 343.259C199.21 343.242 198.856 343.218 198.4 343.185C197.489 343.119 196.173 343.02 194.553 342.888C191.312 342.623 186.857 342.224 182 341.689C172.265 340.616 160.976 339 154.574 336.831C148.346 334.721 145.51 329.297 144.235 324.291C143.599 321.795 143.36 319.428 143.28 317.684C143.24 316.813 143.24 316.099 143.25 315.605C143.252 315.494 143.254 315.394 143.257 315.306Z" fill="white"/>
<path d="M199.816 343.283L200.13 343.304L200.248 343.595L225.538 406.348L238.408 400.385C238.379 400.27 238.345 400.132 238.306 399.971C238.175 399.441 237.981 398.662 237.732 397.668C237.234 395.68 236.511 392.835 235.616 389.403C233.825 382.54 231.343 373.334 228.578 363.962C225.813 354.588 222.767 345.057 219.849 337.539C218.39 333.779 216.967 330.535 215.631 328.07C214.964 326.837 214.323 325.809 213.717 325.012C213.106 324.209 212.552 323.67 212.065 323.383C209.864 322.081 206.328 320.915 202.213 319.902C198.112 318.891 193.484 318.043 189.131 317.361C184.78 316.68 180.711 316.165 177.729 315.821C176.238 315.649 175.019 315.519 174.174 315.433C173.751 315.39 173.422 315.358 173.198 315.336C173.086 315.325 173.001 315.317 172.944 315.312L172.88 315.306H143.257C143.254 315.394 143.252 315.494 143.25 315.605C143.24 316.099 143.24 316.813 143.28 317.684C143.36 319.428 143.599 321.795 144.235 324.291C145.51 329.297 148.346 334.721 154.574 336.831C160.976 339 172.265 340.616 182 341.689C186.857 342.224 191.312 342.623 194.553 342.888C196.173 343.02 197.489 343.119 198.4 343.185C198.856 343.218 199.21 343.242 199.45 343.259L199.723 343.277L199.793 343.282L199.81 343.283H199.816ZM199.816 343.283L199.784 343.782C199.816 343.283 199.816 343.283 199.816 343.283Z" stroke="#263238"/>
<path d="M263.015 407.208L262.005 407.565C261.111 407.882 259.832 408.334 258.291 408.879C255.21 409.968 251.083 411.425 246.897 412.898C242.712 414.371 238.469 415.858 235.157 417.008C232.466 417.942 230.412 418.646 229.491 418.942L225.878 407.292L239.099 401.167L239.221 401.169C239.374 401.17 239.599 401.173 239.886 401.178C240.46 401.187 241.283 401.203 242.276 401.23C244.262 401.284 246.927 401.381 249.647 401.554C252.369 401.728 255.133 401.977 257.321 402.333C258.417 402.511 259.353 402.714 260.061 402.941C260.415 403.055 260.7 403.172 260.915 403.288C261.136 403.407 261.248 403.508 261.296 403.575C262.131 404.723 262.577 405.741 262.814 406.462C262.914 406.768 262.977 407.02 263.015 407.208Z" fill="white" stroke="#263238"/>
<path d="M295.164 384.575C295.289 384.871 295.373 385.118 295.427 385.301L294.45 385.742C293.586 386.131 292.349 386.689 290.859 387.36C287.879 388.701 283.887 390.497 279.839 392.313C275.791 394.129 271.686 395.965 268.481 397.386C265.838 398.559 263.829 399.44 262.956 399.802L257.421 389.048L270.513 381.601L270.644 381.589C270.801 381.576 271.032 381.557 271.326 381.533C271.915 381.485 272.759 381.42 273.778 381.349C275.817 381.206 278.554 381.039 281.351 380.945C284.151 380.85 286.999 380.827 289.264 380.969C290.398 381.04 291.37 381.152 292.11 381.311C292.481 381.391 292.78 381.48 293.007 381.576C293.241 381.674 293.36 381.764 293.411 381.824C294.339 382.899 294.868 383.876 295.164 384.575Z" fill="white" stroke="#263238"/>
<path d="M193.671 250.565L194.279 251.384L194.553 250.401L194.554 250.4L194.555 250.394L194.562 250.372L194.588 250.28C194.612 250.198 194.648 250.076 194.696 249.915C194.792 249.593 194.939 249.118 195.137 248.506C195.532 247.282 196.135 245.512 196.961 243.331C198.578 239.059 201.05 233.215 204.497 226.823L212.499 230.336C212.499 230.338 212.498 230.34 212.498 230.34C212.443 230.601 212.362 230.984 212.256 231.473C212.045 232.449 211.737 233.847 211.348 235.528C210.57 238.891 209.471 243.387 208.186 247.922C206.901 252.46 205.434 257.022 203.921 260.526C203.164 262.279 202.404 263.747 201.661 264.81C200.899 265.899 200.225 266.458 199.676 266.58C196.713 267.238 193.206 266.143 189.505 263.955C185.821 261.776 182.032 258.566 178.544 255.145C171.57 248.306 165.868 240.696 164.697 239.04C163.586 237.469 163.136 235.519 162.971 233.928C162.889 233.138 162.879 232.449 162.889 231.959C162.894 231.713 162.905 231.519 162.913 231.386C162.917 231.327 162.921 231.281 162.924 231.248L166.442 221.464C166.539 221.557 166.647 221.662 166.766 221.778C167.331 222.327 168.148 223.122 169.151 224.11C171.159 226.084 173.915 228.825 176.912 231.888C182.912 238.021 189.849 245.424 193.671 250.565Z" fill="#E9E9E9" stroke="#263238"/>
<path d="M211.951 232.866C211.567 234.597 211.022 236.977 210.356 239.682C205.477 238.88 202.501 236.456 200.76 234.297C201.849 231.943 203.092 229.428 204.497 226.823L212.499 230.336C212.476 230.443 212.449 230.571 212.418 230.718C212.311 231.222 212.153 231.953 211.951 232.866Z" fill="#263238" stroke="#263238"/>
<path d="M143.552 219.959L143.996 220.034L144.116 219.6L145.047 216.251H145.05C145.298 216.254 145.658 216.26 146.103 216.27C146.993 216.289 148.222 216.326 149.578 216.393C152.304 216.528 155.496 216.784 157.495 217.261C159.49 217.737 161.605 218.665 163.235 219.484C164.047 219.892 164.733 220.27 165.215 220.546C165.456 220.683 165.645 220.795 165.774 220.873C165.808 220.893 165.837 220.91 165.863 220.926C168.608 225.781 170.953 232.958 172.924 241.04C174.907 249.175 176.503 258.187 177.749 266.592C178.995 274.996 179.89 282.787 180.474 288.477C180.766 291.322 180.98 293.641 181.121 295.249C181.184 295.971 181.233 296.55 181.267 296.968L177.791 295.66L170.561 285.095L170.376 284.825L170.054 284.886L139.594 290.734L130.949 245.858L130.944 245.83L130.935 245.803L125.627 228.821C128.6 225.427 131.635 222.959 133.94 221.334C135.116 220.505 136.102 219.896 136.791 219.495C137.136 219.294 137.406 219.146 137.589 219.048C137.641 219.02 137.686 218.997 137.723 218.977L143.552 219.959Z" fill="#E9E9E9" stroke="#263238"/>
<path d="M125.1 229.085C123.5 230.285 123.1 234.251 123.1 236.085C122.7 237.685 123 245 123.5 248.5L127.5 267L132 283C132.333 284.333 133.9 288.1 135.5 290.5C137.5 293.5 138 292.5 139.5 293C140.7 293.4 144.6 292.584 146.1 292.584H176L174 281.5L146.1 279.584L138.6 243.084L135.1 233.084C134.933 232.584 134.3 231.284 133.1 230.084C131.9 228.884 129.933 228.251 129.1 228.085C128.433 227.918 126.7 227.885 125.1 229.085Z" fill="#E9E9E9"/>
<path d="M144.667 209.999C144.667 209.999 138.177 209.574 137.642 218.457C137.642 218.457 139.208 227.61 148.248 231.138C148.248 231.138 149.705 222.55 155.361 218.724C155.361 218.724 159.933 220.409 162.207 227.502C162.207 227.502 164.559 212.939 154.019 209.999H144.667Z" fill="#263238"/>
<path d="M145.82 191.431L156.837 207.456C156.817 207.533 156.793 207.627 156.765 207.738C156.684 208.061 156.57 208.524 156.437 209.089C156.172 210.218 155.833 211.757 155.539 213.394C155.317 214.634 155.147 215.957 155.034 216.966C154.977 217.472 154.935 217.9 154.906 218.203C154.904 218.218 154.903 218.234 154.901 218.249C151.466 218.381 148.678 217.094 146.714 215.731C145.693 215.023 144.901 214.297 144.365 213.75C144.098 213.477 143.895 213.249 143.76 213.091C143.724 213.048 143.692 213.011 143.666 212.979C143.698 206.688 143.604 202.136 143.502 199.149C143.45 197.641 143.396 196.531 143.355 195.798C143.334 195.431 143.317 195.159 143.305 194.977C143.303 194.945 143.301 194.916 143.299 194.889L145.82 191.431Z" fill="white" stroke="#263238"/>
<path d="M150.42 150.5C150.42 150.5 163.375 133.954 178.309 142.271C189.8 148.67 190.947 164.575 176.837 172.261L173.992 179.001L134.702 192.159C134.702 192.159 118.708 172.565 136.315 160.92C136.315 160.92 143.319 152.292 150.42 150.5Z" fill="#263238"/>
<path d="M176.836 172.261C182.411 169.224 185.595 164.904 186.71 160.396C180.666 172.221 162.431 169.909 162.431 169.909C169.07 164.985 169.821 160.78 169.821 160.78C155.361 169.207 137.497 166.046 137.497 166.046L140.373 156.69C137.926 158.944 136.315 160.919 136.315 160.919C118.707 172.565 134.701 192.159 134.701 192.159L173.991 179.001L176.836 172.261Z" fill="#263238"/>
<path d="M135.691 187.238C135.68 187.184 135.667 187.126 135.654 187.065C135.546 186.559 135.396 185.822 135.231 184.906C134.901 183.072 134.512 180.52 134.274 177.646C133.798 171.875 133.943 164.903 136.328 159.836C138.706 154.782 142.225 152.587 145.135 151.642C146.3 151.264 147.373 151.084 148.239 151.006C148.167 151.052 148.093 151.101 148.017 151.151C146.717 152.022 145.056 153.507 143.559 155.972C140.586 160.866 138.293 169.559 140.627 184.857L135.691 187.238Z" fill="white" stroke="#263238"/>
<path d="M144.27 175.063C144.351 175.073 144.439 175.083 144.533 175.094C145.153 175.164 146.05 175.26 147.162 175.358C149.385 175.556 152.47 175.769 155.917 175.828C162.565 175.942 170.64 175.488 176.458 173.202C176.474 173.295 176.493 173.397 176.512 173.51C176.615 174.096 176.755 174.946 176.906 176C177.207 178.107 177.549 181.023 177.712 184.262C178.04 190.771 177.637 198.459 174.837 203.526C172.029 208.607 165.362 211.559 158.768 210.281C152.252 209.018 145.744 203.593 143.299 191.797C143.32 191.74 143.347 191.666 143.378 191.577C143.459 191.343 143.572 191.002 143.7 190.563C143.955 189.686 144.271 188.417 144.518 186.842C144.988 183.84 145.207 179.717 144.27 175.063Z" fill="white" stroke="#263238"/>
<path d="M161.739 203.996L159.365 203.693C158.715 203.609 158.11 203.958 157.826 204.51L154.377 203.989C149.829 203.3 145.78 200.697 143.27 196.846C140.714 192.926 140.23 192.123 140.169 191.995L139.745 192.159L139.492 191.778C139.059 192.064 139.059 192.064 142.502 197.346C145.155 201.416 149.433 204.168 154.239 204.894L157.675 205.414C157.771 206.072 158.29 206.618 158.979 206.706L161.354 207.01C162.183 207.116 162.948 206.524 163.054 205.695C163.16 204.866 162.568 204.101 161.739 203.996Z" fill="#4F3666"/>
<path d="M158.598 185.877C158.598 187.322 157.71 188.494 156.615 188.494C155.52 188.494 154.632 187.322 154.632 185.877C154.632 184.431 155.52 183.259 156.615 183.259C157.711 183.259 158.598 184.431 158.598 185.877Z" fill="#263238"/>
<path d="M170.919 186.218C172.014 186.218 172.902 185.046 172.902 183.601C172.902 182.155 172.014 180.983 170.919 180.983C169.823 180.983 168.936 182.155 168.936 183.601C168.936 185.046 169.823 186.218 170.919 186.218Z" fill="#263238"/>
<path d="M140.146 198.755C143.916 198.755 146.972 195.258 146.972 190.943C146.972 186.629 143.916 183.131 140.146 183.131C136.376 183.131 133.32 186.629 133.32 190.943C133.32 195.258 136.376 198.755 140.146 198.755Z" fill="#0487FF"/>
<path d="M139.196 194.744C141.031 194.744 142.517 193.042 142.517 190.943C142.517 188.844 141.031 187.142 139.196 187.142C137.362 187.142 135.875 188.844 135.875 190.943C135.875 193.042 137.362 194.744 139.196 194.744Z" fill="white"/>
<path d="M168.108 190.943C168.108 190.943 170.92 194.743 166.693 195.098C166.693 195.098 168.664 192.983 168.108 190.943Z" fill="#263238"/>
<path d="M138.895 247.309C140.738 255.399 142.477 263.793 143.692 270.027C144.299 273.144 144.775 275.718 145.066 277.443C145.194 278.197 145.285 278.783 145.337 279.178M138.895 247.309L145.337 279.178Z" fill="#D9D9D9"/>
<path d="M138.895 247.309L138.894 247.305C138.834 247.033 138.761 246.674 138.674 246.246C138.269 244.262 137.56 240.779 136.426 237.404C135.738 235.353 134.902 233.371 133.899 231.808C132.89 230.234 131.759 229.157 130.508 228.793C129.04 228.366 127.829 228.26 126.841 228.461C125.871 228.659 125.085 229.159 124.458 230.017C123.821 230.888 123.336 232.144 123.026 233.859C122.716 235.57 122.585 237.707 122.631 240.312C122.722 245.497 124.959 257.856 127.877 269.328C129.334 275.056 130.954 280.54 132.552 284.775C133.351 286.893 134.139 288.686 134.892 290.036C135.268 290.711 135.631 291.265 135.975 291.692C136.323 292.122 136.633 292.398 136.898 292.543C137.504 292.875 138.575 293.157 140.049 293.375C141.506 293.59 143.3 293.735 145.312 293.826C149.334 294.007 154.189 293.965 158.881 293.829C163.571 293.693 168.089 293.462 171.436 293.265C173.109 293.167 174.489 293.077 175.45 293.011C175.877 292.982 176.221 292.958 176.471 292.94L176.017 281.824L175.429 281.789C174.762 281.75 173.802 281.694 172.629 281.627C170.283 281.491 167.084 281.307 163.675 281.116C157.017 280.743 149.562 280.34 146.068 280.206C146.03 280.222 145.988 280.235 145.941 280.241C145.761 280.267 145.629 280.192 145.57 280.149C145.51 280.106 145.472 280.058 145.454 280.034C145.417 279.984 145.393 279.935 145.38 279.907L145.037 279.167L145.337 279.178M138.895 247.309C140.738 255.399 142.477 263.793 143.692 270.027C144.299 273.144 144.775 275.718 145.066 277.443C145.194 278.197 145.285 278.783 145.337 279.178M138.895 247.309L145.337 279.178" stroke="#263238"/>
<path d="M176.471 292.94C176.347 292.949 176.2 292.959 176.032 292.971C175.437 293.013 174.572 293.071 173.498 293.139C171.428 293.269 168.578 293.435 165.367 293.582C163.694 288.659 165.119 284.322 166.867 281.296C169.51 281.446 171.871 281.582 173.59 281.682C174.482 281.734 175.202 281.776 175.699 281.805L176.017 281.824L176.471 292.94Z" fill="#263238" stroke="#263238"/>
<path d="M175.859 284.787C175.943 283.557 176.249 282.479 176.866 281.691C176.874 281.686 176.887 281.677 176.906 281.665C176.963 281.63 177.048 281.583 177.163 281.526C177.391 281.411 177.713 281.267 178.113 281.104C178.911 280.779 180 280.388 181.236 280.023C183.722 279.288 186.742 278.674 189.18 278.862C191.579 279.047 194.606 280.508 196.814 282.149C197.916 282.967 198.77 283.799 199.231 284.492C199.463 284.842 199.567 285.115 199.586 285.307C199.602 285.47 199.56 285.562 199.464 285.642C199.102 285.943 198.529 286.125 197.715 286.228C197.016 286.316 196.211 286.338 195.313 286.362C195.174 286.366 195.033 286.37 194.889 286.374C192.787 286.435 190.285 286.561 188.069 287.677C186.984 288.223 186.035 288.849 185.154 289.468C184.871 289.667 184.597 289.863 184.33 290.055C183.752 290.469 183.2 290.865 182.631 291.231C181.072 292.235 179.484 292.951 177.341 292.916C177.335 292.899 177.329 292.881 177.322 292.863C177.238 292.63 177.119 292.292 176.986 291.875C176.719 291.039 176.393 289.891 176.156 288.635C175.919 287.377 175.774 286.028 175.859 284.787Z" fill="white" stroke="#263238"/>
<path d="M204.772 226.058C204.782 226.079 204.794 226.104 204.81 226.133C204.864 226.237 204.951 226.389 205.077 226.572C205.329 226.94 205.737 227.431 206.351 227.91C207.542 228.839 209.55 229.751 212.802 229.557C212.835 229.512 212.873 229.46 212.917 229.401C213.081 229.178 213.319 228.857 213.619 228.464C214.217 227.679 215.062 226.603 216.046 225.442C218.001 223.134 220.55 220.434 222.827 219.04C224.919 217.758 226.497 215.502 226.971 213.472C227.207 212.46 227.159 211.555 226.821 210.862C226.494 210.189 225.862 209.65 224.775 209.409L204.772 226.058ZM204.772 226.058L204.769 225.995C204.764 225.892 204.757 225.739 204.749 225.544C204.733 225.153 204.713 224.592 204.696 223.911C204.662 222.548 204.641 220.707 204.693 218.793C204.745 216.875 204.869 214.897 205.123 213.255C205.25 212.433 205.407 211.709 205.598 211.123C205.793 210.527 206.008 210.124 206.222 209.901C206.764 209.337 207.064 209.346 207.197 209.396C207.397 209.471 207.674 209.768 207.926 210.479C208.413 211.85 208.61 214.19 208.469 216.775L208.408 217.899L209.283 217.191L209.285 217.189L209.29 217.185L209.313 217.166C209.334 217.15 209.364 217.125 209.405 217.093C209.486 217.029 209.606 216.934 209.76 216.814C210.069 216.573 210.517 216.23 211.069 215.821C212.175 215.003 213.698 213.926 215.369 212.882C217.043 211.837 218.853 210.836 220.533 210.163C222.236 209.481 223.717 209.175 224.775 209.409L204.772 226.058Z" fill="white"/>
<path d="M204.772 226.058C204.782 226.079 204.794 226.104 204.81 226.133C204.864 226.237 204.951 226.389 205.077 226.572C205.329 226.94 205.737 227.431 206.351 227.91C207.542 228.839 209.55 229.751 212.802 229.557C212.835 229.512 212.873 229.46 212.917 229.401C213.081 229.178 213.319 228.857 213.619 228.464C214.217 227.679 215.062 226.603 216.046 225.442C218.001 223.134 220.55 220.434 222.827 219.04C224.919 217.758 226.497 215.502 226.971 213.472C227.207 212.46 227.159 211.555 226.821 210.862C226.494 210.189 225.862 209.65 224.775 209.409M204.772 226.058L224.775 209.409M204.772 226.058L204.769 225.995C204.764 225.892 204.757 225.739 204.749 225.544C204.733 225.153 204.713 224.592 204.696 223.911C204.662 222.548 204.641 220.707 204.693 218.793C204.745 216.875 204.869 214.897 205.123 213.255C205.25 212.433 205.407 211.709 205.598 211.123C205.793 210.527 206.008 210.124 206.222 209.901C206.764 209.337 207.064 209.346 207.197 209.396C207.397 209.471 207.674 209.768 207.926 210.479C208.413 211.85 208.61 214.19 208.469 216.775L208.408 217.899L209.283 217.191M224.775 209.409C223.717 209.175 222.236 209.481 220.533 210.163C218.853 210.836 217.043 211.837 215.369 212.882C213.698 213.926 212.175 215.003 211.069 215.821C210.517 216.23 210.069 216.573 209.76 216.814C209.606 216.934 209.486 217.029 209.405 217.093C209.364 217.125 209.334 217.15 209.313 217.166L209.29 217.185L209.285 217.189L209.283 217.191M209.283 217.191L208.968 216.802" stroke="#263238"/>
<path d="M262.605 404.739L228.351 416.953L229.161 419.566C231.016 419.077 263.574 407.54 263.574 407.54C263.574 407.54 263.478 406.384 262.605 404.739Z" fill="#263238"/>
<path d="M262.718 400.434C264.527 399.792 296.011 385.586 296.011 385.586C296.011 385.586 295.837 384.515 294.911 383.021C285.261 387.315 266.198 395.775 261.342 397.759L262.718 400.434Z" fill="#263238"/>
<path d="M165.877 204.794C165.032 204.969 164.333 204.726 163.729 204.232C163.108 203.724 162.594 202.954 162.184 202.116C161.777 201.283 161.489 200.419 161.302 199.758C161.24 199.539 161.19 199.343 161.15 199.18L171.162 197.869C171.125 197.983 171.084 198.11 171.038 198.245C170.81 198.916 170.465 199.815 169.998 200.737C169.53 201.661 168.948 202.591 168.25 203.335C167.552 204.079 166.762 204.611 165.877 204.794Z" fill="white" stroke="#263238"/>
<path d="M75.8376 292.689H395.911V302.737H75.8376V292.689Z" fill="white" stroke="#263238"/>
<path d="M75.8376 292.689H203.326V302.737H75.8376V292.689Z" fill="white" stroke="#263238"/>
<path d="M91.9257 325.43H91.4257V325.93V421.185H83.9741V302.738H203.325V421.185H195.875V325.93V325.43H195.375H91.9257Z" fill="white" stroke="#263238"/>
<path d="M212.277 325.43H211.777V325.93V421.185H203.325V302.738H387.3V421.185H379.849V325.93V325.43H379.349H212.277Z" fill="white" stroke="#263238"/>
<path d="M373.585 200.553C373.245 200 372.699 199.576 372.023 199.403L373.585 200.553ZM373.585 200.553C373.941 201.13 374.07 201.844 373.888 202.552L356.31 271.295L373.585 200.553ZM374.373 202.676C374.589 201.832 374.435 200.979 374.011 200.291L374.373 202.676ZM374.373 202.676L356.794 271.419ZM374.373 202.676L356.794 271.419ZM355.528 272.584V272.583C355.898 272.253 356.177 271.814 356.31 271.296L355.528 272.584ZM355.528 272.584C355.005 273.05 354.301 273.298 353.575 273.233C353.494 273.226 353.404 273.216 353.307 273.205C353.068 273.178 352.791 273.147 352.534 273.147H248.791C246.506 273.147 244.834 270.993 245.4 268.78L262.463 202.051C262.86 200.502 264.255 199.418 265.854 199.418H370.205C370.458 199.418 370.724 199.389 370.955 199.363C371.035 199.354 371.111 199.346 371.18 199.34C371.459 199.313 371.741 199.331 372.023 199.403L355.528 272.584ZM356.794 271.419C356.636 272.036 356.303 272.562 355.861 272.956L356.794 271.419Z" fill="#0487FF"/>
<path d="M373.585 200.553C373.245 200 372.699 199.576 372.023 199.403M373.585 200.553L372.023 199.403M373.585 200.553C373.941 201.13 374.07 201.844 373.888 202.552L356.31 271.295L373.585 200.553ZM372.023 199.403C371.741 199.331 371.459 199.313 371.18 199.34C371.111 199.346 371.035 199.354 370.955 199.363C370.724 199.389 370.458 199.418 370.205 199.418H265.854C264.255 199.418 262.86 200.502 262.463 202.051L245.4 268.78C244.834 270.993 246.506 273.147 248.791 273.147H352.534C352.791 273.147 353.068 273.178 353.307 273.205C353.404 273.216 353.494 273.226 353.575 273.233C354.301 273.298 355.005 273.05 355.528 272.584M372.023 199.403L355.528 272.584M374.373 202.676C374.589 201.832 374.435 200.979 374.011 200.291L374.373 202.676ZM374.373 202.676L356.794 271.419M356.794 271.419C356.636 272.036 356.303 272.562 355.861 272.956L356.794 271.419ZM355.528 272.584V272.583C355.898 272.253 356.177 271.814 356.31 271.296L355.528 272.584Z" stroke="#263238"/>
<path d="M329.158 242.992H329.194L329.23 242.986C330.446 242.807 331.595 243.666 331.77 244.897L337.719 286.779H300.968L294.748 242.992H329.158Z" fill="white" stroke="#263238"/>
<path d="M296.784 244.897L302.733 286.779H298.19L292.331 245.53C292.156 244.3 293.011 243.161 294.241 242.987L294.244 242.986C295.46 242.807 296.609 243.666 296.784 244.897Z" fill="#263238" stroke="#263238"/>
<path d="M356.425 291.69H266.544C265.323 291.69 264.333 290.7 264.333 289.479V289.03C264.333 287.809 265.323 286.819 266.544 286.819H356.425C357.646 286.819 358.635 287.809 358.635 289.03V289.479C358.635 290.7 357.646 291.69 356.425 291.69Z" fill="white" stroke="#263238"/>
<path d="M317.031 292.19H266.544C265.047 292.19 263.833 290.976 263.833 289.479V289.03C263.833 287.533 265.047 286.319 266.544 286.319H317.031C318.529 286.319 319.742 287.533 319.742 289.03V289.479C319.741 290.976 318.528 292.19 317.031 292.19Z" fill="#263238"/>
<path d="M100.715 147.84L100.255 148.075L100.505 148.527C101.854 150.974 103.569 152.921 104.943 154.254C105.374 154.673 105.773 155.032 106.118 155.328C100.626 154.817 97.2595 152.376 95.2488 150.05L95.0568 149.828L94.7694 149.887C92.9963 150.253 91.1151 150.452 89.1646 150.452C83.8015 150.452 78.9679 148.964 75.4892 146.585C72.008 144.204 69.9253 140.966 69.9253 137.45C69.9253 133.935 72.008 130.697 75.4892 128.316C78.968 125.936 83.8015 124.448 89.1646 124.448C94.5278 124.448 99.3613 125.936 102.84 128.316C106.321 130.697 108.404 133.935 108.404 137.45C108.404 141.632 105.45 145.428 100.715 147.84Z" fill="#52D180" stroke="#263238"/>
<path d="M81.0565 137.215C81.0565 138.025 80.3876 138.681 79.5622 138.681C78.7368 138.681 78.0679 138.026 78.0679 137.215C78.0679 136.406 78.7368 135.75 79.5622 135.75C80.3876 135.75 81.0565 136.406 81.0565 137.215Z" fill="white"/>
<path d="M90.6588 137.215C90.6588 138.025 89.9899 138.681 89.1645 138.681C88.3391 138.681 87.6702 138.026 87.6702 137.215C87.6702 136.406 88.3391 135.75 89.1645 135.75C89.9899 135.75 90.6588 136.406 90.6588 137.215Z" fill="white"/>
<path d="M100.261 137.215C100.261 138.025 99.5922 138.681 98.7668 138.681C97.9414 138.681 97.2725 138.026 97.2725 137.215C97.2725 136.406 97.9414 135.75 98.7668 135.75C99.5922 135.75 100.261 136.406 100.261 137.215Z" fill="white"/>
<path d="M202.297 190.309L202.468 190.02L202.264 189.752C200.852 187.901 200.063 185.81 200.063 183.602C200.063 180.009 202.15 176.705 205.631 174.278C209.109 171.852 213.941 170.336 219.302 170.336C224.663 170.336 229.496 171.852 232.974 174.278C236.454 176.705 238.542 180.009 238.542 183.602C238.542 187.194 236.454 190.498 232.974 192.925C229.496 195.351 224.663 196.867 219.302 196.867C214.247 196.867 209.661 195.518 206.238 193.329L205.942 193.141L205.664 193.354C203.646 194.902 200.864 196.206 197.056 196.564C197.355 196.303 197.695 195.994 198.062 195.637C199.338 194.399 200.953 192.59 202.297 190.309Z" fill="#0487FF" stroke="#263238"/>
<path d="M211.806 181.492L219.189 190.153L230.125 176.429L218.797 184.942L211.806 181.492Z" fill="white"/>
<path d="M242.663 67.5821L242.227 67.8558L242.513 68.284C243.811 70.2213 245.249 71.751 246.362 72.7961C246.609 73.0282 246.84 73.2367 247.051 73.4208C243.029 73.0428 240.152 71.6092 238.109 69.945L237.901 69.7753L237.644 69.8554C235.234 70.6076 232.561 71.0302 229.742 71.0302C224.381 71.0302 219.549 69.5138 216.071 67.0882C212.59 64.6613 210.503 61.3571 210.503 57.7651C210.503 54.1725 212.59 50.8684 216.071 48.4416C219.549 46.0161 224.381 44.5 229.742 44.5C235.103 44.5 239.936 46.0163 243.414 48.442C246.894 50.8689 248.982 54.173 248.982 57.7651C248.982 61.6079 246.59 65.1218 242.663 67.5821Z" fill="#0487FF" stroke="#263238"/>
<path d="M229.207 51.9819C231.223 51.9819 232.515 52.9426 232.515 54.691C232.515 57.1165 230.074 57.3534 230.074 59.3062H228.246C228.246 56.8329 230.277 56.7394 230.277 55.0844C230.277 54.3291 229.79 53.9825 228.986 53.9825C228.12 53.9825 227.632 54.4715 227.584 55.4636L225.711 55.4473C225.758 53.2567 227.065 51.9819 229.207 51.9819ZM230.341 61.9045C230.341 62.6293 229.837 63.165 229.129 63.165C228.434 63.165 227.915 62.6293 227.915 61.9045C227.915 61.1644 228.434 60.6602 229.129 60.6602C229.837 60.6602 230.341 61.1644 230.341 61.9045Z" fill="white"/>
<path d="M401.123 190.77C400.975 190.77 400.855 190.65 400.855 190.502V187.348C400.855 187.2 400.975 187.08 401.123 187.08C401.272 187.08 401.392 187.2 401.392 187.348V190.502C401.392 190.65 401.272 190.77 401.123 190.77Z" fill="#0487FF"/>
<path d="M401.123 196.505C400.975 196.505 400.855 196.385 400.855 196.236V193.083C400.855 192.934 400.975 192.814 401.123 192.814C401.272 192.814 401.392 192.934 401.392 193.083V196.236C401.392 196.385 401.272 196.505 401.123 196.505Z" fill="#0487FF"/>
<path d="M405.568 192.06H402.414C402.266 192.06 402.146 191.94 402.146 191.792C402.146 191.643 402.266 191.523 402.414 191.523H405.568C405.716 191.523 405.836 191.643 405.836 191.792C405.836 191.94 405.716 192.06 405.568 192.06Z" fill="#0487FF"/>
<path d="M399.833 192.06H396.68C396.532 192.06 396.412 191.94 396.412 191.792C396.412 191.643 396.532 191.523 396.68 191.523H399.833C399.982 191.523 400.102 191.643 400.102 191.792C400.102 191.94 399.982 192.06 399.833 192.06Z" fill="#0487FF"/>
<path d="M69.4246 338.612C69.2762 338.612 69.1562 338.492 69.1562 338.344V335.19C69.1562 335.042 69.2762 334.922 69.4246 334.922C69.573 334.922 69.693 335.042 69.693 335.19V338.344C69.694 338.492 69.574 338.612 69.4246 338.612Z" fill="#0487FF"/>
<path d="M69.4246 344.346C69.2762 344.346 69.1562 344.226 69.1562 344.078V340.925C69.1562 340.776 69.2762 340.656 69.4246 340.656C69.573 340.656 69.693 340.776 69.693 340.925V344.078C69.694 344.226 69.574 344.346 69.4246 344.346Z" fill="#0487FF"/>
<path d="M73.8692 339.903H70.7159C70.5675 339.903 70.4475 339.783 70.4475 339.635C70.4475 339.486 70.5675 339.366 70.7159 339.366H73.8692C74.0176 339.366 74.1376 339.486 74.1376 339.635C74.1386 339.782 74.0186 339.903 73.8692 339.903Z" fill="#0487FF"/>
<path d="M68.1346 339.903H64.9813C64.8328 339.903 64.7129 339.783 64.7129 339.635C64.7129 339.486 64.8328 339.366 64.9813 339.366H68.1346C68.283 339.366 68.403 339.486 68.403 339.635C68.404 339.782 68.283 339.903 68.1346 339.903Z" fill="#0487FF"/>
<path d="M379.395 269.116C379.246 269.116 379.126 268.996 379.126 268.847V265.694C379.126 265.545 379.246 265.426 379.395 265.426C379.543 265.426 379.663 265.545 379.663 265.694V268.847C379.663 268.996 379.543 269.116 379.395 269.116Z" fill="#0487FF"/>
<path d="M379.395 274.85C379.246 274.85 379.126 274.73 379.126 274.582V271.428C379.126 271.28 379.246 271.16 379.395 271.16C379.543 271.16 379.663 271.28 379.663 271.428V274.582C379.663 274.73 379.543 274.85 379.395 274.85Z" fill="#0487FF"/>
<path d="M383.838 270.406H380.685C380.536 270.406 380.417 270.286 380.417 270.137C380.417 269.989 380.536 269.869 380.685 269.869H383.838C383.987 269.869 384.107 269.989 384.107 270.137C384.108 270.286 383.988 270.406 383.838 270.406Z" fill="#0487FF"/>
<path d="M378.104 270.406H374.951C374.802 270.406 374.682 270.286 374.682 270.137C374.682 269.989 374.802 269.869 374.951 269.869H378.104C378.252 269.869 378.372 269.989 378.372 270.137C378.373 270.286 378.252 270.406 378.104 270.406Z" fill="#0487FF"/>
<path d="M169.878 91.1332C169.73 91.1332 169.61 91.0132 169.61 90.8648V87.7115C169.61 87.5631 169.73 87.4431 169.878 87.4431C170.027 87.4431 170.147 87.5631 170.147 87.7115V90.8648C170.147 91.0132 170.027 91.1332 169.878 91.1332Z" fill="#0487FF"/>
<path d="M169.878 96.8676C169.73 96.8676 169.61 96.7476 169.61 96.5992V93.4459C169.61 93.2974 169.73 93.1775 169.878 93.1775C170.027 93.1775 170.147 93.2974 170.147 93.4459V96.5992C170.147 96.7476 170.027 96.8676 169.878 96.8676Z" fill="#0487FF"/>
<path d="M174.323 92.4241H171.169C171.021 92.4241 170.901 92.3042 170.901 92.1558C170.901 92.0074 171.021 91.8875 171.169 91.8875H174.323C174.471 91.8875 174.591 92.0074 174.591 92.1558C174.591 92.3032 174.471 92.4241 174.323 92.4241Z" fill="#0487FF"/>
<path d="M168.588 92.4241H165.435C165.286 92.4241 165.167 92.3042 165.167 92.1558C165.167 92.0074 165.286 91.8875 165.435 91.8875H168.588C168.737 91.8875 168.857 92.0074 168.857 92.1558C168.857 92.3032 168.737 92.4241 168.588 92.4241Z" fill="#0487FF"/>
<path d="M64.7122 211.859C64.5638 211.859 64.4438 211.739 64.4438 211.59V208.437C64.4438 208.288 64.5638 208.168 64.7122 208.168C64.8606 208.168 64.9806 208.288 64.9806 208.437V211.59C64.9816 211.739 64.8616 211.859 64.7122 211.859Z" fill="#0487FF"/>
<path d="M64.7122 217.593C64.5638 217.593 64.4438 217.473 64.4438 217.325V214.171C64.4438 214.023 64.5638 213.903 64.7122 213.903C64.8606 213.903 64.9806 214.023 64.9806 214.171V217.325C64.9816 217.473 64.8616 217.593 64.7122 217.593Z" fill="#0487FF"/>
<path d="M69.1566 213.149H66.0032C65.8548 213.149 65.7349 213.029 65.7349 212.88C65.7349 212.732 65.8548 212.612 66.0032 212.612H69.1566C69.305 212.612 69.4249 212.732 69.4249 212.88C69.426 213.029 69.306 213.149 69.1566 213.149Z" fill="#0487FF"/>
<path d="M63.4222 213.149H60.2689C60.1204 213.149 60.0005 213.029 60.0005 212.88C60.0005 212.732 60.1204 212.612 60.2689 212.612H63.4222C63.5706 212.612 63.6906 212.732 63.6906 212.88C63.6916 213.029 63.5716 213.149 63.4222 213.149Z" fill="#0487FF"/>
<path d="M220.065 266.248C219.917 266.248 219.797 266.128 219.797 265.98V262.826C219.797 262.678 219.917 262.558 220.065 262.558C220.214 262.558 220.334 262.678 220.334 262.826V265.98C220.334 266.128 220.214 266.248 220.065 266.248Z" fill="#0487FF"/>
<path d="M220.065 271.982C219.917 271.982 219.797 271.862 219.797 271.714V268.561C219.797 268.412 219.917 268.292 220.065 268.292C220.214 268.292 220.334 268.412 220.334 268.561V271.714C220.334 271.862 220.214 271.982 220.065 271.982Z" fill="#0487FF"/>
<path d="M224.509 267.539H221.356C221.208 267.539 221.088 267.419 221.088 267.271C221.088 267.122 221.208 267.002 221.356 267.002H224.509C224.658 267.002 224.778 267.122 224.778 267.271C224.778 267.419 224.658 267.539 224.509 267.539Z" fill="#0487FF"/>
<path d="M218.775 267.539H215.622C215.473 267.539 215.354 267.419 215.354 267.271C215.354 267.122 215.473 267.002 215.622 267.002H218.775C218.924 267.002 219.044 267.122 219.044 267.271C219.044 267.419 218.924 267.539 218.775 267.539Z" fill="#0487FF"/>
</g>
</g>
<defs>
<clipPath id="clip0_518_24">
<rect width="480" height="480" rx="24" fill="white"/>
</clipPath>
<clipPath id="clip1_518_24">
<rect width="346" height="378" fill="white" transform="translate(60 44)"/>
</clipPath>
</defs>
</svg>
