<svg width="480" height="480" viewBox="0 0 480 480" fill="none" xmlns="http://www.w3.org/2000/svg">
<g clip-path="url(#clip0_518_600)">
<rect width="480" height="480" rx="24" fill="#E6F3FF"/>
<path d="M-63.0307 40.797C-37.594 54.942 19.0022 75.7464 41.8932 45.8042C70.5069 8.37643 41.7034 0.871287 33.2448 19.5475C24.7861 38.2237 66.9969 63.6025 108.765 25.1247C142.179 -5.65749 157.787 -53.1176 161.414 -72.9999" stroke="#0487FF" stroke-dasharray="6 6"/>
<path d="M479.529 315.123C454.601 330.146 408.389 368.881 422.967 403.637C441.189 447.083 462.034 425.835 450.045 409.203C438.056 392.572 395.035 416.553 407.622 471.93C417.691 516.232 451.088 553.391 466.527 566.432" stroke="#0487FF" stroke-dasharray="6 6"/>
<path d="M264.175 120.736C264.135 120.736 264.088 120.736 264.034 120.736C263.691 120.656 263.449 120.292 263.53 119.929C264.922 113.434 266.515 106.879 268.25 100.444C268.351 100.081 268.714 99.8794 269.057 99.9803C269.42 100.061 269.622 100.444 269.541 100.787C267.806 107.201 266.233 113.737 264.841 120.212C264.76 120.535 264.498 120.736 264.175 120.736Z" fill="#CADDFF"/>
<path d="M259.496 103.833H160.436C155.998 103.833 152.387 107.443 152.387 111.881V267.601C152.387 272.039 155.998 275.649 160.436 275.649H278.234V122.592C278.234 112.224 269.843 103.833 259.496 103.833Z" fill="#5479F7"/>
<path fill-rule="evenodd" clip-rule="evenodd" d="M278.234 276.315H160.436C155.635 276.315 151.722 272.402 151.722 267.602V111.881C151.722 107.081 155.635 103.167 160.436 103.167H259.495C270.186 103.167 278.9 111.881 278.9 122.592V275.65C278.9 276.013 278.597 276.315 278.234 276.315ZM160.436 104.499C156.381 104.499 153.053 107.807 153.053 111.881V267.602C153.053 271.676 156.381 274.984 160.436 274.984H277.569V122.592C277.569 112.608 269.46 104.499 259.495 104.499H160.436Z" fill="#263238"/>
<path d="M396.033 103.833H296.993C286.626 103.833 278.234 112.224 278.234 122.592V275.649H396.033C400.471 275.649 404.081 272.039 404.081 267.601V111.881C404.081 107.443 400.471 103.833 396.033 103.833Z" fill="#0487FF"/>
<path fill-rule="evenodd" clip-rule="evenodd" d="M396.033 276.315H278.234C277.871 276.315 277.569 276.013 277.569 275.65V122.592C277.569 111.881 286.282 103.167 296.993 103.167H396.033C400.834 103.167 404.747 107.081 404.747 111.881V267.602C404.747 272.402 400.834 276.315 396.033 276.315ZM278.9 274.984H396.033C400.108 274.984 403.416 271.676 403.416 267.602V111.881C403.416 107.807 400.108 104.499 396.033 104.499H296.993C287.009 104.499 278.9 112.608 278.9 122.592V274.984Z" fill="#263238"/>
<path d="M277.734 262.723C277.734 265.208 275.72 267.223 273.234 267.223H166.384C163.899 267.223 161.884 265.208 161.884 262.723V105.283C161.884 102.798 163.899 100.783 166.384 100.783H182.056C183.4 100.783 184.674 101.383 185.528 102.42L276.706 213C277.371 213.806 277.734 214.819 277.734 215.863V262.723Z" fill="white" stroke="#263238"/>
<path d="M283.234 267.223C280.749 267.223 278.734 265.208 278.734 262.723V216.006C278.734 214.884 279.154 213.802 279.91 212.973L380.957 102.25C381.81 101.315 383.016 100.783 384.281 100.783H390.105C392.591 100.783 394.605 102.798 394.605 105.283V262.723C394.605 265.208 392.591 267.223 390.105 267.223H283.234Z" fill="white" stroke="#263238"/>
<path d="M294.21 251.247C287.107 251.247 281.046 255.743 278.734 262.055V116.258C278.734 107.7 285.671 100.783 294.21 100.783H381.575V251.247H294.21Z" fill="white" stroke="#263238"/>
<path d="M364.102 127.13H302.197C301.834 127.13 301.532 126.828 301.532 126.464C301.532 126.101 301.834 125.799 302.197 125.799H364.102C364.465 125.799 364.768 126.101 364.768 126.464C364.768 126.828 364.465 127.13 364.102 127.13Z" fill="#263238"/>
<path d="M364.102 136.873H302.197C301.834 136.873 301.532 136.571 301.532 136.208C301.532 135.824 301.834 135.522 302.197 135.522H364.102C364.465 135.522 364.768 135.824 364.768 136.208C364.768 136.571 364.465 136.873 364.102 136.873Z" fill="#263238"/>
<path d="M364.102 146.596H302.197C301.834 146.596 301.532 146.293 301.532 145.93C301.532 145.567 301.834 145.264 302.197 145.264H364.102C364.465 145.264 364.768 145.567 364.768 145.93C364.768 146.293 364.465 146.596 364.102 146.596Z" fill="#263238"/>
<path d="M364.102 166.06H302.197C301.834 166.06 301.532 165.758 301.532 165.395C301.532 165.032 301.834 164.729 302.197 164.729H364.102C364.465 164.729 364.768 165.032 364.768 165.395C364.768 165.758 364.465 166.06 364.102 166.06Z" fill="#263238"/>
<path d="M364.102 175.803H302.197C301.834 175.803 301.532 175.5 301.532 175.137C301.532 174.754 301.834 174.472 302.197 174.472H364.102C364.465 174.472 364.768 174.754 364.768 175.137C364.768 175.5 364.465 175.803 364.102 175.803Z" fill="#263238"/>
<path d="M364.102 185.525H302.197C301.834 185.525 301.532 185.222 301.532 184.859C301.532 184.496 301.834 184.194 302.197 184.194H364.102C364.465 184.194 364.768 184.496 364.768 184.859C364.768 185.222 364.465 185.525 364.102 185.525Z" fill="#263238"/>
<path d="M364.102 204.99H302.197C301.834 204.99 301.532 204.688 301.532 204.325C301.532 203.962 301.834 203.659 302.197 203.659H364.102C364.465 203.659 364.768 203.962 364.768 204.325C364.768 204.688 364.465 204.99 364.102 204.99Z" fill="#263238"/>
<path d="M364.102 214.733H302.197C301.834 214.733 301.532 214.43 301.532 214.067C301.532 213.684 301.834 213.401 302.197 213.401H364.102C364.465 213.401 364.768 213.684 364.768 214.067C364.768 214.43 364.465 214.733 364.102 214.733Z" fill="#263238"/>
<path d="M364.102 224.456H302.197C301.834 224.456 301.532 224.153 301.532 223.79C301.532 223.427 301.834 223.124 302.197 223.124H364.102C364.465 223.124 364.768 223.427 364.768 223.79C364.768 224.153 364.465 224.456 364.102 224.456Z" fill="#263238"/>
<path d="M277.734 116.258V262.049C275.426 255.74 269.375 251.247 262.259 251.247H174.914V100.783H262.259C270.818 100.783 277.734 107.7 277.734 116.258Z" fill="white" stroke="#263238"/>
<path d="M254.271 136.873H192.387C192.003 136.873 191.701 136.571 191.701 136.208C191.701 135.824 192.003 135.522 192.387 135.522H254.271C254.634 135.522 254.937 135.824 254.937 136.208C254.937 136.571 254.634 136.873 254.271 136.873Z" fill="#263238"/>
<path d="M254.271 146.596H192.387C192.003 146.596 191.701 146.293 191.701 145.93C191.701 145.567 192.003 145.264 192.387 145.264H254.271C254.634 145.264 254.937 145.567 254.937 145.93C254.937 146.293 254.634 146.596 254.271 146.596Z" fill="#263238"/>
<path d="M254.271 166.06H192.387C192.003 166.06 191.701 165.758 191.701 165.395C191.701 165.032 192.003 164.729 192.387 164.729H254.271C254.634 164.729 254.937 165.032 254.937 165.395C254.937 165.758 254.634 166.06 254.271 166.06Z" fill="#263238"/>
<path d="M254.271 175.803H192.387C192.003 175.803 191.701 175.5 191.701 175.137C191.701 174.754 192.003 174.472 192.387 174.472H254.271C254.634 174.472 254.937 174.754 254.937 175.137C254.937 175.5 254.634 175.803 254.271 175.803Z" fill="#263238"/>
<path d="M254.271 185.525H192.387C192.003 185.525 191.701 185.222 191.701 184.859C191.701 184.496 192.003 184.194 192.387 184.194H254.271C254.634 184.194 254.937 184.496 254.937 184.859C254.937 185.222 254.634 185.525 254.271 185.525Z" fill="#263238"/>
<path d="M254.271 204.99H192.387C192.003 204.99 191.701 204.688 191.701 204.325C191.701 203.962 192.003 203.659 192.387 203.659H254.271C254.634 203.659 254.937 203.962 254.937 204.325C254.937 204.688 254.634 204.99 254.271 204.99Z" fill="#263238"/>
<path d="M254.271 214.733H192.387C192.003 214.733 191.701 214.43 191.701 214.067C191.701 213.684 192.003 213.401 192.387 213.401H254.271C254.634 213.401 254.937 213.684 254.937 214.067C254.937 214.43 254.634 214.733 254.271 214.733Z" fill="#263238"/>
<path d="M254.271 224.456H192.387C192.003 224.456 191.701 224.153 191.701 223.79C191.701 223.427 192.003 223.124 192.387 223.124H254.271C254.634 223.124 254.937 223.427 254.937 223.79C254.937 224.153 254.634 224.456 254.271 224.456Z" fill="#263238"/>
<path d="M237.348 100.282H228.291V98.3055C228.291 95.2597 230.752 92.7988 233.798 92.7988H237.348V100.282Z" fill="#263238"/>
<path fill-rule="evenodd" clip-rule="evenodd" d="M237.348 100.949H228.291C227.928 100.949 227.625 100.646 227.625 100.283V98.3064C227.625 94.8975 230.389 92.134 233.798 92.134H237.348C237.731 92.134 238.014 92.4164 238.014 92.7997V100.283C238.014 100.646 237.731 100.949 237.348 100.949ZM228.957 99.6175H236.682V93.4653H233.798C231.135 93.4653 228.957 95.6236 228.957 98.3064V99.6175Z" fill="#263238"/>
<path d="M254.877 92.7988H237.408H233.112C235.472 92.7988 237.408 94.7151 237.408 97.0953V129.208L247.676 118.92L257.963 129.208V95.885C257.963 94.1705 256.571 92.7988 254.877 92.7988Z" fill="#52D180"/>
<path fill-rule="evenodd" clip-rule="evenodd" d="M237.408 129.874C237.328 129.874 237.24 129.854 237.146 129.813C236.904 129.713 236.743 129.471 236.743 129.208V97.0961C236.743 95.0992 235.109 93.4653 233.112 93.4653C232.729 93.4653 232.446 93.1628 232.446 92.7997C232.446 92.4164 232.729 92.134 233.112 92.134H254.876C256.934 92.134 258.628 93.8082 258.628 95.8858V129.208C258.628 129.471 258.467 129.713 258.205 129.813C257.963 129.914 257.68 129.854 257.479 129.672L247.675 119.869L237.872 129.672C237.751 129.793 237.59 129.874 237.408 129.874ZM236.501 93.4653C237.469 94.373 238.074 95.664 238.074 97.0961V127.595L247.211 118.457C247.454 118.195 247.897 118.195 248.16 118.457L257.297 127.595V95.8858C257.297 94.5546 256.208 93.4653 254.876 93.4653H236.501Z" fill="#263238"/>
<path d="M258.447 267.723V277.143C258.447 279.845 260.625 282.024 263.308 282.024H293.262C295.965 282.024 298.123 279.845 298.123 277.143V267.723H258.447Z" fill="#5479F7"/>
<path fill-rule="evenodd" clip-rule="evenodd" d="M293.262 282.689H263.308C260.262 282.689 257.781 280.208 257.781 277.142V267.723C257.781 267.339 258.084 267.057 258.447 267.057H298.123C298.506 267.057 298.809 267.339 298.809 267.723V277.142C298.809 280.208 296.328 282.689 293.262 282.689ZM259.132 268.388V277.142C259.132 279.462 261.008 281.338 263.308 281.338H293.262C295.581 281.338 297.457 279.462 297.457 277.142V268.388H259.132Z" fill="#263238"/>
<path fill-rule="evenodd" clip-rule="evenodd" d="M165.217 123.359C175.948 137.741 172.982 158.093 158.6 168.824C144.218 179.535 123.886 176.59 113.155 162.208C102.424 147.826 105.389 127.473 119.771 116.763C134.153 106.032 154.486 108.997 165.217 123.359ZM121.506 119.082C108.415 128.845 105.712 147.382 115.475 160.473C125.238 173.564 143.775 176.267 156.866 166.484C169.957 156.721 172.66 138.204 162.897 125.093C153.134 112.002 134.597 109.32 121.506 119.082Z" fill="white"/>
<path fill-rule="evenodd" clip-rule="evenodd" d="M139.236 175.925C129.11 175.925 119.126 171.326 112.611 162.612C101.698 147.947 104.724 127.151 119.368 116.218C134.012 105.286 154.829 108.311 165.761 122.976C176.674 137.62 173.648 158.436 159.004 169.349C153.074 173.786 146.115 175.925 139.236 175.925ZM120.175 117.287C106.116 127.776 103.211 147.746 113.68 161.805C124.169 175.864 144.138 178.769 158.197 168.28C172.256 157.791 175.181 137.822 164.692 123.762C154.203 109.703 134.234 106.799 120.175 117.287ZM139.216 173.02C129.998 173.02 120.881 168.824 114.95 160.877C104.966 147.504 107.729 128.523 121.103 118.538C127.577 113.717 135.545 111.7 143.533 112.85C151.541 114.02 158.6 118.236 163.421 124.71C168.262 131.185 170.28 139.153 169.11 147.141C167.96 155.128 163.744 162.208 157.269 167.029C151.863 171.063 145.509 173.02 139.216 173.02ZM139.135 113.879C132.943 113.879 126.952 115.855 121.909 119.607C109.121 129.148 106.479 147.302 116.019 160.07C125.54 172.859 143.694 175.481 156.462 165.96C162.655 161.341 166.689 154.584 167.798 146.959C168.908 139.314 166.971 131.69 162.352 125.497C157.733 119.305 150.996 115.291 143.351 114.181C141.939 113.979 140.534 113.879 139.135 113.879Z" fill="#263238"/>
<path d="M73.9627 191.496C72.8332 189.983 73.1357 187.845 74.6486 186.716L109.746 160.534L113.841 166L78.7433 192.182C77.2305 193.312 75.0923 193.009 73.9627 191.496Z" fill="white"/>
<path fill-rule="evenodd" clip-rule="evenodd" d="M76.7058 193.534C75.4552 193.534 74.2248 192.969 73.4179 191.9C72.7725 191.012 72.4901 189.943 72.6514 188.854C72.8128 187.785 73.3776 186.817 74.2651 186.171L109.343 159.989C109.484 159.889 109.665 159.848 109.847 159.868C110.028 159.888 110.17 159.989 110.291 160.131L114.365 165.617C114.587 165.899 114.526 166.323 114.244 166.545L79.1465 192.727C78.4204 193.272 77.553 193.534 76.7058 193.534ZM74.487 191.093C75.3947 192.303 77.1294 192.566 78.3397 191.658L112.913 165.879L109.605 161.462L75.0518 187.24C74.4668 187.684 74.0836 188.33 73.9827 189.056C73.8617 189.782 74.0634 190.508 74.487 191.093Z" fill="#263238"/>
<path d="M105.853 170.68L103.009 166.847C102.101 165.637 102.343 163.922 103.554 163.015L103.836 162.813C105.046 161.905 106.761 162.147 107.669 163.378L110.533 167.19C111.42 168.4 111.178 170.115 109.968 171.023L109.686 171.224C108.475 172.132 106.761 171.89 105.853 170.68Z" fill="white"/>
<path fill-rule="evenodd" clip-rule="evenodd" d="M108.052 172.435C107.023 172.435 105.994 171.971 105.308 171.083L102.464 167.251C101.92 166.524 101.698 165.617 101.819 164.729C101.96 163.822 102.424 163.035 103.15 162.49L103.432 162.268C104.159 161.724 105.066 161.502 105.974 161.643C106.862 161.764 107.668 162.248 108.213 162.974L111.057 166.787C112.187 168.299 111.864 170.438 110.371 171.567L110.089 171.769C109.484 172.233 108.758 172.435 108.052 172.435ZM106.377 170.276C107.063 171.184 108.374 171.386 109.282 170.7L109.564 170.498C110.492 169.812 110.674 168.501 109.988 167.593L107.144 163.761C106.801 163.317 106.317 163.035 105.772 162.954C105.228 162.873 104.683 163.015 104.239 163.337L103.957 163.559C103.513 163.882 103.231 164.366 103.15 164.911C103.069 165.455 103.211 166.02 103.533 166.464L106.377 170.276Z" fill="#263238"/>
<path d="M97.7646 176.711L94.9003 172.898C93.9926 171.668 94.2548 169.953 95.4651 169.046L95.7475 168.844C96.9578 167.936 98.6723 168.198 99.58 169.409L102.424 173.221C103.332 174.451 103.09 176.166 101.879 177.074L101.597 177.275C100.387 178.183 98.6723 177.921 97.7646 176.711Z" fill="white"/>
<path fill-rule="evenodd" clip-rule="evenodd" d="M99.9632 178.486C99.8019 178.486 99.6338 178.472 99.459 178.446C98.5714 178.325 97.7646 177.84 97.22 177.114L94.3759 173.282C93.8312 172.556 93.6094 171.668 93.7304 170.76C93.8716 169.853 94.3355 169.066 95.0617 168.521L95.3441 168.32C96.8569 167.19 98.995 167.493 100.125 169.005L102.969 172.838C103.513 173.564 103.735 174.452 103.614 175.359C103.473 176.267 103.009 177.054 102.263 177.598L102.001 177.8C101.395 178.244 100.689 178.486 99.9632 178.486ZM97.3814 168.965C96.9376 168.965 96.514 169.106 96.1307 169.389L95.8685 169.59C94.9407 170.276 94.7591 171.567 95.4449 172.495L98.289 176.307C98.632 176.751 99.1161 177.054 99.6607 177.134C100.205 177.215 100.75 177.074 101.194 176.731L101.476 176.529C101.92 176.207 102.202 175.722 102.283 175.158C102.364 174.613 102.222 174.068 101.9 173.625L99.0354 169.812C98.6319 169.268 98.0067 168.965 97.3814 168.965Z" fill="#263238"/>
<path d="M161.686 142.683C161.323 142.683 161.021 142.381 161.021 142.018C161.001 139.819 160.658 137.641 159.992 135.543C159.891 135.2 160.073 134.817 160.436 134.696C160.779 134.595 161.162 134.797 161.263 135.139C161.969 137.358 162.332 139.678 162.352 142.018C162.352 142.381 162.049 142.683 161.686 142.683Z" fill="#263238"/>
<path d="M131.208 164.508C131.128 164.508 131.054 164.494 130.986 164.467C126.549 162.914 122.696 160.11 119.872 156.318C112.106 145.89 114.244 131.084 124.673 123.318C135.101 115.553 149.907 117.691 157.673 128.119C157.894 128.422 157.834 128.825 157.531 129.047C157.249 129.269 156.825 129.208 156.603 128.926C149.261 119.082 135.303 117.065 125.48 124.387C115.636 131.73 113.619 145.688 120.941 155.511C123.604 159.082 127.235 161.744 131.43 163.217C131.773 163.338 131.955 163.721 131.833 164.064C131.733 164.346 131.47 164.508 131.208 164.508Z" fill="#263238"/>
<path d="M206.112 278.947L206.106 278.946C203.171 278.575 200.996 276.086 200.996 273.129L200.996 273.119L199.266 185.214C199.336 185.164 199.422 185.103 199.522 185.033C199.814 184.827 200.22 184.545 200.676 184.239C201.597 183.621 202.695 182.923 203.476 182.547L203.476 182.547L203.483 182.544C204.239 182.166 205.087 182.02 205.981 182.129C205.981 182.129 205.982 182.129 205.982 182.129L332.008 198.205L332.008 198.205C334.947 198.577 337.138 201.068 337.138 204.003V290.617C337.138 291.992 336.506 293.225 335.506 294.042L335.506 294.043C335.011 294.448 334.172 295.088 333.45 295.631C333.09 295.901 332.762 296.146 332.524 296.323C332.437 296.387 332.361 296.443 332.301 296.488L206.112 278.947Z" fill="#5479F7" stroke="#263238"/>
<path d="M328.646 297.685L328.645 297.684L202.616 281.608L202.616 281.608C199.699 281.236 197.506 278.746 197.506 275.811V189.217C197.506 186.531 199.845 184.466 202.509 184.811L202.51 184.811L328.539 200.887L328.602 200.391L328.539 200.887C331.457 201.259 333.649 203.73 333.649 206.685V293.279C333.649 295.964 331.31 298.029 328.646 297.685Z" fill="white" stroke="#263238"/>
<path d="M316.418 213.604C316.391 213.604 316.364 213.597 316.338 213.584L211.67 200.614C211.307 200.553 211.045 200.23 211.105 199.867C211.146 199.504 211.468 199.242 211.852 199.282L316.499 212.273C316.862 212.313 317.124 212.636 317.084 213.019C317.044 213.342 316.741 213.604 316.418 213.604Z" fill="#263238"/>
<path d="M316.418 220.078C316.391 220.078 316.364 220.078 316.338 220.078L211.67 207.088C211.307 207.048 211.045 206.725 211.105 206.362C211.146 205.979 211.468 205.736 211.852 205.777L316.499 218.747C316.862 218.807 317.124 219.13 317.084 219.493C317.044 219.836 316.741 220.078 316.418 220.078Z" fill="#263238"/>
<path d="M316.418 225.867C316.391 225.867 316.364 225.86 316.338 225.847L211.67 212.877C211.307 212.837 211.045 212.494 211.105 212.131C211.146 211.767 211.468 211.505 211.852 211.546L316.499 224.536C316.862 224.576 317.124 224.899 317.084 225.282C317.044 225.605 316.741 225.867 316.418 225.867Z" fill="#263238"/>
<path d="M316.418 232.342C316.391 232.342 316.364 232.342 316.338 232.342L211.67 219.372C211.307 219.312 211.045 218.989 211.105 218.626C211.146 218.263 211.468 218 211.852 218.041L316.499 231.011C316.862 231.071 317.124 231.394 317.084 231.757C317.044 232.1 316.741 232.342 316.418 232.342Z" fill="#263238"/>
<path d="M272.587 232.544C272.56 232.544 272.526 232.537 272.486 232.524L211.69 225.061C211.307 225.02 211.045 224.677 211.105 224.314C211.146 223.951 211.468 223.689 211.852 223.729L272.667 231.213C273.03 231.253 273.293 231.576 273.232 231.959C273.192 232.282 272.909 232.544 272.587 232.544Z" fill="#263238"/>
<path d="M272.587 239.019C272.56 239.019 272.526 239.019 272.486 239.019L211.69 231.556C211.307 231.515 211.045 231.173 211.105 230.81C211.146 230.446 211.468 230.184 211.852 230.225L272.667 237.688C273.03 237.748 273.293 238.071 273.232 238.434C273.192 238.777 272.909 239.019 272.587 239.019Z" fill="#263238"/>
<path d="M272.587 244.808C272.56 244.808 272.526 244.801 272.486 244.787L211.69 237.324C211.307 237.284 211.045 236.941 211.105 236.578C211.146 236.215 211.468 235.953 211.852 235.993L272.667 243.476C273.03 243.517 273.293 243.86 273.232 244.223C273.192 244.545 272.909 244.808 272.587 244.808Z" fill="#263238"/>
<path d="M272.587 251.304C272.56 251.29 272.526 251.284 272.486 251.284L211.69 243.82C211.307 243.78 211.045 243.437 211.105 243.074C211.146 242.711 211.468 242.449 211.852 242.489L272.667 249.972C273.03 250.013 273.293 250.335 273.232 250.699C273.192 251.041 272.909 251.304 272.587 251.304Z" fill="#263238"/>
<path d="M272.587 257.838C272.56 257.838 272.526 257.838 272.486 257.838L211.69 250.355C211.307 250.315 211.045 249.972 211.105 249.609C211.146 249.245 211.468 249.003 211.852 249.024L272.667 256.507C273.03 256.547 273.293 256.89 273.232 257.253C273.192 257.596 272.909 257.838 272.587 257.838Z" fill="#263238"/>
<path d="M272.587 264.333C272.56 264.333 272.526 264.327 272.486 264.313L211.69 256.85C211.307 256.81 211.045 256.467 211.105 256.104C211.146 255.741 211.468 255.478 211.852 255.519L272.667 263.002C273.03 263.043 273.293 263.365 273.232 263.749C273.192 264.071 272.909 264.333 272.587 264.333Z" fill="#263238"/>
<path d="M272.587 270.102C272.56 270.102 272.526 270.102 272.486 270.102L211.69 262.619C211.307 262.579 211.045 262.256 211.105 261.873C211.146 261.51 211.468 261.268 211.852 261.308L272.667 268.771C273.03 268.811 273.293 269.154 273.232 269.517C273.192 269.86 272.909 270.102 272.587 270.102Z" fill="#263238"/>
<path d="M272.587 276.598C272.56 276.598 272.526 276.591 272.486 276.577L211.69 269.114C211.307 269.074 211.045 268.731 211.105 268.368C211.146 268.005 211.468 267.743 211.852 267.783L272.667 275.266C273.03 275.307 273.293 275.65 273.232 276.013C273.192 276.335 272.909 276.598 272.587 276.598Z" fill="#263238"/>
<path d="M255.058 349.193L125.439 332.471C124.431 332.33 123.866 331.483 123.866 330.636C123.886 330.051 123.926 325.936 123.926 325.936L192.468 286.744C195.897 284.787 200.334 284.02 204.268 284.525L332.233 301.045C333.019 301.146 333.665 301.65 333.967 302.356L334.189 302.84C334.189 302.84 334.068 306.269 334.108 307.076C334.149 307.701 333.866 308.367 333.201 308.73L266.394 346.934C262.965 348.89 258.992 349.677 255.058 349.193Z" fill="#263238"/>
<path d="M125.484 324.999L125.485 324.999L191.949 287.037C191.949 287.037 191.949 287.037 191.949 287.037C195.283 285.134 199.148 284.369 202.973 284.859L332.128 301.541C333.361 301.7 333.692 303.329 332.608 303.96C332.607 303.961 332.607 303.961 332.607 303.961L266.146 341.901L266.145 341.902C262.811 343.823 258.947 344.589 255.122 344.098L125.967 327.417C124.727 327.256 124.411 325.608 125.484 324.999Z" fill="white" stroke="#263238"/>
<path d="M280.418 323.019L280.417 323.019L168.427 308.456L168.427 308.456C167.345 308.315 167.075 306.888 168.004 306.361C168.004 306.361 168.004 306.361 168.005 306.361L194.327 291.475L194.329 291.474C197.34 289.753 200.821 289.068 204.265 289.499C204.265 289.499 204.265 289.499 204.266 289.499L316.253 304.082L316.253 304.082C317.327 304.222 317.614 305.628 316.674 306.178C316.673 306.179 316.672 306.179 316.671 306.18L290.333 321.063L290.33 321.065C287.34 322.785 283.84 323.469 280.418 323.019Z" fill="#0487FF" stroke="#263238"/>
<path d="M257.337 345.401C256.544 345.401 255.757 345.354 254.977 345.26L228.15 341.791C227.787 341.75 227.525 341.407 227.565 341.044C227.625 340.681 227.948 340.419 228.311 340.459L255.139 343.929C258.89 344.413 262.783 343.646 266.071 341.77L309.015 317.222C309.338 317.041 309.742 317.162 309.923 317.464C310.105 317.787 310.004 318.211 309.681 318.392L266.737 342.92C263.873 344.554 260.605 345.401 257.337 345.401Z" fill="#263238"/>
<path d="M316.075 352.723L325.112 364.583C325.193 364.745 325.273 364.967 325.576 364.946C332.555 364.583 393.27 357.503 421.509 355.244C421.65 355.224 421.63 355.143 421.489 355.042L417.576 352.44L316.075 352.723Z" fill="white"/>
<path fill-rule="evenodd" clip-rule="evenodd" d="M325.556 365.612C324.91 365.612 324.648 365.128 324.547 364.967V364.947L315.531 353.126C315.309 352.824 315.369 352.421 315.652 352.199C315.954 351.977 316.378 352.017 316.6 352.32L325.636 364.18C325.65 364.207 325.663 364.234 325.677 364.261L325.697 364.281C328.803 364.079 340.744 362.809 355.812 361.175C376.972 358.916 403.133 356.092 419.774 354.7L417.213 352.985C416.91 352.784 416.83 352.38 417.031 352.057C417.233 351.755 417.636 351.674 417.959 351.876L421.872 354.498C422.235 354.74 422.316 355.103 422.256 355.345C422.175 355.668 421.892 355.87 421.55 355.91C405.05 357.241 377.819 360.166 355.953 362.506C340.623 364.16 328.541 365.451 325.616 365.612C325.589 365.612 325.569 365.612 325.556 365.612ZM421.126 355.608C421.126 355.608 421.133 355.608 421.146 355.608H421.126Z" fill="#263238"/>
<path d="M419.129 352.36C417.173 351.452 395.247 338.502 377.395 326.844C375.54 327.146 337.84 329.809 299.414 332.391L319.848 360.832C319.848 360.832 365.152 356.737 419.19 352.582C419.371 352.582 419.351 352.461 419.129 352.36Z" fill="white"/>
<path fill-rule="evenodd" clip-rule="evenodd" d="M319.848 361.497C319.626 361.497 319.424 361.396 319.303 361.215L298.87 332.774C298.728 332.572 298.708 332.31 298.809 332.108C298.93 331.886 299.132 331.725 299.374 331.725C338.385 329.123 375.519 326.48 377.274 326.178C377.436 326.158 377.617 326.178 377.758 326.279C395.61 337.937 417.596 350.907 419.412 351.755C419.896 351.976 420.017 352.36 419.976 352.642C419.916 352.904 419.694 353.227 419.25 353.247C365.817 357.342 320.352 361.457 319.908 361.497C319.881 361.497 319.861 361.497 319.848 361.497ZM300.665 332.975L320.17 360.125C324.608 359.742 367.189 355.91 417.213 352.077C411.505 348.85 393.129 337.917 377.234 327.529C373.442 327.953 338.707 330.434 300.665 332.975Z" fill="#263238"/>
<path d="M354.077 353.672C353.896 353.672 353.714 353.591 353.593 353.47C353.472 353.329 341.067 340.5 335.117 334.267C334.875 334.005 334.875 333.581 335.157 333.319C335.419 333.057 335.843 333.077 336.085 333.339C342.035 339.572 354.42 352.401 354.562 352.542C354.804 352.804 354.804 353.228 354.541 353.49C354.4 353.611 354.239 353.672 354.077 353.672Z" fill="#263238"/>
<path d="M340.623 347.701C340.442 347.701 340.281 347.64 340.139 347.499C337.436 344.796 334.794 341.912 332.454 339.37C330.881 337.656 329.388 336.022 328.138 334.751C327.875 334.489 327.896 334.065 328.158 333.803C328.42 333.541 328.844 333.541 329.086 333.803C330.356 335.094 331.849 336.728 333.443 338.463C335.762 341.004 338.405 343.868 341.087 346.551C341.35 346.813 341.35 347.237 341.087 347.499C340.966 347.64 340.785 347.701 340.623 347.701Z" fill="#263238"/>
<path d="M347.179 354.6C346.997 354.6 346.836 354.519 346.695 354.378C346.695 354.378 345.162 352.724 342.782 350.142C342.519 349.88 342.54 349.456 342.822 349.194C343.084 348.952 343.508 348.972 343.75 349.234C346.15 351.816 347.663 353.47 347.683 353.47C347.925 353.732 347.905 354.156 347.643 354.418C347.502 354.539 347.34 354.6 347.179 354.6Z" fill="#263238"/>
<path d="M339.534 354.942C339.353 354.942 339.171 354.882 339.05 354.741C338.929 354.6 327.21 342.154 321.804 335.639C321.562 335.356 321.602 334.933 321.885 334.691C322.167 334.469 322.591 334.509 322.833 334.792C328.218 341.266 339.897 353.692 340.018 353.813C340.281 354.095 340.26 354.519 339.998 354.761C339.857 354.882 339.696 354.942 339.534 354.942Z" fill="#263238"/>
<path d="M393.693 349.013C393.552 349.013 393.411 348.972 393.29 348.892L370.84 332.009C370.557 331.787 370.497 331.383 370.719 331.081C370.941 330.778 371.364 330.718 371.647 330.939L394.097 347.823C394.379 348.044 394.44 348.448 394.218 348.75C394.097 348.932 393.895 349.013 393.693 349.013Z" fill="#263238"/>
<path d="M384.657 350.404C384.516 350.404 384.354 350.364 384.233 350.243L362.731 332.472C362.449 332.25 362.408 331.827 362.65 331.544C362.892 331.262 363.296 331.222 363.598 331.443L385.081 349.214C385.363 349.456 385.403 349.88 385.181 350.162C385.04 350.323 384.859 350.404 384.657 350.404Z" fill="#263238"/>
<path d="M377.153 352.481C376.992 352.481 376.831 352.421 376.689 352.3C376.649 352.26 372.151 348.104 365.676 342.456C365.414 342.214 365.374 341.791 365.616 341.508C365.858 341.226 366.281 341.206 366.564 341.448C373.039 347.096 377.557 351.271 377.597 351.311C377.88 351.574 377.9 351.997 377.638 352.26C377.516 352.401 377.335 352.481 377.153 352.481Z" fill="#263238"/>
<path d="M362.086 346.269C361.924 346.269 361.743 346.209 361.622 346.088C356.498 341.126 348.067 332.977 348.067 332.977L348.995 332.029C348.995 332.029 357.426 340.178 362.549 345.12C362.812 345.382 362.812 345.805 362.57 346.068C362.428 346.209 362.267 346.269 362.086 346.269Z" fill="#263238"/>
<path d="M369.044 352.864C368.883 352.864 368.702 352.804 368.581 352.683C368.56 352.663 366.684 350.807 364.304 348.528C364.042 348.265 364.042 347.862 364.284 347.58C364.546 347.317 364.97 347.317 365.232 347.559C367.612 349.859 369.488 351.715 369.508 351.735C369.771 351.997 369.771 352.421 369.508 352.683C369.387 352.804 369.206 352.864 369.044 352.864Z" fill="#263238"/>
<path d="M362.085 353.389C361.924 353.389 361.742 353.328 361.621 353.207C361.48 353.066 347.824 339.773 341.43 333.601C341.148 333.339 341.148 332.915 341.41 332.653C341.652 332.391 342.076 332.391 342.358 332.633C348.772 338.825 362.408 352.118 362.549 352.239C362.811 352.501 362.811 352.925 362.569 353.187C362.428 353.328 362.267 353.389 362.085 353.389Z" fill="#263238"/>
<path d="M363.457 340.499C363.295 340.499 363.134 340.439 362.993 340.318L354.965 332.794C354.703 332.532 354.682 332.108 354.945 331.846C355.187 331.564 355.61 331.564 355.873 331.806L363.921 339.35C364.183 339.592 364.203 340.015 363.941 340.278C363.82 340.419 363.638 340.499 363.457 340.499Z" fill="#263238"/>
<path d="M339.332 372.652C341.874 373.721 344.456 374.851 346.473 376.747C348.53 378.663 349.922 381.568 349.297 384.331C348.127 389.455 342.519 392.238 338.525 394.841C333.422 398.149 328.117 401.215 322.429 403.393C315.652 406.015 306.817 406.58 301.915 400.065C298.647 395.748 306.494 382.375 313.251 376.808C316.237 374.367 319.867 372.713 323.579 371.624C328.803 370.091 334.169 370.454 339.151 372.572C339.218 372.599 339.279 372.626 339.332 372.652Z" fill="#263238"/>
<path d="M301.875 386.671C303.932 386.349 305.606 385.401 307.26 383.424C309.398 380.822 310.73 377.897 312.565 375.134C315.712 370.454 319.645 369.002 325.253 369.264C329.711 369.486 334.168 370.252 338.465 371.543C340.522 372.168 342.64 372.955 344.093 374.549C344.476 374.992 344.839 375.597 344.557 376.122C344.436 376.384 344.173 376.546 343.911 376.707C340.26 379.047 337.638 382.637 336.468 386.752C335.48 390.201 333.16 393.146 330.477 395.486C325.172 400.146 317.548 403.333 310.407 402.566C307.583 402.264 304.86 401.336 302.036 400.932C299.273 400.529 296.449 400.65 293.665 400.71C287.614 400.892 281.562 401.215 275.511 401.356C263.953 401.679 252.395 401.941 240.837 402.203C234.867 402.337 228.889 402.472 222.905 402.606C206.667 402.606 191.761 393.59 184.217 379.208L169.25 350.646L186.396 302.74C186.396 302.74 213.163 364.887 213.284 365.209C214.675 368.396 219.859 370.857 222.744 372.269C227.544 374.649 232.688 376.324 237.832 377.756C249.612 381.023 261.755 382.98 273.877 384.473C282.369 385.522 290.922 386.389 299.474 386.772C300.342 386.813 301.128 386.792 301.875 386.671Z" fill="white"/>
<path fill-rule="evenodd" clip-rule="evenodd" d="M312.526 403.332C311.786 403.346 311.06 403.312 310.347 403.232C308.754 403.05 307.2 402.707 305.708 402.344C304.477 402.062 303.186 401.779 301.936 401.598C299.374 401.235 296.691 401.295 294.109 401.376H293.686C290.741 401.477 287.756 401.578 284.851 401.699C281.805 401.82 278.638 401.961 275.532 402.041C263.248 402.364 251.105 402.647 240.858 402.869C234.887 403.003 228.91 403.137 222.926 403.272C206.366 403.272 191.318 394.175 183.633 379.51L168.666 350.968C168.585 350.787 168.565 350.605 168.626 350.424L185.771 302.518C185.872 302.255 186.114 302.074 186.376 302.074C186.658 302.054 186.9 302.215 187.021 302.477C187.021 302.477 213.768 364.624 213.909 364.947C215.14 367.791 219.86 370.111 222.684 371.503L223.027 371.664C227.142 373.701 231.761 375.375 238.014 377.11C248.14 379.914 259.234 381.992 273.959 383.807C284.004 385.058 292.112 385.784 299.515 386.106C300.362 386.147 301.109 386.106 301.774 386.006C303.731 385.703 305.264 384.775 306.757 382.98C308.048 381.427 309.016 379.753 310.045 377.998C310.67 376.929 311.295 375.839 312.021 374.77C315.107 370.151 319.081 368.295 325.274 368.598C329.812 368.82 334.31 369.607 338.647 370.897C340.805 371.563 343.024 372.39 344.577 374.105C345.303 374.891 345.505 375.739 345.162 376.424C344.94 376.848 344.577 377.07 344.295 377.271C340.785 379.51 338.244 382.94 337.094 386.933C336.186 390.161 334.109 393.207 330.922 395.99C325.637 400.63 318.758 403.332 312.526 403.332ZM297.317 399.984C298.93 399.984 300.524 400.045 302.117 400.266C303.449 400.468 304.74 400.751 306.01 401.053C307.463 401.396 308.975 401.739 310.488 401.9C316.903 402.586 324.406 399.944 330.054 395.002C333.039 392.38 334.976 389.535 335.823 386.57C337.054 382.254 339.797 378.562 343.549 376.142C343.73 376.041 343.912 375.92 343.972 375.819C344.053 375.678 343.891 375.335 343.589 375.012C342.258 373.54 340.241 372.773 338.264 372.188C334.028 370.918 329.651 370.151 325.213 369.929C319.464 369.667 315.955 371.281 313.131 375.517C312.425 376.545 311.799 377.614 311.194 378.663C310.186 380.398 309.137 382.193 307.785 383.847C306.071 385.905 304.276 386.974 301.976 387.337C301.21 387.438 300.383 387.478 299.455 387.438C292.012 387.115 283.863 386.369 273.797 385.138C258.992 383.303 247.857 381.225 237.651 378.401C231.317 376.626 226.617 374.932 222.442 372.874L222.099 372.693C219.114 371.22 214.091 368.759 212.679 365.471C212.558 365.189 190.612 314.177 186.457 304.555L169.977 350.605L184.823 378.885C192.266 393.106 206.87 401.941 222.906 401.941C228.876 401.799 234.847 401.678 240.838 401.537C251.085 401.295 263.207 401.013 275.512 400.69C278.598 400.609 281.745 400.488 284.79 400.367C287.695 400.246 290.701 400.125 293.645 400.045H294.069C295.138 400.004 296.227 399.984 297.317 399.984Z" fill="#263238"/>
<mask id="mask0_518_600" style="mask-type:alpha" maskUnits="userSpaceOnUse" x="70" y="268" width="138" height="135">
<path d="M144.329 268.921C144.329 268.921 175.856 273.096 186.325 285.864C199.577 302.001 205.286 326.005 207.141 336.373C207.686 339.418 207.625 342.545 206.96 345.571L206.173 349.04C203.45 361.264 192.295 369.736 179.789 369.09H180.415C178.398 368.989 175.453 368.324 174.585 366.488L171.277 360.437L170.975 362.615C168.473 378.691 175.997 402.453 175.997 402.453L144.188 395.675C125.045 393.759 106.831 386.215 92.2068 373.689C84.2594 366.891 78.1275 360.538 75.4851 352.812C70.9869 339.701 71.3903 335.969 70.1397 320.054C69.2724 309.222 72.4594 298.391 79.2369 289.919C89.2215 277.453 108.445 264.382 144.329 268.921Z" fill="#E9E9E9"/>
</mask>
<g mask="url(#mask0_518_600)">
<rect x="-57" y="199" width="366" height="307" fill="#E9E9E9"/>
</g>
<path d="M171 361C168.5 378 173.167 393.667 175.5 400C121.5 409.5 68.5001 351.5 70.0001 322C71.5001 292.5 84.5001 282 100.5 274C113.3 267.6 135.167 268.333 144.5 269.5C176.5 274 184.5 283 193 296.5C199.8 307.3 204.167 322 205.5 328C208.167 336.667 209.9 356.1 195.5 364.5C181.1 372.9 176 368.5 173.5 364L171.5 360.5C171.5 360.5 171.163 359.894 171 361Z" stroke="#263238" stroke-width="1.2"/>
<path d="M172.487 362.875C172.245 362.875 172.003 362.734 171.882 362.492L163.067 343.955C162.906 343.612 163.047 343.228 163.37 343.067C163.713 342.906 164.116 343.047 164.257 343.37L173.092 361.907C173.253 362.25 173.112 362.653 172.769 362.794C172.675 362.848 172.581 362.875 172.487 362.875Z" fill="#263238"/>
<path d="M149.483 206.039L151.803 204.506C153.658 203.255 154.445 200.915 153.658 198.818C151.339 192.545 142.867 181.592 112.025 189.902C80.5988 198.374 86.1459 248.822 112.933 259.613C139.72 270.384 148.817 214.975 148.817 214.975L149.483 206.039Z" fill="#263238"/>
<path d="M145.63 207.19C145.973 205.274 148.535 204.85 149.503 206.544C151.863 210.679 152.993 213.544 153.356 215.299C153.86 217.659 151.682 220.019 152.851 222.54C154.042 225.081 155.897 227.946 156.059 232.484C156.22 236.922 160.738 257.295 144.904 256.649C144.279 256.629 143.754 257.113 143.775 257.738C143.815 260.845 143.976 269.377 144.662 273.976C145.045 276.497 143.472 278.898 141.031 279.584C134.698 281.379 122.898 283.9 114.063 281.016C111.783 280.269 110.573 277.768 111.38 275.489C112.429 272.584 113.881 264.455 112.933 259.614C112.933 259.614 118.218 259.09 124.108 256.387C133.144 252.232 137.602 242.126 135.101 232.504C134.556 230.427 133.407 227.482 134.617 224.355C137.743 216.307 142.403 224.396 142.403 224.396L145.63 207.19Z" fill="white"/>
<path fill-rule="evenodd" clip-rule="evenodd" d="M123.382 282.992C120.094 282.992 116.806 282.609 113.861 281.661C112.59 281.237 111.562 280.35 110.977 279.139C110.372 277.929 110.291 276.537 110.755 275.266C111.763 272.483 113.216 264.475 112.288 259.735L112.147 259.009L112.873 258.948C112.913 258.928 118.117 258.403 123.826 255.781C132.439 251.828 136.917 242.105 134.456 232.665C134.388 232.396 134.308 232.107 134.214 231.798C133.649 229.781 132.862 227.017 133.992 224.113C134.98 221.591 136.251 220.26 137.784 220.139C139.559 219.998 141.112 221.511 142.06 222.701L144.965 207.068C145.187 205.918 146.074 205.051 147.224 204.849C148.374 204.668 149.503 205.192 150.088 206.221C152.751 210.881 153.699 213.664 154.022 215.157C154.264 216.367 153.941 217.517 153.618 218.626C153.255 219.897 152.912 221.087 153.457 222.257C153.659 222.681 153.86 223.104 154.082 223.548C155.192 225.767 156.583 228.53 156.725 232.464C156.745 232.988 156.825 233.815 156.946 234.763C157.491 239.806 158.52 249.205 153.901 254.168C151.803 256.407 148.757 257.476 144.884 257.314C144.763 257.314 144.642 257.355 144.561 257.435C144.521 257.496 144.44 257.576 144.44 257.738C144.481 261.086 144.642 269.356 145.328 273.895C145.751 276.719 143.976 279.442 141.213 280.228C136.937 281.439 130.119 282.992 123.382 282.992ZM113.72 260.178C114.446 265.241 113.054 272.866 112.026 275.71C111.683 276.658 111.743 277.667 112.167 278.554C112.611 279.442 113.357 280.087 114.285 280.39C122.958 283.214 134.637 280.692 140.85 278.938C142.968 278.332 144.319 276.255 143.997 274.076C143.311 269.477 143.149 261.127 143.109 257.758C143.089 257.274 143.291 256.81 143.634 256.487C143.976 256.144 144.44 255.983 144.924 255.983C148.414 256.124 151.097 255.216 152.932 253.26C157.128 248.742 156.14 239.745 155.615 234.924C155.494 233.896 155.413 233.089 155.393 232.504C155.252 228.873 154.001 226.352 152.892 224.153C152.67 223.689 152.448 223.266 152.247 222.822C151.48 221.188 151.944 219.635 152.327 218.263C152.63 217.255 152.892 216.327 152.71 215.439C152.468 214.289 151.641 211.627 148.938 206.887C148.575 206.241 147.93 206.1 147.446 206.181C146.962 206.261 146.417 206.604 146.276 207.31L142.746 226.291L141.838 224.738C141.274 223.79 139.498 221.329 137.885 221.47C136.675 221.571 135.767 223.225 135.242 224.597C134.274 227.098 134.96 229.498 135.505 231.435C135.599 231.744 135.679 232.04 135.747 232.322C138.369 242.408 133.588 252.776 124.39 256.991C119.65 259.17 115.354 259.936 113.72 260.178Z" fill="#263238"/>
<path d="M99.3782 200.11C99.3782 200.11 83.907 192.707 72.6516 203.256C61.3962 213.806 50.5038 237.023 67.387 262.337C77.9768 278.252 82.0715 290.819 83.6247 297.979C84.1491 300.36 87.2958 300.965 88.6472 298.927C95.4449 288.721 107.83 266.23 101.839 245.111C93.7505 216.63 99.3782 200.11 99.3782 200.11Z" fill="#263238"/>
<path d="M156.442 230.568L155.756 229.418C160.617 226.493 157.612 218.304 156.643 215.984L142.423 223.246L141.818 222.055L157.269 214.148L157.551 214.774C157.793 215.258 163.138 226.533 156.442 230.568Z" fill="#263238"/>
<path d="M156.502 236.538C156.341 236.538 156.159 236.477 156.038 236.336C155.776 236.074 155.776 235.671 156.038 235.408L158.056 233.391C158.62 232.826 158.701 231.959 158.237 231.314L156.845 229.377C156.623 229.075 156.704 228.671 157.007 228.449C157.309 228.227 157.713 228.308 157.935 228.611L159.326 230.547C160.174 231.717 160.032 233.311 159.004 234.339L156.987 236.356C156.845 236.477 156.684 236.538 156.502 236.538Z" fill="#263238"/>
<path d="M140.224 238.313C139.881 238.313 139.518 238.273 139.135 238.172C137.34 237.728 135.787 236.195 134.556 233.633C134.395 233.311 134.536 232.907 134.879 232.746C135.202 232.584 135.605 232.726 135.767 233.048C136.816 235.227 138.046 236.518 139.438 236.881C140.91 237.244 142.06 236.437 142.12 236.397C142.403 236.175 142.826 236.256 143.048 236.558C143.25 236.84 143.19 237.264 142.907 237.486C142.847 237.526 141.757 238.313 140.224 238.313Z" fill="#263238"/>
<path d="M95.4851 198.698C95.4851 198.698 109.867 203.035 103.977 216.832C103.977 216.832 110.613 212.031 110.452 204.548C110.291 197.064 104.744 194.624 101.032 194.704C97.3408 194.805 95.4851 198.698 95.4851 198.698Z" fill="white"/>
<path fill-rule="evenodd" clip-rule="evenodd" d="M102.424 218.768L103.372 216.569C105.026 212.676 105.167 209.227 103.795 206.302C101.435 201.259 95.364 199.363 95.3034 199.343L94.5571 199.121L94.8799 198.415C94.9605 198.254 96.9575 194.139 101.012 194.038C103.332 193.997 105.692 194.804 107.487 196.277C109.08 197.588 111.017 200.089 111.118 204.527C111.299 212.272 104.643 217.154 104.36 217.356L102.424 218.768ZM96.4734 198.354C98.3291 199.06 102.908 201.239 105.006 205.737C106.236 208.359 106.398 211.304 105.51 214.552C107.366 212.575 109.887 209.065 109.786 204.567C109.726 201.461 108.636 198.939 106.66 197.326C105.127 196.055 103.029 195.349 101.052 195.389C98.6922 195.45 97.139 197.326 96.4734 198.354Z" fill="#263238"/>
<path d="M139.589 334.584L139.591 334.584C142.207 334.417 144.638 335.969 145.576 338.43L147.989 348.104L147.989 348.104C152.263 365.22 160.305 381.162 171.527 394.775L171.527 394.775L177.335 401.812C177.335 401.812 177.335 401.813 177.336 401.813C177.947 402.565 177.377 403.668 176.407 403.6L176.406 403.6L150.825 401.725C107.006 395.929 73.103 373.974 62.2213 334.074L62.2212 334.074L59.2964 323.363L59.2964 323.363C58.4695 320.337 61.7593 317.859 64.4659 319.485C76.4089 326.716 100.654 336.95 139.589 334.584Z" fill="white" stroke="#263238"/>
<path d="M172 101.285H182V256H172V101.285Z" fill="white"/>
<path fill-rule="evenodd" clip-rule="evenodd" d="M253.041 155.39H141.374C138.732 155.39 136.573 153.252 136.573 150.59V137.358C136.573 134.715 138.732 132.557 141.374 132.557H253.041C255.683 132.557 257.841 134.715 257.841 137.358V150.59C257.841 153.252 255.683 155.39 253.041 155.39ZM141.374 133.888C139.478 133.888 137.925 135.441 137.925 137.358V150.59C137.925 152.506 139.478 154.059 141.374 154.059H253.041C254.937 154.059 256.49 152.506 256.49 150.59V137.358C256.49 135.441 254.937 133.888 253.041 133.888H141.374Z" fill="#263238"/>
<path d="M253.041 154.725H141.374C139.095 154.725 137.239 152.889 137.239 150.59V137.357C137.239 135.078 139.095 133.222 141.374 133.222H253.041C255.32 133.222 257.156 135.078 257.156 137.357V150.59C257.156 152.889 255.32 154.725 253.041 154.725Z" fill="#0487FF"/>
<path d="M337.633 249H384.5V258H337.633V249Z" fill="white"/>
<rect x="378" y="112" width="6" height="139" fill="white"/>
<path d="M365.333 74.6858C352.988 74.6858 342.963 84.6906 342.963 97.0353V119.405H364.99C365.098 119.405 365.212 119.405 365.333 119.405C377.678 119.405 387.703 109.4 387.703 97.0353C387.703 84.6906 377.678 74.6858 365.333 74.6858Z" fill="#52D180"/>
<path fill-rule="evenodd" clip-rule="evenodd" d="M365.333 120.071C365.239 120.071 365.145 120.071 365.051 120.071C365.024 120.071 365.004 120.071 364.99 120.071H342.964C342.6 120.071 342.298 119.788 342.298 119.405V97.0353C342.298 84.3477 352.625 74 365.333 74C378.041 74 388.368 84.3477 388.368 97.0353C388.368 109.743 378.041 120.071 365.333 120.071ZM364.99 118.739H365.333C377.295 118.739 387.037 109.017 387.037 97.0353C387.037 85.0739 377.295 75.3515 365.333 75.3515C353.372 75.3515 343.629 85.0739 343.629 97.0353V118.739H364.91C364.936 118.739 364.963 118.739 364.99 118.739Z" fill="#263238"/>
<path d="M368.358 106.96V93.1223H362.287V106.96C362.287 107.887 361.54 108.654 360.613 108.654V110.147H370.053V108.654C369.125 108.654 368.358 107.887 368.358 106.96Z" fill="white"/>
<path d="M368.762 87.0106C368.762 88.9067 367.229 90.4397 365.333 90.4397C363.437 90.4397 361.904 88.9067 361.904 87.0106C361.904 85.1145 363.437 83.5815 365.333 83.5815C367.229 83.5815 368.762 85.1145 368.762 87.0106Z" fill="white"/>
<rect x="175" y="248" width="22" height="7" fill="white"/>
</g>
<defs>
<clipPath id="clip0_518_600">
<rect width="480" height="480" rx="24" fill="white"/>
</clipPath>
</defs>
</svg>
