<svg width="480" height="480" viewBox="0 0 480 480" fill="none" xmlns="http://www.w3.org/2000/svg">
<g clip-path="url(#clip0_506_80)">
<rect width="480" height="480" rx="24" fill="#E6F3FF"/>
<path d="M-63.0307 40.797C-37.594 54.9419 19.0022 75.7463 41.8932 45.8041C70.5069 8.37635 41.7034 0.871211 33.2448 19.5474C24.7861 38.2236 66.9969 63.6024 108.765 25.1247C142.179 -5.65756 157.787 -53.1177 161.414 -73" stroke="#0487FF" stroke-dasharray="6 6"/>
<path d="M479.529 315.123C454.601 330.146 408.389 368.881 422.967 403.637C441.189 447.083 462.034 425.835 450.045 409.204C438.056 392.572 395.035 416.553 407.622 471.93C417.691 516.232 451.088 553.391 466.528 566.432" stroke="#0487FF" stroke-dasharray="6 6"/>
</g>
<path d="M229.455 163.025C229.455 163.025 193.622 200.299 128.493 208.559C63.3639 216.819 35.957 293.014 66.4514 341.766C96.9459 390.519 162.149 386.791 195.35 366.823C228.551 346.855 257.651 333.402 290.15 336.697C322.649 339.993 428.22 316.514 414.614 208.002C401.009 99.4912 295.053 58.7936 229.455 163.025Z" fill="#E6F3FF"/>
<path d="M293.585 405.879C273.815 413.273 245.469 408.392 239.329 392.018C233.19 375.643 251.582 353.977 271.353 346.583C291.123 339.189 312.127 346.468 318.267 362.843C324.406 379.217 313.356 398.485 293.585 405.879Z" fill="#E6F3FF"/>
<path d="M223.692 391.953H188.894L187.799 354.899L186.611 314.895L183.683 306.572L175.974 284.656C173.568 277.811 172.642 270.531 173.261 263.302L174.828 245.02H203.621L221.987 306.133C222.694 308.479 223.139 310.893 223.318 313.331L223.692 391.953Z" fill="white"/>
<path d="M195.068 320.309C193.629 327.62 188.239 346.152 187.799 354.899L186.611 314.895L183.683 306.572L192.027 282.074C192.027 282.074 196.501 312.999 195.068 320.309Z" fill="#1D1E20"/>
<path d="M188.896 392.465C188.767 392.465 188.642 392.416 188.547 392.328C188.447 392.235 188.389 392.106 188.384 391.969L186.104 314.992L175.494 284.828C173.045 277.867 172.123 270.61 172.754 263.259L174.32 244.975C174.343 244.711 174.564 244.507 174.83 244.507H203.62C203.846 244.507 204.045 244.656 204.11 244.872L222.479 305.985C223.193 308.361 223.647 310.82 223.828 313.296L226.609 390.441C226.62 390.723 226.4 390.959 226.118 390.97L188.917 392.465C188.91 392.465 188.903 392.465 188.896 392.465ZM175.3 245.53L173.773 263.346C173.155 270.552 174.059 277.666 176.459 284.489L187.096 314.728C187.114 314.778 187.123 314.83 187.125 314.883L189.393 391.423L225.568 389.969L222.806 313.352C222.632 310.969 222.191 308.584 221.498 306.279L203.239 245.53H175.3Z" fill="#1D1E20"/>
<path d="M187.033 329.021C185.789 330.749 184.356 332.36 182.748 333.817L129.513 379.685L108.244 351.802L152.409 313.327L151.585 276.283C151.227 273.767 152.246 263.579 153.162 255.506C153.817 249.719 154.416 245.021 154.416 245.021H191.02L191.292 255.021L191.64 267.975L191.931 278.681L192.786 310.27C192.981 317.033 190.923 323.612 187.033 329.021Z" fill="white"/>
<path d="M208.752 262.101C205.772 263.839 200.393 268.405 192.085 269.739C191.639 269.811 191.184 269.882 190.718 269.943C185.707 270.628 179.472 271.385 173.611 272.377C163.788 274.038 154.554 274.601 154.267 278.363C153.812 284.365 152.409 313.327 152.409 313.327L151.585 276.283C151.227 273.767 152.245 263.579 153.162 255.506L173.954 255.24L191.292 255.02L203.275 254.867L207.518 258.001L208.752 262.101Z" fill="#1D1E20"/>
<path d="M129.514 380.198C129.496 380.198 129.478 380.197 129.461 380.195C129.32 380.181 129.193 380.109 129.107 379.997L107.837 352.111C107.674 351.896 107.705 351.592 107.908 351.416L151.891 313.097L151.076 276.324C150.479 271.898 153.766 246.055 153.907 244.954C153.939 244.699 154.157 244.507 154.415 244.507H191.021C191.304 244.507 191.533 244.736 191.533 245.019C191.533 245.301 191.304 245.53 191.021 245.53H154.866C154.423 249.058 151.539 272.314 152.094 276.211C152.097 276.232 152.098 276.252 152.099 276.272L152.919 313.314C152.922 313.466 152.858 313.611 152.744 313.711L108.942 351.872L129.591 378.945L182.413 333.429C188.93 327.523 192.528 319.084 192.277 310.284L191.421 278.693C191.413 278.411 191.636 278.176 191.919 278.168C192.214 278.156 192.437 278.383 192.444 278.665L193.3 310.255C193.56 319.354 189.839 328.079 183.092 334.194L129.848 380.074C129.755 380.155 129.636 380.198 129.514 380.198Z" fill="#1D1E20"/>
<path d="M280.583 189.029C280.583 189.029 250.92 234.658 242.011 235.991C238.221 236.559 230.796 234.428 223.479 231.77C217.737 229.693 212.062 227.287 208.259 225.616C205.417 224.363 203.621 223.521 203.621 223.521L217.335 200.976C217.335 200.976 220.163 202.724 223.398 204.679C225.306 205.828 227.359 207.049 229.055 208.027C231.004 209.148 232.488 209.946 232.763 209.946C233.674 209.946 258.94 176.836 259.323 176.25L259.328 176.241" fill="white"/>
<path d="M240.641 236.594C237.069 236.594 231.252 235.137 223.304 232.25C218.733 230.597 213.601 228.522 208.053 226.083C205.237 224.843 203.422 223.992 203.404 223.983L202.888 223.741L217.166 200.27L217.605 200.541C217.633 200.559 220.468 202.311 223.663 204.242C225.874 205.573 227.826 206.728 229.311 207.584C231.557 208.877 232.377 209.271 232.672 209.39C235.031 207.24 257.652 177.804 258.896 175.968L259.293 176.23L259.788 176.464L259.752 176.53C259.552 176.835 253.099 185.312 246.646 193.631C233.592 210.457 233.171 210.457 232.763 210.457C232.548 210.457 232.253 210.457 228.799 208.469C227.309 207.611 225.35 206.452 223.134 205.117C220.672 203.629 218.425 202.248 217.505 201.681L204.356 223.298C205.083 223.633 206.539 224.299 208.465 225.148C213.993 227.577 219.103 229.644 223.654 231.289C232.496 234.502 238.817 235.953 241.935 235.486C250.517 234.201 279.858 189.205 280.153 188.751L281.012 189.308C279.796 191.179 251.12 235.145 242.087 236.497C241.655 236.562 241.172 236.594 240.641 236.594Z" fill="#1D1E20"/>
<path d="M229.055 208.027C227.417 212.546 223.389 224.413 223.479 231.77C217.737 229.693 212.062 227.287 208.259 225.616C207.262 223.557 206.459 221.863 206.459 221.728C206.459 221.385 218.102 208.157 218.102 208.157C218.102 208.157 220.628 205.896 223.398 204.679C225.306 205.828 227.359 207.049 229.055 208.027Z" fill="#1D1E20"/>
<path d="M226.254 204.452C226.254 211.354 219.815 229.189 216.901 232.081C210.528 231.621 182.848 214.942 182.848 214.942L193.62 189.029C195.474 189.417 221.269 200.032 226.254 204.452Z" fill="#E9E9E9"/>
<path d="M216.901 232.593C216.888 232.593 216.876 232.592 216.864 232.591C210.442 232.128 183.718 216.064 182.584 215.38C182.367 215.249 182.278 214.98 182.375 214.746L193.147 188.833C193.241 188.607 193.479 188.478 193.725 188.529C195.547 188.91 221.576 199.62 226.594 204.069C226.703 204.166 226.766 204.306 226.766 204.452C226.766 211.36 220.287 229.441 217.261 232.444C217.165 232.54 217.035 232.593 216.901 232.593ZM183.49 214.731C186.782 216.698 210.522 230.778 216.7 231.548C219.588 228.275 225.598 211.303 225.74 204.684C220.654 200.43 197.617 190.861 193.917 189.647L183.49 214.731Z" fill="#1D1E20"/>
<path d="M205.949 207.197C208.827 227.22 209.99 259.817 209.99 259.817C210.986 265.21 149.715 276.364 147.144 268.116C149.195 262.066 149.255 238.723 149.255 238.723C149.255 238.723 143.795 205.566 147.711 197.744C151.022 191.13 162.493 188.744 170.674 187.575C176.377 186.761 180.098 186.109 185.418 186.894C187.137 187.147 196.01 189.526 198.496 190.973" fill="#E9E9E9"/>
<path d="M158.666 271.564C152.143 271.564 147.397 270.648 146.655 268.268C146.623 268.165 146.624 268.054 146.659 267.952C148.619 262.17 148.738 239.883 148.742 238.764C148.435 236.891 143.343 205.327 147.253 197.515C150.69 190.651 162.224 188.266 170.602 187.069L171.753 186.904C176.811 186.173 180.465 185.646 185.493 186.387C187.282 186.652 196.218 189.055 198.754 190.531C198.997 190.673 199.08 190.986 198.938 191.23C198.795 191.474 198.484 191.556 198.238 191.414C195.848 190.023 187.041 187.649 185.343 187.399C180.463 186.679 176.872 187.198 171.899 187.915L170.747 188.081C166.051 188.752 151.763 190.793 148.169 197.972C144.371 205.558 149.705 238.31 149.759 238.64C149.764 238.667 149.766 238.696 149.766 238.724C149.763 239.671 149.684 261.802 147.686 268.106C149.627 272.582 175.532 270.407 195.777 265.414C206.918 262.666 209.616 260.612 209.486 259.91C209.482 259.885 209.479 259.86 209.478 259.835C209.466 259.51 208.284 227.036 205.442 207.27C205.402 206.99 205.597 206.731 205.876 206.691C206.154 206.649 206.415 206.845 206.456 207.124C209.265 226.669 210.456 258.57 210.5 259.766C210.788 261.732 205.918 263.966 196.023 266.406C185.589 268.98 169.621 271.564 158.666 271.564Z" fill="#1D1E20"/>
<path d="M244.852 425.262C244.821 425.814 244.74 426.373 244.61 426.924L231.12 426.526L230.553 426.507L206.655 425.794L197.873 425.532C194.839 425.455 192.301 423.421 191.469 420.649C191.292 420.062 191.192 419.448 191.179 418.809L190.947 406.918L190.663 392.396L218.192 390.373L218.768 404.478L233.56 412.801L234.692 413.437L240.009 416.427C242.125 417.619 243.646 419.528 244.377 421.714C244.752 422.843 244.921 424.046 244.852 425.262Z" fill="white"/>
<path d="M244.611 427.435C244.606 427.435 244.601 427.435 244.596 427.435L197.858 426.043C194.662 425.962 191.896 423.853 190.979 420.795C190.786 420.158 190.682 419.493 190.667 418.82L190.152 392.406C190.147 392.135 190.354 391.906 190.626 391.886L218.155 389.863C218.29 389.853 218.429 389.899 218.533 389.992C218.637 390.084 218.698 390.214 218.704 390.352L219.269 404.172L240.26 415.981C242.437 417.207 244.071 419.186 244.863 421.552C245.267 422.77 245.435 424.028 245.363 425.291C245.331 425.873 245.245 426.462 245.109 427.041C245.055 427.272 244.848 427.435 244.611 427.435ZM191.185 392.87L191.691 418.799C191.703 419.378 191.794 419.951 191.959 420.501C192.75 423.134 195.132 424.95 197.886 425.021L244.198 426.4C244.271 426.012 244.319 425.621 244.341 425.233V425.233C244.405 424.099 244.254 422.969 243.891 421.874C243.18 419.75 241.712 417.973 239.758 416.872L218.517 404.923C218.363 404.836 218.264 404.675 218.257 404.498L217.703 390.922L191.185 392.87Z" fill="#1D1E20"/>
<path d="M244.852 425.262C244.821 425.814 244.74 426.373 244.61 426.924L231.12 426.526C230.016 424.765 229.433 422.659 229.558 420.432C229.735 417.309 231.271 414.585 233.56 412.801L234.692 413.437L240.009 416.427C242.125 417.619 243.646 419.528 244.377 421.714C244.752 422.843 244.921 424.046 244.852 425.262Z" fill="#1D1E20"/>
<path d="M244.611 427.435C244.606 427.435 244.601 427.435 244.596 427.435L231.105 427.037C230.934 427.032 230.778 426.942 230.687 426.797C229.486 424.882 228.919 422.671 229.048 420.403C229.226 417.256 230.756 414.339 233.246 412.398C233.409 412.271 233.631 412.254 233.812 412.355L240.26 415.981C242.437 417.207 244.071 419.185 244.863 421.552C245.267 422.77 245.435 424.027 245.363 425.291C245.331 425.873 245.246 426.462 245.109 427.041C245.055 427.272 244.848 427.435 244.611 427.435ZM231.413 426.023L244.198 426.4C244.271 426.012 244.319 425.621 244.341 425.233V425.233C244.405 424.099 244.254 422.969 243.891 421.874C243.18 419.75 241.712 417.973 239.758 416.872L233.612 413.416C231.511 415.172 230.224 417.721 230.069 420.46C229.959 422.425 230.423 424.343 231.413 426.023Z" fill="#1D1E20"/>
<path d="M206.655 425.794L197.873 425.532C194.839 425.455 192.301 423.421 191.469 420.649C191.292 420.062 191.192 419.449 191.179 418.809L190.947 406.918C195.949 408.679 206.696 413.19 207.011 422.829C207.048 423.913 206.921 424.898 206.655 425.794Z" fill="#1D1E20"/>
<path d="M206.655 426.305C206.65 426.305 206.645 426.305 206.64 426.305L197.858 426.043C194.662 425.962 191.896 423.853 190.979 420.795C190.786 420.158 190.682 419.493 190.667 418.819L190.436 406.928C190.433 406.76 190.512 406.602 190.648 406.503C190.784 406.405 190.961 406.38 191.118 406.435C201.621 410.134 207.294 415.797 207.522 422.813C207.56 423.917 207.434 424.969 207.146 425.939C207.082 426.157 206.882 426.305 206.655 426.305ZM191.474 407.651L191.691 418.799C191.703 419.379 191.794 419.952 191.959 420.501C192.75 423.135 195.132 424.951 197.886 425.021L206.266 425.271C206.45 424.512 206.528 423.698 206.499 422.847C206.29 416.44 201.099 411.196 191.474 407.651Z" fill="#1D1E20"/>
<path d="M244.852 425.262C244.821 425.814 244.74 426.373 244.61 426.924L197.873 425.532C194.839 425.455 192.301 423.421 191.469 420.648L244.377 421.714C244.752 422.843 244.921 424.046 244.852 425.262Z" fill="#1D1E20"/>
<path d="M244.611 427.435C244.606 427.435 244.601 427.435 244.595 427.435L197.858 426.043C194.662 425.962 191.896 423.853 190.979 420.795C190.932 420.639 190.963 420.469 191.062 420.339C191.161 420.209 191.327 420.13 191.48 420.137L244.388 421.203C244.604 421.207 244.795 421.348 244.863 421.553C245.267 422.77 245.435 424.028 245.363 425.291C245.33 425.873 245.245 426.462 245.109 427.041C245.055 427.272 244.848 427.435 244.611 427.435ZM192.203 421.175C193.17 423.44 195.373 424.957 197.886 425.021L244.198 426.4C244.271 426.012 244.319 425.621 244.341 425.234V425.233C244.399 424.217 244.283 423.204 243.998 422.218L192.203 421.175Z" fill="#1D1E20"/>
<path d="M222.087 403.627C222.122 403.938 222.018 404.262 221.781 404.501L218.901 407.402C218.488 407.819 217.813 407.823 217.392 407.408C217.213 407.229 217.109 407.005 217.083 406.774C217.047 406.463 217.151 406.139 217.388 405.9L220.268 403C220.681 402.583 221.357 402.582 221.778 402.994C221.956 403.172 222.061 403.397 222.087 403.627Z" fill="#1D1E20"/>
<path d="M226.439 406.471C226.474 406.782 226.37 407.106 226.133 407.345L223.253 410.245C222.84 410.662 222.165 410.667 221.743 410.252C221.565 410.073 221.461 409.848 221.434 409.618C221.399 409.307 221.503 408.983 221.74 408.744L224.62 405.843C225.033 405.427 225.709 405.426 226.13 405.837C226.308 406.016 226.412 406.241 226.439 406.471Z" fill="#1D1E20"/>
<path d="M230.79 409.315C230.826 409.626 230.722 409.95 230.485 410.189L227.605 413.089C227.192 413.506 226.516 413.511 226.095 413.095C225.917 412.917 225.812 412.692 225.786 412.462C225.751 412.151 225.855 411.827 226.092 411.588L228.972 408.687C229.385 408.27 230.061 408.269 230.481 408.681C230.66 408.86 230.764 409.084 230.79 409.315Z" fill="#1D1E20"/>
<path d="M228.29 391.3V394.015C228.29 395.819 226.826 397.281 225.019 397.281H188.046C186.244 397.281 184.78 395.819 184.78 394.015V391.3C184.78 389.495 186.244 388.038 188.046 388.038H225.019C226.826 388.038 228.29 389.495 228.29 391.3Z" fill="#1D1E20"/>
<path d="M225.019 397.792H188.046C185.963 397.792 184.269 396.098 184.269 394.014V391.3C184.269 389.22 185.963 387.527 188.046 387.527H225.019C227.105 387.527 228.802 389.22 228.802 391.3V394.014C228.802 396.097 227.105 397.792 225.019 397.792ZM188.046 388.549C186.528 388.549 185.293 389.783 185.293 391.3V394.014C185.293 395.534 186.528 396.77 188.046 396.77H225.019C226.541 396.77 227.779 395.534 227.779 394.014V391.3C227.779 389.783 226.541 388.549 225.019 388.549H188.046Z" fill="#1D1E20"/>
<path d="M114.179 418.686C113.717 418.991 113.22 419.259 112.7 419.484L104.969 408.436L104.645 407.97L90.956 388.393L85.9259 381.199C84.1773 378.722 84.2963 375.474 86.0273 373.153C86.3927 372.661 86.8262 372.215 87.3323 371.822L96.7473 364.54L108.244 355.646L126.299 376.5L115.311 385.379L117.452 402.201L117.616 403.487L118.387 409.532C118.692 411.939 118.066 414.297 116.746 416.188C116.062 417.162 115.197 418.015 114.179 418.686Z" fill="white"/>
<path d="M112.699 419.996C112.536 419.996 112.378 419.918 112.28 419.777L85.5059 381.492C83.6638 378.882 83.7078 375.407 85.6168 372.847C86.0143 372.312 86.4861 371.831 87.0191 371.418L107.931 355.242C108.147 355.075 108.455 355.106 108.632 355.311L126.686 376.165C126.777 376.27 126.821 376.407 126.809 376.545C126.796 376.683 126.729 376.81 126.621 376.897L115.855 385.598L118.895 409.468C119.209 411.943 118.595 414.434 117.167 416.48C116.43 417.53 115.519 418.416 114.461 419.113C113.973 419.435 113.448 419.718 112.903 419.954C112.837 419.982 112.768 419.996 112.699 419.996ZM108.175 356.347L87.6459 372.227C87.1875 372.582 86.7811 372.996 86.4382 373.457C84.7941 375.662 84.7562 378.655 86.3442 380.905L112.874 418.842C113.229 418.669 113.572 418.474 113.897 418.26C114.848 417.633 115.665 416.838 116.327 415.894C117.61 414.057 118.162 411.82 117.879 409.596L114.803 385.444C114.781 385.268 114.851 385.093 114.989 384.982L125.566 376.435L108.175 356.347Z" fill="#1D1E20"/>
<path d="M114.179 418.686C113.717 418.991 113.22 419.259 112.7 419.484L104.969 408.436C105.725 406.5 107.069 404.776 108.933 403.547C111.547 401.825 114.653 401.431 117.452 402.2L117.616 403.487L118.387 409.532C118.692 411.939 118.066 414.297 116.746 416.188C116.062 417.162 115.197 418.015 114.179 418.686Z" fill="#1D1E20"/>
<path d="M112.699 419.996C112.536 419.996 112.378 419.918 112.28 419.777L104.549 408.729C104.451 408.589 104.43 408.409 104.492 408.25C105.314 406.145 106.752 404.372 108.651 403.121C111.285 401.385 114.542 400.87 117.588 401.708C117.787 401.762 117.934 401.931 117.96 402.136L118.895 409.467C119.209 411.943 118.595 414.433 117.167 416.48C116.43 417.53 115.519 418.416 114.461 419.113C113.973 419.435 113.448 419.718 112.903 419.953C112.837 419.982 112.768 419.996 112.699 419.996ZM105.548 408.37L112.874 418.841C113.229 418.668 113.572 418.473 113.897 418.259C114.848 417.633 115.665 416.837 116.327 415.894C117.61 414.057 118.161 411.82 117.879 409.596L116.988 402.609C114.322 401.973 111.508 402.464 109.215 403.974C107.57 405.058 106.306 406.574 105.548 408.37Z" fill="#1D1E20"/>
<path d="M90.9558 388.394L85.9257 381.199C84.1771 378.722 84.2961 375.474 86.0271 373.153C86.3925 372.661 86.826 372.215 87.332 371.823L96.7471 364.54C98.3169 369.599 101.106 380.905 93.5499 386.909C92.7018 387.585 91.8347 388.071 90.9558 388.394Z" fill="#1D1E20"/>
<path d="M90.956 388.905C90.7926 388.905 90.6342 388.826 90.5362 388.686L85.5059 381.492C83.6638 378.882 83.7078 375.407 85.6168 372.847C86.0143 372.312 86.4861 371.831 87.0191 371.418L96.4339 364.136C96.5674 364.033 96.7412 364.002 96.9014 364.052C97.0614 364.103 97.1868 364.228 97.2363 364.389C100.533 375.013 99.3693 382.938 93.8691 387.309C93.0052 387.997 92.0845 388.524 91.1329 388.873C91.075 388.895 91.015 388.905 90.956 388.905ZM96.4723 365.399L87.6459 372.227C87.1875 372.582 86.7811 372.996 86.4382 373.457C84.7941 375.662 84.7562 378.655 86.3442 380.905L91.1441 387.77C91.8646 387.463 92.5648 387.041 93.2306 386.51C98.2534 382.518 99.3691 375.228 96.4723 365.399Z" fill="#1D1E20"/>
<path d="M114.179 418.686C113.717 418.991 113.22 419.259 112.7 419.484L85.9259 381.199C84.1773 378.722 84.2963 375.474 86.0273 373.153L116.746 416.188C116.062 417.162 115.197 418.015 114.179 418.686Z" fill="#1D1E20"/>
<path d="M112.699 419.996C112.536 419.996 112.378 419.918 112.28 419.777L85.5059 381.492C83.6638 378.882 83.7078 375.407 85.6168 372.847C85.7148 372.716 85.8947 372.646 86.0327 372.641C86.1961 372.643 86.3492 372.722 86.4441 372.856L117.163 415.891C117.289 416.067 117.29 416.304 117.166 416.481C116.43 417.53 115.52 418.415 114.461 419.113C113.973 419.434 113.448 419.717 112.903 419.953C112.837 419.982 112.768 419.996 112.699 419.996ZM86.0427 374.055C84.8 376.181 84.8955 378.852 86.3442 380.905L112.875 418.842C113.23 418.669 113.572 418.474 113.897 418.26C114.749 417.699 115.493 417.002 116.115 416.185L86.0427 374.055Z" fill="#1D1E20"/>
<path d="M117.975 387.531C117.746 387.745 117.424 387.855 117.09 387.808L113.041 387.231C112.46 387.149 112.053 386.61 112.135 386.025C112.172 385.775 112.29 385.558 112.46 385.399C112.689 385.185 113.011 385.075 113.344 385.122L117.393 385.7C117.975 385.781 118.379 386.323 118.299 386.905C118.262 387.155 118.144 387.372 117.975 387.531Z" fill="#1D1E20"/>
<path d="M118.287 392.715C118.058 392.929 117.736 393.039 117.402 392.992L113.353 392.415C112.772 392.333 112.365 391.794 112.447 391.209C112.484 390.96 112.603 390.742 112.772 390.583C113.001 390.369 113.323 390.259 113.657 390.307L117.706 390.884C118.287 390.966 118.691 391.507 118.612 392.09C118.575 392.339 118.457 392.557 118.287 392.715Z" fill="#1D1E20"/>
<path d="M118.6 397.9C118.37 398.114 118.048 398.224 117.715 398.177L113.666 397.6C113.084 397.518 112.678 396.979 112.76 396.394C112.797 396.144 112.915 395.927 113.084 395.768C113.313 395.554 113.636 395.444 113.969 395.491L118.018 396.068C118.6 396.15 119.004 396.691 118.924 397.274C118.887 397.524 118.769 397.742 118.6 397.9Z" fill="#1D1E20"/>
<path d="M131.58 385.144L129.399 386.764C127.949 387.841 125.901 387.54 124.825 386.097L102.757 356.463C101.682 355.019 101.983 352.973 103.432 351.896L105.613 350.276C107.063 349.199 109.108 349.503 110.183 350.947L132.251 380.58C133.327 382.024 133.03 384.067 131.58 385.144Z" fill="#1D1E20"/>
<path d="M127.454 387.922C127.27 387.922 127.084 387.909 126.898 387.882C125.898 387.736 125.017 387.21 124.415 386.401L102.346 356.768C101.104 355.099 101.454 352.729 103.127 351.486L105.308 349.866C106.979 348.625 109.35 348.972 110.594 350.642L132.662 380.276C133.905 381.945 133.556 384.313 131.885 385.554L129.704 387.174C129.045 387.665 128.261 387.922 127.454 387.922ZM107.559 350.144C106.988 350.144 106.412 350.32 105.919 350.686L103.738 352.306C102.517 353.213 102.262 354.94 103.168 356.157L125.237 385.791C125.675 386.38 126.318 386.763 127.046 386.869C127.775 386.976 128.502 386.793 129.094 386.354L131.274 384.733C132.493 383.828 132.747 382.102 131.84 380.885L109.772 351.252C109.233 350.527 108.401 350.144 107.559 350.144Z" fill="#1D1E20"/>
<path d="M167.181 166.996L167.868 187.575C167.868 187.575 174.425 195.605 181.347 195.596C186.521 195.589 185.418 186.894 185.418 186.894V161.257" fill="white"/>
<path d="M181.334 196.107C174.255 196.107 167.745 188.234 167.471 187.899L167.362 187.765L167.357 187.593L166.669 167.013L167.692 166.979L168.374 187.382C169.248 188.401 175.216 195.085 181.335 195.085C181.339 195.085 181.342 195.085 181.346 195.085C182.289 195.084 183.029 194.765 183.607 194.109C185.514 191.947 184.917 187.008 184.911 186.958L184.907 186.894V161.257H185.93V186.862C185.99 187.361 186.521 192.349 184.376 194.783C183.603 195.66 182.584 196.106 181.347 196.107C181.343 196.107 181.338 196.107 181.334 196.107Z" fill="#1D1E20"/>
<path d="M176.111 176.147C181.377 179.302 187.456 180.787 191.802 179.914C200.73 178.118 204.142 165.387 201.412 154.216C198.681 143.045 188.749 136.04 178.706 138.488C168.663 140.936 162.735 151.977 165.466 163.148C165.834 164.653 166.426 166.089 167.198 167.441" fill="white"/>
<path d="M189.127 180.674C185.075 180.674 180.231 179.211 175.847 176.585L176.374 175.708C181.525 178.795 187.54 180.248 191.701 179.412C194.489 178.852 196.893 177.095 198.651 174.332C201.79 169.402 202.678 161.554 200.914 154.337C198.232 143.363 188.53 136.619 178.827 138.985C174.114 140.134 170.179 143.26 167.747 147.789C165.306 152.335 164.672 157.747 165.963 163.027C166.308 164.439 166.873 165.839 167.643 167.188L166.753 167.694C165.937 166.263 165.336 164.774 164.968 163.269C163.618 157.744 164.285 152.074 166.845 147.305C169.415 142.518 173.585 139.21 178.585 137.991C188.846 135.49 199.09 142.564 201.909 154.095C203.764 161.684 202.846 169.648 199.515 174.881C197.603 177.884 194.971 179.797 191.902 180.415C191.036 180.589 190.104 180.674 189.127 180.674Z" fill="#1D1E20"/>
<path d="M172.623 158.715C172.623 158.715 174.421 156.796 174.297 154.319C174.173 151.842 172.623 149.861 172.623 149.861C172.623 149.861 202.826 156.045 204.702 147.694C209.119 128.024 186.7 130.269 171.676 135.572C153.47 127.338 147.596 160.924 167.188 167.447L165.452 159.521L172.623 158.715Z" fill="#1D1E20"/>
<path d="M167.88 168.216L167.026 167.932C160.481 165.753 156.024 160.345 154.798 153.095C153.619 146.129 155.753 139.198 160.106 135.847C162.347 134.123 166.169 132.594 171.699 135.022C182.485 131.248 196.165 129.22 202.442 134.783C205.587 137.571 206.516 141.952 205.201 147.805C203.435 155.67 179.409 151.66 173.693 150.59C174.168 151.454 174.733 152.78 174.809 154.294C174.942 156.956 173.077 158.979 172.997 159.064L172.868 159.201L166.073 159.966L167.88 168.216ZM166.218 134.792C164.197 134.792 162.346 135.415 160.731 136.658C156.733 139.735 154.708 146.424 155.808 152.925C156.914 159.466 160.786 164.42 166.489 166.65L164.83 159.077L172.365 158.229C172.74 157.77 173.879 156.213 173.786 154.345C173.672 152.067 172.234 150.194 172.219 150.175L171.37 149.083L172.726 149.36C180.99 151.052 202.753 154.03 204.202 147.582C205.429 142.119 204.608 138.07 201.762 135.548C195.774 130.241 181.904 132.504 171.847 136.054L171.653 136.122L171.465 136.037C169.628 135.207 167.866 134.792 166.218 134.792Z" fill="#1D1E20"/>
<path d="M166.587 165.55C163.253 165.55 160.55 162.851 160.55 159.521C160.55 156.192 163.253 153.492 166.587 153.492C169.921 153.492 172.623 156.192 172.623 159.521" fill="white"/>
<path d="M166.587 166.061C162.976 166.061 160.038 163.127 160.038 159.521C160.038 155.915 162.976 152.982 166.587 152.982C170.198 152.982 173.135 155.915 173.135 159.521H172.111C172.111 156.479 169.633 154.004 166.587 154.004C163.54 154.004 161.062 156.479 161.062 159.521C161.062 162.564 163.54 165.039 166.587 165.039L166.587 166.061Z" fill="#1D1E20"/>
<path d="M186.356 161.545C186.505 162.644 187.278 163.447 188.085 163.338C188.891 163.229 189.424 162.251 189.275 161.152C189.127 160.053 188.353 159.25 187.547 159.358C186.741 159.467 186.208 160.446 186.356 161.545Z" fill="#1D1E20"/>
<path d="M191.53 157.699C192.604 162.734 195.445 165.423 194.425 166.278C192.956 167.507 191.11 167.447 191.11 167.447" fill="white"/>
<path d="M191.156 167.958C191.122 167.958 191.101 167.958 191.093 167.958C190.811 167.948 190.589 167.712 190.599 167.43C190.608 167.147 190.861 166.934 191.127 166.936C191.131 166.935 192.805 166.967 194.096 165.886C194.292 165.723 193.73 164.619 193.319 163.812C192.587 162.373 191.584 160.403 191.029 157.805C190.971 157.529 191.147 157.258 191.424 157.199C191.698 157.141 191.972 157.316 192.031 157.592C192.557 160.059 193.525 161.96 194.232 163.349C195.01 164.879 195.573 165.984 194.754 166.67C193.292 167.893 191.516 167.958 191.156 167.958Z" fill="#1D1E20"/>
<path d="M188.321 157.477C188.321 157.477 186.115 157.078 184.889 158.886L188.321 157.477Z" fill="white"/>
<path d="M184.889 159.398C184.79 159.398 184.69 159.369 184.602 159.31C184.368 159.151 184.307 158.834 184.465 158.6C185.862 156.54 188.31 156.956 188.412 156.974C188.69 157.024 188.875 157.29 188.824 157.568C188.774 157.846 188.508 158.03 188.231 157.98C188.142 157.965 186.327 157.678 185.313 159.173C185.214 159.319 185.052 159.398 184.889 159.398Z" fill="#1D1E20"/>
<path d="M196.109 159.314C196.258 160.413 197.031 161.216 197.837 161.107C198.644 160.999 199.177 160.02 199.028 158.921C198.88 157.822 198.106 157.019 197.3 157.128C196.494 157.236 195.961 158.215 196.109 159.314Z" fill="#1D1E20"/>
<path d="M198.074 155.246C198.074 155.246 195.868 154.848 194.642 156.656L198.074 155.246Z" fill="white"/>
<path d="M194.642 157.167C194.543 157.167 194.443 157.139 194.355 157.079C194.121 156.921 194.06 156.603 194.218 156.369C195.615 154.31 198.063 154.725 198.164 154.743C198.443 154.794 198.627 155.06 198.577 155.338C198.527 155.615 198.266 155.799 197.984 155.75C197.904 155.736 196.083 155.442 195.066 156.943C194.967 157.088 194.806 157.167 194.642 157.167Z" fill="#1D1E20"/>
<path d="M183.807 171.057C183.807 171.057 187.424 175.102 191.65 172.928L183.807 171.057Z" fill="white"/>
<path d="M189.097 174.076C185.868 174.076 183.456 171.432 183.425 171.398C183.237 171.187 183.255 170.865 183.466 170.676C183.677 170.488 183.999 170.506 184.188 170.716C184.326 170.869 187.6 174.435 191.415 172.473C191.666 172.344 191.975 172.442 192.104 172.693C192.234 172.944 192.135 173.252 191.884 173.382C190.916 173.88 189.975 174.076 189.097 174.076Z" fill="#1D1E20"/>
<path d="M304.439 267.376L302.939 274.492C301.876 279.531 296.928 282.753 291.884 281.691L262.16 275.439C257.115 274.377 253.883 269.435 254.946 264.396L256.447 257.281L304.439 267.376Z" fill="white"/>
<path d="M293.828 282.406C293.147 282.406 292.46 282.335 291.778 282.192L262.055 275.939C256.74 274.821 253.326 269.596 254.445 264.291L256.051 256.675L305.046 266.981L303.439 274.597C302.897 277.168 301.386 279.373 299.184 280.807C297.566 281.861 295.716 282.406 293.828 282.406ZM256.842 257.886L255.447 264.502C254.444 269.255 257.504 273.937 262.265 274.939L291.989 281.191C294.295 281.677 296.652 281.236 298.625 279.951C300.598 278.666 301.952 276.69 302.437 274.387L303.832 267.771L256.842 257.886Z" fill="#1D1E20"/>
<path d="M313.007 244.52C318.267 228.683 329.05 215.187 343.372 206.233C359.257 196.298 371.238 180.176 375.405 160.416C383.477 122.138 359.218 84.5653 321.113 76.0213C282.674 67.4067 244.18 91.7946 235.643 130.204C231.13 150.49 235.74 170.637 246.708 186.422C256.192 200.079 260.233 216.673 258.615 233.078L313.007 244.52Z" fill="white"/>
<path d="M299.38 237.374L298.357 237.328C299.134 220.023 305.794 203.261 317.108 190.131L317.884 190.798C306.719 203.755 300.147 220.296 299.38 237.374Z" fill="#1D1E20"/>
<path d="M270.48 237.853L269.599 237.331C278.332 222.628 281.915 205.197 279.689 188.247L280.703 188.114C282.96 205.289 279.329 222.954 270.48 237.853Z" fill="#1D1E20"/>
<path d="M305.44 203.627C337.68 203.627 363.816 177.524 363.816 145.325C363.816 113.125 337.68 87.0226 305.44 87.0226C273.199 87.0226 247.063 113.125 247.063 145.325C247.063 177.524 273.199 203.627 305.44 203.627Z" fill="#0487FF"/>
<path d="M313.349 245.114L258.06 233.484L258.106 233.028C259.738 216.486 255.541 200.038 246.288 186.713C234.859 170.266 230.798 149.629 235.143 130.094C239.3 111.394 250.567 95.4004 266.871 85.0595C283.187 74.7105 302.491 71.324 321.225 75.5224C339.798 79.687 355.702 90.792 366.006 106.792C376.32 122.806 379.835 141.887 375.906 160.521C371.837 179.811 360.38 196.199 343.644 206.667C329.382 215.583 318.674 229.083 313.494 244.681L313.349 245.114ZM259.168 232.672L312.667 243.926C317.976 228.286 328.77 214.759 343.101 205.8C359.599 195.482 370.894 179.326 374.904 160.311C382.866 122.558 358.685 84.9697 321.001 76.52C302.534 72.3814 283.505 75.7205 267.42 85.9225C251.348 96.1166 240.24 111.882 236.143 130.315C231.859 149.573 235.863 169.917 247.129 186.131C256.435 199.533 260.703 216.043 259.168 232.672Z" fill="#1D1E20"/>
<path d="M318.944 268.732C318.431 271.166 316.978 273.163 315.047 274.42C313.115 275.683 310.7 276.206 308.262 275.693L249.591 263.351C244.716 262.326 241.595 257.546 242.622 252.677C243.134 250.248 244.588 248.252 246.526 246.99C248.456 245.733 250.872 245.21 253.309 245.723L311.98 258.065C316.855 259.09 319.97 263.869 318.944 268.732Z" fill="white"/>
<path d="M318.944 268.732C318.431 271.167 316.978 273.163 315.047 274.42C313.115 275.684 310.7 276.206 308.262 275.694L249.591 263.352C245.723 262.538 242.96 259.364 242.495 255.654C243.763 257.42 245.665 258.731 247.957 259.213L306.628 271.555C309.065 272.068 311.48 271.545 313.412 270.282C315.343 269.024 316.796 267.028 317.31 264.594C317.523 263.582 317.559 262.572 317.434 261.603C318.865 263.586 319.49 266.146 318.944 268.732Z" fill="#263238"/>
<path d="M322.776 250.564L322.662 251.103C321.635 255.972 316.855 259.09 311.98 258.065L253.309 245.723C248.434 244.697 245.313 239.917 246.34 235.048C246.854 232.614 248.306 230.623 250.244 229.361C252.174 228.104 254.589 227.581 257.027 228.094L316.237 240.55C320.816 241.513 323.739 245.998 322.776 250.564Z" fill="white"/>
<path d="M322.776 250.564L322.662 251.103C321.635 255.972 316.855 259.09 311.98 258.065L253.309 245.723C249.447 244.91 246.683 241.742 246.216 238.039C247.486 239.792 249.389 241.103 251.674 241.584L310.345 253.926C315.22 254.952 320.001 251.834 321.027 246.965L321.141 246.426C321.33 245.529 321.367 244.633 321.271 243.765C322.68 245.642 323.298 248.087 322.776 250.564Z" fill="#263238"/>
<path d="M310.14 276.401C309.481 276.401 308.817 276.332 308.157 276.193L249.486 263.852C244.342 262.769 241.038 257.709 242.122 252.571C242.646 250.087 244.11 247.953 246.247 246.562C248.378 245.174 250.924 244.698 253.415 245.222L312.086 257.564C314.577 258.088 316.714 259.55 318.104 261.68C319.493 263.809 319.969 266.351 319.445 268.837C318.92 271.326 317.457 273.46 315.326 274.848C313.761 275.872 311.97 276.401 310.14 276.401ZM251.432 246.037C249.8 246.037 248.203 246.508 246.806 247.418C244.898 248.66 243.591 250.565 243.123 252.782C242.156 257.368 245.105 261.885 249.697 262.851L308.368 275.193C310.594 275.661 312.867 275.235 314.767 273.992C316.669 272.753 317.975 270.848 318.443 268.626C318.911 266.407 318.486 264.139 317.246 262.238C316.005 260.337 314.098 259.033 311.875 258.565L253.204 246.223C252.614 246.099 252.021 246.037 251.432 246.037Z" fill="#1D1E20"/>
<path d="M313.857 258.772C313.199 258.772 312.535 258.704 311.875 258.565L253.204 246.223C250.712 245.699 248.574 244.237 247.183 242.106C245.792 239.975 245.315 237.431 245.84 234.942C246.363 232.458 247.829 230.324 249.965 228.933C252.096 227.545 254.641 227.069 257.133 227.594L316.343 240.049C318.691 240.543 320.705 241.92 322.014 243.926C323.323 245.932 323.771 248.327 323.277 250.669L323.164 251.208C322.639 253.697 321.176 255.833 319.045 257.222C317.477 258.244 315.686 258.772 313.857 258.772ZM255.15 228.409C253.518 228.409 251.921 228.879 250.523 229.789C248.616 231.031 247.309 232.936 246.841 235.154C246.373 237.375 246.799 239.645 248.04 241.547C249.282 243.449 251.191 244.755 253.415 245.223L312.086 257.564C314.31 258.032 316.582 257.607 318.485 256.366C320.387 255.126 321.693 253.22 322.162 250.998L322.275 250.459C322.713 248.383 322.316 246.262 321.156 244.485C319.996 242.707 318.212 241.488 316.132 241.05L256.922 228.594C256.332 228.47 255.739 228.409 255.15 228.409Z" fill="#1D1E20"/>
<path d="M326.137 54.8039L323.97 65.0813C323.799 65.8896 323.004 66.4074 322.2 66.2381C321.39 66.0677 320.872 65.274 321.043 64.4655L323.21 54.1881C323.38 53.3798 324.175 52.8621 324.985 53.0324C325.39 53.1177 325.716 53.3573 325.929 53.676C326.135 53.9991 326.222 54.3998 326.137 54.8039Z" fill="#263238"/>
<path d="M277.832 56.6473L281.1 66.6301C281.357 67.4152 280.928 68.2604 280.147 68.5154C279.36 68.7721 278.514 68.3436 278.257 67.5582L274.989 57.5754C274.732 56.7903 275.161 55.9451 275.948 55.6883C276.341 55.56 276.744 55.6046 277.087 55.7743C277.428 55.9513 277.704 56.2546 277.832 56.6473Z" fill="#263238"/>
<path d="M236.922 82.3655L244.75 89.3789C245.366 89.9305 245.417 90.8768 244.868 91.4879C244.316 92.1031 243.368 92.1544 242.753 91.6026L234.925 84.5891C234.309 84.0376 234.258 83.0913 234.81 82.4761C235.086 82.1685 235.457 82.0059 235.84 81.9813C236.223 81.9646 236.614 82.0897 236.922 82.3655Z" fill="#263238"/>
<path d="M394.644 118.188L384.648 121.452C383.862 121.709 383.016 121.28 382.761 120.5C382.504 119.714 382.933 118.869 383.719 118.613L393.715 115.349C394.501 115.092 395.347 115.521 395.604 116.306C395.733 116.699 395.688 117.101 395.518 117.444C395.341 117.784 395.037 118.06 394.644 118.188Z" fill="#263238"/>
<path d="M368.893 77.3294L361.871 85.1476C361.318 85.7626 360.371 85.8139 359.759 85.2658C359.143 84.7141 359.092 83.7677 359.644 83.1527L366.666 75.3345C367.219 74.7195 368.166 74.6682 368.782 75.22C369.09 75.496 369.253 75.8666 369.277 76.2488C369.294 76.6317 369.169 77.022 368.893 77.3294Z" fill="#263238"/>
<path d="M265.236 225.144C265.471 225.236 270.908 226.565 270.191 228.615C269.357 231.003 265.118 231.519 265.118 231.519C265.118 231.519 270.984 233.242 268.031 236.683C264.827 240.415 246.553 239.863 246.553 239.863C246.553 239.863 243.773 240.66 239.315 241.821L238.664 241.954L190.752 251.713C187.553 252.347 184.262 251.948 181.344 250.619H181.339V250.614C180.238 250.123 179.194 249.489 178.227 248.733L156.513 231.77L173.394 213.959L174.285 213.018L176.88 215.206L180.842 218.539L189.314 225.676L233.581 218.657L233.607 218.652L239.591 217.256C239.591 217.256 248.431 202.804 251.507 204.864C254.517 206.878 252.26 215.257 252.26 215.257C252.26 215.257 264.35 210.135 266.198 214.424C267.314 217.016 264.089 218.248 263.905 218.32C264.258 218.299 271.225 217.936 270.949 221.239C270.693 224.199 265.482 225.144 265.236 225.144Z" fill="white"/>
<path d="M187.726 252.523C185.47 252.523 183.24 252.042 181.15 251.093C181.127 251.083 181.104 251.072 181.083 251.06C179.972 250.56 178.905 249.912 177.911 249.135L156.197 232.173C156.084 232.084 156.013 231.952 156.002 231.808C155.991 231.665 156.042 231.523 156.141 231.419L173.913 212.667C174.1 212.47 174.408 212.453 174.615 212.627L189.465 225.135L233.501 218.152L239.266 216.807C240.41 214.955 246.707 205.001 250.335 204.207C250.892 204.085 251.381 204.164 251.792 204.439C254.445 206.215 253.495 212.063 252.986 214.412C256.054 213.218 264.927 210.181 266.668 214.222C267.014 215.026 267.036 215.8 266.732 216.522C266.513 217.046 266.149 217.472 265.757 217.81C267.399 217.891 269.663 218.222 270.771 219.357C271.289 219.888 271.521 220.535 271.458 221.281C271.272 223.442 268.91 224.641 267.143 225.217C269.013 225.895 270.141 226.637 270.571 227.469C270.791 227.894 270.827 228.348 270.674 228.784C270.103 230.418 268.228 231.26 266.826 231.671C267.802 232.175 268.935 232.984 269.272 234.122C269.55 235.059 269.263 236.032 268.419 237.016C265.171 240.799 248.112 240.417 246.617 240.376C246.137 240.513 243.452 241.272 239.443 242.316L238.767 242.455L190.854 252.214C189.814 252.42 188.767 252.523 187.726 252.523ZM181.595 250.172C184.448 251.461 187.58 251.821 190.653 251.211L239.211 241.32C243.586 240.181 246.384 239.379 246.411 239.371C246.462 239.356 246.515 239.349 246.568 239.352C251.582 239.503 265.145 239.259 267.643 236.35C268.254 235.638 268.467 235.004 268.292 234.413C267.913 233.134 265.768 232.245 264.974 232.01C264.741 231.941 264.589 231.719 264.609 231.477C264.628 231.236 264.816 231.042 265.056 231.012C265.095 231.007 268.989 230.505 269.708 228.447C269.769 228.274 269.755 228.117 269.662 227.939C269.438 227.506 268.572 226.638 265.29 225.694C265.161 225.657 265.077 225.631 265.05 225.621C264.82 225.531 264.687 225.291 264.733 225.05C264.778 224.814 264.979 224.642 265.217 224.634C265.827 224.578 270.234 223.567 270.439 221.195C270.476 220.753 270.345 220.384 270.039 220.071C268.874 218.878 265.539 218.738 263.935 218.83C263.694 218.847 263.458 218.675 263.405 218.429C263.351 218.183 263.485 217.935 263.72 217.843C264.465 217.554 265.451 216.933 265.789 216.127C265.984 215.664 265.964 215.173 265.728 214.626C264.38 211.493 255.693 214.359 252.46 215.728C252.28 215.804 252.072 215.772 251.924 215.643C251.776 215.515 251.715 215.314 251.766 215.125C252.367 212.892 253.44 206.773 251.223 205.289C251.05 205.173 250.832 205.145 250.555 205.206C247.721 205.826 241.995 214.307 240.028 217.523C239.957 217.64 239.841 217.723 239.708 217.754L233.724 219.15C233.712 219.153 233.675 219.16 233.663 219.162L189.395 226.181C189.247 226.205 189.099 226.163 188.985 226.067L174.325 213.721L157.272 231.714L178.542 248.33C179.485 249.067 180.496 249.678 181.548 250.147C181.564 250.154 181.58 250.162 181.595 250.172Z" fill="#1D1E20"/>
<path d="M239.313 241.821C239.104 241.877 238.894 241.933 238.675 241.989L238.664 241.953L239.313 241.821Z" fill="white"/>
<path d="M238.674 242.501C238.45 242.501 238.245 242.352 238.182 242.127C238.143 241.991 238.159 241.826 238.232 241.705C238.306 241.584 238.422 241.481 238.561 241.453L239.211 241.32C239.487 241.265 239.748 241.434 239.812 241.703C239.876 241.972 239.714 242.242 239.447 242.314C239.235 242.371 239.024 242.428 238.801 242.485C238.758 242.496 238.716 242.501 238.674 242.501Z" fill="#1D1E20"/>
<path d="M181.339 250.613C180.239 250.122 179.194 249.488 178.227 248.732L156.513 231.769L173.395 213.958L176.881 215.205L180.842 218.538C179.937 221.36 177.74 226.979 173.763 230.573C168.276 235.532 167.882 237.751 169.709 239.448C171.511 241.119 181.042 250.322 181.339 250.613Z" fill="#1D1E20"/>
<path d="M156.128 191.096C156.128 191.096 136.994 198.527 141.177 213.755C144.282 225.061 160.55 238.642 160.55 238.642C169.935 232.186 176.758 224.413 180.131 214.869L156.128 191.096Z" fill="#E9E9E9"/>
<path d="M160.55 239.153C160.433 239.153 160.317 239.113 160.222 239.035C159.552 238.476 143.795 225.221 140.683 213.89C136.429 198.397 155.748 190.696 155.943 190.62C156.206 190.518 156.503 190.648 156.606 190.911C156.708 191.174 156.578 191.47 156.314 191.573C156.127 191.645 137.66 199.017 141.671 213.62C144.469 223.81 158.376 236.098 160.584 237.999C170.012 231.495 176.217 223.966 179.538 215.001L164.44 200.048C164.239 199.85 164.238 199.526 164.437 199.325C164.637 199.125 164.961 199.124 165.161 199.322L180.492 214.506C180.634 214.646 180.681 214.856 180.613 215.043C177.207 224.454 170.739 232.311 160.839 239.064C160.752 239.124 160.651 239.153 160.55 239.153Z" fill="#1D1E20"/>
<path d="M255.197 220.578C254.958 220.578 254.744 220.41 254.695 220.168C254.639 219.891 254.819 219.621 255.096 219.565L263.797 217.814C264.074 217.759 264.344 217.938 264.4 218.214C264.456 218.491 264.276 218.761 263.999 218.817L255.298 220.568C255.264 220.574 255.23 220.578 255.197 220.578Z" fill="#1D1E20"/>
<path d="M257.242 226.583C256.985 226.583 256.764 226.391 256.734 226.131C256.701 225.85 256.902 225.596 257.183 225.564L265.172 224.64C265.459 224.608 265.707 224.808 265.739 225.088C265.772 225.369 265.571 225.623 265.29 225.655L257.301 226.58C257.281 226.582 257.261 226.583 257.242 226.583Z" fill="#1D1E20"/>
<path d="M259.47 232.371C259.201 232.371 258.976 232.162 258.959 231.891C258.942 231.609 259.157 231.367 259.439 231.35L265.086 231.009C265.368 230.995 265.611 231.206 265.628 231.488C265.645 231.77 265.43 232.012 265.148 232.029L259.501 232.371C259.491 232.371 259.48 232.371 259.47 232.371Z" fill="#1D1E20"/>
<path d="M344.886 137.974C344.804 136.845 343.921 135.948 342.798 135.829L334.491 134.999C333.578 132.428 332.336 130.029 330.824 127.831L335.037 120.738C335.614 119.767 335.411 118.526 334.551 117.786L328.122 112.27C327.269 111.53 326.004 111.515 325.136 112.233L318.745 117.449C316.305 116.254 313.693 115.379 310.962 114.871L308.964 107.038C308.679 105.939 307.654 105.207 306.524 105.289L298.075 105.924C296.952 106.014 296.047 106.888 295.935 108.017L295.134 115.962C292.41 116.882 289.858 118.167 287.545 119.752L280.818 115.768C279.852 115.193 278.602 115.394 277.862 116.254L272.339 122.667C271.605 123.519 271.59 124.782 272.301 125.657L277.203 131.651C275.916 134.237 274.98 137.017 274.456 139.932L267.1 141.808C266.007 142.092 265.274 143.116 265.356 144.237L265.992 152.676C266.074 153.804 266.957 154.708 268.08 154.821L275.668 155.583C276.634 158.409 278.003 161.047 279.695 163.424L275.841 169.912C275.264 170.883 275.474 172.131 276.327 172.864L282.748 178.387C283.609 179.12 284.866 179.135 285.749 178.424L291.728 173.536C294.318 174.777 297.101 175.666 300.005 176.138L301.921 183.612C302.198 184.71 303.223 185.443 304.353 185.361L312.802 184.726C313.932 184.644 314.831 183.761 314.95 182.633L315.744 174.71C318.415 173.738 320.907 172.43 323.175 170.816L330.052 174.89C331.033 175.458 332.275 175.256 333.016 174.404L338.539 167.991C339.28 167.131 339.295 165.868 338.576 164.994L333.36 158.618C334.505 156.181 335.336 153.588 335.815 150.875L343.778 148.841C344.87 148.565 345.611 147.541 345.521 146.412L344.886 137.974ZM306.315 161.727C297.304 162.385 289.476 155.621 288.825 146.622C288.174 137.63 294.94 129.805 303.95 129.154C312.96 128.504 320.789 135.268 321.439 144.26C322.091 153.259 315.325 161.077 306.315 161.727Z" fill="white"/>
<path d="M426.771 286.532L338.666 290.497C337.608 290.544 336.711 289.726 336.663 288.669L334.018 230.03C333.97 228.973 334.79 228.078 335.848 228.03L423.954 224.065C425.012 224.017 425.909 224.836 425.956 225.893L428.602 284.532C428.649 285.589 427.83 286.484 426.771 286.532Z" fill="white"/>
<path d="M341.066 290.895C339.805 290.895 338.607 290.432 337.67 289.577C336.676 288.669 336.095 287.429 336.034 286.086L333.624 232.659C333.499 229.885 335.657 227.526 338.435 227.402L421.32 223.672C424.103 223.545 426.459 225.702 426.585 228.476L428.995 281.902C429.056 283.246 428.589 284.533 427.68 285.526C426.772 286.519 425.53 287.1 424.184 287.16L341.298 290.89C341.221 290.893 341.143 290.895 341.066 290.895ZM421.549 224.689C421.489 224.689 421.428 224.69 421.366 224.693L338.481 228.423C336.267 228.523 334.547 230.403 334.647 232.613L337.057 286.04C337.105 287.111 337.569 288.099 338.361 288.822C339.154 289.545 340.179 289.917 341.253 289.868L424.139 286.139C425.211 286.09 426.201 285.628 426.925 284.836C427.649 284.045 428.021 283.02 427.973 281.948L425.563 228.522C425.465 226.372 423.683 224.689 421.549 224.689Z" fill="#1D1E20"/>
<path d="M345.287 280.066L416.886 276.844C416.886 276.844 407.842 252.631 402.98 252.585C398.119 252.539 391.682 272.418 388.127 271.961C384.572 271.503 379.756 256.806 374.995 257.021C370.233 257.235 370.155 273.122 365.638 272.884C361.121 272.646 355.747 261.24 351.627 261.955C347.506 262.67 345.287 280.066 345.287 280.066Z" fill="#52D180"/>
<path d="M345.795 280.13L344.779 280.001C345.011 278.182 347.172 262.209 351.54 261.451C353.933 261.036 356.416 263.897 359.044 266.927C361.322 269.553 363.678 272.269 365.665 272.374C367.512 272.464 368.629 268.697 369.713 265.047C370.942 260.911 372.213 256.634 374.972 256.51C377.894 256.385 380.55 260.802 383.118 265.081C384.947 268.128 386.838 271.279 388.192 271.454C389.509 271.616 392.063 266.9 394.116 263.104C397.047 257.681 400.079 252.073 402.964 252.073C402.971 252.073 402.978 252.074 402.985 252.074C408.06 252.122 412.94 265.713 413.48 267.262L412.513 267.598C411.112 263.577 406.667 253.131 402.975 253.096C402.971 253.096 402.967 253.096 402.963 253.096C400.689 253.096 397.544 258.913 395.016 263.59C391.953 269.255 389.982 272.716 388.061 272.468C386.215 272.23 384.373 269.16 382.24 265.606C379.938 261.772 377.354 257.426 375.018 257.531C372.987 257.623 371.769 261.722 370.695 265.338C369.442 269.553 368.254 273.529 365.611 273.395C363.189 273.267 360.688 270.384 358.27 267.596C355.944 264.915 353.538 262.139 351.714 262.459C348.985 262.932 346.635 273.549 345.795 280.13Z" fill="#1D1E20"/>
<path d="M387.389 266.964L387.32 265.432L388.343 265.386L388.412 266.918L387.389 266.964ZM387.251 263.9L387.182 262.367L388.205 262.322L388.274 263.854L387.251 263.9ZM387.113 260.835L387.044 259.303L388.067 259.257L388.135 260.789L387.113 260.835ZM386.974 257.771L386.905 256.239L387.928 256.193L387.997 257.725L386.974 257.771ZM386.836 254.707L386.767 253.175L387.79 253.129L387.859 254.661L386.836 254.707ZM386.698 251.642L386.629 250.11L387.652 250.064L387.721 251.597L386.698 251.642ZM386.56 248.578L386.49 247.046L387.513 247L387.583 248.532L386.56 248.578Z" fill="#1D1E20"/>
<path d="M392.11 238.738L381.176 239.229L381.394 244.073L392.328 243.581L392.11 238.738Z" fill="#1D1E20"/>
<path d="M368.002 236.431L342.078 237.597L342.26 241.648L368.184 240.482L368.002 236.431Z" fill="#E9E9E9"/>
<path d="M352.21 244.142L342.393 244.583L342.576 248.634L352.393 248.193L352.21 244.142Z" fill="#E9E9E9"/>
<path d="M134.848 188.182C150.284 172.766 150.284 147.771 134.848 132.354C119.412 116.938 94.3851 116.938 78.9492 132.354C63.5133 147.771 63.5133 172.766 78.9492 188.182C94.3851 203.598 119.412 203.598 134.848 188.182Z" fill="white"/>
<path d="M106.871 200.258C86.6427 200.258 69.2228 184.944 67.0787 164.417C64.7882 142.486 80.7894 122.784 102.747 120.496C124.7 118.209 144.433 134.189 146.723 156.119C147.833 166.743 144.734 177.162 137.997 185.458C131.26 193.753 121.692 198.932 111.055 200.04C109.65 200.186 108.253 200.258 106.871 200.258ZM110.949 199.023C121.314 197.943 130.637 192.897 137.202 184.813C143.766 176.73 146.786 166.577 145.705 156.225C143.472 134.856 124.253 119.283 102.853 121.513C81.4567 123.742 65.8648 142.941 68.0962 164.311C70.3284 185.68 89.5473 201.252 110.949 199.023Z" fill="#1D1E20"/>
<path d="M127.969 181.312C139.606 169.69 139.606 150.847 127.969 139.224C116.332 127.602 97.4648 127.602 85.8278 139.224C74.1907 150.847 74.1907 169.69 85.8278 181.312C97.4648 192.935 116.332 192.935 127.969 181.312Z" fill="white"/>
<path d="M106.878 190.542C91.5644 190.542 78.3769 178.949 76.7538 163.409C75.0197 146.807 87.1333 131.891 103.756 130.159C120.383 128.428 135.314 140.526 137.048 157.127C137.888 165.17 135.542 173.057 130.442 179.337C125.342 185.618 118.098 189.538 110.045 190.377C108.982 190.488 107.925 190.542 106.878 190.542ZM106.923 131.017C105.911 131.017 104.891 131.069 103.863 131.176C87.8015 132.849 76.0967 147.261 77.7718 163.303C79.3405 178.317 92.0839 189.519 106.879 189.52C107.891 189.52 108.911 189.467 109.94 189.36C117.72 188.549 124.719 184.761 129.647 178.694C134.575 172.626 136.842 165.004 136.03 157.233C134.461 142.219 121.718 131.017 106.923 131.017Z" fill="#1D1E20"/>
<path d="M120.977 174.329C128.752 166.563 128.752 153.973 120.977 146.207C113.202 138.442 100.595 138.442 92.8199 146.207C85.0445 153.973 85.0445 166.563 92.8199 174.329C100.595 182.095 113.202 182.095 120.977 174.329Z" fill="#0487FF"/>
<path d="M106.862 180.667C102.198 180.667 97.7096 179.084 94.0365 176.109C89.8 172.677 87.155 167.803 86.5891 162.384C85.4209 151.198 93.582 141.149 104.782 139.982C110.208 139.417 115.529 140.995 119.765 144.427C124.002 147.859 126.647 152.733 127.213 158.152C128.381 169.338 120.22 179.387 109.02 180.554C108.298 180.629 107.578 180.667 106.862 180.667ZM108.913 179.537C119.552 178.429 127.304 168.883 126.195 158.258C125.657 153.111 123.145 148.481 119.121 145.221C115.097 141.962 110.044 140.462 104.888 140.999C94.2499 142.107 86.4979 151.653 87.6071 162.278C88.145 167.425 90.6574 172.055 94.6815 175.315C98.7055 178.574 103.758 180.074 108.913 179.537Z" fill="#1D1E20"/>
<path d="M114.357 167.717C118.476 163.603 118.476 156.933 114.357 152.82C110.238 148.706 103.559 148.706 99.4403 152.82C95.3213 156.933 95.3213 163.603 99.4403 167.717C103.559 171.831 110.238 171.831 114.357 167.717Z" fill="white"/>
<path d="M106.88 171.315C104.354 171.315 101.923 170.458 99.9344 168.846C97.6399 166.988 96.2077 164.348 95.9014 161.414C95.2686 155.356 99.688 149.914 105.754 149.282C108.685 148.976 111.573 149.831 113.867 151.69C116.162 153.548 117.594 156.188 117.9 159.122C118.533 165.18 114.114 170.622 108.048 171.254C107.658 171.295 107.267 171.315 106.88 171.315ZM106.92 150.244C106.568 150.244 106.214 150.262 105.86 150.299C100.356 150.872 96.3453 155.811 96.9192 161.308C97.1977 163.971 98.4973 166.366 100.579 168.052C102.661 169.739 105.276 170.515 107.942 170.237C113.446 169.663 117.457 164.725 116.883 159.228C116.604 156.565 115.305 154.17 113.222 152.483C111.418 151.022 109.212 150.244 106.92 150.244Z" fill="#1D1E20"/>
<path d="M106.089 156.1L102.996 160.266C102.224 161.305 102.877 162.788 104.165 162.923L109.071 163.436C110.315 163.566 111.256 162.337 110.805 161.171L108.992 156.492C108.517 155.265 106.873 155.043 106.089 156.1Z" fill="#1D1E20"/>
<path d="M109.25 163.957C109.173 163.957 109.095 163.953 109.017 163.945L104.111 163.431C103.322 163.348 102.659 162.865 102.339 162.139C102.02 161.413 102.111 160.599 102.584 159.961L105.677 155.796C106.159 155.147 106.922 154.826 107.725 154.933C108.526 155.041 109.178 155.555 109.47 156.308L111.282 160.987C111.559 161.702 111.446 162.492 110.98 163.1C110.561 163.646 109.928 163.957 109.25 163.957ZM107.426 155.935C107.061 155.935 106.723 156.104 106.5 156.405L103.407 160.57C103.155 160.909 103.106 161.341 103.276 161.728C103.446 162.114 103.799 162.37 104.219 162.414L109.124 162.928C109.53 162.97 109.919 162.802 110.167 162.479C110.415 162.155 110.475 161.736 110.328 161.356L108.515 156.677C108.36 156.277 108.014 156.004 107.588 155.946C107.534 155.939 107.48 155.935 107.426 155.935Z" fill="#1D1E20"/>
<path d="M60.6844 124.732L59.3862 117.817L68.2956 125.009L69.7627 132.09L62.6023 132.751L54.0099 125.543L60.6844 124.732Z" fill="#1D1E20"/>
<path d="M62.6023 133.262C62.4822 133.262 62.3658 133.22 62.2728 133.142L53.6803 125.934C53.5242 125.803 53.4607 125.592 53.5188 125.397C53.5773 125.202 53.7457 125.06 53.9477 125.035L60.0804 124.29L58.8836 117.911C58.8437 117.7 58.9402 117.488 59.1239 117.378C59.3084 117.268 59.5409 117.284 59.7082 117.419L68.6172 124.612C68.7091 124.686 68.7726 124.79 68.7967 124.905L70.264 131.987C70.2935 132.129 70.2605 132.278 70.174 132.395C70.0876 132.511 69.9545 132.586 69.8097 132.599L62.6493 133.26C62.6337 133.261 62.6177 133.262 62.6023 133.262ZM55.2414 125.908L62.7676 132.222L69.1452 131.634L67.8309 125.292L60.1458 119.087L61.187 124.638C61.2135 124.777 61.1805 124.92 61.0971 125.034C61.0136 125.148 60.8866 125.223 60.7462 125.24L55.2414 125.908Z" fill="#1D1E20"/>
<path d="M105.6 159.708C105.492 159.708 105.383 159.674 105.29 159.603L54.7046 121.092C54.4796 120.921 54.4367 120.6 54.6081 120.375C54.7791 120.151 55.0994 120.107 55.3255 120.279L105.911 158.79C106.136 158.961 106.178 159.282 106.007 159.507C105.907 159.638 105.754 159.708 105.6 159.708Z" fill="#1D1E20"/>
<path d="M72.9577 292.335C72.7599 292.335 72.5713 292.219 72.4874 292.026C71.7401 290.303 74.1981 287.551 79.7932 283.849C85.0245 280.387 92.3147 276.573 100.322 273.11C115.033 266.748 131.548 262.016 133.179 265.778C133.291 266.037 133.172 266.338 132.913 266.451C132.651 266.563 132.352 266.443 132.239 266.185C131.245 263.889 118.059 266.553 100.729 274.048C92.7751 277.488 85.5408 281.271 80.3585 284.701C74.6623 288.471 73.0646 290.784 73.4272 291.62C73.5392 291.879 73.4202 292.18 73.1608 292.292C73.0943 292.321 73.0253 292.335 72.9577 292.335Z" fill="#1D1E20"/>
<path d="M118.614 267.114C120.111 269.045 121.195 271.157 121.883 273.357C122.787 276.247 123.005 279.272 122.58 282.212C121.849 287.118 119.295 291.771 115.059 295.047C106.354 301.781 93.8321 300.191 87.0904 291.497C81.2499 283.966 81.6643 273.576 87.5375 266.552C88.4461 265.47 89.4816 264.464 90.6452 263.564C91.386 262.991 92.1578 262.477 92.9521 262.022C101.446 257.152 112.446 259.16 118.614 267.114Z" fill="#0487FF"/>
<g opacity="0.3">
<path d="M118.614 267.114C120.111 269.045 121.195 271.157 121.883 273.357C122.787 276.247 123.005 279.272 122.58 282.212C121.672 283.294 120.636 284.3 119.472 285.2C110.768 291.933 98.245 290.343 91.5033 281.65C88.046 277.191 86.7803 271.728 87.5375 266.552C88.4461 265.47 89.4816 264.464 90.6453 263.564C91.386 262.991 92.1578 262.477 92.9522 262.022C101.446 257.152 112.446 259.16 118.614 267.114Z" fill="white"/>
</g>
<g opacity="0.3">
<path d="M118.614 267.114C120.111 269.045 121.195 271.157 121.883 273.357C113.39 278.227 102.389 276.219 96.2209 268.265C94.7276 266.34 93.6398 264.222 92.9521 262.022C101.446 257.152 112.446 259.16 118.614 267.114Z" fill="white"/>
</g>
<path d="M102.875 299.719C96.7616 299.72 90.7105 297 86.6855 291.81C80.8489 284.283 81.0418 273.523 87.145 266.224C88.0967 265.091 89.1684 264.06 90.3318 263.16C91.0783 262.582 91.8739 262.05 92.6972 261.579C101.488 256.539 112.803 258.785 119.019 266.801C120.52 268.737 121.648 270.891 122.371 273.205C123.279 276.108 123.527 279.248 123.086 282.285C122.304 287.534 119.566 292.209 115.373 295.452C111.655 298.327 107.249 299.719 102.875 299.719ZM102.799 259.919C99.515 259.919 96.2068 260.746 93.207 262.465C92.4242 262.914 91.6678 263.419 90.9584 263.968C89.8533 264.823 88.834 265.803 87.9302 266.88C82.1335 273.812 81.9501 284.034 87.4952 291.184C94.0531 299.641 106.277 301.193 114.746 294.643C118.728 291.563 121.331 287.121 122.073 282.136C122.491 279.251 122.257 276.267 121.394 273.51C120.707 271.313 119.636 269.266 118.209 267.427C114.426 262.548 108.654 259.919 102.799 259.919Z" fill="#1D1E20"/>
<path d="M76.1181 293.392C74.0971 293.392 72.8823 292.937 72.4874 292.026C72.3754 291.767 72.4944 291.466 72.7538 291.354C73.0132 291.242 73.3143 291.361 73.4272 291.62C73.7891 292.456 76.5715 292.875 83.222 291.305C89.2725 289.877 96.9847 287.196 104.938 283.756C112.892 280.317 120.126 276.533 125.308 273.104C131.004 269.334 132.602 267.02 132.239 266.184C132.127 265.925 132.246 265.624 132.506 265.512C132.767 265.4 133.066 265.52 133.179 265.778C133.926 267.502 131.468 270.253 125.873 273.956C120.642 277.418 113.352 281.232 105.345 284.694C97.3375 288.157 89.5644 290.859 83.4573 292.3C80.3745 293.028 77.9246 293.392 76.1181 293.392Z" fill="#1D1E20"/>
<path d="M303.539 308.254C305.269 311.794 305.605 315.651 304.763 319.205C303.668 323.828 300.585 327.939 295.982 330.182C291.379 332.426 286.237 332.322 281.916 330.342C278.594 328.818 275.755 326.175 274.026 322.635C270.049 314.494 273.431 304.679 281.582 300.707C289.73 296.736 299.562 300.113 303.539 308.254Z" fill="white"/>
<path d="M288.786 332.359C286.376 332.359 283.963 331.842 281.702 330.806C278.167 329.185 275.277 326.362 273.566 322.859C271.582 318.799 271.3 314.212 272.772 309.941C274.244 305.671 277.293 302.228 281.358 300.247C289.748 296.159 299.905 299.651 303.999 308.029C305.709 311.53 306.158 315.541 305.261 319.322C304.086 324.285 300.785 328.41 296.207 330.642C293.859 331.786 291.324 332.359 288.786 332.359ZM288.757 299.559C286.418 299.559 284.046 300.075 281.807 301.166C277.987 303.027 275.122 306.262 273.74 310.274C272.358 314.286 272.622 318.596 274.486 322.411C276.094 325.702 278.808 328.354 282.129 329.877C286.489 331.875 291.456 331.819 295.758 329.723C300.06 327.627 303.16 323.75 304.265 319.087C305.107 315.535 304.686 311.767 303.079 308.478C300.325 302.841 294.651 299.559 288.757 299.559Z" fill="#1D1E20"/>
<path d="M287.347 315.474C289.997 314.98 291.744 312.433 291.249 309.786C290.754 307.139 288.205 305.394 285.554 305.889C282.904 306.383 281.157 308.93 281.652 311.576C282.147 314.223 284.697 315.968 287.347 315.474Z" fill="#1D1E20"/>
<path d="M286.462 316.064C284.463 316.064 282.54 314.951 281.606 313.04C280.302 310.371 281.415 307.139 284.088 305.837C285.383 305.206 286.846 305.117 288.208 305.585C289.571 306.053 290.669 307.023 291.3 308.316C292.605 310.986 291.491 314.217 288.818 315.52C288.059 315.889 287.255 316.064 286.462 316.064ZM286.449 306.311C285.794 306.311 285.143 306.46 284.537 306.756C282.371 307.811 281.47 310.429 282.526 312.592C283.582 314.754 286.203 315.655 288.37 314.6C290.535 313.545 291.437 310.927 290.381 308.764C289.869 307.717 288.979 306.931 287.875 306.551C287.409 306.391 286.928 306.311 286.449 306.311Z" fill="#1D1E20"/>
<path d="M304.763 319.205C303.668 323.828 300.585 327.939 295.982 330.182C291.379 332.426 286.237 332.322 281.916 330.342C281.853 325.086 284.766 320.01 289.812 317.552C294.857 315.093 300.652 315.925 304.763 319.205Z" fill="#1D1E20"/>
<path d="M288.786 332.359C286.376 332.359 283.963 331.842 281.702 330.807L281.408 330.672L281.404 330.348C281.337 324.751 284.549 319.548 289.588 317.093C294.622 314.64 300.704 315.312 305.083 318.805L305.336 319.007L305.261 319.322C304.086 324.285 300.785 328.411 296.207 330.642C293.859 331.786 291.324 332.359 288.786 332.359ZM282.428 330.01C286.715 331.871 291.555 331.771 295.758 329.723C299.962 327.675 303.018 323.926 304.187 319.404C300.137 316.331 294.62 315.778 290.037 318.011C285.45 320.247 282.491 324.931 282.428 330.01Z" fill="#1D1E20"/>
<defs>
<clipPath id="clip0_506_80">
<rect width="480" height="480" rx="24" fill="white"/>
</clipPath>
</defs>
</svg>
