<svg width="480" height="480" viewBox="0 0 480 480" fill="none" xmlns="http://www.w3.org/2000/svg">
<g clip-path="url(#clip0_506_82)">
<rect width="480" height="480" rx="24" fill="#E6F3FF"/>
<path d="M-63.0307 40.797C-37.594 54.9419 19.0022 75.7463 41.8932 45.8041C70.5069 8.37637 41.7034 0.871226 33.2448 19.5474C24.7861 38.2236 66.9969 63.6025 108.765 25.1247C142.179 -5.65755 157.787 -53.1177 161.414 -73" stroke="#0487FF" stroke-dasharray="6 6"/>
<path d="M479.529 315.123C454.601 330.146 408.389 368.881 422.967 403.637C441.189 447.083 462.034 425.835 450.045 409.203C438.056 392.572 395.035 416.553 407.622 471.93C417.691 516.232 451.088 553.391 466.528 566.432" stroke="#0487FF" stroke-dasharray="6 6"/>
</g>
<path d="M231.445 151.45C231.445 151.45 195.613 188.723 130.483 196.984C65.3541 205.244 37.9472 281.439 68.4417 330.191C98.9361 378.943 164.14 375.216 197.34 355.248C230.541 335.28 259.641 321.826 292.14 325.122C324.639 328.418 430.21 304.938 416.605 196.427C402.999 87.9159 297.043 47.2184 231.445 151.45Z" fill="#E6F3FF"/>
<path d="M295.576 394.304C275.805 401.698 247.459 396.817 241.32 380.442C235.18 364.068 253.572 342.402 273.343 335.007C293.113 327.614 314.118 334.893 320.257 351.268C326.396 367.642 315.346 386.91 295.576 394.304Z" fill="#E6F3FF"/>
<path d="M140.295 270.182L139.899 269.763L142.412 267.366L142.831 267.785L140.295 270.182ZM145.321 265.342L144.926 264.923C145.74 264.132 146.555 263.294 147.369 262.456L147.788 262.852C146.974 263.69 146.159 264.527 145.321 265.342ZM150.185 260.292L149.743 259.896C150.511 259.059 151.302 258.174 152.047 257.29L152.489 257.685C151.744 258.57 150.953 259.454 150.185 260.292ZM154.746 255.009L154.304 254.637C155.025 253.753 155.77 252.845 156.468 251.914L156.934 252.263C156.212 253.194 155.491 254.125 154.746 255.009ZM159.051 249.494L158.586 249.145C159.284 248.237 159.959 247.283 160.634 246.329L161.123 246.655C160.424 247.609 159.75 248.563 159.051 249.494ZM163.101 243.792L162.635 243.467C163.287 242.505 163.923 241.535 164.544 240.558L165.032 240.883C164.396 241.861 163.752 242.83 163.101 243.792ZM194.983 239.766C193.912 239.766 192.818 239.557 191.841 239.161L192.051 238.626C192.981 238.975 193.982 239.185 194.983 239.185C195.122 239.161 195.239 239.161 195.355 239.161L195.378 239.743C195.239 239.743 195.099 239.743 194.983 239.766ZM198.846 238.766L198.543 238.254C199.521 237.695 200.312 236.904 200.87 235.927L201.382 236.206C200.777 237.276 199.893 238.161 198.846 238.766ZM166.917 237.928L166.405 237.625C167.026 236.632 167.631 235.64 168.22 234.647L168.732 234.926C168.127 235.934 167.522 236.935 166.917 237.928ZM188.909 237.113C188.118 236.276 187.466 235.252 186.977 234.088L187.513 233.879C187.978 234.972 188.583 235.927 189.328 236.718L188.909 237.113ZM202.337 232.738L201.755 232.715L201.778 232.575C201.778 231.691 201.592 230.853 201.243 230.109C201.165 229.907 201.072 229.713 200.964 229.527L201.476 229.248C201.584 229.449 201.685 229.651 201.778 229.853C202.15 230.667 202.36 231.621 202.36 232.575L202.337 232.738ZM170.71 232.133L170.245 231.738C171.013 230.853 171.851 229.992 172.735 229.224L173.107 229.667C172.246 230.411 171.432 231.249 170.71 232.133ZM186.07 230.644C186 230.085 185.977 229.527 185.977 228.968C185.977 228.34 186 227.712 186.093 227.083L186.675 227.153C186.582 227.758 186.558 228.363 186.558 228.968C186.558 229.504 186.582 230.039 186.652 230.574L186.07 230.644ZM175.877 227.642L175.574 227.13C176.575 226.525 177.622 225.99 178.716 225.501L178.949 226.036C177.878 226.502 176.854 227.037 175.877 227.642ZM198.706 227.037C197.845 226.385 196.844 225.827 195.727 225.385L195.937 224.849C197.124 225.315 198.171 225.897 199.055 226.571L198.706 227.037ZM182.207 224.919L182.044 224.361C183.184 224.035 184.348 223.802 185.511 223.662L185.581 224.244C184.441 224.384 183.3 224.617 182.207 224.919ZM192.446 224.43C191.329 224.221 190.189 224.105 189.025 224.081V223.5C190.235 223.523 191.422 223.639 192.539 223.849L192.446 224.43ZM187.489 223.849L186.931 223.662C187.326 222.545 187.838 221.475 188.467 220.451L188.955 220.754C188.374 221.754 187.862 222.778 187.489 223.849ZM191.027 218.031L190.608 217.635C190.778 217.449 190.957 217.271 191.143 217.1C191.771 216.448 192.493 215.843 193.261 215.285L193.61 215.75C192.865 216.309 192.167 216.89 191.539 217.519C191.368 217.689 191.197 217.86 191.027 218.031ZM196.542 213.982L196.286 213.446C197.333 212.934 198.45 212.492 199.567 212.143L199.73 212.702C198.636 213.051 197.566 213.47 196.542 213.982ZM203.105 211.841L202.965 211.282C204.105 210.979 205.222 210.677 206.316 210.374L206.479 210.933C205.385 211.235 204.245 211.538 203.105 211.841ZM209.83 209.932L209.667 209.374C210.784 209.025 211.901 208.652 212.972 208.28L213.158 208.815C212.087 209.211 210.97 209.583 209.83 209.932ZM216.439 207.605L216.23 207.07C217.323 206.651 218.417 206.209 219.464 205.767L219.674 206.279C218.627 206.744 217.533 207.186 216.439 207.605ZM222.862 204.836L222.629 204.324L225.771 202.788L226.004 203.323L222.862 204.836ZM229.145 201.764L228.889 201.252L232.031 199.716L232.287 200.251L229.145 201.764ZM235.429 198.715L235.173 198.18L238.314 196.667L238.57 197.179L235.429 198.715ZM241.712 195.667L241.456 195.155L244.598 193.619L244.854 194.131L241.712 195.667ZM247.972 192.618L247.739 192.106L250.858 190.57L251.114 191.106L247.972 192.618Z" fill="#0487FF"/>
<path d="M313.278 84.301H237.769C237.834 81.3621 239.803 78.6253 243.117 76.5873C246.479 74.5196 251.156 73.2231 256.35 73.2231C260.565 73.2231 264.427 74.0939 267.547 75.5058L268.2 75.8011L268.252 75.0866C268.409 72.9247 269.04 70.741 270.211 68.7145L270.211 68.7132C274.067 61.9942 282.31 59.5546 288.563 63.1724L288.564 63.1726C292.742 65.5855 295.013 70.1067 294.923 74.8546L294.907 75.6907L295.651 75.3089C297.349 74.4375 299.296 73.9445 301.38 73.9445C307.675 73.9445 312.805 78.5296 313.278 84.301Z" fill="#0487FF" stroke="#263238"/>
<mask id="mask0_506_82" style="mask-type:luminance" maskUnits="userSpaceOnUse" x="233" y="165" width="177" height="106">
<path d="M233.353 256.95C233.353 264.383 239.383 270.413 246.816 270.413H396.352C403.787 270.413 409.814 264.383 409.814 256.95V165.968H233.353V256.95Z" fill="white"/>
</mask>
<g mask="url(#mask0_506_82)">
<path d="M233.358 256.941C233.358 264.388 239.385 270.415 246.809 270.415H396.352C403.775 270.415 409.826 264.388 409.826 256.941V165.972H233.358V256.941Z" fill="white"/>
<path opacity="0.7" d="M225.523 273.166L228.382 227.427C250.136 225.19 269.707 220.956 289.932 211.561C310.191 202.15 331.081 187.573 355.469 164.678L372.836 180.204C360.964 205.012 345.46 231.817 327.949 252.587C310.366 273.443 290.851 288.105 271.037 288.722L225.523 273.166Z" fill="#E9E9E9" stroke="#263238"/>
<path d="M358.419 169.486C350.437 178.911 338.429 187.917 324.256 200.112L343.595 192.223C341.221 196.156 337.754 201.648 335.822 204.021C340.29 201.95 347.458 197.435 349.832 195.015C349.832 198.366 345.806 203.975 344.037 207.047C354.346 198.203 363.748 187.429 366.773 177.957L358.419 169.486Z" fill="#263238"/>
<path d="M360.676 169.952C355.952 176.212 348.901 182.216 340.57 190.338L351.856 184.985C350.437 187.568 348.366 191.222 347.225 192.781C349.832 191.385 354.044 188.36 355.44 186.754C355.394 188.941 352.997 192.642 351.949 194.666C358.023 188.778 363.562 181.634 365.424 175.421L360.676 169.952Z" fill="white"/>
<path d="M224.564 189.425L224.494 189.505L199.18 218.194L213.466 282.156L382.316 282.272C388.586 279.755 393.333 273.963 394.392 267.518L394.392 267.517C395.479 261.019 392.827 254.051 387.655 249.763L387.406 249.557L387.492 249.245C388.727 244.755 387.621 239.906 384.984 235.979C382.348 232.051 378.21 229.089 373.445 228.346L373.295 228.322L373.183 228.219C366.769 222.307 357.121 219.859 348.531 221.961C339.965 224.062 332.703 230.645 329.99 238.762L329.614 239.888L329.071 238.831C326.526 233.877 321.059 230.437 315.343 230.166C309.607 229.895 303.844 232.86 300.848 237.546L299.872 239.071L299.927 237.262C300.084 232.025 297.179 226.769 292.558 223.974C287.935 221.178 281.742 220.952 276.94 223.41L275.481 224.156L276.275 222.722C278.36 218.956 278.471 214.22 276.545 210.39L276.545 210.389C274.616 206.532 270.704 203.651 266.32 202.909L265.562 202.781L265.986 202.14C267.93 199.202 268.063 195.24 266.319 192.193C264.55 189.142 260.996 187.139 257.377 187.161L257.066 187.163L256.927 186.885C253.903 180.859 246.814 176.911 239.865 177.432L224.564 189.425ZM224.564 189.425L224.596 189.324M224.564 189.425L224.596 189.324M224.596 189.324C226.604 182.917 232.941 177.952 239.864 177.432L224.596 189.324Z" fill="white" stroke="#263238"/>
<g opacity="0.8">
<path d="M221.823 210.955L221.892 210.875L221.922 210.773C223.84 204.341 229.994 199.408 236.678 198.888L236.679 198.888C243.361 198.346 250.194 202.283 253.107 208.311L253.246 208.598L253.564 208.594C257.032 208.55 260.492 210.567 262.172 213.595C263.853 216.647 263.741 220.617 261.863 223.556L261.461 224.185L262.195 224.318C266.414 225.081 270.189 227.935 272.05 231.792L272.051 231.793C273.912 235.627 273.8 240.392 271.781 244.137L271 245.586L272.455 244.816C277.09 242.364 283.044 242.588 287.501 245.38L287.503 245.381C291.959 248.149 294.778 253.403 294.621 258.671L294.564 260.552L295.547 258.947C298.43 254.239 304.006 251.282 309.524 251.553L309.526 251.553C315.045 251.801 320.328 255.254 322.784 260.212L323.331 261.315L323.708 260.143C326.332 251.999 333.343 245.422 341.623 243.323C349.905 241.224 359.2 243.645 365.405 249.554L365.517 249.661L365.671 249.685C370.255 250.416 374.248 253.366 376.794 257.292C379.34 261.217 380.409 266.07 379.206 270.565L379.125 270.87L379.364 271.074C384.374 275.359 386.918 282.329 385.874 288.837C384.813 295.313 380.244 301.098 374.192 303.589L211.072 303.612L197.316 239.67L221.823 210.955Z" fill="white" stroke="#263238"/>
</g>
<path d="M287.487 201.973C287.557 203.44 287.487 205.883 286.021 206.744C283.601 208.14 281.693 204.719 280.785 203.021C279.738 200.949 279.994 198.413 282.414 197.505C285.579 196.295 287.371 199.251 287.487 201.973Z" fill="#F0F0F0"/>
<path d="M402.705 246.213C402.775 247.679 402.705 250.146 401.239 250.983C398.818 252.38 396.91 248.959 396.026 247.26C394.955 245.212 395.211 242.652 397.632 241.745C400.797 240.534 402.588 243.49 402.705 246.213Z" fill="#F0F0F0"/>
<path d="M276.596 185.497C276.596 186.614 275.689 187.522 274.572 187.522C273.455 187.522 272.524 186.614 272.524 185.497C272.524 184.38 273.455 183.449 274.572 183.449C275.689 183.449 276.596 184.38 276.596 185.497Z" fill="#F0F0F0"/>
<path d="M381.225 222.243C381.225 223.965 379.829 225.338 378.13 225.338C376.408 225.338 375.035 223.965 375.035 222.243C375.035 220.521 376.408 219.148 378.13 219.148C379.829 219.148 381.225 220.521 381.225 222.243Z" fill="#F0F0F0"/>
</g>
<path fill-rule="evenodd" clip-rule="evenodd" d="M396.352 270.694H246.809C239.222 270.694 233.055 264.527 233.055 256.941V165.67H410.105V256.941C410.105 264.527 403.938 270.694 396.352 270.694ZM233.637 166.251V256.941C233.637 264.201 239.548 270.112 246.809 270.112H396.352C403.612 270.112 409.523 264.201 409.523 256.941V166.251H233.637Z" fill="#263238"/>
<path d="M396.352 130.716H246.809C239.385 130.716 233.358 136.743 233.358 144.19V165.972H409.826V144.19C409.826 136.743 403.775 130.716 396.352 130.716Z" fill="white"/>
<path fill-rule="evenodd" clip-rule="evenodd" d="M410.105 166.251H233.055V144.19C233.055 136.603 239.222 130.437 246.809 130.437H396.352C403.938 130.437 410.105 136.603 410.105 144.19V166.251ZM233.637 165.67H409.523V144.167C409.523 136.906 403.612 130.995 396.352 130.995H246.809C239.548 130.995 233.637 136.906 233.637 144.167V165.67Z" fill="#263238"/>
<path d="M258.514 148.332C258.514 152.428 255.21 155.733 251.137 155.733C247.065 155.733 243.76 152.428 243.76 148.332C243.76 144.26 247.065 140.955 251.137 140.955C255.21 140.955 258.514 144.26 258.514 148.332Z" fill="#0487FF"/>
<path d="M280.25 148.332C280.25 152.428 276.945 155.733 272.873 155.733C268.8 155.733 265.496 152.428 265.496 148.332C265.496 144.26 268.8 140.955 272.873 140.955C276.945 140.955 280.25 144.26 280.25 148.332Z" fill="white"/>
<path fill-rule="evenodd" clip-rule="evenodd" d="M272.873 156.012C268.637 156.012 265.193 152.568 265.193 148.332C265.193 144.12 268.637 140.676 272.873 140.676C277.108 140.676 280.552 144.12 280.552 148.332C280.552 152.568 277.108 156.012 272.873 156.012ZM272.873 141.258C268.963 141.258 265.775 144.423 265.775 148.332C265.775 152.242 268.963 155.43 272.873 155.43C276.782 155.43 279.971 152.242 279.971 148.332C279.971 144.423 276.782 141.258 272.873 141.258Z" fill="#263238"/>
<path d="M329.05 155.384H299.658C295.772 155.384 292.63 152.242 292.63 148.332C292.63 144.446 295.772 141.304 299.658 141.304H329.05C332.937 141.304 336.102 144.446 336.102 148.332C336.102 152.242 332.937 155.384 329.05 155.384Z" fill="white"/>
<path fill-rule="evenodd" clip-rule="evenodd" d="M329.05 155.686H299.658C295.632 155.686 292.328 152.382 292.328 148.332C292.328 144.306 295.632 141.002 299.658 141.002H329.05C333.1 141.002 336.381 144.306 336.381 148.332C336.381 152.382 333.1 155.686 329.05 155.686ZM299.658 141.584C295.935 141.584 292.91 144.609 292.91 148.332C292.91 152.056 295.935 155.104 299.658 155.104H329.05C332.774 155.104 335.799 152.056 335.799 148.332C335.799 144.609 332.774 141.584 329.05 141.584H299.658Z" fill="#263238"/>
<path d="M389.044 114.658C377.246 124.968 356.93 117.87 350.6 126.108L368.658 140.397L389.044 114.658Z" fill="#0487FF"/>
<path d="M350.6 126.108C349.715 128.505 350.204 131.205 351.88 133.136L364.679 147.797L368.658 140.397L350.6 126.108Z" fill="#263238"/>
<path d="M415.737 135.812C408.406 149.636 419.972 167.811 413.41 175.839L395.374 161.551L415.737 135.812Z" fill="#0487FF"/>
<path d="M413.41 175.839C411.269 177.259 408.546 177.422 406.265 176.212L389.068 167.113L395.374 161.551L413.41 175.839Z" fill="#263238"/>
<path d="M424.906 96.9255L408.849 102.837L422.858 113.914L424.906 96.9255Z" fill="#1B1B43"/>
<path d="M408.762 103.406L422.336 114.138C419.999 139.158 401.552 162.531 379.058 175.655L358.791 159.628C367.475 132.552 383.516 113.202 408.762 103.406Z" fill="white" stroke="#263238"/>
<path d="M358.21 159.805L349.204 166.042L374.988 186.475L379.014 176.258L358.21 159.805Z" fill="#0487FF"/>
<path d="M410.384 130.832C407.08 134.998 401.006 135.719 396.817 132.415C392.652 129.087 391.93 123.036 395.258 118.847C398.563 114.659 404.613 113.96 408.802 117.265C412.991 120.593 413.689 126.643 410.384 130.832Z" fill="white"/>
<path d="M403.543 131.67L403.473 131.088C404.031 131.042 404.567 130.902 405.102 130.716L405.311 131.251C404.729 131.461 404.148 131.623 403.543 131.67ZM401.727 131.623C401.122 131.53 400.541 131.367 399.982 131.111L400.215 130.576C400.727 130.809 401.262 130.972 401.821 131.065L401.727 131.623ZM406.894 130.367L406.545 129.878C406.987 129.552 407.406 129.18 407.755 128.738L408.197 129.087C407.825 129.576 407.382 129.994 406.894 130.367ZM398.446 130.134C397.957 129.738 397.562 129.296 397.19 128.808L397.678 128.459C398.004 128.924 398.376 129.32 398.819 129.692L398.446 130.134ZM408.918 127.993L408.383 127.714C408.639 127.225 408.849 126.713 408.965 126.155L409.523 126.271C409.407 126.876 409.198 127.458 408.918 127.993ZM396.352 127.179C396.142 126.62 396.003 126.015 395.956 125.41L396.538 125.363C396.584 125.922 396.701 126.457 396.887 126.992L396.352 127.179ZM409.105 124.479C409.081 123.921 408.965 123.385 408.802 122.85L409.361 122.664C409.547 123.246 409.663 123.851 409.686 124.456L409.105 124.479ZM396.608 123.688L396.049 123.571C396.142 122.99 396.328 122.408 396.608 121.849L397.12 122.105C396.887 122.594 396.724 123.129 396.608 123.688ZM408.081 121.337C407.778 120.872 407.406 120.453 406.987 120.081L407.382 119.639C407.848 120.057 408.243 120.523 408.569 121.035L408.081 121.337ZM398.027 120.686L397.585 120.313C397.981 119.848 398.446 119.429 398.935 119.103L399.261 119.569C398.811 119.895 398.4 120.267 398.027 120.686ZM405.614 119.127C405.125 118.894 404.59 118.708 404.031 118.591L404.148 118.033C404.753 118.149 405.335 118.335 405.87 118.615L405.614 119.127ZM400.75 118.824L400.564 118.266C401.146 118.079 401.727 117.94 402.333 117.917L402.379 118.498C401.821 118.529 401.278 118.638 400.75 118.824Z" fill="#263238"/>
<path d="M355.254 185.357L354.812 184.985C354.137 184.45 354.021 183.472 354.556 182.798L372.638 159.945C373.173 159.27 374.174 159.154 374.849 159.689L375.291 160.061C375.966 160.597 376.082 161.574 375.547 162.249L357.465 185.101C356.93 185.776 355.929 185.893 355.254 185.357Z" fill="#1B1B43"/>
<path d="M387.322 384.585H383.832V384.004H387.322V384.585ZM380.341 384.585H376.85V384.004H380.341V384.585ZM373.359 384.585H369.869V384.004H373.359V384.585ZM366.378 384.585H362.887V384.004H366.378V384.585ZM359.396 384.585H355.906V384.004H359.396V384.585ZM352.415 384.585H348.924V384.004H352.415V384.585ZM345.433 384.585H341.943V384.004H345.433V384.585ZM338.452 384.585H334.961V384.004H338.452V384.585ZM331.471 384.585H327.98V384.004H331.471V384.585ZM324.489 384.585H320.998V384.004H324.489V384.585ZM317.508 384.585C316.297 384.562 315.111 384.376 313.97 383.98L314.18 383.422C315.25 383.794 316.367 383.98 317.508 384.004V384.585ZM387.741 384.585L387.718 384.004C388.858 383.957 389.975 383.724 391.046 383.329L391.232 383.864C390.115 384.306 388.951 384.539 387.741 384.585ZM310.829 382.305C309.898 381.56 309.06 380.699 308.385 379.722L308.874 379.372C309.502 380.327 310.293 381.141 311.201 381.839L310.829 382.305ZM394.327 382.095L393.955 381.653C394.839 380.932 395.607 380.094 396.212 379.14L396.701 379.442C396.049 380.466 395.258 381.351 394.327 382.095ZM306.849 376.487C306.57 375.486 306.43 374.462 306.43 373.438V372.95H307.012V373.438C307.012 374.416 307.152 375.393 307.408 376.324L306.849 376.487ZM398.12 376.184L397.562 376.045C397.771 375.184 397.888 374.323 397.888 373.438V372.647H398.469V373.438C398.469 374.369 398.353 375.277 398.12 376.184ZM307.012 369.459H306.43V365.968H307.012V369.459ZM398.469 369.156H397.888V365.666H398.469V369.156ZM307.012 362.477H306.43V358.987H307.012V362.477ZM398.469 362.175H397.888V358.684H398.469V362.175ZM307.012 355.496H306.43V352.005H307.012V355.496ZM398.469 355.193H397.888V351.703H398.469V355.193ZM307.012 348.514H306.43V345.024H307.012V348.514ZM398.469 348.212H397.888V344.721H398.469V348.212ZM307.012 341.533H306.43V338.042H307.012V341.533ZM398.469 341.23H397.888V337.74H398.469V341.23ZM307.012 334.551H306.43V332.224C306.43 331.836 306.454 331.441 306.5 331.037L307.082 331.107C307.035 331.48 307.012 331.852 307.012 332.224V334.551ZM398.469 334.249H397.888V332.224C397.888 331.743 397.857 331.27 397.795 330.805L398.353 330.735C398.431 331.231 398.469 331.728 398.469 332.224V334.249ZM307.966 327.849L307.431 327.593C307.943 326.523 308.595 325.522 309.409 324.638L309.851 325.033C309.06 325.871 308.432 326.825 307.966 327.849ZM396.794 327.57C396.305 326.569 395.63 325.638 394.839 324.824L395.258 324.405C396.096 325.266 396.794 326.243 397.329 327.314L396.794 327.57ZM312.504 322.962L312.225 322.45C313.272 321.868 314.412 321.473 315.576 321.263L315.692 321.822C314.575 322.031 313.505 322.404 312.504 322.962ZM392.093 322.823C391.092 322.311 389.999 321.962 388.881 321.775L388.975 321.217C390.161 321.38 391.302 321.752 392.372 322.287L392.093 322.823ZM385.414 321.682H381.923V321.1H385.414V321.682ZM378.433 321.682H374.942V321.1H378.433V321.682ZM371.451 321.682H367.96V321.1H371.451V321.682ZM364.47 321.682H360.979V321.1H364.47V321.682ZM357.488 321.682H353.997V321.1H357.488V321.682ZM350.507 321.682H347.016V321.1H350.507V321.682ZM343.525 321.682H340.034V321.1H343.525V321.682ZM336.544 321.682H333.053V321.1H336.544V321.682ZM329.562 321.682H326.072V321.1H329.562V321.682ZM322.581 321.682H319.09V321.1H322.581V321.682Z" fill="#0487FF"/>
<path d="M380.946 374.009H306.686C302.217 374.009 298.599 370.371 298.599 365.898V318.424C298.599 313.953 302.215 310.337 306.686 310.337H380.946C385.417 310.337 389.033 313.953 389.033 318.424V365.898C389.033 370.371 385.415 374.009 380.946 374.009Z" fill="white" stroke="#263238"/>
<path d="M323.384 367.213H314.494V348.107H323.384V367.213Z" fill="#52D180" stroke="#263238"/>
<path d="M339.977 367.213H331.063V348.758H339.977V367.213Z" fill="#52D180" stroke="#263238"/>
<path d="M356.546 367.213H347.656V338.589H356.546V367.213Z" fill="#52D180" stroke="#263238"/>
<path d="M373.139 367.214H364.225V329.885H373.139V367.214Z" fill="#52D180" stroke="#263238"/>
<path d="M369.881 320.763H317.752V319.436H369.881V320.763Z" fill="white" stroke="#263238"/>
<path d="M233.776 418.702L159.284 300.622L160.029 300.156L234.521 418.236L233.776 418.702Z" fill="#1B1B43"/>
<path d="M160.029 418.702L159.284 418.236L233.776 300.156L234.521 300.622L160.029 418.702Z" fill="#1B1B43"/>
<path d="M262.168 305.416H131.638V295.572H262.168V305.416Z" fill="#263238"/>
<path d="M154.987 246.839L154.988 246.84L157.36 255.031L145.495 264.219L143.917 231.711L145.049 232.536C149.847 236.078 153.342 241.105 154.987 246.839Z" fill="#E9E9E9" stroke="#263238"/>
<path d="M157.658 256.065L159.898 263.851L159.95 264.033L160.109 264.134L181.798 277.981L181.861 278.021L181.934 278.041L190.358 280.368L190.36 280.369C191.753 280.749 192.924 281.723 193.608 283.025C193.608 283.026 193.609 283.027 193.609 283.028L196.266 288.234L192.993 290.403L188.441 285.391L187.644 285.987L187.644 285.987L187.644 285.987L187.644 285.988L187.646 285.99L187.651 286L187.675 286.039C187.681 286.049 187.688 286.06 187.695 286.073C187.714 286.104 187.737 286.143 187.765 286.189C187.842 286.319 187.951 286.506 188.08 286.731C188.339 287.183 188.675 287.786 188.987 288.398C189.302 289.016 189.581 289.623 189.737 290.088C189.8 290.276 189.835 290.419 189.85 290.519C189.538 290.638 189.272 290.629 189.003 290.545C188.657 290.437 188.29 290.199 187.827 289.847C187.694 289.746 187.556 289.638 187.41 289.524C186.575 288.869 185.519 288.04 184.07 287.536L183.996 287.51L183.917 287.508L174.007 287.278L153.036 278.241C148.743 276.385 145.881 272.248 145.658 267.598L145.554 265.438L157.658 256.065ZM189.856 290.641C189.856 290.64 189.856 290.635 189.857 290.627C189.857 290.637 189.856 290.641 189.856 290.641Z" fill="white" stroke="#263238"/>
<path d="M157.795 267.273L157.283 266.831L160.122 263.503L160.634 263.922L157.795 267.273Z" fill="#263238"/>
<path d="M176.897 397.104L159.781 302.817L175.013 301.469C175.013 301.469 175.013 301.469 175.013 301.469C184.964 300.589 193.681 308.648 194.181 319.285L194.181 319.286L197.718 396.458L176.897 397.104Z" fill="white" stroke="#263238"/>
<path d="M194.741 405.136L194.761 405.34L194.919 405.472L209.75 417.806H179.387L178.741 397.286L193.79 395.295L194.741 405.136Z" fill="white" stroke="#263238"/>
<path d="M188.863 410.836L188.048 409.788L194.82 404.552L195.635 405.599L188.863 410.836Z" fill="#263238"/>
<path d="M187.411 405.136L187.431 405.34L187.589 405.472L202.42 417.806H172.034L171.41 397.286L186.46 395.295L187.411 405.136Z" fill="white" stroke="#263238"/>
<path d="M181.532 410.836L180.717 409.788L187.49 404.552L188.304 405.6L181.532 410.836Z" fill="#263238"/>
<path d="M149.683 340.285L149.683 340.284L147.007 332.092L146.895 331.749L146.534 331.748L108.511 331.585C108.51 331.585 108.51 331.585 108.509 331.585C106.335 331.562 104.187 330.538 102.335 328.979L102.334 328.979C98.4277 325.701 96.6194 320.502 97.3418 315.423L97.3419 315.422L100.601 292.128L156.613 299.395C167.107 300.764 175.593 308.635 177.738 318.991L177.738 318.992L194.298 398.467H168.584L149.683 340.285Z" fill="white" stroke="#263238"/>
<path d="M154.374 332.248L149.208 340.439L146.532 332.248H154.374Z" fill="#1B1B43"/>
<path d="M146.049 290.439L146.048 290.439L146.046 290.449L144.142 298.22L118.208 297.143L118.207 297.143L99.2413 296.352C94.521 296.155 91.0928 291.786 92.0536 287.156C92.0536 287.156 92.0536 287.156 92.0536 287.156L100.897 244.592L100.899 244.58L100.901 244.568C102.006 237.555 107.712 232.142 114.77 231.421L114.771 231.421L136.317 229.196L143.177 231.156C149.284 234.467 149.679 240.227 149.976 244.562C149.996 244.852 150.015 245.136 150.036 245.412L150.036 245.413C151.474 264.413 149.712 275.902 146.908 287.141C146.629 288.24 146.343 289.34 146.049 290.439Z" fill="#E9E9E9" stroke="#263238"/>
<path d="M129.52 285.891C129.264 286.984 146.834 289.451 146.532 290.568L144.53 298.736L118.187 297.643C108.994 290.708 105.527 275.581 102.176 256.661L129.52 285.891Z" fill="#222632" fill-opacity="0.219608"/>
<path d="M124.284 241C125.448 242.233 126.751 243.327 128.24 244.118C129.683 244.933 131.289 245.514 132.941 245.724C134.57 245.933 136.292 245.794 137.735 245.002C139.178 244.281 140.132 242.745 140.295 241.07L140.551 241.093C140.551 241.977 140.318 242.861 139.899 243.629C139.457 244.421 138.782 245.072 138.014 245.514C136.432 246.422 134.57 246.585 132.848 246.375C131.103 246.119 129.427 245.514 127.938 244.607C126.448 243.723 125.145 242.536 124.098 241.163L124.284 241Z" fill="#1B1B43"/>
<path d="M151.116 267.017L150.627 266.971C151.116 260.269 150.627 252.007 149.185 242.466L149.673 242.396C151.116 251.984 151.605 260.269 151.116 267.017Z" fill="#1B1B43"/>
<path d="M195.914 295.572H171.106V290.685H195.914V295.572Z" fill="#1B1B43"/>
<path d="M260.9 252.275L238.524 295.072H189.828L212.227 252.275H260.9Z" fill="#0487FF" stroke="#263238"/>
<path d="M129.776 193.665C123.935 187.917 112.927 190.338 113.114 200.019C101.105 203.183 100.431 216.355 105.271 223.104L109.437 223.43L110.344 218.519L112.764 223.523L124.447 224.267L129.776 193.665Z" fill="#1B1B43"/>
<path d="M131.95 239.05L131.948 239.049C126.655 237.687 122.971 232.908 123.015 227.436L123.015 227.436L123.104 215.692H139.027V233.553V233.554V233.555V233.556V233.557V233.558V233.559V233.56V233.561V233.562V233.563V233.564V233.565V233.566V233.567V233.568V233.569V233.57V233.571V233.572V233.573V233.574V233.575V233.576V233.577V233.578V233.579V233.58V233.581V233.582V233.583V233.584V233.585V233.586V233.587V233.588V233.589V233.59V233.591V233.592V233.593V233.594V233.595V233.596V233.597V233.598V233.599V233.6V233.601V233.602V233.603V233.604V233.605V233.606V233.607V233.608V233.609V233.61V233.61V233.611V233.612V233.613V233.614V233.615V233.616V233.617V233.618V233.619V233.62V233.621V233.622V233.623V233.624V233.625V233.626V233.627V233.628V233.629V233.63V233.631V233.632V233.633V233.634V233.635V233.636V233.637V233.638V233.639V233.64V233.641V233.642V233.643V233.644V233.645V233.646V233.647V233.648V233.649V233.65V233.651V233.652V233.653V233.654V233.655V233.656V233.657V233.658V233.659V233.66V233.661V233.662V233.663V233.664V233.665V233.666V233.667V233.668V233.669V233.67V233.671V233.672V233.672V233.673V233.674V233.675V233.676V233.677V233.678V233.679V233.68V233.681V233.682V233.683V233.684V233.685V233.686V233.687V233.688V233.689V233.69V233.691V233.692V233.693V233.694V233.695V233.696V233.697V233.698V233.699V233.7V233.701V233.702V233.703V233.704V233.705V233.706V233.707V233.708V233.709V233.71V233.711V233.711V233.712V233.713V233.714V233.715V233.716V233.717V233.718V233.719V233.72V233.721V233.722V233.723V233.724V233.725V233.726V233.727V233.728V233.729V233.73V233.731V233.732V233.733V233.734V233.735V233.736V233.737V233.738V233.739V233.74V233.741V233.742V233.742V233.743V233.744V233.745V233.746V233.747V233.748V233.749V233.75V233.751V233.752V233.753V233.754V233.755V233.756V233.757V233.758V233.759V233.76V233.761V233.762V233.763V233.764V233.765V233.766V233.767V233.768V233.768V233.769V233.77V233.771V233.772V233.773V233.774V233.775V233.776V233.777V233.778V233.779V233.78V233.781V233.782V233.783V233.784V233.785V233.786V233.787V233.788V233.789V233.79V233.791V233.791V233.792V233.793V233.794V233.795V233.796V233.797V233.798V233.799V233.8V233.801V233.802V233.803V233.804V233.805V233.806V233.807V233.808V233.809V233.81V233.811V233.812V233.813V233.813V233.814V233.815V233.816V233.817V233.818V233.819V233.82V233.821V233.822V233.823V233.824V233.825V233.826V233.827V233.828V233.829V233.83V233.831V233.832V233.832V233.833V233.834V233.835V233.836V233.837V233.838V233.839V233.84V233.841V233.842V233.843V233.844V233.845V233.846V233.847V233.848V233.849V233.85V233.85V233.851V233.852V233.853V233.854V233.855V233.856V233.857V233.858V233.859V233.86V233.861V233.862V233.863V233.864V233.865V233.866V233.867V233.867V233.868V233.869V233.87V233.871V233.872V233.873V233.874V233.875V233.876V233.877V233.878V233.879V233.88V233.881V233.882V233.883V233.883V233.884V233.885V233.886V233.887V233.888V233.889V233.89V233.891V233.892V233.893V233.894V233.895V233.896V233.897V233.898V233.898V233.899V233.9V233.901V233.902V233.903V233.904V233.905V233.906V233.907V233.908V233.909V233.91V233.911V233.912V233.912V233.913V233.914V233.915V233.916V233.917V233.918V233.919V233.92V233.921V233.922V233.923V233.924V233.925V233.926V233.926V233.927V233.928V233.929V233.93V233.931V233.932V233.933V233.934V233.935V233.936V233.937V233.938V233.939V233.939V233.94V233.941V233.942V233.943V233.944V233.945V233.946V233.947V233.948V233.949V233.95V233.951V233.952V233.952V233.953V233.954V233.955V233.956V233.957V233.958V233.959V233.96V233.961V233.962V233.963V233.964V233.965V233.965V233.966V233.967V233.968V233.969V233.97V233.971V233.972V233.973V233.974V233.975V233.976V233.977V233.977V233.978V233.979V233.98V233.981V233.982V233.983V233.984V233.985V233.986V233.987V233.988V233.988V233.989V233.99V233.991V233.992V233.993V233.994V233.995V233.996V233.997V233.998V233.999V233.999V234V234.001V234.002V234.003V234.004V234.005V234.006V234.007V234.008V234.009V234.01V234.01V234.011V234.012V234.013V234.014V234.015V234.016V234.017V234.018V234.019V234.02V234.021V234.021C138.738 237.5 135.384 239.946 131.95 239.05Z" fill="white" stroke="#263238"/>
<path d="M139.527 223.127V233.553C139.527 233.723 139.527 233.886 139.527 234.042C134.593 233.25 128.915 227.549 127.519 221.359L139.527 223.127Z" fill="#1B1B43"/>
<path d="M148.995 216.455L148.994 216.455C148.742 217.902 148.398 219.37 147.963 220.767C147.24 223.073 146.246 225.122 144.894 226.507C143.562 227.871 141.879 228.6 139.691 228.287L139.69 228.287C134.295 227.518 130.074 224.351 127.184 221.338C125.742 219.835 124.642 218.38 123.902 217.301C123.532 216.762 123.253 216.317 123.067 216.009C123.028 215.945 122.994 215.886 122.963 215.834L130.315 207.422L130.328 207.407L130.34 207.392L135.2 200.867L149.781 207.167C149.781 207.292 149.781 207.451 149.779 207.642C149.774 208.153 149.758 208.888 149.715 209.78C149.628 211.565 149.432 213.968 148.995 216.455Z" fill="white" stroke="#263238"/>
<path d="M125.634 212.841C130.497 212.702 134.267 210.212 135.873 203.183C135.873 203.183 147.206 212.958 152.768 207.745C157.423 203.37 149.533 193.293 136.455 192.083C131.684 191.664 126.937 193.153 123.213 196.132C116.883 201.205 116.278 213.027 122.189 217.1L125.634 212.841Z" fill="#1B1B43"/>
<path d="M119.932 200.507C119.629 199.367 119.862 198.087 120.374 196.993C120.886 195.876 121.701 194.922 122.655 194.177C123.609 193.433 124.749 192.897 125.936 192.641C127.1 192.409 128.356 192.455 129.45 192.921C128.31 193.293 127.356 193.665 126.425 194.131C125.517 194.619 124.679 195.155 123.888 195.76C123.097 196.365 122.352 197.063 121.701 197.831C121.049 198.599 120.467 199.437 119.932 200.507Z" fill="white"/>
<path d="M122.652 209.839C124.276 209.202 126.356 210.222 127.241 212.399C128.102 214.577 127.302 216.769 125.703 217.427C124.084 218.061 122.004 217.023 121.118 214.843C120.254 212.661 121.059 210.473 122.652 209.839Z" fill="white" stroke="#263238"/>
<path d="M124.191 216.146C124.261 215.331 124.261 214.563 124.028 213.865C123.795 213.144 123.353 212.539 122.841 211.887L123.004 211.701C123.749 212.073 124.4 212.795 124.656 213.656C124.935 214.517 124.819 215.471 124.423 216.215L124.191 216.146Z" fill="#1B1B43"/>
<path d="M142.412 213.679C142.412 214.377 141.9 214.936 141.272 214.936C140.644 214.936 140.155 214.377 140.155 213.679C140.155 213.004 140.644 212.446 141.272 212.446C141.9 212.446 142.412 213.004 142.412 213.679Z" fill="#1B1B43"/>
<path d="M148.323 214.68C148.253 215.285 147.741 215.727 147.183 215.657C146.624 215.587 146.252 215.029 146.322 214.424C146.392 213.819 146.904 213.376 147.462 213.446C147.997 213.516 148.393 214.051 148.323 214.68Z" fill="#1B1B43"/>
<path d="M142.342 210.561C142.389 211.142 141.458 211.189 140.085 211.235C138.712 211.282 137.758 211.701 137.758 211.329C137.735 210.956 138.759 210.025 140.108 209.793C141.505 209.56 142.296 209.862 142.342 210.561Z" fill="#1B1B43"/>
<path d="M146.741 211.119C146.624 211.701 147.323 211.84 148.323 212.027C149.347 212.19 149.999 212.702 150.045 212.352C150.092 211.98 149.464 210.933 148.486 210.584C147.462 210.211 146.857 210.444 146.741 211.119Z" fill="#1B1B43"/>
<path d="M145.089 215.704C145.368 216.029 145.647 216.309 145.95 216.588L146.392 217.007C146.555 217.146 146.718 217.309 146.857 217.542C146.95 217.658 146.997 217.798 147.02 217.984C147.02 218.147 146.974 218.31 146.904 218.45C146.741 218.706 146.555 218.869 146.369 218.985C145.973 219.264 145.531 219.357 145.112 219.45L145.019 219.194C145.368 218.962 145.74 218.775 146.019 218.519C146.136 218.403 146.275 218.263 146.322 218.147C146.369 218.031 146.369 218.007 146.299 217.868C146.159 217.635 145.763 217.309 145.531 216.96C145.251 216.634 145.019 216.262 144.879 215.82L145.089 215.704Z" fill="#1B1B43"/>
<path d="M139.457 219.823C140.132 220.591 140.853 221.312 141.691 221.777C142.552 222.243 143.506 222.359 144.53 222.266L144.6 222.499C144.111 222.732 143.553 222.848 142.994 222.825C142.436 222.778 141.877 222.615 141.388 222.359C140.388 221.801 139.666 220.916 139.224 219.962L139.457 219.823Z" fill="#1B1B43"/>
<path opacity="0.2" d="M138.2 216.355C138.2 217.868 136.967 219.101 135.454 219.101C133.941 219.101 132.708 217.868 132.708 216.355C132.708 214.819 133.941 213.609 135.454 213.609C136.967 213.609 138.2 214.819 138.2 216.355Z" fill="#E9E9E9"/>
<path opacity="0.2" d="M149.487 216.541C149.231 218.007 148.882 219.497 148.44 220.916C147.998 220.428 147.742 219.799 147.742 219.101C147.742 217.938 148.463 216.96 149.487 216.541Z" fill="#FE5B52"/>
<mask id="path-81-inside-1_506_82" fill="white">
<path d="M102.665 256.509L102.176 256.662L107.156 268.484L107.814 268.18L102.665 256.509Z"/>
</mask>
<path d="M102.665 256.509L102.176 256.662L107.156 268.484L107.814 268.18L102.665 256.509Z" fill="#E9E9E9"/>
<path d="M102.665 256.509L103.58 256.106L103.22 255.29L102.369 255.554L102.665 256.509ZM102.176 256.662L101.879 255.707L100.826 256.034L101.254 257.05L102.176 256.662ZM107.156 268.484L106.234 268.872L106.636 269.825L107.575 269.391L107.156 268.484ZM107.814 268.18L108.233 269.087L109.126 268.675L108.729 267.776L107.814 268.18ZM102.369 255.554L101.879 255.707L102.473 257.617L102.962 257.464L102.369 255.554ZM101.254 257.05L106.234 268.872L108.078 268.095L103.097 256.273L101.254 257.05ZM107.575 269.391L108.233 269.087L107.395 267.272L106.737 267.576L107.575 269.391ZM108.729 267.776L103.58 256.106L101.751 256.913L106.899 268.583L108.729 267.776Z" fill="#263238" mask="url(#path-81-inside-1_506_82)"/>
<path d="M176.971 290.079C176.529 289.87 176.249 289.73 176.249 289.73L176.412 289.404C176.412 289.404 176.715 289.544 177.134 289.777L176.971 290.079Z" fill="#C5C5FF"/>
<path d="M175.006 288.004L174.465 288.845C175.185 289.332 175.912 289.783 176.624 290.191C177.325 290.646 177.99 291.104 178.536 291.534C179.091 291.973 179.477 292.348 179.662 292.635C179.736 292.75 179.757 292.818 179.762 292.847C179.696 292.894 179.584 292.938 179.286 292.878C178.96 292.813 178.506 292.643 177.826 292.346C177.434 292.174 176.974 291.963 176.436 291.716C175.153 291.128 173.427 290.337 171.11 289.385L170.72 290.305C172.718 291.176 174.321 291.942 175.249 292.603C175.729 292.945 175.934 293.195 175.987 293.343C176.005 293.394 175.998 293.412 175.994 293.424C175.984 293.448 175.947 293.513 175.818 293.607C175.72 293.676 175.54 293.745 175.249 293.78C174.964 293.814 174.613 293.813 174.211 293.778C173.407 293.71 172.459 293.516 171.54 293.284C170.625 293.052 169.756 292.785 169.114 292.575C168.794 292.47 168.531 292.381 168.349 292.317C168.258 292.285 168.187 292.26 168.139 292.243L168.085 292.223L168.071 292.218L168.068 292.217L168.067 292.217L168.067 292.217L167.857 292.139L167.659 292.245L161.975 295.281L155.421 295.281L155.418 295.281L131.428 295.444C131.428 295.444 131.427 295.444 131.427 295.444C129.956 295.444 128.509 295.263 127.108 294.901L127.107 294.901C124.344 294.199 121.712 292.816 119.51 290.954L119.51 290.954L119.505 290.95C118.106 289.799 116.904 288.418 115.879 286.915C115.132 285.782 114.494 284.554 113.946 283.275C113.946 283.274 113.946 283.274 113.946 283.274L107.805 268.735L123.608 261.439L132.073 278.664L132.18 278.881L132.416 278.932L161.11 285.169L161.224 285.194L161.337 285.166L169.343 283.164L169.346 283.164C170.099 282.97 171.051 283.025 172.023 283.256C172.99 283.486 173.929 283.879 174.638 284.315L174.638 284.316C176.449 285.427 178.712 287.126 180.46 288.666C181.334 289.437 182.065 290.155 182.542 290.731C182.783 291.021 182.942 291.255 183.027 291.427C183.044 291.463 183.057 291.491 183.065 291.514C183.064 291.515 183.062 291.515 183.06 291.516C182.969 291.542 182.814 291.557 182.579 291.536C182.111 291.495 181.455 291.325 180.657 291.027C179.631 290.643 178.416 290.064 177.145 289.337C176.427 288.872 175.684 288.417 175.006 288.004ZM183.124 291.489C183.124 291.489 183.123 291.49 183.121 291.492C183.122 291.49 183.123 291.489 183.124 291.489Z" fill="white" stroke="#263238"/>
<path d="M107.272 268.716L107.063 268.251L123.516 260.664L116.651 244.63L117.116 244.421L124.168 260.92L107.272 268.716Z" fill="#1B1B43"/>
<path d="M109.623 414.094H108.738V338.927H109.623V414.094Z" fill="#1B1B43"/>
<path d="M130.195 342.254H88.1663C85.3272 342.254 83 339.95 83 337.088C83 334.249 85.3272 331.922 88.1663 331.922H130.195C133.057 331.922 135.361 334.249 135.361 337.088C135.361 339.95 133.057 342.254 130.195 342.254Z" fill="#263238"/>
<path d="M126.367 418.481H92.0175V418.12C92.0175 414.113 95.262 410.847 99.2902 410.847H119.094C123.1 410.847 126.367 414.114 126.367 418.12V418.481Z" fill="white" stroke="#263238"/>
<path fill-rule="evenodd" clip-rule="evenodd" d="M142.575 138.628C127.542 138.628 115.301 126.387 115.301 111.354C115.301 96.3204 127.542 84.0796 142.575 84.0796C157.632 84.0796 169.873 96.3204 169.873 111.354C169.873 126.387 157.632 138.628 142.575 138.628ZM142.575 84.6614C127.868 84.6614 115.883 96.623 115.883 111.354C115.883 126.061 127.868 138.046 142.575 138.046C157.306 138.046 169.291 126.061 169.291 111.354C169.291 96.623 157.306 84.6614 142.575 84.6614Z" fill="#263238"/>
<path d="M190.201 100.672C190.201 116.779 177.137 129.843 161.03 129.843C144.922 129.843 131.858 116.779 131.858 100.672C131.858 84.5416 144.923 71.4777 161.03 71.4777C177.136 71.4777 190.201 84.5416 190.201 100.672Z" fill="white" stroke="#263238"/>
<path d="M161.03 101.231L144.577 88.3383L145.135 87.6401L161.03 100.09L169.873 92.597L170.455 93.2719L161.03 101.231Z" fill="#1B1B43"/>
<defs>
<clipPath id="clip0_506_82">
<rect width="480" height="480" rx="24" fill="white"/>
</clipPath>
</defs>
</svg>
