<svg width="59" height="58" viewBox="0 0 59 58" fill="none" xmlns="http://www.w3.org/2000/svg">
<circle cx="34.333" cy="34" r="24" fill="#B4DBFF"/>
<path d="M24.3046 7.57031C16.0105 7.57031 9.26273 14.3181 9.26273 22.6121C9.26273 25.2655 9.96323 27.8742 11.2884 30.1562C12.5739 32.3697 14.4158 34.2323 16.6151 35.5428C17.2914 35.9458 17.6639 36.6012 17.6639 37.3883V40.8729C17.6639 42.1097 18.4954 43.1551 19.6286 43.4814V44.2578C19.6286 46.2696 21.2652 47.9062 23.2768 47.9062H25.3323C27.344 47.9062 28.9807 46.2696 28.9807 44.2578V43.4814C30.1138 43.1551 30.9453 42.1096 30.9453 40.8729V37.3883C30.9453 36.6012 31.3178 35.9458 31.9941 35.5428C34.1934 34.2323 36.0353 32.3697 37.3209 30.1562C38.6461 27.8742 39.3465 25.2655 39.3465 22.6121C39.3465 14.3181 32.5987 7.57031 24.3046 7.57031ZM25.3323 46.4062H23.2768C22.0923 46.4062 21.1286 45.4425 21.1286 44.2578V43.5877H27.4806V44.2578C27.4807 45.4425 26.5169 46.4062 25.3323 46.4062ZM28.2307 42.0877H20.3786C19.7088 42.0877 19.1639 41.5428 19.1639 40.8729V39.4276H29.4453V40.8729C29.4453 41.5427 28.9004 42.0877 28.2307 42.0877ZM31.2263 34.2543C30.0944 34.9286 29.4452 36.071 29.4452 37.3883V37.9276H19.1639V37.3883C19.1639 36.071 18.5148 34.9287 17.3829 34.2543C13.2994 31.8212 10.7627 27.3602 10.7627 22.6121C10.7627 15.1451 16.8375 9.07031 24.3046 9.07031C31.7717 9.07031 37.8465 15.1451 37.8465 22.6121C37.8465 27.3602 35.3098 31.8212 31.2263 34.2543ZM39.1992 13.8995C38.9921 13.5408 39.115 13.0821 39.4737 12.875L42.6835 11.0218C43.0422 10.8149 43.5009 10.9376 43.708 11.2963C43.9151 11.655 43.7922 12.1137 43.4335 12.3208L40.2237 14.174C40.1055 14.2421 39.9766 14.2746 39.8493 14.2746C39.5902 14.2747 39.3381 14.1401 39.1992 13.8995ZM46.7665 22.5141C46.7665 22.9282 46.4307 23.2641 46.0165 23.2641H42.3101C41.8959 23.2641 41.5601 22.9282 41.5601 22.5141C41.5601 22.0999 41.8959 21.7641 42.3101 21.7641H46.0165C46.4306 21.7641 46.7665 22.0998 46.7665 22.5141ZM43.7081 33.7014C43.5691 33.942 43.317 34.0765 43.0578 34.0765C42.9306 34.0765 42.8016 34.0441 42.6835 33.9759L39.4737 32.1227C39.115 31.9156 38.9921 31.4569 39.1992 31.0982C39.4063 30.7395 39.865 30.6166 40.2237 30.8237L43.4335 32.6769C43.7923 32.8841 43.9152 33.3428 43.7081 33.7014ZM23.5546 4.55016V0.84375C23.5546 0.429562 23.8904 0.09375 24.3046 0.09375C24.7188 0.09375 25.0546 0.429562 25.0546 0.84375V4.55016C25.0546 4.96434 24.7188 5.30016 24.3046 5.30016C23.8904 5.30016 23.5546 4.96434 23.5546 4.55016ZM12.8275 4.12003C12.6204 3.76134 12.7433 3.30263 13.102 3.09553C13.4607 2.88863 13.9194 3.01134 14.1265 3.37003L15.9798 6.57984C16.1869 6.93853 16.064 7.39725 15.7053 7.60434C15.5872 7.6725 15.4583 7.70494 15.331 7.70494C15.0718 7.70494 14.8197 7.57041 14.6807 7.32984L12.8275 4.12003ZM4.90129 11.2963C5.10838 10.9375 5.56701 10.8146 5.92579 11.0218L9.1356 12.875C9.49429 13.0821 9.61719 13.5408 9.4101 13.8995C9.27116 14.14 9.01907 14.2746 8.75985 14.2746C8.63263 14.2746 8.50373 14.2421 8.38551 14.174L5.17569 12.3208C4.8171 12.1137 4.6942 11.6551 4.90129 11.2963ZM6.35591 23.2489H2.64941C2.23523 23.2489 1.89941 22.9131 1.89941 22.4989C1.89941 22.0847 2.23523 21.7489 2.64941 21.7489H6.35591C6.7701 21.7489 7.10591 22.0847 7.10591 22.4989C7.10591 22.9131 6.7702 23.2489 6.35591 23.2489ZM9.4101 31.0983C9.61719 31.457 9.49429 31.9157 9.1356 32.1228L5.92579 33.9759C5.80766 34.0442 5.67876 34.0765 5.55145 34.0765C5.29223 34.0765 5.04013 33.942 4.9012 33.7014C4.6941 33.3428 4.81701 32.884 5.17569 32.6769L8.38551 30.8237C8.74429 30.6168 9.20301 30.7396 9.4101 31.0983ZM32.6295 6.57984L34.4827 3.37003C34.6898 3.01125 35.1486 2.88834 35.5072 3.09553C35.8659 3.30263 35.9888 3.76134 35.7817 4.12003L33.9285 7.32984C33.7896 7.57041 33.5375 7.70494 33.2783 7.70494C33.1511 7.70494 33.0221 7.6725 32.9039 7.60434C32.5454 7.39725 32.4224 6.93853 32.6295 6.57984ZM24.3329 12.9916C19.0282 12.9916 14.7125 17.3074 14.7125 22.6121C14.7125 27.9169 19.0282 32.2325 24.3329 32.2325C29.6377 32.2325 33.9534 27.9168 33.9534 22.612C33.9534 17.3073 29.6376 12.9916 24.3329 12.9916ZM19.3996 29.0575C20.4699 27.365 22.3099 26.3354 24.3309 26.3347H24.333C24.333 26.3347 24.3344 26.3347 24.3352 26.3347C26.3561 26.3354 28.1961 27.365 29.2663 29.0574C27.8979 30.1074 26.1871 30.7326 24.3329 30.7326C22.4788 30.7325 20.7681 30.1074 19.3996 29.0575ZM21.5203 22.0219C21.5203 20.471 22.782 19.2091 24.3329 19.2091C25.8839 19.2091 27.1456 20.4709 27.1456 22.0219C27.1456 23.5721 25.885 24.8334 24.335 24.8347C24.3343 24.8347 24.3336 24.8347 24.3328 24.8347C24.3321 24.8347 24.3314 24.8347 24.3307 24.8347C22.7809 24.8334 21.5203 23.5721 21.5203 22.0219ZM30.3817 28.0237C29.5507 26.8105 28.3943 25.8908 27.0627 25.3581C28.0283 24.5665 28.6456 23.365 28.6456 22.0219C28.6456 19.6438 26.7109 17.7091 24.3329 17.7091C21.955 17.7091 20.0203 19.6438 20.0203 22.0219C20.0203 23.365 20.6376 24.5664 21.6032 25.3581C20.2716 25.8908 19.1152 26.8106 18.2841 28.0238C16.9966 26.5864 16.2124 24.6892 16.2124 22.6121C16.2124 18.1344 19.8553 14.4916 24.3328 14.4916C28.8104 14.4916 32.4533 18.1344 32.4533 22.6121C32.4534 24.6891 31.6692 26.5862 30.3817 28.0237Z" fill="#0487FF"/>
</svg>
