<svg width="59" height="58" viewBox="0 0 59 58" fill="none" xmlns="http://www.w3.org/2000/svg">
<circle cx="34.667" cy="34" r="24" fill="#B4DBFF"/>
<g clip-path="url(#clip0_464_729)">
<mask id="mask0_464_729" style="mask-type:luminance" maskUnits="userSpaceOnUse" x="0" y="-1" width="49" height="49">
<path d="M0.665039 -0.000118256H48.665V47.9999H0.665039V-0.000118256Z" fill="white"/>
</mask>
<g mask="url(#mask0_464_729)">
<path d="M43.654 25.131L40.2707 27.0843C40.1696 27.1427 40.0403 27.1081 39.9819 27.0069L33.8897 16.4549C33.8313 16.3537 33.8659 16.2245 33.967 16.1661L37.3503 14.2128" stroke="#0487FF" stroke-width="1.40625" stroke-miterlimit="10" stroke-linecap="round" stroke-linejoin="round"/>
<path d="M27.9645 20.2696L25.7698 19.0025C25.4952 18.8439 25.1566 18.8439 24.8818 19.0025L20.4998 21.5318C19.4176 22.1565 18.0338 21.7858 17.409 20.7035C16.7843 19.6213 17.155 18.2375 18.2372 17.6128L22.8574 14.9453C24.0416 14.2616 25.5004 14.2616 26.6846 14.9453L29.7859 16.7358C30.9522 17.4091 32.3891 17.4092 33.5555 16.7361L33.9288 16.5211L39.9448 26.9412" stroke="#0487FF" stroke-width="1.40625" stroke-miterlimit="10" stroke-linecap="round" stroke-linejoin="round"/>
<path d="M39.2171 26.7665L30.8936 21.9609" stroke="#0487FF" stroke-width="1.40625" stroke-miterlimit="10" stroke-linecap="round" stroke-linejoin="round"/>
<path d="M12.6424 30.5318L14.6541 29.3703C15.7363 28.7455 16.1071 27.3617 15.4823 26.2795C14.8575 25.1973 13.4737 24.8266 12.3915 25.4513L10.3798 26.6128C9.29752 27.2375 8.92674 28.6214 9.55158 29.7036C10.1764 30.7858 11.5603 31.1567 12.6424 30.5318Z" stroke="#0487FF" stroke-width="1.40625" stroke-miterlimit="10" stroke-linecap="round" stroke-linejoin="round"/>
<path d="M15.2557 34.2488L16.4507 33.5589C17.5329 32.934 17.9037 31.5502 17.2789 30.468C16.6541 29.3858 15.2702 29.015 14.188 29.6398L12.9931 30.3297C11.9108 30.9546 11.54 32.3384 12.1649 33.4206C12.7897 34.5028 14.1736 34.8736 15.2557 34.2488Z" stroke="#0487FF" stroke-width="1.40625" stroke-miterlimit="10" stroke-linecap="round" stroke-linejoin="round"/>
<path d="M18.7665 37.4474L19.8449 36.8247C20.9271 36.2 21.2979 34.8161 20.673 33.734C20.0482 32.6517 18.6645 32.2809 17.5822 32.9058L16.5038 33.5284C15.4215 34.1532 15.0508 35.5371 15.6756 36.6192C16.3004 37.7014 17.6842 38.0722 18.7665 37.4474Z" stroke="#0487FF" stroke-width="1.40625" stroke-miterlimit="10" stroke-linecap="round" stroke-linejoin="round"/>
<path d="M23.2108 39.8511L23.8226 39.4979C24.9048 38.8731 25.2755 37.4893 24.6508 36.4071C24.0259 35.3249 22.6422 34.9541 21.5599 35.5789L20.9481 35.9321C19.8659 36.557 19.4951 37.9408 20.1199 39.023C20.7448 40.1051 22.1286 40.476 23.2108 39.8511Z" stroke="#0487FF" stroke-width="1.40625" stroke-miterlimit="10" stroke-linecap="round" stroke-linejoin="round"/>
<path d="M27.5312 35.6959L28.7431 36.3955" stroke="#0487FF" stroke-width="1.40625" stroke-miterlimit="10" stroke-linecap="round" stroke-linejoin="round"/>
<path d="M29.7949 31.7769L33.1679 33.7242" stroke="#0487FF" stroke-width="1.40625" stroke-miterlimit="10" stroke-linecap="round" stroke-linejoin="round"/>
<path d="M32.0566 27.8578L37.0755 30.7555" stroke="#0487FF" stroke-width="1.40625" stroke-miterlimit="10" stroke-linecap="round" stroke-linejoin="round"/>
<path d="M5.67676 25.131L9.06001 27.0844C9.16116 27.1427 9.29044 27.1081 9.34885 27.007L15.4411 16.4549C15.4994 16.3538 15.4648 16.2246 15.3638 16.1662L11.9804 14.2128" stroke="#0487FF" stroke-width="1.40625" stroke-miterlimit="10" stroke-linecap="round" stroke-linejoin="round"/>
<path d="M24.3457 39.0819L26.4365 40.289C27.5351 40.9233 28.9797 40.5586 29.593 39.4482C30.1875 38.3718 29.8128 37.013 28.7433 36.3954L30.8603 37.6177C31.9589 38.252 33.4035 37.8873 34.0168 36.7769C34.6113 35.7006 34.2366 34.3417 33.1671 33.7241L34.882 34.7142C36.0244 35.3738 37.4418 34.9481 38.0318 33.7682L38.0354 33.761C38.5586 32.7147 38.1577 31.3801 37.1446 30.7952L37.0757 30.7554C38.158 31.3802 39.5417 31.0094 40.1666 29.9272C40.7241 28.8122 40.2969 27.3898 39.2173 26.7665" stroke="#0487FF" stroke-width="1.40625" stroke-miterlimit="10" stroke-linecap="round" stroke-linejoin="round"/>
<path d="M6.03091 9.99223L1.5732 7.41852C1.48207 7.36592 1.36816 7.43173 1.36816 7.53692V23.3512C1.36816 23.4001 1.39423 23.4452 1.43651 23.4695L5.15238 25.6149C5.25354 25.6733 5.38282 25.6387 5.44113 25.5376L12.2143 13.8063C12.2726 13.7051 12.2379 13.5758 12.1369 13.5175L8.93219 11.6673" stroke="#0487FF" stroke-width="1.40625" stroke-miterlimit="10" stroke-linecap="round" stroke-linejoin="round"/>
<path d="M42.48 23.0965L43.8893 25.5376C43.9476 25.6387 44.077 25.6733 44.1781 25.6149L47.8939 23.4696C47.9362 23.4452 47.9623 23.4 47.9623 23.3512V7.53694C47.9623 7.43176 47.8484 7.36594 47.7573 7.41854L37.1936 13.5174C37.0925 13.5758 37.0579 13.7051 37.1163 13.8063L40.807 20.1988" stroke="#0487FF" stroke-width="1.40625" stroke-miterlimit="10" stroke-linecap="round" stroke-linejoin="round"/>
<path d="M18.4287 17.502C17.5214 17.4793 16.629 17.2286 15.8349 16.7704L15.4023 16.5211" stroke="#0487FF" stroke-width="1.40625" stroke-miterlimit="10" stroke-linecap="round" stroke-linejoin="round"/>
</g>
</g>
<defs>
<clipPath id="clip0_464_729">
<rect width="48" height="48" fill="white" transform="translate(0.666992)"/>
</clipPath>
</defs>
</svg>
