<svg width="58" height="58" viewBox="0 0 58 58" fill="none" xmlns="http://www.w3.org/2000/svg">
<circle cx="34" cy="34" r="24" fill="#B4DBFF"/>
<g clip-path="url(#clip0_464_774)">
<mask id="mask0_464_774" style="mask-type:luminance" maskUnits="userSpaceOnUse" x="0" y="0" width="48" height="48">
<path d="M0 3.8147e-06H48V48H0V3.8147e-06Z" fill="white"/>
</mask>
<g mask="url(#mask0_464_774)">
<path d="M7.9323 25.7181C7.9323 26.9188 6.95889 27.8922 5.75814 27.8922C4.55739 27.8922 3.58398 26.9188 3.58398 25.7181C3.58398 24.5172 4.55739 23.5439 5.75814 23.5439C6.95889 23.5439 7.9323 24.5172 7.9323 25.7181Z" stroke="#0487FF" stroke-width="1.40625" stroke-miterlimit="10" stroke-linecap="round" stroke-linejoin="round"/>
<path d="M17.0535 21.1499C17.0535 22.3507 16.08 23.324 14.8793 23.324C13.6785 23.324 12.7051 22.3507 12.7051 21.1499C12.7051 19.9491 13.6785 18.9757 14.8793 18.9757C16.08 18.9757 17.0535 19.9491 17.0535 21.1499Z" stroke="#0487FF" stroke-width="1.40625" stroke-miterlimit="10" stroke-linecap="round" stroke-linejoin="round"/>
<path d="M26.1746 12.0136C26.1746 13.2144 25.2012 14.1878 24.0004 14.1878C22.7996 14.1878 21.8262 13.2144 21.8262 12.0136C21.8262 10.8128 22.7996 9.83949 24.0004 9.83949C25.2012 9.83949 26.1746 10.8128 26.1746 12.0136Z" stroke="#0487FF" stroke-width="1.40625" stroke-miterlimit="10" stroke-linecap="round" stroke-linejoin="round"/>
<path d="M35.2957 16.5818C35.2957 17.7826 34.3223 18.7559 33.1215 18.7559C31.9208 18.7559 30.9473 17.7826 30.9473 16.5818C30.9473 15.3809 31.9208 14.4076 33.1215 14.4076C34.3223 14.4076 35.2957 15.3809 35.2957 16.5818Z" stroke="#0487FF" stroke-width="1.40625" stroke-miterlimit="10" stroke-linecap="round" stroke-linejoin="round"/>
<path d="M44.4157 2.87733C44.4157 4.07817 43.4423 5.05148 42.2416 5.05148C41.0408 5.05148 40.0674 4.07817 40.0674 2.87733C40.0674 1.67648 41.0408 0.703171 42.2416 0.703171C43.4423 0.703171 44.4157 1.67648 44.4157 2.87733Z" stroke="#0487FF" stroke-width="1.40625" stroke-miterlimit="10" stroke-linecap="round" stroke-linejoin="round"/>
<path d="M34.3262 14.7719L41.0379 4.68726" stroke="#0487FF" stroke-width="1.40625" stroke-miterlimit="10" stroke-linecap="round" stroke-linejoin="round"/>
<path d="M25.9443 12.9873L31.1772 15.6082" stroke="#0487FF" stroke-width="1.40625" stroke-miterlimit="10" stroke-linecap="round" stroke-linejoin="round"/>
<path d="M16.416 19.6112L22.4648 13.5523" stroke="#0487FF" stroke-width="1.40625" stroke-miterlimit="10" stroke-linecap="round" stroke-linejoin="round"/>
<path d="M7.70312 24.7444L12.9361 22.1235" stroke="#0487FF" stroke-width="1.40625" stroke-miterlimit="10" stroke-linecap="round" stroke-linejoin="round"/>
<path d="M8.1103 33.7658H3.40734C3.08259 33.7658 2.81934 34.029 2.81934 34.3537V47.2969H8.69821V34.3537C8.69821 34.029 8.43505 33.7658 8.1103 33.7658Z" stroke="#0487FF" stroke-width="1.40625" stroke-miterlimit="10" stroke-linecap="round" stroke-linejoin="round"/>
<path d="M17.2314 29.1975H12.5285C12.2038 29.1975 11.9404 29.4609 11.9404 29.7855V47.2969H17.8194V29.7855C17.8194 29.4609 17.5561 29.1975 17.2314 29.1975Z" stroke="#0487FF" stroke-width="1.40625" stroke-miterlimit="10" stroke-linecap="round" stroke-linejoin="round"/>
<path d="M26.3515 20.0215H21.6486C21.3239 20.0215 21.0605 20.2847 21.0605 20.6094V47.2968H26.9395V20.6094C26.9395 20.2847 26.6763 20.0215 26.3515 20.0215Z" stroke="#0487FF" stroke-width="1.40625" stroke-miterlimit="10" stroke-linecap="round" stroke-linejoin="round"/>
<path d="M1.24609 47.2969H46.7548" stroke="#0487FF" stroke-width="1.40625" stroke-miterlimit="10" stroke-linecap="round" stroke-linejoin="round"/>
<path d="M31.4805 24.6294H30.7696C30.4449 24.6294 30.1816 24.8928 30.1816 25.2174V47.2968H36.0605V25.2174C36.0605 24.8928 35.7973 24.6294 35.4725 24.6294H34.7617" stroke="#0487FF" stroke-width="1.40625" stroke-miterlimit="10" stroke-linecap="round" stroke-linejoin="round"/>
<path d="M45.1816 27.8619V11.4489C45.1816 11.1241 44.9184 10.8608 44.5937 10.8608H39.8907C39.566 10.8608 39.3027 11.1241 39.3027 11.4489V47.2969H45.1816V31.1431" stroke="#0487FF" stroke-width="1.40625" stroke-miterlimit="10" stroke-linecap="round" stroke-linejoin="round"/>
</g>
</g>
<defs>
<clipPath id="clip0_464_774">
<rect width="48" height="48" fill="white"/>
</clipPath>
</defs>
</svg>
