<svg width="59" height="58" viewBox="0 0 59 58" fill="none" xmlns="http://www.w3.org/2000/svg">
<circle cx="34.667" cy="34" r="24" fill="#B4DBFF"/>
<path fill-rule="evenodd" clip-rule="evenodd" d="M17.6252 28.997H27.0992C27.489 28.997 27.8054 28.6806 27.8054 28.2908C27.8054 27.901 27.489 27.5846 27.0992 27.5846H17.6252C17.2353 27.5846 16.9189 27.901 16.9189 28.2908C16.9189 28.6806 17.2353 28.997 17.6252 28.997Z" fill="#0487FF"/>
<path fill-rule="evenodd" clip-rule="evenodd" d="M23.5869 28.2907V45.2938C23.5869 45.6836 23.9033 46 24.2931 46C24.6825 46 24.9993 45.6836 24.9993 45.2938V28.2907C24.9993 27.9008 24.6825 27.5845 24.2931 27.5845C23.9033 27.5845 23.5869 27.9009 23.5869 28.2907Z" fill="#0487FF"/>
<path fill-rule="evenodd" clip-rule="evenodd" d="M8.46235 2.00005C5.71366 2.00005 3.48145 4.23226 3.48145 6.98139C3.48145 9.73053 5.71366 11.9623 8.46235 11.9623C11.2116 11.9623 13.4438 9.7306 13.4438 6.98139C13.4438 4.23219 11.2116 2.00005 8.46235 2.00005ZM8.46235 3.41254C10.4323 3.41254 12.0313 5.01151 12.0313 6.98139C12.0313 8.9509 10.4323 10.5498 8.46235 10.5498C6.49284 10.5498 4.89394 8.9509 4.89394 6.98139C4.89394 5.01144 6.49291 3.41254 8.46235 3.41254Z" fill="#0487FF"/>
<path fill-rule="evenodd" clip-rule="evenodd" d="M40.872 2.00005C38.1228 2.00005 35.8906 4.23226 35.8906 6.98139C35.8906 9.73053 38.1228 11.9623 40.872 11.9623C43.6207 11.9623 45.853 9.7306 45.853 6.98139C45.853 4.23219 43.6207 2.00005 40.872 2.00005ZM40.872 3.41254C42.8416 3.41254 44.4405 5.01151 44.4405 6.98139C44.4405 8.9509 42.8416 10.5498 40.872 10.5498C38.9021 10.5498 37.3031 8.9509 37.3031 6.98139C37.3031 5.01144 38.9021 3.41254 40.872 3.41254Z" fill="#0487FF"/>
<path fill-rule="evenodd" clip-rule="evenodd" d="M12.3555 22.0965C12.4722 22.3319 12.7143 22.4887 12.9878 22.4887L13.2501 22.4378L19.7531 19.8383C20.7541 19.4386 21.8912 19.9259 22.2914 20.9269C22.6911 21.9274 22.2034 23.0645 21.2029 23.4647L12.6145 26.8975C11.7938 27.2256 10.8644 26.9601 10.3385 26.2708C10.1549 26.0302 9.83794 25.9332 9.55079 26.0302C9.26408 26.1272 9.07102 26.3965 9.07102 26.6992V30.246C9.07102 30.6048 9.33986 30.9061 9.69584 30.9476L15.4122 31.6077C16.763 31.7635 17.7828 32.9076 17.7828 34.2679V45.2938C17.7828 45.6837 18.0992 46 18.489 46C18.8789 46 19.1952 45.6836 19.1952 45.2938V34.2679C19.1952 32.1901 17.6378 30.4428 15.5741 30.2047L10.4834 29.6166V28.1419C11.298 28.5162 12.2547 28.5624 13.1385 28.2093L21.7274 24.7765C23.4515 24.0867 24.292 22.1271 23.6027 20.4025C22.9134 18.6778 20.9538 17.8374 19.2292 18.5267L13.2798 20.9048L9.86202 15.3109C9.37944 14.5209 8.59266 13.9648 7.68726 13.7732C7.65949 13.7675 7.63172 13.7614 7.60343 13.7557C6.65468 13.5551 5.66546 13.7736 4.88953 14.3551C4.1136 14.9371 3.6263 15.825 3.55282 16.7921C3.13753 22.2565 2.30465 33.2081 2.30465 33.2081C2.30318 33.226 2.30273 33.2438 2.30273 33.2618C2.30273 35.3372 3.85695 37.083 5.91775 37.3241L11.0145 37.9823V45.2938C11.0145 45.6836 11.3309 46 11.7207 46C12.1105 46 12.4269 45.6836 12.4269 45.2938V37.3613C12.4269 37.0058 12.1632 36.7063 11.811 36.6607L6.0857 35.922C4.74433 35.7671 3.72963 34.638 3.71508 33.2905C3.71508 33.2867 4.96088 16.899 4.96088 16.899C5.00371 16.3382 5.28621 15.8227 5.73636 15.4856C6.18696 15.148 6.76045 15.0213 7.31126 15.1376L7.39457 15.1551C7.92005 15.2662 8.37626 15.5892 8.6564 16.0473C9.72472 17.796 11.89 21.3404 12.3124 22.0321C12.3267 22.0546 12.3408 22.0762 12.3555 22.0965Z" fill="#0487FF"/>
<path fill-rule="evenodd" clip-rule="evenodd" d="M6.74812 23.1238L9.01756 26.8391C9.87303 28.2394 11.6142 28.8185 13.1383 28.2092C13.5003 28.0647 13.6769 27.6532 13.5319 27.2916C13.3874 26.9295 12.9759 26.7529 12.6143 26.8975C11.7301 27.2511 10.7196 26.9153 10.2229 26.1027L7.95352 22.3874C7.75012 22.055 7.31504 21.95 6.98269 22.1529C6.65019 22.3564 6.54472 22.7914 6.74812 23.1238Z" fill="#0487FF"/>
<path fill-rule="evenodd" clip-rule="evenodd" d="M35.4006 21.975L28.5622 22.9421C26.7231 23.202 25.4416 24.9063 25.7014 26.7454C25.9613 28.584 27.6657 29.866 29.5048 29.6061L37.9153 28.4163C38.2425 28.3702 38.557 28.277 38.8504 28.1418V29.6164L33.7597 30.2044C31.696 30.4427 30.1386 32.1899 30.1386 34.2677V45.2936C30.1386 45.6835 30.455 45.9998 30.8448 45.9998C31.2346 45.9998 31.551 45.6834 31.551 45.2936V34.2677C31.551 32.9075 32.5708 31.7633 33.9216 31.6075L39.636 30.9474H39.6346C39.9882 30.9087 40.2627 30.6093 40.2627 30.2458V26.6986C40.2627 26.3958 40.0696 26.127 39.7829 26.03C39.4962 25.9325 39.1793 26.0296 38.9953 26.2701C38.686 26.6751 38.2278 26.9458 37.7174 27.0179L29.3069 28.2072C28.2396 28.3583 27.2508 27.6144 27.1001 26.547C26.949 25.4801 27.6929 24.4914 28.7598 24.3402L35.9263 23.327L35.8294 23.3336L36.432 22.9955L40.2532 16.7405C40.7419 15.9411 41.637 15.482 42.5716 15.5526C42.5849 15.5536 42.5976 15.5545 42.6107 15.5555C43.8697 15.6506 44.8598 16.6704 44.9173 17.9312L45.6183 33.2765C45.6108 34.6297 44.5938 35.7659 43.2477 35.9217L37.6416 36.5691C37.2889 36.6096 37.0215 36.9057 37.0167 37.2608L36.9065 45.2837C36.9014 45.6736 37.2135 45.9942 37.6029 45.9998C37.9928 46.005 38.3134 45.6929 38.319 45.303L38.4203 37.9006L43.4097 37.3247C45.4734 37.0865 47.0308 35.3387 47.0308 33.2615C47.0308 33.2506 47.0304 33.2398 47.0299 33.229C47.0299 33.229 46.5619 22.9819 46.3283 17.8668C46.2379 15.8921 44.688 14.2955 42.7171 14.1472C42.7039 14.1462 42.6907 14.1448 42.678 14.1438C41.2147 14.0337 39.813 14.7521 39.0479 16.0041L35.4006 21.975Z" fill="#0487FF"/>
<path fill-rule="evenodd" clip-rule="evenodd" d="M31.3386 4.11875C31.3386 3.55707 31.1154 3.01793 30.7181 2.62058C30.3207 2.22316 29.7821 2.00005 29.2199 2.00005H19.3668C18.1964 2.00005 17.248 2.9488 17.248 4.11875V13.0947C17.248 13.556 17.5173 13.9751 17.9373 14.1662C18.3573 14.3574 18.8503 14.2854 19.1982 13.9821C19.8776 13.3903 20.8349 12.556 21.3682 12.0908C21.4973 11.9788 21.662 11.9171 21.8325 11.9171H29.2198C29.782 11.9171 30.3207 11.6939 30.718 11.2966C31.1153 10.8991 31.3385 10.3601 31.3385 9.7984V4.11875H31.3386ZM18.6605 12.5772V4.11875C18.6605 3.72893 18.9765 3.41254 19.3667 3.41254H29.2198C29.4072 3.41254 29.5871 3.48691 29.7194 3.6197C29.8517 3.75198 29.9261 3.93137 29.9261 4.11875V9.7984C29.9261 9.98577 29.8518 10.1652 29.7194 10.2974C29.5871 10.4302 29.4072 10.5046 29.2198 10.5046H21.8326C21.3207 10.5046 20.8264 10.6896 20.4403 11.0258L18.6605 12.5772Z" fill="#0487FF"/>
<path fill-rule="evenodd" clip-rule="evenodd" d="M21.1466 6.37496H27.5462C27.936 6.37496 28.2524 6.05857 28.2524 5.66876C28.2524 5.27895 27.936 4.96255 27.5462 4.96255H21.1466C20.7568 4.96255 20.4404 5.27895 20.4404 5.66876C20.4404 6.05857 20.7568 6.37496 21.1466 6.37496Z" fill="#0487FF"/>
<path fill-rule="evenodd" clip-rule="evenodd" d="M21.1466 8.95046H24.2932C24.6826 8.95046 24.9994 8.63406 24.9994 8.24425C24.9994 7.85436 24.6826 7.53804 24.2932 7.53804H21.1466C20.7568 7.53804 20.4404 7.85444 20.4404 8.24425C20.4404 8.63406 20.7568 8.95046 21.1466 8.95046Z" fill="#0487FF"/>
<path fill-rule="evenodd" clip-rule="evenodd" d="M35.7939 28.7168L37.9159 28.4165C38.9117 28.2757 39.7922 27.697 40.3167 26.8392L42.5861 23.1239C42.7895 22.7915 42.684 22.3565 42.3516 22.1531C42.0191 21.9501 41.5841 22.0551 41.3807 22.3875L39.1114 26.1029C38.8072 26.6005 38.2958 26.9362 37.7181 27.0182L35.5961 27.3181C35.21 27.3727 34.9407 27.7306 34.9953 28.1166C35.05 28.5021 35.4078 28.7714 35.7939 28.7168Z" fill="#0487FF"/>
</svg>
