<svg width="58" height="58" viewBox="0 0 58 58" fill="none" xmlns="http://www.w3.org/2000/svg">
<circle cx="34" cy="34" r="24" fill="#B4DBFF"/>
<path d="M33.7363 33.8752V31.443C33.7363 31.1327 33.5452 30.8545 33.2557 30.7431L32.1249 30.3078C31.9511 29.7061 31.7108 29.1266 31.4076 28.5775L31.8998 27.4694C32.0257 27.1859 31.9641 26.854 31.7447 26.6347L30.0248 24.9148C29.8054 24.6954 29.4736 24.6338 29.1901 24.7597L28.0815 25.2521C27.5324 24.9489 26.9532 24.7088 26.3519 24.535L25.9164 23.4038C25.805 23.1143 25.5268 22.9233 25.2165 22.9233H22.7843C22.474 22.9233 22.1958 23.1143 22.0844 23.4038L21.6489 24.535C21.0475 24.7088 20.4684 24.949 19.9193 25.2521L18.8107 24.7597C18.5272 24.6337 18.1953 24.6954 17.976 24.9148L16.2561 26.6347C16.0367 26.854 15.9751 27.1858 16.101 27.4694L16.5932 28.5778C16.2901 29.1268 16.0499 29.7061 15.8761 30.3076L14.7451 30.743C14.4555 30.8543 14.2645 31.1326 14.2645 31.4429V33.8751C14.2645 34.1854 14.4556 34.4635 14.7451 34.575L15.8759 35.0102C16.0498 35.6121 16.29 36.1914 16.5932 36.7404L16.101 37.8485C15.975 38.1321 16.0367 38.4638 16.256 38.6832L17.9759 40.4031C18.1952 40.6225 18.5269 40.6841 18.8106 40.5582L19.9192 40.0658C20.4682 40.369 21.0474 40.6091 21.6488 40.7829L22.0843 41.9141C22.1957 42.2037 22.4739 42.3947 22.7842 42.3947H25.2164C25.5267 42.3947 25.8048 42.2036 25.9163 41.9141L26.3516 40.7833C26.9534 40.6095 27.5327 40.3692 28.0818 40.066L29.1899 40.5582C29.4734 40.6842 29.8052 40.6225 30.0246 40.4032L31.7444 38.6833C31.9637 38.4639 32.0254 38.1322 31.8994 37.8486L31.4071 36.74C31.7102 36.1909 31.9504 35.6118 32.1242 35.0104L33.2553 34.575C33.5451 34.4637 33.7363 34.1855 33.7363 33.8752ZM32.2363 33.3602L31.2278 33.7483C30.997 33.8372 30.8249 34.0341 30.7676 34.2747C30.5973 34.9904 30.3147 35.6721 29.9277 36.3007C29.798 36.5113 29.7805 36.7723 29.8809 36.9983L30.3199 37.9869L29.3284 38.9784L28.3403 38.5396C28.1141 38.4391 27.8532 38.4566 27.6425 38.5865C27.0141 38.9735 26.3324 39.2561 25.616 39.4266C25.3755 39.4838 25.1785 39.656 25.0897 39.8868L24.7017 40.8949H23.2994L22.9112 39.8864C22.8224 39.6556 22.6254 39.4835 22.3848 39.4262C21.6691 39.2558 20.9874 38.9733 20.3589 38.5863C20.1482 38.4565 19.8872 38.4391 19.6613 38.5394L18.6727 38.9785L17.6811 37.9869L18.12 36.9989C18.2204 36.7728 18.2028 36.5118 18.0731 36.3011C17.6862 35.6729 17.4035 34.9911 17.233 34.2745C17.1757 34.034 17.0036 33.8371 16.7728 33.7482L15.7647 33.3602V31.9579L16.7731 31.5697C17.0039 31.481 17.176 31.2841 17.2333 31.0434C17.4036 30.3274 17.6863 29.6457 18.0733 29.0173C18.2029 28.8067 18.2205 28.5457 18.1202 28.3196L17.6811 27.3312L18.6727 26.3396L19.6613 26.7787C19.8872 26.8791 20.1483 26.8615 20.3589 26.7319C20.9875 26.3449 21.6692 26.0622 22.3849 25.8919C22.6255 25.8346 22.8224 25.6625 22.9112 25.4317L23.2994 24.4231H24.7017L25.0899 25.4316C25.1787 25.6624 25.3756 25.8345 25.6161 25.8918C26.3318 26.0621 27.0135 26.3448 27.6422 26.7318C27.8527 26.8614 28.1137 26.8789 28.3397 26.7786L29.3283 26.3395L30.3199 27.3311L29.8811 28.3192C29.7807 28.5453 29.7982 28.8064 29.928 29.0169C30.315 29.6453 30.5976 30.3272 30.7681 31.0434C30.8253 31.284 30.9975 31.481 31.2283 31.5697L32.2364 31.9578V33.3602H32.2363ZM24.0004 27.6675C21.248 27.6675 19.0088 29.9067 19.0088 32.6592C19.0088 35.4115 21.248 37.6508 24.0004 37.6508C26.7528 37.6508 28.9922 35.4116 28.9922 32.6592C28.9922 29.9067 26.7528 27.6675 24.0004 27.6675ZM24.0004 36.1507C22.0751 36.1507 20.5088 34.5844 20.5088 32.6591C20.5088 30.7338 22.0752 29.1674 24.0004 29.1674C25.9257 29.1674 27.4922 30.7338 27.4922 32.6591C27.4922 34.5844 25.9257 36.1507 24.0004 36.1507ZM31.6014 44.2479C31.8098 44.6059 31.6886 45.0651 31.3307 45.2735C29.0906 46.5777 26.5922 47.2504 24.0269 47.2504C23.5111 47.2504 22.9928 47.2232 22.4731 47.1684C18.5974 46.7604 15.1127 44.8676 12.6607 41.8387C10.2088 38.8099 9.08303 35.0074 9.49103 31.1317C9.73384 28.8251 10.5132 26.6334 11.7633 24.7121L11.4948 24.7887C11.0965 24.9024 10.6815 24.6715 10.5678 24.2733C10.4542 23.8749 10.685 23.4599 11.0833 23.3463L13.5385 22.6458C13.7601 22.5825 13.9987 22.6247 14.1852 22.7603C14.3717 22.8959 14.4855 23.1097 14.4937 23.3401L14.5854 25.8916C14.6003 26.3056 14.2768 26.6532 13.8628 26.668C13.8536 26.6684 13.8445 26.6685 13.8354 26.6685C13.4336 26.6685 13.101 26.3502 13.0864 25.9454L13.0689 25.4583C11.9201 27.1987 11.2037 29.1903 10.9828 31.2887C10.6168 34.7659 11.6267 38.1773 13.8266 40.8949C16.0264 43.6124 19.1529 45.3106 22.6301 45.6766C25.4152 45.9698 28.1627 45.3821 30.5759 43.9771C30.9338 43.7688 31.393 43.8898 31.6014 44.2479ZM40.6085 10.6881L35.9657 5.21981C35.7587 4.97606 35.4566 4.83628 35.1369 4.83628C34.8171 4.83628 34.5152 4.97616 34.3083 5.21981L29.6653 10.6882C29.3878 11.0152 29.3272 11.4599 29.5072 11.8488C29.6871 12.2375 30.0653 12.4791 30.4941 12.4791H31.9066V20.3892C30.4836 19.4703 28.9059 18.8074 27.2309 18.4305V8.3924H28.6432C29.0721 8.3924 29.4503 8.15072 29.6303 7.76175C29.8102 7.37287 29.7496 6.92822 29.4721 6.6015L24.8292 1.13325C24.6222 0.889499 24.3202 0.749718 24.0004 0.749718C23.6807 0.749718 23.3787 0.889499 23.1717 1.13325L18.5288 6.6015C18.2512 6.92841 18.1906 7.37306 18.3706 7.76194C18.5505 8.15081 18.9287 8.3925 19.3576 8.3925H20.77V18.4298C19.4854 18.7214 18.2394 19.187 17.0623 19.8247C16.6981 20.0219 16.5628 20.4772 16.76 20.8414C16.9574 21.2056 17.4125 21.3409 17.7767 21.1436C20.1038 19.8831 22.73 19.3636 25.3707 19.6417C28.8478 20.0077 31.9742 21.7058 34.1742 24.4233C36.3741 27.1407 37.384 30.5524 37.0179 34.0295C36.7966 36.1323 36.0811 38.1205 34.9318 39.8604L34.9142 39.3727C34.8994 38.9587 34.5499 38.6338 34.1378 38.6501C33.7238 38.665 33.4004 39.0127 33.4152 39.4266L33.5069 41.9782C33.5151 42.2086 33.6289 42.4223 33.8155 42.5579C33.9451 42.6521 34.0997 42.7012 34.2565 42.7012C34.3253 42.7012 34.3946 42.6918 34.4622 42.6725L36.9174 41.972C37.3157 41.8583 37.5465 41.4433 37.4328 41.045C37.3192 40.6465 36.904 40.4156 36.5058 40.5295L36.2351 40.6068C37.486 38.6859 38.2662 36.4984 38.5096 34.1865C38.7272 32.1182 38.5079 30.0708 37.8836 28.1506C38.1794 27.8894 38.3672 27.5086 38.3672 27.0839V12.479H39.7796C40.2085 12.479 40.5867 12.2374 40.7667 11.8485C40.9468 11.4596 40.8861 11.015 40.6085 10.6881ZM22.27 18.17V7.6424C22.27 7.22822 21.9342 6.8924 21.52 6.8924H20.2495L24.0004 2.47472L27.7514 6.8924H26.4809C26.0667 6.8924 25.7309 7.22822 25.7309 7.6424V18.1736C25.6632 18.1656 25.5957 18.1568 25.5277 18.1497C24.4342 18.0348 23.343 18.0429 22.27 18.17ZM37.6173 10.979C37.2032 10.979 36.8673 11.3148 36.8673 11.729V25.7751C36.4356 24.9721 35.9262 24.2034 35.34 23.4794C34.7521 22.7532 34.1042 22.093 33.4065 21.5023V11.729C33.4065 11.3148 33.0707 10.979 32.6565 10.979H31.3861L35.1369 6.56119L38.8877 10.979H37.6173ZM9.63353 16.5655H8.22109C7.79228 16.5655 7.41409 16.3239 7.23409 15.9352C7.05409 15.5464 7.11475 15.1016 7.39225 14.7747L12.0352 9.30637C12.2421 9.06272 12.5441 8.92294 12.8638 8.92284C13.1835 8.92284 13.4856 9.06253 13.6926 9.30619L18.3356 14.7746C18.6131 15.1014 18.6737 15.5461 18.4938 15.935C18.3139 16.3238 17.9357 16.5655 17.5068 16.5655H16.0944V21.5043C16.0944 21.9185 15.7586 22.2543 15.3444 22.2543C14.9302 22.2543 14.5944 21.9185 14.5944 21.5043V15.8155C14.5944 15.4013 14.9302 15.0655 15.3444 15.0655H16.6149L12.8641 10.6477L9.11312 15.0655H10.3836C10.7978 15.0655 11.1336 15.4013 11.1336 15.8155V21.5043C11.1336 21.9185 10.7978 22.2543 10.3836 22.2543C9.96943 22.2543 9.63362 21.9185 9.63362 21.5043L9.63353 16.5655Z" fill="#0487FF"/>
</svg>
