<svg width="59" height="58" viewBox="0 0 59 58" fill="none" xmlns="http://www.w3.org/2000/svg">
<circle cx="34.333" cy="34" r="24" fill="#B4DBFF"/>
<g clip-path="url(#clip0_464_719)">
<path d="M35.6003 15.5932L36.7958 14.3977C37.089 14.1052 37.089 13.6305 36.7958 13.3372L30.5258 7.05973C30.2333 6.76648 29.7585 6.76573 29.4653 7.05898L26.7308 9.78748C26.1885 9.52348 25.6245 9.28798 25.0455 9.08323V5.22748C25.0455 4.81348 24.7095 4.47748 24.2955 4.47748H15.4155C15.0015 4.47748 14.6655 4.81348 14.6655 5.22748V9.08323C14.094 9.28648 13.5308 9.52198 12.9818 9.78823L10.2533 7.05973C9.96001 6.76648 9.48601 6.76648 9.19276 7.05973L2.91526 13.3372C2.77426 13.4782 2.69551 13.6687 2.69551 13.8675C2.69551 14.0662 2.77426 14.2575 2.91526 14.3977L5.64826 17.1307C5.38651 17.6632 5.15401 18.222 4.94476 18.8175H1.08301C0.884258 18.8175 0.693008 18.8962 0.552008 19.0372C0.411758 19.1782 0.333008 19.3687 0.333008 19.5682L0.340508 28.4407C0.340508 28.8547 0.676508 29.19 1.09051 29.19H4.94551C5.15026 29.7697 5.38576 30.3315 5.64901 30.8685L2.91526 33.6022C2.77426 33.7425 2.69551 33.9337 2.69551 34.1325C2.69551 34.3312 2.77426 34.5225 2.91526 34.6627L9.19276 40.9402C9.33301 41.0805 9.52426 41.16 9.72301 41.16C9.92251 41.16 10.113 41.0805 10.254 40.9395L12.9863 38.2005C13.5308 38.4585 14.115 38.7037 14.6655 38.904V42.7717C14.6655 43.1857 15.0015 43.5217 15.4155 43.5217H24.2955C24.7095 43.5217 25.0455 43.1857 25.0455 42.7717V39.96C27.5198 42.1657 30.7703 43.5195 34.338 43.5195C42.0548 43.5195 48.333 37.2412 48.333 29.5245C48.333 22.2337 42.7268 16.2345 35.6003 15.5932ZM16.1655 42.0225V38.37C16.1655 38.0452 15.9563 37.7572 15.6473 37.6567C14.8703 37.4047 13.9478 37.0177 13.1783 36.6232C12.8873 36.474 12.5348 36.5295 12.3045 36.7612L9.72226 39.3495L4.50601 34.1325L7.09576 31.5427C7.32976 31.3087 7.38301 30.9487 7.22626 30.6577C6.81901 29.8995 6.47401 29.0775 6.20101 28.2135C6.10201 27.9022 5.81251 27.69 5.48551 27.69H1.83976L1.83376 20.3175H5.48551C5.81251 20.3175 6.10201 20.1052 6.20026 19.794C6.48601 18.8925 6.82126 18.0915 7.22476 17.3445C7.38226 17.0527 7.33051 16.692 7.09576 16.4572L4.50601 13.8675L9.72301 8.65048L12.3053 11.2327C12.5385 11.4652 12.8955 11.5192 13.185 11.3662C13.9853 10.944 14.7893 10.608 15.6413 10.3372C15.9533 10.239 16.1648 9.94948 16.1648 9.62248V5.97748H23.5448V9.62248C23.5448 9.94948 23.757 10.239 24.0683 10.3372C24.9263 10.6095 25.752 10.9545 26.5223 11.3647C26.814 11.52 27.171 11.466 27.4043 11.2335L29.9933 8.65048L35.2043 13.8675L33.4995 15.5722C31.3275 15.702 29.2868 16.3185 27.4913 17.331C25.5578 15.111 22.8165 13.8382 19.854 13.8382C14.2508 13.8382 9.69151 18.3975 9.69151 24.0007C9.69151 29.604 14.2508 34.1632 19.854 34.1632C20.2793 34.1632 20.6963 34.1265 21.1148 34.0725C21.6668 35.6715 22.488 37.1467 23.544 38.4255V42.0225H16.1655ZM20.343 29.5245C20.343 30.5887 20.4728 31.6215 20.6993 32.6182C20.4195 32.6467 20.1398 32.6617 19.8555 32.6617C15.0788 32.6617 11.193 28.776 11.193 23.9992C11.193 19.2225 15.0788 15.3367 19.8555 15.3367C22.3058 15.3367 24.5805 16.356 26.2193 18.1462C22.6688 20.688 20.343 24.8355 20.343 29.5245ZM34.338 42.0195C27.4478 42.0195 21.843 36.414 21.843 29.5245C21.843 22.635 27.4485 17.0295 34.338 17.0295C41.2275 17.0295 46.833 22.635 46.833 29.5245C46.833 36.414 41.2275 42.0195 34.338 42.0195Z" fill="#0487FF"/>
<path d="M34.3375 25.5337C35.2308 25.5337 35.9583 26.2605 35.9583 27.1545C35.9583 27.5685 36.2943 27.9045 36.7083 27.9045C37.1223 27.9045 37.4583 27.5685 37.4583 27.1545C37.4583 25.6935 36.4458 24.4732 35.0875 24.1357V22.2405C35.0875 21.8265 34.7515 21.4905 34.3375 21.4905C33.9235 21.4905 33.5875 21.8265 33.5875 22.2405V24.1357C32.23 24.474 31.2168 25.6942 31.2168 27.1545C31.2168 28.875 32.6163 30.2752 34.3375 30.2752C35.2308 30.2752 35.9583 31.002 35.9583 31.896C35.9583 32.79 35.2315 33.5167 34.3375 33.5167C33.4435 33.5167 32.7168 32.79 32.7168 31.896C32.7168 31.482 32.3808 31.146 31.9668 31.146C31.5528 31.146 31.2168 31.482 31.2168 31.896C31.2168 33.357 32.2293 34.5772 33.5875 34.9147V36.81C33.5875 37.224 33.9235 37.56 34.3375 37.56C34.7515 37.56 35.0875 37.224 35.0875 36.81V34.9147C36.445 34.5765 37.4583 33.3562 37.4583 31.896C37.4583 30.1755 36.0588 28.7752 34.3375 28.7752C33.4443 28.7752 32.7168 28.0485 32.7168 27.1545C32.7168 26.2605 33.4435 25.5337 34.3375 25.5337Z" fill="#0487FF"/>
</g>
<defs>
<clipPath id="clip0_464_719">
<rect width="48" height="48" fill="white" transform="translate(0.333008)"/>
</clipPath>
</defs>
</svg>
