<svg width="59" height="58" viewBox="0 0 59 58" fill="none" xmlns="http://www.w3.org/2000/svg">
<circle cx="34.667" cy="34" r="24" fill="#B4DBFF"/>
<path d="M24.6842 0C4.97406 0.185062 -2.82594 25.2756 13.2504 36.6265C13.021 36.7974 12.8717 37.07 12.8717 37.378V47.0625C12.8717 47.5802 13.2915 48 13.8092 48H18.5521C19.0698 48 19.4896 47.5802 19.4896 47.0625V46.5222H20.75C21.0425 46.5222 21.3238 46.6171 21.538 46.7863C22.1904 47.3071 23.289 47.9279 24.8173 47.9279H29.0212C30.9107 47.9279 32.4607 46.5147 32.6365 44.6365L33.3048 39.7099C33.3068 39.6949 33.3086 39.6798 33.3099 39.6648C33.3498 39.2033 33.3036 38.7501 33.1758 38.3194C52.4945 28.9703 46.172 0.335156 24.6842 0ZM14.7467 46.125V38.3154H17.6144L17.6146 46.125H14.7467ZM31.4435 39.4825L30.7757 44.405C30.7738 44.4198 30.7721 44.4347 30.7708 44.4497C30.691 45.3637 29.9389 46.053 29.0212 46.053H24.8173C23.8316 46.053 23.126 45.6549 22.704 45.3181C21.7162 44.521 20.6703 44.6498 19.4895 44.6473V38.1982C20.1986 38.0002 20.7214 37.4734 21.1026 36.8651C21.3169 36.5268 24.6122 31.3027 24.6122 31.3027L25.2693 31.6411C26.0411 32.0498 26.3212 32.9676 25.9267 33.7406L25.0123 35.3734C24.476 36.3436 25.1957 37.5931 26.3205 37.5931H29.6927C30.7006 37.5931 31.5194 38.4776 31.4435 39.4825ZM39.7336 30.3773C37.8324 33.1553 35.2329 35.3342 32.187 36.711C31.5182 36.0776 30.6136 35.718 29.6925 35.718H26.9688L27.0879 35.5051C38.562 33.9122 44.2893 19.7551 37.0799 10.6396C35.0563 7.99191 32.1872 6.02916 29.0009 5.11303C28.5029 4.96988 27.9839 5.25722 27.8408 5.75494C27.6978 6.25256 27.9851 6.77194 28.4827 6.915C31.2851 7.72088 33.8091 9.44794 35.5902 11.7782C41.6358 19.3984 37.3475 31.2957 27.9699 33.4199C28.1398 32.0337 27.4013 30.6457 26.1647 29.9933L24.7086 29.241C24.2573 29.0077 23.7079 29.1893 23.4555 29.6214L21.1066 33.3438C7.77569 29.5428 7.58903 10.9876 20.845 6.927C21.3421 6.78234 21.6278 6.26213 21.4832 5.76487C21.3385 5.26772 20.8182 4.98178 20.321 5.12663C5.52522 9.63956 5.3695 30.2354 20.0656 34.9934L19.4128 36.0278C19.1651 36.3505 18.9715 36.4346 18.5444 36.4404H16.6118C-0.513127 27.6832 5.42387 2.15963 24.6843 1.875C39.1114 1.68656 48.0306 18.5939 39.7336 30.3773Z" fill="#0487FF"/>
<path d="M24.6844 9.99329C24.3704 9.99329 24.0773 10.1504 23.9036 10.4119L21.0111 14.7639L15.9781 16.1701C15.3447 16.3469 15.086 17.1384 15.4956 17.6552L18.7407 21.751L18.5228 26.9721C18.4955 27.629 19.1678 28.1201 19.7861 27.8899L24.6844 26.0693L29.5825 27.8899C30.2003 28.1199 30.8733 27.6293 30.8459 26.9721L30.628 21.751L33.8732 17.6552C34.2827 17.1383 34.0239 16.3469 33.3906 16.1701L28.3578 14.7639L25.4652 10.4119C25.2913 10.1504 24.9983 9.99329 24.6844 9.99329ZM27.5177 16.4759L31.5276 17.5963L28.9419 20.8598C28.8023 21.0359 28.7307 21.2564 28.7401 21.481L28.9137 25.641L25.0111 24.1904C24.8002 24.112 24.5684 24.112 24.3578 24.1904L20.4551 25.641L20.6287 21.481C20.6381 21.2564 20.5665 21.0359 20.4269 20.8598L17.8413 17.5963L21.8512 16.4759C22.0678 16.4154 22.2553 16.2791 22.3797 16.0919L24.6845 12.6244L26.9892 16.0919C27.1135 16.2792 27.3011 16.4155 27.5177 16.4759Z" fill="#0487FF"/>
<path d="M23.8191 5.80305C24.1368 6.56617 25.257 6.55511 25.5574 5.78364C25.8698 4.98095 24.9725 4.2047 24.2226 4.6293C23.8168 4.85908 23.6392 5.3717 23.8191 5.80305Z" fill="#0487FF"/>
</svg>
