<svg width="58" height="58" viewBox="0 0 58 58" fill="none" xmlns="http://www.w3.org/2000/svg">
<circle cx="34" cy="34" r="24" fill="#B4DBFF"/>
<path d="M37.6526 17.6894C37.5644 17.5135 37.4108 17.3793 37.2247 17.3155C37.0386 17.2518 36.8349 17.2637 36.6575 17.3485C36.48 17.4334 36.343 17.5846 36.2759 17.7695C36.2087 17.9544 36.2169 18.1582 36.2985 18.3372C43.5046 33.3043 25.6325 48.2413 12.1705 38.4569C-3.34095 26.9197 10.5678 2.86541 28.2647 10.5085C28.4459 10.5863 28.6503 10.5896 28.8339 10.5178C29.0175 10.446 29.1655 10.3049 29.246 10.1249C29.3264 9.94492 29.3328 9.74052 29.2637 9.55587C29.1947 9.37121 29.0558 9.22113 28.877 9.13803C12.28 1.67572 -3.52868 21.7811 7.68121 36.1567L5.07988 41.2924C4.92562 41.6015 4.83831 41.9398 4.82366 42.285C4.80901 42.6302 4.86736 42.9746 4.99488 43.2957C5.79505 45.4568 9.17064 45.5824 10.1777 43.5594L12.0033 40.1498C14.8791 42.024 18.2377 43.0218 21.6703 43.0216C25.103 43.0215 28.4615 42.0235 31.3372 40.149L33.1637 43.5588C34.7104 46.4755 39.7644 44.579 38.2592 41.2871L35.678 36.1336C37.68 33.5423 38.9244 30.4467 39.273 27.1907C39.6215 23.9347 39.0606 20.6458 37.6526 17.6894ZM8.85067 42.859C8.23703 44.0713 5.81894 43.4777 6.42301 41.9628L8.72899 37.4099C9.35992 38.083 10.0428 38.7053 10.7712 39.2714L8.85067 42.859ZM36.9169 41.9592C37.5391 43.4915 35.1087 44.0473 34.4871 42.8516L32.5694 39.2711C33.3048 38.7007 33.9938 38.0729 34.6299 37.3936L36.9169 41.9592Z" fill="#0487FF"/>
<path d="M27.8481 16.0113C27.947 15.8386 27.9733 15.6336 27.921 15.4415C27.8688 15.2493 27.7424 15.0859 27.5697 14.9869C25.7719 13.9607 23.7374 13.4212 21.6673 13.4218C5.88941 14.0742 5.88965 36.574 21.6674 37.2262C24.8229 37.2225 27.8482 35.9674 30.0794 33.7361C32.3107 31.5047 33.5659 28.4795 33.5695 25.324C33.5744 23.0942 32.9465 20.9087 31.7589 19.0215C31.7064 18.938 31.6379 18.8656 31.5573 18.8085C31.4768 18.7514 31.3858 18.7108 31.2895 18.6889C31.1933 18.6671 31.0936 18.6645 30.9963 18.6812C30.8991 18.6979 30.806 18.7336 30.7226 18.7863C30.6391 18.839 30.5669 18.9077 30.51 18.9884C30.4531 19.069 30.4127 19.1601 30.3911 19.2564C30.3694 19.3528 30.367 19.4524 30.384 19.5496C30.4009 19.6469 30.4368 19.7398 30.4897 19.8232C34.8479 26.5634 29.7055 35.8355 21.6672 35.7254C18.9104 35.7214 16.2679 34.624 14.3193 32.674C12.3707 30.724 11.2752 28.0807 11.273 25.324C11.1357 17.4882 20.1033 12.2908 26.8239 16.29C26.9967 16.3885 27.2016 16.4146 27.3936 16.3623C27.5856 16.3101 27.749 16.1839 27.8481 16.0113Z" fill="#0487FF"/>
<path d="M21.6675 20.2592C22.0951 20.257 22.5211 20.3127 22.9337 20.4248C23.126 20.4748 23.3302 20.4464 23.5016 20.346C23.673 20.2457 23.7976 20.0814 23.8481 19.8893C23.8987 19.6972 23.871 19.4929 23.7711 19.3212C23.6713 19.1495 23.5074 19.0243 23.3154 18.9732C22.3461 18.7265 21.3332 18.704 20.3538 18.9074C19.3744 19.1107 18.4542 19.5346 17.6632 20.1468C16.8721 20.759 16.231 21.5435 15.7885 22.4406C15.346 23.3377 15.1137 24.3238 15.1094 25.3241C15.4697 34.0387 27.8741 34.0289 28.2338 25.324C28.1617 24.4771 28.1915 22.3663 26.9017 22.6934C26.8089 22.7265 26.7235 22.7776 26.6505 22.8438C26.5775 22.91 26.5182 22.9899 26.4761 23.079C26.4339 23.1681 26.4098 23.2646 26.405 23.363C26.4002 23.4614 26.4148 23.5598 26.448 23.6526C26.6384 24.1892 26.7348 24.7547 26.7331 25.324C26.7316 26.6671 26.1975 27.9547 25.2478 28.9043C24.2981 29.854 23.0105 30.3881 21.6675 30.3896C14.9681 30.1353 14.9683 20.513 21.6675 20.2592Z" fill="#0487FF"/>
<path d="M44.0531 10.1244C44.0127 9.99409 43.9377 9.87724 43.8359 9.78635C43.7342 9.69547 43.6097 9.63398 43.4757 9.60849L39.2467 8.80709L40.5292 7.52452C40.6653 7.38287 40.7403 7.19354 40.7384 6.99716C40.7364 6.80078 40.6575 6.61301 40.5186 6.47414C40.3797 6.33527 40.192 6.25638 39.9956 6.2544C39.7992 6.25241 39.6099 6.3275 39.4682 6.46353L38.2506 7.68109L37.4846 3.6116C37.4594 3.4775 37.3982 3.35279 37.3074 3.25092C37.2167 3.14904 37.0998 3.07386 36.9695 3.03345C36.8392 2.99305 36.7003 2.98896 36.5678 3.02163C36.4353 3.0543 36.3143 3.12248 36.2177 3.21884L31.2276 8.20087C31.1558 8.2728 31.0996 8.35866 31.0623 8.45316C31.025 8.54765 31.0074 8.64878 31.0107 8.75032V14.921L21.1404 24.7913C21.0045 24.933 20.9296 25.1223 20.9317 25.3186C20.9338 25.5149 21.0127 25.7025 21.1515 25.8413C21.2903 25.9801 21.4779 26.059 21.6742 26.0611C21.8705 26.0631 22.0598 25.9882 22.2015 25.8523L32.0512 16.0026H38.4247C38.6239 15.9992 38.8146 15.921 38.9589 15.7835L40.3321 14.4103C40.4683 14.2687 40.5435 14.0793 40.5415 13.8828C40.5396 13.6864 40.4607 13.4985 40.3218 13.3596C40.1829 13.2207 39.995 13.1418 39.7985 13.1399C39.6021 13.1379 39.4127 13.2131 39.2711 13.3493L38.1185 14.5019H33.5519L37.9625 10.0913L41.8013 10.8191L41.402 11.2184C41.2657 11.36 41.1904 11.5495 41.1923 11.746C41.1942 11.9425 41.2731 12.1305 41.4121 12.2694C41.551 12.4084 41.739 12.4873 41.9355 12.4891C42.132 12.491 42.3215 12.4157 42.4631 12.2794L43.8662 10.8762C43.9626 10.7796 44.031 10.6586 44.0639 10.5262C44.0968 10.3938 44.0931 10.2549 44.0531 10.1244ZM32.5113 13.4203V9.03954L36.2726 5.28453L36.9654 8.96628L32.5113 13.4203Z" fill="#0487FF"/>
</svg>
