<svg width="483" height="473" viewBox="0 0 483 473" fill="none" xmlns="http://www.w3.org/2000/svg">
<path fill-rule="evenodd" clip-rule="evenodd" d="M46.7562 290.639C21.4487 206.223 89.9381 131.531 162.341 81.2072C227.111 36.1887 309.673 18.7552 375.531 62.1241C449.708 110.972 495.925 198.856 469.981 283.797C443.272 371.245 356.509 422.344 265.055 423.823C170.802 425.347 73.8121 380.888 46.7562 290.639Z" fill="#EAEAFF"/>
<path d="M346.751 386.245L332.311 394.637C336.192 392.381 338.599 387.583 338.619 380.763L353.058 372.372C353.039 379.192 350.632 383.989 346.751 386.245Z" fill="#888ABF"/>
<path d="M221.924 50.8554L236.363 42.4642C240.307 40.1715 245.773 40.4958 251.796 43.9732L237.356 52.3644C231.334 48.887 225.868 48.5627 221.924 50.8554Z" fill="#D7DAFF"/>
<path d="M339.312 136.119L353.752 127.728L353.058 372.372L338.619 380.763L339.312 136.119Z" fill="#888ABF"/>
<path d="M237.356 52.3635L251.796 43.9731L332.196 90.3922L317.757 98.7835L237.356 52.3635Z" fill="#D7DAFF"/>
<path d="M317.757 98.7835C329.703 105.681 339.352 122.392 339.313 136.119L338.62 380.763C338.58 394.491 328.87 400.025 316.924 393.128L236.523 346.709C224.576 339.811 214.885 323.075 214.924 309.346L215.617 64.7025C215.656 50.9761 225.41 45.4669 237.357 52.3635L317.757 98.7835Z" fill="#AEB2F4"/>
<path d="M317.757 98.7835L332.196 90.3922C344.142 97.2896 353.791 114.001 353.752 127.728L339.313 136.119C339.352 122.392 329.703 105.681 317.757 98.7835Z" fill="#D7DAFF"/>
<path d="M313.078 384.811L241.157 343.287C228.98 336.257 219.108 317.397 219.108 301.16V77.344C219.108 61.1078 228.98 53.6455 241.157 60.6755L313.078 102.199C325.255 109.229 335.127 128.09 335.127 144.326V368.143C335.126 384.379 325.255 391.842 313.078 384.811Z" fill="#888ABF"/>
<path d="M332.14 143.727V365.294C332.14 366.434 332.091 367.545 331.944 368.542C330.511 380.2 321.28 384.503 310.073 378.033L244.17 339.983C232.963 333.513 223.731 318.55 222.3 305.239C222.152 304.071 222.103 302.903 222.103 301.763V80.1964C222.103 76.7199 222.694 73.755 223.78 71.4176C227.088 64.0921 234.987 62.1549 244.17 67.4563L310.073 105.506C319.256 110.808 327.155 121.866 330.462 133.011C331.548 136.602 332.14 140.251 332.14 143.727Z" fill="white"/>
<path d="M330.462 133.011L223.78 71.4185C227.088 64.0929 234.987 62.1558 244.169 67.4572L310.073 105.507C319.256 110.808 327.155 121.866 330.462 133.011Z" fill="#DE3078"/>
<path d="M331.943 368.542C330.511 380.2 321.28 384.503 310.073 378.033L244.169 339.983C232.963 333.513 223.73 318.55 222.3 305.239L331.943 368.542Z" fill="#D7DAFF"/>
<path d="M246.635 330.348C246.635 332.058 245.435 332.751 243.953 331.896C242.472 331.04 241.271 328.961 241.271 327.251C241.271 325.541 242.472 324.848 243.953 325.703C245.435 326.559 246.635 328.638 246.635 330.348Z" fill="#AEB2F4"/>
<path d="M268.748 343.115C268.748 344.825 267.548 345.518 266.067 344.663C264.586 343.807 263.385 341.728 263.385 340.018C263.385 338.308 264.586 337.615 266.067 338.471C267.547 339.325 268.748 341.404 268.748 343.115Z" fill="#AEB2F4"/>
<path d="M292.819 357.012C292.819 359.971 290.741 361.17 288.178 359.691C285.616 358.211 283.538 354.613 283.538 351.654C283.538 348.696 285.615 347.496 288.178 348.975C290.741 350.455 292.819 354.053 292.819 357.012Z" fill="#5D7280"/>
<path d="M312.971 368.648C312.971 370.358 311.772 371.051 310.29 370.195C308.809 369.34 307.608 367.261 307.608 365.551C307.608 363.841 308.809 363.148 310.29 364.003C311.772 364.859 312.971 366.938 312.971 368.648Z" fill="#AEB2F4"/>
<path d="M243.552 96.6682L248.365 93.8714C249.645 93.1275 251.419 93.2296 253.389 94.3663L248.576 97.1631C246.606 96.0264 244.832 95.9243 243.552 96.6682Z" fill="#D7DAFF"/>
<path d="M301.057 149.291L296.243 152.088C297.515 151.349 298.299 149.777 298.306 147.555L303.119 144.758C303.113 146.98 302.328 148.553 301.057 149.291Z" fill="#D7DAFF"/>
<path d="M298.346 134.027L303.159 131.23L303.12 144.758L298.307 147.555L298.346 134.027Z" fill="#D7DAFF"/>
<path d="M248.575 97.163L253.388 94.3662L296.117 119.036L291.304 121.833L248.575 97.163Z" fill="#D7DAFF"/>
<path d="M291.305 121.833C295.229 124.098 298.358 129.568 298.345 134.027L298.307 147.555C298.294 152.015 295.145 153.86 291.22 151.593L248.49 126.924C244.566 124.658 241.438 119.188 241.45 114.729L241.489 101.2C241.502 96.7409 244.651 94.8966 248.576 97.1614L291.305 121.833Z" fill="#AEB2F4"/>
<path d="M291.305 121.833L296.118 119.036C300.042 121.302 303.171 126.771 303.158 131.231L298.345 134.027C298.358 129.569 295.23 124.098 291.305 121.833Z" fill="#D7DAFF"/>
<path d="M132.252 197.67L137.065 194.874C138.345 194.129 140.12 194.231 142.089 195.368L137.276 198.164C135.306 197.028 133.532 196.926 132.252 197.67Z" fill="#D7DAFF"/>
<path d="M262.706 304.742L257.893 307.539C259.163 306.801 259.954 305.236 259.961 303.021L264.774 300.224C264.767 302.439 263.976 304.003 262.706 304.742Z" fill="#D7DAFF"/>
<path d="M260.033 277.169L264.847 274.372L264.773 300.224L259.96 303.021L260.033 277.169Z" fill="#D7DAFF"/>
<path d="M137.275 198.164L142.089 195.367L257.806 262.177L252.993 264.974L137.275 198.164Z" fill="#D7DAFF"/>
<path d="M252.993 264.974C256.873 267.215 260.046 272.709 260.033 277.169L259.96 303.021C259.947 307.48 256.754 309.3 252.873 307.06L137.155 240.25C133.231 237.984 130.102 232.515 130.115 228.055L130.188 202.203C130.201 197.743 133.351 195.899 137.274 198.164L252.993 264.974Z" fill="#AEB2F4"/>
<path d="M252.993 264.974L257.806 262.177C261.687 264.417 264.859 269.913 264.847 274.371L260.033 277.168C260.047 272.71 256.874 267.215 252.993 264.974Z" fill="#D7DAFF"/>
<path d="M163.929 247.027L142.553 234.685V210.003L163.929 222.344V247.027Z" fill="#DE3078"/>
<path d="M158.856 231.756C158.856 235.337 156.342 236.788 153.241 234.998C150.14 233.208 147.626 228.853 147.626 225.273C147.626 221.692 150.14 220.24 153.241 222.031C156.342 223.822 158.856 228.175 158.856 231.756Z" fill="#F6D13A"/>
<path d="M202.232 255.427L170.781 237.269V229.2L202.232 247.358V255.427Z" fill="#3B4951"/>
<path d="M223.022 267.431L206.386 257.825V249.757L223.022 259.362V267.431Z" fill="#3B4951"/>
<path d="M215.214 273.735L170.781 248.083V244.232L215.214 269.886V273.735Z" fill="#3B4951"/>
<path d="M244.815 279.997L239.895 277.156C238.359 276.27 237.113 273.891 237.113 271.843V267.156C237.113 265.108 238.359 264.166 239.895 265.053L244.815 267.894C246.351 268.779 247.595 271.159 247.595 273.207V277.894C247.595 279.942 246.351 280.884 244.815 279.997Z" fill="#F6D13A"/>
<path d="M244.815 294.877L239.895 292.036C238.359 291.15 237.113 288.771 237.113 286.723V282.036C237.113 279.988 238.359 279.046 239.895 279.933L244.815 282.774C246.351 283.659 247.595 286.039 247.595 288.087V292.774C247.595 294.822 246.351 295.764 244.815 294.877Z" fill="#F6D13A"/>
<path d="M132.252 251.701L137.065 248.905C138.345 248.161 140.12 248.263 142.089 249.399L137.276 252.196C135.306 251.06 133.532 250.957 132.252 251.701Z" fill="#D7DAFF"/>
<path d="M262.706 358.773L257.893 361.57C259.163 360.832 259.954 359.268 259.961 357.053L264.774 354.256C264.767 356.471 263.976 358.035 262.706 358.773Z" fill="#D7DAFF"/>
<path d="M260.033 331.201L264.847 328.403L264.773 354.256L259.96 357.053L260.033 331.201Z" fill="#D7DAFF"/>
<path d="M137.275 252.196L142.089 249.399L257.806 316.209L252.993 319.006L137.275 252.196Z" fill="#D7DAFF"/>
<path d="M252.993 319.006C256.873 321.246 260.046 326.741 260.033 331.201L259.96 357.053C259.947 361.513 256.754 363.333 252.873 361.092L137.155 294.282C133.231 292.016 130.102 286.547 130.115 282.087L130.188 256.235C130.201 251.776 133.351 249.931 137.274 252.197L252.993 319.006Z" fill="#AEB2F4"/>
<path d="M252.993 319.006L257.806 316.209C261.687 318.45 264.859 323.944 264.847 328.404L260.033 331.201C260.047 326.741 256.874 321.246 252.993 319.006Z" fill="#D7DAFF"/>
<path d="M163.929 301.058L142.553 288.717V264.035L163.929 276.376V301.058Z" fill="#F6D13A"/>
<path d="M158.856 285.788C158.856 289.37 156.342 290.82 153.241 289.03C150.14 287.24 147.626 282.886 147.626 279.305C147.626 275.723 150.14 274.273 153.241 276.063C156.342 277.853 158.856 282.208 158.856 285.788Z" fill="#DE3078"/>
<path d="M202.232 309.459L170.781 291.301V283.233L202.232 301.391V309.459Z" fill="#3B4951"/>
<path d="M215.214 327.768L170.781 302.114V298.265L215.214 323.918V327.768Z" fill="#3B4951"/>
<path d="M244.815 334.029L239.895 331.188C238.359 330.301 237.113 327.923 237.113 325.874V321.187C237.113 319.139 238.359 318.197 239.895 319.084L244.815 321.925C246.351 322.811 247.595 325.19 247.595 327.238V331.925C247.595 333.975 246.351 334.916 244.815 334.029Z" fill="#F6D13A"/>
<path d="M244.815 348.909L239.895 346.068C238.359 345.181 237.113 342.803 237.113 340.755V336.067C237.113 334.02 238.359 333.078 239.895 333.965L244.815 336.805C246.351 337.692 247.595 340.071 247.595 342.119V346.806C247.595 348.854 246.351 349.796 244.815 348.909Z" fill="#F6D13A"/>
<path d="M132.252 305.734L137.065 302.937C138.345 302.192 140.12 302.295 142.089 303.431L137.276 306.228C135.306 305.091 133.532 304.989 132.252 305.734Z" fill="#D7DAFF"/>
<path d="M262.706 412.805L257.893 415.602C259.163 414.864 259.954 413.3 259.961 411.084L264.774 408.287C264.767 410.502 263.976 412.066 262.706 412.805Z" fill="#D7DAFF"/>
<path d="M260.033 385.232L264.847 382.436L264.773 408.287L259.96 411.084L260.033 385.232Z" fill="#D7DAFF"/>
<path d="M137.275 306.228L142.089 303.43L257.806 370.241L252.993 373.038L137.275 306.228Z" fill="#D7DAFF"/>
<path d="M252.993 373.038C256.873 375.278 260.046 380.773 260.033 385.232L259.96 411.084C259.947 415.544 256.754 417.363 252.873 415.123L137.155 348.313C133.231 346.048 130.102 340.578 130.115 336.119L130.188 310.266C130.201 305.807 133.351 303.962 137.274 306.227L252.993 373.038Z" fill="#AEB2F4"/>
<path d="M252.993 373.038L257.806 370.241C261.687 372.481 264.859 377.976 264.847 382.436L260.033 385.233C260.047 380.773 256.874 375.278 252.993 373.038Z" fill="#D7DAFF"/>
<path d="M163.929 355.09L142.553 342.749V318.066L163.929 330.408V355.09Z" fill="#DE3078"/>
<path d="M158.856 339.82C158.856 343.401 156.342 344.852 153.241 343.062C150.14 341.271 147.626 336.917 147.626 333.336C147.626 329.756 150.14 328.304 153.241 330.095C156.342 331.886 158.856 336.239 158.856 339.82Z" fill="#F6D13A"/>
<path d="M202.232 363.491L170.781 345.333V337.264L202.232 355.422V363.491Z" fill="#3B4951"/>
<path d="M223.022 375.494L206.386 365.889V357.821L223.022 367.426V375.494Z" fill="#3B4951"/>
<path d="M215.214 381.799L170.781 356.147V352.296L215.214 377.949V381.799Z" fill="#3B4951"/>
<path d="M244.815 388.061L239.895 385.22C238.359 384.333 237.113 381.954 237.113 379.907V375.219C237.113 373.171 238.359 372.23 239.895 373.116L244.815 375.957C246.351 376.843 247.595 379.223 247.595 381.27V385.958C247.595 388.006 246.351 388.947 244.815 388.061Z" fill="#F6D13A"/>
<path d="M244.815 402.94L239.895 400.1C238.359 399.213 237.113 396.834 237.113 394.787V390.099C237.113 388.051 238.359 387.11 239.895 387.996L244.815 390.837C246.351 391.723 247.595 394.103 247.595 396.15V400.838C247.595 402.886 246.351 403.827 244.815 402.94Z" fill="#F6D13A"/>
<path d="M209.559 118.754L214.372 115.957C215.654 115.212 217.432 115.324 219.407 116.465L214.593 119.261C212.619 118.12 210.84 118.009 209.559 118.754Z" fill="#D7DAFF"/>
<path d="M339.848 287.963L335.034 290.76C336.305 290.021 337.095 288.457 337.102 286.242L341.916 283.445C341.909 285.661 341.118 287.225 339.848 287.963Z" fill="#D7DAFF"/>
<path d="M337.352 198.265L342.164 195.468L341.915 283.446L337.102 286.243L337.352 198.265Z" fill="#D7DAFF"/>
<path d="M214.594 119.261L219.407 116.464L335.125 183.274L330.312 186.07L214.594 119.261Z" fill="#D7DAFF"/>
<path d="M330.312 186.07C334.192 188.311 337.365 193.755 337.352 198.265L337.102 286.243C337.089 290.702 333.897 292.522 330.016 290.282L214.298 223.472C210.374 221.206 207.245 215.736 207.258 211.277L207.507 123.3C207.52 118.791 210.669 116.997 214.594 119.262L330.312 186.07Z" fill="#AEB2F4"/>
<path d="M330.312 186.07L335.124 183.274C339.005 185.514 342.177 190.959 342.164 195.468L337.352 198.265C337.364 193.756 334.192 188.311 330.312 186.07Z" fill="#D7DAFF"/>
<path d="M256.101 167.162C256.101 159.54 250.78 150.324 244.223 146.538C237.622 142.728 232.302 145.8 232.302 153.42L224.217 148.753V201.952L264.227 225.052V171.852L256.101 167.162ZM235.684 155.373C235.684 149.895 239.478 147.705 244.222 150.443C248.924 153.158 252.76 159.754 252.76 165.231L235.684 155.373Z" fill="#F6D13A"/>
<path d="M302.274 187.253L274.867 171.43V163.362L302.274 179.186V187.253Z" fill="#3B4951"/>
<path d="M320.392 197.714L305.896 189.344V181.276L320.392 189.645V197.714Z" fill="#3B4951"/>
<path d="M320.392 208.528L274.867 182.243V178.394L320.392 204.678V208.528Z" fill="#3B4951"/>
<path d="M320.392 217.557L274.867 191.274V187.424L320.392 213.708V217.557Z" fill="#3B4951"/>
<path d="M320.392 226.588L274.867 200.304V196.454L320.392 222.738V226.588Z" fill="#3B4951"/>
<path d="M320.392 235.618L274.867 209.334V205.485L320.392 231.768V235.618Z" fill="#3B4951"/>
<path d="M309.814 238.541L274.867 218.364V214.515L309.814 234.691V238.541Z" fill="#3B4951"/>
<path d="M316.091 264.104L279.17 242.787C276.794 241.415 274.868 237.736 274.868 234.568C274.868 231.401 276.794 229.945 279.17 231.317L316.091 252.634C318.467 254.005 320.392 257.684 320.392 260.852C320.392 264.019 318.466 265.475 316.091 264.104Z" fill="#DE3078"/>
<path d="M307.658 255.11L287.603 243.53V240.312L307.658 251.89V255.11Z" fill="white"/>
<path d="M256.255 116.502C256.255 118.496 254.854 119.305 253.126 118.308C251.398 117.31 249.998 114.885 249.998 112.89C249.998 110.895 251.398 110.086 253.126 111.084C254.854 112.08 256.255 114.506 256.255 116.502Z" fill="#3B4951"/>
<path d="M267.436 122.957C267.436 124.952 266.036 125.76 264.308 124.763C262.581 123.766 261.18 121.34 261.18 119.345C261.18 117.35 262.581 116.541 264.308 117.539C266.036 118.536 267.436 120.962 267.436 122.957Z" fill="#3B4951"/>
<path d="M278.617 129.412C278.617 131.408 277.217 132.216 275.489 131.219C273.761 130.221 272.36 127.794 272.36 125.8C272.36 123.805 273.761 122.996 275.489 123.994C277.217 124.992 278.617 127.417 278.617 129.412Z" fill="#DE3078"/>
<path d="M289.799 135.868C289.799 137.863 288.399 138.671 286.671 137.674C284.943 136.675 283.543 134.25 283.543 132.256C283.543 130.26 284.943 129.452 286.671 130.449C288.399 131.447 289.799 133.874 289.799 135.868Z" fill="#3B4951"/>
<path d="M347.871 417.726L343.058 420.523C344.322 419.788 345.109 418.227 345.115 415.992L349.928 413.195C349.921 415.43 349.134 416.991 347.871 417.726Z" fill="#D7DAFF"/>
<path d="M278.428 277.387L283.241 274.59C284.528 273.842 286.306 273.941 288.26 275.069L283.446 277.866C281.494 276.737 279.715 276.639 278.428 277.387Z" fill="#D7DAFF"/>
<path d="M345.382 321.753L350.194 318.956L349.928 413.196L345.114 415.993L345.382 321.753Z" fill="#D7DAFF"/>
<path d="M283.446 277.866L288.26 275.068L343.154 306.761L338.341 309.558L283.446 277.866Z" fill="#D7DAFF"/>
<path d="M338.341 309.558C342.22 311.799 345.394 317.294 345.381 321.753L345.113 415.993C345.101 420.502 341.906 422.271 338.027 420.032L283.133 388.339C279.252 386.099 276.08 380.654 276.093 376.144L276.36 281.905C276.372 277.445 279.566 275.625 283.446 277.866L338.341 309.558Z" fill="#AEB2F4"/>
<path d="M338.341 309.558L343.153 306.762C347.034 309.002 350.206 314.498 350.193 318.956L345.381 321.753C345.394 317.294 342.221 311.799 338.341 309.558Z" fill="#D7DAFF"/>
<path d="M329.51 318.498V361.862L291.953 340.179V296.814L329.51 318.498Z" fill="#DE3078"/>
<path d="M329.51 347.672V361.863L291.953 340.179V320.343L302.28 319.183L308.859 338.965L321.149 335.354L329.51 347.672Z" fill="#3B4951"/>
<path d="M320.663 323.385C320.663 325.039 319.502 325.708 318.071 324.882C316.639 324.055 315.479 322.044 315.479 320.392C315.479 318.738 316.64 318.068 318.071 318.895C319.503 319.721 320.663 321.732 320.663 323.385Z" fill="#F6D13A"/>
<path d="M315.382 370.787L287.975 354.964V346.896L315.382 362.719V370.787Z" fill="#3B4951"/>
<path d="M333.499 381.247L319.002 372.878V364.81L333.499 373.18V381.247Z" fill="#3B4951"/>
<path d="M333.499 392.061L287.975 365.777V361.928L333.499 388.212V392.061Z" fill="#3B4951"/>
<path d="M333.499 401.092L287.975 374.808V370.958L333.499 397.242V401.092Z" fill="#3B4951"/>
<path d="M313.506 398.579L287.975 383.838V379.988L313.506 394.729V398.579Z" fill="#3B4951"/>
</svg>
