<svg width="483" height="473" viewBox="0 0 483 473" fill="none" xmlns="http://www.w3.org/2000/svg">
<path fill-rule="evenodd" clip-rule="evenodd" d="M46.7562 290.639C21.4487 206.223 89.9381 131.531 162.341 81.2072C227.111 36.1887 309.673 18.7552 375.531 62.1241C449.708 110.972 495.925 198.856 469.981 283.797C443.272 371.245 356.509 422.344 265.055 423.823C170.802 425.347 73.8121 380.888 46.7562 290.639Z" fill="#CBEEFF"/>
<path d="M393.475 65.7018L180.494 188.623L166.899 181.11L167.38 376.633C167.39 378.647 168.095 380.047 169.22 380.701L182.814 388.204C182.661 388.122 182.548 387.989 182.415 387.877C183.581 388.858 185.339 388.899 187.322 387.754L387.71 272.121C391.185 270.107 393.965 265.303 393.955 261.225L393.475 65.7018Z" fill="#DEDFFB"/>
<path d="M180.974 384.136L180.494 188.623L166.899 181.11L167.38 376.633C167.39 378.647 168.095 380.047 169.22 380.701L182.814 388.204C181.679 387.55 180.974 386.149 180.974 384.136Z" fill="#B0B8CF"/>
<path d="M393.474 65.7018L393.955 261.225C393.965 265.303 391.185 270.107 387.709 272.121L187.321 387.754C183.846 389.768 180.984 388.214 180.974 384.136L180.493 188.623L393.474 65.7018Z" fill="#F3F1FC"/>
<path d="M388.507 261.255C388.527 263.371 386.81 266.366 384.991 267.419L186.391 382.02L185.941 191.751L388.078 75.0951L388.507 261.255Z" fill="#57B3FE"/>
<path d="M393.465 65.7018L180.504 188.603L166.91 181.11L166.879 170.419C166.848 166.361 169.69 161.516 173.257 159.451L373.503 43.8896C375.281 42.8573 376.876 42.7653 378.031 43.4194L391.594 50.9219C392.749 51.576 393.434 52.9866 393.434 55.0104L393.465 65.7018Z" fill="#211A67"/>
<path d="M378.021 43.4194C376.876 42.755 375.281 42.8572 373.503 43.8896L173.247 159.462C169.7 161.506 166.859 166.351 166.869 170.419L166.9 181.11L180.494 188.623L180.463 177.932C180.453 173.853 183.295 169.008 186.831 166.964L387.087 51.4022C388.876 50.3699 390.47 50.2574 391.615 50.9218L378.021 43.4194Z" fill="#423D9B"/>
<path d="M387.087 51.4022C390.634 49.3477 393.435 50.9422 393.445 55.0205L393.476 65.7018L180.495 188.623L180.464 177.932C180.454 173.853 183.295 169.008 186.832 166.964L387.087 51.4022Z" fill="#211A67"/>
<path d="M191.318 170.859C193.158 169.795 194.681 170.593 194.681 172.698C194.691 174.814 193.178 177.359 191.339 178.422C189.57 179.444 188.047 178.647 188.037 176.542C188.037 174.426 189.55 171.881 191.318 170.859Z" fill="white"/>
<path d="M202.961 164.133C204.739 163.111 206.323 163.867 206.334 165.983C206.334 168.088 204.759 170.674 202.991 171.697C201.213 172.719 199.628 171.962 199.618 169.857C199.618 167.741 201.192 165.155 202.961 164.133Z" fill="white"/>
<path d="M214.612 157.417C216.38 156.385 217.903 157.182 217.913 159.298C217.913 161.404 216.401 163.949 214.632 164.971C212.793 166.034 211.27 165.237 211.27 163.131C211.259 161.026 212.772 158.47 214.612 157.417Z" fill="white"/>
<path d="M385.89 62.3492C385.89 64.3219 384.582 66.6217 382.865 67.603L327.874 99.3401C326.167 100.342 324.838 99.5752 324.828 97.6127C324.828 95.7217 326.147 93.4219 327.864 92.4509L382.844 60.7036C384.551 59.7121 385.89 60.4685 385.89 62.3492Z" fill="white"/>
<path d="M244.103 180.18L244.266 238.718L193.323 268.135L193.149 209.597L244.103 180.18Z" fill="#5094FF"/>
<path d="M249.785 231.45L198.853 260.857L196.001 259.201L195.848 200.664L246.75 171.267L249.601 172.923L249.785 231.45Z" fill="white"/>
<path d="M198.842 260.867L196 259.211L195.837 200.674L198.668 202.32L198.842 260.867Z" fill="#D4DAEA"/>
<path d="M198.668 202.32L195.837 200.674L246.77 171.267L249.601 172.913L198.668 202.32Z" fill="#EDEEF2"/>
<path d="M249.601 172.913L249.774 231.461L198.842 260.867L198.668 202.32L249.601 172.913Z" fill="white"/>
<path d="M310.458 141.298L310.622 199.836L259.679 229.253L259.505 170.705L310.458 141.298Z" fill="#5094FF"/>
<path d="M316.847 192.732L265.914 222.139L263.062 220.483L262.909 161.945L313.842 132.549L316.694 134.174L316.847 192.732Z" fill="#D4DAEA"/>
<path d="M265.914 222.139L263.083 220.483L262.909 161.945L265.751 163.591L265.914 222.139Z" fill="#D4DAEA"/>
<path d="M265.751 163.591L262.909 161.945L313.862 132.529L316.694 134.184L265.751 163.591Z" fill="#EDEEF2"/>
<path d="M316.693 134.184L316.856 192.722L265.914 222.139L265.75 163.591L316.693 134.184Z" fill="white"/>
<path d="M378.092 103.234L378.266 161.782L327.313 191.199L327.149 132.651L378.092 103.234Z" fill="#5094FF"/>
<path d="M383.97 153.983L333.037 183.39L330.186 181.734L330.032 123.197L380.965 93.8002L383.817 95.456L383.97 153.983Z" fill="#D4DAEA"/>
<path d="M333.017 183.39L330.186 181.744L330.022 123.207L332.854 124.852L333.017 183.39Z" fill="#D4DAEA"/>
<path d="M332.854 124.852L330.022 123.207L380.965 93.7899L383.807 95.4355L332.854 124.852Z" fill="#EDEEF2"/>
<path d="M383.807 95.4355L383.97 153.983L333.017 183.39L332.854 124.852L383.807 95.4355Z" fill="white"/>
<path d="M245.359 264.598L245.369 268.134L200.436 294.076L200.426 290.55L245.359 264.598Z" fill="white"/>
<path d="M245.39 275.811L245.4 279.337L200.467 305.279L200.457 301.752L245.39 275.811Z" fill="white"/>
<path d="M245.328 253.395L245.339 256.932L200.406 282.874L200.396 279.337L245.328 253.395Z" fill="white"/>
<path d="M313.74 213.9L313.75 217.437L268.807 243.378L268.797 239.842L313.74 213.9Z" fill="white"/>
<path d="M313.771 225.113L313.781 228.639L268.848 254.581L268.838 251.055L313.771 225.113Z" fill="white"/>
<path d="M313.801 236.316L313.811 239.842L268.878 265.794L268.868 262.257L313.801 236.316Z" fill="white"/>
<path d="M382.14 174.405L382.151 177.942L337.228 203.883L337.218 200.347L382.14 174.405Z" fill="white"/>
<path d="M382.172 185.618L382.182 189.144L337.259 215.086L337.249 211.549L382.172 185.618Z" fill="white"/>
<path d="M382.202 196.821L382.212 200.357L337.29 226.289L337.279 222.752L382.202 196.821Z" fill="white"/>
<path d="M231.775 204.681C232.419 204.302 233.063 204.313 233.411 204.875L246.862 226.994L223.496 240.476L216.883 244.298L220.164 234.997L230.15 206.766C230.487 205.805 231.131 205.049 231.775 204.681Z" fill="#72D561"/>
<path d="M212.478 224.837C213.122 224.469 213.766 224.469 214.113 225.041L220.164 234.997L216.883 244.298L223.496 240.476L201.582 253.13L210.853 226.922C211.19 225.961 211.834 225.205 212.478 224.837Z" fill="#BF7D5A"/>
<path d="M219.448 214.575C220.859 213.757 222.065 214.391 222.075 216.067C222.075 217.754 220.869 219.777 219.458 220.595C217.997 221.433 216.79 220.81 216.78 219.123C216.78 217.447 217.986 215.413 219.448 214.575Z" fill="#FFB961"/>
<path d="M299.051 167.128C299.705 166.76 300.349 166.76 300.686 167.332L314.137 189.441L290.782 202.923L284.158 206.745L287.449 197.444L297.425 169.213C297.773 168.252 298.407 167.496 299.051 167.128Z" fill="#F45170"/>
<path d="M279.753 187.284C280.397 186.916 281.041 186.926 281.388 187.488L287.449 197.444L284.158 206.745L290.782 202.923L268.867 215.577L278.128 189.369C278.465 188.408 279.109 187.662 279.753 187.284Z" fill="#B28AFD"/>
<path d="M286.724 177.022C288.135 176.204 289.351 176.838 289.351 178.514C289.361 180.201 288.155 182.225 286.745 183.042C285.283 183.891 284.067 183.257 284.057 181.57C284.057 179.894 285.263 177.86 286.724 177.022Z" fill="#FFB961"/>
<path d="M366.338 129.575C366.982 129.207 367.626 129.217 367.974 129.779L381.415 151.888L358.059 165.38L351.436 169.203L354.727 159.891L364.703 131.66C365.05 130.699 365.694 129.953 366.338 129.575Z" fill="#FFD06C"/>
<path d="M347.04 149.731C347.684 149.363 348.328 149.373 348.666 149.935L354.727 159.891L351.436 169.203L358.059 165.38L336.145 178.024L345.405 151.816C345.753 150.855 346.396 150.109 347.04 149.731Z" fill="#BF7D5A"/>
<path d="M354.001 139.469C355.412 138.651 356.628 139.285 356.628 140.971C356.638 142.648 355.432 144.682 354.022 145.489C352.56 146.338 351.344 145.704 351.344 144.028C351.334 142.341 352.54 140.317 354.001 139.469Z" fill="#4C5C75"/>
<path d="M357.127 354.351V363.571C357.097 365.257 355.972 366.944 353.785 368.231L325.094 384.882C320.627 387.478 313.309 387.478 308.842 384.882L279.997 368.231C277.718 366.944 276.594 365.226 276.594 363.509V354.32C276.594 352.603 277.718 350.917 279.967 349.598L308.597 332.978C313.094 330.351 320.402 330.351 324.879 332.948L353.754 349.598C356.003 350.917 357.127 352.634 357.127 354.351Z" fill="#B0B8CF"/>
<path d="M357.127 354.361L357.107 363.56C357.097 365.247 355.983 366.954 353.764 368.242L325.104 384.892C320.637 387.488 313.329 387.488 308.832 384.892L279.987 368.242C277.728 366.933 276.594 365.216 276.594 363.499L276.614 354.31C276.614 356.017 277.739 357.755 279.997 359.043L308.852 375.714C313.339 378.31 320.648 378.31 325.124 375.693L353.785 359.043C356.013 357.755 357.107 356.068 357.127 354.361Z" fill="#B0B8CF"/>
<path d="M353.734 349.619C358.231 352.215 358.251 356.446 353.785 359.053L325.124 375.703C320.657 378.3 313.339 378.3 308.842 375.703L279.997 359.053C275.5 356.457 275.479 352.215 279.956 349.619L308.607 332.968C313.083 330.372 320.392 330.372 324.889 332.958L353.734 349.619Z" fill="#E3E7F0"/>
<path fill-rule="evenodd" clip-rule="evenodd" d="M342.245 358.542L335.499 359.043L337.778 360.729L337.809 364.756L331.779 368.232L325.063 365.196C324.123 365.513 323.121 365.758 322.099 365.942L321.036 370.787H312.501L311.592 366.167C310.375 366.014 309.22 365.758 308.065 365.451L301.871 368.232L295.871 364.756L295.841 360.729L298.161 359.012L291.466 358.572V354.545L291.496 349.598L295.973 349.291V343.414L302.004 339.919L307.186 342.29C308.627 341.82 310.222 341.452 311.878 341.227L312.716 337.353L321.22 337.384L322.027 341.452C323.469 341.697 324.818 342.045 326.096 342.505L331.911 339.919L337.87 343.414L337.911 349.291L342.245 349.598L342.286 355.475L342.245 358.542ZM326.995 354.576C326.464 353.86 325.707 353.165 324.675 352.603C320.392 350.109 313.431 350.079 309.087 352.573C308.055 353.165 307.268 353.891 306.736 354.607C307.268 355.322 308.024 356.017 309.026 356.579C313.339 359.073 320.331 359.073 324.644 356.579C325.676 355.986 326.464 355.291 326.995 354.576Z" fill="#E93565"/>
<path d="M295.953 343.404L295.974 349.271L300.042 352.307L300.021 346.43L295.953 343.404Z" fill="#DF3260"/>
<path d="M332.995 346.992L333.016 352.859L337.901 349.281L337.881 343.404L332.995 346.992Z" fill="#DF3260"/>
<path d="M305.826 352.092L305.847 357.131C305.836 355.486 306.93 353.83 309.097 352.583C313.421 350.079 320.402 350.099 324.695 352.593C326.841 353.83 327.914 355.455 327.914 357.09L327.904 352.051C327.894 350.416 326.821 348.791 324.684 347.554C320.392 345.06 313.41 345.039 309.087 347.544C306.91 348.791 305.826 350.447 305.826 352.092Z" fill="#E93565"/>
<path d="M342.225 354.504L342.235 358.542L342.265 355.465L342.245 349.588L342.225 354.504Z" fill="#D4D6D6"/>
<path d="M291.466 354.545L291.486 358.583L298.519 359.043L298.508 355.015L291.466 354.545Z" fill="#DF3260"/>
<path d="M333.822 355.118L333.843 359.155L342.234 358.542L342.224 354.504L333.822 355.118Z" fill="#DF3260"/>
<path d="M332.535 356.845L332.545 362.722C333.077 362.18 333.537 361.588 333.843 360.995L333.823 355.118C333.527 355.71 333.056 356.303 332.535 356.845Z" fill="#E93565"/>
<path d="M298.508 355.015L298.518 360.882C298.958 361.721 299.591 362.497 300.389 363.254L300.368 357.376C299.571 356.62 298.937 355.843 298.508 355.015Z" fill="#E93565"/>
<path d="M322.069 361.905L322.08 365.942C323.122 365.768 324.124 365.502 325.074 365.196L325.054 361.158C324.114 361.465 323.102 361.731 322.069 361.905Z" fill="#E93565"/>
<path d="M308.034 361.404L308.055 365.431C309.22 365.768 310.385 366.024 311.601 366.167L311.581 362.129C310.365 361.986 309.199 361.731 308.034 361.404Z" fill="#E93565"/>
<path d="M295.861 360.719L295.872 364.756L301.861 368.242L301.851 364.204L295.861 360.719Z" fill="#E93565"/>
<path d="M301.85 364.204L301.86 368.242L308.054 365.431L308.033 361.404L301.85 364.204Z" fill="#DF3260"/>
<path d="M331.757 364.204L331.767 368.242L337.798 364.756L337.787 360.719L331.757 364.204Z" fill="#E93565"/>
<path d="M325.053 361.158L325.073 365.196L331.768 368.242L331.758 364.204L325.053 361.158Z" fill="#DF3260"/>
<path d="M311.581 362.129L311.601 366.167L312.511 370.807L312.501 366.77L311.581 362.129Z" fill="#DF3260"/>
<path d="M321.005 366.76L321.025 370.787L322.078 365.942L322.068 361.905L321.005 366.76Z" fill="#DF3260"/>
<path fill-rule="evenodd" clip-rule="evenodd" d="M295.861 360.719L300.369 357.377C299.571 356.62 298.938 355.843 298.508 355.015L291.466 354.545L291.496 349.608L298.171 349.138C298.519 348.198 299.173 347.268 300.021 346.43L295.953 343.404L301.984 339.919L307.176 342.3C308.627 341.809 310.232 341.431 311.868 341.237L312.706 337.353L321.22 337.373L322.017 341.431C323.469 341.687 324.818 342.045 326.096 342.525L331.891 339.919L337.881 343.404L332.995 346.992C333.588 347.656 333.997 348.341 334.273 349.036L342.245 349.588L342.225 354.504L333.823 355.118C333.526 355.71 333.056 356.303 332.535 356.845L337.789 360.719L331.758 364.204L325.053 361.158C324.113 361.465 323.101 361.731 322.068 361.905L321.005 366.76L312.501 366.77L311.581 362.129C310.365 361.986 309.2 361.731 308.035 361.404L301.851 364.204L295.861 360.719ZM324.654 356.579C328.978 354.085 328.978 350.038 324.685 347.544C320.392 345.05 313.411 345.039 309.087 347.533C304.764 350.027 304.743 354.085 309.036 356.579C313.329 359.073 320.331 359.073 324.654 356.579Z" fill="#F45170"/>
<path d="M312.501 366.77L312.511 370.807L321.026 370.787L321.005 366.76L312.501 366.77Z" fill="#E93565"/>
<path d="M325.749 285.725L267.998 319.067C264.779 320.958 261.866 321.04 259.842 319.721C259.913 319.762 259.964 319.813 260.036 319.854L259.658 319.639L255.845 317.411C248.946 313.425 253.699 296.785 263.726 290.948L321.497 257.606C324.594 255.828 327.435 255.634 329.469 256.819L333.66 259.262C340.692 263.33 335.612 280.052 325.749 285.725Z" fill="#D4DAEA"/>
<path d="M333.649 259.273C331.605 258.087 328.794 258.25 325.677 260.049L267.927 293.401C258.227 298.993 252.911 315.704 260.036 319.864L255.845 317.422C248.772 313.302 253.934 296.611 263.736 290.959L321.486 257.607C324.604 255.818 327.425 255.644 329.459 256.83L333.649 259.273Z" fill="#D4DAEA"/>
<path d="M325.687 260.049C331.871 256.472 336.889 259.334 336.91 266.427C336.93 273.521 331.942 282.168 325.758 285.735L267.998 319.088C258.032 324.842 253.054 313.793 260.015 301.732C262.039 298.236 264.829 295.18 267.926 293.391L325.687 260.049Z" fill="#F1F6FA"/>
<path d="M155.85 314.069C155.88 317.697 153.315 322.103 150.156 323.912L73.8137 368.007C72.0965 369.008 70.5633 369.008 69.5412 368.201C69.6025 368.293 69.6638 368.324 69.7558 368.385L64.8496 365.543C63.8172 364.951 63.1937 363.663 63.1937 361.853L63.0098 305.074L67.9466 307.946L155.696 257.29L155.85 314.069Z" fill="#C9CEE2"/>
<path d="M69.7666 368.395L64.8501 365.533C63.8178 364.94 63.184 363.673 63.184 361.864L63.0205 305.084L67.9472 307.946L68.1107 364.736C68.1107 366.535 68.7444 367.792 69.7666 368.395Z" fill="#B0B8CF"/>
<path d="M155.697 257.279L155.861 314.069C155.871 317.697 153.315 322.103 150.167 323.922L73.8347 367.996C70.6763 369.816 68.121 368.354 68.1108 364.736L67.9473 307.946L155.697 257.279Z" fill="#E3E7F0"/>
<path d="M155.697 252.015V257.29L67.9469 307.946L63.01 305.074V299.82C62.9794 296.202 65.5347 291.786 68.6931 289.977L145.036 245.913C146.6 244.983 148.031 244.891 149.094 245.515L153.816 248.264C154.94 248.826 155.656 250.104 155.697 252.015Z" fill="#1D2943"/>
<path d="M154.021 248.366C152.988 247.763 151.547 247.845 149.953 248.755L73.62 292.829C70.4718 294.648 67.9267 299.054 67.9369 302.672L67.9471 307.946L63.0205 305.084L63 299.82C62.9898 296.202 65.5349 291.787 68.6933 289.967L145.026 245.903C146.61 244.983 148.051 244.901 149.094 245.494L154.021 248.366Z" fill="#1D2943"/>
<path d="M149.953 248.765C153.101 246.946 155.677 248.397 155.687 252.015L155.697 257.279L67.9472 307.946L67.9268 302.682C67.9166 299.064 70.4617 294.648 73.62 292.829L149.953 248.765Z" fill="#4C5C75"/>
<path d="M76.2573 294.465C77.5452 293.729 78.6082 294.281 78.6185 295.763C78.6185 297.235 77.5554 299.013 76.2778 299.759C75.041 300.475 73.978 299.913 73.9678 298.441C73.9678 296.969 75.0206 295.18 76.2573 294.465Z" fill="white"/>
<path d="M84.4032 289.773C85.64 289.057 86.7541 289.589 86.7541 291.061C86.7643 292.533 85.6604 294.342 84.4134 295.057C83.1766 295.773 82.0727 295.241 82.0625 293.769C82.0625 292.287 83.1664 290.488 84.4032 289.773Z" fill="white"/>
<path d="M92.5497 285.071C93.7865 284.356 94.8495 284.908 94.8495 286.379C94.8597 287.862 93.7967 289.64 92.56 290.356C91.2721 291.091 90.2091 290.539 90.2091 289.068C90.1988 287.596 91.2619 285.807 92.5497 285.071Z" fill="white"/>
<path d="M463 296.386C463 302.764 458.533 310.543 452.962 313.762L390.183 350.007C386.963 351.857 384.122 351.724 382.251 350.068C382.497 350.293 382.752 350.538 383.028 350.692L374.933 346.041C373.154 345.009 372.03 342.76 372.03 339.571L371.621 198.415C371.591 192.016 376.088 184.228 381.659 181.008L444.407 144.794C447.218 143.169 449.753 143.016 451.593 144.079L459.627 148.729C461.466 149.792 462.591 152.01 462.591 155.199L463 296.386Z" fill="#111D33"/>
<path d="M459.658 148.75C457.818 147.687 455.283 147.83 452.492 149.455L389.724 185.69C384.153 188.899 379.666 196.688 379.686 203.076L380.085 344.242C380.085 347.421 381.209 349.659 383.018 350.702L374.954 346.041C373.145 344.999 372.03 342.76 372.02 339.581L371.611 198.415C371.591 192.027 376.099 184.248 381.659 181.029L444.418 144.794C447.218 143.179 449.763 143.026 451.583 144.089L459.658 148.75Z" fill="#111D33"/>
<path d="M452.483 149.455C458.053 146.235 462.571 148.821 462.591 155.21L462.99 296.376C463.011 302.774 458.513 310.553 452.953 313.762L390.194 350.007C384.623 353.217 380.106 350.641 380.085 344.242L379.687 203.076C379.666 196.688 384.164 188.899 389.724 185.69L452.483 149.455Z" fill="#4C5C75"/>
<path d="M461.487 296.386C461.508 302.171 457.246 309.551 452.196 312.464L444.387 316.982L389.448 348.709C388.099 349.476 386.8 349.895 385.676 349.895C383.172 349.895 381.588 347.717 381.588 344.232L381.179 203.076C381.179 197.26 385.421 189.901 390.47 186.998L453.239 150.763C454.588 149.987 455.886 149.578 457.01 149.578C459.515 149.578 461.079 151.724 461.079 155.22L461.487 296.386Z" fill="white"/>
<path d="M444.407 149.455C442.884 148.596 440.38 148.596 438.867 149.455C437.518 150.232 437.355 151.428 438.377 152.286C438.499 152.164 438.663 152.041 438.867 151.918C440.38 151.06 442.884 151.06 444.407 151.918C444.571 152.041 444.734 152.164 444.898 152.286C445.879 151.428 445.716 150.232 444.407 149.455Z" fill="white"/>
<path d="M438.868 151.918C438.663 152.041 438.5 152.164 438.377 152.286C438.5 152.409 438.663 152.532 438.868 152.654C440.431 153.554 442.885 153.554 444.408 152.654C444.571 152.573 444.735 152.45 444.898 152.327V152.286C444.735 152.164 444.571 152.041 444.408 151.918C442.885 151.06 440.38 151.06 438.868 151.918Z" fill="#9EA9C9"/>
<path d="M396.162 209.771L396.275 239.944L390.643 243.195L390.53 213.021L396.162 209.771Z" fill="#F45170"/>
<path d="M405.985 192.323L406.088 234.271L400.456 237.522L400.354 195.573L405.985 192.323Z" fill="#DBA660"/>
<path d="M415.797 198.435L415.91 228.609L410.278 231.849L410.176 201.686L415.797 198.435Z" fill="#78E75A"/>
<path d="M425.62 188.715L425.722 222.936L420.101 226.186L419.988 191.965L425.62 188.715Z" fill="#5094FF"/>
<path d="M429.913 232.125L387.28 256.738L387.26 250.942L429.913 226.339V232.125Z" fill="#C9CEE2"/>
<path d="M410.821 257.515C411.618 257.055 412.272 257.423 412.272 258.332C412.272 259.262 411.628 260.377 410.831 260.836L388.865 273.521C386.954 274.615 386.923 271.313 388.855 270.199L410.821 257.515Z" fill="#C9CEE2"/>
<path d="M419.866 252.271C420.664 251.801 421.318 252.169 421.318 253.089C421.318 254.009 420.674 255.123 419.877 255.583L415.451 258.179C414.654 258.639 413.999 258.271 413.989 257.351C413.989 256.431 414.643 255.317 415.441 254.857L419.866 252.271Z" fill="#C9CEE2"/>
<path d="M442.568 239.249C443.365 238.789 444.019 239.147 444.019 240.067C444.019 240.987 443.375 242.101 442.578 242.561L424.496 252.976C423.699 253.436 423.045 253.068 423.045 252.148C423.035 251.228 423.689 250.114 424.486 249.654L442.568 239.249Z" fill="#C9CEE2"/>
<path d="M453.801 232.789C454.599 232.329 455.253 232.697 455.253 233.607C455.263 234.537 454.609 235.651 453.812 236.111L446.892 240.077C446.095 240.547 445.44 240.179 445.44 239.259C445.44 238.339 446.084 237.225 446.882 236.765L453.801 232.789Z" fill="#C9CEE2"/>
<path d="M410.821 269.903C411.618 269.443 412.272 269.811 412.272 270.72C412.272 271.65 411.628 272.765 410.831 273.225L388.865 285.909C386.954 287.003 386.923 283.701 388.855 282.587L410.821 269.903Z" fill="#C9CEE2"/>
<path d="M426.694 260.744C427.492 260.284 428.146 260.642 428.146 261.562C428.146 262.492 427.502 263.606 426.705 264.066L415.451 270.557C414.654 271.027 413.999 270.659 413.989 269.729C413.989 268.819 414.643 267.705 415.441 267.245L426.694 260.744Z" fill="#F45170"/>
<path d="M440.002 252.956C440.8 252.496 441.454 252.864 441.454 253.773C441.464 254.704 440.81 255.818 440.013 256.278L431.325 261.398C430.527 261.858 429.873 261.501 429.873 260.571C429.863 259.661 430.517 258.547 431.314 258.087L440.002 252.956Z" fill="#C9CEE2"/>
<path d="M453.802 245.126C454.599 244.666 455.253 245.034 455.253 245.944C455.263 246.874 454.609 247.988 453.812 248.448L444.326 253.794C443.529 254.254 442.875 253.896 442.875 252.966C442.875 252.046 443.519 250.932 444.316 250.472L453.802 245.126Z" fill="#C9CEE2"/>
<path d="M410.821 282.291C411.618 281.831 412.272 282.199 412.272 283.109C412.272 284.039 411.628 285.153 410.831 285.613L388.865 298.287C386.954 299.391 386.923 296.09 388.855 294.975L410.821 282.291Z" fill="#C9CEE2"/>
<path d="M432.316 269.872C433.113 269.412 433.767 269.77 433.767 270.69C433.767 271.61 433.124 272.724 432.326 273.184L415.451 282.945C414.654 283.405 413.999 283.047 413.989 282.117C413.989 281.207 414.643 280.093 415.441 279.633L432.316 269.872Z" fill="#C9CEE2"/>
<path d="M442.568 263.974C443.365 263.514 444.02 263.872 444.02 264.792C444.02 265.712 443.376 266.826 442.578 267.286L436.947 270.526C436.149 270.986 435.495 270.628 435.495 269.698C435.495 268.778 436.139 267.664 436.936 267.204L442.568 263.974Z" fill="#C9CEE2"/>
<path d="M453.801 257.514C454.599 257.054 455.253 257.422 455.253 258.332C455.263 259.262 454.609 260.376 453.812 260.836L446.892 264.812C446.095 265.272 445.44 264.904 445.44 263.985C445.44 263.065 446.084 261.95 446.882 261.491L453.801 257.514Z" fill="#57B3FE"/>
<path d="M405.065 297.96C405.863 297.5 406.517 297.868 406.517 298.778C406.517 299.708 405.873 300.822 405.076 301.282L388.865 310.675C388.067 311.135 387.413 310.778 387.413 309.847C387.403 308.938 388.057 307.824 388.854 307.364L405.065 297.96Z" fill="#C9CEE2"/>
<path d="M426.694 285.521C427.491 285.061 428.145 285.419 428.145 286.339C428.145 287.269 427.501 288.383 426.704 288.843L409.696 298.625C408.898 299.084 408.244 298.717 408.244 297.797C408.234 296.877 408.888 295.763 409.685 295.303L426.694 285.521Z" fill="#DBA660"/>
<path d="M442.568 276.363C443.365 275.903 444.019 276.26 444.019 277.18C444.019 278.1 443.375 279.214 442.578 279.674L431.325 286.175C430.527 286.635 429.873 286.277 429.873 285.347C429.863 284.427 430.517 283.323 431.314 282.863L442.568 276.363Z" fill="#C9CEE2"/>
<path d="M453.8 269.903C454.598 269.443 455.252 269.811 455.252 270.72C455.262 271.651 454.608 272.765 453.811 273.225L446.891 277.191C446.094 277.661 445.439 277.293 445.439 276.363C445.439 275.453 446.083 274.339 446.881 273.879L453.8 269.903Z" fill="#C9CEE2"/>
<path d="M397.44 315.03C398.452 314.447 399.26 314.917 399.27 316.072L399.29 325.68C399.3 326.835 398.483 328.246 397.481 328.828L389.11 333.653C388.108 334.235 387.29 333.765 387.29 332.61L387.26 323.002C387.26 321.847 388.067 320.447 389.079 319.864L397.44 315.03Z" fill="#57B3FE"/>
<path d="M440.799 291.838V293.575L402.479 315.571L402.469 313.834L440.799 291.838Z" fill="#E3E7F0"/>
<path d="M447.494 297.531V299.269L402.51 325.118L402.5 323.381L447.494 297.531Z" fill="#E3E7F0"/>
<path d="M458.226 286.553L458.236 288.291L402.489 320.345V318.617L458.226 286.553Z" fill="#E3E7F0"/>
<path d="M397.042 320.611L392.473 328.542C392.34 328.757 392.064 328.839 391.839 328.706L389.682 327.479C389.458 327.346 389.386 327.06 389.509 326.856C389.631 326.631 389.918 326.549 390.142 326.672L391.9 327.684L396.245 320.14C396.377 319.926 396.664 319.854 396.878 319.977C397.103 320.099 397.175 320.386 397.042 320.611Z" fill="white"/>
<path d="M456.826 193.161C456.846 200.388 451.766 209.188 445.48 212.817C439.184 216.456 434.063 213.532 434.053 206.316C434.032 199.079 439.102 190.279 445.398 186.65L445.439 199.734L456.826 193.161Z" fill="#B28AFD"/>
<path d="M144.597 169.703C144.413 169.611 144.188 169.509 143.974 169.479C144.158 169.509 144.321 169.581 144.474 169.642L144.597 169.703Z" fill="#FEBC1F"/>
<path d="M146.6 205.171C146.6 209.014 143.912 213.696 140.539 215.638L113.125 231.45C111.439 232.452 109.885 232.544 108.791 231.89L108.72 231.859L108.444 231.665L103.599 228.854C102.505 228.231 101.821 226.892 101.821 224.949L101.729 193.509C101.729 189.635 104.417 184.923 107.79 182.981L135.193 167.169C136.88 166.197 138.382 166.105 139.506 166.729L144.474 169.642C144.321 169.581 144.157 169.509 143.973 169.479C144.188 169.509 144.413 169.611 144.597 169.703C145.752 170.327 146.477 171.697 146.508 173.7L146.6 205.171Z" fill="#FEBC1F"/>
<path d="M144.596 169.703C144.412 169.611 144.187 169.509 143.973 169.479C144.157 169.509 144.32 169.581 144.474 169.642L144.596 169.703Z" fill="#FEBC1F"/>
<path d="M140.396 170.194C143.769 168.252 146.488 169.836 146.498 173.71L146.58 205.151C146.6 209.025 143.891 213.696 140.529 215.648L113.125 231.46C109.763 233.413 107.044 231.859 107.033 227.985L106.941 196.545C106.931 192.671 109.63 187.959 113.003 186.017L140.396 170.194Z" fill="#FFD06C"/>
<path d="M108.802 231.9C107.708 231.266 107.033 229.917 107.033 227.985L106.941 196.544C106.931 192.671 109.63 187.959 113.003 186.017L140.396 170.194C142.082 169.223 143.605 169.131 144.709 169.775L139.496 166.749C138.392 166.105 136.869 166.198 135.183 167.169L107.79 182.981C104.417 184.933 101.718 189.645 101.729 193.519L101.821 224.96C101.821 226.881 102.495 228.23 103.589 228.864L108.802 231.9Z" fill="#FEBC1F"/>
<path d="M126.709 199.989C133.384 196.136 138.893 199.1 138.914 206.735L114.607 220.769C114.587 213.134 120.066 203.822 126.709 199.989Z" fill="white"/>
<path d="M126.669 185.577C129.715 183.819 132.199 185.209 132.209 188.664C132.219 192.201 129.746 196.412 126.7 198.17C123.695 199.907 121.201 198.558 121.19 195.032C121.18 191.567 123.654 187.315 126.669 185.577Z" fill="white"/>
<path d="M113.054 318.842L113.064 321.459L110.785 322.767L110.774 320.151L113.054 318.842Z" fill="#9EA9C9"/>
<path fill-rule="evenodd" clip-rule="evenodd" d="M139.159 284.611L134.498 287.299L134.488 285.296L119.595 293.892C129.776 291.746 137.217 298.287 137.513 310.941L139.23 309.95L139.251 315.306L134.58 318.004L134.569 312.638L136.307 311.636C135.939 296.693 125.115 290.713 111.858 298.369C98.6109 306.015 87.8581 324.454 87.5719 339.765L89.3095 338.774L89.3198 344.13L84.6589 346.828L84.6384 341.462L86.376 340.46C86.6009 327.51 93.9704 312.413 104.12 302.836L89.2278 311.432L89.238 313.435L84.5669 316.123L84.5566 310.747L89.2175 308.059L89.2278 310.052L134.488 283.916L134.477 281.923L139.149 279.235L139.159 284.611ZM88.1034 340.849L85.8445 342.157L85.8547 344.753L88.1136 343.445L88.1034 340.849ZM138.024 312.025L135.765 313.333L135.776 315.929L138.034 314.631L138.024 312.025ZM88.0217 312.73L88.0114 310.144L85.7525 311.452V314.038L88.0217 312.73ZM135.684 282.628V285.214L137.953 283.906L137.942 281.32L135.684 282.628Z" fill="#9EA9C9"/>
<path d="M112.461 300.771L125.922 317.626C125.514 317.943 117.704 323.932 117.5 331.476L117.521 338.406L106.43 344.815L106.41 337.885C106.175 330.587 98.3556 333.622 97.9365 333.786L111.255 301.466L111.306 318.464L109.568 319.466L109.589 324.842L114.27 322.144L114.25 316.767L112.502 317.769L112.461 300.771Z" fill="#9EA9C9"/>
</svg>
