<svg width="480" height="480" viewBox="0 0 480 480" fill="none" xmlns="http://www.w3.org/2000/svg">
<g clip-path="url(#clip0_521_5877)">
<rect width="480" height="480" rx="24" fill="#E6F3FF"/>
<path d="M-63.0307 40.797C-37.594 54.942 19.0022 75.7464 41.8932 45.8042C70.5069 8.37643 41.7034 0.871287 33.2448 19.5475C24.7861 38.2237 66.9969 63.6025 108.765 25.1247C142.179 -5.65749 157.787 -53.1176 161.414 -72.9999" stroke="#0487FF" stroke-dasharray="6 6"/>
<path d="M479.529 315.123C454.601 330.146 408.389 368.881 422.967 403.637C441.189 447.083 462.034 425.835 450.045 409.203C438.056 392.572 395.035 416.553 407.622 471.93C417.691 516.232 451.088 553.391 466.527 566.432" stroke="#0487FF" stroke-dasharray="6 6"/>
<path d="M63.5371 178.049H207.628V196.995H63.5371V178.049Z" fill="#263238"/>
<path d="M207.628 197.9H63.5375C63.0379 197.9 62.6328 197.495 62.6328 196.995V178.049C62.6328 177.549 63.0378 177.144 63.5375 177.144H207.628C208.128 177.144 208.533 177.549 208.533 178.049V196.995C208.533 197.495 208.128 197.9 207.628 197.9ZM64.4422 196.091H206.724V178.953H64.4422V196.091Z" fill="#263238"/>
<path d="M165.069 184.899C166.517 184.899 167.693 186.073 167.693 187.523C167.693 188.971 166.517 190.147 165.069 190.147C163.619 190.147 162.445 188.971 162.445 187.523C162.445 186.073 163.619 184.899 165.069 184.899Z" fill="white"/>
<path d="M179.068 184.899C180.518 184.899 181.692 186.073 181.692 187.523C181.692 188.971 180.518 190.146 179.068 190.146C177.62 190.146 176.444 188.971 176.444 187.523C176.444 186.073 177.62 184.899 179.068 184.899Z" fill="white"/>
<path d="M193.069 184.899C194.517 184.899 195.693 186.073 195.693 187.523C195.693 188.971 194.517 190.146 193.069 190.146C191.619 190.146 190.445 188.971 190.445 187.523C190.445 186.073 191.619 184.899 193.069 184.899Z" fill="white"/>
<path d="M63.5371 203.05H207.628V293.501H63.5371V203.05Z" fill="white"/>
<path d="M207.628 294.406H63.5375C63.0379 294.406 62.6328 294.001 62.6328 293.502V203.05C62.6328 202.551 63.0378 202.146 63.5375 202.146H207.628C208.128 202.146 208.533 202.551 208.533 203.05V293.502C208.533 294.001 208.128 294.406 207.628 294.406ZM64.4422 292.597H206.724V203.955H64.4422V292.597Z" fill="#263238"/>
<path d="M198.482 221.902H189.758V213.176H198.482V221.902Z" fill="#FF9933" stroke="#263238"/>
<path d="M198.482 238.004H189.758V229.28H198.482V238.004Z" fill="#F72E70" stroke="#263238"/>
<path d="M198.482 254.108H189.758V245.382H198.482V254.108Z" fill="#7DA3FB" stroke="#263238"/>
<path d="M198.482 270.212H189.758V261.486H198.482V270.212Z" fill="#67CFB0" stroke="#263238"/>
<path d="M161.088 243.767C160.995 243.767 160.901 243.752 160.81 243.723L154.852 241.795C154.576 241.706 154.359 241.489 154.27 241.213L149.036 225.039C148.932 224.716 149.017 224.362 149.257 224.121C149.498 223.881 149.852 223.796 150.175 223.9L166.349 229.134C166.625 229.223 166.842 229.44 166.931 229.716L168.859 235.674C168.963 235.998 168.878 236.352 168.638 236.593L161.728 243.502C161.556 243.674 161.325 243.767 161.088 243.767ZM155.849 240.216L160.84 241.831L166.967 235.704L165.352 230.713L151.303 226.167L155.849 240.216Z" fill="#263238"/>
<path d="M161.871 237.64C161.639 237.64 161.408 237.552 161.231 237.375L149.256 225.401C148.903 225.047 148.903 224.475 149.256 224.121C149.61 223.768 150.182 223.768 150.536 224.121L162.51 236.096C162.864 236.449 162.864 237.022 162.51 237.375C162.334 237.552 162.102 237.64 161.871 237.64Z" fill="#263238"/>
<path d="M156.46 231.325C157.617 230.167 159.494 230.167 160.652 231.325C161.811 232.481 161.811 234.359 160.652 235.517C159.494 236.675 157.617 236.675 156.46 235.517C155.302 234.359 155.302 232.481 156.46 231.325Z" fill="#263238"/>
<path d="M163.254 240.699L165.834 238.118L170.507 242.791L167.927 245.371L163.254 240.699Z" fill="#263238"/>
<path d="M167.926 246.276C167.686 246.276 167.456 246.181 167.286 246.011L162.614 241.338C162.26 240.985 162.26 240.412 162.614 240.059L165.194 237.478C165.364 237.309 165.594 237.213 165.834 237.213C166.074 237.213 166.304 237.309 166.473 237.478L171.146 242.151C171.5 242.505 171.5 243.077 171.146 243.431L168.566 246.011C168.396 246.181 168.166 246.276 167.926 246.276ZM164.533 240.698L167.926 244.092L169.227 242.791L165.834 239.398L164.533 240.698Z" fill="#263238"/>
<path d="M111.918 224.761C124.851 224.761 135.433 235.342 135.433 248.275V271.79H88.4023V248.275C88.4023 235.342 98.9844 224.761 111.918 224.761Z" fill="#52D180"/>
<path d="M135.432 272.695H88.4018C87.9022 272.695 87.4971 272.29 87.4971 271.79V248.275C87.4971 234.811 98.4518 223.857 111.917 223.857C125.382 223.857 136.337 234.811 136.337 248.275V271.79C136.337 272.29 135.932 272.695 135.432 272.695ZM89.3065 270.886H134.528V248.275C134.528 235.808 124.385 225.666 111.917 225.666C99.4496 225.666 89.3065 235.808 89.3065 248.275V270.886Z" fill="#263238"/>
<path d="M144.747 225.666H79.0873C78.5877 225.666 78.1826 225.261 78.1826 224.761C78.1826 224.262 78.5877 223.857 79.0873 223.857H144.747C145.246 223.857 145.652 224.262 145.652 224.761C145.652 225.261 145.246 225.666 144.747 225.666Z" fill="#263238"/>
<path d="M108.751 221.595H115.082V227.927H108.751V221.595Z" fill="#263238"/>
<path d="M115.083 228.832H108.751C108.252 228.832 107.847 228.426 107.847 227.927V221.596C107.847 221.096 108.252 220.691 108.751 220.691H115.083C115.582 220.691 115.987 221.096 115.987 221.596V227.927C115.987 228.427 115.582 228.832 115.083 228.832ZM109.656 227.022H114.178V222.5H109.656V227.022Z" fill="#263238"/>
<path d="M79.0875 227.017C77.8439 227.017 76.832 226.005 76.832 224.761C76.832 223.518 77.8439 222.506 79.0875 222.506C80.3314 222.506 81.3432 223.518 81.3432 224.761C81.3432 226.005 80.3314 227.017 79.0875 227.017ZM79.0875 224.315C78.8415 224.315 78.6414 224.515 78.6414 224.761C78.6414 225.007 78.8417 225.207 79.0875 225.207C79.3338 225.207 79.5338 225.007 79.5338 224.761C79.5338 224.515 79.3336 224.315 79.0875 224.315Z" fill="#263238"/>
<path d="M144.747 227.017C143.504 227.017 142.493 226.005 142.493 224.761C142.493 223.518 143.504 222.506 144.747 222.506C145.991 222.506 147.003 223.518 147.003 224.761C147.003 226.005 145.991 227.017 144.747 227.017ZM144.747 224.315C144.502 224.315 144.303 224.515 144.303 224.761C144.303 225.007 144.502 225.207 144.747 225.207C144.993 225.207 145.194 225.007 145.194 224.761C145.194 224.515 144.993 224.315 144.747 224.315Z" fill="#263238"/>
<path d="M106.97 364.074C106.822 364.074 106.671 364.038 106.532 363.961L100.616 360.686C100.179 360.444 100.021 359.893 100.263 359.456C100.505 359.019 101.055 358.861 101.492 359.103L107.409 362.378C107.846 362.62 108.004 363.17 107.762 363.607C107.597 363.906 107.288 364.074 106.97 364.074Z" fill="white"/>
<path d="M244.457 166.526H106.805C106.305 166.526 105.9 166.12 105.9 165.621V131.777C105.9 131.277 106.306 130.872 106.805 130.872H244.457C244.957 130.872 245.362 131.277 245.362 131.777V165.621C245.362 166.12 244.957 166.526 244.457 166.526ZM107.71 164.716H243.552V132.682H107.71V164.716Z" fill="#263238"/>
<path d="M129.021 152.966H115.571C115.071 152.966 114.666 152.561 114.666 152.061V138.612C114.666 138.112 115.071 137.707 115.571 137.707H129.021C129.521 137.707 129.926 138.112 129.926 138.612V152.061C129.926 152.561 129.521 152.966 129.021 152.966ZM116.475 151.156H128.117V139.517H116.475V151.156Z" fill="#263238"/>
<path d="M122.296 145.336H135.747V158.786H122.296V145.336Z" fill="#0487FF"/>
<path d="M135.747 159.691H122.296C121.797 159.691 121.392 159.286 121.392 158.786V145.336C121.392 144.836 121.797 144.431 122.296 144.431H135.747C136.247 144.431 136.652 144.836 136.652 145.336V158.786C136.652 159.286 136.247 159.691 135.747 159.691ZM123.201 157.882H134.842V146.24H123.201V157.882Z" fill="#263238"/>
<path d="M145.549 142.352H235.691V145.77H145.549V142.352Z" fill="#263238"/>
<path d="M145.549 151.628H235.691V155.044H145.549V151.628Z" fill="#263238"/>
<path d="M314.352 145.804H323.401C324.662 145.804 325.691 146.834 325.691 148.093V152.615C325.691 153.875 324.661 154.905 323.401 154.905H314.352C313.093 154.905 312.063 153.875 312.063 152.615V148.093C312.063 146.834 313.093 145.804 314.352 145.804Z" fill="#263238"/>
<path d="M326.269 141.891C326.193 142.27 326.135 142.577 326.095 142.8H318.878H311.66C311.62 142.577 311.562 142.27 311.486 141.891C311.318 141.055 311.058 139.869 310.691 138.47C309.96 135.674 308.8 132.008 307.089 128.559L307.08 128.543L307.071 128.526C306.825 128.113 306.599 127.688 306.396 127.252V127.249L306.351 127.151C305.567 125.424 305.13 123.505 305.13 121.481V121.481C305.13 113.89 311.286 107.734 318.877 107.734C326.469 107.734 332.625 113.889 332.625 121.481C332.625 123.501 332.189 125.418 331.408 127.142L331.406 127.146L331.402 127.155C331.19 127.625 330.949 128.082 330.685 128.526L330.675 128.542L330.666 128.559C328.955 132.008 327.795 135.674 327.064 138.47C326.698 139.869 326.438 141.055 326.269 141.891Z" fill="#0487FF" stroke="#263238"/>
<path d="M316.799 144.205C316.354 144.205 315.966 143.875 315.904 143.421L312.601 119.059C312.534 118.564 312.881 118.108 313.376 118.041C313.871 117.974 314.327 118.321 314.394 118.816L317.697 143.178C317.764 143.674 317.417 144.129 316.922 144.196C316.881 144.202 316.84 144.205 316.799 144.205Z" fill="white"/>
<path d="M320.956 144.205C320.915 144.205 320.874 144.202 320.833 144.196C320.338 144.129 319.991 143.673 320.058 143.178L323.361 118.816C323.428 118.32 323.883 117.973 324.379 118.041C324.874 118.108 325.221 118.563 325.154 119.058L321.851 143.421C321.79 143.875 321.401 144.205 320.956 144.205Z" fill="white"/>
<path d="M326.999 123.962H310.756C310.257 123.962 309.852 123.558 309.852 123.058C309.852 122.558 310.257 122.153 310.756 122.153H326.999C327.499 122.153 327.904 122.558 327.904 123.058C327.904 123.558 327.499 123.962 326.999 123.962Z" fill="white"/>
<path d="M311.31 143.3H326.443C327.606 143.3 328.558 144.252 328.558 145.413V149.588C328.558 150.751 327.606 151.701 326.443 151.701H311.31C310.148 151.701 309.196 150.751 309.196 149.588V145.413C309.196 144.252 310.148 143.3 311.31 143.3Z" fill="#263238"/>
<path d="M326.291 148.043H309.701C309.401 148.043 309.158 147.8 309.158 147.501C309.158 147.201 309.401 146.958 309.701 146.958H326.291C326.591 146.958 326.834 147.201 326.834 147.501C326.834 147.8 326.59 148.043 326.291 148.043Z" fill="white"/>
<path d="M325.692 152.244H312.064C311.764 152.244 311.521 152.001 311.521 151.701C311.521 151.401 311.764 151.158 312.064 151.158H325.692C325.992 151.158 326.235 151.401 326.235 151.701C326.235 152.001 325.992 152.244 325.692 152.244Z" fill="white"/>
<path d="M318.877 104.292C318.378 104.292 317.973 103.887 317.973 103.387V94.9047C317.973 94.4049 318.378 94 318.877 94C319.377 94 319.782 94.4049 319.782 94.9047V103.387C319.782 103.887 319.377 104.292 318.877 104.292Z" fill="#0487FF"/>
<path d="M309.803 106.723C309.491 106.723 309.187 106.561 309.019 106.271L304.779 98.9254C304.529 98.4927 304.677 97.9395 305.11 97.6896C305.542 97.4399 306.096 97.5884 306.345 98.0207L310.586 105.366C310.836 105.799 310.687 106.352 310.255 106.602C310.112 106.684 309.957 106.723 309.803 106.723Z" fill="#0487FF"/>
<path d="M341.939 135.754C341.785 135.754 341.63 135.715 341.487 135.632L334.142 131.392C333.709 131.142 333.561 130.589 333.811 130.156C334.061 129.723 334.614 129.575 335.047 129.825L342.392 134.065C342.825 134.315 342.973 134.868 342.723 135.301C342.556 135.591 342.251 135.754 341.939 135.754Z" fill="#0487FF"/>
<path d="M303.16 113.365C303.006 113.365 302.851 113.326 302.708 113.244L295.363 109.003C294.93 108.754 294.782 108.2 295.032 107.767C295.281 107.335 295.835 107.186 296.267 107.436L303.613 111.677C304.045 111.926 304.194 112.48 303.944 112.913C303.776 113.203 303.472 113.365 303.16 113.365Z" fill="#0487FF"/>
<path d="M345.506 122.44H337.025C336.525 122.44 336.12 122.035 336.12 121.535C336.12 121.036 336.525 120.631 337.025 120.631H345.506C346.005 120.631 346.41 121.036 346.41 121.535C346.41 122.035 346.005 122.44 345.506 122.44Z" fill="#0487FF"/>
<path d="M300.729 122.44H292.248C291.749 122.44 291.344 122.035 291.344 121.535C291.344 121.036 291.749 120.631 292.248 120.631H300.729C301.229 120.631 301.634 121.036 301.634 121.535C301.634 122.035 301.229 122.44 300.729 122.44Z" fill="#0487FF"/>
<path d="M334.595 113.365C334.282 113.365 333.978 113.203 333.811 112.913C333.561 112.48 333.709 111.927 334.142 111.677L341.487 107.436C341.92 107.187 342.473 107.335 342.723 107.768C342.973 108.2 342.824 108.754 342.392 109.003L335.046 113.244C334.904 113.326 334.749 113.365 334.595 113.365Z" fill="#0487FF"/>
<path d="M295.816 135.754C295.503 135.754 295.199 135.591 295.032 135.301C294.782 134.868 294.93 134.315 295.363 134.065L302.708 129.825C303.141 129.575 303.694 129.723 303.944 130.156C304.194 130.589 304.045 131.142 303.613 131.392L296.267 135.632C296.125 135.715 295.969 135.754 295.816 135.754Z" fill="#0487FF"/>
<path d="M327.949 106.723C327.796 106.723 327.64 106.684 327.497 106.602C327.065 106.352 326.916 105.799 327.166 105.366L331.409 98.0207C331.658 97.5882 332.212 97.4399 332.644 97.6898C333.077 97.9396 333.226 98.493 332.975 98.9256L328.733 106.271C328.566 106.561 328.262 106.723 327.949 106.723Z" fill="#0487FF"/>
<path d="M234.451 332.384L234.539 331.887L234.047 331.799C234.539 331.887 234.539 331.886 234.539 331.886L234.539 331.885L234.54 331.88L234.543 331.862L234.556 331.79L234.607 331.505C234.651 331.254 234.717 330.885 234.802 330.409C234.972 329.457 235.219 328.081 235.527 326.381C236.143 322.981 237.001 318.288 237.972 313.115C239.915 302.765 242.308 290.504 244.114 282.829C245.889 275.287 250.117 270.91 253.897 268.412C255.79 267.161 257.572 266.38 258.879 265.913C259.533 265.68 260.066 265.525 260.434 265.429C260.618 265.381 260.76 265.348 260.855 265.327C260.903 265.316 260.938 265.309 260.961 265.304L260.97 265.302C265.83 264.904 269.642 265.577 272.613 267.119C275.584 268.66 277.757 271.093 279.299 274.291C282.4 280.722 282.924 290.193 282.201 301.494C281.87 306.667 281.615 310.944 281.39 314.71C280.633 327.409 280.222 334.301 278.41 350.193C277.246 360.394 273.139 367.587 267.476 371.967C261.81 376.349 254.535 377.956 246.96 376.887C239.294 375.804 222.355 372.327 207.313 369.116C199.796 367.511 192.76 365.974 187.602 364.838C185.023 364.27 182.915 363.802 181.451 363.477C180.718 363.314 180.148 363.187 179.76 363.1L179.509 363.044C178.435 354.445 180.116 344.506 182.097 336.648C183.099 332.673 184.175 329.243 185 326.808C185.412 325.591 185.762 324.622 186.008 323.959C186.104 323.699 186.185 323.487 186.247 323.324L233.954 332.291L234.451 332.384Z" fill="#E9E9E9" stroke="#263238"/>
<path d="M313.44 259.964L313.44 259.964L313.44 259.964L313.473 259.975L313.508 259.981L313.597 259.489L313.508 259.981L313.508 259.981L313.508 259.981L313.51 259.981L313.517 259.983L313.547 259.988L313.664 260.009L314.119 260.093C314.516 260.166 315.096 260.273 315.827 260.409C317.289 260.681 319.355 261.07 321.771 261.536C328.194 262.775 337.08 264.559 343.671 266.155C343.702 266.162 343.796 266.202 343.926 266.406C344.055 266.608 344.185 266.916 344.307 267.348C344.55 268.211 344.729 269.46 344.846 271.063C345.079 274.26 345.054 278.759 344.837 284.134C344.404 294.881 343.208 309.067 341.804 323.213C340.401 337.356 338.791 351.451 337.531 362.01C336.902 367.29 336.36 371.685 335.976 374.76C335.783 376.298 335.631 377.506 335.526 378.329C335.482 378.672 335.447 378.949 335.42 379.154H265.688L265.67 379.003L265.472 377.31C265.301 375.843 265.054 373.729 264.753 371.14C264.152 365.96 263.332 358.88 262.462 351.273C260.721 336.058 258.777 318.746 257.963 310.34L257.465 310.388L257.963 310.34C257.154 301.986 258.007 290.636 259.07 281.346C259.6 276.707 260.181 272.592 260.63 269.638C260.855 268.16 261.046 266.973 261.181 266.156C261.248 265.747 261.302 265.431 261.338 265.217C261.341 265.199 261.344 265.181 261.347 265.164C261.407 265.14 261.478 265.112 261.559 265.081C261.868 264.959 262.33 264.783 262.935 264.564C264.144 264.126 265.927 263.519 268.212 262.843C272.781 261.493 279.359 259.871 287.379 258.79L287.319 258.348L287.379 258.79C295.379 257.711 301.907 258.008 306.429 258.574C308.69 258.856 310.449 259.206 311.64 259.484C312.235 259.623 312.689 259.744 312.991 259.83C313.143 259.872 313.257 259.906 313.332 259.93C313.369 259.941 313.397 259.95 313.415 259.956L313.435 259.962L313.439 259.963L313.44 259.964Z" fill="#E9E9E9" stroke="#263238"/>
<path d="M336.358 375.727C336.044 378.234 335.86 379.655 335.86 379.655H265.242C265.242 379.655 264.788 375.784 264.095 369.812L336.358 375.727Z" fill="#E9E9E9"/>
<path d="M265.242 378.972C264.788 378.972 264.397 378.632 264.344 378.171C264.034 375.485 256.749 312.335 256.338 307.247C256.198 305.532 256.182 302.948 256.292 299.567C256.308 299.068 256.719 298.675 257.225 298.692C257.724 298.708 258.116 299.126 258.1 299.625C257.993 302.938 258.007 305.453 258.141 307.101C258.55 312.159 266.065 377.306 266.141 377.964C266.199 378.46 265.843 378.909 265.346 378.966C265.311 378.97 265.276 378.972 265.242 378.972Z" fill="#263238"/>
<path d="M281.84 261.537L281.84 261.537L281.865 261.481L281.877 261.421L286.808 235.347C286.876 235.326 286.956 235.302 287.047 235.274C287.391 235.171 287.901 235.025 288.563 234.854C289.887 234.512 291.818 234.069 294.236 233.671C298.979 232.89 305.591 232.282 313.173 232.936V232.949V232.967V232.985V233.004V233.023V233.043V233.063V233.083V233.103V233.124V233.145V233.166V233.188V233.21V233.232V233.254V233.277V233.3V233.324V233.348V233.372V233.396V233.421V233.446V233.471V233.497V233.522V233.549V233.575V233.602V233.629V233.656V233.684V233.712V233.74V233.768V233.797V233.826V233.856V233.885V233.915V233.945V233.976V234.006V234.037V234.069V234.1V234.132V234.164V234.197V234.229V234.262V234.295V234.329V234.363V234.396V234.431V234.465V234.5V234.535V234.57V234.606V234.642V234.678V234.714V234.75V234.787V234.824V234.862V234.899V234.937V234.975V235.013V235.052V235.091V235.13V235.169V235.208V235.248V235.288V235.328V235.369V235.409V235.45V235.491V235.533V235.574V235.616V235.658V235.701V235.743V235.786V235.829V235.872V235.915V235.959V236.003V236.047V236.091V236.135V236.18V236.225V236.27V236.315V236.361V236.407V236.453V236.499V236.545V236.592V236.638V236.685V236.733V236.78V236.827V236.875V236.923V236.971V237.02V237.068V237.117V237.166V237.215V237.264V237.314V237.363V237.413V237.463V237.513V237.564V237.614V237.665V237.716V237.767V237.818V237.87V237.922V237.973V238.025V238.077V238.13V238.182V238.235V238.288V238.341V238.394V238.447V238.501V238.554V238.608V238.662V238.716V238.77V238.825V238.879V238.934V238.989V239.044V239.099V239.154V239.21V239.265V239.321V239.377V239.433V239.489V239.545V239.602V239.658V239.715V239.772V239.829V239.886V239.943V240.001V240.058V240.116V240.174V240.232V240.29V240.348V240.406V240.464V240.523V240.582V240.64V240.699V240.758V240.817V240.877V240.936V240.995V241.055V241.115V241.174V241.234V241.294V241.354V241.415V241.475V241.535V241.596V241.656V241.717V241.778V241.839V241.9V241.961V242.022V242.083V242.145V242.206V242.268V242.329V242.391V242.453V242.515V242.577V242.639V242.701V242.763V242.825V242.888V242.95V243.012V243.075V243.138V243.2V243.263V243.326V243.389V243.452V243.515V243.578V243.641V243.705V243.768V243.831V243.895V243.958V244.022V244.086V244.149V244.213V244.277V244.341V244.404V244.468V244.532V244.596V244.661V244.725V244.789V244.853V244.917V244.982V245.046V245.11V245.175V245.239V245.304V245.368V245.433V245.497V245.562V245.626V245.691V245.756V245.82V245.885V245.95V246.015V246.08V246.144V246.209V246.274V246.339V246.404V246.469V246.534V246.599V246.664V246.729V246.794V246.859V246.923V246.988V247.053V247.118V247.183V247.248V247.313V247.378V247.443V247.508V247.573V247.638V247.703V247.768V247.833V247.898V247.963V248.028V248.093V248.158V248.223V248.288V248.353V248.418V248.482V248.547V248.612V248.677V248.741V248.806V248.871V248.935V249V249.065V249.129V249.194V249.258V249.323V249.387V249.452V249.516V249.58V249.644V249.709V249.773V249.837V249.901V249.965V250.029V250.093V250.157V250.221V250.285V250.349V250.412V250.476V250.54V250.603V250.667V250.73V250.793V250.857V250.92V250.983V251.046V251.109V251.172V251.235V251.298V251.361V251.424V251.486V251.549V251.611V251.674V251.736V251.798V251.86V251.923V251.985V252.046V252.108V252.17V252.232V252.293V252.355V252.416V252.478V252.539V252.6V252.661V252.722V252.783V252.844V252.904V252.965V253.025V253.086V253.146V253.206V253.266V253.326V253.386V253.446V253.505V253.565V253.624V253.684V253.743V253.802V253.861V253.92V253.978V254.037V254.095V254.154V254.212V254.27V254.328V254.386V254.444V254.501V254.559V254.616V254.673V254.73V254.787V254.844V254.901V254.957V255.014V255.07V255.126V255.182V255.238V255.294V255.349V255.405V255.46V255.515V255.57V255.625V255.68V255.734V255.788V255.843V255.897V255.951V256.004V256.058V256.111V256.165V256.218V256.271V256.323V256.376V256.428V256.481V256.533V256.585V256.636V256.688V256.739V256.791V256.842V256.892V256.943V256.994V257.044V257.094V257.144V257.194V257.243V257.293V257.342V257.391V257.44C313.173 261.538 312.19 267.674 308.889 272.769C305.609 277.833 300.02 281.902 290.7 281.902C286.043 281.902 283.244 280.612 281.605 278.776C279.957 276.93 279.398 274.439 279.421 271.869C279.443 269.303 280.044 266.721 280.648 264.768C280.948 263.795 281.248 262.984 281.472 262.417C281.583 262.134 281.676 261.912 281.741 261.762C281.773 261.687 281.798 261.63 281.815 261.592L281.834 261.549L281.839 261.539L281.84 261.537L281.84 261.537Z" fill="white" stroke="#263238"/>
<path d="M313.674 232.478V243.642C313.674 257.44 303.189 264.764 281.386 261.328L286.373 234.961C286.373 234.961 298.026 231.032 313.674 232.478Z" fill="#263238"/>
<g clip-path="url(#clip1_521_5877)">
<path d="M224.5 312L210 318L209 318.5L208.5 320V321.5L209.5 322.5L211.5 323.5L212.5 323L221 319L221.5 320L221 320.5L217 322.5L211.5 326L210.5 327L210 328.5L210.5 330.5L212 331.5H213.5L215 331L225.5 326V327L216.5 334.5L216 336L216.5 338L218 339L219.5 339.5L220.5 339L222 338L224.5 335.5L231.5 330.5L232 331L225 339.5V341L226.5 342.5L228 343H229.5L231 342L233.5 339.5L235.5 338L241 347.5L243 349L259 357L275 368.5L290.5 344.5L271.5 334.5L267 332L264 329L259.5 325.5L254.5 320.5L247.5 315.5L245.5 313.5L243 312L239 310L236.5 309.5H234.5H232.5L229 310.5L224.5 312Z" fill="white"/>
<path d="M267.153 332.16L267.203 332.208L267.265 332.241L290.585 344.557L274.818 368.529L259.187 357.115L259.145 357.085L259.098 357.063M267.153 332.16L267.498 331.799C267.153 332.16 267.153 332.16 267.153 332.16ZM267.153 332.16L267.152 332.159L267.149 332.156L267.137 332.145L267.091 332.101C267.049 332.061 266.988 332.003 266.907 331.927C266.746 331.774 266.508 331.549 266.203 331.263C265.593 330.69 264.712 329.869 263.632 328.878C261.473 326.897 258.518 324.239 255.335 321.528C252.15 318.817 248.744 316.059 245.681 313.876C244.15 312.784 242.71 311.841 241.432 311.12C240.146 310.395 239.052 309.912 238.205 309.717C236.478 309.319 234.202 309.493 231.639 310.04C229.088 310.585 226.306 311.487 223.593 312.495C220.882 313.503 218.252 314.613 216.002 315.572C215.801 315.658 215.603 315.743 215.407 315.826C213.432 316.67 211.773 317.378 210.691 317.742M210.691 317.742C209.634 318.098 209.027 318.684 208.733 319.306C208.435 319.934 208.431 320.649 208.675 321.305C209.16 322.609 210.613 323.638 212.571 323.077M210.691 317.742L210.531 317.268M212.571 323.077L212.709 323.557M212.571 323.077L219.698 319.985L221.201 319.098L221.725 319.95M259.098 357.063L258.892 357.519C259.098 357.063 259.098 357.063 259.098 357.063ZM259.098 357.063L259.095 357.062L259.089 357.059L259.061 357.047L258.955 356.999C258.861 356.956 258.724 356.894 258.547 356.813C258.193 356.653 257.684 356.42 257.061 356.133C255.816 355.558 254.117 354.766 252.305 353.895C248.663 352.145 244.615 350.101 242.826 348.863C241.094 347.666 239.313 345.165 237.942 342.892C237.263 341.768 236.698 340.721 236.302 339.955C236.104 339.573 235.948 339.26 235.843 339.045C235.79 338.937 235.749 338.853 235.722 338.796L235.692 338.732L235.685 338.716L235.683 338.713L235.682 338.712L235.437 338.187L234.954 338.506M234.954 338.506L235.229 338.923C234.954 338.506 234.954 338.506 234.954 338.506ZM234.954 338.506L234.951 338.507L234.947 338.511L234.931 338.521C234.917 338.531 234.897 338.544 234.872 338.562C234.82 338.598 234.745 338.651 234.645 338.723C234.447 338.866 234.154 339.085 233.771 339.388C233.004 339.994 231.875 340.939 230.412 342.301C229.163 343.464 227.612 343.331 226.471 342.576C225.295 341.799 224.735 340.506 225.229 339.449C225.524 338.816 226.085 337.98 226.785 337.062C227.479 336.152 228.289 335.188 229.063 334.305C229.837 333.422 230.572 332.624 231.113 332.046C231.384 331.757 231.606 331.524 231.76 331.363C231.837 331.283 231.897 331.22 231.938 331.178L231.984 331.13L231.996 331.118L231.999 331.115L232 331.114M232 331.114L231.642 330.765M232 331.114L231.364 330.35M231.642 330.765C231.364 330.349 231.364 330.35 231.364 330.35M231.642 330.765L231.364 330.35M221.725 319.95L221.455 319.529C221.725 319.95 221.725 319.95 221.725 319.95ZM221.725 319.95L221.724 319.951L221.721 319.952L221.711 319.959L221.672 319.983C221.638 320.005 221.589 320.036 221.524 320.075C221.395 320.155 221.207 320.269 220.967 320.41C220.75 320.537 220.491 320.687 220.196 320.852L211.154 326.184C210.648 326.546 210.296 327.162 210.157 327.886C210.017 328.616 210.104 329.408 210.422 330.063C210.736 330.709 211.273 331.219 212.059 331.433C212.854 331.648 213.967 331.576 215.449 330.92L225.274 326.078L225.777 326.939M225.777 326.939L225.495 326.527M225.777 326.939L225.776 326.94L225.773 326.942L225.759 326.952L225.703 326.99C225.654 327.024 225.581 327.075 225.488 327.14C225.301 327.271 225.031 327.461 224.7 327.7C224.037 328.177 223.129 328.845 222.15 329.61C220.175 331.151 217.963 333.043 216.845 334.541M216.845 334.541L216.444 334.242M216.845 334.541C215.871 335.845 216.272 337.591 217.401 338.613C217.954 339.115 218.656 339.412 219.409 339.385C220.156 339.358 221.014 339.01 221.877 338.107C223.776 336.123 226.151 334.183 228.041 332.744C228.989 332.023 229.818 331.426 230.411 331.008C230.708 330.799 230.945 330.635 231.109 330.523C231.191 330.467 231.254 330.424 231.298 330.394L231.347 330.361L231.36 330.353L231.363 330.35L231.364 330.35" stroke="#263238"/>
</g>
<path d="M221.993 320.302C221.787 320.302 221.59 320.184 221.499 319.984C221.375 319.711 221.495 319.389 221.768 319.265C230.231 315.412 233.96 313.9 233.997 313.885C234.275 313.773 234.591 313.907 234.703 314.185C234.816 314.463 234.682 314.779 234.404 314.892C234.367 314.906 230.655 316.412 222.218 320.253C222.145 320.286 222.068 320.302 221.993 320.302Z" fill="#263238"/>
<path d="M225.595 327.46C225.41 327.46 225.231 327.365 225.129 327.196C224.975 326.939 225.059 326.605 225.316 326.451C230.915 323.098 237.727 319.089 238.38 319.034C238.677 319.011 238.941 319.231 238.966 319.53C238.99 319.812 238.792 320.063 238.518 320.11C237.724 320.366 230.357 324.697 225.873 327.382C225.786 327.435 225.69 327.46 225.595 327.46Z" fill="#263238"/>
<path d="M232.179 331.538C232.001 331.538 231.827 331.451 231.723 331.291C231.56 331.039 231.632 330.703 231.883 330.54L241.406 324.374C241.657 324.211 241.994 324.283 242.157 324.535C242.319 324.786 242.248 325.122 241.996 325.285L232.473 331.451C232.382 331.51 232.28 331.538 232.179 331.538Z" fill="#263238"/>
<path d="M235.767 339.696C235.614 339.696 235.462 339.632 235.355 339.507C235.159 339.28 235.185 338.937 235.412 338.742L244.567 330.871C244.794 330.675 245.137 330.701 245.332 330.929C245.528 331.156 245.502 331.498 245.275 331.694L236.12 339.565C236.018 339.653 235.892 339.696 235.767 339.696Z" fill="#263238"/>
<path d="M242.851 341.541C242.749 341.541 242.647 341.512 242.555 341.453C242.336 341.311 240.429 339.897 240.897 334.233C240.922 333.934 241.185 333.709 241.482 333.737C241.781 333.762 242.003 334.024 241.978 334.323C241.562 339.363 243.131 340.533 243.147 340.543C243.398 340.707 243.469 341.043 243.306 341.294C243.202 341.454 243.028 341.541 242.851 341.541Z" fill="#263238"/>
<path d="M327.168 336.057L266.668 325.557C257.468 339.557 256.501 361.723 257.168 371.057C277.501 373.39 321.668 378.257 335.668 379.057C353.168 380.057 360.168 367.057 364.668 356.057C368.268 347.257 367.834 338.057 367.168 334.557C365.001 318.89 360.468 286.557 359.668 282.557C358.668 277.557 352.168 265.057 338.668 266.057C327.868 266.857 325.501 277.057 325.668 282.057L327.168 336.057Z" fill="#E9E9E9" stroke="#263238"/>
<path d="M329.999 299H321.499C321.499 298 321.299 293.4 320.499 283C319.699 272.6 327.999 266 331.499 264L344.999 267C342.166 267.833 335.899 271.5 331.499 277.5C327.099 283.5 328.666 294.333 329.999 299Z" fill="#E9E9E9"/>
<path d="M326.426 336.213C325.936 336.213 325.533 335.822 325.522 335.329L324.727 299.863C324.716 299.364 325.112 298.95 325.611 298.938C325.618 298.938 325.625 298.938 325.632 298.938C326.122 298.938 326.525 299.33 326.536 299.823L327.331 335.288C327.342 335.788 326.946 336.202 326.447 336.213C326.44 336.213 326.433 336.213 326.426 336.213Z" fill="#263238"/>
<path d="M339.275 345.882C338.951 345.882 338.638 345.708 338.475 345.402C334.135 337.232 326.396 336.216 326.318 336.207C326.304 336.205 326.29 336.203 326.275 336.201L266.221 326.072C265.728 325.989 265.396 325.522 265.48 325.029C265.563 324.537 266.028 324.205 266.522 324.288L326.557 334.413C327.164 334.491 335.373 335.704 340.073 344.553C340.307 344.994 340.14 345.542 339.698 345.777C339.563 345.848 339.418 345.882 339.275 345.882Z" fill="#263238"/>
<path d="M256.786 372.209C256.302 372.209 255.901 371.827 255.882 371.339C255.219 354.376 257.889 342.615 260.245 335.736C262.822 328.213 265.551 324.758 265.666 324.614C265.978 324.224 266.547 324.162 266.937 324.474C267.327 324.786 267.39 325.354 267.079 325.744C267.052 325.778 264.391 329.17 261.916 336.441C259.63 343.16 257.04 354.656 257.69 371.268C257.71 371.768 257.321 372.188 256.822 372.208C256.81 372.209 256.798 372.209 256.786 372.209Z" fill="#263238"/>
<path d="M267.565 373.435C267.077 373.435 266.675 373.047 266.661 372.556C266.287 359.672 268.19 349.211 269.853 342.704C271.66 335.63 273.535 331.657 273.614 331.492C273.829 331.041 274.369 330.849 274.82 331.064C275.271 331.279 275.463 331.819 275.248 332.27C275.162 332.45 267.768 348.314 268.469 372.504C268.484 373.003 268.091 373.42 267.591 373.434C267.582 373.435 267.573 373.435 267.565 373.435Z" fill="#263238"/>
<path d="M176.106 379.655H278.053C278.336 379.655 278.567 379.424 278.567 379.143V372.503C278.567 372.221 278.336 371.99 278.053 371.99H176.106C175.825 371.99 175.594 372.221 175.594 372.503V379.143C175.594 379.424 175.825 379.655 176.106 379.655Z" fill="#263238"/>
<path d="M101.613 290.652L101.613 290.652C101.138 287.44 103.357 284.847 106.552 284.847H196.77C200.026 284.847 203.113 287.532 203.597 290.798L215.811 373.35C216.286 376.564 214.068 379.155 210.872 379.155H120.654C117.398 379.155 114.311 376.472 113.827 373.204L101.613 290.652Z" fill="#0487FF" stroke="#263238"/>
<path d="M160.216 343.069C154.18 343.069 148.545 338.163 147.653 332.133C147.21 329.133 147.976 326.309 149.811 324.183C151.62 322.087 154.247 320.933 157.208 320.933C163.243 320.933 168.879 325.839 169.77 331.869C170.215 334.868 169.449 337.691 167.615 339.817C165.806 341.914 163.178 343.069 160.216 343.069ZM157.208 322.742C154.781 322.742 152.64 323.674 151.18 325.365C149.695 327.087 149.078 329.397 149.443 331.869C150.209 337.047 155.041 341.26 160.216 341.26C162.643 341.26 164.785 340.328 166.245 338.635C167.73 336.914 168.347 334.605 167.98 332.134C167.215 326.955 162.382 322.742 157.208 322.742Z" fill="white"/>
<path d="M266.228 206.141C266.228 206.141 266.228 206.141 265.728 206.141H266.228C266.228 197.23 269.382 191.241 274.547 187.461C279.739 183.661 287.033 182.04 295.393 182.04C303.776 182.04 310.041 183.215 314.197 185.7C318.306 188.156 320.397 191.919 320.397 197.276V197.341V197.406V197.47V197.535V197.6V197.664V197.729V197.794V197.859V197.924V197.989V198.053V198.118V198.183V198.248V198.313V198.378V198.443V198.508V198.573V198.638V198.703V198.768V198.834V198.899V198.964V199.029V199.094V199.159V199.225V199.29V199.355V199.42V199.486V199.551V199.616V199.682V199.747V199.812V199.878V199.943V200.009V200.074V200.14V200.205V200.271V200.336V200.402V200.467V200.533V200.598V200.664V200.73V200.795V200.861V200.927V200.992V201.058V201.124V201.19V201.255V201.321V201.387V201.453V201.518V201.584V201.65V201.716V201.782V201.848V201.914V201.98V202.046V202.112V202.178V202.244V202.31V202.376V202.442V202.508V202.574V202.64V202.706V202.772V202.838V202.904V202.97V203.036V203.103V203.169V203.235V203.301V203.367V203.434V203.5V203.566V203.632V203.699V203.765V203.831V203.898V203.964V204.03V204.097V204.163V204.229V204.296V204.362V204.429V204.495V204.562V204.628V204.695V204.761V204.827V204.894V204.961V205.027V205.094V205.16V205.227V205.293V205.36V205.426V205.493V205.56V205.626V205.693V205.76V205.826V205.893V205.96V206.026V206.093V206.16V206.226V206.293V206.36V206.427V206.493V206.56V206.627V206.694V206.76V206.827V206.894V206.961V207.028V207.095V207.161V207.228V207.295V207.362V207.429V207.496V207.563V207.63V207.696V207.763V207.83V207.897V207.964V208.031V208.098V208.165V208.232V208.299V208.366V208.433V208.5V208.567V208.634V208.701V208.768V208.835V208.902V208.969V209.036V209.103V209.17V209.237V209.305V209.372V209.439V209.506V209.573V209.64V209.707V209.774V209.841V209.909V209.976V210.043V210.11V210.177V210.244V210.311V210.379V210.446V210.513V210.58V210.647V210.715V210.782V210.849V210.916V210.983V211.051V211.118V211.185V211.252V211.319V211.387V211.454V211.521V211.588V211.656V211.723V211.79V211.857V211.925V211.992V212.059V212.126V212.194V212.261V212.328V212.395V212.463V212.53V212.597V212.665V212.732V212.799V212.866V212.934V213.001V213.068V213.136V213.203V213.27V213.337V213.405V213.472V213.539V213.607V213.674V213.741V213.809V213.876V213.943V214.01V214.078V214.145V214.212V214.28V214.347V214.414V214.482V214.549V214.616V214.684V214.751V214.818V214.885V214.953V215.02V215.087V215.155V215.222V215.289V215.357V215.424V215.491V215.558V215.626V215.693V215.76V215.828V215.895V215.962V216.029V216.097V216.164V216.231V216.298V216.366V216.433V216.5V216.568V216.635V216.702V216.769V216.837V216.904V216.971V217.038V217.106V217.173V217.24V217.307V217.374V217.442V217.509V217.576V217.643V217.71V217.778V217.845V217.912V217.979V218.046V218.114V218.181V218.248V218.315V218.382V218.449V218.517V218.584V218.651V218.718V218.785V218.852V218.919V218.986V219.054V219.121V219.188V219.255V219.322V219.389V219.456V219.523V219.59V219.657V219.724V219.791V219.858V219.925V219.992V220.059V220.126V220.193V220.26V220.327V220.394V220.461V220.528V220.595V220.662V220.729V220.796V220.863V220.93V220.997V221.064V221.131V221.197V221.264V221.331V221.398V221.465V221.532V221.599V221.665V221.732V221.799V221.866V221.933V221.999V222.066V222.133V222.2V222.266V222.333V222.4V222.466V222.533V222.6V222.667V222.733V222.8V222.866V222.933V223V223.066V223.133V223.2V223.266V223.333V223.399V223.466V223.532V223.599V223.665V223.732V223.798V223.865V223.931V223.998V224.064V224.131V224.197V224.264V224.33V224.396V224.463V224.529V224.595V224.662V224.728V224.794V224.861V224.927V224.993V225.06V225.126V225.192V225.258V225.324V225.391V225.457V225.523V225.589V225.655V225.721V225.788V225.854V225.92V225.986V226.052V226.118V226.184V226.25V226.316V226.382V226.448V226.514V226.58V226.646V226.712V226.778V226.843V226.909V226.975V227.041V227.107V227.173V227.238V227.304V227.37V227.436V227.501V227.567V227.633V227.698V227.764V227.83V227.895V227.961V228.027V228.092V228.158V228.223V228.289V228.354V228.42V228.485V228.551V228.616V228.682V228.747V228.812V228.878V228.943V229.008V229.074V229.139V229.204V229.27V229.335V229.4V229.465V229.53V229.596V229.661V229.726V229.791V229.856V229.921V229.986V230.051V230.116V230.181V230.246V230.311V230.376V230.441V230.506V230.571V230.636V230.701V230.765V230.83V230.895V230.96V231.025V231.089V231.154V231.219V231.283C320.397 236.705 318.662 243.323 314.273 248.576C309.899 253.812 302.853 257.735 292.136 257.735C281.352 257.735 274.905 255.173 271.148 251.371C267.39 247.57 266.228 242.435 266.228 237.071V237.007V236.943V236.879V236.815V236.75V236.686V236.621V236.556V236.49V236.425V236.359V236.293V236.227V236.161V236.094V236.027V235.96V235.893V235.826V235.759V235.691V235.623V235.555V235.487V235.419V235.35V235.281V235.212V235.143V235.074V235.005V234.935V234.865V234.795V234.725V234.655V234.585V234.514V234.443V234.372V234.301V234.23V234.159V234.087V234.015V233.944V233.872V233.799V233.727V233.655V233.582V233.509V233.437V233.364V233.29V233.217V233.144V233.07V232.996V232.923V232.849V232.775V232.7V232.626V232.551V232.477V232.402V232.327V232.252V232.177V232.102V232.027V231.951V231.876V231.8V231.724V231.648V231.572V231.496V231.42V231.343V231.267V231.19V231.114V231.037V230.96V230.883V230.806V230.729V230.652V230.574V230.497V230.42V230.342V230.264V230.186V230.109V230.031V229.953V229.874V229.796V229.718V229.64V229.561V229.483V229.404V229.326V229.247V229.168V229.089V229.01V228.931V228.852V228.773V228.694V228.615V228.535V228.456V228.377V228.297V228.218V228.138V228.058V227.979V227.899V227.819V227.739V227.66V227.58V227.5V227.42V227.34V227.26V227.18V227.099V227.019V226.939V226.859V226.778V226.698V226.618V226.537V226.457V226.377V226.296V226.216V226.135V226.055V225.974V225.894V225.813V225.733V225.652V225.572V225.491V225.411V225.33V225.249V225.169V225.088V225.008V224.927V224.846V224.766V224.685V224.605V224.524V224.443V224.363V224.282V224.202V224.121V224.041V223.96V223.88V223.799V223.719V223.638V223.558V223.477V223.397V223.317V223.236V223.156V223.076V222.996V222.916V222.835V222.755V222.675V222.595V222.515V222.435V222.355V222.275V222.196V222.116V222.036V221.956V221.877V221.797V221.718V221.638V221.559V221.479V221.4V221.321V221.241V221.162V221.083V221.004V220.925V220.846V220.768V220.689V220.61V220.532V220.453V220.375V220.296V220.218V220.14V220.062V219.983V219.905V219.828V219.75V219.672V219.594V219.517V219.439V219.362V219.285V219.208V219.131V219.054V218.977V218.9V218.823V218.747V218.67V218.594V218.517V218.441V218.365V218.289V218.213V218.138V218.062V217.987V217.911V217.836V217.761V217.686V217.611V217.536V217.461V217.387V217.312V217.238V217.164V217.09V217.016V216.942V216.869V216.795V216.722V216.649V216.576V216.503V216.43V216.357V216.285V216.213V216.14V216.068V215.996V215.925V215.853V215.782V215.71V215.639V215.568V215.497V215.427V215.356V215.286V215.216V215.146V215.076V215.006V214.937V214.868V214.798V214.729V214.661V214.592V214.524V214.455V214.387V214.319V214.252V214.184V214.117V214.05V213.983V213.916V213.849V213.783V213.717V213.651V213.585V213.519V213.454V213.389V213.324V213.259V213.194V213.13V213.066V213.002V212.938V212.874V212.811V212.748V212.685V212.622V212.56V212.498V212.436V212.374V212.312V212.251V212.19V212.129V212.068V212.007V211.947V211.887V211.827V211.768V211.709V211.649V211.591V211.532V211.474V211.416V211.358V211.3V211.243V211.186V211.129V211.072V211.016V210.96V210.904V210.848V210.793V210.738V210.683V210.628V210.574V210.52V210.466V210.412V210.359V210.306V210.253V210.201V210.149V210.097V210.045V209.994V209.943V209.892V209.841V209.791V209.741V209.692V209.642V209.593V209.544V209.496V209.448V209.4V209.352V209.305V209.258V209.211V209.164V209.118V209.072V209.027V208.981V208.936V208.892V208.848V208.803V208.76V208.716V208.673V208.63V208.588V208.546V208.504V208.463V208.421V208.38V208.34V208.3V208.26V208.22V208.181V208.142V208.104V208.065V208.027V207.99V207.953V207.916V207.879V207.843V207.807V207.771V207.736V207.701V207.667V207.633V207.599V207.565V207.532V207.5V207.467V207.435V207.404V207.372V207.341V207.311V207.28V207.251V207.221V207.192V207.163V207.135V207.107V207.079V207.052V207.025V206.998V206.972V206.946V206.921V206.896V206.871V206.847V206.823V206.8V206.777V206.754V206.731V206.71V206.688V206.667V206.646V206.626V206.606V206.586V206.567V206.548V206.53V206.512V206.495V206.477V206.461V206.444V206.428V206.413V206.398V206.383V206.369V206.355V206.342V206.329V206.316V206.304V206.292V206.281V206.27V206.26V206.25V206.24V206.231V206.222V206.214V206.206V206.199V206.192V206.185V206.179V206.174V206.168V206.164V206.159V206.155V206.152V206.149V206.147V206.145V206.143V206.142V206.141Z" fill="white" stroke="#263238"/>
<path d="M304.617 207.044C304.617 207.044 278.207 207.044 265.727 207.044C253.247 207.044 248.724 195.106 254.874 185.158C261.025 175.209 268.259 171.049 281.465 174.666C294.669 178.285 327.589 166.707 326.323 189.499C326.323 189.499 333.92 186.967 333.92 205.054C333.92 223.143 320.621 235.144 320.621 235.144L305.883 224.589C305.883 224.589 300.096 221.787 304.617 207.044Z" fill="#263238"/>
<path d="M317.061 217.492L317.061 217.492C318.975 217.636 320.566 218.768 321.657 220.419C322.749 222.073 323.313 224.216 323.167 226.285C323.023 228.349 322.177 230.308 320.488 231.647C318.8 232.986 316.203 233.76 312.453 233.319L312.44 233.317L312.427 233.316L312.427 233.316L312.427 233.316L312.427 233.316L312.423 233.316L312.405 233.315C312.389 233.313 312.364 233.311 312.331 233.308C312.265 233.302 312.167 233.293 312.041 233.278C311.791 233.248 311.433 233.198 311.01 233.118C310.16 232.955 309.063 232.671 308.041 232.187C307.015 231.701 306.108 231.034 305.576 230.128C305.057 229.244 304.859 228.07 305.36 226.474L305.364 226.464C305.37 226.447 305.381 226.421 305.395 226.387C305.423 226.318 305.466 226.216 305.524 226.085C305.641 225.823 305.817 225.448 306.055 224.997C306.531 224.096 307.251 222.903 308.223 221.733C310.174 219.386 313.084 217.193 317.061 217.492Z" fill="white" stroke="#263238"/>
<path d="M317.325 229.203C317.244 229.203 317.161 229.192 317.079 229.169C315.725 228.788 311.677 228.643 310.232 228.62C309.872 228.614 309.55 228.395 309.411 228.063C309.273 227.73 309.345 227.348 309.594 227.088C312.311 224.261 317.194 221.683 317.401 221.574C317.843 221.342 318.39 221.513 318.622 221.955C318.854 222.397 318.684 222.944 318.242 223.177C318.203 223.197 315.053 224.861 312.523 226.883C314.241 226.961 316.469 227.118 317.57 227.428C318.051 227.563 318.331 228.063 318.195 228.544C318.083 228.943 317.72 229.203 317.325 229.203Z" fill="#263238"/>
<path d="M270.521 221.788C271.556 221.788 272.402 222.634 272.402 223.669V226.418C272.402 227.451 271.556 228.298 270.521 228.298C269.486 228.298 268.641 227.451 268.641 226.418V223.669C268.64 222.634 269.486 221.788 270.521 221.788Z" fill="#263238"/>
<path d="M286.982 221.495C288.108 221.495 289.032 222.417 289.032 223.544V226.541C289.032 227.67 288.109 228.592 286.982 228.592C285.855 228.592 284.931 227.67 284.931 226.541V223.544C284.931 222.417 285.854 221.495 286.982 221.495Z" fill="#263238"/>
<path d="M275.676 236.917C274.436 236.917 273.413 236.573 272.62 235.889C270.861 234.369 271.035 231.778 271.044 231.668C271.07 231.318 271.298 231.014 271.627 230.89L274.381 229.852L276.356 225.103C276.548 224.642 277.077 224.423 277.539 224.615C278 224.807 278.218 225.337 278.027 225.798L275.901 230.908C275.805 231.139 275.619 231.32 275.385 231.408L272.863 232.358C272.916 232.964 273.114 233.929 273.81 234.525C274.518 235.132 275.65 235.265 277.174 234.923C277.661 234.813 278.145 235.119 278.255 235.607C278.365 236.094 278.058 236.578 277.571 236.688C276.892 236.84 276.26 236.917 275.676 236.917Z" fill="#263238"/>
<path d="M277.493 240.478L277.536 240.478L277.578 240.472L277.502 239.978C277.578 240.472 277.578 240.472 277.579 240.472L277.579 240.472L277.58 240.472L277.583 240.471L277.593 240.47L277.628 240.464C277.658 240.459 277.702 240.451 277.758 240.441C277.87 240.42 278.031 240.389 278.232 240.344C278.634 240.255 279.197 240.115 279.845 239.908C281.136 239.495 282.797 238.809 284.203 237.716C284.473 237.505 284.708 237.428 284.896 237.42C285.081 237.411 285.259 237.467 285.426 237.59C285.774 237.846 286.081 238.407 286.136 239.191C286.241 240.714 285.355 242.941 282.238 244.396L282.238 244.396C280.692 245.118 279.417 245.167 278.439 244.886C277.457 244.603 276.734 243.976 276.314 243.273C275.885 242.558 275.797 241.818 275.983 241.306C276.074 241.058 276.23 240.856 276.458 240.714C276.689 240.57 277.023 240.469 277.493 240.478Z" fill="white" stroke="#263238"/>
<path d="M265.314 216.563C265.314 216.563 269.952 216.235 272.138 216.374C274.322 216.511 274.566 212.858 271.133 212.337C267.7 211.814 262.556 216.671 265.314 216.563Z" fill="#263238"/>
<path d="M293.316 216.034C293.316 216.034 286.427 216.049 283.184 216.352C279.938 216.652 279.584 213.004 284.681 212.224C289.777 211.446 297.411 215.938 293.316 216.034Z" fill="#263238"/>
<path d="M286.287 204.054H267.071C262.665 204.054 258.677 201.949 256.664 198.561C254.825 195.465 254.913 191.738 256.912 188.066C257.151 187.627 257.7 187.465 258.139 187.704C258.578 187.943 258.74 188.492 258.501 188.931C256.819 192.02 256.719 195.112 258.22 197.637C259.883 200.436 263.357 202.244 267.071 202.244H286.287C286.787 202.244 287.192 202.65 287.192 203.149C287.192 203.649 286.787 204.054 286.287 204.054Z" fill="white"/>
<path d="M354.904 172.35H381.656V201.279H354.904V172.35Z" fill="#0487FF"/>
<path d="M381.657 202.184H354.905C354.405 202.184 354 201.779 354 201.279V172.35C354 171.85 354.405 171.445 354.905 171.445H381.657C382.156 171.445 382.562 171.85 382.562 172.35V201.279C382.561 201.779 382.156 202.184 381.657 202.184ZM355.809 200.374H380.752V173.254H355.809V200.374Z" fill="#263238"/>
<path d="M366.104 167.295H370.459V176.937H366.104V167.295Z" fill="white"/>
<path d="M370.458 177.842H366.103C365.603 177.842 365.198 177.437 365.198 176.937V167.295C365.198 166.795 365.603 166.39 366.103 166.39H370.458C370.958 166.39 371.363 166.795 371.363 167.295V176.937C371.363 177.437 370.958 177.842 370.458 177.842ZM367.008 176.033H369.553V168.2H367.008V176.033Z" fill="#263238"/>
<path d="M387.254 197.857H414.006V226.786H387.254V197.857Z" fill="#52D180"/>
<path d="M414.006 227.691H387.254C386.755 227.691 386.35 227.286 386.35 226.787V197.857C386.35 197.357 386.755 196.952 387.254 196.952H414.007C414.506 196.952 414.911 197.357 414.911 197.857V226.787C414.911 227.286 414.506 227.691 414.006 227.691ZM388.159 225.882H413.102V198.762H388.159V225.882Z" fill="#263238"/>
<path d="M398.453 192.802H402.808V202.447H398.453V192.802Z" fill="white"/>
<path d="M402.808 203.351H398.453C397.953 203.351 397.548 202.946 397.548 202.447V192.802C397.548 192.303 397.953 191.897 398.453 191.897H402.808C403.307 191.897 403.712 192.303 403.712 192.802V202.447C403.712 202.946 403.307 203.351 402.808 203.351ZM399.357 201.542H401.903V193.707H399.357V201.542Z" fill="#263238"/>
<path d="M43.931 379.655H436.068C437.734 379.655 439.095 381.018 439.095 382.683C439.095 384.349 437.734 385.712 436.068 385.712H43.931C42.2657 385.712 40.9043 384.349 40.9043 382.683C40.9043 381.018 42.2657 379.655 43.931 379.655Z" fill="white"/>
<path d="M436.069 386.617H43.9314C41.7637 386.617 40 384.852 40 382.684C40 380.515 41.7636 378.75 43.9314 378.75H436.069C438.236 378.75 440 380.515 440 382.684C440 384.852 438.236 386.617 436.069 386.617ZM43.9314 380.56C42.7613 380.56 41.8094 381.512 41.8094 382.683C41.8094 383.854 42.7613 384.807 43.9314 384.807H436.069C437.239 384.807 438.191 383.854 438.191 382.683C438.191 381.512 437.239 380.56 436.069 380.56H43.9314Z" fill="#263238"/>
</g>
<defs>
<clipPath id="clip0_521_5877">
<rect width="480" height="480" rx="24" fill="white"/>
</clipPath>
<clipPath id="clip1_521_5877">
<rect width="84" height="61" fill="white" transform="translate(208 309)"/>
</clipPath>
</defs>
</svg>
