<svg width="488" height="488" viewBox="0 0 488 488" fill="none" xmlns="http://www.w3.org/2000/svg">
<g clip-path="url(#clip0_540_376)">
<rect width="488" height="488" rx="24" fill="#E6F3FF"/>
<g filter="url(#filter0_dd_540_376)">
<rect x="40" y="132" width="120" height="120" rx="12" fill="white"/>
</g>
<g clip-path="url(#clip1_540_376)">
<path opacity="0.54" d="M83.1174 197.786H81.5371V185.582H88.7142V187.081H83.1176V191.088H88.1657V192.553H83.1176V197.786L83.1174 197.786ZM91.6856 187.338C91.3089 187.714 90.7173 187.773 90.2729 187.479C89.8284 187.186 89.6549 186.621 89.8586 186.131C90.0622 185.641 90.5862 185.363 91.11 185.465C91.6337 185.568 92.0113 186.024 92.0116 186.554C92.0167 186.849 91.8982 187.133 91.6843 187.338H91.6856ZM91.6856 197.786H90.1053V189.434H91.6856V197.786ZM95.1534 197.786H93.5731V189.434H95.0836V190.798H95.1521C95.3345 190.317 95.685 189.918 96.1394 189.673C96.5734 189.396 97.0754 189.243 97.5909 189.229C97.9957 189.218 98.3985 189.288 98.7755 189.434L98.1745 190.899C97.9034 190.81 97.6186 190.769 97.3334 190.779C96.7539 190.782 96.2024 191.027 95.8134 191.453C95.3725 191.902 95.1521 192.49 95.1521 193.217L95.1534 197.786ZM103.106 198.052C101.835 198.052 100.802 197.632 100.007 196.792C99.2119 195.951 98.8139 194.89 98.813 193.61C98.7897 192.458 99.2034 191.339 99.9721 190.474C100.708 189.614 101.797 189.132 102.934 189.161C104.182 189.161 105.181 189.565 105.931 190.372C106.681 191.179 107.056 192.258 107.055 193.61L107.038 193.901H100.39C100.436 194.741 100.72 195.407 101.241 195.898C101.729 196.373 102.386 196.636 103.069 196.63C104.202 196.63 104.969 196.153 105.37 195.199L106.779 195.778C106.493 196.438 106.022 197.003 105.422 197.405C104.792 197.837 104.02 198.052 103.105 198.052L103.106 198.052ZM105.373 192.593C105.339 192.115 105.119 191.661 104.712 191.229C104.305 190.798 103.7 190.587 102.897 190.596C102.34 190.586 101.798 190.78 101.377 191.141C100.935 191.526 100.626 192.038 100.493 192.606L105.373 192.593ZM112.765 198.052C112.167 198.064 111.575 197.927 111.045 197.653C110.579 197.42 110.185 197.067 109.903 196.63H109.835V197.786H108.323V185.582H109.903V189.434L109.835 190.593H109.903C110.185 190.157 110.579 189.803 111.045 189.57C111.575 189.293 112.166 189.153 112.765 189.161C113.852 189.161 114.791 189.588 115.582 190.44C116.372 191.292 116.767 192.349 116.766 193.61C116.766 194.872 116.372 195.929 115.582 196.781C114.792 197.633 113.853 198.057 112.765 198.052ZM112.507 196.621C113.227 196.627 113.915 196.326 114.396 195.794C114.923 195.243 115.186 194.513 115.186 193.604C115.186 192.695 114.923 191.964 114.396 191.413C113.909 190.888 113.224 190.588 112.505 190.587C111.786 190.585 111.099 190.882 110.61 191.405C110.09 191.95 109.829 192.683 109.829 193.604C109.829 194.524 110.092 195.259 110.618 195.809C111.102 196.338 111.792 196.636 112.512 196.628L112.507 196.621ZM120.79 198.052C119.895 198.052 119.148 197.797 118.549 197.285C117.95 196.774 117.65 196.098 117.648 195.257C117.648 194.348 118.003 193.636 118.713 193.119C119.423 192.602 120.299 192.344 121.34 192.344C122.267 192.344 123.027 192.514 123.62 192.855V192.617C123.643 192.056 123.409 191.514 122.984 191.143C122.552 190.773 121.995 190.578 121.424 190.596C120.987 190.59 120.557 190.702 120.179 190.919C119.825 191.114 119.554 191.429 119.415 191.806L117.972 191.192C118.167 190.691 118.551 190.225 119.125 189.797C119.699 189.368 120.453 189.155 121.392 189.157C122.466 189.157 123.36 189.468 124.075 190.09C124.791 190.711 125.146 191.592 125.141 192.731V197.786H123.625V196.628H123.556C122.926 197.578 122.004 198.051 120.791 198.051L120.79 198.052ZM121.047 196.621C121.711 196.619 122.349 196.361 122.826 195.903C123.335 195.478 123.629 194.851 123.631 194.191C123.184 193.827 122.513 193.645 121.619 193.645C120.851 193.645 120.273 193.81 119.884 194.139C119.521 194.416 119.306 194.843 119.301 195.297C119.293 195.693 119.497 196.063 119.837 196.269C120.195 196.508 120.617 196.633 121.047 196.628V196.621L121.047 196.621ZM129.787 198.052C128.848 198.052 128.073 197.825 127.461 197.371C126.866 196.934 126.402 196.345 126.119 195.666L127.528 195.087C127.975 196.133 128.735 196.656 129.809 196.656C130.235 196.673 130.656 196.56 131.016 196.332C131.312 196.149 131.491 195.826 131.488 195.48C131.488 194.935 131.104 194.565 130.335 194.372L128.636 193.963C128.076 193.816 127.555 193.552 127.108 193.188C126.631 192.819 126.363 192.245 126.386 191.646C126.386 190.908 126.715 190.308 127.373 189.848C128.062 189.379 128.882 189.138 129.717 189.159C130.414 189.148 131.101 189.322 131.708 189.663C132.28 189.986 132.723 190.495 132.961 191.104L131.588 191.661C131.28 190.922 130.638 190.553 129.665 190.553C129.25 190.539 128.84 190.64 128.48 190.843C128.185 190.995 128 191.297 128 191.627C128 192.105 128.372 192.429 129.116 192.6L130.781 192.992C131.57 193.17 132.154 193.481 132.533 193.924C132.899 194.339 133.1 194.872 133.099 195.424C133.106 196.159 132.762 196.855 132.172 197.299C131.554 197.801 130.758 198.052 129.785 198.052L129.787 198.052ZM138.287 198.052C137.016 198.052 135.983 197.632 135.188 196.792C134.393 195.951 133.995 194.888 133.994 193.604C133.971 192.451 134.384 191.332 135.153 190.468C135.892 189.61 136.982 189.13 138.119 189.161C139.371 189.161 140.37 189.565 141.116 190.372C141.862 191.179 142.237 192.258 142.24 193.61L142.223 193.901H135.57C135.616 194.741 135.899 195.407 136.421 195.898C136.91 196.373 137.569 196.636 138.253 196.628C139.386 196.628 140.153 196.15 140.554 195.196L141.962 195.775C141.677 196.436 141.206 197.001 140.606 197.403C139.976 197.836 139.202 198.052 138.287 198.052L138.287 198.052ZM140.554 192.593C140.52 192.115 140.3 191.661 139.893 191.229C139.486 190.798 138.882 190.587 138.08 190.596C137.523 190.586 136.982 190.78 136.56 191.141C136.118 191.526 135.809 192.038 135.676 192.606L140.554 192.593Z" fill="black"/>
<path d="M57.9102 198.723L60.816 180.129C60.8515 179.901 61.0289 179.721 61.2564 179.682C61.484 179.644 61.7107 179.755 61.8195 179.958L64.8247 185.563L66.0225 183.283C66.1153 183.106 66.2982 182.996 66.4974 182.996C66.6967 182.996 66.8796 183.106 66.9724 183.283L75.0822 198.723L57.9102 198.723Z" fill="#FFA000"/>
<path d="M67.9492 191.48L64.8233 185.561L57.9102 198.723L67.9492 191.48Z" fill="#F57C00"/>
<path d="M75.0823 198.723L72.8567 184.95C72.823 184.753 72.6819 184.59 72.4907 184.529C72.2996 184.468 72.0904 184.519 71.9484 184.66L57.9102 198.723L65.6779 203.079C66.1657 203.351 66.7597 203.351 67.2475 203.079L75.0823 198.723V198.723Z" fill="#FFCA28"/>
<path d="M72.8563 184.95C72.8226 184.753 72.6815 184.59 72.4903 184.529C72.2992 184.468 72.09 184.519 71.948 184.66L69.1618 187.454L66.9708 183.283C66.878 183.106 66.6951 182.996 66.4958 182.996C66.2966 182.996 66.1137 183.106 66.0209 183.283L64.8231 185.563L61.8178 179.958C61.7088 179.755 61.4818 179.644 61.254 179.683C61.0262 179.722 60.8494 179.902 60.8143 180.13L57.9098 198.723H57.9004L57.9098 198.734L57.9862 198.771L71.944 184.797C72.0859 184.655 72.2956 184.604 72.4872 184.665C72.6789 184.726 72.8203 184.889 72.8536 185.087L75.0605 198.736L75.0819 198.723L72.8563 184.95ZM57.9352 198.698L60.8156 180.262C60.8507 180.033 61.0279 179.853 61.2555 179.814C61.4831 179.775 61.7101 179.886 61.8193 180.09L64.8243 185.695L66.0221 183.414C66.1149 183.238 66.2978 183.128 66.4971 183.128C66.6963 183.128 66.8792 183.238 66.972 183.414L69.1185 187.497L57.9352 198.698Z" fill="white" fill-opacity="0.2"/>
<path opacity="0.2" d="M67.2475 202.948C66.7598 203.22 66.1657 203.22 65.6779 202.948L57.9289 198.604L57.9102 198.723L65.6779 203.078C66.1657 203.35 66.7597 203.35 67.2475 203.078L75.0823 198.723L75.0622 198.6L67.2475 202.948Z" fill="#A52714"/>
<path d="M72.8337 184.953C72.8002 184.755 72.6595 184.593 72.469 184.532C72.2786 184.471 72.0701 184.522 71.9286 184.664L69.1519 187.456L66.9688 183.286C66.8763 183.11 66.6941 183 66.4955 183C66.297 183 66.1147 183.11 66.0223 183.286L64.8284 185.566L61.8338 179.963C61.7252 179.76 61.499 179.649 61.2722 179.688C61.0454 179.727 60.8688 179.907 60.8338 180.135L57.9395 198.72L65.68 203.073C66.1661 203.345 66.7581 203.345 67.2442 203.073L75.0516 198.72L72.8337 184.953V184.953Z" fill="url(#paint0_linear_540_376)"/>
</g>
<g filter="url(#filter1_dd_540_376)">
<rect x="40" y="276" width="120" height="120" rx="12" fill="white"/>
</g>
<g clip-path="url(#clip2_540_376)">
<path d="M101.002 312.798C99.427 312.582 97.8091 312.435 96.2365 312.754C95.3116 312.905 94.4676 313.32 93.6235 313.699C91.0129 312.884 88.2069 312.349 85.4856 312.902C83.5657 313.278 81.7693 314.405 80.7451 316.091C79.4705 318.151 79.2589 320.677 79.4495 323.039C79.7896 325.696 80.4196 328.308 81.1611 330.879C81.8331 333.105 82.5948 335.334 83.8088 337.329C84.5083 338.439 85.4404 339.544 86.757 339.903C87.7917 340.195 88.9064 339.85 89.7157 339.178C90.1349 339.581 90.6228 339.917 91.1745 340.109C92.7463 340.649 94.5104 340.651 96.0596 340.027C96.1517 342.169 96.0741 344.386 96.8552 346.419C97.1718 347.391 97.7235 348.334 98.6039 348.894C99.557 349.529 100.768 349.637 101.872 349.438C102.882 349.246 103.906 348.986 104.787 348.437C105.708 347.871 106.411 346.999 106.856 346.021C107.854 343.828 107.902 341.371 108.039 339.008C110.328 339.14 112.759 338.624 114.51 337.065C115.198 336.485 115.785 335.58 115.524 334.645C115.316 333.767 114.391 333.235 113.525 333.292C112.642 333.35 111.785 333.633 110.894 333.633C112.874 330.195 114.42 326.472 115.134 322.558C115.405 320.926 115.585 319.215 115.134 317.598C114.882 316.657 114.202 315.924 113.533 315.253C112.019 313.752 110.029 312.77 107.937 312.393C105.634 311.956 103.253 312.208 101.002 312.798Z" fill="white"/>
<path d="M100.994 313.858C103.446 313.1 106.122 312.898 108.616 313.574C110.612 314.111 112.423 315.311 113.672 316.959C114.177 317.643 114.292 318.522 114.329 319.348C114.376 320.824 114.12 322.29 113.788 323.723C112.877 327.495 111.245 331.07 109.171 334.342C110.333 334.84 111.637 334.591 112.835 334.377C113.335 334.279 113.979 334.158 114.357 334.596C114.725 335.074 114.372 335.681 113.998 336.032C112.255 337.736 109.615 338.182 107.281 337.788C107.046 339.873 106.798 341.959 106.472 344.034C106.291 345.192 105.905 346.399 104.999 347.198C104.146 347.943 103.023 348.272 101.932 348.479C100.82 348.672 99.5701 348.512 98.6937 347.748C97.7648 346.926 97.2357 345.708 97.1186 344.485C96.8828 342.398 96.8723 340.293 96.8787 338.194C95.8755 339.058 94.542 339.502 93.2213 339.402C92.2892 339.325 91.2578 339.178 90.5583 338.498C90.1706 338.144 90.1916 337.472 90.6229 337.163C91.37 336.599 92.3635 336.643 93.2108 336.316C93.8393 336.132 94.1648 335.52 94.5606 335.051C93.8304 334.997 93.1163 334.811 92.4588 334.488C91.4516 335.561 90.4807 336.669 89.5373 337.8C88.9921 338.453 88.1868 339.006 87.2959 338.897C86.2943 338.775 85.5496 337.989 84.9898 337.211C83.8865 335.625 83.2055 333.797 82.5844 331.98C81.6434 329.067 80.9043 326.081 80.4754 323.047C80.263 320.762 80.4439 318.273 81.7751 316.324C82.8283 314.761 84.6708 313.91 86.5051 313.718C88.9719 313.46 91.4645 313.963 93.7811 314.797C95.7116 313.508 98.167 313.33 100.393 313.783C100.593 313.808 100.791 313.898 100.994 313.858ZM102.807 314.49C103.286 314.822 103.825 315.053 104.307 315.384C106.281 316.705 107.82 318.631 108.787 320.794C109.054 321.418 109.33 322.076 109.275 322.772C109.287 324.193 108.801 325.578 108.945 327.002C109.083 328.511 109.409 330.054 109.024 331.554C108.916 332.086 108.638 332.557 108.447 333.058C108.462 333.131 108.489 333.276 108.504 333.347C108.685 333.112 108.85 332.864 109.002 332.608C110.536 330.009 111.756 327.218 112.56 324.306C112.98 322.732 113.309 321.115 113.29 319.48C113.261 318.793 113.204 318.043 112.759 317.485C111.824 316.314 110.58 315.39 109.18 314.859C107.157 314.097 104.906 314.04 102.807 314.49ZM96.9732 314.687C95.4079 314.892 93.941 315.737 92.996 317.006C91.7101 318.71 91.1479 320.858 90.9848 322.957C92.2779 322.353 93.7342 321.788 95.1785 322.152C96.117 322.377 96.8222 323.197 97.0273 324.123C97.449 325.98 97.6768 327.937 97.2648 329.818C96.9474 331.337 96.0209 332.651 95.714 334.173C96.1057 334.204 96.5136 334.231 96.8634 334.427C97.5839 334.82 97.999 335.662 97.9546 336.472C97.9005 338.544 97.9029 340.616 98.0128 342.686C98.0774 343.543 98.1008 344.412 98.3278 345.245C98.6371 346.239 99.3269 347.257 100.421 347.45C101.572 347.627 102.762 347.3 103.786 346.78C104.786 346.252 105.236 345.127 105.408 344.069C105.77 341.86 106.021 339.635 106.275 337.411C106.384 336.618 106.229 335.746 106.672 335.032C106.924 334.574 107.421 334.359 107.867 334.133C107.494 333.655 107.1 333.19 106.807 332.656C105.706 330.381 104.214 328.23 103.754 325.7C103.556 324.635 103.67 323.369 104.55 322.626C105.52 321.792 106.881 321.841 108.082 321.883C107.36 319.842 106.02 318.026 104.324 316.686C102.27 315.07 99.5563 314.359 96.9732 314.687ZM85.9655 314.862C84.5294 315.131 83.1611 315.953 82.4285 317.243C81.4495 318.947 81.3429 320.999 81.5142 322.912C81.8583 325.427 82.4568 327.901 83.1652 330.335C83.7976 332.392 84.4898 334.464 85.636 336.298C86.06 336.922 86.5455 337.619 87.3072 337.838C87.9582 337.972 88.4751 337.436 88.8572 336.985C89.7231 335.917 90.6705 334.92 91.5639 333.875C90.2513 332.682 89.5422 330.864 89.7804 329.097C89.9702 327.743 90.0058 326.373 89.9226 325.009C89.7788 323.073 90.0543 321.112 90.6568 319.27C91.0994 317.89 91.8571 316.63 92.8312 315.56C90.6237 314.888 88.2651 314.419 85.9655 314.862ZM105.292 323.371C104.625 323.893 104.66 324.843 104.795 325.595C105.275 327.955 106.652 329.978 107.717 332.097C108.512 330.5 108.023 328.689 107.9 327.004C107.764 325.643 108.181 324.317 108.223 322.965C107.245 322.904 106.138 322.77 105.292 323.371ZM90.9484 324.243C90.971 325.378 91.051 326.513 90.9734 327.648C90.9395 328.651 90.6455 329.658 90.8709 330.659C91.2004 332.428 92.7819 333.999 94.6413 333.981C94.9143 333.088 95.2302 332.208 95.6203 331.36C96.7382 329.159 96.5573 326.573 95.9733 324.248C95.8141 323.593 95.1995 323.123 94.5339 323.094C93.2488 323.019 92.0089 323.557 90.9484 324.243ZM107.705 335.413C107.358 335.734 107.382 336.247 107.378 336.681C108.143 336.943 108.967 336.915 109.76 336.821C110.958 336.691 112.177 336.291 113.057 335.435C111.617 335.609 110.044 335.957 108.691 335.244C108.372 335.023 107.98 335.21 107.705 335.413ZM94.0743 337.071C93.2714 337.545 92.2981 337.515 91.4645 337.901C93.1527 338.762 95.4894 338.46 96.6574 336.879C97.2559 336.322 96.6768 335.147 95.8868 335.259C95.1599 335.732 94.8513 336.653 94.0743 337.071Z" fill="white"/>
<path d="M105.604 323.688C106.084 323.345 106.749 323.32 107.279 323.567C107.26 324.237 106.455 324.72 105.869 324.374C105.626 324.265 105.321 323.92 105.604 323.688Z" fill="white"/>
<path d="M93.928 323.727C94.4288 323.593 95.0281 323.658 95.4409 323.992C95.7293 324.227 95.4659 324.616 95.2155 324.756C94.6477 325.176 93.7447 324.765 93.6292 324.092C93.596 323.895 93.7665 323.784 93.928 323.727Z" fill="white"/>
<path d="M109.122 350.253C109.937 349.802 110.902 349.772 111.81 349.756C112.793 349.768 113.872 349.848 114.675 350.481C115.179 350.869 115.393 351.513 115.394 352.131C115.081 352.133 114.77 352.131 114.459 352.131C114.346 351.524 114.079 350.873 113.449 350.648C112.393 350.247 111.18 350.273 110.105 350.586C109.243 350.824 108.928 352.071 109.592 352.673C110.068 353.053 110.702 353.104 111.276 353.232C112.451 353.482 113.698 353.524 114.793 354.06C115.961 354.645 115.916 356.512 114.887 357.213C114.033 357.8 112.947 357.864 111.943 357.872C110.849 357.855 109.656 357.753 108.767 357.046C108.197 356.595 108.021 355.846 107.988 355.154C108.307 355.137 108.626 355.133 108.946 355.131C109.016 355.866 109.361 356.631 110.094 356.91C111.24 357.355 112.566 357.351 113.737 356.996C114.555 356.765 114.873 355.723 114.501 355.009C114.324 354.686 113.978 354.511 113.638 354.417C112.208 354.031 110.693 354.01 109.297 353.495C107.979 353.012 107.935 350.911 109.122 350.253Z" fill="#326690"/>
<path d="M118.013 350.336C119.105 349.78 120.369 349.693 121.571 349.792C122.712 349.886 123.874 350.309 124.646 351.184C125.604 352.216 125.776 353.776 125.416 355.092C125.222 355.83 124.703 356.413 124.147 356.908C124.586 357.227 125.042 357.521 125.481 357.843C125.285 358.032 125.083 358.216 124.876 358.393C124.412 358.095 123.987 357.74 123.507 357.469C123.137 357.469 122.798 357.693 122.428 357.745C121.4 357.927 120.332 357.939 119.305 357.738C118.186 357.515 117.11 356.887 116.507 355.898C115.91 354.932 115.833 353.713 116.106 352.631C116.36 351.63 117.099 350.795 118.013 350.336ZM119.504 350.514C118.438 350.762 117.445 351.505 117.099 352.573C116.734 353.722 116.861 355.108 117.694 356.03C118.426 356.86 119.555 357.234 120.639 357.251C121.839 357.291 123.151 356.947 123.94 355.989C125.019 354.603 124.894 352.292 123.452 351.198C122.361 350.311 120.828 350.231 119.504 350.514Z" fill="#326690"/>
<path d="M126.221 349.954C126.524 349.948 126.827 349.94 127.131 349.931C127.156 352.295 127.137 354.659 127.14 357.023C129.059 357.057 130.979 357.009 132.897 357.047C132.896 357.256 132.895 357.467 132.893 357.679C130.669 357.68 128.443 357.687 126.217 357.673C126.222 355.1 126.218 352.527 126.221 349.954Z" fill="#326690"/>
<path d="M102.807 314.49C104.906 314.04 107.157 314.098 109.18 314.859C110.58 315.391 111.825 316.314 112.759 317.485C113.204 318.043 113.261 318.793 113.29 319.48C113.309 321.115 112.981 322.732 112.56 324.306C111.756 327.218 110.536 330.01 109.002 332.608C108.85 332.864 108.685 333.112 108.504 333.347C108.489 333.276 108.462 333.13 108.447 333.058C108.638 332.557 108.916 332.086 109.025 331.554C109.409 330.054 109.083 328.512 108.945 327.002C108.801 325.577 109.287 324.192 109.275 322.772C109.331 322.076 109.055 321.418 108.787 320.794C107.819 318.631 106.281 316.706 104.307 315.384C103.825 315.052 103.286 314.822 102.807 314.49Z" fill="#326690"/>
<path d="M96.9725 314.687C99.5556 314.359 102.269 315.069 104.321 316.686C106.017 318.026 107.357 319.842 108.08 321.883C106.879 321.841 105.517 321.792 104.547 322.627C103.667 323.369 103.554 324.635 103.752 325.7C104.211 328.231 105.703 330.381 106.805 332.656C107.097 333.19 107.492 333.655 107.865 334.133C107.42 334.359 106.922 334.574 106.669 335.032C106.227 335.746 106.382 336.618 106.273 337.411C106.018 339.635 105.768 341.86 105.405 344.069C105.234 345.127 104.785 346.253 103.784 346.78C102.76 347.3 101.57 347.627 100.418 347.45C99.3246 347.258 98.6348 346.24 98.3255 345.245C98.0985 344.412 98.0751 343.543 98.0104 342.686C97.9014 340.616 97.8982 338.544 97.9523 336.472C97.9967 335.662 97.5824 334.821 96.8611 334.427C96.5121 334.231 96.1034 334.204 95.7117 334.173C96.0186 332.65 96.9451 331.337 97.2625 329.818C97.6752 327.937 97.4467 325.98 97.025 324.123C96.819 323.197 96.1147 322.377 95.1761 322.152C93.7319 321.788 92.2756 322.353 90.9824 322.957C91.1456 320.858 91.707 318.709 92.9937 317.006C93.9403 315.738 95.4071 314.892 96.9725 314.687Z" fill="#326690"/>
<path d="M85.9649 314.862C88.2645 314.419 90.6239 314.888 92.8314 315.561C91.8573 316.632 91.0996 317.892 90.657 319.271C90.0544 321.114 89.779 323.075 89.9228 325.011C90.006 326.375 89.9704 327.746 89.7806 329.099C89.5423 330.866 90.2507 332.683 91.5641 333.876C90.6707 334.922 89.7233 335.918 88.8574 336.987C88.4753 337.438 87.9584 337.974 87.3074 337.84C86.5457 337.62 86.061 336.924 85.6362 336.3C84.49 334.465 83.7978 332.394 83.1653 330.336C82.4562 327.902 81.8576 325.428 81.5143 322.914C81.3431 321.001 81.4497 318.949 82.4287 317.245C83.1597 315.953 84.528 315.131 85.9649 314.862Z" fill="#326690"/>
<path d="M105.291 323.371C106.137 322.77 107.244 322.904 108.223 322.965C108.181 324.317 107.764 325.643 107.9 327.004C108.022 328.688 108.511 330.499 107.716 332.097C106.652 329.978 105.274 327.955 104.795 325.595C104.659 324.844 104.624 323.893 105.291 323.371ZM105.604 323.688C105.322 323.92 105.627 324.265 105.869 324.374C106.455 324.719 107.259 324.237 107.279 323.567C106.749 323.32 106.084 323.345 105.604 323.688Z" fill="#326690"/>
<path d="M90.9481 324.243C92.0087 323.558 93.2494 323.02 94.5344 323.093C95.2 323.122 95.8139 323.593 95.9738 324.248C96.5578 326.572 96.7379 329.158 95.6208 331.359C95.2307 332.208 94.9141 333.088 94.6419 333.98C92.7825 333.998 91.201 332.427 90.8714 330.658C90.6461 329.658 90.9401 328.651 90.974 327.647C91.0507 326.513 90.97 325.377 90.9481 324.243ZM93.9287 323.727C93.7663 323.784 93.5967 323.895 93.6298 324.093C93.7461 324.766 94.6483 325.176 95.2162 324.756C95.4666 324.615 95.7299 324.227 95.4415 323.992C95.0296 323.657 94.4294 323.593 93.9287 323.727Z" fill="#326690"/>
<path d="M107.705 335.413C107.98 335.21 108.372 335.023 108.69 335.244C110.044 335.957 111.618 335.609 113.056 335.435C112.177 336.291 110.958 336.691 109.76 336.821C108.967 336.915 108.143 336.943 107.377 336.681C107.383 336.247 107.358 335.734 107.705 335.413Z" fill="#326690"/>
<path d="M94.0735 337.071C94.8513 336.653 95.159 335.732 95.8852 335.259C96.676 335.147 97.2543 336.323 96.6558 336.879C95.4878 338.46 93.1518 338.762 91.4629 337.901C92.2965 337.515 93.2706 337.545 94.0735 337.071Z" fill="#326690"/>
<path d="M67.0065 349.954C68.4563 349.96 69.9062 349.942 71.3569 349.933C72.0289 349.925 72.7526 350.05 73.272 350.509C73.9755 351.118 74.0983 352.191 73.7962 353.032C73.4392 353.941 72.415 354.367 71.495 354.389C70.2551 354.406 69.0137 354.383 67.773 354.398C67.7601 355.494 67.7916 356.587 67.7795 357.683C67.521 357.681 67.2625 357.681 67.0057 357.683C66.9984 355.106 66.9976 352.531 67.0065 349.954ZM67.7843 350.572C67.7827 351.645 67.7786 352.717 67.7867 353.79C68.9321 353.788 70.0774 353.807 71.2228 353.781C71.8617 353.762 72.6105 353.541 72.8778 352.898C73.0886 352.323 73.0555 351.607 72.6654 351.113C72.2858 350.658 71.6509 350.574 71.0936 350.571C69.9902 350.57 68.8868 350.57 67.7843 350.572Z" fill="black"/>
<path d="M87.6666 350.947C87.9315 350.947 88.1964 350.947 88.4622 350.947C88.4622 351.499 88.4606 352.05 88.4662 352.602C88.9185 352.608 89.3701 352.608 89.8224 352.602C89.8289 352.781 89.8353 352.959 89.8434 353.138C89.3862 353.147 88.929 353.147 88.4719 353.137C88.4533 354.221 88.4678 355.305 88.4614 356.388C88.4694 356.634 88.4452 356.961 88.6972 357.102C89.0494 357.279 89.4565 357.214 89.8329 357.193C89.8329 357.364 89.8345 357.537 89.8353 357.71C89.2538 357.776 88.6278 357.819 88.089 357.552C87.7635 357.382 87.6553 356.993 87.6617 356.65C87.6553 355.477 87.6641 354.305 87.6593 353.133C87.3176 353.134 86.9776 353.133 86.6367 353.129C86.6391 352.953 86.6408 352.778 86.6432 352.604C86.9808 352.608 87.3168 352.606 87.6536 352.591C87.6585 352.043 87.6601 351.495 87.6666 350.947Z" fill="black"/>
<path d="M76.0224 352.515C77.0304 352.366 78.1322 352.4 79.0392 352.913C80.4019 353.68 80.5933 355.738 79.6442 356.898C78.83 357.802 77.4957 357.925 76.3536 357.829C75.4255 357.772 74.4756 357.312 74.037 356.46C73.6388 355.674 73.6339 354.695 74.0055 353.898C74.3787 353.121 75.1945 352.654 76.0224 352.515ZM76.4109 353.029C75.6662 353.117 74.9336 353.586 74.6896 354.319C74.4166 355.135 74.5329 356.153 75.1961 356.755C75.7203 357.236 76.4707 357.347 77.1556 357.314C77.7776 357.289 78.4383 357.124 78.8817 356.659C79.368 356.182 79.4488 355.448 79.3849 354.802C79.3365 354.243 79.0675 353.677 78.5748 353.379C77.9335 352.988 77.1411 352.944 76.4109 353.029Z" fill="black"/>
<path d="M81.3012 352.886C81.8254 352.552 82.4716 352.499 83.0774 352.457C83.9327 352.437 84.8681 352.432 85.6088 352.923C86.0215 353.182 86.1701 353.671 86.2283 354.127C85.9504 354.137 85.671 354.14 85.3931 354.14C85.335 353.762 85.1807 353.361 84.801 353.203C84.1185 352.89 83.3294 352.923 82.6016 353.028C82.1493 353.092 81.5976 353.349 81.5839 353.875C81.5443 354.248 81.886 354.51 82.2115 354.591C83.1711 354.832 84.1734 354.808 85.1395 355.015C85.5708 355.116 86.0353 355.288 86.2808 355.683C86.6152 356.255 86.4076 357.076 85.8277 357.406C85.1241 357.823 84.2728 357.844 83.4764 357.848C82.7018 357.817 81.8577 357.805 81.1962 357.343C80.7899 357.062 80.651 356.561 80.5742 356.099C80.8626 356.095 81.1517 356.099 81.4401 356.105C81.4546 356.734 81.9829 357.179 82.5758 357.254C83.4376 357.378 84.3907 357.449 85.1928 357.049C85.7493 356.769 85.6952 355.869 85.1072 355.661C83.9142 355.313 82.6153 355.427 81.4393 355.001C80.5936 354.663 80.5799 353.362 81.3012 352.886Z" fill="black"/>
<path d="M92.223 352.581C93.0436 352.398 93.9232 352.385 94.7334 352.629C95.1962 352.755 95.5185 353.124 95.8682 353.424C95.8844 353.154 95.8909 352.884 95.9054 352.615C96.1598 352.617 96.4143 352.613 96.6695 352.608C96.7382 354.17 96.6784 355.737 96.7002 357.301C96.7196 357.948 96.5936 358.66 96.0887 359.112C95.4256 359.713 94.4806 359.811 93.626 359.828C92.8659 359.812 92.0647 359.795 91.3765 359.434C90.8951 359.185 90.6649 358.657 90.5696 358.151C90.8288 358.145 91.0889 358.143 91.3498 358.135C91.5146 358.471 91.6414 358.878 92.0033 359.055C92.5461 359.316 93.168 359.324 93.7585 359.32C94.4159 359.297 95.1696 359.171 95.5839 358.6C95.9829 358.055 95.8925 357.342 95.8925 356.708C95.0686 357.542 93.8231 357.697 92.71 357.563C92.0113 357.482 91.2812 357.233 90.8256 356.67C90.2723 355.986 90.2037 355.02 90.4088 354.193C90.6229 353.349 91.4007 352.767 92.223 352.581ZM92.8902 353.051C92.3167 353.141 91.7424 353.42 91.4233 353.922C91.0534 354.519 91.0477 355.299 91.2965 355.944C91.5614 356.612 92.2819 356.953 92.9612 357.023C93.8231 357.146 94.8287 357.035 95.4442 356.355C96.1332 355.516 96.0581 354.062 95.1356 353.416C94.4846 352.975 93.6454 352.948 92.8902 353.051Z" fill="black"/>
<path d="M99.1213 352.659C99.6988 352.406 100.344 352.453 100.96 352.454C100.96 352.669 100.961 352.884 100.964 353.099C100.331 353.09 99.6261 353.005 99.0817 353.401C98.5503 353.764 98.3677 354.442 98.358 355.055C98.3491 355.93 98.3637 356.806 98.354 357.683C98.0931 357.681 97.8322 357.68 97.5721 357.68C97.5471 355.992 97.543 354.304 97.5656 352.616C97.8265 352.617 98.089 352.617 98.3499 352.613C98.3556 352.905 98.3564 353.197 98.3645 353.488C98.5591 353.167 98.7635 352.817 99.1213 352.659Z" fill="black"/>
<path d="M101.235 353.709C101.767 352.852 102.805 352.487 103.771 352.457C104.759 352.408 105.874 352.542 106.596 353.291C107.131 353.81 107.306 354.572 107.335 355.293C105.448 355.309 103.561 355.28 101.674 355.309C101.718 355.818 101.872 356.347 102.269 356.698C103.002 357.372 104.107 357.432 105.036 357.224C105.653 357.091 106.127 356.611 106.354 356.036C106.642 356.035 106.929 356.036 107.218 356.039C106.972 356.896 106.216 357.516 105.363 357.708C104.205 357.977 102.872 357.931 101.874 357.221C100.784 356.456 100.578 354.818 101.235 353.709ZM102.662 353.294C102.089 353.591 101.82 354.221 101.683 354.819C103.288 354.831 104.892 354.83 106.497 354.819C106.443 354.454 106.337 354.084 106.084 353.805C105.273 352.822 103.739 352.719 102.662 353.294Z" fill="black"/>
<path d="M101.002 312.798C103.253 312.208 105.634 311.956 107.937 312.393C110.029 312.771 112.019 313.752 113.533 315.254C114.203 315.924 114.883 316.657 115.134 317.598C115.585 319.215 115.406 320.927 115.134 322.559C114.42 326.473 112.874 330.196 110.895 333.634C111.785 333.634 112.642 333.351 113.525 333.292C114.391 333.236 115.316 333.768 115.524 334.646C115.785 335.581 115.197 336.486 114.51 337.066C112.759 338.625 110.328 339.14 108.039 339.009C107.902 341.371 107.855 343.828 106.857 346.021C106.412 347 105.709 347.872 104.787 348.437C103.905 348.987 102.882 349.247 101.872 349.439C100.768 349.638 99.5565 349.53 98.6042 348.895C97.7238 348.335 97.1713 347.392 96.8555 346.42C96.0736 344.386 96.152 342.169 96.0599 340.028C94.5099 340.652 92.7466 340.65 91.1748 340.11C90.6223 339.917 90.1352 339.582 89.716 339.179C88.9067 339.851 87.792 340.197 86.7573 339.904C85.4407 339.545 84.5086 338.441 83.8091 337.33C82.5951 335.334 81.8334 333.106 81.1614 330.88C80.4191 328.309 79.7899 325.697 79.4498 323.04C79.2584 320.678 79.4708 318.152 80.7454 316.092C81.7696 314.405 83.566 313.279 85.486 312.903C88.2072 312.35 91.0132 312.884 93.6238 313.7C94.4687 313.321 95.3119 312.905 96.2368 312.755C97.8086 312.435 99.4265 312.582 101.002 312.798ZM100.993 313.858C100.791 313.899 100.591 313.808 100.393 313.783C98.1664 313.33 95.7118 313.509 93.7805 314.797C91.4639 313.963 88.9713 313.46 86.5045 313.718C84.6701 313.909 82.8277 314.761 81.7745 316.324C80.4433 318.273 80.2632 320.762 80.4748 323.047C80.9029 326.081 81.6428 329.067 82.5838 331.98C83.2041 333.796 83.8858 335.625 84.9892 337.211C85.549 337.989 86.2937 338.775 87.2953 338.897C88.1862 339.006 88.9915 338.453 89.5367 337.8C90.4801 336.669 91.4518 335.561 92.4582 334.488C93.1157 334.811 93.8298 334.997 94.5599 335.051C94.165 335.52 93.8395 336.132 93.2102 336.316C92.3629 336.643 91.3694 336.599 90.6223 337.163C90.191 337.472 90.17 338.144 90.5577 338.498C91.2572 339.178 92.2894 339.325 93.2207 339.402C94.5414 339.502 95.8749 339.058 96.8781 338.194C96.8717 340.293 96.8822 342.398 97.118 344.485C97.2351 345.708 97.7634 346.926 98.6931 347.748C99.5695 348.512 100.819 348.672 101.931 348.479C103.022 348.272 104.145 347.944 104.998 347.197C105.905 346.399 106.291 345.192 106.471 344.034C106.797 341.959 107.045 339.873 107.281 337.788C109.615 338.182 112.255 337.736 113.998 336.031C114.371 335.681 114.724 335.074 114.356 334.596C113.978 334.158 113.334 334.279 112.835 334.377C111.635 334.591 110.332 334.84 109.17 334.342C111.244 331.07 112.876 327.495 113.788 323.723C114.12 322.29 114.376 320.824 114.328 319.348C114.291 318.522 114.176 317.643 113.672 316.959C112.422 315.311 110.611 314.111 108.615 313.574C106.122 312.898 103.447 313.099 100.993 313.858Z" fill="black"/>
</g>
<g filter="url(#filter2_dd_540_376)">
<rect x="184" y="184" width="120" height="120" rx="12" fill="white"/>
</g>
<g clip-path="url(#clip3_540_376)">
<path fill-rule="evenodd" clip-rule="evenodd" d="M256.799 225.863C256.482 225.863 256.259 225.901 256.033 225.957V225.995H256.07C256.22 226.292 256.481 226.499 256.667 226.76C256.818 227.059 256.948 227.357 257.098 227.656C257.116 227.638 257.134 227.618 257.134 227.618C257.397 227.432 257.527 227.133 257.527 226.685C257.414 226.554 257.396 226.424 257.302 226.293C257.192 226.107 256.949 226.013 256.799 225.863Z" fill="#5D87A1"/>
<path d="M227.108 262.702H224.523C224.432 258.338 224.18 254.235 223.768 250.391H223.746L219.809 262.702H217.84L213.929 250.391H213.905C213.615 254.083 213.432 258.186 213.356 262.702H211C211.152 257.21 211.533 252.062 212.144 247.256H215.348L219.078 258.605H219.1L222.853 247.256H225.919C226.59 252.884 226.986 258.034 227.108 262.702Z" fill="#00758F"/>
<path d="M238.321 251.306C237.269 257.018 235.88 261.168 234.157 263.758C232.813 265.753 231.342 266.751 229.741 266.751C229.314 266.751 228.787 266.623 228.162 266.367V264.991C228.468 265.035 228.826 265.059 229.237 265.059C229.984 265.059 230.587 264.852 231.046 264.44C231.595 263.937 231.869 263.372 231.869 262.747C231.869 262.32 231.655 261.442 231.229 260.116L228.392 251.305H230.931L232.967 257.894C233.424 259.39 233.615 260.434 233.538 261.03C234.652 258.055 235.43 254.814 235.873 251.305L238.321 251.306Z" fill="#00758F"/>
<path d="M272.733 262.702H265.389V247.255H267.861V260.801H272.733V262.702Z" fill="#F29111"/>
<path fill-rule="evenodd" clip-rule="evenodd" d="M263.466 263.074L260.627 261.674C260.881 261.466 261.12 261.243 261.338 260.984C262.543 259.567 263.146 257.47 263.146 254.693C263.146 249.584 261.14 247.027 257.128 247.027C255.16 247.027 253.627 247.675 252.528 248.973C251.322 250.391 250.721 252.48 250.721 255.242C250.721 257.957 251.254 259.95 252.322 261.215C253.299 262.358 254.77 262.931 256.739 262.931C257.474 262.931 258.149 262.84 258.761 262.659L262.457 264.811L263.466 263.074ZM254.269 259.611C253.644 258.605 253.33 256.989 253.33 254.761C253.33 250.872 254.513 248.926 256.876 248.926C258.113 248.926 259.02 249.391 259.6 250.321C260.225 251.328 260.537 252.929 260.537 255.126C260.537 259.047 259.354 261.008 256.99 261.008C255.756 261.008 254.848 260.544 254.269 259.611Z" fill="#F29111"/>
<path d="M249.644 258.42C249.644 259.73 249.163 260.805 248.204 261.647C247.244 262.485 245.955 262.904 244.338 262.904C242.828 262.904 241.363 262.421 239.945 261.462L240.609 260.136C241.83 260.746 242.934 261.051 243.926 261.051C244.856 261.051 245.584 260.844 246.111 260.434C246.636 260.023 246.952 259.448 246.952 258.719C246.952 257.801 246.312 257.018 245.139 256.361C244.054 255.766 241.89 254.525 241.89 254.525C240.717 253.669 240.129 252.751 240.129 251.238C240.129 249.987 240.568 248.976 241.444 248.206C242.322 247.434 243.455 247.05 244.843 247.05C246.277 247.05 247.58 247.432 248.754 248.195L248.158 249.521C247.153 249.094 246.161 248.881 245.185 248.881C244.393 248.881 243.781 249.072 243.356 249.454C242.928 249.834 242.664 250.323 242.664 250.917C242.664 251.832 243.317 252.626 244.523 253.295C245.62 253.89 247.838 255.155 247.838 255.155C249.043 256.01 249.644 256.92 249.644 258.42Z" fill="#F29111"/>
<path fill-rule="evenodd" clip-rule="evenodd" d="M275.835 242.082C274.341 242.044 273.185 242.194 272.214 242.604C271.934 242.716 271.487 242.716 271.449 243.071C271.599 243.221 271.617 243.462 271.748 243.669C271.972 244.042 272.363 244.545 272.719 244.806C273.11 245.105 273.502 245.403 273.914 245.664C274.641 246.114 275.463 246.374 276.17 246.822C276.581 247.083 276.991 247.419 277.403 247.7C277.608 247.849 277.738 248.091 278 248.184V248.128C277.868 247.961 277.832 247.718 277.702 247.53C277.515 247.345 277.328 247.176 277.142 246.99C276.601 246.262 275.929 245.628 275.202 245.106C274.605 244.694 273.297 244.135 273.056 243.446C273.056 243.446 273.036 243.426 273.018 243.407C273.429 243.37 273.916 243.221 274.306 243.107C274.94 242.94 275.518 242.977 276.172 242.81C276.471 242.735 276.769 242.641 277.069 242.549V242.38C276.732 242.044 276.49 241.596 276.135 241.279C275.185 240.458 274.138 239.656 273.056 238.983C272.476 238.61 271.73 238.368 271.114 238.05C270.892 237.938 270.519 237.883 270.387 237.695C270.051 237.284 269.864 236.744 269.621 236.258C269.081 235.233 268.557 234.094 268.091 233.01C267.756 232.283 267.55 231.555 267.14 230.883C265.217 227.71 263.126 225.789 259.917 223.904C259.227 223.511 258.406 223.344 257.53 223.138C257.063 223.118 256.596 223.083 256.13 223.064C255.831 222.932 255.531 222.578 255.271 222.41C254.207 221.739 251.465 220.284 250.68 222.206C250.176 223.42 251.427 224.614 251.857 225.23C252.173 225.658 252.585 226.145 252.807 226.629C252.938 226.946 252.975 227.283 253.107 227.618C253.406 228.439 253.685 229.354 254.077 230.12C254.282 230.511 254.506 230.923 254.767 231.276C254.917 231.483 255.178 231.575 255.234 231.912C254.974 232.284 254.953 232.845 254.803 233.312C254.132 235.421 254.393 238.033 255.344 239.582C255.642 240.049 256.352 241.076 257.304 240.683C258.144 240.348 257.957 239.285 258.199 238.352C258.255 238.126 258.218 237.979 258.329 237.829V237.867C258.59 238.389 258.852 238.892 259.094 239.416C259.673 240.33 260.681 241.282 261.521 241.916C261.967 242.253 262.322 242.831 262.882 243.037V242.98H262.846C262.734 242.813 262.566 242.738 262.416 242.607C262.08 242.271 261.708 241.86 261.445 241.487C260.661 240.443 259.97 239.286 259.356 238.091C259.056 237.511 258.796 236.877 258.552 236.298C258.441 236.076 258.441 235.738 258.254 235.626C257.973 236.036 257.564 236.392 257.358 236.894C257.003 237.697 256.967 238.686 256.835 239.713C256.761 239.733 256.799 239.713 256.761 239.749C256.164 239.6 255.959 238.985 255.734 238.463C255.174 237.137 255.08 235.009 255.566 233.479C255.696 233.088 256.257 231.856 256.033 231.483C255.92 231.127 255.547 230.923 255.342 230.642C255.1 230.288 254.837 229.841 254.671 229.448C254.223 228.403 253.998 227.246 253.514 226.201C253.29 225.716 252.897 225.211 252.582 224.764C252.226 224.26 251.835 223.906 251.555 223.309C251.462 223.103 251.331 222.767 251.48 222.543C251.516 222.394 251.592 222.338 251.742 222.3C251.983 222.095 252.675 222.355 252.917 222.468C253.607 222.747 254.186 223.01 254.765 223.401C255.026 223.588 255.306 223.942 255.641 224.037H256.034C256.63 224.167 257.303 224.074 257.864 224.242C258.852 224.558 259.748 225.025 260.551 225.53C262.995 227.079 265.011 229.282 266.372 231.912C266.597 232.34 266.69 232.733 266.895 233.18C267.287 234.096 267.773 235.03 268.164 235.924C268.556 236.802 268.93 237.696 269.491 238.425C269.77 238.816 270.891 239.021 271.394 239.227C271.766 239.394 272.346 239.544 272.682 239.749C273.317 240.141 273.95 240.589 274.549 241.02C274.845 241.242 275.779 241.708 275.835 242.082Z" fill="#00758F"/>
<path d="M277.613 262.7H277.999V260.807H277.418L276.946 262.097L276.431 260.807H275.871V262.7H276.236V261.259H276.257L276.796 262.7H277.074L277.612 261.259L277.613 262.7ZM274.496 262.7H274.906V261.129H275.442V260.807H273.939V261.129H274.496V262.7Z" fill="#F29111"/>
</g>
<g filter="url(#filter3_dd_540_376)">
<rect x="328" y="92" width="120" height="120" rx="12" fill="white"/>
</g>
<g clip-path="url(#clip4_540_376)">
<path d="M398.136 143.309L391.598 145.444L385.911 147.954L384.319 148.374C383.914 148.76 383.489 149.15 383.03 149.545C382.526 149.98 382.056 150.376 381.695 150.662C381.295 150.978 380.702 151.571 380.401 151.947C379.951 152.51 379.595 153.108 379.442 153.568C379.17 154.398 379.304 155.238 379.827 156.014C380.5 157.002 381.839 158.01 383.4 158.697C384.196 159.048 385.535 159.498 386.543 159.75C388.218 160.175 391.46 160.634 393.244 160.704C393.605 160.718 394.089 160.718 394.109 160.704C394.148 160.679 394.425 160.15 394.746 159.493C395.843 157.254 396.634 155.154 397.064 153.36C397.321 152.273 397.523 150.825 397.657 149.111C397.691 148.631 397.706 147.025 397.676 146.482C397.632 145.592 397.553 144.871 397.429 144.164C397.41 144.06 397.405 143.966 397.415 143.961C397.434 143.947 397.494 143.927 398.299 143.694L398.136 143.309V143.309H398.136L398.136 143.309ZM396.644 144.184C396.703 144.184 396.861 145.701 396.901 146.659C396.911 146.862 396.906 146.995 396.896 146.995C396.856 146.995 396.061 146.526 395.492 146.17C394.998 145.859 394.059 145.236 393.911 145.118C393.862 145.083 393.867 145.078 394.272 144.94C394.959 144.707 396.589 144.184 396.644 144.184ZM393.313 145.281C393.358 145.281 393.471 145.345 393.743 145.513C394.761 146.15 396.145 146.921 396.738 147.178C396.921 147.257 396.94 147.228 396.52 147.514C395.621 148.127 394.499 148.73 393.125 149.338C392.883 149.447 392.681 149.531 392.676 149.531C392.666 149.531 392.695 149.407 392.735 149.259C393.066 148.028 393.254 146.783 393.264 145.785C393.269 145.291 393.269 145.291 393.313 145.276C393.303 145.281 393.308 145.281 393.313 145.281ZM392.626 145.543C392.656 145.572 392.636 146.679 392.597 146.981C392.508 147.702 392.369 148.374 392.142 149.13C392.088 149.313 392.038 149.466 392.028 149.476C392.009 149.501 391.332 148.839 391.109 148.582C390.724 148.137 390.422 147.692 390.2 147.257C390.086 147.035 389.908 146.6 389.923 146.585C390.002 146.531 392.607 145.523 392.626 145.543ZM389.394 146.813C389.399 146.813 389.404 146.813 389.409 146.818C389.419 146.827 389.454 146.907 389.483 146.995C389.642 147.425 389.997 148.058 390.304 148.463C390.64 148.908 391.08 149.382 391.445 149.694C391.564 149.792 391.672 149.886 391.687 149.901C391.717 149.931 391.727 149.926 390.921 150.232C389.987 150.588 388.969 150.944 387.803 151.319C387.525 151.409 387.246 151.5 386.968 151.591C386.924 151.606 386.938 151.581 387.067 151.379C387.645 150.474 388.525 148.7 389.019 147.445C389.103 147.228 389.187 147.01 389.202 146.961C389.222 146.892 389.246 146.867 389.31 146.832C389.345 146.823 389.38 146.813 389.394 146.813ZM388.406 147.223C388.421 147.233 388.169 147.761 387.922 148.246C387.442 149.18 386.919 150.099 386.217 151.216C386.098 151.408 385.985 151.586 385.97 151.606C385.945 151.641 385.935 151.631 385.856 151.478C385.688 151.146 385.55 150.721 385.476 150.331C385.402 149.946 385.416 149.274 385.5 148.858C385.565 148.552 385.56 148.557 385.708 148.483C386.341 148.162 388.386 147.203 388.406 147.223ZM396.93 147.569V147.776C396.93 148.878 396.812 150.39 396.639 151.492C396.609 151.685 396.584 151.843 396.58 151.848C396.58 151.848 396.436 151.809 396.268 151.759C395.527 151.527 394.721 151.186 393.995 150.786C393.516 150.524 392.819 150.094 392.839 150.074C392.844 150.069 393.051 149.96 393.293 149.832C394.262 149.328 395.191 148.784 395.996 148.246C396.298 148.043 396.752 147.717 396.851 147.628L396.93 147.569ZM384.675 149.031C384.695 149.031 384.69 149.071 384.66 149.249C384.641 149.377 384.616 149.614 384.606 149.777C384.566 150.499 384.685 151.033 385.041 151.764C385.14 151.967 385.219 152.135 385.214 152.14C385.179 152.169 381.908 153.128 380.88 153.41C380.574 153.494 380.307 153.568 380.287 153.573C380.252 153.583 380.247 153.578 380.262 153.494C380.376 152.767 380.929 151.818 381.7 151.018C382.214 150.484 382.624 150.173 383.326 149.773C383.83 149.486 384.606 149.056 384.665 149.036C384.665 149.031 384.67 149.031 384.675 149.031ZM392.384 150.41C392.389 150.405 392.508 150.469 392.651 150.553C393.708 151.166 395.181 151.734 396.436 152.026L396.55 152.051L396.392 152.14C395.735 152.505 393.575 153.405 391.366 154.23C391.045 154.349 390.729 154.467 390.669 154.492C390.61 154.517 390.556 154.531 390.556 154.526C390.556 154.521 390.645 154.349 390.758 154.136C391.376 152.98 391.999 151.571 392.315 150.593C392.354 150.499 392.379 150.415 392.384 150.41ZM391.598 150.667C391.603 150.672 391.564 150.776 391.514 150.894C391.084 151.937 390.521 153.074 389.8 154.349C389.617 154.675 389.464 154.937 389.459 154.937C389.454 154.937 389.305 154.848 389.128 154.739C388.08 154.097 387.151 153.306 386.543 152.54L386.454 152.431L386.904 152.308C388.515 151.868 389.884 151.394 391.243 150.81C391.435 150.731 391.593 150.667 391.598 150.667ZM396.481 152.372C396.486 152.486 396.234 153.504 396.026 154.24C395.853 154.858 395.705 155.342 395.433 156.197C395.314 156.572 395.211 156.884 395.206 156.884C395.201 156.884 395.171 156.879 395.142 156.869C393.674 156.602 392.359 156.231 391.124 155.737C390.778 155.599 390.284 155.376 390.254 155.352C390.244 155.342 390.541 155.203 390.916 155.04C393.165 154.057 395.497 152.94 396.298 152.461C396.392 152.402 396.466 152.372 396.481 152.372ZM385.209 152.757C385.219 152.767 384.591 153.672 383.712 154.902C383.405 155.332 383.049 155.836 382.916 156.024C382.783 156.212 382.58 156.508 382.466 156.686L382.259 157.007L382.036 156.819C381.774 156.602 381.32 156.137 381.117 155.88C380.692 155.352 380.406 154.793 380.292 154.284C380.238 154.047 380.238 153.929 380.287 153.914C380.361 153.894 381.68 153.583 382.916 153.296C383.603 153.138 384.398 152.95 384.685 152.881C384.972 152.812 385.204 152.757 385.209 152.757ZM385.841 153L385.999 153.177C386.711 153.973 387.438 154.561 388.317 155.075C388.475 155.164 388.594 155.243 388.584 155.248C388.549 155.273 385.53 156.345 384.132 156.829C383.346 157.106 382.699 157.328 382.694 157.328C382.689 157.328 382.644 157.299 382.595 157.264L382.506 157.2L382.649 156.992C383.114 156.32 383.697 155.584 384.967 154.052L385.841 153ZM389.785 155.821C389.79 155.816 390.007 155.895 390.274 155.994C390.916 156.236 391.425 156.389 392.107 156.562C392.947 156.775 394.163 156.983 394.88 157.042C394.988 157.052 395.048 157.062 395.028 157.076C394.993 157.096 394.267 157.338 393.733 157.506C392.883 157.773 390.289 158.539 388.174 159.147C387.783 159.261 387.447 159.354 387.428 159.359C387.378 159.369 387.215 159.325 387.215 159.305C387.215 159.295 387.334 159.142 387.477 158.974C388.189 158.124 388.895 157.175 389.483 156.276C389.646 156.029 389.785 155.826 389.785 155.821ZM388.915 155.846C388.92 155.851 388.569 156.414 387.956 157.383C387.695 157.793 387.403 158.257 387.299 158.42C387.2 158.579 387.052 158.826 386.968 158.964L386.825 159.216L386.751 159.196C386.573 159.147 385.323 158.707 384.991 158.574C384.581 158.411 384.156 158.213 383.84 158.045C383.445 157.832 382.951 157.516 382.99 157.506C383 157.501 383.677 157.318 384.492 157.096C386.657 156.508 387.858 156.167 388.643 155.92C388.787 155.876 388.91 155.841 388.915 155.846ZM395.067 157.289H395.072C395.092 157.338 394.292 159.562 394 160.264C393.936 160.422 393.911 160.461 393.876 160.456C393.792 160.452 392.631 160.288 391.924 160.185C390.694 159.997 388.628 159.636 388.11 159.517L387.991 159.493L388.727 159.325C390.309 158.969 391.07 158.776 391.84 158.539C392.814 158.243 393.778 157.872 394.751 157.417C394.904 157.348 395.033 157.294 395.067 157.289Z" fill="url(#paint1_linear_540_376)"/>
<path d="M391.395 128.069C391.287 128.054 389.532 128.687 388.401 129.146C386.874 129.769 385.688 130.362 384.957 130.876C384.685 131.069 384.344 131.41 384.289 131.543C384.27 131.592 384.26 131.652 384.26 131.711L384.922 132.339L386.498 132.843L390.249 133.515L394.538 134.251L394.583 133.88C394.568 133.88 394.558 133.875 394.543 133.875L393.98 133.786L393.866 133.584C393.283 132.556 392.641 131.281 392.265 130.421C391.974 129.754 391.697 128.983 391.544 128.43C391.46 128.094 391.45 128.074 391.396 128.069V128.069H391.395L391.395 128.069ZM391.316 128.321H391.321C391.326 128.326 391.346 128.464 391.366 128.627C391.45 129.319 391.603 129.986 391.845 130.708C392.028 131.251 392.028 131.222 391.816 131.157C391.311 131.019 389.053 130.629 387.417 130.401C387.156 130.367 386.933 130.332 386.933 130.327C386.913 130.308 388.114 129.68 388.643 129.433C389.32 129.122 391.178 128.346 391.316 128.321ZM386.553 130.535L386.745 130.599C387.793 130.955 390.427 131.459 391.88 131.578C392.043 131.592 392.181 131.607 392.186 131.607C392.191 131.612 392.053 131.686 391.875 131.77C391.173 132.121 390.402 132.551 389.868 132.882C389.71 132.981 389.567 133.06 389.547 133.06C389.527 133.06 389.424 133.04 389.315 133.025L389.117 132.996L388.623 132.511C387.754 131.666 387.072 131.014 386.81 130.767L386.553 130.535ZM386.355 130.688L387.052 131.558C387.432 132.037 387.818 132.507 387.902 132.61C387.986 132.714 388.055 132.798 388.05 132.803C388.03 132.818 387.042 132.625 386.518 132.507C385.979 132.383 385.757 132.324 385.426 132.22L385.154 132.131V132.062C385.159 131.731 385.579 131.237 386.291 130.733L386.355 130.688ZM392.275 131.874C392.295 131.874 392.319 131.918 392.379 132.052C392.547 132.423 393.071 133.421 393.199 133.613C393.239 133.678 393.308 133.683 392.611 133.569C390.936 133.297 390.397 133.208 390.397 133.198C390.397 133.194 390.447 133.159 390.511 133.124C391.03 132.838 391.554 132.472 392.018 132.082C392.132 131.988 392.236 131.899 392.255 131.884C392.26 131.874 392.27 131.869 392.275 131.874Z" fill="url(#paint2_linear_540_376)"/>
<path d="M384.325 131.474C384.325 131.474 384.216 131.647 384.32 131.904C384.384 132.062 384.572 132.255 384.785 132.452C384.785 132.452 386.984 134.597 387.25 134.903C388.466 136.307 388.995 137.69 389.044 139.598C389.074 140.823 388.842 141.901 388.263 143.151C387.236 145.394 385.066 147.87 381.721 150.618L382.21 150.455C382.526 150.217 382.956 149.965 383.964 149.412C386.292 148.137 388.911 146.966 392.123 145.76C396.748 144.021 404.353 141.985 408.682 141.322L409.132 141.253L409.063 141.145C408.667 140.532 408.396 140.151 408.069 139.746C407.121 138.57 405.969 137.616 404.561 136.826C402.624 135.743 400.118 134.898 396.946 134.271C396.348 134.152 395.033 133.925 393.966 133.762C391.703 133.411 390.24 133.169 388.629 132.892C388.051 132.793 387.186 132.645 386.613 132.521C386.316 132.457 385.748 132.324 385.303 132.171C384.948 132.032 384.434 131.894 384.325 131.474ZM385.6 132.709C385.605 132.704 385.684 132.734 385.788 132.769C385.975 132.833 386.218 132.907 386.504 132.986C386.721 133.046 386.939 133.103 387.157 133.159C387.453 133.233 387.7 133.302 387.705 133.302C387.74 133.337 388.239 134.933 388.407 135.546C388.471 135.778 388.52 135.976 388.516 135.976C388.51 135.981 388.456 135.896 388.392 135.783C387.814 134.765 386.9 133.732 385.842 132.902C385.704 132.803 385.6 132.714 385.6 132.709ZM388.031 133.381C388.056 133.381 388.165 133.396 388.298 133.426C389.138 133.613 390.645 133.9 391.609 134.063C391.772 134.088 391.901 134.118 391.901 134.127C391.901 134.137 391.841 134.172 391.767 134.211C391.604 134.295 390.947 134.686 390.729 134.834C390.181 135.2 389.687 135.595 389.331 135.951C389.188 136.094 389.064 136.213 389.064 136.213C389.064 136.213 389.034 136.129 389.01 136.025C388.832 135.338 388.461 134.32 388.125 133.604C388.071 133.49 388.026 133.386 388.026 133.376C388.026 133.386 388.026 133.381 388.031 133.381ZM392.311 134.197C392.34 134.206 392.39 134.375 392.489 134.745C392.671 135.462 392.755 136.262 392.726 137.008C392.716 137.216 392.706 137.409 392.696 137.433L392.681 137.483L392.424 137.399C391.896 137.231 391.036 136.979 390.299 136.771C389.879 136.658 389.538 136.554 389.538 136.544C389.538 136.514 390.151 135.901 390.413 135.669C390.912 135.229 392.266 134.182 392.311 134.197ZM392.652 134.246C392.666 134.231 394.697 134.582 395.622 134.76C396.308 134.893 397.307 135.101 397.366 135.126C397.396 135.136 397.292 135.195 396.961 135.343C395.656 135.931 394.687 136.46 393.724 137.102C393.472 137.27 393.259 137.409 393.255 137.409C393.25 137.409 393.245 137.265 393.245 137.092C393.245 136.154 393.057 135.205 392.711 134.404C392.676 134.325 392.647 134.251 392.652 134.246ZM397.905 135.284C397.919 135.299 397.855 135.699 397.796 135.936C397.618 136.672 397.139 137.765 396.551 138.792C396.447 138.975 396.353 139.123 396.343 139.128C396.333 139.133 396.2 139.059 396.047 138.97C395.473 138.634 394.821 138.318 394.109 138.021C393.912 137.937 393.739 137.868 393.734 137.858C393.699 137.829 395.29 136.776 396.131 136.272C396.798 135.867 397.885 135.264 397.905 135.284ZM398.28 135.343C398.325 135.343 399.224 135.59 399.693 135.729C400.855 136.074 402.189 136.564 403.059 136.959L403.419 137.122L403.167 137.181C401.043 137.671 399.224 138.234 397.47 138.946C397.326 139.005 397.198 139.054 397.188 139.054C397.178 139.054 397.228 138.941 397.292 138.802C397.821 137.68 398.162 136.509 398.245 135.511C398.25 135.417 398.265 135.343 398.28 135.343ZM389.326 137.399C389.341 137.384 390.028 137.547 390.398 137.651C390.962 137.809 392.157 138.209 392.157 138.239C392.157 138.244 392.024 138.357 391.866 138.496C391.219 139.034 390.596 139.603 389.85 140.324C389.627 140.537 389.44 140.71 389.43 140.71C389.42 140.71 389.415 140.68 389.42 140.64C389.533 139.81 389.509 138.743 389.351 137.661C389.336 137.522 389.321 137.404 389.326 137.399ZM403.76 137.414C403.77 137.423 403.444 137.937 403.237 138.229C402.94 138.654 402.505 139.217 401.522 140.453C401.003 141.105 400.42 141.841 400.227 142.088C400.029 142.335 399.866 142.543 399.861 142.543C399.856 142.543 399.792 142.454 399.723 142.345C399.17 141.515 398.507 140.789 397.722 140.136C397.573 140.013 397.41 139.879 397.356 139.84C397.302 139.8 397.257 139.761 397.257 139.756C397.257 139.741 398.097 139.38 398.735 139.123C399.852 138.669 401.373 138.125 402.515 137.774C403.113 137.587 403.75 137.404 403.76 137.414ZM404.141 137.512C404.161 137.508 404.279 137.567 404.423 137.651C405.623 138.338 406.799 139.222 407.729 140.131C407.99 140.388 408.638 141.061 408.628 141.065C408.628 141.065 408.401 141.085 408.134 141.105C406.053 141.263 403.39 141.703 400.83 142.321C400.657 142.36 400.504 142.395 400.494 142.395C400.484 142.395 400.677 142.202 400.919 141.97C402.421 140.522 403.108 139.608 403.919 137.977C404.032 137.735 404.131 137.527 404.141 137.512C404.136 137.512 404.136 137.512 404.141 137.512ZM393.136 138.639C393.205 138.654 393.848 138.955 394.332 139.198C394.777 139.42 395.444 139.776 395.478 139.805C395.483 139.81 395.246 139.934 394.955 140.077C394.025 140.542 393.23 140.981 392.4 141.485C392.162 141.629 391.965 141.747 391.96 141.747C391.94 141.747 391.945 141.728 392.078 141.485C392.523 140.675 392.879 139.707 393.082 138.763C393.101 138.689 393.121 138.639 393.136 138.639ZM392.493 138.758C392.508 138.773 392.34 139.38 392.237 139.711C392.034 140.339 391.693 141.125 391.362 141.718C391.283 141.856 391.164 142.059 391.1 142.172L390.976 142.37L390.7 142.103C390.379 141.792 390.117 141.599 389.781 141.426C389.647 141.357 389.543 141.298 389.543 141.288C389.543 141.248 390.388 140.482 391.036 139.929C391.5 139.529 392.479 138.743 392.493 138.758ZM396.422 140.374L396.664 140.532C397.218 140.893 397.87 141.372 398.369 141.792C398.651 142.024 399.194 142.513 399.303 142.632L399.362 142.696L398.962 142.81C396.699 143.437 394.949 143.996 392.909 144.747C392.681 144.831 392.489 144.9 392.474 144.9C392.444 144.9 392.419 144.925 392.928 144.455C394.233 143.255 395.389 141.93 396.249 140.64L396.422 140.374ZM395.389 140.631C395.399 140.64 394.722 141.594 394.317 142.133C393.833 142.775 392.973 143.852 392.38 144.554C392.133 144.846 391.92 145.088 391.91 145.093C391.896 145.098 391.891 145.024 391.891 144.91C391.891 144.312 391.737 143.675 391.471 143.131C391.357 142.904 391.337 142.849 391.362 142.825C391.456 142.741 392.894 141.92 393.803 141.431C394.416 141.105 395.374 140.621 395.389 140.631ZM389.143 142.163C389.158 142.163 389.272 142.222 389.4 142.291C389.716 142.464 389.998 142.657 390.25 142.864C390.26 142.874 390.131 142.978 389.963 143.101C389.494 143.437 388.782 143.976 388.367 144.307C387.932 144.653 387.918 144.663 387.967 144.589C388.293 144.09 388.456 143.808 388.629 143.447C388.782 143.126 388.936 142.746 389.044 142.415C389.084 142.271 389.133 142.163 389.143 142.163ZM390.808 143.467C390.833 143.462 390.863 143.507 390.996 143.704C391.278 144.124 391.495 144.688 391.55 145.142L391.559 145.241L390.883 145.503C389.672 145.973 388.555 146.437 387.799 146.783C387.586 146.882 387.216 147.06 386.974 147.178C386.732 147.302 386.534 147.396 386.534 147.391C386.534 147.386 386.687 147.272 386.875 147.134C388.352 146.061 389.632 144.885 390.591 143.709C390.695 143.586 390.789 143.472 390.798 143.467L390.808 143.467ZM390.043 143.655C390.062 143.675 389.499 144.312 389.113 144.702C388.16 145.676 387.216 146.437 386.045 147.178C385.896 147.272 385.763 147.356 385.748 147.366C385.714 147.386 385.758 147.336 386.272 146.778C386.598 146.427 386.845 146.131 387.127 145.765C387.315 145.523 387.349 145.488 387.621 145.295C388.348 144.772 390.023 143.635 390.043 143.655Z" fill="url(#paint3_radial_540_376)"/>
<path d="M368.643 164.117C368.552 164.117 368.46 164.125 368.37 164.125C366.529 164.223 365.287 165.034 364.561 166.616C363.94 168.047 364.008 169.918 364.568 171.358C365.219 172.765 366.272 173.507 368.029 173.788C368.401 173.849 368.65 174.053 369.37 174.893L370.256 175.931H371.862L370.794 174.854C370.203 174.264 369.726 173.75 369.726 173.704C369.726 173.659 369.952 173.56 370.225 173.477C371.127 173.204 371.875 172.508 372.399 171.44C372.823 170.583 372.884 170.318 372.944 169.252C373.103 166.078 371.43 164.093 368.643 164.116L368.643 164.117ZM370.051 172.418C369.27 172.796 368.135 172.872 367.394 172.6C366.628 172.318 365.886 171.523 365.553 170.622C365.182 169.638 365.235 167.821 365.659 167.003C366.34 165.7 367.242 165.101 368.559 165.101C370.513 165.101 371.625 166.297 371.77 168.547C371.885 170.424 371.256 171.833 370.052 172.417L370.051 172.418ZM397.806 166.828C397.132 166.828 396.616 167.101 396.269 167.638L395.996 168.064V166.957H394.83V173.593H395.995V171.472C395.995 169.532 396.02 169.306 396.291 168.775C396.664 168.047 397.307 167.684 397.928 167.858L398.345 167.98V166.83H397.806L397.806 166.828ZM390.954 166.767C390.725 166.767 390.483 166.798 390.242 166.851C388.681 167.259 387.801 168.753 387.855 170.29C387.855 171.577 388.105 172.22 388.726 172.895C389.999 173.939 391.149 174.022 392.702 173.462C392.967 173.349 393.255 173.219 393.255 173.219V172.175L392.702 172.462C391.445 173.009 390.499 173.009 389.741 172.365C389.257 171.872 389.044 171.282 388.946 170.608H393.649V169.713C393.649 167.889 392.551 166.738 390.953 166.767H390.954V166.767ZM389.052 169.677C389.052 169.677 389.226 168.539 389.87 168.092C390.18 167.874 390.536 167.768 390.884 167.768C391.234 167.768 391.582 167.881 391.869 168.1C392.46 168.555 392.559 169.668 392.559 169.668H389.052V169.677L389.052 169.677ZM360.933 168.48C359.669 167.714 359.108 167.161 359.176 166.51C359.373 164.708 361.599 164.957 362.833 165.639L362.841 164.427C362.841 164.427 362.16 164.131 361.183 164.116C359.684 164.093 358.714 164.585 358.26 165.585C357.593 167.062 358.184 168.175 360.319 169.417C361.517 170.114 362.047 170.72 362.047 171.38C362.047 172.743 360.403 173.219 358.707 172.364C358.358 172.19 358.062 172.045 358.047 172.045C357.986 172.431 358.017 173.356 358.017 173.356C358.017 173.356 358.538 173.575 359.32 173.726C361.258 174.113 363.022 173.203 363.189 171.727C363.334 170.341 362.833 169.614 360.933 168.479L360.933 168.48ZM408.129 166.752C407.901 166.752 407.66 166.783 407.408 166.836C405.849 167.244 404.971 168.738 405.031 170.275C405.031 171.56 405.28 172.198 405.901 172.872C407.174 173.917 408.324 174.001 409.885 173.44C410.149 173.327 410.436 173.198 410.436 173.198V172.153L409.884 172.441C408.625 172.986 407.678 172.986 406.923 172.342C406.436 171.851 406.225 171.267 406.127 170.585H410.822V169.691C410.822 167.876 409.724 166.723 408.126 166.753L408.129 166.752ZM406.227 169.661C406.227 169.661 406.402 168.525 407.046 168.07C407.355 167.85 407.711 167.744 408.059 167.744C408.407 167.744 408.757 167.857 409.044 168.078C409.635 168.532 409.734 169.653 409.734 169.653H406.228L406.227 169.661ZM384.849 168.495C383.584 167.73 383.025 167.176 383.092 166.525C383.289 164.722 385.516 164.972 386.749 165.654L386.757 164.441C386.757 164.441 386.076 164.146 385.099 164.132C383.6 164.11 382.63 164.601 382.175 165.602C381.509 167.078 382.108 168.191 384.235 169.433C385.432 170.13 385.962 170.727 385.962 171.387C385.962 172.751 384.319 173.235 382.623 172.371C382.275 172.198 381.98 172.054 381.963 172.054C381.902 172.441 381.933 173.366 381.933 173.366C381.933 173.366 382.448 173.577 383.227 173.736C385.167 174.123 386.932 173.215 387.098 171.738C387.242 170.359 386.742 169.632 384.849 168.496V168.495L384.849 168.495ZM414.982 166.812C414.308 166.812 413.786 167.086 413.445 167.624L413.172 168.047V166.943H412.006V173.576H413.171V171.455C413.171 169.517 413.195 169.289 413.466 168.759C413.84 168.033 414.482 167.669 415.103 167.843L415.52 167.965V166.812H414.982L414.982 166.812ZM375.573 168.456V164.23H374.397V173.591H379.342V172.485H375.573V168.456H375.573ZM402.767 169.774L401.798 172.296L400.866 169.76L399.919 166.95H398.715C399.495 169.161 400.344 171.41 401.199 173.591C401.57 173.599 401.942 173.591 402.313 173.591L403.621 170.304L404.955 166.95H403.804C403.804 166.95 403.296 168.283 402.766 169.775L402.767 169.774ZM378.283 161.68C378.472 161.68 378.63 161.619 378.761 161.489C378.889 161.36 378.957 161.209 378.957 161.02C378.957 160.83 378.889 160.672 378.761 160.551C378.63 160.429 378.48 160.368 378.291 160.368C378.1 160.368 377.942 160.429 377.814 160.558C377.684 160.686 377.625 160.844 377.625 161.027C377.625 161.218 377.685 161.376 377.814 161.496C377.935 161.617 378.094 161.678 378.283 161.678V161.68ZM377.866 160.603C377.979 160.49 378.116 160.438 378.292 160.438C378.457 160.438 378.594 160.49 378.708 160.603C378.821 160.716 378.882 160.853 378.882 161.02C378.882 161.186 378.821 161.331 378.708 161.443C378.594 161.556 378.457 161.61 378.292 161.61C378.124 161.61 377.988 161.558 377.875 161.443C377.762 161.331 377.701 161.186 377.701 161.02C377.701 160.853 377.753 160.716 377.866 160.603ZM378.146 161.08H378.223C378.277 161.08 378.33 161.132 378.375 161.232L378.466 161.436H378.609L378.497 161.209C378.451 161.118 378.405 161.065 378.352 161.05C378.419 161.034 378.472 161.012 378.51 160.966C378.549 160.927 378.563 160.874 378.563 160.814C378.563 160.745 378.541 160.693 378.495 160.655C378.443 160.611 378.359 160.588 378.252 160.588H378.01V161.436H378.132V161.08L378.146 161.08ZM378.146 160.686H378.252C378.329 160.686 378.383 160.702 378.412 160.724C378.441 160.747 378.449 160.776 378.449 160.83C378.449 160.928 378.388 160.974 378.275 160.974H378.145V160.686L378.146 160.686ZM358.722 161.005C358.722 160.71 358.714 160.49 358.707 160.36H358.713C358.744 160.513 358.781 160.627 358.812 160.703L359.941 163.225H360.13L361.259 160.68C361.289 160.611 361.32 160.506 361.357 160.361H361.366C361.343 160.613 361.335 160.832 361.335 161.007V163.233H361.722V159.924H361.237L360.199 162.225C360.161 162.316 360.108 162.453 360.04 162.633H360.025C360.002 162.544 359.949 162.407 359.874 162.241L358.859 159.916H358.344V163.225H358.716V161.006L358.722 161.005ZM362.569 161.011H362.902V163.072H362.569V161.011ZM362.735 160.255C362.805 160.255 362.864 160.232 362.909 160.186C362.955 160.141 362.986 160.082 362.986 160.012C362.986 159.944 362.963 159.884 362.91 159.839C362.863 159.792 362.803 159.769 362.735 159.769C362.667 159.769 362.606 159.793 362.561 159.839C362.515 159.884 362.484 159.944 362.484 160.012C362.484 160.088 362.508 160.141 362.561 160.186C362.613 160.232 362.667 160.255 362.735 160.255H362.735ZM365.28 163.117V162.754C365.098 162.89 364.901 162.958 364.698 162.958C364.455 162.958 364.258 162.875 364.114 162.715C363.97 162.557 363.894 162.337 363.894 162.064C363.894 161.777 363.97 161.549 364.128 161.376C364.28 161.209 364.478 161.126 364.719 161.126C364.916 161.126 365.105 161.186 365.28 161.308V160.922C365.121 160.838 364.94 160.8 364.735 160.8C364.356 160.8 364.061 160.922 363.84 161.156C363.621 161.391 363.508 161.709 363.508 162.094C363.508 162.436 363.607 162.724 363.811 162.943C364.023 163.169 364.295 163.284 364.629 163.284C364.887 163.277 365.098 163.223 365.28 163.117ZM366.234 162.018C366.234 161.747 366.295 161.527 366.408 161.376C366.514 161.239 366.643 161.171 366.795 161.171C366.923 161.171 367.014 161.194 367.081 161.247V160.853C367.029 160.83 366.954 160.823 366.855 160.823C366.719 160.823 366.598 160.868 366.491 160.953C366.378 161.042 366.288 161.179 366.235 161.352H366.226V160.868H365.848V163.231H366.227V162.018H366.234ZM368.408 163.278C368.764 163.278 369.051 163.163 369.264 162.936C369.476 162.71 369.582 162.406 369.582 162.027C369.582 161.641 369.484 161.345 369.286 161.125C369.09 160.906 368.817 160.8 368.461 160.8C368.105 160.8 367.818 160.906 367.606 161.111C367.378 161.337 367.258 161.655 367.258 162.064C367.258 162.42 367.356 162.716 367.561 162.935C367.773 163.163 368.053 163.277 368.408 163.277V163.278ZM367.87 161.353C368.014 161.201 368.203 161.126 368.438 161.126C368.681 161.126 368.863 161.201 368.999 161.353C369.135 161.512 369.203 161.739 369.203 162.042C369.203 162.33 369.142 162.557 369.014 162.709C368.885 162.868 368.696 162.952 368.446 162.952C368.203 162.952 368.014 162.868 367.87 162.709C367.727 162.549 367.658 162.33 367.658 162.042C367.643 161.755 367.719 161.521 367.87 161.353ZM371.24 163.072C371.384 162.943 371.46 162.785 371.46 162.587C371.46 162.413 371.399 162.269 371.286 162.156C371.194 162.064 371.052 161.982 370.846 161.898C370.664 161.822 370.551 161.754 370.49 161.701C370.429 161.641 370.392 161.565 370.392 161.458C370.392 161.36 370.43 161.285 370.505 161.224C370.581 161.163 370.679 161.133 370.809 161.133C371.013 161.133 371.187 161.187 371.347 161.301V160.922C371.194 160.846 371.029 160.81 370.839 160.81C370.596 160.81 370.391 160.876 370.24 161.006C370.081 161.134 370.005 161.301 370.005 161.497C370.005 161.671 370.057 161.815 370.156 161.921C370.24 162.011 370.382 162.104 370.58 162.186C370.77 162.269 370.898 162.345 370.967 162.406C371.034 162.467 371.065 162.542 371.065 162.632C371.065 162.852 370.914 162.966 370.618 162.966C370.391 162.966 370.187 162.891 370.004 162.74V163.148C370.169 163.247 370.368 163.292 370.586 163.292C370.867 163.278 371.087 163.209 371.238 163.073L371.24 163.072ZM373.043 160.8C372.686 160.8 372.4 160.906 372.187 161.111C371.961 161.337 371.84 161.655 371.84 162.064C371.84 162.421 371.938 162.716 372.142 162.936C372.355 163.163 372.634 163.277 372.99 163.277C373.355 163.277 373.633 163.162 373.846 162.935C374.059 162.709 374.165 162.405 374.165 162.026C374.165 161.64 374.066 161.344 373.869 161.125C373.664 160.905 373.392 160.799 373.044 160.799L373.043 160.8ZM373.777 162.042C373.777 162.33 373.716 162.557 373.588 162.709C373.459 162.868 373.27 162.952 373.02 162.952C372.777 162.952 372.588 162.868 372.444 162.709C372.301 162.549 372.232 162.33 372.232 162.042C372.232 161.738 372.308 161.503 372.46 161.345C372.603 161.194 372.792 161.118 373.028 161.118C373.262 161.118 373.451 161.194 373.587 161.345C373.709 161.512 373.776 161.739 373.776 162.042H373.777ZM374.8 163.224H375.178V161.179H375.731V160.861H375.178V160.496C375.178 160.164 375.307 159.997 375.572 159.997C375.662 159.997 375.753 160.02 375.821 160.058V159.717C375.753 159.687 375.662 159.68 375.548 159.68C375.344 159.68 375.177 159.741 375.041 159.869C374.882 160.02 374.798 160.216 374.798 160.482V160.87H374.398V161.187H374.798V163.225L374.8 163.224ZM376.352 162.579C376.352 163.041 376.556 163.277 376.973 163.277C377.124 163.277 377.238 163.253 377.329 163.199V162.874C377.26 162.926 377.177 162.95 377.086 162.95C376.958 162.95 376.867 162.92 376.814 162.851C376.76 162.784 376.73 162.669 376.73 162.511V161.178H377.329V160.86H376.73V160.163C376.6 160.209 376.472 160.247 376.351 160.285V160.86H375.943V161.178H376.351V162.579L376.352 162.579ZM416.997 166.934C416.868 166.812 416.716 166.752 416.528 166.752C416.337 166.752 416.179 166.812 416.05 166.943C415.922 167.07 415.861 167.229 415.861 167.412C415.861 167.601 415.922 167.759 416.049 167.881C416.178 168.002 416.336 168.063 416.527 168.063C416.715 168.063 416.874 168.002 417.005 167.874C417.132 167.743 417.2 167.593 417.2 167.405C417.193 167.214 417.124 167.056 416.996 166.934L416.997 166.934ZM416.936 167.829C416.823 167.941 416.686 167.993 416.519 167.993C416.354 167.993 416.217 167.941 416.102 167.829C415.989 167.714 415.929 167.571 415.929 167.403C415.929 167.238 415.981 167.101 416.095 166.986C416.208 166.873 416.345 166.821 416.519 166.821C416.684 166.821 416.821 166.873 416.936 166.986C417.049 167.101 417.11 167.238 417.11 167.403C417.11 167.578 417.058 167.714 416.936 167.829ZM416.596 167.442C416.663 167.426 416.717 167.396 416.755 167.359C416.793 167.32 416.807 167.266 416.807 167.206C416.807 167.138 416.785 167.084 416.739 167.047C416.687 167.003 416.603 166.98 416.496 166.98H416.254V167.828H416.376V167.472H416.452C416.504 167.472 416.556 167.524 416.603 167.623L416.693 167.827H416.837L416.724 167.599C416.685 167.5 416.64 167.455 416.594 167.44L416.596 167.442ZM416.512 167.366H416.382V167.079H416.489C416.564 167.079 416.617 167.093 416.648 167.116C416.678 167.139 416.685 167.168 416.685 167.222C416.685 167.32 416.624 167.366 416.511 167.366L416.512 167.366ZM395.383 160.763H395.489V159.914H395.77V159.808H395.103V159.914H395.383V160.763H395.383ZM396.026 160.125C396.026 160.043 396.026 159.975 396.02 159.937C396.027 159.982 396.042 160.012 396.049 160.035L396.375 160.763H396.427L396.754 160.028C396.762 160.005 396.769 159.976 396.784 159.937C396.777 160.012 396.777 160.073 396.777 160.119V160.762H396.89V159.808H396.754L396.458 160.466C396.451 160.49 396.428 160.536 396.413 160.588H396.404C396.398 160.558 396.383 160.527 396.361 160.475L396.066 159.808H395.913V160.764H396.02V160.126L396.026 160.125Z" fill="#231F1F"/>
</g>
<g filter="url(#filter4_dd_540_376)">
<rect x="328" y="236" width="120" height="120" rx="12" fill="white"/>
</g>
<path d="M426.03 293.536C425.95 293.551 425.871 293.726 425.871 293.821C425.855 294.457 425.84 296.14 425.84 297.283C425.84 297.314 425.887 297.378 425.935 297.378C426.173 297.394 426.744 297.409 427.236 297.409C427.919 297.409 428.316 297.314 428.539 297.219C429.11 296.934 429.38 296.314 429.38 295.631C429.38 294.091 428.301 293.503 426.697 293.503C426.586 293.488 426.268 293.488 426.03 293.536ZM430.127 300.633C430.127 299.061 428.968 298.188 426.872 298.188C426.776 298.188 426.109 298.172 425.95 298.204C425.903 298.22 425.84 298.251 425.84 298.299C425.84 299.426 425.824 301.221 425.871 301.92C425.903 302.221 426.125 302.65 426.395 302.777C426.681 302.936 427.332 302.968 427.777 302.968C429.031 302.968 430.127 302.269 430.127 300.633ZM422.79 292.663C422.949 292.663 423.425 292.71 424.648 292.71C425.807 292.71 426.728 292.678 427.855 292.678C429.237 292.678 431.143 293.171 431.143 295.235C431.143 296.251 430.428 297.062 429.491 297.458C429.444 297.474 429.444 297.506 429.491 297.522C430.825 297.855 432 298.681 432 300.237C432 301.762 431.048 302.73 429.666 303.333C428.824 303.698 427.776 303.826 426.712 303.826C425.903 303.826 423.727 303.731 422.521 303.762C422.394 303.715 422.631 303.143 422.743 303.048C423.029 303.032 423.251 303.016 423.553 302.92C423.982 302.809 424.03 302.682 424.093 302.031C424.125 301.476 424.125 299.506 424.125 298.109C424.125 296.188 424.14 294.886 424.125 294.251C424.109 293.759 423.934 293.6 423.585 293.505C423.315 293.457 422.87 293.394 422.505 293.346C422.425 293.266 422.695 292.725 422.79 292.663ZM413.628 302.539C414.01 302.84 414.756 302.967 415.423 302.967C416.28 302.967 417.138 302.809 417.964 302.062C418.806 301.3 419.393 300.125 419.393 298.251C419.393 296.457 418.71 294.996 417.313 294.139C416.519 293.646 415.503 293.44 414.328 293.44C413.979 293.44 413.645 293.456 413.439 293.551C413.391 293.582 413.28 293.726 413.28 293.805C413.248 294.122 413.248 296.567 413.248 297.997C413.248 299.474 413.248 301.539 413.28 301.777C413.279 302.015 413.39 302.38 413.628 302.539ZM410.024 292.662C410.325 292.662 411.484 292.709 412.04 292.709C413.04 292.709 413.755 292.662 415.645 292.662C417.233 292.662 418.566 293.091 419.519 293.9C420.678 294.901 421.282 296.282 421.282 297.966C421.282 300.363 420.186 301.745 419.091 302.539C417.996 303.348 416.566 303.825 414.533 303.825C413.454 303.825 411.596 303.793 410.055 303.777H410.039C409.96 303.635 410.166 303.079 410.293 303.063C410.706 303.015 410.817 302.999 411.024 302.92C411.357 302.793 411.421 302.619 411.469 302.031C411.516 300.935 411.5 299.617 411.5 298.125C411.5 297.061 411.516 294.981 411.484 294.313C411.437 293.758 411.199 293.615 410.722 293.52C410.484 293.472 410.167 293.409 409.722 293.361C409.659 293.25 409.944 292.758 410.024 292.662Z" fill="#3A3A3A"/>
<path d="M390.809 303.159C390.412 303.111 390.126 303.048 389.777 302.889C389.73 302.857 389.65 302.698 389.65 302.635C389.618 302.079 389.618 300.491 389.618 299.427C389.618 298.569 389.476 297.823 389.11 297.299C388.681 296.696 388.062 296.346 387.268 296.346C386.569 296.346 385.632 296.823 384.854 297.49C384.838 297.506 384.712 297.617 384.728 297.442C384.728 297.268 384.759 296.919 384.775 296.68C384.791 296.458 384.664 296.347 384.664 296.347C384.156 296.601 382.727 296.934 382.203 296.982C381.822 297.062 381.727 297.427 382.124 297.554H382.14C382.568 297.681 382.854 297.824 383.076 297.967C383.235 298.094 383.219 298.269 383.219 298.412C383.235 299.603 383.235 301.428 383.188 302.429C383.172 302.827 383.061 302.969 382.774 303.033L382.806 303.017C382.584 303.064 382.409 303.112 382.139 303.143C382.044 303.238 382.044 303.747 382.139 303.858C382.314 303.858 383.234 303.81 383.997 303.81C385.045 303.81 385.585 303.858 385.855 303.858C385.965 303.731 385.998 303.254 385.934 303.143C385.632 303.128 385.41 303.096 385.203 303.033C384.918 302.969 384.838 302.826 384.822 302.493C384.79 301.651 384.79 299.873 384.79 298.666C384.79 298.333 384.885 298.174 384.98 298.078C385.346 297.761 385.933 297.538 386.457 297.538C386.965 297.538 387.298 297.697 387.552 297.904C387.901 298.189 388.013 298.602 388.06 298.904C388.14 299.587 388.108 300.936 388.108 302.111C388.108 302.747 388.06 302.905 387.822 302.984C387.711 303.032 387.425 303.096 387.092 303.127C386.981 303.238 387.013 303.731 387.092 303.841C387.552 303.841 388.092 303.794 388.886 303.794C389.87 303.794 390.506 303.841 390.76 303.841C390.841 303.746 390.873 303.285 390.809 303.159ZM395.208 297.093C394.366 297.093 393.842 297.744 393.842 298.76C393.842 299.792 394.302 300.983 395.604 300.983C395.827 300.983 396.24 300.888 396.43 300.666C396.731 300.38 396.938 299.809 396.938 299.205C396.938 297.887 396.287 297.093 395.208 297.093ZM395.096 304.111C394.779 304.111 394.556 304.206 394.413 304.286C393.746 304.714 393.445 305.127 393.445 305.62C393.445 306.081 393.619 306.446 394 306.763C394.461 307.16 395.095 307.351 395.906 307.351C397.526 307.351 398.24 306.477 398.24 305.62C398.24 305.017 397.939 304.62 397.319 304.398C396.875 304.206 396.065 304.111 395.096 304.111ZM395.208 308.24C394.239 308.24 393.54 308.033 392.937 307.573C392.349 307.128 392.095 306.461 392.095 306C392.095 305.874 392.127 305.524 392.413 305.207C392.587 305.016 392.968 304.651 393.873 304.031C393.905 304.016 393.921 304 393.921 303.967C393.921 303.936 393.889 303.904 393.858 303.888C393.111 303.603 392.889 303.142 392.826 302.888V302.856C392.81 302.761 392.778 302.666 392.921 302.571C393.032 302.491 393.191 302.396 393.366 302.285C393.636 302.126 393.922 301.951 394.096 301.809C394.128 301.777 394.128 301.745 394.128 301.714C394.128 301.682 394.096 301.65 394.064 301.634C392.953 301.269 392.397 300.443 392.397 299.205C392.397 298.395 392.762 297.665 393.413 297.204C393.858 296.855 394.969 296.426 395.7 296.426H395.747C396.494 296.442 396.907 296.601 397.494 296.808C397.811 296.919 398.113 296.966 398.527 296.966C399.145 296.966 399.415 296.775 399.638 296.554C399.653 296.585 399.686 296.665 399.702 296.871C399.717 297.078 399.654 297.379 399.495 297.601C399.368 297.776 399.082 297.903 398.796 297.903H398.717C398.431 297.871 398.304 297.839 398.304 297.839L398.241 297.871C398.225 297.902 398.241 297.934 398.257 297.982L398.272 298.013C398.304 298.156 398.367 298.585 398.367 298.696C398.367 299.998 397.844 300.569 397.288 300.998C396.748 301.395 396.129 301.65 395.43 301.713C395.414 301.713 395.351 301.713 395.208 301.729C395.128 301.729 395.017 301.745 395.001 301.745H394.985C394.859 301.776 394.541 301.935 394.541 302.205C394.541 302.443 394.683 302.729 395.366 302.777C395.508 302.793 395.652 302.793 395.811 302.809C396.716 302.872 397.843 302.951 398.367 303.126C399.098 303.396 399.558 304.047 399.558 304.825C399.558 306 398.717 307.096 397.32 307.779C396.637 308.081 395.954 308.24 395.208 308.24ZM404.258 297.172C403.925 297.172 403.623 297.251 403.401 297.41C402.782 297.792 402.464 298.554 402.464 299.665C402.464 301.745 403.512 303.206 405.005 303.206C405.45 303.206 405.799 303.079 406.101 302.825C406.561 302.443 406.799 301.681 406.799 300.618C406.799 298.554 405.767 297.172 404.258 297.172ZM404.545 303.968C401.845 303.968 400.877 301.983 400.877 300.125C400.877 298.823 401.401 297.823 402.449 297.108C403.195 296.647 404.084 296.393 404.878 296.393C406.942 296.393 408.387 297.87 408.387 299.998C408.387 301.443 407.816 302.586 406.72 303.285C406.196 303.635 405.291 303.968 404.545 303.968ZM376.248 297.172C375.914 297.172 375.612 297.251 375.39 297.41C374.771 297.792 374.453 298.554 374.453 299.665C374.453 301.745 375.501 303.206 376.994 303.206C377.438 303.206 377.788 303.079 378.09 302.825C378.55 302.443 378.788 301.681 378.788 300.618C378.788 298.554 377.772 297.172 376.248 297.172ZM376.533 303.968C373.834 303.968 372.865 301.983 372.865 300.125C372.865 298.823 373.389 297.823 374.437 297.108C375.183 296.647 376.073 296.393 376.866 296.393C378.931 296.393 380.375 297.87 380.375 299.998C380.375 301.443 379.804 302.586 378.708 303.285C378.201 303.635 377.295 303.968 376.533 303.968ZM358.383 303.81C358.352 303.762 358.319 303.619 358.336 303.445C358.336 303.318 358.368 303.238 358.383 303.207C358.717 303.159 358.891 303.111 359.082 303.064C359.4 302.984 359.527 302.809 359.543 302.412C359.59 301.459 359.59 299.649 359.574 298.395V298.363C359.574 298.22 359.574 298.046 359.4 297.918C359.145 297.76 358.844 297.617 358.447 297.505C358.304 297.458 358.209 297.378 358.224 297.283C358.224 297.188 358.319 297.077 358.526 297.045C359.05 296.998 360.415 296.665 360.955 296.426C360.987 296.457 361.035 296.553 361.035 296.68L361.019 296.854C361.003 297.029 360.987 297.235 360.987 297.442C360.987 297.505 361.051 297.553 361.114 297.553C361.145 297.553 361.178 297.537 361.209 297.521C362.225 296.727 363.146 296.442 363.622 296.442C364.401 296.442 365.004 296.807 365.465 297.569C365.496 297.617 365.528 297.633 365.575 297.633C365.607 297.633 365.655 297.617 365.67 297.586C366.607 296.871 367.544 296.442 368.163 296.442C369.64 296.442 370.514 297.538 370.514 299.396C370.514 299.919 370.514 300.602 370.498 301.222C370.498 301.778 370.482 302.286 370.482 302.651C370.482 302.73 370.593 302.984 370.768 303.032C370.99 303.143 371.292 303.191 371.689 303.254H371.705C371.736 303.365 371.673 303.778 371.61 303.858C371.515 303.858 371.371 303.858 371.212 303.842C370.811 303.821 370.408 303.81 370.006 303.81C369.021 303.81 368.513 303.826 368.021 303.858C367.989 303.731 367.973 303.35 368.021 303.254C368.307 303.207 368.45 303.159 368.625 303.112C368.942 303.017 369.022 302.873 369.038 302.46C369.038 302.159 369.101 299.586 369.006 298.967C368.911 298.332 368.435 297.586 367.386 297.586C366.989 297.586 366.37 297.745 365.766 298.205C365.734 298.236 365.702 298.315 365.702 298.364V298.379C365.766 298.713 365.766 299.094 365.766 299.681V300.713C365.766 301.428 365.75 302.095 365.766 302.603C365.766 302.953 365.973 303.032 366.148 303.095C366.243 303.111 366.306 303.127 366.386 303.143C366.528 303.174 366.671 303.207 366.894 303.254C366.925 303.318 366.925 303.523 366.878 303.698C366.862 303.793 366.83 303.841 366.814 303.857C366.274 303.841 365.719 303.826 364.908 303.826C364.67 303.826 364.257 303.841 363.908 303.841C363.622 303.841 363.353 303.857 363.194 303.857C363.178 303.826 363.146 303.715 363.146 303.54C363.146 303.397 363.178 303.286 363.21 303.254C363.289 303.238 363.353 303.223 363.432 303.223C363.622 303.191 363.781 303.159 363.94 303.128C364.21 303.048 364.306 302.905 364.322 302.556C364.369 301.762 364.417 299.491 364.306 298.92C364.115 297.999 363.591 297.538 362.749 297.538C362.257 297.538 361.638 297.776 361.13 298.158C361.05 298.221 360.986 298.379 360.986 298.523V299.46C360.986 300.603 360.986 302.032 361.002 302.651C361.018 302.841 361.081 303.064 361.447 303.143C361.526 303.159 361.653 303.191 361.812 303.207L362.098 303.255C362.13 303.35 362.114 303.731 362.051 303.859C361.892 303.859 361.702 303.843 361.479 303.843C361.145 303.827 360.717 303.811 360.24 303.811C359.685 303.811 359.287 303.827 358.97 303.843C358.749 303.81 358.574 303.81 358.383 303.81Z" fill="#3A3A3A"/>
<path d="M350.032 307.62L349.381 307.398C349.381 307.398 349.46 304.079 348.269 303.841C347.475 302.92 348.396 264.778 351.255 303.714C351.255 303.714 350.27 304.206 350.095 305.048C349.905 305.874 350.032 307.62 350.032 307.62Z" fill="white"/>
<path d="M350.032 307.62L349.381 307.398C349.381 307.398 349.46 304.079 348.269 303.841C347.475 302.92 348.396 264.778 351.255 303.714C351.255 303.714 350.27 304.206 350.095 305.048C349.905 305.874 350.032 307.62 350.032 307.62Z" fill="#A6A385"/>
<path d="M350.381 304.413C350.381 304.413 356.082 300.665 354.748 292.869C353.462 287.2 350.429 285.342 350.095 284.627C349.731 284.119 349.381 283.23 349.381 283.23L349.619 298.998C349.619 299.014 349.127 303.826 350.381 304.413Z" fill="white"/>
<path d="M350.381 304.413C350.381 304.413 356.082 300.665 354.748 292.869C353.462 287.2 350.429 285.342 350.095 284.627C349.731 284.119 349.381 283.23 349.381 283.23L349.619 298.998C349.619 299.014 349.127 303.826 350.381 304.413Z" fill="#499D4A"/>
<path d="M349.047 304.62C349.047 304.62 343.696 300.967 344.014 294.536C344.315 288.105 348.094 284.946 348.824 284.373C349.301 283.865 349.317 283.675 349.349 283.167C349.682 283.881 349.619 293.853 349.666 295.028C349.809 299.554 349.412 303.762 349.047 304.62Z" fill="white"/>
<path d="M349.047 304.62C349.047 304.62 343.696 300.967 344.014 294.536C344.315 288.105 348.094 284.946 348.824 284.373C349.301 283.865 349.317 283.675 349.349 283.167C349.682 283.881 349.619 293.853 349.666 295.028C349.809 299.554 349.412 303.762 349.047 304.62Z" fill="#58AA50"/>
<path d="M-67.0307 63.4816C-41.594 77.6266 15.0022 98.4309 37.8932 68.4887C66.5069 31.061 37.7034 23.5559 29.2448 42.2321C20.7861 60.9083 62.9969 86.2871 104.765 47.8093C138.179 17.0271 153.787 -30.4331 157.414 -50.3154" stroke="#0487FF" stroke-dasharray="6 6"/>
<path d="M544.597 443.809C519.16 429.664 462.564 408.86 439.673 438.802C411.06 476.23 439.863 483.735 448.322 465.058C456.78 446.382 414.57 421.003 372.802 459.481C339.388 490.263 323.779 537.724 320.152 557.606" stroke="#0487FF" stroke-dasharray="6 6"/>
</g>
<defs>
<filter id="filter0_dd_540_376" x="20" y="132" width="160" height="160" filterUnits="userSpaceOnUse" color-interpolation-filters="sRGB">
<feFlood flood-opacity="0" result="BackgroundImageFix"/>
<feColorMatrix in="SourceAlpha" type="matrix" values="0 0 0 0 0 0 0 0 0 0 0 0 0 0 0 0 0 0 127 0" result="hardAlpha"/>
<feMorphology radius="5" operator="erode" in="SourceAlpha" result="effect1_dropShadow_540_376"/>
<feOffset dy="20"/>
<feGaussianBlur stdDeviation="12.5"/>
<feComposite in2="hardAlpha" operator="out"/>
<feColorMatrix type="matrix" values="0 0 0 0 0 0 0 0 0 0 0 0 0 0 0 0 0 0 0.1 0"/>
<feBlend mode="normal" in2="BackgroundImageFix" result="effect1_dropShadow_540_376"/>
<feColorMatrix in="SourceAlpha" type="matrix" values="0 0 0 0 0 0 0 0 0 0 0 0 0 0 0 0 0 0 127 0" result="hardAlpha"/>
<feMorphology radius="5" operator="erode" in="SourceAlpha" result="effect2_dropShadow_540_376"/>
<feOffset dy="10"/>
<feGaussianBlur stdDeviation="5"/>
<feComposite in2="hardAlpha" operator="out"/>
<feColorMatrix type="matrix" values="0 0 0 0 0 0 0 0 0 0 0 0 0 0 0 0 0 0 0.1 0"/>
<feBlend mode="normal" in2="effect1_dropShadow_540_376" result="effect2_dropShadow_540_376"/>
<feBlend mode="normal" in="SourceGraphic" in2="effect2_dropShadow_540_376" result="shape"/>
</filter>
<filter id="filter1_dd_540_376" x="20" y="276" width="160" height="160" filterUnits="userSpaceOnUse" color-interpolation-filters="sRGB">
<feFlood flood-opacity="0" result="BackgroundImageFix"/>
<feColorMatrix in="SourceAlpha" type="matrix" values="0 0 0 0 0 0 0 0 0 0 0 0 0 0 0 0 0 0 127 0" result="hardAlpha"/>
<feMorphology radius="5" operator="erode" in="SourceAlpha" result="effect1_dropShadow_540_376"/>
<feOffset dy="20"/>
<feGaussianBlur stdDeviation="12.5"/>
<feComposite in2="hardAlpha" operator="out"/>
<feColorMatrix type="matrix" values="0 0 0 0 0 0 0 0 0 0 0 0 0 0 0 0 0 0 0.1 0"/>
<feBlend mode="normal" in2="BackgroundImageFix" result="effect1_dropShadow_540_376"/>
<feColorMatrix in="SourceAlpha" type="matrix" values="0 0 0 0 0 0 0 0 0 0 0 0 0 0 0 0 0 0 127 0" result="hardAlpha"/>
<feMorphology radius="5" operator="erode" in="SourceAlpha" result="effect2_dropShadow_540_376"/>
<feOffset dy="10"/>
<feGaussianBlur stdDeviation="5"/>
<feComposite in2="hardAlpha" operator="out"/>
<feColorMatrix type="matrix" values="0 0 0 0 0 0 0 0 0 0 0 0 0 0 0 0 0 0 0.1 0"/>
<feBlend mode="normal" in2="effect1_dropShadow_540_376" result="effect2_dropShadow_540_376"/>
<feBlend mode="normal" in="SourceGraphic" in2="effect2_dropShadow_540_376" result="shape"/>
</filter>
<filter id="filter2_dd_540_376" x="164" y="184" width="160" height="160" filterUnits="userSpaceOnUse" color-interpolation-filters="sRGB">
<feFlood flood-opacity="0" result="BackgroundImageFix"/>
<feColorMatrix in="SourceAlpha" type="matrix" values="0 0 0 0 0 0 0 0 0 0 0 0 0 0 0 0 0 0 127 0" result="hardAlpha"/>
<feMorphology radius="5" operator="erode" in="SourceAlpha" result="effect1_dropShadow_540_376"/>
<feOffset dy="20"/>
<feGaussianBlur stdDeviation="12.5"/>
<feComposite in2="hardAlpha" operator="out"/>
<feColorMatrix type="matrix" values="0 0 0 0 0 0 0 0 0 0 0 0 0 0 0 0 0 0 0.1 0"/>
<feBlend mode="normal" in2="BackgroundImageFix" result="effect1_dropShadow_540_376"/>
<feColorMatrix in="SourceAlpha" type="matrix" values="0 0 0 0 0 0 0 0 0 0 0 0 0 0 0 0 0 0 127 0" result="hardAlpha"/>
<feMorphology radius="5" operator="erode" in="SourceAlpha" result="effect2_dropShadow_540_376"/>
<feOffset dy="10"/>
<feGaussianBlur stdDeviation="5"/>
<feComposite in2="hardAlpha" operator="out"/>
<feColorMatrix type="matrix" values="0 0 0 0 0 0 0 0 0 0 0 0 0 0 0 0 0 0 0.1 0"/>
<feBlend mode="normal" in2="effect1_dropShadow_540_376" result="effect2_dropShadow_540_376"/>
<feBlend mode="normal" in="SourceGraphic" in2="effect2_dropShadow_540_376" result="shape"/>
</filter>
<filter id="filter3_dd_540_376" x="308" y="92" width="160" height="160" filterUnits="userSpaceOnUse" color-interpolation-filters="sRGB">
<feFlood flood-opacity="0" result="BackgroundImageFix"/>
<feColorMatrix in="SourceAlpha" type="matrix" values="0 0 0 0 0 0 0 0 0 0 0 0 0 0 0 0 0 0 127 0" result="hardAlpha"/>
<feMorphology radius="5" operator="erode" in="SourceAlpha" result="effect1_dropShadow_540_376"/>
<feOffset dy="20"/>
<feGaussianBlur stdDeviation="12.5"/>
<feComposite in2="hardAlpha" operator="out"/>
<feColorMatrix type="matrix" values="0 0 0 0 0 0 0 0 0 0 0 0 0 0 0 0 0 0 0.1 0"/>
<feBlend mode="normal" in2="BackgroundImageFix" result="effect1_dropShadow_540_376"/>
<feColorMatrix in="SourceAlpha" type="matrix" values="0 0 0 0 0 0 0 0 0 0 0 0 0 0 0 0 0 0 127 0" result="hardAlpha"/>
<feMorphology radius="5" operator="erode" in="SourceAlpha" result="effect2_dropShadow_540_376"/>
<feOffset dy="10"/>
<feGaussianBlur stdDeviation="5"/>
<feComposite in2="hardAlpha" operator="out"/>
<feColorMatrix type="matrix" values="0 0 0 0 0 0 0 0 0 0 0 0 0 0 0 0 0 0 0.1 0"/>
<feBlend mode="normal" in2="effect1_dropShadow_540_376" result="effect2_dropShadow_540_376"/>
<feBlend mode="normal" in="SourceGraphic" in2="effect2_dropShadow_540_376" result="shape"/>
</filter>
<filter id="filter4_dd_540_376" x="308" y="236" width="160" height="160" filterUnits="userSpaceOnUse" color-interpolation-filters="sRGB">
<feFlood flood-opacity="0" result="BackgroundImageFix"/>
<feColorMatrix in="SourceAlpha" type="matrix" values="0 0 0 0 0 0 0 0 0 0 0 0 0 0 0 0 0 0 127 0" result="hardAlpha"/>
<feMorphology radius="5" operator="erode" in="SourceAlpha" result="effect1_dropShadow_540_376"/>
<feOffset dy="20"/>
<feGaussianBlur stdDeviation="12.5"/>
<feComposite in2="hardAlpha" operator="out"/>
<feColorMatrix type="matrix" values="0 0 0 0 0 0 0 0 0 0 0 0 0 0 0 0 0 0 0.1 0"/>
<feBlend mode="normal" in2="BackgroundImageFix" result="effect1_dropShadow_540_376"/>
<feColorMatrix in="SourceAlpha" type="matrix" values="0 0 0 0 0 0 0 0 0 0 0 0 0 0 0 0 0 0 127 0" result="hardAlpha"/>
<feMorphology radius="5" operator="erode" in="SourceAlpha" result="effect2_dropShadow_540_376"/>
<feOffset dy="10"/>
<feGaussianBlur stdDeviation="5"/>
<feComposite in2="hardAlpha" operator="out"/>
<feColorMatrix type="matrix" values="0 0 0 0 0 0 0 0 0 0 0 0 0 0 0 0 0 0 0.1 0"/>
<feBlend mode="normal" in2="effect1_dropShadow_540_376" result="effect2_dropShadow_540_376"/>
<feBlend mode="normal" in="SourceGraphic" in2="effect2_dropShadow_540_376" result="shape"/>
</filter>
<linearGradient id="paint0_linear_540_376" x1="-1.78196" y1="581.296" x2="2133.66" y2="1707.72" gradientUnits="userSpaceOnUse">
<stop stop-color="white" stop-opacity="0.1"/>
<stop offset="0.14" stop-color="white" stop-opacity="0.08"/>
<stop offset="0.61" stop-color="white" stop-opacity="0.02"/>
<stop offset="1" stop-color="white" stop-opacity="0"/>
</linearGradient>
<linearGradient id="paint1_linear_540_376" x1="384.234" y1="157.492" x2="385.578" y2="156.698" gradientUnits="userSpaceOnUse">
<stop stop-color="#909CA9"/>
<stop offset="1" stop-color="#EDEDEE"/>
</linearGradient>
<linearGradient id="paint2_linear_540_376" x1="384.286" y1="131.173" x2="385.368" y2="131.173" gradientUnits="userSpaceOnUse">
<stop stop-color="#939FAB"/>
<stop offset="1" stop-color="#DCDEE1"/>
</linearGradient>
<radialGradient id="paint3_radial_540_376" cx="0" cy="0" r="1" gradientUnits="userSpaceOnUse" gradientTransform="translate(393.878 139.868) rotate(-171.469) scale(1.39512 2.79097)">
<stop stop-color="#EE352C"/>
<stop offset="1" stop-color="#A91D22"/>
</radialGradient>
<clipPath id="clip0_540_376">
<rect width="488" height="488" rx="24" fill="white"/>
</clipPath>
<clipPath id="clip1_540_376">
<rect width="84.48" height="23.7769" fill="white" transform="translate(57.7598 179.68)"/>
</clipPath>
<clipPath id="clip2_540_376">
<rect width="65.8983" height="48" fill="white" transform="translate(67 312)"/>
</clipPath>
<clipPath id="clip3_540_376">
<rect width="67" height="46" fill="white" transform="translate(211 221)"/>
</clipPath>
<clipPath id="clip4_540_376">
<rect width="59.2" height="48" fill="white" transform="translate(358 128)"/>
</clipPath>
</defs>
</svg>
