<svg width="488" height="488" viewBox="0 0 488 488" fill="none" xmlns="http://www.w3.org/2000/svg">
<g clip-path="url(#clip0_540_911)">
<rect width="488" height="488" rx="24" fill="#E6F3FF"/>
<path d="M-67.0307 63.4816C-41.594 77.6266 15.0022 98.4309 37.8932 68.4887C66.5069 31.061 37.7034 23.5559 29.2448 42.2321C20.7861 60.9083 62.9969 86.2871 104.765 47.8093C138.179 17.0271 153.787 -30.4331 157.414 -50.3154" stroke="#0487FF" stroke-dasharray="6 6"/>
<path d="M544.597 443.809C519.16 429.664 462.564 408.86 439.673 438.802C411.06 476.23 439.863 483.735 448.322 465.058C456.78 446.382 414.57 421.003 372.802 459.481C339.388 490.263 323.779 537.724 320.152 557.606" stroke="#0487FF" stroke-dasharray="6 6"/>
<g filter="url(#filter0_dd_540_911)">
<rect x="40" y="40" width="120" height="120" rx="12" fill="white"/>
</g>
<g clip-path="url(#clip1_540_911)">
<path d="M84.5646 77.0391H115.564C120.265 77.0391 124.064 80.8389 124.064 85.5392V115.339C124.064 120.039 120.265 123.839 115.564 123.839H84.5646C79.8643 123.839 76.0645 120.039 76.0645 115.339V85.5392C76.0645 80.8389 79.8643 77.0391 84.5646 77.0391Z" fill="#001E36"/>
<path d="M93.2654 88.9387C92.6654 88.9387 92.0654 88.9387 91.4455 88.959C90.8252 88.9788 90.2451 88.9788 89.7051 88.9991C89.1651 89.019 88.6652 89.019 88.1852 89.0388C87.7251 89.0587 87.4052 89.0587 87.0651 89.0587C86.9252 89.0587 86.8652 89.1386 86.8652 89.2788V109.859C86.8652 110.039 86.9451 110.119 87.1052 110.119H90.9854C91.1252 110.099 91.2254 109.979 91.2051 109.839V103.419C91.585 103.419 91.8651 103.419 92.0654 103.439C92.2652 103.459 92.5851 103.459 93.0651 103.459C94.7054 103.459 96.2054 103.279 97.5651 102.779C98.8652 102.299 99.9854 101.459 100.785 100.339C101.585 99.219 101.985 97.7988 101.985 96.0787C101.985 95.1787 101.825 94.3188 101.525 93.4788C101.208 92.623 100.71 91.8454 100.065 91.1988C99.3047 90.4599 98.3892 89.8996 97.3851 89.5586C96.265 89.1386 94.9052 88.9387 93.2654 88.9387ZM93.7116 92.8781C94.4241 92.8916 95.1179 93.0161 95.7651 93.2786C96.3452 93.4987 96.8252 93.8988 97.1654 94.4186C97.4848 94.9563 97.6444 95.5739 97.6255 96.1991C97.6255 97.0788 97.4252 97.7591 97.0052 98.259C96.565 98.7588 96.0051 99.1391 95.3654 99.3191C94.6251 99.5591 93.8451 99.6787 93.0651 99.6787H92.005C91.765 99.6787 91.5055 99.6588 91.2254 99.639V92.919C91.3652 92.8987 91.6454 92.8788 92.0455 92.8991C92.4254 92.8788 92.8851 92.8788 93.4052 92.8788C93.5076 92.8762 93.61 92.8758 93.7116 92.8781ZM110.485 93.8992C109.065 93.8992 107.885 94.119 106.945 94.599C106.085 94.9991 105.345 95.6388 104.845 96.4387C104.405 97.179 104.165 97.9987 104.165 98.859C104.148 99.5665 104.306 100.267 104.625 100.899C104.999 101.572 105.519 102.152 106.145 102.599C107.025 103.2 107.98 103.685 108.985 104.039C109.965 104.419 110.625 104.719 110.945 104.979C111.265 105.239 111.425 105.499 111.425 105.779C111.425 106.139 111.205 106.479 110.885 106.619C110.525 106.799 109.985 106.899 109.225 106.899C108.425 106.899 107.625 106.799 106.865 106.599C105.992 106.404 105.156 106.073 104.385 105.619C104.325 105.579 104.265 105.559 104.205 105.599C104.145 105.639 104.125 105.719 104.125 105.779V109.259C104.105 109.419 104.205 109.559 104.345 109.639C104.994 109.942 105.68 110.157 106.385 110.279C107.285 110.459 108.185 110.539 109.105 110.539C110.545 110.539 111.745 110.319 112.725 109.899C113.625 109.539 114.405 108.919 114.965 108.119C115.489 107.332 115.761 106.404 115.745 105.459C115.765 104.745 115.607 104.037 115.285 103.399C114.905 102.719 114.365 102.159 113.705 101.739C112.74 101.133 111.706 100.643 110.625 100.279C110.143 100.079 109.669 99.8589 109.205 99.6187C108.945 99.4788 108.705 99.2988 108.525 99.0787C108.405 98.9186 108.325 98.739 108.325 98.559C108.325 98.379 108.385 98.1791 108.485 98.019C108.625 97.8191 108.845 97.6788 109.105 97.6188C109.485 97.5191 109.905 97.4587 110.305 97.4786C111.065 97.4786 111.805 97.5787 112.545 97.7388C113.225 97.8787 113.865 98.0988 114.465 98.4191C114.545 98.4588 114.645 98.4588 114.825 98.4191C114.857 98.396 114.882 98.3658 114.899 98.331C114.917 98.2962 114.926 98.2578 114.925 98.2188V94.959C114.925 94.8787 114.905 94.7988 114.885 94.719C114.845 94.6391 114.765 94.5588 114.685 94.539C114.134 94.3134 113.556 94.1588 112.965 94.0788C112.144 93.9592 111.315 93.8995 110.485 93.8992Z" fill="#31A8FF"/>
</g>
<g filter="url(#filter1_dd_540_911)">
<rect x="40" y="184" width="120" height="120" rx="12" fill="white"/>
</g>
<g clip-path="url(#clip2_540_911)">
<path d="M86.0339 229V239.873H87.5904L90.4839 247.915L93.4011 239.873H96.7501L91.9649 251.812H88.9581L86.0339 244.516V259.035H56V229H86.0339ZM107.872 239.599C111.449 239.599 112.68 241.878 112.771 243.633H109.649C109.581 242.881 109.011 242.197 107.85 242.197C106.8 242.197 106.21 242.698 106.21 243.359C106.21 245.364 112.817 243.359 112.817 248.258C112.817 250.399 110.994 252.084 107.759 252.084C104.022 252.084 102.746 250.172 102.587 247.938H105.867C105.913 248.735 106.506 249.487 107.85 249.487C109.079 249.487 109.718 249.054 109.718 248.394C109.718 246.389 103.088 248.28 103.088 243.541C103.088 241.377 104.934 239.599 107.872 239.599ZM125.37 239.599C129.198 239.599 131.636 242.447 131.636 245.842C131.636 249.237 129.197 252.084 125.37 252.084C121.543 252.084 119.105 249.236 119.105 245.842C119.105 242.448 121.543 239.599 125.37 239.599ZM139.603 239.599C142.474 239.599 144 241.513 144 244.361V251.813H140.765V244.727C140.765 243.338 140.173 242.381 138.737 242.381C137.165 242.381 136.3 243.381 136.3 244.977V251.812H133.064V239.873H136.049V241.332C136.596 240.307 137.826 239.599 139.603 239.599ZM101.012 239.873V251.812H97.7768V239.873H101.012ZM117.688 239.873V251.812H114.452V239.873H117.688ZM125.37 242.448C123.66 242.448 122.341 243.7 122.341 245.842C122.341 247.984 123.663 249.237 125.37 249.237C127.083 249.237 128.401 247.983 128.401 245.842C128.401 243.701 127.08 242.448 125.37 242.448Z" fill="#FF0066"/>
<path d="M66.5161 238.455C67.4659 238.444 68.228 237.667 68.2207 236.717C68.2133 235.767 67.4393 235.002 66.4895 235.006C65.5396 235.009 64.7715 235.78 64.7715 236.73C64.773 237.191 64.958 237.631 65.2854 237.955C65.6129 238.279 66.0558 238.459 66.5161 238.455Z" fill="white"/>
<path d="M62.8836 247.693C62.7846 248.119 62.7328 248.554 62.7291 248.991C62.7291 250.51 63.5548 251.519 65.3042 251.519C66.7563 251.519 67.9336 250.657 68.7806 249.263L68.2639 251.341H71.1469L72.7984 244.735C73.2077 243.056 74.0063 242.183 75.2166 242.183C76.1686 242.183 76.7607 242.773 76.7607 243.753C76.7651 244.067 76.7218 244.38 76.6322 244.681L75.7828 247.728C75.6617 248.146 75.6009 248.579 75.6023 249.015C75.6023 250.457 76.4517 251.512 78.2282 251.512C79.7476 251.512 80.9578 250.534 81.6267 248.191L80.4943 247.754C79.928 249.324 79.4326 249.607 79.0528 249.607C78.6729 249.607 78.4629 249.35 78.4629 248.835C78.4741 248.565 78.5172 248.297 78.5915 248.037L79.4173 245.077C79.6032 244.468 79.699 243.836 79.7015 243.199C79.7015 240.985 78.3627 239.829 76.7395 239.829C75.2213 239.829 73.6725 241.2 72.9034 242.641L73.4708 240.053H69.0625L68.4444 242.333H70.5052L69.2359 247.411C68.2403 249.626 66.4048 249.661 66.1807 249.61C65.8032 249.525 65.5626 249.381 65.5626 248.892C65.5741 248.493 65.6347 248.097 65.743 247.712L67.6741 240.052H62.7822L62.1641 242.332H64.1977L62.8836 247.693Z" fill="white"/>
</g>
<g filter="url(#filter2_dd_540_911)">
<rect x="184" y="100" width="120" height="120" rx="12" fill="white"/>
</g>
<g clip-path="url(#clip3_540_911)">
<path d="M235.691 184.12C240.107 184.12 243.691 180.536 243.691 176.12V168.12H235.691C231.275 168.12 227.691 171.704 227.691 176.12C227.691 180.536 231.275 184.12 235.691 184.12Z" fill="#0ACF83"/>
<path d="M227.691 160.12C227.691 155.704 231.275 152.12 235.691 152.12H243.691V168.12H235.691C231.275 168.12 227.691 164.536 227.691 160.12Z" fill="#A259FF"/>
<path d="M227.691 144.12C227.691 139.704 231.275 136.12 235.691 136.12H243.691V152.12H235.691C231.275 152.12 227.691 148.536 227.691 144.12Z" fill="#F24E1E"/>
<path d="M243.691 136.12H251.691C256.107 136.12 259.691 139.704 259.691 144.12C259.691 148.536 256.107 152.12 251.691 152.12H243.691V136.12Z" fill="#FF7262"/>
<path d="M259.691 160.12C259.691 164.536 256.107 168.12 251.691 168.12C247.275 168.12 243.691 164.536 243.691 160.12C243.691 155.704 247.275 152.12 251.691 152.12C256.107 152.12 259.691 155.704 259.691 160.12Z" fill="#1ABCFE"/>
</g>
<g filter="url(#filter3_dd_540_911)">
<rect x="184" y="244" width="120" height="120" rx="12" fill="white"/>
</g>
<g clip-path="url(#clip4_540_911)">
<mask id="mask0_540_911" style="mask-type:luminance" maskUnits="userSpaceOnUse" x="219" y="279" width="50" height="49">
<path d="M268.664 279.652H219.434V327.652H268.664V279.652Z" fill="white"/>
</mask>
<g mask="url(#mask0_540_911)">
<path d="M259.946 279.652H228.152C223.337 279.652 219.434 283.555 219.434 288.37V318.934C219.434 323.748 223.337 327.652 228.152 327.652H259.946C264.761 327.652 268.664 323.748 268.664 318.934V288.37C268.664 283.555 264.761 279.652 259.946 279.652Z" fill="#330000"/>
<path d="M243.289 308.457H235.66L234.108 313.279C234.087 313.367 234.036 313.445 233.964 313.499C233.891 313.554 233.802 313.581 233.712 313.576H229.848C229.628 313.576 229.55 313.455 229.617 313.213L236.222 294.19C236.288 293.992 236.354 293.767 236.42 293.513C236.506 293.073 236.551 292.625 236.552 292.176C236.548 292.144 236.55 292.112 236.561 292.082C236.571 292.052 236.587 292.025 236.61 292.003C236.632 291.98 236.66 291.963 236.69 291.953C236.72 291.943 236.752 291.94 236.783 291.945H242.034C242.188 291.945 242.276 292 242.298 292.11L249.795 313.246C249.861 313.467 249.795 313.577 249.597 313.576H245.304C245.23 313.585 245.156 313.566 245.095 313.523C245.034 313.481 244.991 313.417 244.974 313.345L243.289 308.457ZM236.849 304.296H242.067C241.935 303.856 241.781 303.361 241.605 302.81C241.428 302.26 241.241 301.671 241.044 301.043C240.845 300.416 240.647 299.788 240.449 299.161C240.251 298.533 240.069 297.928 239.904 297.344C239.739 296.761 239.59 296.227 239.458 295.743H239.425C239.239 296.635 239.008 297.516 238.732 298.385C238.423 299.375 238.109 300.388 237.791 301.423C237.471 302.458 237.157 303.416 236.849 304.296Z" fill="#FF9A00"/>
<path d="M254.254 295.445C253.918 295.459 253.582 295.401 253.269 295.276C252.956 295.151 252.673 294.961 252.438 294.719C252.204 294.466 252.022 294.17 251.903 293.847C251.784 293.524 251.73 293.18 251.744 292.836C251.732 292.496 251.792 292.156 251.92 291.841C252.048 291.525 252.242 291.239 252.487 291.003C252.731 290.77 253.018 290.587 253.333 290.465C253.647 290.343 253.983 290.285 254.32 290.293C255.113 290.293 255.735 290.53 256.186 291.003C256.414 291.249 256.591 291.538 256.707 291.852C256.824 292.167 256.877 292.501 256.863 292.836C256.877 293.182 256.821 293.526 256.699 293.85C256.577 294.173 256.392 294.469 256.153 294.719C255.904 294.964 255.607 295.156 255.28 295.281C254.953 295.406 254.604 295.462 254.254 295.445ZM251.976 313.246V297.46C251.976 297.262 252.063 297.163 252.24 297.163H256.302C256.478 297.163 256.566 297.262 256.566 297.46V313.246C256.566 313.466 256.478 313.577 256.302 313.576H252.273C252.075 313.576 251.976 313.466 251.976 313.246Z" fill="#FF9A00"/>
</g>
</g>
<g filter="url(#filter4_dd_540_911)">
<rect x="328" y="184" width="120" height="120" rx="12" fill="white"/>
</g>
<g clip-path="url(#clip5_540_911)">
<path d="M403.992 220H371.16C366.653 220 363 223.653 363 228.16V259.763C363 264.27 366.653 267.923 371.16 267.923H403.992C408.499 267.923 412.152 264.27 412.152 259.763V228.16C412.152 223.653 408.499 220 403.992 220Z" fill="#470137"/>
<path d="M388.839 232.603L382.706 242.726L389.268 253.475C389.31 253.55 389.322 253.638 389.301 253.722C389.291 253.758 389.269 253.767 389.235 253.768L389.198 253.767L389.153 253.766C389.128 253.766 389.1 253.767 389.07 253.772L384.339 253.772L384.246 253.771C383.991 253.764 383.808 253.728 383.695 253.541C383.255 252.683 382.816 251.832 382.377 250.985C381.992 250.245 381.586 249.492 381.159 248.726L380.975 248.397C380.481 247.518 379.992 246.628 379.508 245.726H379.475C379.035 246.606 378.579 247.485 378.107 248.364C377.634 249.243 377.167 250.117 376.705 250.985C376.244 251.854 375.771 252.717 375.287 253.574C375.21 253.748 375.081 253.785 374.9 253.791L374.826 253.792H370.309L370.289 253.792L370.224 253.798C370.188 253.8 370.167 253.793 370.16 253.739C370.148 253.658 370.165 253.576 370.21 253.508L376.573 243.055L370.374 232.57C370.309 232.482 370.298 232.411 370.341 232.356C370.391 232.299 370.464 232.268 370.539 232.273H375.188C375.29 232.268 375.391 232.285 375.485 232.323C375.564 232.367 375.632 232.429 375.683 232.504C376.079 233.383 376.518 234.263 377.002 235.142C377.485 236.021 377.974 236.89 378.469 237.747C378.964 238.604 379.42 239.472 379.838 240.352H379.871C380.31 239.45 380.755 238.571 381.206 237.714C381.656 236.856 382.118 235.994 382.591 235.125C383.063 234.257 383.519 233.394 383.959 232.537C383.984 232.456 384.03 232.382 384.091 232.323C384.173 232.281 384.264 232.264 384.355 232.273H388.674C388.76 232.252 388.849 232.293 388.889 232.372C388.925 232.444 388.911 232.53 388.857 232.587L388.839 232.603ZM398.53 254.198L398.302 254.2C396.784 254.223 395.281 253.908 393.9 253.277C392.614 252.682 391.539 251.71 390.817 250.491C390.089 249.282 389.716 247.776 389.697 245.972L389.696 245.825C389.684 244.312 390.07 242.822 390.817 241.506C391.565 240.202 392.655 239.129 393.968 238.402L394.082 238.34C395.51 237.549 397.236 237.153 399.258 237.153L399.347 237.154L399.448 237.157L399.561 237.163L399.687 237.17L399.898 237.185L400.138 237.204L400.313 237.219V230.724C400.313 230.57 400.379 230.493 400.511 230.493H404.666C404.72 230.485 404.775 230.503 404.814 230.542C404.853 230.581 404.871 230.636 404.864 230.691V250.177C404.864 250.505 404.876 250.857 404.901 251.234L404.963 252.09L404.996 252.584C405.004 252.725 404.925 252.856 404.798 252.914C403.726 253.361 402.609 253.693 401.467 253.903C400.498 254.082 399.515 254.181 398.53 254.198ZM400.313 250.112V241.11C400.135 241.062 399.953 241.029 399.769 241.011C399.545 240.988 399.319 240.977 399.093 240.978C398.293 240.97 397.502 241.151 396.785 241.506C396.087 241.853 395.49 242.376 395.054 243.022C394.619 243.659 394.394 244.49 394.379 245.517L394.378 245.627C394.362 246.346 394.48 247.062 394.724 247.737C394.924 248.282 395.239 248.777 395.648 249.188C396.039 249.567 396.513 249.849 397.033 250.013C397.581 250.19 398.154 250.279 398.731 250.277C399.038 250.277 399.324 250.265 399.588 250.243C399.799 250.228 400.007 250.193 400.212 250.14L400.313 250.112Z" fill="#FF61F6"/>
</g>
<g filter="url(#filter5_dd_540_911)">
<rect x="328" y="328" width="120" height="120" rx="12" fill="white"/>
</g>
<path fill-rule="evenodd" clip-rule="evenodd" d="M372.511 391.388L372.493 391.142H370.424L370.435 391.419C370.563 394.5 372.655 396.542 376.377 396.542C379.926 396.542 382.34 394.711 382.34 391.939C382.34 390.441 381.817 389.38 380.819 388.656C380.051 388.099 379.133 387.784 377.611 387.457L377.277 387.386L376.945 387.317C374.18 386.742 373.304 386.242 373.304 384.754C373.304 383.214 374.571 382.234 376.697 382.234C378.766 382.234 380.073 383.488 380.134 385.463L380.142 385.721H382.196L382.19 385.449C382.119 382.371 380.039 380.299 376.677 380.299C373.382 380.299 371.206 382.268 371.206 384.817C371.206 386.312 371.729 387.352 372.728 388.047C373.49 388.577 374.372 388.858 375.928 389.17C376.087 389.202 376.246 389.234 376.405 389.265C377.877 389.554 378.527 389.732 379.12 390.074C379.855 390.499 380.22 391.106 380.22 392.046C380.22 393.678 378.839 394.607 376.42 394.607C374.104 394.607 372.667 393.454 372.511 391.388ZM386.664 380.058V379.792H384.622V396.288H386.664V393.176L388.813 391.081L392.651 396.182L392.731 396.288H395.271L394.947 395.861L390.259 389.682L394.582 385.377L395.038 384.922H392.264L392.186 385L386.664 390.566V380.058ZM405.883 391.283H406.135L406.151 391.033C406.159 390.898 406.166 390.762 406.17 390.627C406.172 390.558 406.173 390.495 406.173 390.439C406.173 387.085 403.943 384.614 400.648 384.614C397.36 384.614 395.017 387.244 395.017 390.567C395.017 393.987 397.254 396.542 400.67 396.542C403.253 396.542 405.249 395.015 405.968 392.698L406.075 392.352H403.935L403.871 392.53C403.42 393.798 402.197 394.64 400.691 394.64C398.723 394.64 397.35 393.292 397.103 391.283H405.883H405.883ZM397.045 389.69C397.39 387.859 398.704 386.644 400.494 386.644C402.339 386.644 403.612 387.819 403.891 389.69H397.046H397.045ZM412.753 386.708H413.018V384.902H410.53V381.822H408.489V384.902H406.426V386.708H408.489V393.07C408.489 395.157 409.573 396.288 411.562 396.288C411.909 396.288 412.208 396.268 412.459 396.233C412.615 396.211 412.722 396.189 412.781 396.172L412.976 396.118V394.228L412.653 394.297C412.559 394.317 412.464 394.333 412.368 394.347C412.165 394.378 411.959 394.395 411.753 394.398C410.882 394.398 410.53 393.989 410.53 392.964V386.708H412.753ZM419.085 396.542C421.888 396.542 423.868 394.745 424.365 392.201L424.428 391.882H422.384L422.332 392.081C421.907 393.704 420.751 394.639 419.085 394.639C417.006 394.639 415.572 392.978 415.572 390.589C415.572 388.181 417.004 386.517 419.085 386.517C420.751 386.517 421.907 387.453 422.332 389.075L422.384 389.274H424.428L424.365 388.955C423.868 386.411 421.888 384.614 419.085 384.614C415.828 384.614 413.525 387.263 413.525 390.589C413.525 393.896 415.831 396.542 419.085 396.542ZM428.239 380.057V379.792H426.202V396.288H428.239V389.615C428.239 387.663 429.424 386.518 431.221 386.518C432.938 386.518 433.8 387.515 433.8 389.402V396.288H435.837V389.104C435.837 386.437 434.191 384.666 431.476 384.666C430.079 384.666 428.956 385.179 428.239 385.916V380.058V380.057Z" fill="black"/>
<path fill-rule="evenodd" clip-rule="evenodd" d="M345.31 377.719L352.169 377L359.029 377.719L364.34 384.783L352.17 398.826L340 384.783L345.31 377.719Z" fill="#FDB300"/>
<path fill-rule="evenodd" clip-rule="evenodd" d="M344.93 384.868L352.17 398.826L340 384.868H344.93Z" fill="#EA6C00"/>
<path fill-rule="evenodd" clip-rule="evenodd" d="M359.411 384.868L352.17 398.826L364.34 384.868H359.411Z" fill="#EA6C00"/>
<path fill-rule="evenodd" clip-rule="evenodd" d="M344.818 384.868H359.27L352.044 398.826L344.818 384.868Z" fill="#FDAD00"/>
<path fill-rule="evenodd" clip-rule="evenodd" d="M351.918 377L345.192 377.726L344.818 384.868L351.918 377Z" fill="#FDD231"/>
<path fill-rule="evenodd" clip-rule="evenodd" d="M352.168 377L358.894 377.726L359.268 384.868L352.168 377Z" fill="#FDD231"/>
<path fill-rule="evenodd" clip-rule="evenodd" d="M364.34 384.868L359.015 377.761L359.397 384.868H364.34Z" fill="#FDAD00"/>
<path fill-rule="evenodd" clip-rule="evenodd" d="M340 384.868L345.324 377.761L344.942 384.868H340Z" fill="#FDAD00"/>
<path fill-rule="evenodd" clip-rule="evenodd" d="M352.044 377L344.818 384.868H359.27L352.044 377Z" fill="#FEEEB7"/>
</g>
<defs>
<filter id="filter0_dd_540_911" x="20" y="40" width="160" height="160" filterUnits="userSpaceOnUse" color-interpolation-filters="sRGB">
<feFlood flood-opacity="0" result="BackgroundImageFix"/>
<feColorMatrix in="SourceAlpha" type="matrix" values="0 0 0 0 0 0 0 0 0 0 0 0 0 0 0 0 0 0 127 0" result="hardAlpha"/>
<feMorphology radius="5" operator="erode" in="SourceAlpha" result="effect1_dropShadow_540_911"/>
<feOffset dy="20"/>
<feGaussianBlur stdDeviation="12.5"/>
<feComposite in2="hardAlpha" operator="out"/>
<feColorMatrix type="matrix" values="0 0 0 0 0 0 0 0 0 0 0 0 0 0 0 0 0 0 0.1 0"/>
<feBlend mode="normal" in2="BackgroundImageFix" result="effect1_dropShadow_540_911"/>
<feColorMatrix in="SourceAlpha" type="matrix" values="0 0 0 0 0 0 0 0 0 0 0 0 0 0 0 0 0 0 127 0" result="hardAlpha"/>
<feMorphology radius="5" operator="erode" in="SourceAlpha" result="effect2_dropShadow_540_911"/>
<feOffset dy="10"/>
<feGaussianBlur stdDeviation="5"/>
<feComposite in2="hardAlpha" operator="out"/>
<feColorMatrix type="matrix" values="0 0 0 0 0 0 0 0 0 0 0 0 0 0 0 0 0 0 0.1 0"/>
<feBlend mode="normal" in2="effect1_dropShadow_540_911" result="effect2_dropShadow_540_911"/>
<feBlend mode="normal" in="SourceGraphic" in2="effect2_dropShadow_540_911" result="shape"/>
</filter>
<filter id="filter1_dd_540_911" x="20" y="184" width="160" height="160" filterUnits="userSpaceOnUse" color-interpolation-filters="sRGB">
<feFlood flood-opacity="0" result="BackgroundImageFix"/>
<feColorMatrix in="SourceAlpha" type="matrix" values="0 0 0 0 0 0 0 0 0 0 0 0 0 0 0 0 0 0 127 0" result="hardAlpha"/>
<feMorphology radius="5" operator="erode" in="SourceAlpha" result="effect1_dropShadow_540_911"/>
<feOffset dy="20"/>
<feGaussianBlur stdDeviation="12.5"/>
<feComposite in2="hardAlpha" operator="out"/>
<feColorMatrix type="matrix" values="0 0 0 0 0 0 0 0 0 0 0 0 0 0 0 0 0 0 0.1 0"/>
<feBlend mode="normal" in2="BackgroundImageFix" result="effect1_dropShadow_540_911"/>
<feColorMatrix in="SourceAlpha" type="matrix" values="0 0 0 0 0 0 0 0 0 0 0 0 0 0 0 0 0 0 127 0" result="hardAlpha"/>
<feMorphology radius="5" operator="erode" in="SourceAlpha" result="effect2_dropShadow_540_911"/>
<feOffset dy="10"/>
<feGaussianBlur stdDeviation="5"/>
<feComposite in2="hardAlpha" operator="out"/>
<feColorMatrix type="matrix" values="0 0 0 0 0 0 0 0 0 0 0 0 0 0 0 0 0 0 0.1 0"/>
<feBlend mode="normal" in2="effect1_dropShadow_540_911" result="effect2_dropShadow_540_911"/>
<feBlend mode="normal" in="SourceGraphic" in2="effect2_dropShadow_540_911" result="shape"/>
</filter>
<filter id="filter2_dd_540_911" x="164" y="100" width="160" height="160" filterUnits="userSpaceOnUse" color-interpolation-filters="sRGB">
<feFlood flood-opacity="0" result="BackgroundImageFix"/>
<feColorMatrix in="SourceAlpha" type="matrix" values="0 0 0 0 0 0 0 0 0 0 0 0 0 0 0 0 0 0 127 0" result="hardAlpha"/>
<feMorphology radius="5" operator="erode" in="SourceAlpha" result="effect1_dropShadow_540_911"/>
<feOffset dy="20"/>
<feGaussianBlur stdDeviation="12.5"/>
<feComposite in2="hardAlpha" operator="out"/>
<feColorMatrix type="matrix" values="0 0 0 0 0 0 0 0 0 0 0 0 0 0 0 0 0 0 0.1 0"/>
<feBlend mode="normal" in2="BackgroundImageFix" result="effect1_dropShadow_540_911"/>
<feColorMatrix in="SourceAlpha" type="matrix" values="0 0 0 0 0 0 0 0 0 0 0 0 0 0 0 0 0 0 127 0" result="hardAlpha"/>
<feMorphology radius="5" operator="erode" in="SourceAlpha" result="effect2_dropShadow_540_911"/>
<feOffset dy="10"/>
<feGaussianBlur stdDeviation="5"/>
<feComposite in2="hardAlpha" operator="out"/>
<feColorMatrix type="matrix" values="0 0 0 0 0 0 0 0 0 0 0 0 0 0 0 0 0 0 0.1 0"/>
<feBlend mode="normal" in2="effect1_dropShadow_540_911" result="effect2_dropShadow_540_911"/>
<feBlend mode="normal" in="SourceGraphic" in2="effect2_dropShadow_540_911" result="shape"/>
</filter>
<filter id="filter3_dd_540_911" x="164" y="244" width="160" height="160" filterUnits="userSpaceOnUse" color-interpolation-filters="sRGB">
<feFlood flood-opacity="0" result="BackgroundImageFix"/>
<feColorMatrix in="SourceAlpha" type="matrix" values="0 0 0 0 0 0 0 0 0 0 0 0 0 0 0 0 0 0 127 0" result="hardAlpha"/>
<feMorphology radius="5" operator="erode" in="SourceAlpha" result="effect1_dropShadow_540_911"/>
<feOffset dy="20"/>
<feGaussianBlur stdDeviation="12.5"/>
<feComposite in2="hardAlpha" operator="out"/>
<feColorMatrix type="matrix" values="0 0 0 0 0 0 0 0 0 0 0 0 0 0 0 0 0 0 0.1 0"/>
<feBlend mode="normal" in2="BackgroundImageFix" result="effect1_dropShadow_540_911"/>
<feColorMatrix in="SourceAlpha" type="matrix" values="0 0 0 0 0 0 0 0 0 0 0 0 0 0 0 0 0 0 127 0" result="hardAlpha"/>
<feMorphology radius="5" operator="erode" in="SourceAlpha" result="effect2_dropShadow_540_911"/>
<feOffset dy="10"/>
<feGaussianBlur stdDeviation="5"/>
<feComposite in2="hardAlpha" operator="out"/>
<feColorMatrix type="matrix" values="0 0 0 0 0 0 0 0 0 0 0 0 0 0 0 0 0 0 0.1 0"/>
<feBlend mode="normal" in2="effect1_dropShadow_540_911" result="effect2_dropShadow_540_911"/>
<feBlend mode="normal" in="SourceGraphic" in2="effect2_dropShadow_540_911" result="shape"/>
</filter>
<filter id="filter4_dd_540_911" x="308" y="184" width="160" height="160" filterUnits="userSpaceOnUse" color-interpolation-filters="sRGB">
<feFlood flood-opacity="0" result="BackgroundImageFix"/>
<feColorMatrix in="SourceAlpha" type="matrix" values="0 0 0 0 0 0 0 0 0 0 0 0 0 0 0 0 0 0 127 0" result="hardAlpha"/>
<feMorphology radius="5" operator="erode" in="SourceAlpha" result="effect1_dropShadow_540_911"/>
<feOffset dy="20"/>
<feGaussianBlur stdDeviation="12.5"/>
<feComposite in2="hardAlpha" operator="out"/>
<feColorMatrix type="matrix" values="0 0 0 0 0 0 0 0 0 0 0 0 0 0 0 0 0 0 0.1 0"/>
<feBlend mode="normal" in2="BackgroundImageFix" result="effect1_dropShadow_540_911"/>
<feColorMatrix in="SourceAlpha" type="matrix" values="0 0 0 0 0 0 0 0 0 0 0 0 0 0 0 0 0 0 127 0" result="hardAlpha"/>
<feMorphology radius="5" operator="erode" in="SourceAlpha" result="effect2_dropShadow_540_911"/>
<feOffset dy="10"/>
<feGaussianBlur stdDeviation="5"/>
<feComposite in2="hardAlpha" operator="out"/>
<feColorMatrix type="matrix" values="0 0 0 0 0 0 0 0 0 0 0 0 0 0 0 0 0 0 0.1 0"/>
<feBlend mode="normal" in2="effect1_dropShadow_540_911" result="effect2_dropShadow_540_911"/>
<feBlend mode="normal" in="SourceGraphic" in2="effect2_dropShadow_540_911" result="shape"/>
</filter>
<filter id="filter5_dd_540_911" x="308" y="328" width="160" height="160" filterUnits="userSpaceOnUse" color-interpolation-filters="sRGB">
<feFlood flood-opacity="0" result="BackgroundImageFix"/>
<feColorMatrix in="SourceAlpha" type="matrix" values="0 0 0 0 0 0 0 0 0 0 0 0 0 0 0 0 0 0 127 0" result="hardAlpha"/>
<feMorphology radius="5" operator="erode" in="SourceAlpha" result="effect1_dropShadow_540_911"/>
<feOffset dy="20"/>
<feGaussianBlur stdDeviation="12.5"/>
<feComposite in2="hardAlpha" operator="out"/>
<feColorMatrix type="matrix" values="0 0 0 0 0 0 0 0 0 0 0 0 0 0 0 0 0 0 0.1 0"/>
<feBlend mode="normal" in2="BackgroundImageFix" result="effect1_dropShadow_540_911"/>
<feColorMatrix in="SourceAlpha" type="matrix" values="0 0 0 0 0 0 0 0 0 0 0 0 0 0 0 0 0 0 127 0" result="hardAlpha"/>
<feMorphology radius="5" operator="erode" in="SourceAlpha" result="effect2_dropShadow_540_911"/>
<feOffset dy="10"/>
<feGaussianBlur stdDeviation="5"/>
<feComposite in2="hardAlpha" operator="out"/>
<feColorMatrix type="matrix" values="0 0 0 0 0 0 0 0 0 0 0 0 0 0 0 0 0 0 0.1 0"/>
<feBlend mode="normal" in2="effect1_dropShadow_540_911" result="effect2_dropShadow_540_911"/>
<feBlend mode="normal" in="SourceGraphic" in2="effect2_dropShadow_540_911" result="shape"/>
</filter>
<clipPath id="clip0_540_911">
<rect width="488" height="488" rx="24" fill="white"/>
</clipPath>
<clipPath id="clip1_540_911">
<rect width="48" height="48" fill="white" transform="translate(76.0645 76.439)"/>
</clipPath>
<clipPath id="clip2_540_911">
<rect width="88" height="30.0781" fill="white" transform="translate(56 229)"/>
</clipPath>
<clipPath id="clip3_540_911">
<rect width="32" height="48" fill="white" transform="translate(227.691 136.12)"/>
</clipPath>
<clipPath id="clip4_540_911">
<rect width="49.8" height="48" fill="white" transform="translate(219.434 279.652)"/>
</clipPath>
<clipPath id="clip5_540_911">
<rect width="49.152" height="48" fill="white" transform="translate(363 220)"/>
</clipPath>
</defs>
</svg>
