<svg width="483" height="473" viewBox="0 0 483 473" fill="none" xmlns="http://www.w3.org/2000/svg">
<path fill-rule="evenodd" clip-rule="evenodd" d="M276.12 430.13C220.415 436.582 180.108 384.785 133.09 354.116C96.1948 330.05 51.1339 314.078 35.197 272.98C18.9619 231.113 31.0279 184.269 51.8101 144.513C71.7024 106.459 104.959 78.3682 144.993 62.9405C186.168 47.0731 229.393 49.1801 272.311 59.5394C330.858 73.6711 400.343 79.5808 430.432 131.838C463.103 188.578 452.675 262.484 422.618 320.584C393.473 376.923 339.083 422.838 276.12 430.13Z" fill="#CBEEFF"/>
<path d="M324.145 81.6491L312.063 74.6733C310.902 73.7548 309.281 73.7005 307.484 74.7373L124.584 180.335C121.052 182.375 118.188 187.847 118.188 192.557V356.82C118.188 359.486 119.105 361.334 120.542 362.069L133.241 369.412L146.955 348.74L307.484 256.059C311.017 254.019 313.881 248.547 313.881 243.837V97.121L324.145 81.6491Z" fill="url(#paint0_linear_332_2223)"/>
<path d="M320.303 82.1411L137.402 187.738C133.87 189.778 131.006 195.25 131.006 199.96V364.223C131.006 368.933 133.87 371.098 137.402 369.059L320.303 263.462C323.835 261.422 326.699 255.95 326.699 251.239V86.9768C326.699 82.2667 323.835 80.1015 320.303 82.1411Z" fill="url(#paint1_linear_332_2223)"/>
<path d="M307.484 74.7373L124.584 180.335C121.052 182.375 118.188 187.847 118.188 192.557V210.778L131.005 218.178L313.881 112.595V97.121L324.145 81.6491L312.063 74.6733C310.902 73.7548 309.281 73.7005 307.484 74.7373Z" fill="url(#paint2_linear_332_2223)"/>
<path d="M320.303 82.1411L137.402 187.738C133.87 189.778 131.006 195.25 131.006 199.96V218.177L326.699 105.193V86.9768C326.699 82.2667 323.835 80.1015 320.303 82.1411Z" fill="url(#paint3_linear_332_2223)"/>
<path d="M315.577 98.243L318.552 92.5584C319.037 91.6334 319.037 90.5868 318.552 90.2207C318.068 89.8546 317.283 90.3082 316.799 91.2332L313.824 96.9178L310.849 94.6684C310.365 94.3023 309.58 94.7559 309.096 95.6809C308.612 96.606 308.612 97.6525 309.096 98.0186L312.071 100.268L309.096 105.953C308.612 106.878 308.612 107.924 309.096 108.29C309.581 108.656 310.365 108.203 310.849 107.278L313.824 101.593L316.799 103.843C317.284 104.209 318.069 103.755 318.552 102.83C319.037 101.905 319.037 100.859 318.552 100.492L315.577 98.243Z" fill="white"/>
<path d="M300.382 109.961L290.786 115.501C289.99 115.96 289.345 117.193 289.345 118.255C289.345 119.316 289.991 119.804 290.786 119.345L300.382 113.805C301.178 113.346 301.823 112.112 301.823 111.051C301.823 109.989 301.178 109.501 300.382 109.961Z" fill="white"/>
<path d="M195.605 192.674L142.298 223.451V282.044L195.605 251.268V192.674Z" fill="white"/>
<path d="M195.605 263.912L142.298 294.689V353.282L195.605 322.505V263.912Z" fill="white"/>
<path d="M255.505 158.091L202.199 188.867V247.46L255.505 216.684V158.091Z" fill="white"/>
<path d="M255.505 229.329L202.199 260.105V318.698L255.505 287.921V229.329Z" fill="white"/>
<path d="M315.406 123.507L262.1 154.284V212.876L315.406 182.1V123.507Z" fill="white"/>
<path d="M315.406 194.744L262.1 225.521V284.114L315.406 253.338V194.744Z" fill="white"/>
<path d="M182.061 227.105L155.842 242.242V264.355C155.842 265.518 156.549 266.053 157.421 265.549L180.481 252.235C181.354 251.731 182.061 250.38 182.061 249.217V227.105Z" fill="url(#paint4_linear_332_2223)"/>
<path d="M155.842 242.243L168.951 246.783L182.061 227.105L155.842 242.243Z" fill="#CC8241"/>
<path d="M182.061 227.105L168.951 215.826L155.842 242.243L182.061 227.105Z" fill="#DEA861"/>
<path d="M168.951 246.783L156.397 265.627C156.674 265.783 157.028 265.776 157.42 265.55L180.481 252.236C180.873 252.009 181.227 251.606 181.504 251.131L168.951 246.783Z" fill="url(#paint5_linear_332_2223)"/>
<path d="M178.516 210.304L159.387 221.349C158.563 221.824 157.896 223.1 157.896 224.198V242.955L168.952 246.783L180.008 230.187V211.432C180.008 210.333 179.339 209.829 178.516 210.304Z" fill="#DEF4FF"/>
<path d="M176.858 215.999L161.044 225.129C160.553 225.413 160.155 226.173 160.155 226.827C160.155 227.482 160.553 227.782 161.044 227.499L176.858 218.368C177.349 218.085 177.747 217.325 177.747 216.671C177.747 216.017 177.349 215.716 176.858 215.999Z" fill="#594A8E"/>
<path d="M176.858 220.843L161.044 229.974C160.553 230.257 160.155 231.017 160.155 231.671C160.155 232.326 160.553 232.626 161.044 232.343L176.858 223.213C177.349 222.929 177.747 222.169 177.747 221.515C177.747 220.86 177.349 220.56 176.858 220.843Z" fill="#594A8E"/>
<path d="M176.858 225.687L161.044 234.817C160.553 235.101 160.155 235.861 160.155 236.515C160.155 237.169 160.553 237.47 161.044 237.187L176.858 228.056C177.349 227.773 177.747 227.013 177.747 226.358C177.747 225.704 177.349 225.403 176.858 225.687Z" fill="#594A8E"/>
<path d="M176.858 230.531L161.044 239.661C160.553 239.945 160.155 240.705 160.155 241.359C160.155 242.014 160.553 242.314 161.044 242.031L176.858 232.9C177.349 232.617 177.747 231.857 177.747 231.203C177.747 230.548 177.349 230.248 176.858 230.531Z" fill="#594A8E"/>
<path d="M176.361 235.662L161.542 244.218L164.106 245.106L173.796 239.512L176.361 235.662Z" fill="#594A8E"/>
<path d="M166.785 246.034L168.951 246.784L171.117 243.532L166.785 246.034Z" fill="#594A8E"/>
<path d="M290.407 150.57V154.304L273.351 164.151C271.804 165.044 270.549 167.441 270.549 169.504V195.497C270.549 197.56 271.804 198.509 273.351 197.616L304.153 179.832C305.7 178.938 306.955 176.542 306.955 174.479V141.017C306.955 139.71 306.16 139.109 305.179 139.675L292.182 147.179C291.203 147.744 290.407 149.263 290.407 150.57Z" fill="url(#paint6_linear_332_2223)"/>
<path d="M302.767 151.051L274.739 167.233V190.954L302.767 174.772V151.051Z" fill="#DEF4FF"/>
<path d="M304.154 156.818L273.352 174.601C271.805 175.495 270.55 177.892 270.55 179.955V195.496C270.55 197.559 271.805 198.508 273.352 197.615L304.154 179.831C305.701 178.937 306.956 176.541 306.956 174.478V158.936C306.956 156.873 305.701 155.924 304.154 156.818Z" fill="url(#paint7_linear_332_2223)"/>
<path d="M183.788 300.031C183.788 289.105 177.145 284.083 168.951 288.815C160.757 293.546 154.114 306.237 154.114 317.162C154.114 328.088 160.757 333.11 168.951 328.378C177.145 323.648 183.788 310.956 183.788 300.031Z" fill="url(#paint8_linear_332_2223)"/>
<path d="M176.996 300.961L164.678 298.59C163.144 298.294 161.72 299.47 161.72 301.033V319.997C161.72 322.395 164.777 323.405 166.206 321.481L178.523 304.887C179.616 303.415 178.796 301.307 176.996 300.961Z" fill="url(#paint9_linear_332_2223)"/>
<path d="M239.728 247.951L217.976 260.511C216.912 261.125 216.05 262.772 216.05 264.19V298.62C216.05 300.037 216.912 300.689 217.976 300.075L239.728 287.516C240.792 286.902 241.654 285.255 241.654 283.837V249.407C241.654 247.989 240.792 247.337 239.728 247.951Z" fill="#DEF4FF"/>
<path d="M238.007 253.334L219.696 263.906C219.128 264.234 218.667 265.114 218.667 265.872C218.667 266.629 219.128 266.978 219.696 266.65L238.007 256.078C238.575 255.749 239.036 254.87 239.036 254.112C239.036 253.354 238.575 253.006 238.007 253.334Z" fill="#594A8E"/>
<path d="M238.007 258.942L219.696 269.515C219.128 269.843 218.667 270.722 218.667 271.481C218.667 272.238 219.128 272.586 219.696 272.258L238.007 261.686C238.575 261.358 239.036 260.478 239.036 259.72C239.036 258.963 238.575 258.614 238.007 258.942Z" fill="#594A8E"/>
<path d="M238.007 264.551L219.696 275.123C219.128 275.451 218.667 276.331 218.667 277.089C218.667 277.846 219.128 278.194 219.696 277.866L238.007 267.294C238.575 266.966 239.036 266.086 239.036 265.328C239.036 264.571 238.575 264.223 238.007 264.551Z" fill="#594A8E"/>
<path d="M238.007 270.16L219.696 280.732C219.128 281.06 218.667 281.94 218.667 282.698C218.667 283.455 219.128 283.804 219.696 283.476L238.007 272.903C238.575 272.575 239.036 271.696 239.036 270.937C239.036 270.18 238.575 269.832 238.007 270.16Z" fill="#594A8E"/>
<path d="M238.007 275.768L219.696 286.34C219.128 286.668 218.667 287.548 218.667 288.306C218.667 289.063 219.128 289.412 219.696 289.084L238.007 278.511C238.575 278.183 239.036 277.304 239.036 276.546C239.036 275.788 238.575 275.441 238.007 275.768Z" fill="#594A8E"/>
<path d="M238.007 281.377L219.696 291.949C219.128 292.277 218.667 293.157 218.667 293.915C218.667 294.672 219.128 295.02 219.696 294.692L238.007 284.12C238.575 283.792 239.036 282.912 239.036 282.154C239.036 281.397 238.575 281.049 238.007 281.377Z" fill="#594A8E"/>
<path d="M221.838 210.247L211.39 216.279V228.467L221.838 222.435V210.247Z" fill="url(#paint10_linear_332_2223)"/>
<path d="M234.076 193.109L223.628 199.141V221.402L234.076 215.37V193.109Z" fill="url(#paint11_linear_332_2223)"/>
<path d="M246.314 177.083L235.866 183.115V214.336L246.314 208.304V177.083Z" fill="url(#paint12_linear_332_2223)"/>
<path d="M254.607 284.216L242.009 276.943L242.007 276.952C241.256 276.449 240.251 276.332 239.357 276.849L223.992 285.72C221.754 287.012 220.375 289.401 220.375 291.984V351.442C220.375 352.515 221.026 353.346 221.885 353.726L221.882 353.735L233.962 360.709L238.041 345.595L239.51 344.747C241.748 343.455 243.126 341.066 243.126 338.482V326.753L254.607 284.216Z" fill="url(#paint13_linear_332_2223)"/>
<path d="M227.722 318.973L215.308 311.806L215.306 311.814C214.561 311.34 213.579 311.243 212.705 311.747L197.34 320.618C195.102 321.91 193.723 324.299 193.723 326.883V366.828C193.723 367.906 194.381 368.741 195.246 369.117L195.243 369.127L207.295 376.085L213.045 360.009C215.169 358.693 216.475 356.378 216.475 353.869V350.418L227.722 318.973Z" fill="url(#paint14_linear_332_2223)"/>
<path d="M188.647 349.12L188.644 349.124C187.901 348.657 186.924 348.565 186.055 349.067L170.69 357.938C168.452 359.23 167.073 361.619 167.073 364.202V382.215C167.073 383.246 167.673 384.056 168.481 384.456L168.475 384.468L181.102 391.758L201.222 356.38L188.647 349.12Z" fill="url(#paint15_linear_332_2223)"/>
<path d="M225.287 319.014L209.922 327.885C207.684 329.177 206.306 331.566 206.306 334.15V374.095C206.306 376.03 208.4 377.239 210.075 376.272L225.44 367.401C227.678 366.109 229.057 363.72 229.057 361.136V321.191C229.057 319.256 226.962 318.047 225.287 319.014Z" fill="url(#paint16_linear_332_2223)"/>
<path d="M251.938 284.116L236.573 292.987C234.335 294.279 232.957 296.668 232.957 299.251V358.709C232.957 360.643 235.051 361.853 236.726 360.886L252.091 352.014C254.329 350.722 255.709 348.334 255.709 345.75V286.292C255.708 284.358 253.613 283.149 251.938 284.116Z" fill="url(#paint17_linear_332_2223)"/>
<path d="M198.636 356.334L183.271 365.206C181.033 366.497 179.655 368.886 179.655 371.47V389.483C179.655 391.418 181.749 392.627 183.425 391.66L198.79 382.788C201.028 381.496 202.406 379.108 202.406 376.524V358.511C202.406 356.576 200.312 355.367 198.636 356.334Z" fill="url(#paint18_linear_332_2223)"/>
<path d="M407.015 151.1L394.933 144.125C393.772 143.206 392.151 143.152 390.354 144.189L266.351 215.775C262.817 217.815 259.954 223.287 259.954 227.997V324.333C259.954 326.999 260.872 328.847 262.309 329.582L275.008 336.925L288.721 316.253L390.354 257.582C393.888 255.543 396.751 250.07 396.751 245.36V166.571L407.015 151.1Z" fill="url(#paint19_linear_332_2223)"/>
<path d="M403.172 151.594L279.169 223.18C275.635 225.22 272.772 230.692 272.772 235.402V331.738C272.772 336.448 275.636 338.613 279.169 336.574L403.172 264.987C406.706 262.947 409.569 257.475 409.569 252.765V156.429C409.57 151.718 406.706 149.553 403.172 151.594Z" fill="url(#paint20_linear_332_2223)"/>
<path d="M390.354 144.189L266.351 215.776C262.817 217.816 259.954 223.288 259.954 227.998V246.219L272.772 253.619L396.752 182.046V166.572L407.016 151.1L394.934 144.125C393.771 143.207 392.15 143.153 390.354 144.189Z" fill="url(#paint21_linear_332_2223)"/>
<path d="M403.172 151.594L279.169 223.18C275.635 225.22 272.772 230.692 272.772 235.402V253.619L409.57 174.646V156.429C409.57 151.718 406.706 149.553 403.172 151.594Z" fill="url(#paint22_linear_332_2223)"/>
<path d="M398.447 167.694L401.422 162.01C401.907 161.085 401.907 160.038 401.422 159.672C400.938 159.306 400.153 159.759 399.669 160.684L396.694 166.369L393.719 164.12C393.235 163.753 392.45 164.207 391.966 165.132C391.482 166.057 391.482 167.104 391.966 167.47L394.941 169.719L391.966 175.404C391.482 176.329 391.482 177.375 391.966 177.741C392.451 178.108 393.236 177.654 393.719 176.729L396.694 171.044L399.669 173.294C400.154 173.66 400.939 173.206 401.422 172.281C401.907 171.356 401.907 170.31 401.422 169.944L398.447 167.694Z" fill="white"/>
<path d="M383.251 179.412L373.656 184.952C372.86 185.411 372.215 186.644 372.215 187.706C372.215 188.767 372.86 189.255 373.656 188.795L383.251 183.256C384.047 182.796 384.692 181.564 384.692 180.502C384.692 179.441 384.047 178.952 383.251 179.412Z" fill="white"/>
<path d="M398.276 192.959L285.069 258.318V316.911L398.276 251.551V192.959Z" fill="white"/>
<path d="M317.76 252.388L296.449 264.692C295.646 265.155 294.995 266.399 294.995 267.47V287.893C294.995 288.963 295.646 289.455 296.449 288.992L317.76 276.688C318.563 276.224 319.214 274.98 319.214 273.909V253.487C319.214 252.416 318.563 251.923 317.76 252.388Z" fill="url(#paint23_linear_332_2223)"/>
<path d="M316.667 256.43L297.542 267.472V284.949L316.667 273.907V256.43Z" fill="white"/>
<path d="M317.76 285.938L296.449 298.242C295.646 298.706 294.995 298.214 294.995 297.143V291.769C294.995 290.698 295.646 289.455 296.449 288.991L317.76 276.687C318.563 276.223 319.214 276.715 319.214 277.786V283.16C319.214 284.231 318.563 285.475 317.76 285.938Z" fill="url(#paint24_linear_332_2223)"/>
<path d="M309.519 281.446L308.453 282.062V291.313L309.519 290.697V281.446Z" fill="#79D3FE"/>
<path d="M316.674 280.937L310.513 284.494V286.414L316.674 282.857V280.937Z" fill="#43386B"/>
<path d="M301.214 287.942L296.505 290.661V292.03L301.214 289.311V287.942Z" fill="#43386B"/>
<path d="M317.858 280.254L316.673 280.938V282.857L317.858 282.174V280.254Z" fill="#F7E041"/>
<path d="M386.016 227.202C385.466 227.519 384.934 227.931 384.426 228.402C383.058 225.225 380.059 224.195 376.569 226.21C372.208 228.727 368.611 235.112 368.015 241.051C367.855 241.123 367.701 241.169 367.537 241.263C364.797 242.845 362.576 247.089 362.576 250.743C362.576 254.397 364.797 256.076 367.537 254.494L386.016 243.826C389.458 241.838 392.249 236.506 392.249 231.915C392.249 227.324 389.458 225.214 386.016 227.202Z" fill="url(#paint25_linear_332_2223)"/>
<path d="M325.305 267.784L324.64 268.168C324.456 268.274 324.308 268.161 324.308 267.917C324.308 267.672 324.457 267.388 324.64 267.282L325.305 266.898C325.489 266.792 325.637 266.904 325.637 267.149C325.637 267.393 325.489 267.678 325.305 267.784Z" fill="#2F878A"/>
<path d="M353.213 251.671L351.885 252.439C351.701 252.545 351.553 252.432 351.553 252.187C351.553 251.943 351.701 251.659 351.885 251.552L353.213 250.785C353.397 250.679 353.545 250.792 353.545 251.036C353.545 251.281 353.396 251.565 353.213 251.671ZM349.226 253.973L347.898 254.741C347.714 254.847 347.566 254.734 347.566 254.489C347.566 254.245 347.714 253.961 347.898 253.854L349.226 253.087C349.41 252.981 349.559 253.094 349.559 253.338C349.559 253.583 349.409 253.867 349.226 253.973ZM345.24 256.275L343.911 257.042C343.727 257.148 343.579 257.035 343.579 256.791C343.579 256.546 343.728 256.262 343.911 256.156L345.24 255.389C345.423 255.282 345.572 255.395 345.572 255.64C345.572 255.885 345.423 256.169 345.24 256.275ZM341.253 258.577L339.923 259.345C339.74 259.451 339.591 259.338 339.591 259.094C339.591 258.849 339.74 258.565 339.923 258.459L341.253 257.691C341.437 257.585 341.585 257.698 341.585 257.943C341.585 258.187 341.437 258.471 341.253 258.577ZM337.266 260.879L335.937 261.647C335.753 261.753 335.605 261.64 335.605 261.396C335.605 261.151 335.753 260.867 335.937 260.761L337.266 259.993C337.45 259.887 337.598 259.999 337.598 260.244C337.598 260.488 337.45 260.773 337.266 260.879ZM333.279 263.181L331.95 263.948C331.766 264.054 331.618 263.941 331.618 263.697C331.618 263.452 331.767 263.168 331.95 263.062L333.279 262.294C333.463 262.188 333.611 262.3 333.611 262.545C333.611 262.79 333.463 263.074 333.279 263.181ZM329.291 265.483L327.963 266.25C327.779 266.356 327.631 266.243 327.631 265.999C327.631 265.754 327.78 265.47 327.963 265.364L329.291 264.597C329.475 264.491 329.623 264.603 329.623 264.848C329.623 265.092 329.475 265.377 329.291 265.483Z" fill="#2F878A"/>
<path d="M356.536 249.753L355.871 250.137C355.687 250.243 355.539 250.13 355.539 249.886C355.539 249.641 355.688 249.357 355.871 249.251L356.536 248.867C356.72 248.76 356.868 248.873 356.868 249.118C356.868 249.362 356.719 249.647 356.536 249.753Z" fill="#2F878A"/>
<path d="M355.567 254.288L361.306 246.555L355.567 245.45V254.288Z" fill="#2F878A"/>
<path d="M378.122 275.905L367.473 269.652L367.471 269.657C363.607 267.305 358.52 267.453 352.942 270.674C340.864 277.647 331.072 296.356 331.072 312.46C331.072 321.297 334.025 327.505 338.681 330.164L338.677 330.172L349.7 336.639L353.412 328.706C365.273 321.524 374.812 303.101 374.812 287.207C374.812 285.878 374.739 284.616 374.61 283.41L378.122 275.905Z" fill="url(#paint26_linear_332_2223)"/>
<path d="M385.8 293.659C385.8 277.554 376.009 270.152 363.93 277.126C351.852 284.099 342.06 302.808 342.06 318.913C342.06 335.017 351.851 342.419 363.93 335.446C376.009 328.471 385.8 309.764 385.8 293.659Z" fill="url(#paint27_linear_332_2223)"/>
<path d="M378.875 295.624L378.873 295.628C378.516 295.413 378.115 295.249 377.67 295.163L359.513 291.669C357.251 291.233 355.153 292.966 355.153 295.27V323.225C355.153 324.835 356.091 326.012 357.307 326.558L357.305 326.561L362.21 329.41L383.919 298.53L378.875 295.624Z" fill="url(#paint28_linear_332_2223)"/>
<path d="M382.782 298.111L364.625 294.617C362.363 294.182 360.265 295.914 360.265 298.218V326.173C360.265 329.707 364.771 331.197 366.877 328.359L385.034 303.899C386.644 301.73 385.436 298.622 382.782 298.111Z" fill="url(#paint29_linear_332_2223)"/>
<path d="M163.314 194.409C163.314 182.345 153.534 172.565 141.469 172.565C138.587 172.565 135.841 173.136 133.321 174.151C126.366 165.333 115.595 159.665 103.493 159.665C82.5189 159.665 65.5169 176.668 65.5169 197.642C65.5169 198.291 65.5339 198.936 65.5655 199.577C55.0775 203.558 47.6206 213.695 47.6206 225.579C47.6206 240.937 60.0712 253.387 75.4289 253.387C80.8397 253.387 85.8853 251.837 90.1572 249.164L90.158 249.165L120.588 231.552C121.891 230.893 123.152 230.165 124.363 229.366L150.016 214.518L150.013 214.517C157.831 211.191 163.314 203.441 163.314 194.409Z" fill="url(#paint30_linear_332_2223)"/>
<path d="M107.588 254.113C107.331 254.261 107.122 254.104 107.122 253.762V252.875C107.122 252.533 107.33 252.134 107.588 251.986C107.845 251.838 108.054 251.995 108.054 252.338V253.224C108.054 253.566 107.845 253.965 107.588 254.113Z" fill="#43386B"/>
<path d="M107.588 339.44C107.331 339.589 107.122 339.432 107.122 339.089V337.311C107.122 336.968 107.33 336.57 107.588 336.422C107.845 336.273 108.054 336.43 108.054 336.773V338.551C108.054 338.894 107.845 339.291 107.588 339.44ZM107.588 332.329C107.331 332.478 107.122 332.321 107.122 331.978V330.2C107.122 329.857 107.33 329.459 107.588 329.311C107.845 329.162 108.054 329.319 108.054 329.662V331.44C108.054 331.783 107.845 332.181 107.588 332.329ZM107.588 325.218C107.331 325.367 107.122 325.209 107.122 324.867V323.089C107.122 322.746 107.33 322.348 107.588 322.199C107.845 322.051 108.054 322.208 108.054 322.551V324.329C108.054 324.672 107.845 325.07 107.588 325.218ZM107.588 318.108C107.331 318.256 107.122 318.099 107.122 317.757V315.979C107.122 315.636 107.33 315.237 107.588 315.089C107.845 314.941 108.054 315.098 108.054 315.441V317.219C108.054 317.561 107.845 317.959 107.588 318.108ZM107.588 310.998C107.331 311.146 107.122 310.989 107.122 310.646V308.868C107.122 308.526 107.33 308.127 107.588 307.979C107.845 307.831 108.054 307.988 108.054 308.331V310.109C108.054 310.451 107.845 310.85 107.588 310.998ZM107.588 303.887C107.331 304.035 107.122 303.878 107.122 303.535V301.757C107.122 301.415 107.33 301.016 107.588 300.868C107.845 300.72 108.054 300.877 108.054 301.22V302.997C108.054 303.341 107.845 303.739 107.588 303.887ZM107.588 296.777C107.331 296.925 107.122 296.768 107.122 296.425V294.647C107.122 294.305 107.33 293.906 107.588 293.758C107.845 293.61 108.054 293.767 108.054 294.109V295.887C108.054 296.23 107.845 296.628 107.588 296.777ZM107.588 289.666C107.331 289.814 107.122 289.657 107.122 289.314V287.536C107.122 287.193 107.33 286.795 107.588 286.647C107.845 286.498 108.054 286.656 108.054 286.998V288.776C108.054 289.119 107.845 289.517 107.588 289.666ZM107.588 282.555C107.331 282.704 107.122 282.546 107.122 282.204V280.426C107.122 280.083 107.33 279.685 107.588 279.536C107.845 279.388 108.054 279.545 108.054 279.888V281.666C108.054 282.009 107.845 282.406 107.588 282.555ZM107.588 275.445C107.331 275.593 107.122 275.436 107.122 275.094V273.316C107.122 272.973 107.33 272.574 107.588 272.426C107.845 272.278 108.054 272.435 108.054 272.778V274.556C108.054 274.898 107.845 275.297 107.588 275.445ZM107.588 268.334C107.331 268.482 107.122 268.325 107.122 267.983V266.205C107.122 265.862 107.33 265.463 107.588 265.315C107.845 265.167 108.054 265.324 108.054 265.667V267.445C108.054 267.788 107.845 268.186 107.588 268.334ZM107.588 261.224C107.331 261.372 107.122 261.215 107.122 260.872V259.094C107.122 258.752 107.33 258.353 107.588 258.205C107.845 258.057 108.054 258.214 108.054 258.557V260.335C108.054 260.677 107.845 261.076 107.588 261.224Z" fill="#43386B"/>
<path d="M108.252 345.275L107.122 345.928V344.421C107.122 344.079 107.33 343.68 107.587 343.532C107.844 343.384 108.053 343.541 108.053 343.883V344.149L108.252 344.034C108.509 343.886 108.718 344.043 108.718 344.386C108.717 344.728 108.509 345.127 108.252 345.275Z" fill="#43386B"/>
<path d="M145.035 324.039L143.721 324.797C143.464 324.945 143.256 324.788 143.256 324.445C143.256 324.103 143.464 323.704 143.721 323.556L145.035 322.798C145.292 322.65 145.501 322.807 145.501 323.149C145.5 323.492 145.292 323.891 145.035 324.039ZM139.779 327.073L138.466 327.831C138.209 327.979 138 327.822 138 327.48C138 327.137 138.208 326.739 138.466 326.59L139.779 325.832C140.036 325.684 140.245 325.841 140.245 326.184C140.245 326.526 140.037 326.924 139.779 327.073ZM134.525 330.107L133.211 330.865C132.954 331.013 132.745 330.856 132.745 330.513C132.745 330.171 132.954 329.772 133.211 329.624L134.525 328.866C134.782 328.717 134.991 328.875 134.991 329.217C134.991 329.56 134.783 329.958 134.525 330.107ZM129.27 333.14L127.957 333.898C127.7 334.046 127.491 333.889 127.491 333.547C127.491 333.204 127.699 332.805 127.957 332.657L129.27 331.899C129.527 331.751 129.735 331.908 129.735 332.251C129.735 332.594 129.527 332.992 129.27 333.14ZM124.016 336.174L122.702 336.932C122.445 337.081 122.236 336.924 122.236 336.581C122.236 336.238 122.445 335.84 122.702 335.692L124.016 334.933C124.273 334.785 124.481 334.942 124.481 335.285C124.481 335.628 124.273 336.026 124.016 336.174ZM118.761 339.208L117.448 339.966C117.191 340.114 116.982 339.957 116.982 339.614C116.982 339.272 117.19 338.873 117.448 338.725L118.761 337.967C119.017 337.819 119.226 337.976 119.226 338.318C119.226 338.662 119.018 339.06 118.761 339.208ZM113.506 342.241L112.192 343C111.936 343.148 111.727 342.991 111.727 342.649C111.727 342.306 111.935 341.908 112.192 341.759L113.506 341.001C113.763 340.853 113.972 341.01 113.972 341.353C113.972 341.695 113.764 342.093 113.506 342.241Z" fill="#43386B"/>
<path d="M149.641 321.38L148.976 321.764C148.719 321.912 148.511 321.755 148.511 321.412C148.511 321.07 148.719 320.671 148.976 320.523L149.641 320.139C149.898 319.991 150.107 320.148 150.107 320.49C150.107 320.833 149.898 321.232 149.641 321.38Z" fill="#43386B"/>
<path d="M102.947 257.095L107.588 243.703L112.227 251.738L102.947 257.095Z" fill="#43386B"/>
<path d="M281.513 57.8644L271.372 52L243.711 54.9282L216.05 83.9401V108.489C216.05 119.404 219.686 127.368 225.73 130.642L225.729 130.643L235.348 136.197L237.71 132.19L243.712 132.072L254.678 119.623C264.819 108.113 271.372 91.2051 271.372 76.5488V75.0722L281.513 57.8644Z" fill="url(#paint31_linear_332_2223)"/>
<path d="M225.73 130.642L225.73 130.643L235.348 136.197L237.71 132.19L243.712 132.071L247.809 127.42L226.192 89.8044L216.051 83.9399V108.489C216.05 119.404 219.686 127.368 225.73 130.642Z" fill="url(#paint32_linear_332_2223)"/>
<path d="M253.852 63.6909L228.24 90.5532V113.171C228.24 126.683 234.327 135.359 243.676 135.176L253.852 134.975L264.028 123.426C273.377 112.814 279.463 97.1102 279.463 83.5976V60.9799L253.852 63.6909Z" fill="url(#paint33_linear_332_2223)"/>
<path d="M253.852 137.937L242.885 138.152C232.744 138.352 226.192 129.011 226.192 114.354V89.8047L253.852 60.7927L281.513 57.8654V82.4142C281.513 97.0704 274.96 113.978 264.819 125.489L253.852 137.937ZM230.29 91.3024V111.988C230.29 124.435 235.854 132.368 244.467 132.199L253.853 132.014L263.237 121.362C271.85 111.586 277.415 97.2268 277.415 84.7802V64.0943L253.853 66.5891L230.29 91.3024Z" fill="url(#paint34_linear_332_2223)"/>
<path d="M264.856 87.463V84.9803C264.856 78.1884 260.712 75.0561 255.619 77.9965C250.525 80.9376 246.381 88.8554 246.381 95.6465V98.1292C245.477 98.8833 244.795 100.335 244.795 101.607V117.462C244.795 118.905 245.673 119.568 246.755 118.943L264.482 108.709C265.564 108.084 266.441 106.407 266.441 104.964V89.1106C266.442 87.838 265.759 87.1746 264.856 87.463ZM256.997 104.09V106.183C256.997 107.198 256.379 108.377 255.619 108.816C254.857 109.255 254.24 108.79 254.24 107.775V105.682C253.354 105.543 252.754 104.635 252.754 103.192C252.754 101.082 254.036 98.6322 255.618 97.7185C257.2 96.8048 258.482 97.7744 258.482 99.8844C258.483 101.327 257.883 102.929 256.997 104.09ZM261.217 89.5139L250.02 95.9786V93.5461C250.02 89.4305 252.532 84.6312 255.619 82.8492C258.706 81.0672 261.217 82.9659 261.217 87.0815V89.5139Z" fill="url(#paint35_linear_332_2223)"/>
<path d="M243.711 54.9282L253.852 60.7926L281.513 57.8653L271.372 52L243.711 54.9282Z" fill="url(#paint36_linear_332_2223)"/>
<defs>
<linearGradient id="paint0_linear_332_2223" x1="221.166" y1="292.441" x2="221.166" y2="7.29648" gradientUnits="userSpaceOnUse">
<stop stop-color="#2690D1"/>
<stop offset="1" stop-color="#79D3FE"/>
</linearGradient>
<linearGradient id="paint1_linear_332_2223" x1="228.852" y1="370.596" x2="153.071" y2="239.343" gradientUnits="userSpaceOnUse">
<stop stop-color="#218DCE"/>
<stop offset="1" stop-color="#79D3FE"/>
</linearGradient>
<linearGradient id="paint2_linear_332_2223" x1="174.418" y1="222.709" x2="180.179" y2="212.731" gradientUnits="userSpaceOnUse">
<stop stop-color="#0072BC"/>
<stop offset="1" stop-color="#79D3FE"/>
</linearGradient>
<linearGradient id="paint3_linear_332_2223" x1="228.852" y1="184.223" x2="177.082" y2="94.5573" gradientUnits="userSpaceOnUse">
<stop stop-color="#0072BC"/>
<stop offset="1" stop-color="#79D3FE"/>
</linearGradient>
<linearGradient id="paint4_linear_332_2223" x1="168.951" y1="277.717" x2="151.545" y2="247.568" gradientUnits="userSpaceOnUse">
<stop stop-color="#CC8241"/>
<stop offset="1" stop-color="#EBCBA0"/>
</linearGradient>
<linearGradient id="paint5_linear_332_2223" x1="168.951" y1="245.969" x2="177.809" y2="261.31" gradientUnits="userSpaceOnUse">
<stop stop-color="#CC8241"/>
<stop offset="1" stop-color="#EBCBA0"/>
</linearGradient>
<linearGradient id="paint6_linear_332_2223" x1="288.753" y1="168.614" x2="275.827" y2="146.227" gradientUnits="userSpaceOnUse">
<stop stop-color="#CC8241"/>
<stop offset="1" stop-color="#EBCBA0"/>
</linearGradient>
<linearGradient id="paint7_linear_332_2223" x1="288.753" y1="196.62" x2="271.878" y2="167.392" gradientUnits="userSpaceOnUse">
<stop stop-color="#CC8241"/>
<stop offset="1" stop-color="#EBCBA0"/>
</linearGradient>
<linearGradient id="paint8_linear_332_2223" x1="168.951" y1="331.474" x2="152.931" y2="303.726" gradientUnits="userSpaceOnUse">
<stop stop-color="#0072BC"/>
<stop offset="1" stop-color="#79D3FE"/>
</linearGradient>
<linearGradient id="paint9_linear_332_2223" x1="170.368" y1="323.669" x2="159.82" y2="305.4" gradientUnits="userSpaceOnUse">
<stop stop-color="#79D3FE"/>
<stop offset="1" stop-color="white"/>
</linearGradient>
<linearGradient id="paint10_linear_332_2223" x1="216.614" y1="227.499" x2="211.442" y2="218.542" gradientUnits="userSpaceOnUse">
<stop stop-color="#AB2C37"/>
<stop offset="1" stop-color="#FF7A85"/>
</linearGradient>
<linearGradient id="paint11_linear_332_2223" x1="228.852" y1="222.125" x2="219.407" y2="205.767" gradientUnits="userSpaceOnUse">
<stop stop-color="#E37A34"/>
<stop offset="1" stop-color="#F7E041"/>
</linearGradient>
<linearGradient id="paint12_linear_332_2223" x1="241.09" y1="216.564" x2="227.844" y2="193.622" gradientUnits="userSpaceOnUse">
<stop stop-color="#236568"/>
<stop offset="1" stop-color="#06DAAE"/>
</linearGradient>
<linearGradient id="paint13_linear_332_2223" x1="240.056" y1="303.055" x2="245.861" y2="293" gradientUnits="userSpaceOnUse">
<stop stop-color="#236568"/>
<stop offset="1" stop-color="#9BF0DF"/>
</linearGradient>
<linearGradient id="paint14_linear_332_2223" x1="208.897" y1="335.986" x2="212.098" y2="330.441" gradientUnits="userSpaceOnUse">
<stop stop-color="#E37A34"/>
<stop offset="1" stop-color="#F7E041"/>
</linearGradient>
<linearGradient id="paint15_linear_332_2223" x1="178.07" y1="370.111" x2="182.032" y2="363.248" gradientUnits="userSpaceOnUse">
<stop stop-color="#AB2C37"/>
<stop offset="1" stop-color="#FF959D"/>
</linearGradient>
<linearGradient id="paint16_linear_332_2223" x1="217.681" y1="364.346" x2="197.115" y2="328.725" gradientUnits="userSpaceOnUse">
<stop stop-color="#E37A34"/>
<stop offset="1" stop-color="#F7E041"/>
</linearGradient>
<linearGradient id="paint17_linear_332_2223" x1="244.332" y1="367.915" x2="215.487" y2="317.956" gradientUnits="userSpaceOnUse">
<stop stop-color="#236568"/>
<stop offset="1" stop-color="#06DAAE"/>
</linearGradient>
<linearGradient id="paint18_linear_332_2223" x1="191.031" y1="391.727" x2="178.292" y2="369.663" gradientUnits="userSpaceOnUse">
<stop stop-color="#AB2C37"/>
<stop offset="1" stop-color="#FF7A85"/>
</linearGradient>
<linearGradient id="paint19_linear_332_2223" x1="333.484" y1="286.513" x2="333.484" y2="99.7536" gradientUnits="userSpaceOnUse">
<stop stop-color="#2892D2"/>
<stop offset="1" stop-color="#79D3FE"/>
</linearGradient>
<linearGradient id="paint20_linear_332_2223" x1="341.171" y1="334.767" x2="293.776" y2="252.679" gradientUnits="userSpaceOnUse">
<stop stop-color="#238ECF"/>
<stop offset="1" stop-color="#79D3FE"/>
</linearGradient>
<linearGradient id="paint21_linear_332_2223" x1="302.035" y1="248.658" x2="306.216" y2="241.415" gradientUnits="userSpaceOnUse">
<stop stop-color="#0072BC"/>
<stop offset="1" stop-color="#79D3FE"/>
</linearGradient>
<linearGradient id="paint22_linear_332_2223" x1="341.171" y1="236.678" x2="289.389" y2="146.992" gradientUnits="userSpaceOnUse">
<stop stop-color="#0072BC"/>
<stop offset="1" stop-color="#79D3FE"/>
</linearGradient>
<linearGradient id="paint23_linear_332_2223" x1="307.104" y1="294.709" x2="290.891" y2="266.628" gradientUnits="userSpaceOnUse">
<stop stop-color="#238ECF"/>
<stop offset="1" stop-color="#79D3FE"/>
</linearGradient>
<linearGradient id="paint24_linear_332_2223" x1="307.104" y1="299.684" x2="299.863" y2="287.143" gradientUnits="userSpaceOnUse">
<stop stop-color="#248FCF"/>
<stop offset="1" stop-color="#79D3FE"/>
</linearGradient>
<linearGradient id="paint25_linear_332_2223" x1="377.412" y1="260.061" x2="362.02" y2="233.402" gradientUnits="userSpaceOnUse">
<stop stop-color="#238ECF"/>
<stop offset="1" stop-color="#79D3FE"/>
</linearGradient>
<linearGradient id="paint26_linear_332_2223" x1="349.576" y1="305.66" x2="361.532" y2="284.952" gradientUnits="userSpaceOnUse">
<stop stop-color="#AB2C37"/>
<stop offset="1" stop-color="#FF959D"/>
</linearGradient>
<linearGradient id="paint27_linear_332_2223" x1="363.931" y1="346.459" x2="340.316" y2="305.558" gradientUnits="userSpaceOnUse">
<stop stop-color="#AB2C37"/>
<stop offset="1" stop-color="#FF7A85"/>
</linearGradient>
<linearGradient id="paint28_linear_332_2223" x1="366.858" y1="301.045" x2="369.593" y2="296.309" gradientUnits="userSpaceOnUse">
<stop stop-color="#228DCE"/>
<stop offset="1" stop-color="white"/>
</linearGradient>
<linearGradient id="paint29_linear_332_2223" x1="373.012" y1="324.631" x2="357.464" y2="297.702" gradientUnits="userSpaceOnUse">
<stop stop-color="#1F8BCD"/>
<stop offset="1" stop-color="white"/>
</linearGradient>
<linearGradient id="paint30_linear_332_2223" x1="117.297" y1="233.817" x2="92.8318" y2="186.042" gradientUnits="userSpaceOnUse">
<stop stop-color="#218DCE"/>
<stop offset="1" stop-color="#79D3FE"/>
</linearGradient>
<linearGradient id="paint31_linear_332_2223" x1="232.635" y1="105.139" x2="260.297" y2="71.4043" gradientUnits="userSpaceOnUse">
<stop stop-color="#238ECF"/>
<stop offset="1" stop-color="#79D3FE"/>
</linearGradient>
<linearGradient id="paint32_linear_332_2223" x1="231.929" y1="81.4645" x2="231.929" y2="154.25" gradientUnits="userSpaceOnUse">
<stop stop-color="#248FD0"/>
<stop offset="1" stop-color="#79D3FE"/>
</linearGradient>
<linearGradient id="paint33_linear_332_2223" x1="253.852" y1="146.95" x2="223.608" y2="94.568" gradientUnits="userSpaceOnUse">
<stop stop-color="#236568"/>
<stop offset="1" stop-color="#06DAAE"/>
</linearGradient>
<linearGradient id="paint34_linear_332_2223" x1="253.852" y1="158.177" x2="220.795" y2="100.923" gradientUnits="userSpaceOnUse">
<stop stop-color="#C5BAEB"/>
<stop offset="1" stop-color="white"/>
</linearGradient>
<linearGradient id="paint35_linear_332_2223" x1="255.619" y1="127.608" x2="255.619" y2="92.2767" gradientUnits="userSpaceOnUse">
<stop stop-color="#C5BAEB"/>
<stop offset="1" stop-color="white"/>
</linearGradient>
<linearGradient id="paint36_linear_332_2223" x1="247.615" y1="58.0323" x2="275.446" y2="54.9962" gradientUnits="userSpaceOnUse">
<stop stop-color="#2791D1"/>
<stop offset="1" stop-color="#79D3FE"/>
</linearGradient>
</defs>
</svg>
