<svg width="480" height="480" viewBox="0 0 480 480" fill="none" xmlns="http://www.w3.org/2000/svg">
<g clip-path="url(#clip0_519_1499)">
<mask id="mask0_519_1499" style="mask-type:luminance" maskUnits="userSpaceOnUse" x="0" y="0" width="480" height="480">
<path d="M456 0H24C10.7452 0 0 10.7452 0 24V456C0 469.255 10.7452 480 24 480H456C469.255 480 480 469.255 480 456V24C480 10.7452 469.255 0 456 0Z" fill="white"/>
</mask>
<g mask="url(#mask0_519_1499)">
<path d="M456 0H24C10.7452 0 0 10.7452 0 24V456C0 469.255 10.7452 480 24 480H456C469.255 480 480 469.255 480 456V24C480 10.7452 469.255 0 456 0Z" fill="#E6F3FF"/>
<path d="M-63.0308 40.7969C-37.5941 54.9419 19.0021 75.7463 41.8931 45.8041C70.5068 8.37633 41.7033 0.871189 33.2447 19.5474C24.786 38.2236 66.9968 63.6024 108.765 25.1246C142.179 -5.65759 157.787 -53.1177 161.414 -73" stroke="#0487FF" stroke-dasharray="6 6"/>
<path d="M479.529 315.123C454.601 330.146 408.389 368.881 422.967 403.637C441.189 447.083 462.034 425.835 450.045 409.203C438.056 392.572 395.035 416.553 407.622 471.93C417.691 516.232 451.088 553.391 466.527 566.432" stroke="#0487FF" stroke-dasharray="6 6"/>
<path d="M368.586 367.344H315.518C314.735 367.344 314.099 366.709 314.099 365.926C314.099 365.143 314.735 364.507 315.518 364.507H367.168V346.908C367.168 346.125 367.803 345.49 368.586 345.49C369.369 345.49 370.005 346.125 370.005 346.908V365.926C370.005 366.71 369.369 367.344 368.586 367.344Z" fill="#263238"/>
<path d="M335.834 284.55H285.256C284.733 284.55 284.311 284.127 284.311 283.604V256.298C284.311 255.776 284.733 255.352 285.256 255.352C285.779 255.352 286.202 255.776 286.202 256.298V282.659H335.834C336.357 282.659 336.78 283.081 336.78 283.604C336.78 284.127 336.357 284.55 335.834 284.55Z" fill="#233863"/>
<path d="M203.787 150.361H187.697C187.174 150.361 186.752 149.937 186.752 149.415V117.254H162.014C161.492 117.254 161.069 116.831 161.069 116.309C161.069 115.787 161.492 115.363 162.014 115.363H187.697C188.22 115.363 188.643 115.787 188.643 116.309V148.47H203.787C204.31 148.47 203.625 148.893 203.625 149.415C203.625 149.937 204.31 150.361 203.787 150.361Z" fill="#233863"/>
<path d="M179.056 321.576C178.273 321.576 177.638 320.94 177.638 320.157V272.306H150.223C149.44 272.306 148.804 271.671 148.804 270.888V212.165C148.804 211.381 149.44 210.746 150.223 210.746C151.006 210.746 151.641 211.381 151.641 212.165V269.47H179.056C179.839 269.47 180.475 270.106 180.475 270.889V320.158C180.475 320.94 179.839 321.576 179.056 321.576Z" fill="#233863"/>
<path d="M318.238 130.48H300.82C300.559 130.48 300.347 130.268 300.347 130.007C300.347 129.746 300.559 129.534 300.82 129.534H318.238C318.499 129.534 318.711 129.746 318.711 130.007C318.711 130.268 318.5 130.48 318.238 130.48Z" fill="white"/>
<path d="M388.994 147.495V135.656C388.994 132.202 385.471 129.401 381.125 129.401H210.829C206.484 129.401 202.961 132.202 202.961 135.656V252.706C202.961 256.16 206.483 258.961 210.829 258.961H381.126C385.471 258.961 388.995 256.16 388.995 252.706V233.919" fill="white"/>
<mask id="mask1_519_1499" style="mask-type:luminance" maskUnits="userSpaceOnUse" x="202" y="129" width="187" height="130">
<path d="M388.994 147.495V135.656C388.994 132.202 385.471 129.401 381.125 129.401H210.829C206.484 129.401 202.961 132.202 202.961 135.656V252.706C202.961 256.16 206.483 258.961 210.829 258.961H381.126C385.471 258.961 388.995 256.16 388.995 252.706V233.919" fill="white"/>
</mask>
<g mask="url(#mask1_519_1499)">
<path d="M387.994 147.495V135.656H389.994V147.495H387.994ZM387.994 135.656C387.994 132.956 385.145 130.401 381.125 130.401V128.401C385.797 128.401 389.994 131.448 389.994 135.656H387.994ZM381.125 130.401H210.829V128.401H381.125V130.401ZM210.829 130.401C206.81 130.401 203.961 132.956 203.961 135.656H201.961C201.961 131.448 206.158 128.401 210.829 128.401V130.401ZM203.961 135.656V252.706H201.961V135.656H203.961ZM203.961 252.706C203.961 255.406 206.809 257.961 210.829 257.961V259.961C206.157 259.961 201.961 256.914 201.961 252.706H203.961ZM210.829 257.961H381.126V259.961H210.829V257.961ZM381.126 257.961C385.145 257.961 387.995 255.406 387.995 252.706H389.995C389.995 256.915 385.797 259.961 381.126 259.961V257.961ZM387.995 252.706V233.919H389.995V252.706H387.995Z" fill="#263238"/>
</g>
<path d="M346.916 147.495V135.656C346.916 132.202 347.859 129.401 349.023 129.401H394.638C395.802 129.401 396.746 132.202 396.746 135.656V252.706C396.746 256.16 395.803 258.961 394.638 258.961H349.023C347.859 258.961 346.916 256.16 346.916 252.706V233.919" fill="white"/>
<mask id="mask2_519_1499" style="mask-type:luminance" maskUnits="userSpaceOnUse" x="346" y="129" width="51" height="130">
<path d="M346.916 147.495V135.656C346.916 132.202 347.859 129.401 349.023 129.401H394.638C395.802 129.401 396.746 132.202 396.746 135.656V252.706C396.746 256.16 395.803 258.961 394.638 258.961H349.023C347.859 258.961 346.916 256.16 346.916 252.706V233.919" fill="white"/>
</mask>
<g mask="url(#mask2_519_1499)">
<path d="M347.916 147.495V135.656H345.916V147.495H347.916ZM347.916 135.656C347.916 134.007 348.142 132.556 348.481 131.552C348.652 131.045 348.833 130.707 348.985 130.516C349.146 130.314 349.165 130.401 349.023 130.401V128.401C348.299 128.401 347.765 128.838 347.421 129.27C347.069 129.711 346.796 130.289 346.585 130.914C346.161 132.174 345.916 133.85 345.916 135.656H347.916ZM349.023 130.401H394.638V128.401H349.023V130.401ZM394.638 130.401C394.496 130.401 394.516 130.314 394.677 130.516C394.829 130.707 395.01 131.045 395.181 131.552C395.519 132.556 395.746 134.007 395.746 135.656H397.746C397.746 133.85 397.501 132.174 397.076 130.914C396.866 130.289 396.593 129.711 396.241 129.27C395.897 128.838 395.362 128.401 394.638 128.401V130.401ZM395.746 135.656V252.706H397.746V135.656H395.746ZM395.746 252.706C395.746 254.354 395.519 255.805 395.181 256.809C395.01 257.316 394.829 257.655 394.677 257.846C394.516 258.047 394.496 257.961 394.638 257.961V259.961C395.362 259.961 395.897 259.524 396.241 259.092C396.593 258.65 396.866 258.073 397.076 257.448C397.501 256.188 397.746 254.511 397.746 252.706H395.746ZM394.638 257.961H349.023V259.961H394.638V257.961ZM349.023 257.961C349.165 257.961 349.145 258.047 348.985 257.846C348.833 257.655 348.651 257.316 348.481 256.809C348.142 255.805 347.916 254.354 347.916 252.706H345.916C345.916 254.511 346.161 256.188 346.585 257.448C346.796 258.073 347.069 258.65 347.421 259.092C347.765 259.524 348.299 259.961 349.023 259.961V257.961ZM347.916 252.706V233.919H345.916V252.706H347.916Z" fill="#263238"/>
</g>
<path d="M396.246 135.862V153.542L203.46 154.368V135.862C203.46 132.674 206.788 129.901 211.156 129.901H388.55C392.917 129.901 396.246 132.674 396.246 135.862Z" fill="white" stroke="#263238"/>
<mask id="mask3_519_1499" style="mask-type:luminance" maskUnits="userSpaceOnUse" x="212" y="139" width="8" height="8">
<path d="M216.05 146.467C214.097 146.467 212.508 144.879 212.508 142.926C212.508 140.973 214.097 139.385 216.05 139.385C218.001 139.385 219.59 140.973 219.59 142.926C219.59 144.879 218.001 146.467 216.05 146.467ZM216.05 140.331C214.618 140.331 213.454 141.495 213.454 142.927C213.454 144.358 214.618 145.522 216.05 145.522C217.48 145.522 218.644 144.358 218.644 142.927C218.644 141.495 217.48 140.331 216.05 140.331Z" fill="white"/>
</mask>
<g mask="url(#mask3_519_1499)">
<path d="M216.05 145.467C214.649 145.467 213.508 144.326 213.508 142.926H211.508C211.508 145.431 213.545 147.467 216.05 147.467V145.467ZM213.508 142.926C213.508 141.525 214.649 140.385 216.05 140.385V138.385C213.545 138.385 211.508 140.421 211.508 142.926H213.508ZM216.05 140.385C217.449 140.385 218.59 141.525 218.59 142.926H220.59C220.59 140.421 218.554 138.385 216.05 138.385V140.385ZM218.59 142.926C218.59 144.326 217.449 145.467 216.05 145.467V147.467C218.554 147.467 220.59 145.431 220.59 142.926H218.59ZM216.05 139.331C214.066 139.331 212.454 140.943 212.454 142.927H214.454C214.454 142.047 215.17 141.331 216.05 141.331V139.331ZM212.454 142.927C212.454 144.911 214.066 146.522 216.05 146.522V144.522C215.17 144.522 214.454 143.806 214.454 142.927H212.454ZM216.05 146.522C218.033 146.522 219.644 144.91 219.644 142.927H217.644C217.644 143.806 216.928 144.522 216.05 144.522V146.522ZM219.644 142.927C219.644 140.943 218.033 139.331 216.05 139.331V141.331C216.928 141.331 217.644 142.047 217.644 142.927H219.644Z" fill="#263238"/>
</g>
<mask id="mask4_519_1499" style="mask-type:luminance" maskUnits="userSpaceOnUse" x="224" y="139" width="8" height="8">
<path d="M227.563 146.467C225.61 146.467 224.021 144.879 224.021 142.926C224.021 140.973 225.61 139.385 227.563 139.385C229.515 139.385 231.103 140.973 231.103 142.926C231.103 144.879 229.515 146.467 227.563 146.467ZM227.563 140.331C226.131 140.331 224.967 141.495 224.967 142.927C224.967 144.358 226.131 145.522 227.563 145.522C228.994 145.522 230.158 144.358 230.158 142.927C230.158 141.495 228.994 140.331 227.563 140.331Z" fill="white"/>
</mask>
<g mask="url(#mask4_519_1499)">
<path d="M227.563 145.467C226.162 145.467 225.021 144.326 225.021 142.926H223.021C223.021 145.431 225.058 147.467 227.563 147.467V145.467ZM225.021 142.926C225.021 141.525 226.162 140.385 227.563 140.385V138.385C225.058 138.385 223.021 140.421 223.021 142.926H225.021ZM227.563 140.385C228.962 140.385 230.103 141.525 230.103 142.926H232.103C232.103 140.421 230.067 138.385 227.563 138.385V140.385ZM230.103 142.926C230.103 144.326 228.962 145.467 227.563 145.467V147.467C230.067 147.467 232.103 145.431 232.103 142.926H230.103ZM227.563 139.331C225.579 139.331 223.967 140.943 223.967 142.927H225.967C225.967 142.047 226.683 141.331 227.563 141.331V139.331ZM223.967 142.927C223.967 144.911 225.579 146.522 227.563 146.522V144.522C226.683 144.522 225.967 143.806 225.967 142.927H223.967ZM227.563 146.522C229.546 146.522 231.158 144.91 231.158 142.927H229.158C229.158 143.806 228.441 144.522 227.563 144.522V146.522ZM231.158 142.927C231.158 140.943 229.546 139.331 227.563 139.331V141.331C228.441 141.331 229.158 142.047 229.158 142.927H231.158Z" fill="#263238"/>
</g>
<mask id="mask5_519_1499" style="mask-type:luminance" maskUnits="userSpaceOnUse" x="235" y="139" width="8" height="8">
<path d="M238.857 146.467C236.906 146.467 235.317 144.879 235.317 142.926C235.317 140.973 236.906 139.385 238.857 139.385C240.81 139.385 242.399 140.973 242.399 142.926C242.399 144.879 240.811 146.467 238.857 146.467ZM238.857 140.331C237.427 140.331 236.263 141.495 236.263 142.927C236.263 144.358 237.427 145.522 238.857 145.522C240.289 145.522 241.453 144.358 241.453 142.927C241.453 141.495 240.289 140.331 238.857 140.331Z" fill="white"/>
</mask>
<g mask="url(#mask5_519_1499)">
<path d="M238.857 145.467C237.458 145.467 236.317 144.326 236.317 142.926H234.317C234.317 145.431 236.353 147.467 238.857 147.467V145.467ZM236.317 142.926C236.317 141.525 237.458 140.385 238.857 140.385V138.385C236.353 138.385 234.317 140.421 234.317 142.926H236.317ZM238.857 140.385C240.258 140.385 241.399 141.525 241.399 142.926H243.399C243.399 140.421 241.362 138.385 238.857 138.385V140.385ZM241.399 142.926C241.399 144.326 240.258 145.467 238.857 145.467V147.467C241.363 147.467 243.399 145.431 243.399 142.926H241.399ZM238.857 139.331C236.874 139.331 235.263 140.943 235.263 142.927H237.263C237.263 142.047 237.979 141.331 238.857 141.331V139.331ZM235.263 142.927C235.263 144.91 236.874 146.522 238.857 146.522V144.522C237.979 144.522 237.263 143.806 237.263 142.927H235.263ZM238.857 146.522C240.841 146.522 242.453 144.911 242.453 142.927H240.453C240.453 143.806 239.737 144.522 238.857 144.522V146.522ZM242.453 142.927C242.453 140.943 240.841 139.331 238.857 139.331V141.331C239.737 141.331 240.453 142.047 240.453 142.927H242.453Z" fill="#263238"/>
</g>
<path d="M367.475 187.417H300.97C300.709 187.417 300.498 187.205 300.498 186.944C300.498 186.683 300.709 186.471 300.97 186.471H367.475C367.736 186.471 367.948 186.683 367.948 186.944C367.948 187.205 367.736 187.417 367.475 187.417Z" fill="#243762"/>
<path d="M334.223 218.006H300.97C300.709 218.006 300.498 217.795 300.498 217.534C300.498 217.273 300.709 217.061 300.97 217.061H334.223C334.484 217.061 334.696 217.273 334.696 217.534C334.696 217.796 334.484 218.006 334.223 218.006Z" fill="#243762"/>
<path d="M325.798 202.952H300.97C300.709 202.952 300.498 202.741 300.498 202.48C300.498 202.219 300.709 202.007 300.97 202.007H325.798C326.059 202.007 326.271 202.219 326.271 202.48C326.271 202.741 326.059 202.952 325.798 202.952Z" fill="#243762"/>
<path d="M367.476 202.952H342.647C342.386 202.952 342.174 202.741 342.174 202.48C342.174 202.219 342.386 202.007 342.647 202.007H367.476C367.737 202.007 367.948 202.219 367.948 202.48C367.948 202.741 367.737 202.952 367.476 202.952Z" fill="#243762"/>
<path d="M256.036 244.235C243.805 244.235 232.96 238.309 226.207 229.172L225.035 227.356L286.72 227.893C279.96 237.335 268.451 244.235 256.036 244.235Z" fill="#E9E9E9" stroke="#263238"/>
<path d="M225.297 227.74V227.883C221.301 221.968 218.964 214.84 218.964 207.163C218.964 186.689 235.562 170.091 256.036 170.091C276.511 170.091 293.108 186.689 293.108 207.163C293.108 214.778 290.812 221.853 286.876 227.74H225.797H225.297Z" fill="white" stroke="#263238"/>
<path d="M290.656 202.373C290.094 201.329 289.31 200.456 288.417 199.67C285.484 197.095 281.361 195.465 279.947 191.842C278.944 189.272 279.611 186.373 279.251 183.638C278.815 180.326 276.847 177.348 274.306 175.179C268.421 170.156 259.691 168.085 252.146 169.685C248.695 170.417 245.437 171.967 242.791 174.313C241.398 175.548 240.191 176.984 239.187 178.55C238.771 179.2 236.019 183.634 236.54 184.237C236.54 184.237 236.86 184.6 237.438 185.144C237.199 185.749 237.021 186.376 236.935 187.026C236.684 188.927 237.148 190.942 236.452 192.73C235.468 195.25 232.601 196.382 230.561 198.173C229.94 198.719 229.395 199.326 229.004 200.052C228.185 201.574 228.177 203.431 228.634 205.097C229.207 207.187 230.511 209.098 232.345 210.254C235.626 212.322 240.915 212.57 244.693 212.56C245.379 212.558 246.106 212.517 246.677 212.136C247.485 211.597 247.754 210.534 247.788 209.564C247.872 207.081 247.008 204.614 245.875 202.438C245.834 202.361 245.789 202.278 245.714 202.234C245.586 202.158 245.425 202.214 245.286 202.264C243.995 202.735 248.589 193.241 248.383 190.562C249.418 190.697 250.5 190.747 251.632 190.665C256.149 192.857 260.054 191.859 262.748 190.417C262.835 193.854 264.648 197.527 268 199C268.393 197.062 269.89 195.679 271.843 195.987C272.076 196.024 272.302 196.085 272.522 196.162C274.147 196.731 275.38 198.335 275.545 200.068C275.608 200.736 275.514 201.403 275.31 202.037C274.911 203.274 274.064 204.379 272.953 205.067C271.272 206.107 269.358 205.177 267.5 204.5C267.3 204.427 266.81 205.401 266.627 205.509C266.518 205.573 266.454 205.69 266.395 205.803C264.765 208.932 263.524 212.48 263.644 216.051C263.692 217.446 264.079 218.975 265.241 219.749C266.062 220.298 267.107 220.357 268.095 220.359C268.12 220.359 268.147 220.359 268.171 220.359C273.598 220.371 281.155 220.003 285.852 217.042C288.489 215.381 290.365 212.633 291.188 209.628C291.845 207.231 291.833 204.561 290.656 202.373Z" fill="#263238"/>
<mask id="mask6_519_1499" style="mask-type:luminance" maskUnits="userSpaceOnUse" x="239" y="187" width="37" height="49">
<path d="M276 187H239V236H276V187Z" fill="white"/>
</mask>
<g mask="url(#mask6_519_1499)">
<path d="M242.5 189L241.5 188.5L241 189.5L240.5 192V194.5L240 197V199L239.5 201.5V205L240 207L241 210.5L242.5 212.5L244.5 215L248.5 217.5L251 218V220V222V225L251.5 227.5L252 230.5L253 232L255 234L257 235L259 235.5H260.5L263.5 234.5L265.5 233L267 231L268 229L268.5 228L268 220.5H267L265 220L264.5 219L264 218V217L263.5 216V215V214V213L264 211.5L264.5 210.5V209.5L265 208L265.5 207L266 206L266.5 205L267 204.5L268 205H269H270.5H272L273.5 204L274.5 203L275.5 201V200L275 198.5L274 197L273 196.5L271.5 196L270.5 196.5L270 197L269 197.5L268.5 198.5L268 199.5L266.5 198.5L265.5 198L264.5 196.5L263.5 195L263 193.5V192L262.5 190.5L263 189L262.5 188L262 187.5H261L260.5 188.5L259 189L257.5 189.5L255.5 190.5L254 191H252.5H250H247.5L245.5 190L244 189.5L242.5 189Z" fill="white"/>
<path d="M266.407 205.36L266.408 205.359C266.411 205.354 266.413 205.349 266.416 205.343C266.468 205.243 266.591 205.007 266.827 204.867M266.407 205.36L266.827 204.867M266.407 205.36C264.758 208.526 263.475 212.163 263.6 215.857C263.649 217.289 264.046 219.038 265.419 219.954C266.248 220.508 267.249 220.621 268.138 220.642L268.274 226.703C268.38 231.404 264.653 235.301 259.951 235.407C255.249 235.512 251.352 231.786 251.247 227.083L251.054 218.439L251.045 218.051L250.668 217.963C243.579 216.297 238.719 209.538 239.604 202.137L239.758 200.845L239.762 200.815L241.278 188.131C243.368 189.407 246.095 190.6 249.287 190.916C252.846 191.269 256.95 190.528 261.35 187.656C261.995 187.235 262.804 187.721 262.747 188.467C262.594 190.445 262.764 192.655 263.491 194.608C264.221 196.568 265.522 198.29 267.631 199.217L268.199 199.466L268.322 198.859C268.658 197.205 270.509 196 272.22 196.27C272.407 196.299 272.593 196.348 272.781 196.412C274.516 197.314 275.599 199.217 275.354 201.269V201.27C275.337 201.411 275.312 201.551 275.281 201.696C274.914 202.814 274.145 203.812 273.145 204.43C271.61 205.38 269.601 205.503 267.87 204.872C267.774 204.837 267.62 204.78 267.456 204.756C267.286 204.731 267.053 204.734 266.827 204.867" stroke="#263238"/>
</g>
<path d="M250.35 197.847C250.294 198.324 250.634 198.758 251.113 198.816C251.591 198.874 252.024 198.532 252.082 198.054C252.14 197.575 251.798 197.142 251.32 197.085C250.841 197.027 250.407 197.368 250.35 197.847Z" fill="#263238"/>
<path d="M241.724 196.603C241.668 197.081 242.008 197.515 242.487 197.573C242.964 197.629 243.398 197.289 243.455 196.811C243.512 196.332 243.171 195.899 242.693 195.842C242.215 195.784 241.782 196.125 241.724 196.603Z" fill="#263238"/>
<path d="M246.442 203.666C243.945 203.666 243.193 202.487 242.985 201.979C242.883 201.73 242.898 201.451 243.027 201.214L245.794 196.128C245.92 195.897 246.208 195.815 246.436 195.938C246.665 196.063 246.75 196.35 246.626 196.579L243.858 201.666C243.996 201.952 244.519 202.72 246.442 202.72C246.447 202.72 246.452 202.72 246.457 202.72C246.717 202.72 246.93 202.931 246.931 203.192C246.932 203.459 246.735 203.668 246.442 203.666Z" fill="#263238"/>
<path d="M252.438 195.928C252.202 195.943 251.946 195.821 251.693 195.718C251.44 195.608 251.183 195.505 250.957 195.422C250.73 195.339 250.468 195.253 250.203 195.175C249.942 195.091 249.668 195.02 249.498 194.858C249.334 194.705 249.34 194.441 249.676 194.235C249.995 194.032 250.673 193.93 251.424 194.202C252.172 194.476 252.617 194.986 252.722 195.343C252.837 195.714 252.665 195.918 252.438 195.928Z" fill="#263238"/>
<path d="M239.786 194.008C240.014 194.074 240.289 194.012 240.559 193.966C240.831 193.915 241.104 193.871 241.342 193.841C241.582 193.811 241.858 193.786 242.133 193.768C242.405 193.744 242.69 193.735 242.89 193.614C243.084 193.502 243.137 193.242 242.854 192.967C242.588 192.698 241.949 192.449 241.158 192.548C240.367 192.65 239.821 193.048 239.638 193.374C239.444 193.71 239.566 193.947 239.786 194.008Z" fill="#263238"/>
<path d="M271.616 203.163C271.532 203.163 271.447 203.141 271.37 203.094L269.288 201.827L271.205 198.766C271.343 198.545 271.636 198.479 271.856 198.617C272.077 198.756 272.145 199.047 272.006 199.268L270.597 201.516L271.861 202.285C272.084 202.421 272.154 202.711 272.019 202.934C271.931 203.083 271.775 203.163 271.616 203.163Z" fill="#263238"/>
<path d="M250.929 207.826L249.25 208.103C249.006 208.143 248.775 207.977 248.734 207.733L248.313 205.183L253.694 204.294C253.83 205.994 252.642 207.543 250.929 207.826Z" fill="white" stroke="#263238"/>
<path d="M101.969 133.222C100.955 133.222 100.131 132.397 100.131 131.384C100.131 130.37 100.955 129.545 101.969 129.545C102.983 129.545 103.807 130.37 103.807 131.384C103.808 132.397 102.984 133.222 101.969 133.222ZM101.969 130.491C101.476 130.491 101.076 130.892 101.076 131.384C101.076 131.875 101.477 132.276 101.969 132.276C102.461 132.276 102.862 131.875 102.862 131.384C102.862 130.892 102.462 130.491 101.969 130.491Z" fill="white"/>
<path d="M96.8451 133.222C95.8314 133.222 95.0068 132.397 95.0068 131.384C95.0068 130.37 95.8314 129.545 96.8451 129.545C97.8588 129.545 98.6834 130.37 98.6834 131.384C98.6834 132.397 97.8588 133.222 96.8451 133.222ZM96.8451 130.491C96.3524 130.491 95.9524 130.892 95.9524 131.384C95.9524 131.875 96.3534 132.276 96.8451 132.276C97.3368 132.276 97.7378 131.875 97.7378 131.384C97.7378 130.892 97.3368 130.491 96.8451 130.491Z" fill="white"/>
<path d="M91.8163 133.222C90.8026 133.222 89.978 132.397 89.978 131.384C89.978 130.37 90.8026 129.545 91.8163 129.545C92.83 129.545 93.6546 130.37 93.6546 131.384C93.6546 132.397 92.83 133.222 91.8163 133.222ZM91.8163 130.491C91.3236 130.491 90.9236 130.892 90.9236 131.384C90.9236 131.875 91.3246 132.276 91.8163 132.276C92.308 132.276 92.709 131.875 92.709 131.384C92.709 130.892 92.309 130.491 91.8163 130.491Z" fill="white"/>
<path d="M97.6959 172.623H74.5322V144.989H97.6959V172.623ZM75.4778 171.677H96.7503V145.935H75.4778V171.677Z" fill="white"/>
<path d="M164.032 240.648H64.712C62.3858 240.648 60.5 238.763 60.5 236.436V91.9083C60.5 89.5821 62.3858 87.6963 64.712 87.6963H164.031C166.358 87.6963 168.243 89.5821 168.243 91.9083V236.436C168.244 238.763 166.359 240.648 164.032 240.648Z" fill="white" stroke="#263238"/>
<path d="M166.326 93.8526H62.4189C61.3598 93.8526 60.501 92.9937 60.501 91.9346V86.4179C60.501 85.3589 61.3598 84.5 62.4189 84.5H166.326C167.386 84.5 168.244 85.3589 168.244 86.4179V91.9346C168.244 92.9937 167.386 93.8526 166.326 93.8526Z" fill="#0487FF" stroke="#263238"/>
<path d="M114.692 190.107H75.2876C74.5046 190.107 73.8691 189.473 73.8691 188.689C73.8691 187.905 74.5046 187.27 75.2876 187.27H114.692C115.475 187.27 116.111 187.905 116.111 188.689C116.111 189.473 115.475 190.107 114.692 190.107Z" fill="#263238"/>
<path d="M149.512 205.798H75.2879C74.765 205.798 74.3423 205.375 74.3423 204.853C74.3423 204.331 74.765 203.907 75.2879 203.907H149.512C150.035 203.907 150.457 204.331 150.457 204.853C150.457 205.375 150.035 205.798 149.512 205.798Z" fill="#263238"/>
<path d="M149.512 219.26H75.2879C74.765 219.26 74.3423 218.837 74.3423 218.315C74.3423 217.793 74.765 217.369 75.2879 217.369H149.512C150.035 217.369 150.457 217.793 150.457 218.315C150.457 218.837 150.035 219.26 149.512 219.26Z" fill="#263238"/>
<path d="M163.651 91.1894C163.53 91.1894 163.409 91.1431 163.316 91.0504L160.165 87.8987C159.98 87.7143 159.98 87.4145 160.165 87.2301C160.349 87.0457 160.649 87.0457 160.833 87.2301L163.985 90.3819C164.169 90.5663 164.169 90.866 163.985 91.0504C163.893 91.1431 163.772 91.1894 163.651 91.1894Z" fill="white"/>
<path d="M160.499 91.1894C160.378 91.1894 160.257 91.1431 160.165 91.0504C159.98 90.866 159.98 90.5663 160.165 90.3819L163.316 87.2301C163.501 87.0457 163.801 87.0457 163.985 87.2301C164.169 87.4145 164.169 87.7143 163.985 87.8987L160.833 91.0504C160.741 91.1431 160.62 91.1894 160.499 91.1894Z" fill="white"/>
<path d="M415.288 346.408H340.546C338.22 346.408 336.334 344.523 336.334 342.196V230.471C336.334 228.144 338.22 226.259 340.546 226.259H415.288C417.614 226.259 419.5 228.144 419.5 230.471V342.196C419.5 344.523 417.614 346.408 415.288 346.408Z" fill="#0487FF" stroke="#263238"/>
<path d="M303.665 288.745H346.374V314.339H303.665V288.745Z" fill="white" stroke="#263238"/>
<path d="M342.056 294.549H329.207C328.946 294.549 328.734 294.337 328.734 294.076C328.734 293.815 328.946 293.603 329.207 293.603H342.056C342.317 293.603 342.529 293.815 342.529 294.076C342.529 294.337 342.317 294.549 342.056 294.549Z" fill="#263238"/>
<path d="M342.056 309.362H329.207C328.946 309.362 328.734 309.15 328.734 308.889C328.734 308.628 328.946 308.416 329.207 308.416H342.056C342.317 308.416 342.529 308.628 342.529 308.889C342.529 309.15 342.317 309.362 342.056 309.362Z" fill="white"/>
<path d="M342.056 304.93H329.207C328.946 304.93 328.734 304.718 328.734 304.457C328.734 304.196 328.946 303.984 329.207 303.984H342.056C342.317 303.984 342.529 304.196 342.529 304.457C342.529 304.719 342.317 304.93 342.056 304.93Z" fill="#263238"/>
<path d="M342.056 299.798H323.127C322.866 299.798 322.654 299.586 322.654 299.325C322.654 299.064 322.866 298.853 323.127 298.853H342.056C342.317 298.853 342.529 299.064 342.529 299.325C342.529 299.586 342.317 299.798 342.056 299.798Z" fill="#263238"/>
<path d="M317.381 308.389H308.453C308.217 308.389 308.025 308.198 308.025 307.962V293.604C308.025 293.368 308.217 293.177 308.453 293.177H317.381C317.618 293.177 317.809 293.368 317.809 293.604V307.962C317.809 308.197 317.618 308.389 317.381 308.389Z" fill="#52D180" stroke="#263238"/>
<path d="M417.582 230.89H338.252C337.193 230.89 336.334 230.031 336.334 228.972V225.661C336.334 224.602 337.193 223.743 338.252 223.743H417.582C418.641 223.743 419.5 224.602 419.5 225.661V228.972C419.5 230.031 418.641 230.89 417.582 230.89Z" fill="white" stroke="#263238"/>
<path d="M408.169 319.292H350.72C350.197 319.292 349.774 318.869 349.774 318.346C349.774 317.823 350.197 317.401 350.72 317.401H408.169C408.692 317.401 409.114 317.823 409.114 318.346C409.114 318.869 408.692 319.292 408.169 319.292Z" fill="white"/>
<path d="M408.169 329.885H350.72C350.197 329.885 349.774 329.463 349.774 328.94C349.774 328.417 350.197 327.994 350.72 327.994H408.169C408.692 327.994 409.114 328.417 409.114 328.94C409.114 329.463 408.692 329.885 408.169 329.885Z" fill="white"/>
<path d="M353.855 283.105H353.822C350.408 278.316 348.392 272.43 348.392 266.062C348.392 250.001 361.195 236.995 376.972 236.995C392.75 236.995 405.553 250.001 405.553 266.062C405.553 272.005 403.384 278.463 400.352 283.105H353.855Z" fill="white" stroke="#263238"/>
<path d="M376.972 295.128C367.598 295.128 359.279 290.537 354.066 283.441V283.148H400.093C394.895 290.411 386.474 295.128 376.972 295.128Z" fill="#E9E9E9" stroke="#263238"/>
<path d="M374.236 247C374.303 246.951 374.367 246.9 374.43 246.847C374.362 246.801 374.322 246.775 374.322 246.775C374.3 246.856 374.263 246.923 374.236 247Z" fill="#FFCCB3"/>
<path d="M397.562 263.463C397.686 262.835 397.753 262.185 397.753 261.52C397.753 258.575 396.463 255.94 394.432 254.152C394.334 249.505 392.621 234.873 374.831 236.069C367.695 236.549 363.796 239.391 361.693 242.033C360.267 243.824 360.75 246.348 362.449 247.564C361.901 248.427 361.578 249.452 361.578 250.555C361.578 251.78 361.975 252.908 362.639 253.823C360.835 255.775 359.823 258.467 360.083 261.344C360.115 261.692 360.166 262.033 360.232 262.369C356.755 264.836 354.637 269.072 355.052 273.672C355.667 280.493 361.605 285.514 368.313 284.888C373.004 284.451 376.822 281.363 378.488 277.216C380.074 282.237 384.7 285.874 390.167 285.874C396.943 285.874 402.436 280.289 402.436 273.4C402.436 269.338 400.519 265.741 397.562 263.463Z" fill="#263238"/>
<path d="M384.108 254.783C384.148 253.874 384.131 252.933 383.918 252.01C383.821 251.592 383.67 251.201 383.5 250.836L383.413 250.649L383.22 250.578C380.567 249.6 377.843 248.047 376.266 247.078L376.138 247L375.989 247.004C375.354 247.023 374.73 247.07 374.135 247.125L373.905 247.147L373.772 247.337C373.157 248.216 371.98 248.674 370.415 248.798C368.867 248.92 367.057 248.705 365.341 248.364L364.814 248.259L364.749 248.784L364.745 248.801C364.744 248.81 364.742 248.822 364.74 248.837V248.84L364.63 249.77L364.341 252.224L363.087 262.894C362.343 269.218 366.467 274.99 372.468 276.347L372.592 282.016C372.682 286.082 376.052 289.304 380.118 289.212C384.179 289.12 387.399 285.753 387.309 281.692L386.99 267.154C386.987 267.067 386.977 266.988 386.969 266.932L386.967 266.912C386.964 266.893 386.962 266.877 386.96 266.863C387.03 266.523 387.091 266.173 387.133 265.813L387.157 265.61L387.634 265.668C390.18 265.978 392.476 264.13 392.778 261.562C393.08 258.996 391.278 256.653 388.734 256.344L388.453 256.31L388.354 256.298L388.257 256.325C386.817 256.733 385.837 257.402 385.163 258.149C384.494 258.892 384.149 259.687 383.941 260.318C383.892 260.468 383.85 260.611 383.813 260.741L383.806 260.728C383.804 260.723 383.799 260.704 383.795 260.666C383.789 260.605 383.789 260.525 383.795 260.428C383.8 260.333 383.81 260.234 383.82 260.132L383.821 260.125C383.83 260.033 383.84 259.926 383.843 259.836C383.855 259.389 383.875 258.965 383.896 258.535C383.914 258.178 383.932 257.816 383.945 257.434C383.959 257.01 383.989 256.578 384.022 256.134L384.028 256.04L384.029 256.029C384.059 255.621 384.09 255.202 384.108 254.783Z" fill="white" stroke="#263238"/>
<path d="M384.905 265.617C384.205 271.575 378.886 275.828 373.026 275.116L372.609 275.065C366.75 274.353 362.567 268.945 363.268 262.987L364.799 249.961V249.963L363.255 263.087C362.52 269.345 366.575 275.055 372.609 276.124L372.701 280.292L380.483 274.754C381.191 274.347 381.854 273.866 382.463 273.32L383.334 272.453C384.921 270.694 386.009 268.439 386.309 265.888L384.905 265.617Z" fill="#263238"/>
<path d="M373.312 259.375C373.267 259.751 373.531 260.093 373.902 260.137C374.271 260.183 374.607 259.914 374.651 259.538C374.696 259.161 374.432 258.82 374.061 258.776C373.692 258.731 373.356 258.999 373.312 259.375Z" fill="#233863"/>
<path d="M366.671 258.396C366.627 258.773 366.891 259.114 367.261 259.158C367.631 259.204 367.967 258.935 368.011 258.559C368.056 258.183 367.792 257.841 367.421 257.797C367.052 257.752 366.716 258.021 366.671 258.396Z" fill="#233863"/>
<path d="M372.732 266.545C372.184 266.545 371.577 266.482 370.913 266.354C370.721 266.318 370.595 266.132 370.631 265.94C370.668 265.748 370.857 265.62 371.047 265.658C373.155 266.061 374.227 265.695 374.751 265.317C375.297 264.922 375.375 264.438 375.375 264.432C375.399 264.239 375.575 264.101 375.773 264.127C375.967 264.152 376.104 264.33 376.078 264.525C376.073 264.556 375.967 265.312 375.167 265.891C374.565 266.326 373.75 266.545 372.732 266.545Z" fill="#263238"/>
<path d="M371.191 263.959C370.828 263.959 370.494 263.923 370.196 263.853C369.604 263.713 369.11 263.314 368.839 262.756C368.559 262.176 368.555 261.507 368.829 260.923L370.899 256.53C370.982 256.353 371.195 256.276 371.371 256.359C371.548 256.443 371.624 256.654 371.54 256.831L369.471 261.224C369.289 261.614 369.291 262.059 369.479 262.447C369.654 262.811 369.975 263.072 370.359 263.162C370.634 263.227 370.953 263.259 371.305 263.248C371.53 263.258 371.663 263.398 371.668 263.594C371.672 263.79 371.517 263.953 371.322 263.957C371.277 263.958 371.234 263.959 371.191 263.959Z" fill="#263238"/>
<path d="M377.99 257.323C377.668 257.342 377.321 257.174 376.976 257.031C376.632 256.88 376.282 256.736 375.973 256.621C375.664 256.507 375.306 256.388 374.946 256.279C374.591 256.163 374.216 256.064 373.986 255.84C373.762 255.629 373.77 255.263 374.228 254.977C374.663 254.695 375.585 254.556 376.608 254.932C377.627 255.312 378.233 256.017 378.376 256.513C378.533 257.025 378.3 257.308 377.99 257.323Z" fill="#263238"/>
<path d="M365.321 255.123C365.553 255.191 365.834 255.126 366.109 255.08C366.385 255.027 366.663 254.982 366.906 254.95C367.15 254.919 367.431 254.893 367.711 254.874C367.989 254.849 368.278 254.84 368.482 254.716C368.68 254.599 368.733 254.33 368.446 254.046C368.175 253.768 367.525 253.51 366.719 253.612C365.913 253.718 365.357 254.131 365.172 254.467C364.974 254.815 365.098 255.06 365.321 255.123Z" fill="#263238"/>
<path d="M389.029 263.015C388.944 263.015 388.857 262.992 388.779 262.944L387.084 261.894L388.619 259.404C388.757 259.181 389.048 259.113 389.27 259.249C389.491 259.386 389.561 259.678 389.424 259.9L388.384 261.587L389.278 262.14C389.499 262.278 389.568 262.568 389.43 262.791C389.341 262.935 389.187 263.015 389.029 263.015Z" fill="#263238"/>
<path d="M339.776 229.002C339.656 229.002 339.537 228.957 339.444 228.866C339.258 228.683 339.256 228.383 339.439 228.197L341.877 225.718C342.06 225.532 342.36 225.53 342.546 225.712C342.732 225.895 342.734 226.194 342.552 226.381L340.113 228.861C340.021 228.955 339.898 229.002 339.776 229.002Z" fill="#263238"/>
<path d="M342.215 229.002C342.093 229.002 341.97 228.955 341.877 228.861L339.439 226.381C339.256 226.194 339.258 225.895 339.444 225.712C339.631 225.53 339.93 225.532 340.113 225.718L342.552 228.197C342.734 228.383 342.732 228.683 342.546 228.866C342.454 228.957 342.335 229.002 342.215 229.002Z" fill="#263238"/>
<path d="M93.419 387.031L93.6168 328.171L93.6183 327.727L93.1775 327.673L76.443 325.626L76.2397 325.601L95.077 274.254L95.2127 273.895C98.3993 265.481 106.528 259.498 116.057 259.498H160.934C161.31 259.498 161.682 259.511 162.065 259.525C162.108 259.527 162.152 259.528 162.195 259.53H162.204H162.213H182.479C204.49 259.53 222.333 277.373 222.333 299.384V300.246L196.442 311.95L196.155 312.08L196.148 312.396L195.697 335.036L194.661 387.031H93.419Z" fill="#E9E9E9" stroke="#263238"/>
<path d="M150.898 280.537C140.226 280.537 131.543 271.854 131.543 261.182V258.998C131.543 258.737 131.755 258.525 132.016 258.525C132.277 258.525 132.489 258.737 132.489 258.998V261.182C132.489 271.333 140.748 279.591 150.898 279.591C161.049 279.591 169.306 271.333 169.306 261.182V258.998C169.306 258.737 169.518 258.525 169.779 258.525C170.04 258.525 170.252 258.737 170.252 258.998V261.182C170.252 271.854 161.569 280.537 150.898 280.537Z" fill="#263238"/>
<path d="M137.978 270.004C137.826 270.004 137.678 269.931 137.586 269.796C135.786 267.136 134.833 264.026 134.833 260.801V258.998C134.833 258.737 135.045 258.525 135.306 258.525C135.567 258.525 135.779 258.737 135.779 258.998V260.801C135.779 263.835 136.675 266.763 138.369 269.265C138.516 269.482 138.459 269.775 138.242 269.921C138.161 269.977 138.068 270.004 137.978 270.004Z" fill="#263238"/>
<path d="M150.898 276.865C147.217 276.865 143.756 275.656 140.888 273.366C140.684 273.204 140.65 272.907 140.814 272.703C140.978 272.497 141.275 272.467 141.477 272.628C144.177 274.781 147.435 275.92 150.898 275.92C154.356 275.92 157.61 274.784 160.308 272.634C160.512 272.47 160.81 272.505 160.972 272.709C161.136 272.913 161.102 273.21 160.897 273.373C158.03 275.659 154.572 276.865 150.898 276.865Z" fill="#263238"/>
<path d="M164.464 268.963C164.385 268.963 164.304 268.943 164.231 268.9C164.004 268.772 163.924 268.483 164.053 268.255C165.336 265.993 166.015 263.417 166.015 260.8V258.997C166.015 258.736 166.227 258.524 166.488 258.524C166.749 258.524 166.961 258.736 166.961 258.997V260.8C166.961 263.579 166.239 266.319 164.874 268.722C164.788 268.876 164.629 268.963 164.464 268.963Z" fill="#263238"/>
<path d="M196.197 335.517C195.936 335.517 195.724 335.306 195.724 335.045V298.253C195.724 297.992 195.936 297.78 196.197 297.78C196.458 297.78 196.67 297.992 196.67 298.253V335.045C196.67 335.307 196.459 335.517 196.197 335.517Z" fill="#263238"/>
<path d="M120.862 331.093L109.541 330.653C109.281 330.643 109.077 330.424 109.087 330.162C109.099 329.902 109.292 329.708 109.579 329.708L120.159 330.12L127.586 304.432C127.658 304.181 127.922 304.034 128.172 304.109C128.423 304.182 128.567 304.444 128.495 304.694L120.862 331.093Z" fill="#263238"/>
<path d="M186.274 396.845L186.248 396.806L174.077 378.524C173.375 377.623 172.75 376.678 172.162 375.764C172.037 375.569 171.913 375.375 171.791 375.184C171.335 374.47 170.898 373.787 170.452 373.154C169.314 371.538 168.197 370.375 166.766 369.986L164.342 369.325L164.336 369.33L164.09 369.269L110.187 355.875L109.712 355.757L109.82 355.279L115.176 331.519L83.8792 327.544L72.7057 364.752C72.1104 367.356 72.1157 369.952 72.6065 372.414L72.6085 372.424L72.61 372.434C73.9349 380.807 81.1072 387.491 90.1264 387.652L147.509 387.508H147.724L147.872 387.663C150.825 390.755 155.485 394.627 159.732 397.849C161.853 399.459 163.864 400.9 165.499 401.995C167.155 403.105 168.375 403.824 168.938 404.031V404.032C169.012 404.059 169.083 404.105 169.11 404.123C169.155 404.151 169.207 404.187 169.264 404.227C169.378 404.307 169.525 404.415 169.692 404.539C170.026 404.788 170.448 405.111 170.862 405.43C171.276 405.749 171.682 406.066 171.985 406.303C172.137 406.421 172.263 406.519 172.351 406.588L172.453 406.668L172.479 406.689L172.486 406.695L172.488 406.696L172.489 406.697L172.499 406.704L172.508 406.713C173.138 407.26 174.105 407.193 174.653 406.564L174.778 406.419H174.779C175.138 406.006 175.229 405.446 175.066 404.945L174.889 404.403L175.45 404.299C175.484 404.292 175.512 404.287 175.532 404.283L175.554 404.279L175.56 404.277H175.561L186.274 396.845ZM186.274 396.845L186.307 396.879C186.989 397.576 186.975 398.707 186.279 399.386L186.125 399.537H186.124C185.549 400.1 184.673 400.184 183.997 399.794L182.732 399.063L183.284 400.415C183.312 400.485 183.339 400.552 183.363 400.619L183.4 400.72L183.475 400.797L183.746 401.074M186.274 396.845L183.746 401.074ZM183.746 401.074C184.427 401.771 184.415 402.902 183.718 403.583L183.565 403.733L183.564 403.734C182.867 404.415 181.737 404.403 181.055 403.706L183.746 401.074Z" fill="white"/>
<path d="M186.274 396.845L186.248 396.806L174.077 378.524C173.375 377.623 172.75 376.678 172.162 375.764C172.037 375.569 171.913 375.375 171.791 375.184C171.335 374.47 170.898 373.787 170.452 373.154C169.314 371.538 168.197 370.375 166.766 369.986L164.342 369.325L164.336 369.33L164.09 369.269L110.187 355.875L109.712 355.757L109.82 355.279L115.176 331.519L83.8792 327.544L72.7057 364.752C72.1104 367.356 72.1157 369.952 72.6065 372.414L72.6085 372.424L72.61 372.434C73.9349 380.807 81.1072 387.491 90.1264 387.652L147.509 387.508H147.724L147.872 387.663C150.825 390.755 155.485 394.627 159.732 397.849C161.853 399.459 163.864 400.9 165.499 401.995C167.155 403.105 168.375 403.824 168.938 404.031V404.032C169.012 404.059 169.083 404.105 169.11 404.123C169.155 404.151 169.207 404.187 169.264 404.227C169.378 404.307 169.525 404.415 169.692 404.539C170.026 404.788 170.448 405.111 170.862 405.43C171.276 405.749 171.682 406.066 171.985 406.303C172.137 406.421 172.263 406.519 172.351 406.588L172.453 406.668L172.479 406.689L172.486 406.695L172.488 406.696L172.489 406.697M186.274 396.845L175.561 404.277H175.56L175.554 404.279L175.532 404.283C175.512 404.287 175.484 404.292 175.45 404.299L174.889 404.403L175.066 404.945C175.229 405.446 175.138 406.006 174.779 406.419H174.778L174.653 406.564C174.105 407.193 173.138 407.26 172.508 406.713L172.499 406.704L172.489 406.697M186.274 396.845L186.307 396.879C186.989 397.576 186.975 398.707 186.279 399.386L186.125 399.537H186.124C185.549 400.1 184.673 400.184 183.997 399.794L182.732 399.063L183.284 400.415C183.312 400.485 183.339 400.552 183.363 400.619L183.4 400.72L183.475 400.797L183.746 401.074M186.274 396.845L183.746 401.074M172.489 406.697L172.18 407.09M183.746 401.074C184.427 401.771 184.415 402.902 183.718 403.583L183.565 403.733L183.564 403.734C182.867 404.415 181.737 404.403 181.055 403.706L183.746 401.074Z" stroke="#263238"/>
<path d="M183.918 400.698C183.795 400.698 183.672 400.651 183.58 400.557L176.362 393.173C176.18 392.987 176.183 392.687 176.37 392.505C176.558 392.323 176.858 392.325 177.038 392.512L184.256 399.896C184.439 400.082 184.436 400.382 184.248 400.564C184.156 400.653 184.037 400.698 183.918 400.698Z" fill="#263238"/>
<path d="M180.084 403.592C179.961 403.592 179.838 403.545 179.746 403.45L172.529 396.068C172.346 395.882 172.35 395.582 172.536 395.399C172.723 395.218 173.023 395.22 173.205 395.407L180.423 402.789C180.605 402.976 180.601 403.275 180.415 403.458C180.322 403.548 180.203 403.592 180.084 403.592Z" fill="#263238"/>
<path d="M175.526 405.102C175.408 405.102 175.29 405.058 175.198 404.97L167.761 397.809C167.573 397.628 167.567 397.328 167.747 397.14C167.93 396.953 168.23 396.948 168.416 397.127L175.853 404.288C176.041 404.469 176.047 404.769 175.867 404.957C175.773 405.053 175.649 405.102 175.526 405.102Z" fill="#263238"/>
<path d="M196 312V334L201.5 336.5L205.5 337.5L211.5 339H217.5H222.5L229 338.5L233.5 337.5L238.5 336L248.5 331.5L249.5 318L251.5 263.5V254.5L252 248V242.5V240L250.5 236L249.5 234L247.5 233H246.5L245.5 232.5L244.5 233L243.5 233.5L243 235L241.5 241L238.5 248L238 249H237.5L237 248L236.5 245.5L236 243.5L235 242L234 241H232.5L231.5 241.5L232 243V246L232.5 249.5V250.5L232 252L231 254.5V257.5L231.5 260L233 263.5L232.5 264.5L223 299.5L196 312Z" fill="white"/>
<path d="M115.157 357.068C115.123 357.068 115.087 357.064 115.051 357.056L95.0094 352.452C94.755 352.395 94.5961 352.14 94.6547 351.885C94.7134 351.631 94.9583 351.47 95.2221 351.53L115.263 356.134C115.518 356.192 115.676 356.446 115.618 356.701C115.567 356.92 115.372 357.068 115.157 357.068Z" fill="#263238"/>
<path d="M247.265 232.948L247.257 232.947L247.229 232.939C247.204 232.933 247.165 232.923 247.115 232.911C247.014 232.887 246.868 232.855 246.691 232.824C246.333 232.76 245.858 232.698 245.373 232.7C244.881 232.701 244.418 232.769 244.059 232.935C243.718 233.092 243.478 233.333 243.372 233.719C241.537 240.402 240.17 244.31 239.255 246.554C238.798 247.676 238.453 248.386 238.218 248.821C238.1 249.038 238.01 249.188 237.945 249.287C237.913 249.336 237.888 249.373 237.869 249.4C237.864 249.407 237.859 249.414 237.855 249.419C237.851 249.424 237.848 249.428 237.845 249.432L237.837 249.443L237.833 249.447L237.832 249.449L237.831 249.45L237.015 248.875C237.011 248.883 237.009 248.887 237.009 248.887C237.009 248.887 236.977 248.922 236.984 248.875C236.993 248.812 237.036 248.67 237.033 248.556C237.027 248.33 236.994 248.048 236.945 247.747C236.898 247.448 236.838 247.144 236.784 246.874C236.778 246.844 236.773 246.814 236.767 246.785C236.721 246.557 236.679 246.347 236.659 246.205M236.659 246.205C236.51 245.176 236.285 244.183 235.877 243.268C235.204 241.758 233.771 240.802 232.189 241.199C231.894 241.273 231.737 241.377 231.678 241.48C231.62 241.583 231.613 241.742 231.643 242.065C231.762 243.343 231.943 244.615 232.128 245.902L232.134 245.945C232.316 247.213 232.499 248.495 232.622 249.786L232.633 249.904L232.589 250.015C232.358 250.607 232.182 251.218 232.063 251.841L232.05 251.909L232.019 251.971C231.343 253.328 230.449 255.839 231.132 258.752C231.17 258.914 231.204 259.074 231.235 259.23L231.236 259.231C231.473 260.434 231.931 261.56 232.554 262.585L232.615 262.684L232.625 262.801L232.721 263.898L232.729 263.987L232.705 264.074L222.927 299.512L222.837 299.84L222.499 299.876H222.497L222.491 299.877L222.468 299.88L222.387 299.888L222.141 299.915C222.051 299.925 221.963 299.935 221.897 299.943C221.885 299.944 221.875 299.945 221.866 299.946L196.036 311.622L195.598 333.633C196.089 333.883 196.57 334.136 197.045 334.385C198.817 335.316 200.516 336.208 202.419 336.835C205.735 337.928 209.179 338.631 212.657 338.997C219.674 339.733 226.811 339.114 233.704 337.582C236.238 337.018 238.726 336.335 240.946 335.118M236.659 246.205L237.154 246.134M247.322 232.964L247.382 232.966C248.909 233.015 249.964 234.005 250.696 235.657C251.431 237.317 251.785 239.544 251.924 241.805C252.063 244.056 251.987 246.295 251.89 247.954C251.85 248.655 251.805 249.249 251.771 249.7C251.765 249.782 251.759 249.86 251.754 249.933C251.737 250.164 251.724 250.351 251.719 250.476C251.717 250.531 251.715 250.602 251.72 250.662C251.722 250.678 251.725 250.707 251.732 250.739C251.734 250.746 251.736 250.76 251.742 250.778V250.781C251.744 250.869 251.745 251.005 251.745 251.186C251.745 251.545 251.742 252.067 251.735 252.699C251.723 253.962 251.699 255.658 251.674 257.358C251.648 259.058 251.621 260.761 251.599 262.04C251.589 262.679 251.58 263.212 251.573 263.585L251.566 264.019L251.564 264.133L251.563 264.162V264.167V264.169L251.529 265.135L251.495 266.106L251.026 279.499L250.556 292.891L250.551 293.052C250.374 298.11 250.197 303.168 250.019 308.227M250.019 308.227L250.519 308.244M250.019 308.227C249.997 308.863 249.978 309.515 249.958 310.181C249.835 314.337 249.696 319.009 248.734 323.309C247.619 328.288 245.419 332.665 240.946 335.118M240.946 335.118L241.187 335.556M221.933 299.916C221.931 299.917 221.929 299.918 221.929 299.918L221.933 299.916ZM221.933 299.916C221.95 299.908 221.99 299.889 222.034 299.855C222.058 299.835 222.111 299.78 222.139 299.744C222.172 299.688 222.219 299.546 222.227 299.46V299.783L221.933 299.916ZM237.05 248.826H237.049M251.816 250.359C251.82 250.354 251.825 250.346 251.833 250.336C251.826 250.345 251.82 250.353 251.816 250.359Z" stroke="#263238"/>
<path d="M245.078 241.782C246.175 237.737 245.987 232.585 245.975 232.298C245.967 232.077 245.779 231.904 245.557 231.913C245.336 231.922 245.164 232.106 245.172 232.331C245.176 232.42 245.501 241.391 242.891 244.709C242.755 244.882 242.784 245.135 242.959 245.273C243.133 245.41 243.385 245.381 243.523 245.206C244.216 244.327 244.717 243.114 245.078 241.782Z" fill="#263238"/>
<path d="M248.256 241.708C249.865 235.771 248.524 232.806 248.453 232.658C248.359 232.457 248.12 232.371 247.918 232.467C247.717 232.562 247.633 232.801 247.725 233C247.745 233.042 249.597 237.232 246.033 245.619C245.949 245.821 246.04 246.06 246.245 246.147C246.45 246.234 246.686 246.138 246.773 245.934C247.43 244.388 247.911 242.979 248.256 241.708Z" fill="#263238"/>
<path d="M250.704 243.731C251.716 239.998 251.454 235.988 251.44 235.775C251.424 235.554 251.232 235.387 251.01 235.402C250.789 235.419 250.624 235.61 250.637 235.831C250.641 235.894 251.052 242.223 248.89 246.189C248.779 246.384 248.856 246.628 249.051 246.735C249.246 246.842 249.49 246.769 249.597 246.574C250.074 245.698 250.434 244.725 250.704 243.731Z" fill="#263238"/>
<path d="M177.679 167.264C174.091 167.264 170.805 168.551 168.25 170.685C165.696 168.551 162.409 167.264 158.82 167.264C150.807 167.264 144.302 173.669 144.116 181.638C141.811 182.49 139.277 183.215 136.098 183.816C117.125 187.403 134.258 210.449 134.258 210.449L138.742 215.743C138.742 215.743 151.043 207.911 148.139 196.65L179.962 202.197C184.254 198.698 186.961 195.26 188.427 192.02C190.885 189.389 192.4 185.867 192.4 181.983C192.401 173.855 185.81 167.264 177.679 167.264Z" fill="#263238"/>
<path d="M138.359 216.067L138.641 216.399L139.009 216.166L138.741 215.744C139.009 216.166 139.01 216.165 139.01 216.165H139.011L139.013 216.163L139.022 216.157L139.054 216.137C139.081 216.119 139.121 216.092 139.173 216.057C139.276 215.988 139.425 215.886 139.612 215.752C139.985 215.483 140.511 215.088 141.125 214.575C142.352 213.551 143.94 212.052 145.375 210.159C148.177 206.462 150.432 201.198 148.168 195.034C148.308 194.971 148.482 194.894 148.688 194.805C149.297 194.542 150.18 194.177 151.272 193.771C153.459 192.96 156.476 191.99 159.809 191.35C166.473 190.072 174.208 190.148 179.185 195.186C179.507 196.567 179.693 197.996 179.693 199.468V202.095V218.53V228.724V230.603C179.693 239.42 172.781 246.605 164.08 247.08L163.607 247.106V247.579V260.298C163.607 267.379 157.866 273.12 150.784 273.12H150.767C143.687 273.12 137.946 267.38 137.946 260.298V233.842V233.839V233.836V233.833V233.83V233.827V233.823V233.82V233.817V233.814V233.811V233.807V233.804V233.8V233.797V233.794V233.79V233.787V233.783V233.779V233.776V233.772V233.768V233.765V233.761V233.757V233.753V233.749V233.745V233.742V233.738V233.734V233.73V233.725V233.721V233.717V233.713V233.709V233.705V233.7V233.696V233.692V233.687V233.683V233.679V233.674V233.67V233.665V233.66V233.656V233.651V233.647V233.642V233.637V233.633V233.628V233.623V233.618V233.613V233.608V233.604V233.599V233.594V233.589V233.584V233.579V233.573V233.568V233.563V233.558V233.553V233.548V233.542V233.537V233.532V233.526V233.521V233.516V233.51V233.505V233.499V233.494V233.488V233.483V233.477V233.472V233.466V233.46V233.455V233.449V233.443V233.438V233.432V233.426V233.42V233.414V233.408V233.403V233.397V233.391V233.385V233.379V233.373V233.367V233.361V233.355V233.348V233.342V233.336V233.33V233.324V233.318V233.311V233.305V233.299V233.292V233.286V233.28V233.273V233.267V233.261V233.254V233.248V233.241V233.235V233.228V233.222V233.215V233.209V233.202V233.196V233.189V233.182V233.176V233.169V233.162V233.156V233.149V233.142V233.135V233.128V233.122V233.115V233.108V233.101V233.094V233.087V233.08V233.074V233.067V233.06V233.053V233.046V233.039V233.032V233.025V233.018V233.01V233.003V232.996V232.989V232.982V232.975V232.968V232.961V232.953V232.946V232.939V232.932V232.925V232.917V232.91V232.903V232.895V232.888V232.881V232.873V232.866V232.859V232.851V232.844V232.837V232.829V232.822V232.814V232.807V232.799V232.792V232.785V232.777V232.77V232.762V232.755V232.747V232.739V232.732V232.724V232.717V232.709V232.702V232.694V232.686V232.679V232.671V232.664V232.656V232.648V232.641V232.633V232.625V232.618V232.61V232.602V232.595V232.587V232.579V232.571V232.564V232.556V232.548V232.54V232.533V232.525V232.517V232.509V232.502V232.494V232.486V232.478V232.47V232.463V232.455V232.447V232.439V232.431V232.423V232.416V232.408V232.4V232.392V232.384V232.376V232.369V232.361V232.353V232.345V232.337V232.329V232.321V232.314V232.306V232.298V232.29V232.282V232.274V232.266V232.258V232.25V232.243V232.235V232.227V232.219V232.211V232.203V232.195V232.187V232.179V232.172V232.164V232.156V232.148V232.14V232.132V232.124V232.116V232.108V232.101V232.093V232.085V232.077V232.069V232.061V232.053V232.045V232.038V232.03V232.022V232.014V232.006V231.998V231.991V231.983V231.975V231.967V231.959V231.951V231.944V231.936V231.928V231.92V231.912V231.905V231.897V231.889V231.881V231.873V231.866V231.858V231.85V231.842V231.835V231.827V231.819V231.811V231.804V231.796V231.788V231.781V231.773V231.765V231.758V231.75V231.742V231.735V231.727V231.719V231.712V231.704V231.697V231.689V231.681V231.674V231.666V231.659V231.651V231.644V231.636V231.629V231.621V231.614V231.606V231.599V231.591V231.584V231.576V231.569V231.561V231.554V231.547V231.539V231.532V231.525V231.517V231.51V231.503V231.495V231.488V231.481V231.473V231.466V231.459V231.452V231.445V231.437V231.43V231.423V231.416V231.409V231.402V231.394V231.387V231.38V231.373V231.366V231.359V231.352V231.345V231.338V231.331V231.324V231.317V231.31V231.303V231.297V231.29V231.283V231.276V231.269V231.262V231.256V231.249V231.242V231.235V231.229V231.222V231.215V231.209V231.202V231.195V231.189V231.182V231.176V231.169V231.163V231.156V231.15V231.143V231.137V231.13V231.124V231.118V231.111V231.105V231.099V231.092V231.086V231.08V231.074V231.067V231.061V231.055V231.049V231.043V231.037V231.031V231.024V231.018V231.012V231.006V231.001V230.995V230.989V230.983V230.977V230.971V230.965V230.96V230.954V230.948V230.942V230.937V230.931V230.925V230.92V230.914V230.909V230.903V230.898V230.892V230.887V230.881V230.876V230.87V230.865V230.86V230.854V230.849V230.844V230.839V230.833V230.828V230.823V230.818V230.813V230.808V230.803V230.798V230.793V230.788V230.783V230.778V230.773V230.769V230.764V230.759V230.754V230.75V230.745V230.74V230.736V230.731V230.727V230.722V230.718V230.713V230.709V230.704V230.7V230.696V230.691V230.687V230.683V230.679V230.675V230.671V230.666V230.662V230.658V230.654V230.65V230.646V230.643V230.639V230.635V230.631V230.627V230.624V230.62V230.616V230.613V230.609V230.605V230.602V224.972V224.472H137.446H135.632C131.714 224.472 128.539 221.296 128.539 217.379V217.369C128.539 214.405 130.359 211.866 132.944 210.807C133.183 210.709 133.433 210.626 133.691 210.555L138.359 216.067Z" fill="white" stroke="#263238"/>
<path d="M163.17 245.748H157.094C156.204 245.748 155.337 245.659 154.484 245.527L151.982 244.965C145.078 242.794 140.07 236.345 140.07 228.724V225.634L137.447 224.973V230.603C137.447 235.429 139.464 239.776 142.69 242.874L163.814 257.209V247.627L163.696 247.6C172.852 247.319 180.194 239.827 180.194 230.603V228.724C180.194 238.126 172.572 245.748 163.17 245.748Z" fill="#263238"/>
<path d="M162.951 213.826C162.951 214.512 162.395 215.068 161.71 215.068C161.024 215.068 160.468 214.512 160.468 213.826C160.468 213.14 161.024 212.584 161.71 212.584C162.395 212.584 162.951 213.14 162.951 213.826Z" fill="#233863"/>
<path d="M175.991 212.88C175.991 213.566 175.434 214.122 174.749 214.122C174.063 214.122 173.507 213.566 173.507 212.88C173.507 212.195 174.063 211.639 174.749 211.639C175.434 211.638 175.991 212.194 175.991 212.88Z" fill="#233863"/>
<path d="M167.195 224.973C166.695 224.973 166.151 224.939 165.559 224.865C165.268 224.829 165.066 224.592 165.107 224.337C165.149 224.081 165.426 223.904 165.71 223.94C169.802 224.456 171.162 222.811 171.558 222.081C171.624 221.959 171.632 221.82 171.581 221.688L167.262 210.534C167.167 210.29 167.316 210.025 167.594 209.942C167.873 209.86 168.174 209.99 168.271 210.235L172.589 221.389C172.729 221.753 172.705 222.142 172.518 222.483C172.084 223.286 170.744 224.972 167.195 224.973Z" fill="#263238"/>
<path d="M165.801 240.207C165.655 240.207 165.511 240.139 165.419 240.012C164.277 238.442 162.352 239.018 162.331 239.025C162.078 239.105 161.816 238.962 161.739 238.713C161.661 238.464 161.8 238.199 162.05 238.121C162.943 237.844 164.956 237.767 166.183 239.456C166.336 239.668 166.29 239.963 166.079 240.116C165.995 240.176 165.898 240.207 165.801 240.207Z" fill="#263238"/>
<path d="M157.439 207.818C157.905 207.901 158.44 207.72 158.967 207.575C159.494 207.418 160.027 207.274 160.496 207.164C160.965 207.054 161.507 206.947 162.05 206.853C162.586 206.749 163.149 206.672 163.522 206.392C163.885 206.128 163.935 205.602 163.317 205.114C162.733 204.636 161.414 204.275 159.861 204.635C158.312 205.001 157.309 205.906 157.016 206.59C156.7 207.296 156.992 207.743 157.439 207.818Z" fill="#233863"/>
<path d="M176.863 207.212C176.52 207.267 176.129 207.129 175.744 207.017C175.358 206.896 174.967 206.783 174.625 206.698C174.282 206.612 173.883 206.527 173.486 206.452C173.093 206.37 172.681 206.308 172.409 206.098C172.145 205.899 172.115 205.512 172.574 205.16C173.008 204.815 173.981 204.565 175.118 204.847C176.252 205.133 176.979 205.808 177.187 206.314C177.413 206.837 177.192 207.161 176.863 207.212Z" fill="#233863"/>
<path d="M133.19 220.115C133.011 220.115 132.839 220.013 132.76 219.839C132.652 219.602 132.756 219.321 132.994 219.212L135.098 218.253L133.398 214.649C133.287 214.412 133.388 214.13 133.624 214.02C133.857 213.909 134.142 214.008 134.253 214.246L136.362 218.717L133.386 220.074C133.323 220.102 133.255 220.115 133.19 220.115Z" fill="#263238"/>
<path d="M160.479 233.343L157.867 232.912C154.632 232.378 152.442 229.323 152.977 226.088L153.032 225.754L162.957 227.393L162.175 232.128C162.043 232.932 161.283 233.476 160.479 233.343Z" fill="white"/>
<path d="M226.728 381.613H227.109L227.21 381.246L243.318 322.857C243.923 320.664 245.919 319.144 248.194 319.144H318.114C321.533 319.144 323.983 322.443 322.995 325.716L304.257 387.821H224.74H182.961L179.41 382.495C179.159 382.118 179.429 381.613 179.882 381.613H224.74H226.728Z" fill="#0487FF" stroke="#263238"/>
<path opacity="0.93" d="M227.876 381.113H225.887H179.882C179.03 381.113 178.521 382.063 178.994 382.773L182.693 388.321H225.887L227.876 381.113Z" fill="#263238"/>
<path d="M280.817 350.74C284.079 350.74 286.734 353.394 286.734 356.658C286.734 359.921 284.08 362.575 280.817 362.575C277.554 362.575 274.899 359.921 274.899 356.658C274.899 353.394 277.553 350.74 280.817 350.74ZM280.817 348.849C276.522 348.849 273.008 352.363 273.008 356.658C273.008 360.953 276.522 364.467 280.817 364.467C285.112 364.467 288.626 360.953 288.626 356.658C288.626 352.363 285.112 348.849 280.817 348.849Z" fill="white"/>
<path d="M146.313 159.291V159.149H145.813H84.733C80.7964 153.262 78.5 146.187 78.5 138.572C78.5 118.098 95.0976 101.5 115.572 101.5C136.046 101.5 152.644 118.098 152.644 138.572C152.644 146.248 150.308 153.376 146.313 159.291Z" fill="white" stroke="#263238"/>
<path d="M114.962 159.66L114.977 159.661L114.993 159.66L146.565 158.689L145.398 160.585C138.645 169.719 127.802 175.644 115.572 175.644C109.208 175.644 102.645 173.556 96.9856 170.282C91.6413 167.19 87.1376 163.061 84.3813 158.69L114.962 159.66Z" fill="#0487FF" stroke="#263238"/>
<path d="M131.27 109.603C128.928 106.71 124.585 103.597 116.639 103.072C110.938 102.695 104.871 103.729 100.617 107.825C97.7339 110.6 96.0053 114.44 95.2932 118.342C94.3864 123.313 95.7641 128.011 96.9613 132.785L106.451 143.72L108.362 133.997C108.424 133.888 108.443 133.728 108.449 133.556L111.445 118.315C111.941 117.985 112.471 117.71 113.028 117.505C115.445 116.617 118.428 116.869 120.933 117.11C120.969 117.113 120.99 117.113 121.019 117.113C123.446 117.405 126.473 116.913 128.986 116.31C129.954 116.077 130.733 115.543 131.284 114.847C132.441 113.392 132.582 111.224 131.27 109.603Z" fill="#263238"/>
<mask id="mask7_519_1499" style="mask-type:luminance" maskUnits="userSpaceOnUse" x="96" y="113" width="39" height="56">
<path d="M134.3 113.8H96.2998V168.8H134.3V113.8Z" fill="white"/>
</mask>
<g mask="url(#mask7_519_1499)">
<path d="M101.058 128.207L101.373 128.17C102.977 128.638 104.018 129.367 104.715 130.134C105.429 130.92 105.805 131.77 106.04 132.484C106.133 132.768 106.202 133.024 106.264 133.253C106.281 133.316 106.297 133.377 106.314 133.435C106.35 133.568 106.388 133.699 106.43 133.811C106.467 133.915 106.525 134.053 106.621 134.168C106.733 134.303 106.94 134.446 107.219 134.398C107.432 134.361 107.582 134.223 107.666 134.135C107.848 133.945 108.052 133.622 108.293 133.2C108.39 133.029 108.427 132.839 108.442 132.685C108.458 132.525 108.455 132.358 108.447 132.208C108.438 132.062 108.424 131.916 108.412 131.794L108.411 131.782C108.397 131.649 108.388 131.555 108.387 131.488C108.372 130.943 108.344 130.369 108.316 129.803C108.293 129.332 108.27 128.867 108.255 128.427C108.236 127.863 108.195 127.293 108.154 126.73C108.151 126.689 108.148 126.649 108.145 126.609C108.106 126.084 108.067 125.565 108.044 125.047C107.995 123.931 108.02 122.855 108.261 121.83C108.785 119.603 110.543 117.719 112.697 116.927C114.989 116.086 117.853 116.317 120.382 116.56L120.391 116.561C120.427 116.564 120.458 116.565 120.479 116.566C122.993 116.862 126.082 116.353 128.6 115.749C129.309 115.579 129.929 115.262 130.446 114.845L130.541 115.64L130.925 118.849L133.261 138.394L133.305 138.755C133.97 144.324 130.438 149.412 125.204 150.899L124.849 151L124.841 151.369L124.667 159.139C124.558 164.027 120.507 167.901 115.619 167.792L112.574 167.724C107.686 167.615 103.812 163.564 103.921 158.676L104.306 141.472C104.31 141.327 104.322 141.187 104.336 141.028C104.34 140.989 104.344 140.949 104.347 140.907L104.352 140.856L104.346 140.805L104.021 138.088L103.962 137.592L103.465 137.651L102.205 137.801C99.5564 138.118 97.1516 136.227 96.8345 133.578C96.5175 130.929 98.4087 128.525 101.058 128.207Z" fill="white"/>
<path d="M124.667 159.139L124.841 151.369L124.849 151L125.204 150.899C130.438 149.412 133.97 144.324 133.305 138.755L133.261 138.394L130.925 118.849L130.541 115.64L130.446 114.845C129.929 115.262 129.309 115.579 128.6 115.749C126.082 116.353 122.993 116.862 120.479 116.566C120.458 116.565 120.427 116.564 120.391 116.561L120.382 116.56C117.853 116.317 114.989 116.086 112.697 116.927C110.543 117.719 108.785 119.603 108.261 121.83C108.02 122.855 107.995 123.931 108.044 125.047C108.067 125.565 108.106 126.084 108.145 126.609C108.148 126.649 108.151 126.689 108.154 126.73C108.195 127.293 108.236 127.863 108.255 128.427C108.27 128.867 108.293 129.332 108.316 129.803C108.344 130.369 108.372 130.943 108.387 131.488C108.388 131.555 108.397 131.649 108.411 131.782L108.412 131.794C108.424 131.916 108.438 132.062 108.447 132.208C108.455 132.358 108.458 132.525 108.442 132.685C108.427 132.839 108.39 133.029 108.293 133.2C108.052 133.622 107.848 133.945 107.666 134.135C107.582 134.223 107.432 134.361 107.219 134.398C106.94 134.446 106.733 134.303 106.621 134.168C106.525 134.053 106.467 133.915 106.43 133.811C106.388 133.699 106.35 133.568 106.314 133.435C106.297 133.377 106.281 133.316 106.264 133.253C106.202 133.024 106.133 132.768 106.04 132.484C105.805 131.77 105.429 130.92 104.715 130.134C104.018 129.367 102.977 128.638 101.373 128.17L101.058 128.207C98.4087 128.525 96.5175 130.929 96.8345 133.578C97.1516 136.227 99.5564 138.118 102.205 137.801L103.465 137.651L103.962 137.592L104.021 138.088L104.346 140.805L104.352 140.856L104.347 140.907C104.344 140.949 104.34 140.989 104.336 141.028C104.322 141.187 104.31 141.327 104.306 141.472L103.921 158.676C103.812 163.564 107.686 167.615 112.574 167.724L115.619 167.792C120.507 167.901 124.558 164.027 124.667 159.139ZM124.667 159.139L125.167 159.151" stroke="#263238"/>
<path d="M133.576 138.555L133.533 138.194C134.241 144.117 130.013 149.492 124.09 150.2L117.582 150.979C111.659 151.687 106.283 147.459 105.576 141.536C105.576 141.536 105.243 139.722 104.756 137.104C104.564 136.071 103.3 138.003 103.3 138.003L103.792 142.115C104.546 148.425 110.169 152.952 116.452 152.42L124.742 157.255L124.874 151.312C130.474 149.853 134.282 144.461 133.576 138.555ZM123.299 151.623C123.608 151.586 123.908 151.527 124.209 151.467C123.91 151.53 123.609 151.586 123.299 151.623Z" fill="#263238"/>
</g>
<path d="M120.3 130.076C120.357 130.553 120.017 130.987 119.538 131.045C119.061 131.102 118.627 130.761 118.57 130.283C118.512 129.805 118.854 129.371 119.332 129.314C119.81 129.257 120.244 129.597 120.3 130.076Z" fill="#142647"/>
<path d="M128.88 128.832C128.936 129.31 128.596 129.744 128.118 129.801C127.64 129.858 127.206 129.517 127.149 129.038C127.093 128.561 127.433 128.127 127.911 128.07C128.389 128.012 128.823 128.354 128.88 128.832Z" fill="#142647"/>
<path d="M121.048 139.209C119.719 139.209 118.657 138.925 117.875 138.359C116.854 137.621 116.716 136.663 116.712 136.622C116.678 136.363 116.859 136.126 117.119 136.092C117.36 136.058 117.612 136.236 117.65 136.493C117.655 136.528 117.762 137.123 118.458 137.612C119.134 138.088 120.515 138.548 123.227 138.037C123.478 137.99 123.731 138.157 123.779 138.414C123.827 138.67 123.659 138.918 123.403 138.966C122.542 139.128 121.757 139.209 121.048 139.209Z" fill="#263238"/>
<path d="M123.649 136.226C123.585 136.226 123.52 136.225 123.455 136.224C123.195 136.218 122.988 136.002 122.993 135.741C123 135.48 123.226 135.295 123.477 135.279C124.014 135.289 124.502 135.246 124.93 135.148C125.537 135.008 126.043 134.6 126.316 134.032C126.6 133.443 126.601 132.769 126.319 132.181L123.18 125.622C123.067 125.386 123.166 125.105 123.402 124.991C123.635 124.877 123.92 124.977 124.033 125.213L127.172 131.772C127.579 132.62 127.577 133.594 127.168 134.443C126.769 135.271 126.031 135.865 125.142 136.07C124.691 136.174 124.189 136.226 123.649 136.226Z" fill="#263238"/>
<path d="M124.388 145.855C124.261 145.855 124.135 145.804 124.042 145.704C123.193 144.79 122.016 145.284 121.967 145.307C121.73 145.412 121.45 145.304 121.345 145.065C121.24 144.826 121.346 144.549 121.583 144.443C121.657 144.409 123.422 143.644 124.735 145.061C124.914 145.253 124.902 145.552 124.711 145.729C124.619 145.815 124.504 145.855 124.388 145.855Z" fill="#263238"/>
<path d="M114.099 127.56C114.523 127.585 114.981 127.367 115.435 127.181C115.889 126.984 116.349 126.798 116.755 126.651C117.162 126.502 117.635 126.348 118.108 126.207C118.576 126.057 119.069 125.928 119.374 125.639C119.669 125.365 119.657 124.89 119.054 124.52C118.482 124.155 117.267 123.975 115.919 124.462C114.576 124.954 113.778 125.868 113.589 126.51C113.383 127.175 113.691 127.541 114.099 127.56Z" fill="#142647"/>
<path d="M130.786 124.71C130.48 124.798 130.111 124.715 129.749 124.655C129.385 124.586 129.019 124.527 128.698 124.486C128.376 124.446 128.007 124.411 127.638 124.387C127.272 124.355 126.891 124.342 126.621 124.182C126.36 124.03 126.29 123.682 126.669 123.314C127.026 122.953 127.882 122.621 128.945 122.752C130.006 122.889 130.739 123.423 130.983 123.86C131.244 124.31 131.08 124.629 130.786 124.71Z" fill="#142647"/>
<path d="M99.9931 134.573C99.8342 134.573 99.6782 134.492 99.5893 134.346C99.4541 134.123 99.5241 133.833 99.7472 133.697L101.011 132.928L99.6016 130.679C99.4636 130.458 99.5307 130.167 99.751 130.028C99.9732 129.89 100.264 129.957 100.403 130.177L102.319 133.237L100.238 134.504C100.162 134.55 100.077 134.573 99.9931 134.573Z" fill="#263238"/>
</g>
</g>
<defs>
<clipPath id="clip0_519_1499">
<rect width="480" height="480" fill="white"/>
</clipPath>
</defs>
</svg>
