<svg width="480" height="480" viewBox="0 0 480 480" fill="none" xmlns="http://www.w3.org/2000/svg">
<g clip-path="url(#clip0_519_271)">
<mask id="mask0_519_271" style="mask-type:luminance" maskUnits="userSpaceOnUse" x="0" y="0" width="480" height="480">
<path d="M456 0H24C10.7452 0 0 10.7452 0 24V456C0 469.255 10.7452 480 24 480H456C469.255 480 480 469.255 480 456V24C480 10.7452 469.255 0 456 0Z" fill="white"/>
</mask>
<g mask="url(#mask0_519_271)">
<path d="M456 0H24C10.7452 0 0 10.7452 0 24V456C0 469.255 10.7452 480 24 480H456C469.255 480 480 469.255 480 456V24C480 10.7452 469.255 0 456 0Z" fill="#E6F3FF"/>
<path d="M-63.0308 40.797C-37.5941 54.9419 19.0021 75.7463 41.8931 45.8041C70.5068 8.37637 41.7033 0.871227 33.2447 19.5474C24.786 38.2236 66.9968 63.6025 108.765 25.1247C142.179 -5.65755 157.787 -53.1177 161.414 -73" stroke="#0487FF" stroke-dasharray="6 6"/>
<path d="M479.529 315.123C454.601 330.146 408.389 368.881 422.967 403.637C441.189 447.083 462.034 425.835 450.045 409.203C438.056 392.572 395.035 416.553 407.622 471.93C417.691 516.232 451.088 553.391 466.527 566.432" stroke="#0487FF" stroke-dasharray="6 6"/>
<path d="M438.503 393.924H63.935C63.1081 393.924 62.4375 393.7 62.4375 393.424C62.4375 393.147 63.1081 392.924 63.935 392.924H438.503C439.329 392.924 440 393.148 440 393.424C440 393.7 439.329 393.924 438.503 393.924Z" fill="#263238"/>
<path d="M366.866 295.635H294.015C291.085 295.635 288.703 293.251 288.703 290.323V246.126C288.703 242.598 291.573 239.728 295.101 239.728H347.367C347.891 239.728 348.314 240.152 348.314 240.675C348.314 241.198 347.891 241.622 347.367 241.622H295.1C292.617 241.622 290.597 243.642 290.597 246.126V290.323C290.597 292.207 292.13 293.74 294.014 293.74H366.865C368.749 293.74 370.282 292.207 370.282 290.323V247.281C370.282 244.161 367.743 241.622 364.624 241.622H354.528C354.004 241.622 353.58 241.198 353.58 240.675C353.58 240.152 354.004 239.728 354.528 239.728H364.624C368.789 239.728 372.176 243.116 372.176 247.281V290.323C372.177 293.252 369.794 295.635 366.866 295.635Z" fill="#263238"/>
<path d="M292.162 294.339C291.902 294.339 291.641 294.232 291.455 294.021C291.107 293.63 291.142 293.031 291.532 292.684L321.294 266.207C321.684 265.858 322.285 265.894 322.632 266.284C322.979 266.676 322.944 267.274 322.554 267.622L292.792 294.099C292.611 294.26 292.386 294.339 292.162 294.339Z" fill="#FFA000"/>
<path d="M368.417 295.072C368.193 295.072 367.969 294.993 367.789 294.833L338.07 268.489C337.678 268.143 337.642 267.544 337.989 267.153C338.336 266.759 338.934 266.726 339.326 267.072L369.045 293.417C369.436 293.764 369.472 294.362 369.125 294.753C368.939 294.964 368.678 295.072 368.417 295.072Z" fill="#263238"/>
<path d="M330.449 273.509C329.464 273.509 328.479 273.2 327.639 272.582L289.956 244.89C289.535 244.58 289.444 243.987 289.754 243.566C290.063 243.145 290.656 243.051 291.078 243.364L328.762 271.056C329.767 271.795 331.118 271.797 332.127 271.063L369.006 244.176C369.429 243.868 370.022 243.962 370.329 244.383C370.638 244.806 370.544 245.398 370.122 245.707L333.243 272.595C332.407 273.204 331.428 273.509 330.449 273.509Z" fill="#263238"/>
<path d="M396.353 209.021C398.08 209.021 399.638 209.739 400.749 210.894L369.849 233.422C369.236 233.869 368.418 233.867 367.806 233.418L336.618 210.499C337.517 209.587 338.761 209.021 340.14 209.021H396.353Z" fill="#0487FF" stroke="#263238"/>
<path d="M371.554 235.761C370.74 236.355 369.786 236.651 368.831 236.651C367.871 236.651 366.91 236.35 366.094 235.749L371.554 235.761ZM371.554 235.761L375.472 232.904L398.39 253.219H339.054C338.824 253.219 338.598 253.199 338.379 253.16L361.634 232.472L366.093 235.749L371.554 235.761Z" fill="#0487FF"/>
<path d="M371.554 235.761C370.74 236.355 369.786 236.651 368.831 236.651C367.871 236.651 366.91 236.35 366.094 235.749L371.554 235.761ZM371.554 235.761L375.472 232.904L398.39 253.219H339.054C338.824 253.219 338.598 253.199 338.379 253.16L361.634 232.472L366.093 235.749L371.554 235.761Z" stroke="#263238"/>
<path d="M335.189 213.973C335.189 213.674 335.217 213.382 335.269 213.098L359.248 230.72L335.863 251.524C335.439 250.905 335.189 250.16 335.189 249.356V213.973Z" fill="#0487FF" stroke="#263238"/>
<path d="M402.212 213.41C402.372 213.954 402.459 214.53 402.459 215.126V249.356C402.459 250.383 402.047 251.311 401.382 252.004L377.866 231.16L402.212 213.41Z" fill="#0487FF" stroke="#263238"/>
<path d="M413.993 208.718C413.993 215.014 408.89 220.117 402.595 220.117C396.3 220.117 391.196 215.014 391.196 208.718C391.196 202.423 396.3 197.32 402.595 197.32C408.89 197.32 413.993 202.423 413.993 208.718Z" fill="#52D180" stroke="#263238"/>
<path d="M399.96 213.315H398.656V205.441L397.333 206.253V204.904L398.656 204.022H399.96V213.315Z" fill="white"/>
<path d="M402.744 212.714C402.294 212.249 402.07 211.602 402.07 210.772V206.547C402.07 205.712 402.295 205.063 402.747 204.601C403.199 204.139 403.857 203.908 404.722 203.908C405.59 203.908 406.251 204.138 406.7 204.598C407.149 205.058 407.374 205.708 407.374 206.547V210.772C407.374 211.607 407.149 212.256 406.697 212.718C406.245 213.18 405.587 213.411 404.722 213.411C403.852 213.411 403.193 213.179 402.744 212.714ZM405.741 211.81C405.961 211.569 406.071 211.223 406.071 210.772V206.547C406.071 206.096 405.962 205.75 405.745 205.508C405.528 205.268 405.186 205.147 404.722 205.147C404.257 205.147 403.917 205.268 403.699 205.508C403.482 205.749 403.373 206.096 403.373 206.547V210.772C403.373 211.224 403.483 211.57 403.702 211.81C403.922 212.05 404.262 212.171 404.722 212.171C405.182 212.171 405.522 212.051 405.741 211.81Z" fill="white"/>
<path d="M139.753 207.156V207.155L131.579 197.886C130.762 196.959 129.624 196.425 128.425 196.425L139.753 207.156ZM139.753 207.156C140.077 207.523 140.496 207.572 140.844 207.418C141.199 207.261 141.5 206.882 141.5 206.331V192.269V157.003C141.5 152.264 137.994 148.5 133.759 148.5H48.119C44.5041 148.5 41.4992 151.715 41.5 155.779V189.045C41.5 193.107 44.5041 196.323 48.1198 196.323L128.424 196.425L139.753 207.156Z" fill="white"/>
<path d="M139.753 207.156V207.155L131.579 197.886C130.762 196.959 129.624 196.425 128.425 196.425L139.753 207.156ZM139.753 207.156C140.077 207.523 140.496 207.572 140.844 207.418C141.199 207.261 141.5 206.882 141.5 206.331V192.269V157.003C141.5 152.264 137.994 148.5 133.759 148.5H48.119C44.5041 148.5 41.4992 151.715 41.5 155.779V189.045C41.5 193.107 44.5041 196.323 48.1198 196.323L128.424 196.425L139.753 207.156Z" stroke="#263238"/>
<path d="M118.874 167.287H98.6889C98.1651 167.287 97.7417 166.863 97.7417 166.34C97.7417 165.817 98.1651 165.393 98.6889 165.393H118.874C119.398 165.393 119.821 165.817 119.821 166.34C119.821 166.863 119.398 167.287 118.874 167.287Z" fill="#0487FF"/>
<path d="M86.3984 167.287H55.4989C54.9751 167.287 54.5518 166.863 54.5518 166.34C54.5518 165.817 54.9751 165.393 55.4989 165.393H86.3984C86.9222 165.393 87.3456 165.817 87.3456 166.34C87.3456 166.863 86.9222 167.287 86.3984 167.287Z" fill="#0487FF"/>
<path d="M118.874 174.48H68.0355C67.5118 174.48 67.0884 174.056 67.0884 173.533C67.0884 173.01 67.5118 172.586 68.0355 172.586H118.875C119.399 172.586 119.822 173.01 119.822 173.533C119.821 174.056 119.398 174.48 118.874 174.48Z" fill="#0487FF"/>
<path d="M118.874 181.672H85.1884C84.6646 181.672 84.2412 181.248 84.2412 180.725C84.2412 180.202 84.6646 179.778 85.1884 179.778H118.874C119.397 179.778 119.821 180.202 119.821 180.725C119.821 181.248 119.397 181.672 118.874 181.672Z" fill="#0487FF"/>
<path d="M90.8504 162.156C90.37 162.655 89.5264 162.315 89.5264 161.622V150.899V124.008C89.5264 120.493 92.3761 117.643 95.8915 117.643H128.795C131.604 117.643 133.882 119.921 133.882 122.73V147.774C133.88 151.185 131.115 153.949 127.705 153.949H100.336C99.3265 153.949 98.3601 154.36 97.6595 155.088L90.8504 162.156Z" fill="#52D180" stroke="#263238"/>
<path d="M103.465 136.625C103.465 137.919 102.415 138.968 101.122 138.968C99.8268 138.968 98.7783 137.918 98.7783 136.625C98.7783 135.331 99.8278 134.281 101.122 134.281C102.415 134.281 103.465 135.331 103.465 136.625Z" fill="white"/>
<path d="M114.448 136.625C114.448 137.919 113.399 138.968 112.105 138.968C110.811 138.968 109.762 137.918 109.762 136.625C109.762 135.331 110.811 134.281 112.105 134.281C113.4 134.281 114.448 135.331 114.448 136.625Z" fill="white"/>
<path d="M123.346 138.968C124.64 138.968 125.69 137.919 125.69 136.625C125.69 135.33 124.64 134.281 123.346 134.281C122.052 134.281 121.003 135.33 121.003 136.625C121.003 137.919 122.052 138.968 123.346 138.968Z" fill="white"/>
<path d="M114.399 208.766C129.053 216.112 134.978 233.946 127.633 248.601C120.288 263.255 102.453 269.181 87.7988 261.835C73.1442 254.49 67.2189 236.656 74.5642 222.001C81.9095 207.346 99.7439 201.421 114.399 208.766Z" fill="#0487FF" stroke="#263238"/>
<path d="M101.095 251.861C97.7631 251.861 94.9623 249.367 94.5797 246.061L94.4565 245.005H107.733L107.61 246.061C107.227 249.368 104.425 251.861 101.095 251.861ZM96.7099 246.899C97.3653 248.705 99.0967 249.967 101.095 249.967C103.093 249.967 104.824 248.705 105.48 246.899H96.7099Z" fill="white"/>
<path d="M112.751 240.631H89.4395V229.926C89.4395 223.755 94.4595 218.734 100.629 218.734H101.558C107.729 218.734 112.75 223.754 112.75 229.926L112.751 240.631ZM91.3338 238.737H110.856V229.926C110.856 224.8 106.686 220.628 101.558 220.628H100.629C95.5032 220.628 91.3338 224.799 91.3338 229.926V238.737Z" fill="white"/>
<path d="M111.808 246.899H90.381C88.2053 246.899 86.4351 245.129 86.4351 242.954V242.681C86.4351 240.506 88.2053 238.736 90.381 238.736H111.808C113.983 238.736 115.754 240.506 115.754 242.681V242.954C115.754 245.129 113.983 246.899 111.808 246.899ZM90.3866 240.631C89.25 240.631 88.3294 241.551 88.3294 242.682V242.955C88.3294 244.086 89.25 245.005 90.381 245.005H111.808C112.939 245.005 113.859 244.086 113.859 242.955V242.682C113.859 241.551 112.939 240.631 111.808 240.631H90.3866Z" fill="white"/>
<path d="M159.007 71.7532C166.212 78.9583 166.212 90.6401 159.007 97.8452C151.802 105.05 140.12 105.05 132.915 97.8452C125.71 90.6401 125.71 78.9583 132.915 71.7532C140.12 64.5481 151.802 64.5481 159.007 71.7532Z" fill="#0487FF" stroke="#263238"/>
<path d="M144.911 77.2998H147.014V88.4499H144.911V77.2998ZM144.911 90.1937H147.014V92.2973H144.911V90.1937Z" fill="white"/>
<path d="M295.421 189.908L304.905 180.064C305.843 179.091 307.137 178.54 308.489 178.54L295.421 189.908ZM295.421 189.908C294.629 190.731 293.239 190.17 293.239 189.029V174.095V136.644C293.239 131.639 297.296 127.583 302.3 127.583H401.658C405.943 127.583 409.418 131.057 409.417 135.344V170.672C409.417 174.957 405.943 178.432 401.657 178.432L308.489 178.54L295.421 189.908Z" fill="white"/>
<path d="M295.421 189.908L304.905 180.064C305.843 179.091 307.137 178.54 308.489 178.54M295.421 189.908L308.489 178.54M295.421 189.908C294.629 190.731 293.239 190.17 293.239 189.029V174.095V136.644C293.239 131.639 297.296 127.583 302.3 127.583H401.658C405.943 127.583 409.418 131.057 409.417 135.344V170.672C409.417 174.957 405.943 178.432 401.657 178.432L308.489 178.54" stroke="#263238"/>
<path d="M341.632 146.677H317.762C317.238 146.677 316.814 146.253 316.814 145.73C316.814 145.207 317.238 144.783 317.762 144.783H341.632C342.156 144.783 342.579 145.207 342.579 145.73C342.579 146.253 342.156 146.677 341.632 146.677Z" fill="#0487FF"/>
<path d="M392.71 146.677H356.167C355.644 146.677 355.22 146.253 355.22 145.73C355.22 145.207 355.644 144.783 356.167 144.783H392.71C393.234 144.783 393.657 145.207 393.657 145.73C393.657 146.253 393.233 146.677 392.71 146.677Z" fill="#0487FF"/>
<path d="M377.884 155.183H317.761C317.237 155.183 316.813 154.759 316.813 154.236C316.813 153.713 317.237 153.289 317.761 153.289H377.884C378.408 153.289 378.831 153.713 378.831 154.236C378.831 154.759 378.408 155.183 377.884 155.183Z" fill="#0487FF"/>
<path d="M357.599 163.689H317.762C317.238 163.689 316.814 163.265 316.814 162.742C316.814 162.219 317.238 161.795 317.762 161.795H357.599C358.122 161.795 358.546 162.219 358.546 162.742C358.546 163.265 358.121 163.689 357.599 163.689Z" fill="#0487FF"/>
<path d="M305.718 129.715C305.011 128.981 304.036 128.566 303.016 128.566H275.334C271.882 128.566 269.083 125.768 269.083 122.315V96.9845C269.083 94.1407 271.389 91.8347 274.233 91.8347H307.512C311.07 91.8347 313.955 94.7185 313.955 98.2774V125.475V136.32C313.955 137.026 313.095 137.373 312.605 136.864L305.718 129.715Z" fill="#0487FF" stroke="#263238"/>
<path d="M299.851 111.039C299.851 112.348 300.911 113.409 302.22 113.409C303.529 113.409 304.59 112.348 304.59 111.039C304.59 109.73 303.529 108.669 302.22 108.669C300.912 108.668 299.851 109.73 299.851 111.039Z" fill="white"/>
<path d="M288.742 111.039C288.742 112.348 289.803 113.409 291.112 113.409C292.421 113.409 293.482 112.348 293.482 111.039C293.482 109.73 292.421 108.669 291.112 108.669C289.803 108.668 288.742 109.73 288.742 111.039Z" fill="white"/>
<path d="M277.372 111.039C277.372 112.348 278.433 113.409 279.742 113.409C281.051 113.409 282.112 112.348 282.112 111.039C282.112 109.73 281.051 108.669 279.742 108.669C278.433 108.668 277.372 109.73 277.372 111.039Z" fill="white"/>
<path d="M415.942 123.809C421.492 129.359 421.492 138.359 415.942 143.909C410.391 149.46 401.392 149.46 395.841 143.909C390.291 138.359 390.291 129.359 395.841 123.809C401.392 118.258 410.391 118.258 415.942 123.809Z" fill="#0487FF" stroke="#263238"/>
<path d="M407.58 140.73H405.555V128.505L403.502 129.765V127.671L405.555 126.301H407.58V140.73Z" fill="white"/>
<path d="M260.145 150.45C260.117 150.437 260.045 150.436 260.063 150.413C271.668 134.939 257.143 114.396 244.49 113.126C240.178 107.753 234.395 103.408 227.367 100.808C223.647 99.432 219.824 98.6734 216.015 98.4678C215.946 88.8891 208.166 81.145 198.571 81.145C188.934 81.145 181.122 88.9573 181.122 98.5947C181.122 103.077 182.826 107.151 185.604 110.241C182.793 113.089 180.381 116.395 178.513 120.117C178.072 120.997 177.679 121.888 177.308 122.782C163.15 122.304 150.986 133.026 149.867 147.291C149.076 157.381 154.016 166.597 161.95 171.742C157.134 174.281 154.086 177.779 153.768 181.829C153.399 186.541 156.802 191.091 162.573 194.61C161.378 197.019 160.711 199.678 160.711 202.475C160.711 213.321 170.678 222.113 182.972 222.113C191.282 222.113 198.524 218.094 202.348 212.141C205.004 213.866 207.938 215.458 211.109 216.839C227.491 223.968 243.779 222.836 247.489 214.311C248.493 212.003 248.465 209.39 247.577 206.666C248.563 206.5 249.531 206.277 250.474 205.975C283.578 195.403 288.043 163.083 260.145 150.45Z" fill="#263238"/>
<path d="M263.914 284.995L263.551 285.202L263.691 285.596L265.904 291.842C268.879 300.23 267.934 309.747 263.404 317.148L261.371 320.469L257.155 327.358L257.09 327.464L257.082 327.587L253.408 386.188L142.197 386.159L141.61 314.27L141.606 313.831L141.17 313.778L115.006 310.576L111.087 310.097L142.713 239.506L142.723 239.483L142.732 239.458C146.404 228.28 155.813 220.347 166.851 220.258L212.143 219.892L212.975 219.886L212.647 219.28H237.489C261.302 219.28 280.792 243.682 280.792 274.038V275.37L280.521 275.525L263.914 284.995Z" fill="#E9E9E9"/>
<path d="M265.904 291.842L263.691 285.596L263.551 285.202L263.914 284.995L280.521 275.525L280.792 275.37V274.038C280.792 243.682 261.302 219.28 237.489 219.28H212.647L212.975 219.886L212.143 219.892L166.851 220.258M265.904 291.842L266.376 291.675M265.904 291.842C268.879 300.23 267.934 309.747 263.404 317.148L261.371 320.469L257.155 327.358L257.09 327.464L257.082 327.587L253.408 386.188L142.197 386.159L141.61 314.27L141.606 313.831L141.17 313.778L115.006 310.576L111.087 310.097L142.713 239.506L142.723 239.483L142.732 239.458C146.404 228.28 155.813 220.347 166.851 220.258M166.851 220.258L166.847 219.758" stroke="#263238"/>
<path d="M172.563 318.446L145.996 315.348C145.737 315.318 145.55 315.083 145.58 314.823C145.611 314.562 145.852 314.384 146.106 314.407L171.833 317.406L179.138 285.883C179.197 285.629 179.451 285.47 179.707 285.528C179.962 285.588 180.121 285.842 180.061 286.098L172.563 318.446Z" fill="#263238"/>
<path d="M200.292 250.632C184.8 250.632 172.197 238.029 172.197 222.537V219.367C172.197 218.987 172.504 218.68 172.883 218.68C173.263 218.68 173.57 218.987 173.57 219.367V222.537C173.57 237.271 185.558 249.258 200.292 249.258C215.026 249.258 227.012 237.271 227.012 222.537V219.367C227.012 218.987 227.319 218.68 227.699 218.68C228.079 218.68 228.386 218.987 228.386 219.367V222.537C228.385 238.029 215.783 250.632 200.292 250.632Z" fill="#263238"/>
<path d="M181.538 235.343C181.318 235.343 181.102 235.237 180.969 235.042C178.355 231.181 176.973 226.667 176.973 221.986V219.368C176.973 218.988 177.28 218.681 177.66 218.681C178.039 218.681 178.347 218.988 178.347 219.368V221.986C178.347 226.39 179.647 230.64 182.107 234.272C182.32 234.586 182.237 235.012 181.923 235.225C181.805 235.305 181.67 235.343 181.538 235.343Z" fill="#263238"/>
<path d="M200.292 245.302C194.95 245.302 189.926 243.546 185.762 240.224C185.466 239.988 185.417 239.556 185.653 239.259C185.892 238.962 186.324 238.917 186.618 239.15C190.536 242.276 195.265 243.929 200.292 243.929C205.312 243.929 210.035 242.28 213.953 239.161C214.247 238.922 214.682 238.973 214.917 239.27C215.155 239.566 215.105 239.997 214.808 240.234C210.646 243.55 205.626 245.302 200.292 245.302Z" fill="#263238"/>
<path d="M219.984 233.832C219.869 233.832 219.752 233.804 219.645 233.742C219.316 233.555 219.2 233.136 219.388 232.806C221.251 229.523 222.236 225.782 222.236 221.985V219.367C222.236 218.987 222.543 218.68 222.923 218.68C223.302 218.68 223.609 218.987 223.609 219.367V221.985C223.609 226.02 222.563 229.995 220.581 233.484C220.455 233.707 220.223 233.832 219.984 233.832Z" fill="#263238"/>
<path d="M266.672 406.108L266.698 406.147L266.731 406.181C267.851 407.326 267.83 409.182 266.687 410.301L266.602 410.384C265.662 411.304 264.24 411.443 263.135 410.821L261.873 410.11L262.428 411.448C262.474 411.56 262.519 411.673 262.562 411.789L262.599 411.888L262.674 411.964L263 412.298C264.12 413.444 264.099 415.3 262.954 416.419L262.869 416.502C261.724 417.622 259.87 417.601 258.75 416.458C258.749 416.457 258.749 416.457 258.748 416.456L258.727 416.434L257.94 415.617L257.867 416.748C257.824 417.425 257.564 418.081 257.069 418.592L256.987 418.676L256.985 418.677C255.871 419.827 254.015 419.854 252.866 418.739V418.738L251.705 417.612L251.612 417.522L251.486 417.488C251.429 417.473 251.377 417.462 251.341 417.454C251.302 417.446 251.276 417.44 251.249 417.432L251.132 417.399L251.013 417.423L251.012 417.424H251.01L251 417.426L250.958 417.434C250.921 417.441 250.868 417.452 250.8 417.464L250.245 417.566L250.413 418.105C250.674 418.942 250.515 419.882 249.91 420.578C248.977 421.65 247.334 421.764 246.263 420.831L246.241 420.812L246.217 420.796L246.188 420.84C246.217 420.796 246.217 420.796 246.217 420.796L246.216 420.795L246.213 420.793L246.198 420.783L246.14 420.743L245.911 420.585C245.71 420.447 245.415 420.243 245.035 419.979C244.276 419.453 243.182 418.69 241.841 417.746C239.16 415.859 235.495 413.248 231.558 410.353C223.672 404.553 214.743 397.645 210.434 393.133L210.285 392.978H210.071L126.402 393.188C113.396 392.957 103.008 383.5 100.77 371.523L100.768 371.513L100.766 371.504C99.8937 367.675 99.8469 363.597 100.782 359.513L115.302 311.621L161.765 317.305L155.34 345.81L155.232 346.287L155.707 346.405L234.511 365.987L234.492 366.034L235.043 366.175L238.204 366.98C238.206 366.98 238.207 366.98 238.208 366.981C240.376 367.573 242.044 369.328 243.707 371.688C244.36 372.616 245 373.618 245.665 374.66C245.843 374.938 246.023 375.219 246.205 375.503C247.062 376.836 247.97 378.208 248.989 379.516L266.672 406.108Z" fill="white"/>
<path d="M263 412.298L262.674 411.964L262.599 411.888L262.562 411.789C262.519 411.673 262.474 411.56 262.428 411.448L261.873 410.11L263.135 410.821C264.24 411.443 265.662 411.304 266.602 410.384L266.687 410.301C267.83 409.182 267.851 407.326 266.731 406.181L266.698 406.147L266.672 406.108L248.989 379.516C247.97 378.208 247.062 376.836 246.205 375.503C246.023 375.219 245.843 374.938 245.665 374.66C245 373.618 244.36 372.616 243.707 371.688C242.044 369.328 240.376 367.573 238.208 366.981C238.207 366.98 238.206 366.98 238.204 366.98L235.043 366.175L234.492 366.034L234.511 365.987L155.707 346.405L155.232 346.287L155.34 345.81L161.765 317.305L115.302 311.621L100.782 359.513C99.8469 363.597 99.8937 367.675 100.766 371.504L100.768 371.513L100.77 371.523C103.008 383.5 113.396 392.957 126.402 393.188L210.071 392.978H210.285L210.434 393.133C214.743 397.645 223.672 404.553 231.558 410.353C235.495 413.248 239.16 415.859 241.841 417.746C243.182 418.69 244.276 419.453 245.035 419.979C245.415 420.243 245.71 420.447 245.911 420.585L246.14 420.743L246.198 420.783L246.213 420.793L246.216 420.795L246.217 420.796M263 412.298L263.315 411.991M263 412.298C264.12 413.444 264.099 415.3 262.954 416.419L262.869 416.502C261.724 417.622 259.87 417.601 258.75 416.458C258.749 416.457 258.749 416.457 258.748 416.456L258.727 416.434L257.94 415.617L257.867 416.748C257.824 417.425 257.564 418.081 257.069 418.592L256.987 418.676L256.985 418.677C255.871 419.827 254.015 419.854 252.866 418.739V418.738L251.705 417.612L251.612 417.522L251.486 417.488C251.429 417.473 251.377 417.462 251.341 417.454C251.302 417.446 251.276 417.44 251.249 417.432L251.132 417.399L251.013 417.423L251.012 417.424H251.01L251 417.426L250.958 417.434C250.921 417.441 250.868 417.452 250.8 417.464L250.245 417.566L250.413 418.105C250.674 418.942 250.515 419.882 249.91 420.578C248.977 421.65 247.334 421.764 246.263 420.831L246.241 420.812L246.217 420.796M246.217 420.796L246.188 420.84C246.217 420.796 246.217 420.796 246.217 420.796Z" stroke="#263238"/>
<path d="M263.152 411.763C263.029 411.763 262.906 411.716 262.814 411.621L252.29 400.858C252.107 400.671 252.111 400.371 252.298 400.188C252.486 400.007 252.786 400.008 252.967 400.196L263.491 410.959C263.674 411.146 263.671 411.446 263.484 411.629C263.391 411.718 263.272 411.763 263.152 411.763Z" fill="#263238"/>
<path d="M257.562 415.984C257.439 415.984 257.316 415.936 257.224 415.842L246.7 405.078C246.517 404.892 246.521 404.591 246.708 404.408C246.896 404.228 247.197 404.229 247.377 404.416L257.901 415.18C258.084 415.366 258.08 415.667 257.894 415.849C257.801 415.938 257.682 415.984 257.562 415.984Z" fill="#263238"/>
<path d="M250.917 418.185C250.798 418.185 250.68 418.14 250.588 418.052L239.744 407.611C239.555 407.43 239.55 407.13 239.731 406.941C239.913 406.754 240.214 406.749 240.4 406.928L251.244 417.369C251.433 417.55 251.439 417.851 251.258 418.039C251.164 418.136 251.041 418.185 250.917 418.185Z" fill="#263238"/>
<path d="M163.773 348.367C163.724 348.367 163.675 348.36 163.628 348.345L139.203 340.495C138.954 340.416 138.818 340.15 138.898 339.9C138.977 339.651 139.246 339.514 139.494 339.595L163.919 347.444C164.168 347.523 164.304 347.79 164.224 348.04C164.159 348.24 163.973 348.367 163.773 348.367Z" fill="#263238"/>
<path d="M253.959 152.273L248.252 184.306L248.744 184.394L248.252 184.307L247.784 186.934C245.384 200.41 233.626 209.859 220.391 209.802L219.97 209.8L219.896 210.214L217.456 223.908C215.736 233.561 206.517 239.992 196.863 238.272C187.21 236.552 180.779 227.333 182.499 217.679L188.607 183.394L188.618 183.333L188.614 183.271C188.458 181.042 188.569 178.758 188.978 176.457L189.671 172.571L189.758 172.079L189.266 171.991L186.637 171.522C181.094 170.535 177.401 165.242 178.389 159.699L178.424 159.501C179.412 153.958 184.705 150.266 190.247 151.253L191.473 151.471C196.994 154.453 204.08 153.994 208.976 149.374C209.64 148.748 210.259 148.056 210.825 147.301C212.582 144.951 214.547 142.722 216.637 140.998C218.584 139.393 220.614 138.248 222.666 137.829C223.292 140.346 225.126 142.426 227.554 144.138C230.14 145.962 233.457 147.41 236.891 148.552C243.418 150.722 250.463 151.822 253.959 152.273Z" fill="white" stroke="#263238"/>
<path d="M215.991 207.241L215.467 207.148C201.336 204.63 191.546 192.007 192.21 178.042C192.319 175.757 191.178 173.594 189.177 172.483L188.485 176.37C186.957 184.946 189.478 193.306 194.674 199.493L217.681 225.688L220.378 210.546L219.811 210.302C233.519 210.642 245.796 200.936 248.275 187.022L248.743 184.394C246.008 199.748 231.344 209.976 215.991 207.241Z" fill="#263238"/>
<path d="M228.026 168.674C227.856 169.633 226.939 170.273 225.98 170.101C225.02 169.931 224.381 169.014 224.552 168.054C224.724 167.095 225.64 166.456 226.599 166.627C227.558 166.798 228.197 167.714 228.026 168.674Z" fill="#263238"/>
<path d="M248.91 172.394C248.738 173.354 247.822 173.993 246.863 173.822C245.903 173.651 245.264 172.734 245.436 171.775C245.606 170.815 246.523 170.176 247.482 170.347C248.441 170.519 249.08 171.435 248.91 172.394Z" fill="#263238"/>
<path d="M231.948 182.022C231.084 182.022 230.072 181.867 228.891 181.479C228.642 181.397 228.508 181.129 228.59 180.881C228.673 180.632 228.94 180.497 229.188 180.579C233.17 181.891 234.873 180.255 235.418 179.491C235.518 179.351 235.558 179.179 235.532 179.006L233.499 165.66C233.46 165.401 233.638 165.16 233.896 165.121C234.15 165.081 234.396 165.258 234.435 165.518L236.468 178.864C236.531 179.282 236.433 179.7 236.189 180.041C235.694 180.734 234.437 182.022 231.948 182.022Z" fill="#263238"/>
<path d="M215.118 189.721C210.827 187.244 209.357 181.757 211.835 177.466V177.465L211.854 177.431L224.887 184.956" fill="white" stroke="#263238"/>
<path d="M220.713 177.102C214.619 177.102 209.66 172.148 209.652 166.053C209.646 159.954 214.603 154.987 220.702 154.981C220.706 154.981 220.711 154.981 220.714 154.981C223.664 154.981 226.438 156.128 228.527 158.212C230.618 160.3 231.772 163.076 231.774 166.03C231.781 172.129 226.824 177.096 220.726 177.102C220.722 177.102 220.717 177.102 220.713 177.102ZM211.547 166.051C211.552 171.102 215.664 175.207 220.713 175.207C220.717 175.207 220.72 175.207 220.724 175.207C225.778 175.203 229.885 171.086 229.88 166.031C229.877 163.583 228.922 161.282 227.188 159.553C225.458 157.826 223.159 156.875 220.714 156.875C220.711 156.875 220.708 156.875 220.704 156.875C215.65 156.881 211.542 160.996 211.547 166.051Z" fill="#263238"/>
<path d="M245.864 181.998C239.771 181.998 234.81 177.044 234.803 170.949C234.796 164.85 239.754 159.883 245.851 159.877C245.855 159.877 245.86 159.877 245.864 159.877C251.958 159.877 256.917 164.831 256.925 170.926C256.931 177.025 251.974 181.992 245.875 181.999C245.87 181.998 245.868 181.998 245.864 181.998ZM236.697 170.946C236.703 175.997 240.814 180.102 245.864 180.102C245.868 180.102 245.869 180.102 245.873 180.102C250.927 180.097 255.035 175.98 255.03 170.926C255.025 165.875 250.913 161.77 245.864 161.77C245.86 161.77 245.857 161.77 245.853 161.77C240.799 161.776 236.692 165.892 236.697 170.946Z" fill="#263238"/>
<path d="M235.462 169.706C235.432 169.706 235.401 169.705 235.369 169.702L231.43 169.318C230.909 169.268 230.528 168.804 230.579 168.284C230.63 167.763 231.088 167.376 231.614 167.433L235.553 167.817C236.074 167.867 236.455 168.331 236.403 168.851C236.357 169.34 235.944 169.706 235.462 169.706Z" fill="#263238"/>
<path d="M219.258 151.303C219.861 151.525 220.621 151.411 221.36 151.343C222.104 151.258 222.853 151.191 223.506 151.157C224.16 151.122 224.912 151.107 225.661 151.111C226.405 151.1 227.176 151.131 227.743 150.845C228.292 150.577 228.484 149.885 227.774 149.085C227.106 148.305 225.426 147.508 223.26 147.619C221.098 147.741 219.54 148.713 218.985 149.559C218.392 150.429 218.677 151.095 219.258 151.303Z" fill="#263238"/>
<path d="M251.881 156.859C251.238 156.85 250.57 156.47 249.904 156.141C249.24 155.794 248.565 155.464 247.968 155.196C247.37 154.928 246.673 154.644 245.973 154.379C245.284 154.101 244.553 153.853 244.125 153.384C243.71 152.937 243.78 152.221 244.73 151.73C245.633 151.241 247.488 151.102 249.468 151.984C251.442 152.874 252.548 154.34 252.762 155.33C253.003 156.355 252.497 156.875 251.881 156.859Z" fill="#263238"/>
<path d="M184.553 164.441C184.342 164.441 184.15 164.299 184.095 164.085C184.03 163.831 184.183 163.573 184.436 163.508L187.811 162.64L186.278 156.983C186.21 156.73 186.359 156.471 186.611 156.402C186.867 156.33 187.123 156.483 187.191 156.736L188.976 163.32L184.67 164.427C184.632 164.436 184.592 164.441 184.553 164.441Z" fill="#263238"/>
<path d="M309.111 254.071C309.112 256.348 307.264 258.196 304.986 258.196H278.887C276.608 258.196 274.761 256.349 274.761 254.071V203.911C274.761 201.632 276.607 199.786 278.887 199.786H304.986C307.264 199.786 309.111 201.632 309.111 203.911V254.071Z" fill="white" stroke="#263238"/>
<path d="M323.936 249.828L323.941 249.787L324.629 243.399C325.578 234.594 322.983 225.789 317.471 218.853C317.403 218.767 317.336 218.682 317.268 218.597C316.805 218.014 316.35 217.441 315.898 216.895L315.783 216.756V216.576V207.984C315.783 206.385 314.486 205.089 312.887 205.089C311.354 205.089 310.112 206.331 310.112 207.864V211.125C310.112 217.602 304.867 222.855 298.39 222.863L288.587 222.877H288.566L288.544 222.875L273.875 221.622C272.243 221.482 270.79 222.706 270.651 224.339C270.537 225.673 271.343 226.881 272.544 227.354L273.885 227.882L272.505 228.298C272.382 228.335 272.26 228.374 272.137 228.418L272.035 228.453L271.928 228.444L271.52 228.409C269.888 228.27 268.435 229.493 268.295 231.127C268.156 232.759 269.379 234.211 271.012 234.351L271.025 234.352L271.033 234.353L272.125 234.475L271.316 235.218C270.8 235.693 270.444 236.331 270.362 237.064C270.18 238.693 271.366 240.177 272.994 240.358L274.534 240.531L274.664 240.545L274.771 240.622C274.809 240.65 274.839 240.671 274.866 240.691C274.902 240.718 274.933 240.741 274.975 240.771L275.076 240.84L323.936 249.828ZM323.936 249.828L323.939 249.868L326.841 302.514C326.841 302.516 326.842 302.517 326.842 302.518C327.299 313.27 321.89 322.494 314.177 326.522L314.17 326.525L314.163 326.529C312.071 327.707 309.358 328.715 305.827 329.553C300.44 330.831 294.074 330.403 287.75 329.115C281.434 327.83 275.2 325.696 270.098 323.6L262.529 320.491L264.255 317.671C268.948 310.006 269.917 300.172 266.846 291.507L264.772 285.656L280.857 276.484L286.01 277.422L286.496 277.51L286.59 277.025L287.431 272.67L291.375 252.246L291.462 251.794L291.02 251.67C288.701 251.016 284.848 249.803 281.568 248.75C279.93 248.225 278.437 247.74 277.353 247.386C276.811 247.21 276.372 247.066 276.068 246.966L275.718 246.852L275.627 246.822L275.604 246.814L275.598 246.812H275.597L275.596 246.811C275.596 246.811 275.596 246.811 275.44 247.286L275.596 246.811L275.56 246.799L275.522 246.793C274.117 246.558 273.159 245.215 273.394 243.809C273.546 242.896 274.173 242.174 274.987 241.844L275.511 241.631L275.235 241.137C275.202 241.077 275.176 241.03 275.158 240.997L275.138 240.96L275.134 240.951L275.133 240.949H275.132V240.948L323.936 249.828ZM270.564 235.299C270.191 235.781 269.937 236.362 269.865 237.009L270.564 235.299ZM270.564 235.299C270.681 235.32 270.799 235.336 270.92 235.347ZM270.564 235.299L270.92 235.347ZM270.92 235.347H270.922C270.924 235.347 270.925 235.347 270.927 235.347L270.941 235.176L270.978 234.85L270.97 234.842L270.639 234.482C270.548 234.566 270.46 234.654 270.376 234.746L270.92 235.347Z" fill="white"/>
<path d="M323.936 249.828L323.941 249.787L324.629 243.399C325.578 234.594 322.983 225.789 317.471 218.853C317.403 218.767 317.336 218.682 317.268 218.597C316.805 218.014 316.35 217.441 315.898 216.895L315.783 216.756V216.576V207.984C315.783 206.385 314.486 205.089 312.887 205.089C311.354 205.089 310.112 206.331 310.112 207.864V211.125C310.112 217.602 304.867 222.855 298.39 222.863L288.587 222.877H288.566L288.544 222.875L273.875 221.622C272.243 221.482 270.79 222.706 270.651 224.339C270.537 225.673 271.343 226.881 272.544 227.354L273.885 227.882L272.505 228.298C272.382 228.335 272.26 228.374 272.137 228.418L272.035 228.453L271.928 228.444L271.52 228.409C269.888 228.27 268.435 229.493 268.295 231.127C268.156 232.759 269.379 234.211 271.012 234.351L271.025 234.352L271.033 234.353L272.125 234.475L271.316 235.218C270.8 235.693 270.444 236.331 270.362 237.064C270.18 238.693 271.366 240.177 272.994 240.358L274.534 240.531L274.664 240.545L274.771 240.622C274.809 240.65 274.839 240.671 274.866 240.691C274.902 240.718 274.933 240.741 274.975 240.771L275.076 240.84L323.936 249.828ZM323.936 249.828L323.939 249.868L326.841 302.514C326.841 302.516 326.842 302.517 326.842 302.518C327.299 313.27 321.89 322.494 314.177 326.522L314.17 326.525L314.163 326.529C312.071 327.707 309.358 328.715 305.827 329.553C300.44 330.831 294.074 330.403 287.75 329.115C281.434 327.83 275.2 325.696 270.098 323.6L262.529 320.491L264.255 317.671C268.948 310.006 269.917 300.172 266.846 291.507L264.772 285.656L280.857 276.484L286.01 277.422L286.496 277.51L286.59 277.025L287.431 272.67L291.375 252.246L291.462 251.794L291.02 251.67C288.701 251.016 284.848 249.803 281.568 248.75C279.93 248.225 278.437 247.74 277.353 247.386C276.811 247.21 276.372 247.066 276.068 246.966L275.718 246.852L275.627 246.822L275.604 246.814L275.598 246.812H275.597L275.596 246.811M323.936 249.828L275.132 240.948V240.949H275.133L275.134 240.951L275.138 240.96L275.158 240.997C275.176 241.03 275.202 241.077 275.235 241.137L275.511 241.631L274.987 241.844C274.173 242.174 273.546 242.896 273.394 243.809C273.159 245.215 274.117 246.558 275.522 246.793L275.56 246.799L275.596 246.811M275.596 246.811C275.596 246.811 275.596 246.811 275.44 247.286L275.596 246.811ZM270.564 235.299C270.191 235.781 269.937 236.362 269.865 237.009L270.564 235.299ZM270.564 235.299C270.681 235.32 270.799 235.336 270.92 235.347M270.564 235.299L270.92 235.347M270.92 235.347H270.922C270.924 235.347 270.925 235.347 270.927 235.347L270.941 235.176L270.978 234.85L270.97 234.842L270.639 234.482C270.548 234.566 270.46 234.654 270.376 234.746L270.92 235.347Z" stroke="#263238"/>
<path d="M287.178 229.4C287.164 229.4 287.151 229.399 287.137 229.398L272.103 228.115C271.844 228.093 271.649 227.863 271.672 227.603C271.694 227.343 271.936 227.15 272.185 227.171L287.218 228.455C287.478 228.476 287.671 228.707 287.649 228.966C287.627 229.213 287.422 229.4 287.178 229.4Z" fill="#263238"/>
<path d="M287.474 236.414C287.46 236.414 287.446 236.413 287.432 236.412L272.399 235.128C272.139 235.107 271.945 234.876 271.968 234.617C271.989 234.356 272.226 234.162 272.48 234.185L287.514 235.468C287.773 235.49 287.966 235.72 287.944 235.98C287.924 236.227 287.717 236.414 287.474 236.414Z" fill="#263238"/>
<path d="M289.96 243.411C289.941 243.411 289.923 243.41 289.904 243.408L274.916 241.671C274.657 241.641 274.47 241.406 274.5 241.147C274.531 240.886 274.774 240.701 275.026 240.731L290.014 242.468C290.274 242.498 290.46 242.733 290.43 242.993C290.401 243.234 290.197 243.411 289.96 243.411Z" fill="#263238"/>
<path d="M279.957 302.163C279.922 302.163 279.885 302.16 279.848 302.15C279.593 302.09 279.436 301.836 279.497 301.58L287.013 269.708C287.072 269.455 287.32 269.292 287.583 269.356C287.837 269.417 287.994 269.671 287.934 269.927L280.418 301.799C280.366 302.017 280.172 302.163 279.957 302.163Z" fill="#263238"/>
<path d="M263.937 286.101L254.363 263.944C254.26 263.704 254.37 263.425 254.611 263.322C254.849 263.217 255.129 263.327 255.233 263.569L264.387 284.754L281.058 275.249C281.284 275.122 281.574 275.198 281.704 275.426C281.834 275.653 281.755 275.943 281.528 276.073L263.937 286.101Z" fill="#263238"/>
<path d="M283 206.5C283 205.119 281.881 204 280.5 204C279.119 204 278 205.119 278 206.5V211.5C278 212.881 279.119 214 280.5 214C281.881 214 283 212.881 283 211.5V206.5Z" fill="#263238"/>
<path d="M280.5 208C281.328 208 282 207.328 282 206.5C282 205.672 281.328 205 280.5 205C279.672 205 279 205.672 279 206.5C279 207.328 279.672 208 280.5 208Z" fill="white"/>
<path d="M280.5 213C281.328 213 282 212.328 282 211.5C282 210.672 281.328 210 280.5 210C279.672 210 279 210.672 279 211.5C279 212.328 279.672 213 280.5 213Z" fill="white"/>
</g>
</g>
<defs>
<clipPath id="clip0_519_271">
<rect width="480" height="480" fill="white"/>
</clipPath>
</defs>
</svg>
