<svg width="480" height="480" viewBox="0 0 480 480" fill="none" xmlns="http://www.w3.org/2000/svg">
<g clip-path="url(#clip0_519_436)">
<mask id="mask0_519_436" style="mask-type:luminance" maskUnits="userSpaceOnUse" x="0" y="0" width="480" height="480">
<path d="M456 0H24C10.7452 0 0 10.7452 0 24V456C0 469.255 10.7452 480 24 480H456C469.255 480 480 469.255 480 456V24C480 10.7452 469.255 0 456 0Z" fill="white"/>
</mask>
<g mask="url(#mask0_519_436)">
<path d="M456 0H24C10.7452 0 0 10.7452 0 24V456C0 469.255 10.7452 480 24 480H456C469.255 480 480 469.255 480 456V24C480 10.7452 469.255 0 456 0Z" fill="#E6F3FF"/>
<path d="M-5.63042 347.739C-13.5536 347.739 -20 341.293 -20 333.37C-20 325.446 -13.5536 319 -5.63042 319C2.29278 319 8.73919 325.446 8.73919 333.37C8.73919 341.293 2.29278 347.739 -5.63042 347.739ZM-5.63042 322.2C-11.7888 322.2 -16.8 327.21 -16.8 333.37C-16.8 339.529 -11.7888 344.539 -5.63042 344.539C0.52798 344.539 5.53918 339.529 5.53918 333.37C5.53918 327.21 0.52798 322.2 -5.63042 322.2Z" fill="#52D180"/>
<path d="M218.185 240.37C214.223 240.37 211 237.146 211 233.185C211 229.223 214.223 226 218.185 226C222.146 226 225.37 229.223 225.37 233.185C225.37 237.146 222.146 240.37 218.185 240.37ZM218.185 227.6C215.106 227.6 212.6 230.106 212.6 233.185C212.6 236.264 215.106 238.77 218.185 238.77C221.264 238.77 223.77 236.264 223.77 233.185C223.77 230.106 221.264 227.6 218.185 227.6Z" fill="#0487FF"/>
<path d="M397.185 80.3696C393.223 80.3696 390 77.1464 390 73.1848C390 69.2232 393.223 66 397.185 66C401.146 66 404.37 69.2232 404.37 73.1848C404.37 77.1464 401.146 80.3696 397.185 80.3696ZM397.185 67.6C394.106 67.6 391.6 70.1056 391.6 73.1848C391.6 76.264 394.106 78.7696 397.185 78.7696C400.264 78.7696 402.77 76.264 402.77 73.1848C402.77 70.1056 400.264 67.6 397.185 67.6Z" fill="#0487FF"/>
<path d="M389.272 164.453C388.637 164.458 388.115 163.942 388.11 163.309L388.037 153.161C388.032 152.527 388.547 152.004 389.181 152C389.815 151.995 390.337 152.51 390.341 153.144L390.415 163.292C390.421 163.926 389.906 164.448 389.272 164.453Z" fill="#0487FF"/>
<path d="M175.272 447.453C174.637 447.458 174.115 446.942 174.11 446.309L174.037 436.161C174.032 435.527 174.547 435.004 175.181 435C175.815 434.995 176.337 435.51 176.341 436.144L176.415 446.292C176.421 446.926 175.906 447.448 175.272 447.453Z" fill="#0487FF"/>
<path d="M96.2719 89.4528C95.6375 89.4576 95.1151 88.9424 95.1103 88.3088L95.0367 78.1608C95.0319 77.5272 95.547 77.004 96.1806 77C96.815 76.9952 97.3375 77.5104 97.3415 78.144L97.415 88.292C97.4206 88.9256 96.9063 89.448 96.2719 89.4528Z" fill="#0487FF"/>
<path d="M383 158.271C382.995 157.638 383.51 157.114 384.144 157.11L394.292 157.037C394.926 157.032 395.449 157.547 395.454 158.181C395.458 158.814 394.943 159.338 394.309 159.342L384.161 159.415C383.527 159.42 383.005 158.905 383 158.271Z" fill="#0487FF"/>
<path d="M169 441.271C168.995 440.638 169.51 440.114 170.144 440.11L180.292 440.037C180.926 440.032 181.449 440.547 181.454 441.181C181.458 441.814 180.943 442.338 180.309 442.342L170.161 442.415C169.527 442.42 169.005 441.905 169 441.271Z" fill="#0487FF"/>
<path d="M90 83.2713C89.9952 82.6377 90.5104 82.1145 91.144 82.1105L101.292 82.0369C101.926 82.0321 102.449 82.5473 102.454 83.1809C102.458 83.8145 101.943 84.3377 101.309 84.3417L91.1608 84.4153C90.5272 84.4201 90.0048 83.9049 90 83.2713Z" fill="#0487FF"/>
<path d="M163.272 309.115C162.638 309.12 162.115 308.605 162.111 307.97L162.038 297.822C162.033 297.189 162.548 296.665 163.182 296.661C163.816 296.657 164.339 297.172 164.343 297.805L164.417 307.953C164.421 308.588 163.906 309.11 163.272 309.115Z" fill="#52D180"/>
<path d="M157 302.933C156.995 302.299 157.51 301.777 158.145 301.772L168.293 301.698C168.927 301.693 169.45 302.209 169.454 302.842C169.458 303.477 168.943 303.999 168.309 304.004L158.161 304.077C157.527 304.082 157.005 303.568 157 302.933Z" fill="#52D180"/>
<path d="M-63.0308 40.7969C-37.5941 54.9419 19.0021 75.7462 41.8931 45.8041C70.5068 8.37631 41.7033 0.871166 33.2447 19.5474C24.786 38.2236 66.9968 63.6024 108.765 25.1246C142.179 -5.65761 157.787 -53.1178 161.414 -73" stroke="#0487FF" stroke-dasharray="6 6"/>
<path d="M479.529 315.123C454.601 330.146 408.389 368.881 422.967 403.637C441.189 447.083 462.034 425.835 450.045 409.203C438.056 392.572 395.035 416.553 407.622 471.93C417.691 516.232 451.088 553.391 466.527 566.432" stroke="#0487FF" stroke-dasharray="6 6"/>
<path d="M143.945 405.693C143.966 405.773 143.985 405.848 144.002 405.917H106.85C106.194 403.519 106.197 400.685 106.383 398.381C106.48 397.178 106.626 396.133 106.747 395.389C106.808 395.017 106.862 394.721 106.901 394.519C106.921 394.418 106.936 394.34 106.947 394.288L106.959 394.23L106.962 394.216L106.963 394.213V394.212L106.98 394.137L106.973 394.06L106.355 387.3L105.707 380.257L119.358 378.626L120.397 382.986L122.185 390.523L122.221 390.673L122.335 390.777C122.638 391.052 123.107 391.313 123.653 391.566C124.21 391.824 124.892 392.094 125.653 392.373C126.685 392.751 127.885 393.155 129.142 393.579C129.736 393.779 130.343 393.983 130.951 394.191C132.856 394.843 134.785 395.534 136.433 396.259C138.096 396.99 139.41 397.73 140.134 398.456L140.135 398.457C141.66 399.982 142.663 401.986 143.287 403.634C143.597 404.454 143.81 405.177 143.945 405.693Z" fill="white" stroke="#263238"/>
<path d="M144.623 406.416H106.473C104.901 401.295 106.473 394.103 106.473 394.103C106.473 394.103 118.231 396.289 122.671 390.411C124.608 392.166 137.305 394.908 140.489 398.102C143.683 401.295 144.623 406.416 144.623 406.416Z" fill="#263238"/>
<path d="M51.0044 394.213L51.0045 394.212L51.0101 394.187L51.013 394.161L51.5839 389.049L52.1411 384.053L66.5634 381.748L66.3725 386.529V386.53L66.2132 390.387L66.2035 390.62L66.3766 390.777C66.6788 391.052 67.1487 391.313 67.694 391.566C68.2512 391.824 68.9333 392.094 69.6945 392.373C70.7262 392.751 71.9259 393.155 73.1834 393.579C73.7774 393.779 74.3842 393.983 74.9924 394.191C76.8976 394.843 78.8266 395.534 80.474 396.259C82.1373 396.99 83.4512 397.73 84.1756 398.456L84.1761 398.457C85.7013 399.982 86.7046 401.986 87.3282 403.634C87.6384 404.454 87.8513 405.177 87.9862 405.693C88.0071 405.773 88.026 405.848 88.0432 405.917H50.8916C50.2354 403.519 50.2387 400.685 50.4245 398.381C50.5215 397.178 50.6671 396.133 50.7883 395.389C50.8489 395.018 50.9034 394.722 50.9425 394.519C50.962 394.418 50.9777 394.341 50.9884 394.289L51.0007 394.23L51.0037 394.216L51.0044 394.213Z" fill="white" stroke="#263238"/>
<path d="M103.457 381.204C103.41 381.197 103.366 381.19 103.325 381.184L92.9338 323.338L92.9311 323.324L92.9277 323.309L84.0422 286.547L83.0639 286.577L76.4434 323.687L76.4415 323.698L76.4401 323.708L68.4628 382.671C64.1088 384.606 59.3513 384.813 55.6325 384.517C53.7418 384.367 52.1302 384.087 50.9926 383.846C50.424 383.725 49.9745 383.614 49.6684 383.534C49.6363 383.525 49.6057 383.517 49.5767 383.509L52.3146 322.752L52.3149 322.744L53.96 264.371L108.203 261.059L114.768 317.032L114.769 317.038L121.182 378.568C117.424 380.809 112.951 381.47 109.352 381.554C107.515 381.597 105.92 381.489 104.785 381.371C104.217 381.312 103.766 381.251 103.457 381.204Z" fill="white" stroke="#263238"/>
<path d="M92.4723 136.526C92.4723 136.526 96.4129 134.141 95.998 129.786C95.5833 125.431 90.502 125.016 88.7392 122.838C86.9763 120.661 84.4939 116.409 77.854 116.409C71.2141 116.409 66.7552 120.764 67.1699 124.497C67.1699 124.497 61.4665 123.357 59.0815 127.608C56.6964 131.86 58.874 136.008 57.9408 137.978C57.0075 139.948 57.0075 145.03 59.7037 147.933C62.4 150.837 60.637 153.222 63.6443 156.851C66.6516 160.481 70.9249 159.756 70.9249 159.756L92.4723 136.526Z" fill="#263238"/>
<path d="M99.1383 169.675L121.087 189.47L121.454 189.801L121.79 189.437L144.928 164.338C144.942 164.338 144.956 164.339 144.972 164.339C145.139 164.346 145.387 164.364 145.694 164.407C146.31 164.492 147.164 164.677 148.106 165.074C149.932 165.845 152.11 167.42 153.539 170.678C153.518 170.705 153.496 170.734 153.472 170.765C153.313 170.973 153.079 171.279 152.777 171.672C152.173 172.456 151.299 173.584 150.219 174.957C148.061 177.704 145.081 181.43 141.798 185.352C138.513 189.275 134.929 193.389 131.559 196.911C128.272 200.346 125.217 203.189 122.857 204.753L104.51 198.911C104.469 198.807 104.415 198.666 104.349 198.491C104.19 198.071 103.964 197.452 103.693 196.657C103.152 195.067 102.433 192.774 101.727 189.971C100.377 184.614 99.0768 177.406 99.1383 169.675Z" fill="#E9E9E9" stroke="#263238"/>
<path d="M93.5121 155.99L93.5149 155.986C93.8297 155.498 94.0287 154.816 94.158 154.049C94.289 153.272 94.356 152.356 94.377 151.367C94.4191 149.387 94.278 147.065 94.0732 144.856C93.8682 142.644 93.5983 140.536 93.3797 138.981C93.2704 138.203 93.1739 137.563 93.1046 137.117C93.07 136.894 93.0422 136.72 93.023 136.601L93.0009 136.465L92.9951 136.43L92.9936 136.421L92.9932 136.418C92.9932 136.418 92.9931 136.418 92.4999 136.5L92.9932 136.418L92.8906 135.803L92.313 136.036C89.2596 137.267 86.6797 136.685 84.8485 135.792C83.9294 135.344 83.2007 134.818 82.7025 134.404C82.4537 134.198 82.2636 134.02 82.1371 133.896C82.0739 133.833 82.0266 133.785 81.996 133.752C81.9807 133.736 81.9696 133.724 81.9627 133.717L81.9555 133.709L81.9548 133.708L81.9543 133.707L81.0811 132.725V134.04C81.0811 135.663 80.0773 136.803 78.7919 137.773C78.3067 138.139 77.8048 138.464 77.3178 138.78C77.1587 138.883 77.0012 138.985 76.8463 139.088C76.2438 139.485 75.6526 139.901 75.2861 140.363C74.9069 140.837 74.677 141.465 74.5329 142.095C74.3869 142.733 74.3189 143.417 74.2915 144.037C74.2639 144.659 74.2766 145.229 74.296 145.643C74.2987 145.699 74.3015 145.753 74.3043 145.803L73.381 145.852L72.9516 143.787L72.9455 143.758L72.9359 143.729C72.6109 142.765 71.8166 142.156 70.9668 141.849C70.1212 141.544 69.1549 141.511 68.3701 141.755C67.7925 141.931 67.5201 142.427 67.4045 142.918C67.2896 143.406 67.299 143.994 67.3588 144.577C67.4634 145.597 67.7408 146.746 67.9459 147.596C67.9761 147.721 68.0046 147.839 68.0308 147.949C68.2841 149.011 69.0873 149.725 69.752 150.154C70.0915 150.373 70.4149 150.532 70.6532 150.635C70.6709 150.643 70.6881 150.65 70.7049 150.658L70.1991 167.205L70.1931 167.403L70.325 167.552L70.6989 167.22C70.325 167.552 70.3249 167.552 70.325 167.552L70.3257 167.553L70.3267 167.554L70.3296 167.557L70.3392 167.567C70.3471 167.576 70.3584 167.588 70.3728 167.604C70.4017 167.635 70.4435 167.678 70.498 167.733C70.6069 167.842 70.7667 167.996 70.9756 168.18C71.3931 168.547 72.0083 169.035 72.8073 169.525C74.4049 170.505 76.7463 171.502 79.7103 171.558C82.6776 171.613 84.5364 170.692 85.6588 169.711C86.2152 169.225 86.5808 168.733 86.809 168.357C86.9231 168.169 87.0031 168.01 87.0557 167.895C87.082 167.837 87.1015 167.791 87.115 167.756C87.1218 167.739 87.127 167.725 87.1309 167.715L87.1357 167.702L87.1373 167.697L87.1379 167.695C87.138 167.694 87.1385 167.694 86.6655 167.532L87.1385 167.694L87.1733 167.592L87.1634 167.485L86.6646 162.107L86.3866 159.124C86.4219 159.124 86.4586 159.123 86.4967 159.122C86.916 159.111 87.5002 159.075 88.1626 158.972C89.4267 158.775 91.0306 158.327 92.3046 157.301H92.3133L92.4521 157.186C92.8587 156.849 93.2116 156.446 93.5121 155.99Z" fill="white"/>
<path d="M92.9932 136.418L92.9936 136.421L92.9951 136.43L93.0009 136.465L93.023 136.601C93.0422 136.72 93.07 136.894 93.1046 137.117C93.1739 137.563 93.2704 138.203 93.3797 138.981C93.5983 140.536 93.8682 142.644 94.0732 144.856C94.278 147.065 94.4191 149.387 94.377 151.367C94.356 152.356 94.289 153.272 94.158 154.049C94.0287 154.816 93.8297 155.498 93.5149 155.986L93.5121 155.99C93.2116 156.446 92.8587 156.849 92.4521 157.186L92.3133 157.301H92.3046C91.0306 158.327 89.4267 158.775 88.1626 158.972C87.5002 159.075 86.916 159.111 86.4967 159.122C86.4586 159.123 86.4219 159.124 86.3866 159.124L86.6646 162.107L87.1634 167.485L87.1733 167.592L87.1385 167.694L86.6655 167.532C87.1385 167.694 87.138 167.694 87.1379 167.695L87.1373 167.697L87.1357 167.702L87.1309 167.715C87.127 167.725 87.1218 167.739 87.115 167.756C87.1015 167.791 87.082 167.837 87.0557 167.895C87.0031 168.01 86.9231 168.169 86.809 168.357C86.5808 168.733 86.2152 169.225 85.6588 169.711C84.5364 170.692 82.6776 171.613 79.7103 171.558C76.7463 171.502 74.4049 170.505 72.8073 169.525C72.0083 169.035 71.3931 168.547 70.9756 168.18C70.7667 167.996 70.6069 167.842 70.498 167.733C70.4435 167.678 70.4017 167.635 70.3728 167.604C70.3584 167.588 70.3471 167.576 70.3392 167.567L70.3296 167.557L70.3267 167.554L70.3257 167.553L70.325 167.552M92.9932 136.418C92.9932 136.418 92.9931 136.418 92.4999 136.5L92.9932 136.418ZM92.9932 136.418L92.8906 135.803L92.313 136.036C89.2596 137.267 86.6797 136.685 84.8485 135.792C83.9294 135.344 83.2007 134.818 82.7025 134.404C82.4537 134.198 82.2636 134.02 82.1371 133.896C82.0739 133.833 82.0266 133.785 81.996 133.752C81.9807 133.736 81.9696 133.724 81.9627 133.717L81.9555 133.709L81.9548 133.708L81.9543 133.707L81.0811 132.725V134.04C81.0811 135.663 80.0773 136.803 78.7919 137.773C78.3067 138.139 77.8048 138.464 77.3178 138.78C77.1587 138.883 77.0012 138.985 76.8463 139.088C76.2438 139.485 75.6526 139.901 75.2861 140.363C74.9069 140.837 74.677 141.465 74.5329 142.095C74.3869 142.733 74.3189 143.417 74.2915 144.037C74.2639 144.659 74.2766 145.229 74.296 145.643C74.2987 145.699 74.3015 145.753 74.3043 145.803L73.381 145.852L72.9516 143.787L72.9455 143.758L72.9359 143.729C72.6109 142.765 71.8166 142.156 70.9668 141.849C70.1212 141.544 69.1549 141.511 68.3701 141.755C67.7925 141.931 67.5201 142.427 67.4045 142.918C67.2896 143.406 67.299 143.994 67.3588 144.577C67.4634 145.597 67.7408 146.746 67.9459 147.596C67.9761 147.721 68.0046 147.839 68.0308 147.949C68.2841 149.011 69.0873 149.725 69.752 150.154C70.0915 150.373 70.4149 150.532 70.6532 150.635C70.6709 150.643 70.6881 150.65 70.7049 150.658L70.1991 167.205L70.1931 167.403L70.325 167.552M70.325 167.552L70.6989 167.22C70.325 167.552 70.3249 167.552 70.325 167.552Z" stroke="#263238"/>
<path d="M61.9191 225.068L58.5579 245.225L61.9191 254.016L62.2841 258.014L63.0144 266.084C63.0144 266.084 63.0144 266.084 63.005 266.084C59.3164 265.56 56.2174 264.792 53.4743 263.903C53.4743 263.903 49.6919 257.883 53.5585 252.35C51.7983 249.241 49.7667 245.44 49.6359 244.27C49.4859 242.875 52.7346 210.725 54.9161 189.407L58.5579 187.534V203.853H85.3812V210.238L61.9191 225.068Z" fill="#EA2411"/>
<path fill-rule="evenodd" clip-rule="evenodd" d="M108.422 249.588C108.881 247.36 109.377 244.71 109.808 241.948C110.969 234.515 98.6571 168.566 98.6568 168.566C96.7656 167.012 91.7379 165.037 88.6951 163.922C87.2441 163.389 86.2423 163.061 86.2423 163.061L86.4202 164.98C86.4202 164.98 87.1223 167.349 80.8683 168.426C74.6238 169.512 70.8039 163.492 70.8039 163.492C69.9145 163.698 69.0626 163.951 68.248 164.213V164.222C60.8144 166.637 56.8448 170.747 56.8448 170.747C56.8448 170.747 56.0114 178.715 54.9161 189.407C52.7346 210.725 49.4859 242.875 49.6359 244.27C49.7667 245.44 51.7983 249.241 53.5585 252.35C53.5584 252.35 53.5586 252.35 53.5585 252.35C49.6923 257.883 53.4747 263.903 53.4747 263.903C56.2178 264.792 59.3169 265.56 63.0055 266.084H63.0149C69.0069 266.955 76.5621 267.189 86.6922 266.253C103.067 264.736 108.647 260.533 108.647 260.533C111.493 254.55 108.422 249.588 108.422 249.588Z" fill="#E9E9E9"/>
<mask id="mask1_519_436" style="mask-type:luminance" maskUnits="userSpaceOnUse" x="49" y="163" width="61" height="104">
<path fill-rule="evenodd" clip-rule="evenodd" d="M108.422 249.588C108.881 247.36 109.377 244.71 109.808 241.948C110.969 234.515 98.6571 168.566 98.6568 168.566C96.7656 167.012 91.7379 165.037 88.6951 163.922C87.2441 163.389 86.2423 163.061 86.2423 163.061L86.4202 164.98C86.4202 164.98 87.1223 167.349 80.8683 168.426C74.6238 169.512 70.8039 163.492 70.8039 163.492C69.9145 163.698 69.0626 163.951 68.248 164.213V164.222C60.8144 166.637 56.8448 170.747 56.8448 170.747C56.8448 170.747 56.0114 178.715 54.9161 189.407C52.7346 210.725 49.4859 242.875 49.6359 244.27C49.7667 245.44 51.7983 249.241 53.5585 252.35C53.5584 252.35 53.5586 252.35 53.5585 252.35C49.6923 257.883 53.4747 263.903 53.4747 263.903C56.2178 264.792 59.3169 265.56 63.0055 266.084H63.0149C69.0069 266.955 76.5621 267.189 86.6922 266.253C103.067 264.736 108.647 260.533 108.647 260.533C111.493 254.55 108.422 249.588 108.422 249.588Z" fill="white"/>
</mask>
<g mask="url(#mask1_519_436)">
<path d="M108.422 249.588L109.392 249.83L109.397 249.81L109.401 249.789L108.422 249.588ZM98.6567 168.566L98.0218 169.339L98.2985 169.566H98.6567V168.566ZM88.695 163.922L88.3499 164.861H88.3511L88.695 163.922ZM86.2422 163.061L86.5531 162.111L85.1059 161.637L85.2464 163.153L86.2422 163.061ZM86.4201 164.98L85.4244 165.073L85.4334 165.171L85.4613 165.265L86.4201 164.98ZM80.8682 168.426L80.6986 167.44L80.6969 167.441L80.8682 168.426ZM70.8038 163.492L71.6481 162.956L71.2684 162.358L70.5781 162.518L70.8038 163.492ZM68.2479 164.213L67.9418 163.261L67.2479 163.484V164.213H68.2479ZM68.2479 164.222L68.5569 165.173L69.2479 164.948V164.222H68.2479ZM56.8447 170.747L56.1254 170.053L55.886 170.301L55.8501 170.643L56.8447 170.747ZM49.6358 244.27L48.6415 244.377L48.642 244.381L49.6358 244.27ZM53.5584 252.35L52.6882 252.843L52.6927 252.85L53.5584 252.35ZM53.5584 252.35L54.3783 252.923L54.7431 252.401L54.4243 251.85L53.5584 252.35ZM53.4746 263.903L52.6279 264.435L52.821 264.742L53.1662 264.854L53.4746 263.903ZM63.0054 266.084L62.8646 267.074L62.9347 267.084H63.0054V266.084ZM63.0148 266.084L63.1585 265.095L63.087 265.084H63.0148V266.084ZM108.647 260.533L109.249 261.331L109.444 261.184L109.55 260.962L108.647 260.533ZM108.422 249.588L109.273 249.061L108.792 248.285L107.975 248.693L108.422 249.588ZM108.422 249.588L107.452 249.345L106.881 251.629L108.921 250.454L108.422 249.588ZM108.82 241.794C108.392 244.538 107.899 247.171 107.442 249.386L109.401 249.789C109.863 247.548 110.362 244.883 110.796 242.102L108.82 241.794ZM98.6567 169.566C98.0187 169.336 97.6741 168.752 97.674 168.752C97.6741 168.752 97.6742 168.752 97.6743 168.753C97.6747 168.755 97.6752 168.758 97.676 168.762C97.6774 168.77 97.6796 168.782 97.6826 168.797C97.6885 168.829 97.6973 168.876 97.7089 168.939C97.7321 169.063 97.7666 169.249 97.8115 169.491C97.9013 169.975 98.0329 170.687 98.2 171.595C98.5343 173.412 99.0105 176.016 99.5783 179.164C100.714 185.461 102.216 193.933 103.682 202.636C105.147 211.34 106.576 220.269 107.564 227.482C108.059 231.089 108.442 234.258 108.666 236.75C108.894 239.288 108.943 241.007 108.82 241.794L110.796 242.102C110.963 241.03 110.881 239.063 110.658 236.571C110.43 234.034 110.042 230.831 109.546 227.21C108.553 219.967 107.121 211.015 105.654 202.303C104.187 193.59 102.683 185.11 101.547 178.809C100.978 175.659 100.502 173.052 100.167 171.233C99.9997 170.324 99.868 169.612 99.778 169.126C99.733 168.884 99.6984 168.698 99.6751 168.573C99.6635 168.51 99.6546 168.462 99.6487 168.431C99.6457 168.415 99.6434 168.403 99.6419 168.395C99.6412 168.39 99.6406 168.387 99.6402 168.385C99.64 168.384 99.6398 168.383 99.6396 168.382C99.6394 168.381 99.2946 167.796 98.6567 167.566V169.566ZM88.3511 164.861C89.8634 165.415 91.8583 166.179 93.7037 166.994C95.5832 167.824 97.1946 168.659 98.0218 169.339L99.2916 167.794C98.2275 166.919 96.3795 165.989 94.5117 165.164C92.6098 164.325 90.5694 163.544 89.0388 162.983L88.3511 164.861ZM86.2422 163.061C85.9312 164.011 85.9312 164.011 85.9312 164.011C85.9313 164.011 85.9314 164.012 85.9316 164.012C85.9319 164.012 85.9325 164.012 85.9333 164.012C85.935 164.013 85.9376 164.014 85.9412 164.015C85.9484 164.017 85.9593 164.021 85.9738 164.026C86.003 164.035 86.0466 164.05 86.1037 164.069C86.2179 164.107 86.3859 164.164 86.599 164.237C87.0254 164.384 87.632 164.597 88.3499 164.861L89.0401 162.984C88.307 162.714 87.6872 162.497 87.2499 162.346C87.0312 162.271 86.8581 162.212 86.7391 162.172C86.6796 162.152 86.6336 162.137 86.6023 162.127C86.5866 162.122 86.5746 162.118 86.5663 162.115C86.5622 162.114 86.559 162.113 86.5568 162.112C86.5557 162.111 86.5549 162.111 86.5543 162.111C86.5545 162.111 86.5539 162.111 86.5543 162.111C86.5542 162.111 86.5531 162.111 86.5531 162.111C86.5531 162.111 86.5531 162.111 86.2422 163.061ZM87.4158 164.888L87.2379 162.969L85.2464 163.153L85.4244 165.073L87.4158 164.888ZM81.0379 169.411C84.253 168.858 85.9253 167.937 86.7573 166.94C87.1837 166.429 87.3669 165.922 87.4233 165.5C87.4508 165.294 87.4469 165.117 87.4327 164.98C87.4255 164.912 87.4158 164.854 87.406 164.806C87.4012 164.782 87.3963 164.761 87.3916 164.743C87.3893 164.734 87.3871 164.725 87.3849 164.718C87.3839 164.714 87.3828 164.71 87.3818 164.706C87.3813 164.705 87.3808 164.703 87.3803 164.701C87.3801 164.7 87.3797 164.699 87.3796 164.699C87.3792 164.697 87.3789 164.696 86.4201 164.98C85.4613 165.265 85.461 165.263 85.4606 165.262C85.4605 165.262 85.4602 165.261 85.46 165.26C85.4595 165.258 85.4591 165.257 85.4587 165.255C85.4578 165.252 85.457 165.25 85.4563 165.247C85.4548 165.241 85.4534 165.236 85.4522 165.232C85.4499 165.222 85.4482 165.215 85.4469 165.208C85.4444 165.196 85.4436 165.19 85.4435 165.188C85.4432 165.185 85.4453 165.202 85.4409 165.235C85.4335 165.29 85.4014 165.443 85.2215 165.659C84.841 166.115 83.7375 166.917 80.6986 167.44L81.0379 169.411ZM70.8038 163.492C69.9594 164.028 69.9596 164.028 69.9599 164.028C69.96 164.028 69.9602 164.029 69.9604 164.029C69.9608 164.03 69.9613 164.031 69.9618 164.031C69.9629 164.033 69.9642 164.035 69.9657 164.037C69.9687 164.042 69.9727 164.048 69.9777 164.056C69.9876 164.071 70.0012 164.092 70.0186 164.118C70.0534 164.169 70.1032 164.242 70.1677 164.331C70.2966 164.511 70.4848 164.761 70.7296 165.055C71.2178 165.642 71.9395 166.413 72.8749 167.151C74.7424 168.625 77.5402 170.02 81.0396 169.411L80.6969 167.441C77.9516 167.918 75.7172 166.846 74.1137 165.581C73.3136 164.95 72.69 164.284 72.2668 163.776C72.0559 163.522 71.8969 163.311 71.7925 163.165C71.7403 163.093 71.702 163.037 71.6778 163.001C71.6657 162.983 71.6571 162.97 71.6522 162.962C71.6497 162.958 71.6481 162.956 71.6474 162.955C71.6471 162.954 71.647 162.954 71.6471 162.954C71.6472 162.954 71.6473 162.955 71.6474 162.955C71.6476 162.956 71.6481 162.956 70.8038 163.492ZM68.554 165.165C69.3547 164.907 70.1776 164.663 71.0295 164.466L70.5781 162.518C69.6512 162.732 68.7703 162.994 67.9418 163.261L68.554 165.165ZM69.2479 164.222V164.213H67.2479V164.222H69.2479ZM56.8447 170.747C57.564 171.442 57.5638 171.442 57.5636 171.443C57.5637 171.443 57.5635 171.443 57.5636 171.443C57.5643 171.442 57.5658 171.44 57.5685 171.438C57.5738 171.432 57.583 171.423 57.5959 171.41C57.6218 171.384 57.6629 171.344 57.7191 171.291C57.8315 171.184 58.0041 171.024 58.2359 170.823C58.6996 170.422 59.3996 169.855 60.3276 169.213C62.1844 167.928 64.9486 166.346 68.5569 165.173L67.9388 163.271C64.1136 164.514 61.1761 166.194 59.1897 167.568C58.1962 168.256 57.4391 168.867 56.9263 169.312C56.6698 169.534 56.4742 169.714 56.3404 169.842C56.2736 169.905 56.2221 169.956 56.1862 169.991C56.1683 170.009 56.1543 170.023 56.1441 170.034C56.139 170.039 56.1349 170.043 56.1318 170.046C56.1303 170.048 56.129 170.049 56.1279 170.05C56.1273 170.051 56.1269 170.051 56.1265 170.052C56.1266 170.052 56.1263 170.052 56.1265 170.052C56.1262 170.052 56.1254 170.053 56.8447 170.747ZM55.9108 189.509C56.4584 184.163 56.9405 179.499 57.2857 176.171C57.4584 174.507 57.5967 173.177 57.692 172.263C57.7396 171.806 57.7764 171.453 57.8013 171.215C57.8138 171.095 57.8233 171.004 57.8296 170.943C57.8328 170.913 57.8352 170.89 57.8368 170.875C57.8376 170.867 57.8382 170.861 57.8387 170.857C57.8389 170.855 57.839 170.854 57.8391 170.853C57.8392 170.852 57.8393 170.851 56.8447 170.747C55.8501 170.643 55.8501 170.643 55.8501 170.643C55.85 170.643 55.85 170.644 55.85 170.645C55.8499 170.646 55.8497 170.647 55.8495 170.649C55.8491 170.653 55.8485 170.659 55.8477 170.667C55.8461 170.682 55.8437 170.705 55.8405 170.736C55.8341 170.797 55.8246 170.887 55.8121 171.007C55.7872 171.246 55.7504 171.599 55.7027 172.056C55.6075 172.97 55.4691 174.3 55.2964 175.964C54.9511 179.293 54.4689 183.958 53.9212 189.305L55.9108 189.509ZM50.63 244.163C50.6309 244.172 50.6277 244.053 50.6451 243.709C50.6606 243.403 50.6882 242.985 50.7274 242.461C50.8055 241.414 50.9281 239.966 51.0868 238.196C51.404 234.657 51.8638 229.845 52.3968 224.407C53.4627 213.533 54.8201 200.167 55.9108 189.509L53.9212 189.305C52.8304 199.964 51.4727 213.333 50.4064 224.212C49.8732 229.651 49.4127 234.47 49.0948 238.018C48.9358 239.791 48.8122 241.25 48.7329 242.312C48.6933 242.842 48.6644 243.279 48.6477 243.608C48.6329 243.898 48.6218 244.194 48.6415 244.377L50.63 244.163ZM54.4286 251.857C53.5517 250.309 52.6133 248.598 51.8801 247.135C51.513 246.403 51.2035 245.744 50.98 245.206C50.7428 244.634 50.6448 244.295 50.6296 244.159L48.642 244.381C48.6922 244.83 48.8972 245.405 49.1327 245.972C49.3819 246.573 49.7148 247.278 50.0921 248.031C50.8474 249.538 51.8049 251.283 52.6882 252.843L54.4286 251.857ZM54.4243 251.85C54.4264 251.853 54.428 251.856 54.429 251.858C54.4298 251.859 54.4306 251.861 54.4304 251.86C54.4302 251.859 54.4295 251.858 54.429 251.858C54.428 251.856 54.4262 251.853 54.4241 251.849L52.6927 252.85C52.6906 252.847 52.689 252.844 52.688 252.842C52.6872 252.841 52.6864 252.839 52.6866 252.84C52.6868 252.841 52.6875 252.842 52.688 252.842C52.689 252.844 52.6908 252.847 52.6929 252.851L54.4243 251.85ZM53.4746 263.903C54.3214 263.371 54.3216 263.371 54.3218 263.371C54.3218 263.372 54.322 263.372 54.3221 263.372C54.3223 263.372 54.3224 263.373 54.3225 263.373C54.3228 263.374 54.3227 263.373 54.3225 263.373C54.3219 263.372 54.3203 263.369 54.318 263.365C54.3135 263.358 54.3056 263.345 54.2948 263.326C54.2732 263.29 54.2397 263.232 54.1972 263.154C54.112 262.998 53.9909 262.764 53.8553 262.464C53.5833 261.862 53.2582 261.007 53.0454 259.995C52.6204 257.976 52.6508 255.395 54.3783 252.923L52.7389 251.777C50.6002 254.838 50.5887 258.034 51.0882 260.407C51.3377 261.593 51.7165 262.588 52.0328 263.288C52.1915 263.639 52.3356 263.918 52.4422 264.113C52.4955 264.211 52.5395 264.287 52.5714 264.341C52.5874 264.368 52.6003 264.39 52.6098 264.406C52.6146 264.413 52.6185 264.42 52.6215 264.425C52.623 264.427 52.6243 264.429 52.6254 264.431C52.6259 264.432 52.6264 264.432 52.6268 264.433C52.627 264.433 52.6273 264.434 52.6274 264.434C52.6277 264.434 52.6279 264.435 53.4746 263.903ZM63.1461 265.094C59.5171 264.578 56.4741 263.824 53.7831 262.952L53.1662 264.854C55.9614 265.761 59.1166 266.542 62.8646 267.074L63.1461 265.094ZM63.0148 265.084H63.0054V267.084H63.0148V265.084ZM86.6001 265.257C76.5299 266.188 69.0559 265.951 63.1585 265.095L62.871 267.074C68.9576 267.958 76.594 268.19 86.7841 267.249L86.6001 265.257ZM108.647 260.533C108.045 259.734 108.046 259.734 108.046 259.733C108.046 259.732 108.048 259.732 108.048 259.732C108.049 259.731 108.049 259.731 108.049 259.731C108.049 259.731 108.047 259.732 108.044 259.734C108.038 259.739 108.027 259.747 108.01 259.759C107.975 259.783 107.918 259.821 107.837 259.873C107.674 259.978 107.414 260.135 107.047 260.332C106.312 260.726 105.148 261.279 103.471 261.883C100.118 263.092 94.7134 264.506 86.6001 265.257L86.7841 267.249C95.0455 266.483 100.619 265.037 104.149 263.765C105.914 263.129 107.168 262.536 107.992 262.094C108.403 261.874 108.707 261.691 108.913 261.559C109.017 261.493 109.095 261.44 109.151 261.402C109.178 261.382 109.2 261.367 109.217 261.355C109.225 261.349 109.231 261.344 109.237 261.34C109.239 261.338 109.242 261.336 109.244 261.335C109.245 261.334 109.246 261.334 109.246 261.333C109.247 261.333 109.247 261.332 109.248 261.332C109.248 261.332 109.249 261.331 108.647 260.533ZM108.422 249.588C107.572 250.114 107.572 250.113 107.571 250.113C107.571 250.113 107.571 250.113 107.571 250.112C107.57 250.111 107.57 250.111 107.57 250.111C107.57 250.111 107.571 250.113 107.573 250.115C107.576 250.12 107.582 250.13 107.59 250.144C107.606 250.173 107.632 250.219 107.666 250.282C107.733 250.409 107.83 250.603 107.941 250.856C108.162 251.364 108.433 252.105 108.623 253.019C109.001 254.844 109.054 257.35 107.744 260.103L109.55 260.962C111.086 257.733 111.027 254.766 110.581 252.614C110.359 251.54 110.04 250.667 109.774 250.057C109.641 249.752 109.521 249.511 109.432 249.343C109.387 249.259 109.35 249.193 109.322 249.145C109.309 249.122 109.298 249.103 109.289 249.089C109.285 249.082 109.282 249.076 109.279 249.071C109.277 249.069 109.276 249.067 109.275 249.066C109.275 249.065 109.274 249.064 109.274 249.063L109.273 249.061C109.273 249.061 109.273 249.061 108.422 249.588ZM108.921 250.454C108.913 250.459 108.905 250.464 108.896 250.468C108.892 250.47 108.888 250.473 108.883 250.475C108.881 250.476 108.879 250.477 108.876 250.479C108.875 250.479 108.874 250.48 108.873 250.48C108.872 250.481 108.872 250.481 108.871 250.481C108.871 250.481 108.871 250.481 108.87 250.482C108.87 250.482 108.869 250.482 108.422 249.588C107.975 248.693 107.975 248.693 107.975 248.693C107.974 248.694 107.974 248.694 107.974 248.694L107.972 248.695C107.97 248.696 107.969 248.696 107.968 248.697C107.966 248.698 107.964 248.699 107.961 248.7C107.957 248.703 107.952 248.705 107.948 248.707C107.939 248.712 107.931 248.717 107.923 248.721L108.921 250.454ZM107.452 249.345C107.449 249.355 107.447 249.363 107.446 249.369C107.445 249.372 107.445 249.374 107.445 249.376C107.444 249.377 107.444 249.377 107.444 249.378C107.444 249.379 107.447 249.364 107.452 249.345L109.392 249.83C109.394 249.821 109.396 249.813 109.398 249.807C109.398 249.804 109.399 249.801 109.399 249.8C109.399 249.799 109.4 249.798 109.4 249.798C109.4 249.798 109.4 249.798 109.4 249.797C109.4 249.796 109.397 249.812 109.392 249.83L107.452 249.345Z" fill="#263238"/>
</g>
<path d="M94.7276 197.058C94.7573 196.991 94.7928 196.914 94.8322 196.828C95.005 196.452 95.2519 195.914 95.4045 195.381C95.4993 195.05 95.5684 194.688 95.5552 194.337C95.5418 193.981 95.4421 193.607 95.1698 193.3C94.9797 193.086 94.7271 192.993 94.4939 192.961C94.2638 192.929 94.0179 192.95 93.7809 192.994C93.3066 193.081 92.7597 193.28 92.2285 193.505C91.6918 193.733 91.1415 194 90.6575 194.237C90.6195 194.256 90.582 194.274 90.5451 194.292C90.1012 194.51 89.7315 194.691 89.4684 194.799L89.4654 194.8C88.9514 195.014 88.0094 195.12 87.1006 195.127C86.6575 195.13 86.2472 195.109 85.9335 195.073C85.7758 195.055 85.6518 195.033 85.5643 195.012C85.5633 195.012 85.5623 195.012 85.5613 195.011C85.5563 194.987 85.5512 194.958 85.5464 194.923C85.5254 194.767 85.52 194.56 85.5259 194.333C85.5362 193.933 85.5791 193.534 85.5984 193.358L86.3358 191.26L86.5422 190.673L85.9244 190.598C85.6246 190.561 83.839 190.366 82.2618 190.609H82.2608C81.767 190.686 81.2199 190.91 80.6807 191.191C80.1346 191.476 79.5634 191.836 79.0149 192.212C78.0579 192.869 77.1435 193.594 76.5252 194.084C76.4355 194.155 76.3521 194.221 76.2757 194.281C75.6689 194.76 74.5408 195.628 73.5618 196.378C73.0729 196.753 72.622 197.098 72.2933 197.349L71.9026 197.648L71.7957 197.729L71.7679 197.751L71.7608 197.756L71.759 197.757L71.7585 197.758L71.4927 197.961L71.5783 198.284L74.0984 207.785L74.1971 208.157H74.5817H74.5829H74.5845H74.5858H74.5874H74.5893H74.5914H74.5926H74.5938H74.5951H74.5964H74.5979H74.5993H74.6009H74.6025H74.6042H74.6059H74.6077H74.6096H74.6115H74.6135H74.6156H74.6177H74.6199H74.6221H74.6244H74.6268H74.6292H74.6317H74.6343H74.6369H74.6395H74.6423H74.6451H74.6479H74.6508H74.6538H74.6569H74.6599H74.6631H74.6663H74.6696H74.6729H74.6763H74.6798H74.6833H74.6869H74.6905H74.6942H74.6979H74.7017H74.7056H74.7095H74.7135H74.7175H74.7216H74.7257H74.7299H74.7342H74.7385H74.7429H74.7473H74.7518H74.7563H74.7609H74.7656H74.7703H74.775H74.7798H74.7847H74.7896H74.7946H74.7997H74.8047H74.8099H74.8151H74.8203H74.8256H74.831H74.8364H74.8418H74.8474H74.8529H74.8585H74.8642H74.8699H74.8757H74.8815H74.8874H74.8933H74.8993H74.9054H74.9114H74.9176H74.9238H74.93H74.9363H74.9426H74.949H74.9554H74.9619H74.9685H74.975H74.9817H74.9883H74.9951H75.0019H75.0087H75.0156H75.0225H75.0294H75.0365H75.0435H75.0506H75.0578H75.065H75.0723H75.0796H75.0869H75.0943H75.1017H75.1092H75.1168H75.1243H75.132H75.1396H75.1473H75.1551H75.1629H75.1708H75.1787H75.1866H75.1946H75.2026H75.2107H75.2188H75.2269H75.2351H75.2434H75.2517H75.26H75.2684H75.2768H75.2852H75.2937H75.3023H75.3109H75.3195H75.3282H75.3369H75.3456H75.3544H75.3632H75.3721H75.381H75.39H75.399H75.408H75.4171H75.4262H75.4354H75.4446H75.4538H75.4631H75.4724H75.4817H75.4911H75.5005H75.51H75.5195H75.529H75.5386H75.5482H75.5579H75.5676H75.5773H75.5871H75.5969H75.6067H75.6166H75.6265H75.6364H75.6464H75.6564H75.6665H75.6766H75.6867H75.6969H75.707H75.7173H75.7275H75.7378H75.7482H75.7585H75.7689H75.7794H75.7898H75.8003H75.8109H75.8214H75.832H75.8427H75.8533H75.864H75.8748H75.8855H75.8963H75.9071H75.918H75.9289H75.9398H75.9508H75.9618H75.9728H75.9838H75.9949H76.006H76.0171H76.0283H76.0395H76.0507H76.062H76.0732H76.0846H76.0959H76.1073H76.1187H76.1301H76.1415H76.153H76.1645H76.1761H76.1876H76.1992H76.2109H76.2225H76.2342H76.2459H76.2576H76.2694H76.2811H76.2929H76.3048H76.3166H76.3285H76.3404H76.3524H76.3643H76.3763H76.3883H76.4004H76.4124H76.4245H76.4366H76.4487H76.4609H76.4731H76.4853H76.4975H76.5097H76.522H76.5343H76.5466H76.559H76.5713H76.5837H76.5961H76.6085H76.621H76.6335H76.646H76.6585H76.671H76.6836H76.6961H76.7087H76.7213H76.734H76.7466H76.7593H76.772H76.7847H76.7975H76.8102H76.823H76.8358H76.8486H76.8614H76.8743H76.8871H76.9H76.9129H76.9258H76.9388H76.9517H76.9647H76.9777H76.9907H77.0037H77.0167H77.0298H77.0429H77.0559H77.069H77.0822H77.0953H77.1084H77.1216H77.1348H77.148H77.1612H77.1744H77.1876H77.2009H77.2141H77.2274H77.2407H77.254H77.2673H77.2807H77.294H77.3074H77.3207H77.3341H77.3475H77.3609H77.3743H77.3878H77.4012H77.4147H77.4281H77.4416H77.4551H77.4686H77.4821H77.4956H77.5091H77.5227H77.5362H77.5498H77.5633H77.5769H77.5905H77.6041H77.6177H77.6313H77.6449H77.6586H77.6722H77.6859H77.6995H77.7132H77.7269H77.7405H77.7542H77.7679H77.7816H77.7953H77.809H77.8228H77.8365H77.8502H77.8639H77.8777H77.8914H77.9052H77.919H77.9327H77.9465H77.9603H77.974H77.9878H78.0016H78.0154H78.0292H78.043H78.0568H78.0706H78.0844H78.0982H78.1121H78.1259H78.1397H78.1535H78.1674H78.1812H78.195H78.2088H78.2227H78.2365H78.2504H78.2642H78.278H78.2919H78.3057H78.3196H78.3334H78.3472H78.3611H78.3749H78.3888H78.4026H78.4165H78.4303H78.4441H78.458H78.4718H78.4856H78.4995H78.5133H78.5271H78.541H78.5548H78.5686H78.5824H78.5962H78.6101H78.6239H78.6377H78.6515H78.6653H78.6791H78.6929H78.7067H78.7204H78.7342H78.748H78.7618H78.7755H78.7893H78.803H78.8168H78.8305H78.8443H78.858H78.8717H78.8854H78.8991H78.9129H78.9266H78.9402H78.9539H78.9676H78.9813H78.9949H79.0086H79.0222H79.0359H79.0495H79.0631H79.0767H79.0903H79.1039H79.1175H79.1311H79.1447H79.1582H79.1718H79.1853H79.1988H79.2123H79.2258H79.2393H79.2528H79.2663H79.2798H79.2932H79.3067H79.3201H79.3335H79.3469H79.3603H79.3737H79.387H79.4004H79.4137H79.4271H79.4404H79.4537H79.467H79.4802H79.4935H79.5067H79.52H79.5332H79.5464H79.5596H79.5728H79.5859H79.5991H79.6122H79.6253H79.6384H79.6515H79.6646H79.6776H79.6906H79.7037H79.7167H79.7296H79.7426H79.7556H79.7641C79.8334 208.157 79.9274 208.157 80.0264 208.148C81.2152 208.123 82.9404 207.919 84.5336 207.628C85.3371 207.482 86.1156 207.312 86.7827 207.129C87.4394 206.949 88.0237 206.746 88.4159 206.526L88.4173 206.525C89.1566 206.106 90.2544 205.296 91.2305 204.419C91.7207 203.979 92.1894 203.514 92.5724 203.064C92.948 202.622 93.2697 202.162 93.4296 201.732C93.7052 200.999 93.9527 199.987 94.1687 199.093C94.178 199.055 94.1872 199.017 94.1964 198.979C94.2957 198.568 94.3885 198.183 94.4765 197.853C94.5747 197.484 94.6585 197.214 94.7276 197.058ZM85.582 195.085C85.5834 195.088 85.584 195.089 85.584 195.09C85.5839 195.09 85.5832 195.088 85.582 195.085Z" fill="white"/>
<path d="M71.7585 197.758L71.759 197.757L71.7608 197.756L71.7679 197.751L71.7957 197.729L71.9026 197.648L72.2933 197.349C72.622 197.098 73.0729 196.753 73.5618 196.378C74.5408 195.628 75.6689 194.76 76.2757 194.281C76.3521 194.221 76.4355 194.155 76.5252 194.084C77.1435 193.594 78.0579 192.869 79.0149 192.212C79.5634 191.836 80.1346 191.476 80.6807 191.191C81.2199 190.91 81.767 190.686 82.2608 190.609H82.2618C83.839 190.366 85.6246 190.561 85.9244 190.598L86.5422 190.673L86.3358 191.26L85.5984 193.358C85.5791 193.534 85.5362 193.933 85.5259 194.333C85.52 194.56 85.5254 194.767 85.5464 194.923C85.5512 194.958 85.5563 194.987 85.5613 195.011C85.5623 195.012 85.5633 195.012 85.5643 195.012C85.6518 195.033 85.7758 195.055 85.9335 195.073C86.2472 195.109 86.6575 195.13 87.1006 195.127C88.0094 195.12 88.9514 195.014 89.4654 194.8L89.4684 194.799C89.7315 194.691 90.1012 194.51 90.5451 194.292C90.582 194.274 90.6195 194.256 90.6575 194.237C91.1415 194 91.6918 193.733 92.2285 193.505C92.7597 193.28 93.3066 193.081 93.7809 192.994C94.0179 192.95 94.2638 192.929 94.4939 192.961C94.7271 192.993 94.9797 193.086 95.1698 193.3C95.4421 193.607 95.5418 193.981 95.5552 194.337C95.5684 194.688 95.4993 195.05 95.4045 195.381C95.2519 195.914 95.005 196.452 94.8322 196.828C94.7928 196.914 94.7573 196.991 94.7276 197.058C94.6585 197.214 94.5747 197.484 94.4765 197.853C94.3885 198.183 94.2957 198.568 94.1964 198.979C94.1872 199.017 94.178 199.055 94.1687 199.093C93.9527 199.987 93.7052 200.999 93.4296 201.732C93.2697 202.162 92.948 202.622 92.5724 203.064C92.1894 203.514 91.7207 203.979 91.2305 204.419C90.2544 205.296 89.1566 206.106 88.4173 206.525L88.4159 206.526C88.0237 206.746 87.4394 206.949 86.7827 207.129C86.1156 207.312 85.3371 207.482 84.5336 207.628C82.9404 207.919 81.2152 208.123 80.0264 208.148C79.9274 208.157 79.8334 208.157 79.7641 208.157H79.7556H79.7426H79.7296H79.7167H79.7037H79.6906H79.6776H79.6646H79.6515H79.6384H79.6253H79.6122H79.5991H79.5859H79.5728H79.5596H79.5464H79.5332H79.52H79.5067H79.4935H79.4802H79.467H79.4537H79.4404H79.4271H79.4137H79.4004H79.387H79.3737H79.3603H79.3469H79.3335H79.3201H79.3067H79.2932H79.2798H79.2663H79.2528H79.2393H79.2258H79.2123H79.1988H79.1853H79.1718H79.1582H79.1447H79.1311H79.1175H79.1039H79.0903H79.0767H79.0631H79.0495H79.0359H79.0222H79.0086H78.9949H78.9813H78.9676H78.9539H78.9402H78.9266H78.9129H78.8991H78.8854H78.8717H78.858H78.8443H78.8305H78.8168H78.803H78.7893H78.7755H78.7618H78.748H78.7342H78.7204H78.7067H78.6929H78.6791H78.6653H78.6515H78.6377H78.6239H78.6101H78.5962H78.5824H78.5686H78.5548H78.541H78.5271H78.5133H78.4995H78.4856H78.4718H78.458H78.4441H78.4303H78.4165H78.4026H78.3888H78.3749H78.3611H78.3472H78.3334H78.3196H78.3057H78.2919H78.278H78.2642H78.2504H78.2365H78.2227H78.2088H78.195H78.1812H78.1674H78.1535H78.1397H78.1259H78.1121H78.0982H78.0844H78.0706H78.0568H78.043H78.0292H78.0154H78.0016H77.9878H77.974H77.9603H77.9465H77.9327H77.919H77.9052H77.8914H77.8777H77.8639H77.8502H77.8365H77.8228H77.809H77.7953H77.7816H77.7679H77.7542H77.7405H77.7269H77.7132H77.6995H77.6859H77.6722H77.6586H77.6449H77.6313H77.6177H77.6041H77.5905H77.5769H77.5633H77.5498H77.5362H77.5227H77.5091H77.4956H77.4821H77.4686H77.4551H77.4416H77.4281H77.4147H77.4012H77.3878H77.3743H77.3609H77.3475H77.3341H77.3207H77.3074H77.294H77.2807H77.2673H77.254H77.2407H77.2274H77.2141H77.2009H77.1876H77.1744H77.1612H77.148H77.1348H77.1216H77.1084H77.0953H77.0822H77.069H77.0559H77.0429H77.0298H77.0167H77.0037H76.9907H76.9777H76.9647H76.9517H76.9388H76.9258H76.9129H76.9H76.8871H76.8743H76.8614H76.8486H76.8358H76.823H76.8102H76.7975H76.7847H76.772H76.7593H76.7466H76.734H76.7213H76.7087H76.6961H76.6836H76.671H76.6585H76.646H76.6335H76.621H76.6085H76.5961H76.5837H76.5713H76.559H76.5466H76.5343H76.522H76.5097H76.4975H76.4853H76.4731H76.4609H76.4487H76.4366H76.4245H76.4124H76.4004H76.3883H76.3763H76.3643H76.3524H76.3404H76.3285H76.3166H76.3048H76.2929H76.2811H76.2694H76.2576H76.2459H76.2342H76.2225H76.2109H76.1992H76.1876H76.1761H76.1645H76.153H76.1415H76.1301H76.1187H76.1073H76.0959H76.0846H76.0732H76.062H76.0507H76.0395H76.0283H76.0171H76.006H75.9949H75.9838H75.9728H75.9618H75.9508H75.9398H75.9289H75.918H75.9071H75.8963H75.8855H75.8748H75.864H75.8533H75.8427H75.832H75.8214H75.8109H75.8003H75.7898H75.7794H75.7689H75.7585H75.7482H75.7378H75.7275H75.7173H75.707H75.6969H75.6867H75.6766H75.6665H75.6564H75.6464H75.6364H75.6265H75.6166H75.6067H75.5969H75.5871H75.5773H75.5676H75.5579H75.5482H75.5386H75.529H75.5195H75.51H75.5005H75.4911H75.4817H75.4724H75.4631H75.4538H75.4446H75.4354H75.4262H75.4171H75.408H75.399H75.39H75.381H75.3721H75.3632H75.3544H75.3456H75.3369H75.3282H75.3195H75.3109H75.3023H75.2937H75.2852H75.2768H75.2684H75.26H75.2517H75.2434H75.2351H75.2269H75.2188H75.2107H75.2026H75.1946H75.1866H75.1787H75.1708H75.1629H75.1551H75.1473H75.1396H75.132H75.1243H75.1168H75.1092H75.1017H75.0943H75.0869H75.0796H75.0723H75.065H75.0578H75.0506H75.0435H75.0365H75.0294H75.0225H75.0156H75.0087H75.0019H74.9951H74.9883H74.9817H74.975H74.9685H74.9619H74.9554H74.949H74.9426H74.9363H74.93H74.9238H74.9176H74.9114H74.9054H74.8993H74.8933H74.8874H74.8815H74.8757H74.8699H74.8642H74.8585H74.8529H74.8474H74.8418H74.8364H74.831H74.8256H74.8203H74.8151H74.8099H74.8047H74.7997H74.7946H74.7896H74.7847H74.7798H74.775H74.7703H74.7656H74.7609H74.7563H74.7518H74.7473H74.7429H74.7385H74.7342H74.7299H74.7257H74.7216H74.7175H74.7135H74.7095H74.7056H74.7017H74.6979H74.6942H74.6905H74.6869H74.6833H74.6798H74.6763H74.6729H74.6696H74.6663H74.6631H74.6599H74.6569H74.6538H74.6508H74.6479H74.6451H74.6423H74.6395H74.6369H74.6343H74.6317H74.6292H74.6268H74.6244H74.6221H74.6199H74.6177H74.6156H74.6135H74.6115H74.6096H74.6077H74.6059H74.6042H74.6025H74.6009H74.5993H74.5979H74.5964H74.5951H74.5938H74.5926H74.5914H74.5893H74.5874H74.5858H74.5845H74.5829H74.5817M71.7585 197.758L72.0616 198.155M71.7585 197.758L71.4927 197.961L71.5783 198.284L74.0984 207.785L74.1971 208.157H74.5817M74.5817 208.157V207.657M85.582 195.085C85.5834 195.088 85.584 195.089 85.584 195.09C85.5839 195.09 85.5832 195.088 85.582 195.085Z" stroke="#263238"/>
<path d="M88.4151 206.526L88.4165 206.525C89.1559 206.106 90.2537 205.296 91.2298 204.419C91.72 203.979 92.1887 203.514 92.5716 203.064C92.9473 202.622 93.269 202.162 93.4289 201.732C93.7045 200.999 93.952 199.987 94.168 199.093C94.1773 199.055 94.1866 199.016 94.1958 198.978C94.295 198.567 94.3878 198.183 94.4757 197.853C94.5739 197.483 94.6578 197.214 94.7269 197.058C94.7565 196.991 94.792 196.914 94.8312 196.828C95.0041 196.452 95.2511 195.914 95.4038 195.381C95.4986 195.05 95.5677 194.688 95.5545 194.337C95.5411 193.981 95.4414 193.607 95.1692 193.3C94.979 193.086 94.7264 192.993 94.4932 192.961C94.2632 192.929 94.0173 192.95 93.7802 192.994C93.306 193.081 92.759 193.28 92.2278 193.505C91.6911 193.733 91.1408 194 90.6568 194.237C90.6187 194.256 90.5811 194.274 90.544 194.292C90.1003 194.51 89.7308 194.691 89.4677 194.798L89.4647 194.8C88.9508 195.014 88.0087 195.12 87.0999 195.126C86.6568 195.13 86.2465 195.109 85.9328 195.073C85.7751 195.054 85.6511 195.033 85.5637 195.012L85.5607 195.011C85.5557 194.987 85.5505 194.958 85.5458 194.923C85.5247 194.766 85.5194 194.559 85.5252 194.333C85.5356 193.933 85.5785 193.534 85.5978 193.358L86.3348 191.261L86.3352 191.26L90.8406 178.545L116.55 184.912L103.327 216.669L78.2041 214.212L80.3525 208.137C81.518 208.086 83.0802 207.893 84.5328 207.628C85.3363 207.481 86.1148 207.311 86.7819 207.128C87.4386 206.948 88.0229 206.746 88.4151 206.526ZM85.5814 195.085C85.5827 195.088 85.5833 195.089 85.5833 195.089C85.5833 195.089 85.5826 195.088 85.5814 195.085Z" fill="#0487FF" stroke="#263238"/>
<path d="M40.5229 215.408C40.5137 215.382 40.5065 215.359 40.501 215.342C40.5555 211.422 41.6095 206.71 43.1812 201.82C44.7603 196.907 46.8516 191.845 48.9411 187.275C51.0302 182.706 53.1142 178.636 54.6761 175.708C55.457 174.244 56.1071 173.066 56.5617 172.255C56.6579 172.083 56.7454 171.928 56.8235 171.789C57.7336 173.74 58.1919 176.322 58.3363 179.193C58.5004 182.456 58.2567 186.033 57.8556 189.36C57.4548 192.685 56.8984 195.749 56.442 197.982C56.2139 199.098 56.0109 200.005 55.8651 200.633C55.7922 200.947 55.7336 201.191 55.6933 201.357C55.6732 201.439 55.6576 201.502 55.6472 201.544L55.6353 201.591L55.6324 201.603L55.6317 201.606C55.6317 201.606 55.6315 201.607 56.1161 201.73L55.6315 201.607L55.416 202.454L56.2558 202.21L72.4661 197.493C74.1508 198.962 74.8366 201.622 75.0662 204.085C75.1833 205.341 75.1782 206.505 75.1434 207.355C75.126 207.78 75.1014 208.125 75.0811 208.363C75.0779 208.402 75.0747 208.437 75.0717 208.47C75.0697 208.471 75.0677 208.472 75.0657 208.473C74.9079 208.557 74.6753 208.68 74.3767 208.836C73.7795 209.148 72.9185 209.594 71.8645 210.128C69.7561 211.196 66.8772 212.614 63.793 214.015C60.7072 215.416 57.4244 216.797 54.5062 217.794C51.5618 218.8 49.0713 219.385 47.5312 219.264C44.3211 219.01 42.5635 217.962 41.6131 217.031C41.1343 216.562 40.8497 216.113 40.6863 215.789C40.6045 215.626 40.553 215.495 40.5229 215.408Z" fill="#E9E9E9" stroke="#263238"/>
<path d="M88.6633 406.416H50.514C48.9411 401.295 50.514 394.103 50.514 394.103C50.514 394.103 62.2714 396.289 66.7115 390.411C68.6488 392.166 81.3459 394.908 84.5299 398.102C87.7234 401.295 88.6633 406.416 88.6633 406.416Z" fill="#263238"/>
<path d="M85.8371 158.618L86.1667 162.153C74.7239 161.93 75.3117 150.131 75.3117 150.131C82.2487 159.829 91.5896 156.979 92.124 156.801C89.7376 158.849 85.8371 158.618 85.8371 158.618Z" fill="#263238"/>
<path d="M225.355 401.388V331.053C225.355 329.828 226.346 328.838 227.571 328.837H329.713C330.937 328.837 331.928 329.828 331.928 331.053V401.388C331.928 402.613 330.938 403.603 329.713 403.603H227.571C226.346 403.603 225.355 402.613 225.355 401.388Z" fill="#0487FF" stroke="#263238"/>
<path d="M225.355 401.388V331.053C225.355 329.828 226.346 328.838 227.571 328.837H288.225V403.603H227.571C226.346 403.603 225.355 402.613 225.355 401.388Z" fill="#CDE7FF" stroke="#263238"/>
<path d="M324.614 348.654H314.771C314.445 348.654 314.18 348.389 314.18 348.063V338.22C314.18 337.894 314.445 337.629 314.771 337.629H324.614C324.94 337.629 325.205 337.894 325.205 338.22V348.063C325.205 348.389 324.94 348.654 324.614 348.654Z" fill="white" stroke="#263238"/>
<path d="M267.09 342.641H242.611C242.364 342.641 242.163 342.441 242.163 342.193V338.078C242.163 337.83 242.363 337.629 242.611 337.629H267.09C267.338 337.629 267.539 337.83 267.539 338.078V342.193C267.539 342.441 267.338 342.641 267.09 342.641Z" fill="white" stroke="#263238"/>
<path d="M273.142 394.425H260.351C258.66 394.425 257.29 393.055 257.29 391.365V378.574C257.29 376.883 258.66 375.513 260.351 375.513H273.142C274.832 375.513 276.202 376.883 276.202 378.574V391.365C276.202 393.055 274.832 394.425 273.142 394.425Z" fill="white" stroke="#263238"/>
<path d="M332.928 401.388V331.053C332.928 329.828 333.918 328.838 335.143 328.837H437.285C438.51 328.837 439.5 329.828 439.5 331.053V401.388C439.5 402.613 438.51 403.603 437.285 403.603H335.143C333.918 403.603 332.928 402.613 332.928 401.388Z" fill="#0487FF" stroke="#263238"/>
<path d="M332.928 401.388V331.053C332.928 329.828 333.918 328.838 335.143 328.837H395.797V403.603H335.143C333.918 403.603 332.928 402.613 332.928 401.388Z" fill="#CDE7FF" stroke="#263238"/>
<path d="M432.186 348.654H422.343C422.017 348.654 421.752 348.389 421.752 348.063V338.22C421.752 337.894 422.017 337.629 422.343 337.629H432.186C432.512 337.629 432.776 337.894 432.776 338.22V348.063C432.776 348.389 432.512 348.654 432.186 348.654Z" fill="white" stroke="#263238"/>
<path d="M374.662 342.641H350.183C349.936 342.641 349.735 342.441 349.735 342.193V338.078C349.735 337.83 349.936 337.629 350.183 337.629H374.662C374.91 337.629 375.111 337.83 375.111 338.078V342.193C375.111 342.441 374.91 342.641 374.662 342.641Z" fill="white" stroke="#263238"/>
<path d="M380.714 394.425H367.923C366.232 394.425 364.862 393.055 364.862 391.365V378.574C364.862 376.883 366.233 375.513 367.923 375.513H380.714C382.404 375.513 383.774 376.883 383.774 378.574V391.365C383.774 393.055 382.404 394.425 380.714 394.425Z" fill="white" stroke="#263238"/>
<path d="M276.19 325.012V254.677C276.19 253.452 277.181 252.462 278.406 252.462H380.547C381.772 252.462 382.763 253.452 382.763 254.677V325.012C382.763 326.237 381.772 327.228 380.547 327.228H278.406C277.181 327.228 276.19 326.237 276.19 325.012Z" fill="#0487FF" stroke="#263238"/>
<path d="M276.19 325.012V254.677C276.19 253.452 277.181 252.462 278.406 252.462H339.06V327.228H278.406C277.181 327.228 276.19 326.237 276.19 325.012Z" fill="#CDE7FF" stroke="#263238"/>
<path d="M375.449 272.278H365.606C365.28 272.278 365.015 272.014 365.015 271.688V261.845C365.015 261.519 365.28 261.254 365.606 261.254H375.449C375.775 261.254 376.039 261.519 376.039 261.845V271.688C376.039 272.014 375.775 272.278 375.449 272.278Z" fill="white" stroke="#263238"/>
<path d="M317.925 266.266H293.446C293.199 266.266 292.998 266.065 292.998 265.817V261.702C292.998 261.455 293.198 261.254 293.446 261.254H317.925C318.173 261.254 318.374 261.455 318.374 261.702V265.817C318.374 266.065 318.173 266.266 317.925 266.266Z" fill="white" stroke="#263238"/>
<path d="M323.977 318.049H311.186C309.495 318.049 308.125 316.679 308.125 314.989V302.198C308.125 300.507 309.495 299.137 311.186 299.137H323.977C325.667 299.137 327.037 300.508 327.037 302.198V314.989C327.037 316.679 325.667 318.049 323.977 318.049Z" fill="white" stroke="#263238"/>
<path d="M231.738 82.6691C236.687 87.6186 236.687 95.6433 231.738 100.593C226.788 105.542 218.763 105.542 213.814 100.593C208.864 95.6433 208.864 87.6186 213.814 82.6691C218.763 77.7197 226.788 77.7197 231.738 82.6691Z" fill="#0487FF" stroke="#263238"/>
<path d="M316.571 84.1726H243.492V88.6468H316.571V84.1726Z" fill="#9BCFFF"/>
<path d="M303.645 94.6125H243.492V99.0867H303.645V94.6125Z" fill="#9BCFFF"/>
<path d="M231.738 129.151C236.687 134.1 236.687 142.125 231.738 147.074C226.788 152.024 218.763 152.024 213.814 147.074C208.864 142.125 208.864 134.1 213.814 129.151C218.763 124.201 226.788 124.201 231.738 129.151Z" fill="#0487FF" stroke="#263238"/>
<path d="M316.571 130.655H243.492V135.129H316.571V130.655Z" fill="#9BCFFF"/>
<path d="M303.645 141.095H243.492V145.569H303.645V141.095Z" fill="#9BCFFF"/>
<path d="M224.814 172.084C231.724 173.205 236.416 179.715 235.295 186.625C234.173 193.534 227.663 198.226 220.754 197.105C213.844 195.983 209.152 189.473 210.273 182.564C211.395 175.655 217.905 170.962 224.814 172.084Z" fill="#0487FF" stroke="#263238"/>
<path d="M316.571 177.137H243.492V181.611H316.571V177.137Z" fill="#9BCFFF"/>
<path d="M303.645 187.577H243.492V192.051H303.645V187.577Z" fill="#9BCFFF"/>
</g>
<g clip-path="url(#clip1_519_436)">
<path d="M148.5 161.5L147 164.5L146.5 165L152.5 169.5L155 168L158 166.5L162.5 164L163.5 162.5V159.5L163 153.5L162 152.5L161 151L160.5 150.5L161.5 146V145.5L161 145L160.5 144.5H160L159.5 145.5L158.5 147.5L157 151.5L153.5 156.5L153 151V149.5L152 149H151.5L151 149.5L150.5 151L150 152.5L149.5 155L149 158.5L148.5 161.5Z" fill="white"/>
<path d="M160.493 150.497L160.423 150.797L160.659 150.994L160.66 150.995L160.664 150.998L160.682 151.013C160.697 151.026 160.721 151.046 160.75 151.071C160.81 151.122 160.895 151.196 160.998 151.288C161.205 151.471 161.48 151.722 161.757 151.995C162.036 152.27 162.309 152.56 162.515 152.821C162.619 152.951 162.699 153.066 162.754 153.162C162.781 153.21 162.799 153.249 162.811 153.278C162.823 153.307 162.826 153.322 162.826 153.322C162.88 153.705 163.116 155.571 163.275 157.6C163.355 158.614 163.415 159.662 163.425 160.583C163.435 161.516 163.392 162.274 163.284 162.731C163.251 162.868 163.082 163.132 162.667 163.517C162.276 163.881 161.736 164.289 161.096 164.722C159.818 165.585 158.193 166.509 156.681 167.321C155.508 167.945 154.409 168.497 153.602 168.893C153.199 169.092 152.869 169.251 152.641 169.36C152.612 169.374 152.585 169.387 152.56 169.399L146.658 164.874L147.871 162.841L147.873 162.839L148.425 161.903L148.478 161.813L148.491 161.71L148.491 161.708L148.492 161.702L148.495 161.677L148.507 161.58C148.518 161.494 148.534 161.368 148.556 161.207C148.598 160.885 148.661 160.424 148.74 159.867C148.898 158.752 149.124 157.257 149.394 155.73C149.664 154.2 149.976 152.65 150.306 151.422C150.471 150.807 150.638 150.286 150.801 149.893C150.883 149.697 150.959 149.543 151.029 149.429C151.103 149.309 151.152 149.263 151.167 149.252L150.869 148.85L151.165 149.253C151.452 149.042 151.683 148.98 151.859 148.98C152.034 148.98 152.206 149.043 152.375 149.174C152.73 149.45 153.024 149.996 153.14 150.594C153.262 151.218 153.327 152.335 153.36 153.329C153.377 153.819 153.385 154.268 153.389 154.595C153.391 154.758 153.392 154.891 153.392 154.982L153.393 155.087L153.393 155.114V155.121V155.123V156.783L154.31 155.399M160.493 150.497L160.98 150.61M160.493 150.497L160.494 150.494L160.496 150.485L160.504 150.451L160.534 150.32C160.56 150.206 160.597 150.041 160.641 149.842C160.73 149.442 160.848 148.901 160.963 148.334C161.078 147.766 161.19 147.176 161.268 146.678C161.35 146.156 161.384 145.798 161.371 145.654M161.371 145.654L161.869 145.611M161.371 145.654C161.336 145.247 161.252 144.947 161.1 144.763C160.979 144.615 160.75 144.463 160.201 144.508L160.203 144.508C160.203 144.508 160.128 144.532 159.975 144.693C159.818 144.858 159.638 145.107 159.442 145.43C159.051 146.074 158.642 146.938 158.265 147.82C157.513 149.58 156.922 151.344 156.904 151.396C156.885 151.452 156.857 151.501 156.856 151.503C156.846 151.52 156.835 151.539 156.823 151.558C156.8 151.596 156.769 151.646 156.733 151.704C156.659 151.82 156.557 151.979 156.437 152.164C156.197 152.535 155.88 153.018 155.565 153.497C155.25 153.976 154.936 154.452 154.701 154.808L154.417 155.237L154.338 155.357L154.317 155.388L154.311 155.397L154.31 155.399M154.31 155.399L153.893 155.123" stroke="#263238"/>
</g>
</g>
<defs>
<clipPath id="clip0_519_436">
<rect width="480" height="480" fill="white"/>
</clipPath>
<clipPath id="clip1_519_436">
<rect width="18" height="26" fill="white" transform="translate(146 144)"/>
</clipPath>
</defs>
</svg>
