<svg width="480" height="480" viewBox="0 0 480 480" fill="none" xmlns="http://www.w3.org/2000/svg">
<g clip-path="url(#clip0_519_351)">
<mask id="mask0_519_351" style="mask-type:luminance" maskUnits="userSpaceOnUse" x="0" y="0" width="480" height="480">
<path d="M456 0H24C10.7452 0 0 10.7452 0 24V456C0 469.255 10.7452 480 24 480H456C469.255 480 480 469.255 480 456V24C480 10.7452 469.255 0 456 0Z" fill="white"/>
</mask>
<g mask="url(#mask0_519_351)">
<mask id="mask1_519_351" style="mask-type:luminance" maskUnits="userSpaceOnUse" x="0" y="0" width="480" height="480">
<path d="M456 0H24C10.7452 0 0 10.7452 0 24V456C0 469.255 10.7452 480 24 480H456C469.255 480 480 469.255 480 456V24C480 10.7452 469.255 0 456 0Z" fill="white"/>
</mask>
<g mask="url(#mask1_519_351)">
<path d="M456 0H24C10.7452 0 0 10.7452 0 24V456C0 469.255 10.7452 480 24 480H456C469.255 480 480 469.255 480 456V24C480 10.7452 469.255 0 456 0Z" fill="#E6F3FF"/>
<path d="M-63.0308 40.7969C-37.5941 54.9419 19.0021 75.7462 41.8931 45.8041C70.5068 8.37631 41.7033 0.871166 33.2447 19.5474C24.786 38.2236 66.9968 63.6024 108.765 25.1246C142.179 -5.65761 157.787 -53.1178 161.414 -73" stroke="#0487FF" stroke-dasharray="6 6"/>
<path d="M479.529 315.123C454.601 330.146 408.389 368.881 422.967 403.637C441.189 447.083 462.034 425.835 450.045 409.203C438.056 392.572 395.035 416.553 407.622 471.93C417.691 516.232 451.088 553.391 466.527 566.432" stroke="#0487FF" stroke-dasharray="6 6"/>
<path fill-rule="evenodd" clip-rule="evenodd" d="M67.5483 174.59C67.8434 174.754 68.1385 174.934 68.4008 175.131C70.745 172.574 73.4336 170.426 76.3352 168.705C76.2041 168.393 76.0893 168.082 75.9909 167.754C74.6631 163.311 77.2041 158.639 81.6467 157.328C86.0893 156.016 90.745 158.541 92.0729 162.983C92.1713 163.311 92.2368 163.655 92.286 163.983C95.6631 163.819 99.0893 164.18 102.45 165.049C102.565 164.737 102.712 164.426 102.876 164.114C105.073 160.049 110.171 158.541 114.237 160.754C118.319 162.951 119.827 168.049 117.614 172.114C117.45 172.426 117.27 172.705 117.073 172.983C119.63 175.328 121.778 178 123.499 180.918C123.811 180.787 124.122 180.655 124.45 180.557C128.893 179.246 133.565 181.77 134.876 186.213C136.188 190.655 133.663 195.328 129.22 196.639C128.893 196.737 128.565 196.803 128.22 196.869C128.384 200.246 128.04 203.655 127.155 207.016C127.466 207.147 127.778 207.278 128.089 207.442C132.155 209.655 133.663 214.754 131.466 218.819C129.253 222.885 124.155 224.393 120.089 222.196C119.778 222.033 119.499 221.836 119.22 221.639C116.876 224.213 114.204 226.36 111.286 228.065C111.434 228.377 111.548 228.705 111.647 229.033C112.958 233.475 110.434 238.131 105.991 239.459C101.548 240.77 96.8762 238.229 95.5647 233.803C95.4664 233.459 95.4008 233.131 95.3352 232.803C91.9582 232.951 88.5483 232.606 85.1877 231.737C85.0565 232.049 84.9254 232.36 84.7614 232.655C82.5483 236.737 77.4664 238.246 73.3844 236.033C69.3188 233.819 67.8106 228.737 70.0237 224.655C70.1877 224.36 70.368 224.065 70.5647 223.803C68.0073 221.459 65.8434 218.787 64.1385 215.869C63.827 216 63.5155 216.114 63.1713 216.213C58.7287 217.541 54.0729 215 52.745 210.557C51.4336 206.114 53.9746 201.459 58.4172 200.131C58.745 200.033 59.0729 199.967 59.4008 199.918C59.2532 196.541 59.5975 193.114 60.4664 189.754C60.1549 189.639 59.8434 189.492 59.5483 189.328C55.4664 187.131 53.9582 182.033 56.1713 177.967C58.3844 173.885 63.4664 172.377 67.5483 174.59ZM86.3844 212.082C93.9418 216.18 103.401 213.377 107.499 205.819C111.614 198.262 108.811 188.803 101.237 184.705C93.6795 180.59 84.2205 183.393 80.1221 190.967C76.0237 198.524 78.827 207.983 86.3844 212.082Z" fill="#0487FF"/>
<path fill-rule="evenodd" clip-rule="evenodd" d="M103.597 240.164C102.155 240.164 100.729 239.803 99.4336 239.098C97.3844 237.983 95.8762 236.131 95.2204 233.901C95.1549 233.672 95.0893 233.442 95.0401 233.18C91.7942 233.295 88.5483 232.95 85.4008 232.164C85.2915 232.404 85.1822 232.628 85.0729 232.836C82.7778 237.082 77.45 238.655 73.2204 236.344C71.1549 235.229 69.6631 233.393 69.0073 231.147C68.3352 228.901 68.5811 226.541 69.6959 224.491C69.8051 224.284 69.9363 224.071 70.0893 223.852C67.7123 221.639 65.6467 219.098 63.9909 216.327C63.7396 216.415 63.5046 216.497 63.286 216.573C58.6631 217.934 53.7778 215.295 52.4008 210.672C51.745 208.426 51.9909 206.065 53.1057 204C54.2204 201.95 56.0729 200.459 58.3024 199.786C58.5319 199.721 58.7778 199.666 59.0401 199.623C58.909 196.377 59.2532 193.131 60.0401 189.967C59.7997 189.868 59.5756 189.765 59.368 189.655C55.1385 187.344 53.5483 182.032 55.8598 177.786C56.9745 175.737 58.8106 174.245 61.0565 173.573C63.3024 172.918 65.6631 173.164 67.7123 174.278C67.9199 174.388 68.133 174.513 68.3516 174.655C70.5647 172.278 73.1057 170.229 75.8926 168.557C75.7942 168.317 75.7122 168.082 75.6467 167.852C74.9745 165.623 75.2204 163.245 76.3352 161.196C77.45 159.147 79.3024 157.639 81.5483 156.983C83.7778 156.311 86.1385 156.573 88.2041 157.688C90.2532 158.803 91.745 160.639 92.4172 162.885C92.4827 163.114 92.5319 163.344 92.5975 163.606C95.8434 163.491 99.0729 163.836 102.237 164.623C102.335 164.382 102.439 164.158 102.548 163.95C104.86 159.705 110.171 158.131 114.417 160.426C116.466 161.541 117.958 163.393 118.63 165.639C119.302 167.868 119.04 170.246 117.925 172.295C117.816 172.491 117.69 172.705 117.548 172.934C119.925 175.147 121.975 177.672 123.647 180.459C123.887 180.36 124.122 180.278 124.352 180.213C126.597 179.557 128.958 179.803 131.007 180.918C133.057 182.032 134.565 183.868 135.22 186.114C136.597 190.737 133.942 195.623 129.319 196.983C129.1 197.049 128.86 197.109 128.597 197.164C128.712 200.409 128.368 203.655 127.581 206.803C127.832 206.912 128.057 207.021 128.253 207.131C130.319 208.246 131.811 210.098 132.466 212.327C133.138 214.573 132.893 216.934 131.778 218.983C130.663 221.049 128.811 222.541 126.581 223.213C124.335 223.868 121.975 223.623 119.909 222.508C119.712 222.399 119.499 222.267 119.27 222.114C117.057 224.508 114.532 226.557 111.745 228.229C111.843 228.47 111.925 228.699 111.991 228.918C112.663 231.164 112.401 233.524 111.286 235.59C110.171 237.639 108.335 239.131 106.089 239.803C105.27 240.049 104.434 240.164 103.597 240.164ZM95.3352 232.442C95.5155 232.442 95.6631 232.573 95.6959 232.737C95.7614 233.098 95.827 233.409 95.909 233.688C96.5155 235.754 97.8926 237.442 99.7778 238.459C101.663 239.491 103.827 239.721 105.893 239.114C110.122 237.852 112.565 233.377 111.302 229.131C111.22 228.852 111.106 228.541 110.958 228.213C110.893 228.049 110.958 227.852 111.106 227.754C114.024 226.049 116.663 223.901 118.958 221.409C119.089 221.262 119.286 221.245 119.434 221.344C119.729 221.557 120.007 221.737 120.253 221.868C122.138 222.901 124.319 223.131 126.368 222.508C128.417 221.901 130.122 220.524 131.138 218.639C132.171 216.77 132.384 214.59 131.778 212.541C131.171 210.475 129.794 208.786 127.909 207.77C127.663 207.623 127.368 207.491 127.024 207.36C126.86 207.295 126.761 207.098 126.811 206.934C127.663 203.639 128.024 200.262 127.86 196.885C127.86 196.705 127.991 196.541 128.171 196.508C128.516 196.459 128.827 196.377 129.122 196.295C133.368 195.032 135.794 190.557 134.532 186.327C133.925 184.262 132.548 182.573 130.663 181.541C128.778 180.524 126.614 180.295 124.548 180.901C124.27 180.983 123.975 181.098 123.647 181.245C123.466 181.311 123.27 181.262 123.188 181.098C121.466 178.18 119.335 175.541 116.827 173.245C116.696 173.131 116.663 172.918 116.778 172.77C116.991 172.475 117.155 172.213 117.302 171.95C118.319 170.065 118.548 167.885 117.942 165.836C117.335 163.786 115.958 162.082 114.073 161.065C110.188 158.95 105.302 160.393 103.188 164.295C103.04 164.557 102.909 164.836 102.778 165.18C102.712 165.344 102.532 165.442 102.352 165.393C99.0729 164.541 95.6959 164.18 92.3024 164.344C92.1385 164.344 91.9745 164.213 91.9418 164.032C91.8762 163.672 91.8106 163.377 91.7286 163.082C91.1057 161.032 89.745 159.344 87.8598 158.311C85.9745 157.295 83.7942 157.065 81.745 157.672C77.4991 158.934 75.0729 163.409 76.3352 167.655C76.4172 167.934 76.5319 168.229 76.6631 168.573C76.745 168.737 76.6795 168.934 76.5155 169.016C73.5975 170.737 70.9581 172.868 68.6795 175.377C68.5483 175.508 68.3516 175.541 68.2041 175.426C67.8926 175.213 67.6303 175.049 67.368 174.901C65.4827 173.885 63.3188 173.655 61.2696 174.262C59.2041 174.868 57.5155 176.245 56.4827 178.131C54.3844 182.016 55.827 186.901 59.7123 189.016C59.9745 189.164 60.2696 189.295 60.5975 189.426C60.7778 189.491 60.8598 189.672 60.827 189.852C59.9745 193.131 59.6139 196.508 59.7614 199.901C59.7778 200.082 59.6467 200.245 59.4664 200.262C59.1057 200.327 58.7942 200.393 58.5155 200.491C54.2696 201.737 51.8434 206.213 53.1057 210.459C54.3516 214.705 58.827 217.131 63.0729 215.868C63.3516 215.786 63.6631 215.672 63.9909 215.541C64.1549 215.459 64.3516 215.524 64.45 215.688C66.1549 218.606 68.3024 221.245 70.8106 223.541C70.9418 223.655 70.9582 223.852 70.8598 224C70.6467 224.311 70.4664 224.573 70.3352 224.836C69.3024 226.721 69.0893 228.885 69.6959 230.95C70.3024 233 71.6795 234.688 73.5647 235.721C77.45 237.819 82.3352 236.377 84.45 232.491C84.5811 232.229 84.7122 231.934 84.8434 231.606C84.909 231.426 85.1057 231.344 85.2696 231.393C88.5647 232.246 91.9418 232.59 95.3188 232.442C95.3297 232.442 95.3352 232.442 95.3352 232.442ZM93.7942 214.327C91.2204 214.327 88.6303 213.705 86.2204 212.393C82.4663 210.36 79.745 207 78.5319 202.918C77.3188 198.836 77.7778 194.524 79.8106 190.786C84.0073 183.065 93.6959 180.196 101.417 184.377C109.138 188.573 112.007 198.262 107.827 205.983C104.942 211.311 99.45 214.327 93.7942 214.327ZM93.8434 183.164C92.3844 183.164 90.9254 183.377 89.4827 183.803C85.5975 184.95 82.3844 187.557 80.45 191.131C76.4336 198.508 79.1877 207.754 86.5647 211.77C93.9254 215.77 103.188 213.016 107.188 205.655C111.188 198.278 108.45 189.016 101.073 185.016C98.8106 183.786 96.3352 183.164 93.8434 183.164Z" fill="#263238"/>
<mask id="mask2_519_351" style="mask-type:luminance" maskUnits="userSpaceOnUse" x="51" y="155" width="86" height="86">
<path d="M136.042 155.617H51.0415V240.617H136.042V155.617Z" fill="white"/>
<path fill-rule="evenodd" clip-rule="evenodd" d="M103.597 240.164C102.155 240.164 100.729 239.803 99.4336 239.098C97.3844 237.983 95.8762 236.131 95.2204 233.901C95.1549 233.672 95.0893 233.442 95.0401 233.18C91.7942 233.295 88.5483 232.95 85.4008 232.164C85.2915 232.404 85.1822 232.628 85.0729 232.836C82.7778 237.082 77.45 238.655 73.2204 236.344C71.1549 235.229 69.6631 233.393 69.0073 231.147C68.3352 228.901 68.5811 226.541 69.6959 224.491C69.8051 224.284 69.9363 224.071 70.0893 223.852C67.7123 221.639 65.6467 219.098 63.9909 216.327C63.7396 216.415 63.5046 216.497 63.286 216.573C58.6631 217.934 53.7778 215.295 52.4008 210.672C51.745 208.426 51.9909 206.065 53.1057 204C54.2204 201.95 56.0729 200.459 58.3024 199.786C58.5319 199.721 58.7778 199.666 59.0401 199.623C58.909 196.377 59.2532 193.131 60.0401 189.967C59.7997 189.868 59.5756 189.765 59.368 189.655C55.1385 187.344 53.5483 182.032 55.8598 177.786C56.9745 175.737 58.8106 174.245 61.0565 173.573C63.3024 172.918 65.6631 173.164 67.7123 174.278C67.9199 174.388 68.133 174.513 68.3516 174.655C70.5647 172.278 73.1057 170.229 75.8926 168.557C75.7942 168.317 75.7122 168.082 75.6467 167.852C74.9745 165.623 75.2204 163.245 76.3352 161.196C77.45 159.147 79.3024 157.639 81.5483 156.983C83.7778 156.311 86.1385 156.573 88.2041 157.688C90.2532 158.803 91.745 160.639 92.4172 162.885C92.4827 163.114 92.5319 163.344 92.5975 163.606C95.8434 163.491 99.0729 163.836 102.237 164.623C102.335 164.382 102.439 164.158 102.548 163.95C104.86 159.705 110.171 158.131 114.417 160.426C116.466 161.541 117.958 163.393 118.63 165.639C119.302 167.868 119.04 170.246 117.925 172.295C117.816 172.491 117.69 172.705 117.548 172.934C119.925 175.147 121.975 177.672 123.647 180.459C123.887 180.36 124.122 180.278 124.352 180.213C126.597 179.557 128.958 179.803 131.007 180.918C133.057 182.032 134.565 183.868 135.22 186.114C136.597 190.737 133.942 195.623 129.319 196.983C129.1 197.049 128.86 197.109 128.597 197.164C128.712 200.409 128.368 203.655 127.581 206.803C127.832 206.912 128.057 207.021 128.253 207.131C130.319 208.246 131.811 210.098 132.466 212.327C133.138 214.573 132.893 216.934 131.778 218.983C130.663 221.049 128.811 222.541 126.581 223.213C124.335 223.868 121.975 223.623 119.909 222.508C119.712 222.399 119.499 222.267 119.27 222.114C117.057 224.508 114.532 226.557 111.745 228.229C111.843 228.47 111.925 228.699 111.991 228.918C112.663 231.164 112.401 233.524 111.286 235.59C110.171 237.639 108.335 239.131 106.089 239.803C105.27 240.049 104.434 240.164 103.597 240.164ZM95.3352 232.442C95.5155 232.442 95.6631 232.573 95.6959 232.737C95.7614 233.098 95.827 233.409 95.909 233.688C96.5155 235.754 97.8926 237.442 99.7778 238.459C101.663 239.491 103.827 239.721 105.893 239.114C110.122 237.852 112.565 233.377 111.302 229.131C111.22 228.852 111.106 228.541 110.958 228.213C110.893 228.049 110.958 227.852 111.106 227.754C114.024 226.049 116.663 223.901 118.958 221.409C119.089 221.262 119.286 221.245 119.434 221.344C119.729 221.557 120.007 221.737 120.253 221.868C122.138 222.901 124.319 223.131 126.368 222.508C128.417 221.901 130.122 220.524 131.138 218.639C132.171 216.77 132.384 214.59 131.778 212.541C131.171 210.475 129.794 208.786 127.909 207.77C127.663 207.623 127.368 207.491 127.024 207.36C126.86 207.295 126.761 207.098 126.811 206.934C127.663 203.639 128.024 200.262 127.86 196.885C127.86 196.705 127.991 196.541 128.171 196.508C128.516 196.459 128.827 196.377 129.122 196.295C133.368 195.032 135.794 190.557 134.532 186.327C133.925 184.262 132.548 182.573 130.663 181.541C128.778 180.524 126.614 180.295 124.548 180.901C124.27 180.983 123.975 181.098 123.647 181.245C123.466 181.311 123.27 181.262 123.188 181.098C121.466 178.18 119.335 175.541 116.827 173.245C116.696 173.131 116.663 172.918 116.778 172.77C116.991 172.475 117.155 172.213 117.302 171.95C118.319 170.065 118.548 167.885 117.942 165.836C117.335 163.786 115.958 162.082 114.073 161.065C110.188 158.95 105.302 160.393 103.188 164.295C103.04 164.557 102.909 164.836 102.778 165.18C102.712 165.344 102.532 165.442 102.352 165.393C99.0729 164.541 95.6959 164.18 92.3024 164.344C92.1385 164.344 91.9745 164.213 91.9418 164.032C91.8762 163.672 91.8106 163.377 91.7286 163.082C91.1057 161.032 89.745 159.344 87.8598 158.311C85.9745 157.295 83.7942 157.065 81.745 157.672C77.4991 158.934 75.0729 163.409 76.3352 167.655C76.4172 167.934 76.5319 168.229 76.6631 168.573C76.745 168.737 76.6795 168.934 76.5155 169.016C73.5975 170.737 70.9581 172.868 68.6795 175.377C68.5483 175.508 68.3516 175.541 68.2041 175.426C67.8926 175.213 67.6303 175.049 67.368 174.901C65.4827 173.885 63.3188 173.655 61.2696 174.262C59.2041 174.868 57.5155 176.245 56.4827 178.131C54.3844 182.016 55.827 186.901 59.7123 189.016C59.9745 189.164 60.2696 189.295 60.5975 189.426C60.7778 189.491 60.8598 189.672 60.827 189.852C59.9745 193.131 59.6139 196.508 59.7614 199.901C59.7778 200.082 59.6467 200.245 59.4664 200.262C59.1057 200.327 58.7942 200.393 58.5155 200.491C54.2696 201.737 51.8434 206.213 53.1057 210.459C54.3516 214.705 58.827 217.131 63.0729 215.868C63.3516 215.786 63.6631 215.672 63.9909 215.541C64.1549 215.459 64.3516 215.524 64.45 215.688C66.1549 218.606 68.3024 221.245 70.8106 223.541C70.9418 223.655 70.9582 223.852 70.8598 224C70.6467 224.311 70.4664 224.573 70.3352 224.836C69.3024 226.721 69.0893 228.885 69.6959 230.95C70.3024 233 71.6795 234.688 73.5647 235.721C77.45 237.819 82.3352 236.377 84.45 232.491C84.5811 232.229 84.7122 231.934 84.8434 231.606C84.909 231.426 85.1057 231.344 85.2696 231.393C88.5647 232.246 91.9418 232.59 95.3188 232.442C95.3297 232.442 95.3352 232.442 95.3352 232.442ZM93.7942 214.327C91.2204 214.327 88.6303 213.705 86.2204 212.393C82.4663 210.36 79.745 207 78.5319 202.918C77.3188 198.836 77.7778 194.524 79.8106 190.786C84.0073 183.065 93.6959 180.196 101.417 184.377C109.138 188.573 112.007 198.262 107.827 205.983C104.942 211.311 99.45 214.327 93.7942 214.327ZM93.8434 183.164C92.3844 183.164 90.9254 183.377 89.4827 183.803C85.5975 184.95 82.3844 187.557 80.45 191.131C76.4336 198.508 79.1877 207.754 86.5647 211.77C93.9254 215.77 103.188 213.016 107.188 205.655C111.188 198.278 108.45 189.016 101.073 185.016C98.8106 183.786 96.3352 183.164 93.8434 183.164Z" fill="black"/>
</mask>
<g mask="url(#mask2_519_351)">
<path fill-rule="evenodd" clip-rule="evenodd" d="M103.597 240.164C102.155 240.164 100.729 239.803 99.4336 239.098C97.3844 237.983 95.8762 236.131 95.2204 233.901C95.1549 233.672 95.0893 233.442 95.0401 233.18C91.7942 233.295 88.5483 232.95 85.4008 232.164C85.2915 232.404 85.1822 232.628 85.0729 232.836C82.7778 237.082 77.45 238.655 73.2204 236.344C71.1549 235.229 69.6631 233.393 69.0073 231.147C68.3352 228.901 68.5811 226.541 69.6959 224.491C69.8051 224.284 69.9363 224.071 70.0893 223.852C67.7123 221.639 65.6467 219.098 63.9909 216.327C63.7396 216.415 63.5046 216.497 63.286 216.573C58.6631 217.934 53.7778 215.295 52.4008 210.672C51.745 208.426 51.9909 206.065 53.1057 204C54.2204 201.95 56.0729 200.459 58.3024 199.786C58.5319 199.721 58.7778 199.666 59.0401 199.623C58.909 196.377 59.2532 193.131 60.0401 189.967C59.7997 189.868 59.5756 189.765 59.368 189.655C55.1385 187.344 53.5483 182.032 55.8598 177.786C56.9745 175.737 58.8106 174.245 61.0565 173.573C63.3024 172.918 65.6631 173.164 67.7123 174.278C67.9199 174.388 68.133 174.513 68.3516 174.655C70.5647 172.278 73.1057 170.229 75.8926 168.557C75.7942 168.317 75.7122 168.082 75.6467 167.852C74.9745 165.623 75.2204 163.245 76.3352 161.196C77.45 159.147 79.3024 157.639 81.5483 156.983C83.7778 156.311 86.1385 156.573 88.2041 157.688C90.2532 158.803 91.745 160.639 92.4172 162.885C92.4827 163.114 92.5319 163.344 92.5975 163.606C95.8434 163.491 99.0729 163.836 102.237 164.623C102.335 164.382 102.439 164.158 102.548 163.95C104.86 159.705 110.171 158.131 114.417 160.426C116.466 161.541 117.958 163.393 118.63 165.639C119.302 167.868 119.04 170.246 117.925 172.295C117.816 172.491 117.69 172.705 117.548 172.934C119.925 175.147 121.975 177.672 123.647 180.459C123.887 180.36 124.122 180.278 124.352 180.213C126.597 179.557 128.958 179.803 131.007 180.918C133.057 182.032 134.565 183.868 135.22 186.114C136.597 190.737 133.942 195.623 129.319 196.983C129.1 197.049 128.86 197.109 128.597 197.164C128.712 200.409 128.368 203.655 127.581 206.803C127.832 206.912 128.057 207.021 128.253 207.131C130.319 208.246 131.811 210.098 132.466 212.327C133.138 214.573 132.893 216.934 131.778 218.983C130.663 221.049 128.811 222.541 126.581 223.213C124.335 223.868 121.975 223.623 119.909 222.508C119.712 222.399 119.499 222.267 119.27 222.114C117.057 224.508 114.532 226.557 111.745 228.229C111.843 228.47 111.925 228.699 111.991 228.918C112.663 231.164 112.401 233.524 111.286 235.59C110.171 237.639 108.335 239.131 106.089 239.803C105.27 240.049 104.434 240.164 103.597 240.164ZM95.3352 232.442C95.5155 232.442 95.6631 232.573 95.6959 232.737C95.7614 233.098 95.827 233.409 95.909 233.688C96.5155 235.754 97.8926 237.442 99.7778 238.459C101.663 239.491 103.827 239.721 105.893 239.114C110.122 237.852 112.565 233.377 111.302 229.131C111.22 228.852 111.106 228.541 110.958 228.213C110.893 228.049 110.958 227.852 111.106 227.754C114.024 226.049 116.663 223.901 118.958 221.409C119.089 221.262 119.286 221.245 119.434 221.344C119.729 221.557 120.007 221.737 120.253 221.868C122.138 222.901 124.319 223.131 126.368 222.508C128.417 221.901 130.122 220.524 131.138 218.639C132.171 216.77 132.384 214.59 131.778 212.541C131.171 210.475 129.794 208.786 127.909 207.77C127.663 207.623 127.368 207.491 127.024 207.36C126.86 207.295 126.761 207.098 126.811 206.934C127.663 203.639 128.024 200.262 127.86 196.885C127.86 196.705 127.991 196.541 128.171 196.508C128.516 196.459 128.827 196.377 129.122 196.295C133.368 195.032 135.794 190.557 134.532 186.327C133.925 184.262 132.548 182.573 130.663 181.541C128.778 180.524 126.614 180.295 124.548 180.901C124.27 180.983 123.975 181.098 123.647 181.245C123.466 181.311 123.27 181.262 123.188 181.098C121.466 178.18 119.335 175.541 116.827 173.245C116.696 173.131 116.663 172.918 116.778 172.77C116.991 172.475 117.155 172.213 117.302 171.95C118.319 170.065 118.548 167.885 117.942 165.836C117.335 163.786 115.958 162.082 114.073 161.065C110.188 158.95 105.302 160.393 103.188 164.295C103.04 164.557 102.909 164.836 102.778 165.18C102.712 165.344 102.532 165.442 102.352 165.393C99.0729 164.541 95.6959 164.18 92.3024 164.344C92.1385 164.344 91.9745 164.213 91.9418 164.032C91.8762 163.672 91.8106 163.377 91.7286 163.082C91.1057 161.032 89.745 159.344 87.8598 158.311C85.9745 157.295 83.7942 157.065 81.745 157.672C77.4991 158.934 75.0729 163.409 76.3352 167.655C76.4172 167.934 76.5319 168.229 76.6631 168.573C76.745 168.737 76.6795 168.934 76.5155 169.016C73.5975 170.737 70.9581 172.868 68.6795 175.377C68.5483 175.508 68.3516 175.541 68.2041 175.426C67.8926 175.213 67.6303 175.049 67.368 174.901C65.4827 173.885 63.3188 173.655 61.2696 174.262C59.2041 174.868 57.5155 176.245 56.4827 178.131C54.3844 182.016 55.827 186.901 59.7123 189.016C59.9745 189.164 60.2696 189.295 60.5975 189.426C60.7778 189.491 60.8598 189.672 60.827 189.852C59.9745 193.131 59.6139 196.508 59.7614 199.901C59.7778 200.082 59.6467 200.245 59.4664 200.262C59.1057 200.327 58.7942 200.393 58.5155 200.491C54.2696 201.737 51.8434 206.213 53.1057 210.459C54.3516 214.705 58.827 217.131 63.0729 215.868C63.3516 215.786 63.6631 215.672 63.9909 215.541C64.1549 215.459 64.3516 215.524 64.45 215.688C66.1549 218.606 68.3024 221.245 70.8106 223.541C70.9418 223.655 70.9582 223.852 70.8598 224C70.6467 224.311 70.4664 224.573 70.3352 224.836C69.3024 226.721 69.0893 228.885 69.6959 230.95C70.3024 233 71.6795 234.688 73.5647 235.721C77.45 237.819 82.3352 236.377 84.45 232.491C84.5811 232.229 84.7122 231.934 84.8434 231.606C84.909 231.426 85.1057 231.344 85.2696 231.393C88.5647 232.246 91.9418 232.59 95.3188 232.442C95.3297 232.442 95.3352 232.442 95.3352 232.442ZM93.7942 214.327C91.2204 214.327 88.6303 213.705 86.2204 212.393C82.4663 210.36 79.745 207 78.5319 202.918C77.3188 198.836 77.7778 194.524 79.8106 190.786C84.0073 183.065 93.6959 180.196 101.417 184.377C109.138 188.573 112.007 198.262 107.827 205.983C104.942 211.311 99.45 214.327 93.7942 214.327ZM93.8434 183.164C92.3844 183.164 90.9254 183.377 89.4827 183.803C85.5975 184.95 82.3844 187.557 80.45 191.131C76.4336 198.508 79.1877 207.754 86.5647 211.77C93.9254 215.77 103.188 213.016 107.188 205.655C111.188 198.278 108.45 189.016 101.073 185.016C98.8106 183.786 96.3352 183.164 93.8434 183.164Z" stroke="#263238" stroke-width="0.4"/>
</g>
<path fill-rule="evenodd" clip-rule="evenodd" d="M18.0895 163.147C18.2535 163.082 18.4229 163.027 18.5977 162.983C18.3191 161.18 18.3354 159.377 18.5977 157.623C18.4229 157.568 18.2535 157.508 18.0895 157.442C15.8436 156.508 14.7781 153.934 15.7125 151.672C16.6469 149.426 19.2207 148.36 21.4666 149.295C21.6415 149.371 21.8054 149.453 21.9584 149.541C23.0076 148.115 24.2863 146.82 25.7453 145.738C25.6579 145.585 25.5813 145.426 25.5158 145.262C24.5813 143.016 25.6633 140.442 27.9092 139.508C30.1551 138.574 32.7453 139.639 33.6633 141.901C33.7289 142.065 33.789 142.235 33.8436 142.41C35.6469 142.131 37.4502 142.147 39.2043 142.41C39.248 142.235 39.3081 142.065 39.3846 141.901C40.3191 139.656 42.8928 138.59 45.1387 139.524C47.3846 140.459 48.4502 143.033 47.5158 145.279C47.4502 145.453 47.3737 145.617 47.2863 145.77C48.7125 146.82 49.9912 148.098 51.0732 149.557C51.2262 149.47 51.3901 149.393 51.565 149.328C53.8109 148.393 56.3846 149.475 57.319 151.721C58.2535 153.967 57.1715 156.541 54.9256 157.475C54.7617 157.541 54.5923 157.601 54.4174 157.656C54.6797 159.459 54.6797 161.262 54.4174 163.016C54.5813 163.06 54.7507 163.115 54.9256 163.18C57.1715 164.115 58.2371 166.705 57.3027 168.951C56.3682 171.197 53.7781 172.262 51.5322 171.328C51.3682 171.262 51.2098 171.186 51.0568 171.098C50.0076 172.524 48.7289 173.803 47.2535 174.885C47.3409 175.038 47.4229 175.197 47.4994 175.36C48.4174 177.623 47.3518 180.197 45.1059 181.131C42.86 182.049 40.2699 180.983 39.3354 178.738C39.2699 178.563 39.2152 178.393 39.1715 178.229C37.3682 178.492 35.565 178.492 33.8109 178.229C33.7562 178.393 33.6961 178.557 33.6305 178.721C32.6961 180.983 30.1223 182.049 27.8764 181.115C25.6141 180.18 24.5486 177.59 25.483 175.344C25.5595 175.18 25.6415 175.022 25.7289 174.869C24.3027 173.803 23.024 172.541 21.942 171.065C21.789 171.153 21.6251 171.235 21.4502 171.311C19.2043 172.229 16.6305 171.164 15.6961 168.918C14.7617 166.656 15.8436 164.082 18.0895 163.147ZM39.6305 167.885C43.8109 166.164 45.7945 161.36 44.0732 157.197C42.3518 153.016 37.565 151.016 33.3846 152.754C29.2043 154.475 27.2043 159.262 28.942 163.442C30.6633 167.623 35.4502 169.606 39.6305 167.885Z" fill="#52D180"/>
<path fill-rule="evenodd" clip-rule="evenodd" d="M43.4171 181.82C42.7942 181.82 42.1712 181.705 41.5974 181.459C40.4171 180.967 39.4991 180.049 39.0073 178.869C38.9745 178.792 38.9472 178.71 38.9253 178.623C37.3024 178.836 35.6794 178.836 34.0565 178.623C34.0237 178.71 33.9909 178.792 33.9581 178.869C33.4827 180.049 32.5647 180.967 31.3843 181.442C30.204 181.934 28.9089 181.934 27.7286 181.442C25.3024 180.426 24.1384 177.639 25.1548 175.213C25.1876 175.136 25.2259 175.054 25.2696 174.967C23.9745 173.983 22.8269 172.82 21.8269 171.524C21.7504 171.568 21.6739 171.606 21.5974 171.639C19.1548 172.639 16.3679 171.475 15.3679 169.049C14.3515 166.623 15.5155 163.82 17.9417 162.82C18.0291 162.787 18.1111 162.754 18.1876 162.721C17.9745 161.115 17.9745 159.475 18.204 157.869C18.1166 157.836 18.0346 157.803 17.9581 157.77C15.5319 156.77 14.3679 153.967 15.3843 151.541C16.3843 149.115 19.1876 147.951 21.6138 148.967C21.6903 149 21.7668 149.038 21.8433 149.082C22.8433 147.787 23.9909 146.623 25.286 145.639C25.2532 145.563 25.2204 145.486 25.1876 145.41C24.1712 142.967 25.3351 140.18 27.7778 139.164C30.204 138.164 32.9909 139.328 34.0073 141.754C34.0401 141.83 34.0674 141.912 34.0892 142C35.7122 141.787 37.3351 141.787 38.9581 142.016C38.9799 141.929 39.0073 141.847 39.0401 141.77C39.5319 140.59 40.4499 139.672 41.6302 139.18C42.8106 138.705 44.1056 138.705 45.286 139.18C47.7122 140.197 48.8597 143 47.8597 145.426C47.8269 145.503 47.7887 145.579 47.745 145.656C49.0401 146.656 50.1876 147.803 51.1876 149.098C51.2641 149.065 51.3406 149.033 51.4171 149C53.8433 147.983 56.6466 149.147 57.6466 151.574C58.6466 154.016 57.4991 156.803 55.0565 157.803C54.9799 157.836 54.898 157.869 54.8106 157.901C55.0237 159.524 55.0237 161.147 54.8106 162.754C54.898 162.787 54.9799 162.82 55.0565 162.852C57.4827 163.869 58.6466 166.656 57.6302 169.082C56.6302 171.524 53.8269 172.672 51.4007 171.672C51.3242 171.639 51.2422 171.601 51.1548 171.557C50.1712 172.852 49.0073 174 47.7122 174.983C47.7559 175.071 47.7942 175.153 47.827 175.229C48.3188 176.41 48.3188 177.705 47.827 178.885C47.3351 180.049 46.4171 180.967 45.2368 181.459C44.6466 181.705 44.0401 181.82 43.4171 181.82ZM39.1712 177.869C39.3351 177.869 39.4827 177.967 39.5155 178.131C39.5647 178.311 39.6138 178.459 39.6794 178.59C40.0892 179.59 40.8597 180.377 41.8597 180.787C42.8597 181.197 43.9581 181.213 44.9581 180.787C45.9581 180.377 46.745 179.606 47.1548 178.606C47.581 177.606 47.581 176.508 47.1548 175.508C47.1056 175.36 47.0401 175.229 46.9417 175.065C46.8597 174.901 46.8925 174.705 47.0401 174.59C48.4663 173.541 49.7122 172.295 50.7614 170.885C50.8761 170.738 51.0728 170.688 51.2368 170.787C51.3898 170.874 51.5373 170.945 51.6794 171C53.745 171.852 56.1056 170.869 56.9745 168.82C57.8269 166.754 56.8433 164.377 54.7778 163.524C54.6466 163.47 54.4936 163.415 54.3187 163.36C54.1384 163.311 54.0237 163.147 54.0565 162.967C54.3188 161.213 54.3188 159.442 54.0565 157.705C54.0401 157.524 54.1384 157.344 54.3187 157.295C54.4991 157.246 54.6466 157.197 54.7942 157.147C56.8433 156.295 57.8269 153.918 56.9745 151.852C56.122 149.787 53.7614 148.803 51.6958 149.656C51.5647 149.71 51.4171 149.787 51.2532 149.885C51.0892 149.967 50.8925 149.918 50.7778 149.77C49.745 148.36 48.4827 147.098 47.0728 146.049C46.9253 145.951 46.8761 145.754 46.9745 145.59C47.0565 145.426 47.1384 145.279 47.1876 145.147C48.0401 143.082 47.0565 140.705 45.0073 139.852C42.9417 139 40.5647 139.983 39.7122 142.033C39.6575 142.175 39.6029 142.333 39.5483 142.508C39.4991 142.688 39.3351 142.787 39.1548 142.77C37.4007 142.508 35.6302 142.508 33.8925 142.754C33.7122 142.787 33.5319 142.672 33.4991 142.508C33.4444 142.333 33.3898 142.175 33.3351 142.033C32.9253 141.033 32.1384 140.262 31.1384 139.836C30.1384 139.426 29.0401 139.426 28.0401 139.836C25.9745 140.688 24.9909 143.065 25.8433 145.131C25.898 145.262 25.9745 145.41 26.0729 145.574C26.1548 145.721 26.1056 145.934 25.9745 146.033C24.5483 147.082 23.286 148.328 22.2368 149.754C22.1384 149.901 21.9417 149.934 21.7778 149.852C21.6138 149.765 21.4663 149.688 21.3351 149.623C19.2696 148.77 16.8925 149.754 16.0401 151.82C15.1876 153.885 16.1712 156.246 18.2368 157.115C18.3679 157.169 18.5209 157.218 18.6958 157.262C18.8761 157.311 18.9909 157.492 18.9581 157.672C18.6958 159.41 18.6958 161.18 18.9581 162.934C18.9745 163.115 18.8597 163.279 18.6958 163.328C18.5155 163.377 18.3679 163.426 18.2204 163.492C16.1548 164.344 15.1712 166.705 16.0237 168.77C16.8761 170.836 19.2532 171.82 21.3188 170.967C21.4499 170.918 21.5974 170.852 21.7614 170.754C21.9089 170.672 22.122 170.705 22.2204 170.852C23.2696 172.279 24.5155 173.524 25.9417 174.574C26.0892 174.688 26.122 174.885 26.0401 175.049C25.9526 175.202 25.8816 175.35 25.8269 175.492C25.4007 176.475 25.4007 177.59 25.8106 178.59C26.2368 179.59 27.0073 180.361 28.0073 180.77C29.0073 181.197 30.1056 181.197 31.1056 180.787C32.1056 180.36 32.8925 179.59 33.3024 178.59C33.3515 178.459 33.4007 178.311 33.4499 178.131C33.5155 177.951 33.6794 177.836 33.8597 177.869C35.5974 178.131 37.3679 178.131 39.122 177.869C39.133 177.869 39.1494 177.869 39.1712 177.869ZM36.4991 168.869C35.4007 168.869 34.286 168.656 33.2204 168.213C31.122 167.328 29.4827 165.688 28.5974 163.574C27.7286 161.475 27.7286 159.147 28.6138 157.033C29.4827 154.934 31.122 153.279 33.2368 152.41C37.5974 150.606 42.6138 152.688 44.4007 157.049C46.204 161.41 44.122 166.41 39.7614 168.213C38.7122 168.656 37.6138 168.869 36.4991 168.869ZM36.4991 152.492C35.4991 152.492 34.4827 152.672 33.5155 153.082C31.581 153.885 30.0729 155.377 29.2696 157.311C28.4663 159.246 28.4663 161.377 29.2696 163.311C30.0729 165.229 31.5647 166.738 33.4991 167.541C35.4335 168.344 37.5647 168.344 39.4991 167.557C43.4827 165.901 45.3843 161.311 43.745 157.328C42.4991 154.311 39.5646 152.492 36.4991 152.492Z" fill="#263238"/>
<mask id="mask3_519_351" style="mask-type:luminance" maskUnits="userSpaceOnUse" x="14" y="137" width="45" height="46">
<path d="M59 137.805H14V182.805H59V137.805Z" fill="white"/>
<path fill-rule="evenodd" clip-rule="evenodd" d="M43.4171 181.82C42.7942 181.82 42.1712 181.705 41.5974 181.459C40.4171 180.967 39.4991 180.049 39.0073 178.869C38.9745 178.792 38.9472 178.71 38.9253 178.623C37.3024 178.836 35.6794 178.836 34.0565 178.623C34.0237 178.71 33.9909 178.792 33.9581 178.869C33.4827 180.049 32.5647 180.967 31.3843 181.442C30.204 181.934 28.9089 181.934 27.7286 181.442C25.3024 180.426 24.1384 177.639 25.1548 175.213C25.1876 175.136 25.2259 175.054 25.2696 174.967C23.9745 173.983 22.8269 172.82 21.8269 171.524C21.7504 171.568 21.6739 171.606 21.5974 171.639C19.1548 172.639 16.3679 171.475 15.3679 169.049C14.3515 166.623 15.5155 163.82 17.9417 162.82C18.0291 162.787 18.1111 162.754 18.1876 162.721C17.9745 161.115 17.9745 159.475 18.204 157.869C18.1166 157.836 18.0346 157.803 17.9581 157.77C15.5319 156.77 14.3679 153.967 15.3843 151.541C16.3843 149.115 19.1876 147.951 21.6138 148.967C21.6903 149 21.7668 149.038 21.8433 149.082C22.8433 147.787 23.9909 146.623 25.286 145.639C25.2532 145.563 25.2204 145.486 25.1876 145.41C24.1712 142.967 25.3351 140.18 27.7778 139.164C30.204 138.164 32.9909 139.328 34.0073 141.754C34.0401 141.83 34.0674 141.912 34.0892 142C35.7122 141.787 37.3351 141.787 38.9581 142.016C38.9799 141.929 39.0073 141.847 39.0401 141.77C39.5319 140.59 40.4499 139.672 41.6302 139.18C42.8106 138.705 44.1056 138.705 45.286 139.18C47.7122 140.197 48.8597 143 47.8597 145.426C47.8269 145.503 47.7887 145.579 47.745 145.656C49.0401 146.656 50.1876 147.803 51.1876 149.098C51.2641 149.065 51.3406 149.033 51.4171 149C53.8433 147.983 56.6466 149.147 57.6466 151.574C58.6466 154.016 57.4991 156.803 55.0565 157.803C54.9799 157.836 54.898 157.869 54.8106 157.901C55.0237 159.524 55.0237 161.147 54.8106 162.754C54.898 162.787 54.9799 162.82 55.0565 162.852C57.4827 163.869 58.6466 166.656 57.6302 169.082C56.6302 171.524 53.8269 172.672 51.4007 171.672C51.3242 171.639 51.2422 171.601 51.1548 171.557C50.1712 172.852 49.0073 174 47.7122 174.983C47.7559 175.071 47.7942 175.153 47.827 175.229C48.3188 176.41 48.3188 177.705 47.827 178.885C47.3351 180.049 46.4171 180.967 45.2368 181.459C44.6466 181.705 44.0401 181.82 43.4171 181.82ZM39.1712 177.869C39.3351 177.869 39.4827 177.967 39.5155 178.131C39.5647 178.311 39.6138 178.459 39.6794 178.59C40.0892 179.59 40.8597 180.377 41.8597 180.787C42.8597 181.197 43.9581 181.213 44.9581 180.787C45.9581 180.377 46.745 179.606 47.1548 178.606C47.581 177.606 47.581 176.508 47.1548 175.508C47.1056 175.36 47.0401 175.229 46.9417 175.065C46.8597 174.901 46.8925 174.705 47.0401 174.59C48.4663 173.541 49.7122 172.295 50.7614 170.885C50.8761 170.738 51.0728 170.688 51.2368 170.787C51.3898 170.874 51.5373 170.945 51.6794 171C53.745 171.852 56.1056 170.869 56.9745 168.82C57.8269 166.754 56.8433 164.377 54.7778 163.524C54.6466 163.47 54.4936 163.415 54.3187 163.36C54.1384 163.311 54.0237 163.147 54.0565 162.967C54.3188 161.213 54.3188 159.442 54.0565 157.705C54.0401 157.524 54.1384 157.344 54.3187 157.295C54.4991 157.246 54.6466 157.197 54.7942 157.147C56.8433 156.295 57.8269 153.918 56.9745 151.852C56.122 149.787 53.7614 148.803 51.6958 149.656C51.5647 149.71 51.4171 149.787 51.2532 149.885C51.0892 149.967 50.8925 149.918 50.7778 149.77C49.745 148.36 48.4827 147.098 47.0728 146.049C46.9253 145.951 46.8761 145.754 46.9745 145.59C47.0565 145.426 47.1384 145.279 47.1876 145.147C48.0401 143.082 47.0565 140.705 45.0073 139.852C42.9417 139 40.5647 139.983 39.7122 142.033C39.6575 142.175 39.6029 142.333 39.5483 142.508C39.4991 142.688 39.3351 142.787 39.1548 142.77C37.4007 142.508 35.6302 142.508 33.8925 142.754C33.7122 142.787 33.5319 142.672 33.4991 142.508C33.4444 142.333 33.3898 142.175 33.3351 142.033C32.9253 141.033 32.1384 140.262 31.1384 139.836C30.1384 139.426 29.0401 139.426 28.0401 139.836C25.9745 140.688 24.9909 143.065 25.8433 145.131C25.898 145.262 25.9745 145.41 26.0729 145.574C26.1548 145.721 26.1056 145.934 25.9745 146.033C24.5483 147.082 23.286 148.328 22.2368 149.754C22.1384 149.901 21.9417 149.934 21.7778 149.852C21.6138 149.765 21.4663 149.688 21.3351 149.623C19.2696 148.77 16.8925 149.754 16.0401 151.82C15.1876 153.885 16.1712 156.246 18.2368 157.115C18.3679 157.169 18.5209 157.218 18.6958 157.262C18.8761 157.311 18.9909 157.492 18.9581 157.672C18.6958 159.41 18.6958 161.18 18.9581 162.934C18.9745 163.115 18.8597 163.279 18.6958 163.328C18.5155 163.377 18.3679 163.426 18.2204 163.492C16.1548 164.344 15.1712 166.705 16.0237 168.77C16.8761 170.836 19.2532 171.82 21.3188 170.967C21.4499 170.918 21.5974 170.852 21.7614 170.754C21.9089 170.672 22.122 170.705 22.2204 170.852C23.2696 172.279 24.5155 173.524 25.9417 174.574C26.0892 174.688 26.122 174.885 26.0401 175.049C25.9526 175.202 25.8816 175.35 25.8269 175.492C25.4007 176.475 25.4007 177.59 25.8106 178.59C26.2368 179.59 27.0073 180.361 28.0073 180.77C29.0073 181.197 30.1056 181.197 31.1056 180.787C32.1056 180.36 32.8925 179.59 33.3024 178.59C33.3515 178.459 33.4007 178.311 33.4499 178.131C33.5155 177.951 33.6794 177.836 33.8597 177.869C35.5974 178.131 37.3679 178.131 39.122 177.869C39.133 177.869 39.1494 177.869 39.1712 177.869ZM36.4991 168.869C35.4007 168.869 34.286 168.656 33.2204 168.213C31.122 167.328 29.4827 165.688 28.5974 163.574C27.7286 161.475 27.7286 159.147 28.6138 157.033C29.4827 154.934 31.122 153.279 33.2368 152.41C37.5974 150.606 42.6138 152.688 44.4007 157.049C46.204 161.41 44.122 166.41 39.7614 168.213C38.7122 168.656 37.6138 168.869 36.4991 168.869ZM36.4991 152.492C35.4991 152.492 34.4827 152.672 33.5155 153.082C31.581 153.885 30.0729 155.377 29.2696 157.311C28.4663 159.246 28.4663 161.377 29.2696 163.311C30.0729 165.229 31.5647 166.738 33.4991 167.541C35.4335 168.344 37.5647 168.344 39.4991 167.557C43.4827 165.901 45.3843 161.311 43.745 157.328C42.4991 154.311 39.5646 152.492 36.4991 152.492Z" fill="black"/>
</mask>
<g mask="url(#mask3_519_351)">
<path fill-rule="evenodd" clip-rule="evenodd" d="M43.4171 181.82C42.7942 181.82 42.1712 181.705 41.5974 181.459C40.4171 180.967 39.4991 180.049 39.0073 178.869C38.9745 178.792 38.9472 178.71 38.9253 178.623C37.3024 178.836 35.6794 178.836 34.0565 178.623C34.0237 178.71 33.9909 178.792 33.9581 178.869C33.4827 180.049 32.5647 180.967 31.3843 181.442C30.204 181.934 28.9089 181.934 27.7286 181.442C25.3024 180.426 24.1384 177.639 25.1548 175.213C25.1876 175.136 25.2259 175.054 25.2696 174.967C23.9745 173.983 22.8269 172.82 21.8269 171.524C21.7504 171.568 21.6739 171.606 21.5974 171.639C19.1548 172.639 16.3679 171.475 15.3679 169.049C14.3515 166.623 15.5155 163.82 17.9417 162.82C18.0291 162.787 18.1111 162.754 18.1876 162.721C17.9745 161.115 17.9745 159.475 18.204 157.869C18.1166 157.836 18.0346 157.803 17.9581 157.77C15.5319 156.77 14.3679 153.967 15.3843 151.541C16.3843 149.115 19.1876 147.951 21.6138 148.967C21.6903 149 21.7668 149.038 21.8433 149.082C22.8433 147.787 23.9909 146.623 25.286 145.639C25.2532 145.563 25.2204 145.486 25.1876 145.41C24.1712 142.967 25.3351 140.18 27.7778 139.164C30.204 138.164 32.9909 139.328 34.0073 141.754C34.0401 141.83 34.0674 141.912 34.0892 142C35.7122 141.787 37.3351 141.787 38.9581 142.016C38.9799 141.929 39.0073 141.847 39.0401 141.77C39.5319 140.59 40.4499 139.672 41.6302 139.18C42.8106 138.705 44.1056 138.705 45.286 139.18C47.7122 140.197 48.8597 143 47.8597 145.426C47.8269 145.503 47.7887 145.579 47.745 145.656C49.0401 146.656 50.1876 147.803 51.1876 149.098C51.2641 149.065 51.3406 149.033 51.4171 149C53.8433 147.983 56.6466 149.147 57.6466 151.574C58.6466 154.016 57.4991 156.803 55.0565 157.803C54.9799 157.836 54.898 157.869 54.8106 157.901C55.0237 159.524 55.0237 161.147 54.8106 162.754C54.898 162.787 54.9799 162.82 55.0565 162.852C57.4827 163.869 58.6466 166.656 57.6302 169.082C56.6302 171.524 53.8269 172.672 51.4007 171.672C51.3242 171.639 51.2422 171.601 51.1548 171.557C50.1712 172.852 49.0073 174 47.7122 174.983C47.7559 175.071 47.7942 175.153 47.827 175.229C48.3188 176.41 48.3188 177.705 47.827 178.885C47.3351 180.049 46.4171 180.967 45.2368 181.459C44.6466 181.705 44.0401 181.82 43.4171 181.82ZM39.1712 177.869C39.3351 177.869 39.4827 177.967 39.5155 178.131C39.5647 178.311 39.6138 178.459 39.6794 178.59C40.0892 179.59 40.8597 180.377 41.8597 180.787C42.8597 181.197 43.9581 181.213 44.9581 180.787C45.9581 180.377 46.745 179.606 47.1548 178.606C47.581 177.606 47.581 176.508 47.1548 175.508C47.1056 175.36 47.0401 175.229 46.9417 175.065C46.8597 174.901 46.8925 174.705 47.0401 174.59C48.4663 173.541 49.7122 172.295 50.7614 170.885C50.8761 170.738 51.0728 170.688 51.2368 170.787C51.3898 170.874 51.5373 170.945 51.6794 171C53.745 171.852 56.1056 170.869 56.9745 168.82C57.8269 166.754 56.8433 164.377 54.7778 163.524C54.6466 163.47 54.4936 163.415 54.3187 163.36C54.1384 163.311 54.0237 163.147 54.0565 162.967C54.3188 161.213 54.3188 159.442 54.0565 157.705C54.0401 157.524 54.1384 157.344 54.3187 157.295C54.4991 157.246 54.6466 157.197 54.7942 157.147C56.8433 156.295 57.8269 153.918 56.9745 151.852C56.122 149.787 53.7614 148.803 51.6958 149.656C51.5647 149.71 51.4171 149.787 51.2532 149.885C51.0892 149.967 50.8925 149.918 50.7778 149.77C49.745 148.36 48.4827 147.098 47.0728 146.049C46.9253 145.951 46.8761 145.754 46.9745 145.59C47.0565 145.426 47.1384 145.279 47.1876 145.147C48.0401 143.082 47.0565 140.705 45.0073 139.852C42.9417 139 40.5647 139.983 39.7122 142.033C39.6575 142.175 39.6029 142.333 39.5483 142.508C39.4991 142.688 39.3351 142.787 39.1548 142.77C37.4007 142.508 35.6302 142.508 33.8925 142.754C33.7122 142.787 33.5319 142.672 33.4991 142.508C33.4444 142.333 33.3898 142.175 33.3351 142.033C32.9253 141.033 32.1384 140.262 31.1384 139.836C30.1384 139.426 29.0401 139.426 28.0401 139.836C25.9745 140.688 24.9909 143.065 25.8433 145.131C25.898 145.262 25.9745 145.41 26.0729 145.574C26.1548 145.721 26.1056 145.934 25.9745 146.033C24.5483 147.082 23.286 148.328 22.2368 149.754C22.1384 149.901 21.9417 149.934 21.7778 149.852C21.6138 149.765 21.4663 149.688 21.3351 149.623C19.2696 148.77 16.8925 149.754 16.0401 151.82C15.1876 153.885 16.1712 156.246 18.2368 157.115C18.3679 157.169 18.5209 157.218 18.6958 157.262C18.8761 157.311 18.9909 157.492 18.9581 157.672C18.6958 159.41 18.6958 161.18 18.9581 162.934C18.9745 163.115 18.8597 163.279 18.6958 163.328C18.5155 163.377 18.3679 163.426 18.2204 163.492C16.1548 164.344 15.1712 166.705 16.0237 168.77C16.8761 170.836 19.2532 171.82 21.3188 170.967C21.4499 170.918 21.5974 170.852 21.7614 170.754C21.9089 170.672 22.122 170.705 22.2204 170.852C23.2696 172.279 24.5155 173.524 25.9417 174.574C26.0892 174.688 26.122 174.885 26.0401 175.049C25.9526 175.202 25.8816 175.35 25.8269 175.492C25.4007 176.475 25.4007 177.59 25.8106 178.59C26.2368 179.59 27.0073 180.361 28.0073 180.77C29.0073 181.197 30.1056 181.197 31.1056 180.787C32.1056 180.36 32.8925 179.59 33.3024 178.59C33.3515 178.459 33.4007 178.311 33.4499 178.131C33.5155 177.951 33.6794 177.836 33.8597 177.869C35.5974 178.131 37.3679 178.131 39.122 177.869C39.133 177.869 39.1494 177.869 39.1712 177.869ZM36.4991 168.869C35.4007 168.869 34.286 168.656 33.2204 168.213C31.122 167.328 29.4827 165.688 28.5974 163.574C27.7286 161.475 27.7286 159.147 28.6138 157.033C29.4827 154.934 31.122 153.279 33.2368 152.41C37.5974 150.606 42.6138 152.688 44.4007 157.049C46.204 161.41 44.122 166.41 39.7614 168.213C38.7122 168.656 37.6138 168.869 36.4991 168.869ZM36.4991 152.492C35.4991 152.492 34.4827 152.672 33.5155 153.082C31.581 153.885 30.0729 155.377 29.2696 157.311C28.4663 159.246 28.4663 161.377 29.2696 163.311C30.0729 165.229 31.5647 166.738 33.4991 167.541C35.4335 168.344 37.5647 168.344 39.4991 167.557C43.4827 165.901 45.3843 161.311 43.745 157.328C42.4991 154.311 39.5646 152.492 36.4991 152.492Z" stroke="#263238" stroke-width="0.4"/>
</g>
<path d="M116.024 389.639H254.319C261.45 389.639 267.269 383.82 267.269 376.688V103.311C267.269 96.1802 261.45 90.3606 254.319 90.3606H116.024C108.892 90.3606 103.073 96.1802 103.073 103.311V376.688C103.073 383.82 108.892 389.639 116.024 389.639Z" fill="white"/>
<path d="M116.023 390.1H254.318C261.718 390.1 267.73 384.088 267.73 376.689V103.311C267.73 95.9119 261.718 89.8999 254.318 89.8999H116.023C108.624 89.8999 102.612 95.9119 102.612 103.311V376.689C102.612 384.088 108.624 390.1 116.023 390.1ZM103.533 103.311C103.533 96.4158 109.128 90.8212 116.023 90.8212H254.318C261.214 90.8212 266.809 96.4158 266.809 103.311V376.689C266.809 383.584 261.214 389.179 254.318 389.179H116.023C109.128 389.179 103.533 383.584 103.533 376.689V103.311Z" fill="#263238" stroke="#263238" stroke-width="0.2"/>
<path d="M123.04 380.131H247.302C253.859 380.131 259.22 374.771 259.22 368.23V110.951C259.22 104.393 253.859 99.0327 247.302 99.0327H123.04C116.482 99.0327 111.122 104.393 111.122 110.951V368.23C111.122 374.771 116.482 380.131 123.04 380.131Z" fill="white"/>
<path d="M169.5 161L169 160L168.5 158.5L202.5 137L203 138L207.5 148.5L179.5 158.5L171.5 161.5L169.5 161Z" fill="#0487FF"/>
<path d="M123.04 380.592H247.302C254.128 380.592 259.681 375.055 259.681 368.229V110.951C259.681 104.125 254.128 98.572 247.302 98.572H123.04C116.214 98.572 110.661 104.125 110.661 110.951V368.229C110.661 375.055 116.214 380.592 123.04 380.592ZM111.583 110.951C111.583 104.629 116.718 99.4933 123.04 99.4933H247.302C253.624 99.4933 258.76 104.629 258.76 110.951V368.229C258.76 374.535 253.624 379.671 247.302 379.671H123.04C116.718 379.671 111.583 374.535 111.583 368.229V110.951Z" fill="#263238" stroke="#263238" stroke-width="0.2"/>
<path d="M200.564 107.869H167.925C167.728 107.869 167.564 107.705 167.564 107.508C167.564 107.312 167.728 107.148 167.925 107.148H200.564C200.761 107.148 200.925 107.312 200.925 107.508C200.925 107.705 200.761 107.869 200.564 107.869Z" fill="#263238"/>
<path d="M118.835 368.246V262.894H251.507V368.246C251.507 370.511 249.583 372.435 247.319 372.435H123.023C120.759 372.435 118.835 370.511 118.835 368.246Z" fill="#E9E9E9" stroke="#263238"/>
<path d="M79.4849 267C79.3359 267.496 61.6708 316.47 81.1405 340.683C100.627 364.896 147 348.691 147 348.691L137.083 277.147L79.4849 267Z" fill="white"/>
<mask id="path-24-outside-1_519_351" maskUnits="userSpaceOnUse" x="70.8999" y="263.9" width="77" height="91" fill="black">
<rect fill="white" x="70.8999" y="263.9" width="77" height="91"/>
<path d="M136.906 276.069L136.901 276.068L79.8518 265.909L79.8313 266.007L79.8488 265.908H79.8502M136.906 276.069L79.8502 265.908ZM81.0809 340.572L81.1592 340.51ZM81.0809 340.572L81.1592 340.51ZM81.0809 340.572C73.1878 330.656 70.3696 315.607 72.6825 295.858C74.3066 281.844 78.1448 269.789 79.2772 266.422M81.1592 340.51L79.3723 266.453ZM79.2772 266.422L79.2775 266.421L79.3723 266.453M79.2772 266.422L79.3723 266.453ZM79.2772 266.422C79.3061 266.331 79.3286 266.264 79.3434 266.23ZM79.3723 266.453C79.4051 266.35 79.4269 266.287 79.4378 266.264ZM79.3434 266.23C79.3426 266.233 79.3418 266.236 79.3411 266.239L79.4378 266.264M79.3434 266.23C79.4088 265.997 79.636 265.864 79.8502 265.908ZM79.3434 266.23C79.3449 266.227 79.3463 266.224 79.3476 266.221L79.4378 266.264M79.4378 266.264L79.8502 265.908ZM73.5861 295.984C75.1792 282.301 78.8858 270.492 80.0792 266.91L136.417 276.956L146.134 347.959C144.082 348.656 133.551 351.991 121.236 352.905C108.65 353.848 90.8675 352.894 81.0317 340.51C73.3339 330.809 71.3087 315.47 73.5861 295.984Z"/>
</mask>
<path d="M136.906 276.069L136.901 276.068L79.8518 265.909L79.8313 266.007L79.8488 265.908H79.8502M136.906 276.069L79.8502 265.908ZM81.0809 340.572L81.1592 340.51ZM81.0809 340.572L81.1592 340.51ZM81.0809 340.572C73.1878 330.656 70.3696 315.607 72.6825 295.858C74.3066 281.844 78.1448 269.789 79.2772 266.422M81.1592 340.51L79.3723 266.453ZM79.2772 266.422L79.2775 266.421L79.3723 266.453M79.2772 266.422L79.3723 266.453ZM79.2772 266.422C79.3061 266.331 79.3286 266.264 79.3434 266.23ZM79.3723 266.453C79.4051 266.35 79.4269 266.287 79.4378 266.264ZM79.3434 266.23C79.3426 266.233 79.3418 266.236 79.3411 266.239L79.4378 266.264M79.3434 266.23C79.4088 265.997 79.636 265.864 79.8502 265.908ZM79.3434 266.23C79.3449 266.227 79.3463 266.224 79.3476 266.221L79.4378 266.264M79.4378 266.264L79.8502 265.908ZM73.5861 295.984C75.1792 282.301 78.8858 270.492 80.0792 266.91L136.417 276.956L146.134 347.959C144.082 348.656 133.551 351.991 121.236 352.905C108.65 353.848 90.8675 352.894 81.0317 340.51C73.3339 330.809 71.3087 315.47 73.5861 295.984Z" fill="white"/>
<path d="M136.906 276.07H136.406V276.468L136.794 276.557L136.906 276.07ZM137.276 276.455L137.771 276.385L137.769 276.368L137.765 276.352L137.276 276.455ZM137.277 276.462L137.772 276.394L137.772 276.392L137.277 276.462ZM147.097 348.22L146.601 348.288L146.604 348.303L146.607 348.319L147.097 348.22ZM147.098 348.225L147.596 348.183L147.594 348.154L147.588 348.126L147.098 348.225ZM146.786 348.739L146.633 348.263L146.611 348.27L146.589 348.279L146.786 348.739ZM146.632 348.794L146.47 348.321L146.468 348.322L146.632 348.794ZM146.222 348.933L146.065 348.458L146.064 348.459L146.222 348.933ZM144.694 349.419L144.548 348.941L144.547 348.941L144.694 349.419ZM81.1592 340.51L81.5508 340.199L81.2404 339.808L80.8488 340.118L81.1592 340.51ZM136.406 276.069V276.07H137.406V276.069H136.406ZM136.794 276.557C136.788 276.556 136.785 276.553 136.784 276.553C136.784 276.553 136.786 276.554 136.787 276.558L137.765 276.352C137.687 275.982 137.405 275.672 137.018 275.583L136.794 276.557ZM136.781 276.525L136.782 276.532L137.772 276.392L137.771 276.385L136.781 276.525ZM136.781 276.53L146.601 348.288L147.592 348.152L137.772 276.394L136.781 276.53ZM146.607 348.319L146.608 348.324L147.588 348.126L147.587 348.121L146.607 348.319ZM146.6 348.267C146.6 348.274 146.6 348.28 146.599 348.284C146.598 348.289 146.597 348.29 146.598 348.289C146.598 348.287 146.602 348.282 146.608 348.277C146.616 348.271 146.624 348.266 146.633 348.263L146.939 349.215C147.423 349.06 147.63 348.586 147.596 348.183L146.6 348.267ZM146.589 348.279C146.594 348.277 146.595 348.277 146.589 348.279C146.583 348.282 146.575 348.285 146.563 348.289C146.54 348.297 146.509 348.308 146.47 348.321L146.794 349.267C146.863 349.243 146.94 349.217 146.983 349.199L146.589 348.279ZM146.468 348.322C146.375 348.354 146.24 348.4 146.065 348.458L146.379 349.408C146.56 349.348 146.699 349.3 146.796 349.266L146.468 348.322ZM146.064 348.459C145.714 348.575 145.202 348.741 144.548 348.941L144.84 349.897C145.502 349.695 146.022 349.527 146.38 349.407L146.064 348.459ZM144.547 348.941C143.238 349.343 141.359 349.883 139.054 350.454L139.294 351.424C141.619 350.849 143.516 350.303 144.841 349.897L144.547 348.941ZM112.5 352.655C100.782 352.655 89.9492 350.78 81.5508 340.199L80.7675 340.821C89.4519 351.762 100.676 353.655 112.5 353.655V352.655ZM81.3912 340.964L81.4695 340.902L80.8488 340.118L80.7705 340.18L81.3912 340.964ZM136.906 276.069L136.731 277.054L137.103 275.089L136.906 276.069ZM136.901 276.068L137.098 275.088L137.087 275.085L137.076 275.084L136.901 276.068ZM79.8518 265.909L80.0271 264.925L79.0717 264.754L78.873 265.704L79.8518 265.909ZM79.8313 266.007L78.8465 265.833L80.8101 266.212L79.8313 266.007ZM79.8488 265.908V264.908H79.01L78.864 265.734L79.8488 265.908ZM72.6825 295.858L73.6757 295.974L73.6758 295.973L72.6825 295.858ZM79.2775 266.421L79.5974 265.474L78.6197 265.143L78.3204 266.131L79.2775 266.421ZM79.3411 266.239L78.3672 266.012L78.1453 266.963L79.0908 267.207L79.3411 266.239ZM79.3476 266.221L79.7779 265.318L78.8422 264.872L78.43 265.823L79.3476 266.221ZM73.5861 295.984L74.5793 296.1L74.5794 296.1L73.5861 295.984ZM80.0792 266.91L80.2547 265.926L79.4037 265.774L79.1304 266.594L80.0792 266.91ZM136.417 276.956L137.408 276.82L137.309 276.099L136.592 275.972L136.417 276.956ZM146.134 347.959L146.455 348.906L147.236 348.641L147.125 347.823L146.134 347.959ZM121.236 352.905L121.162 351.908L121.161 351.908L121.236 352.905ZM81.0317 340.51L80.2483 341.132L80.2486 341.132L81.0317 340.51ZM137.103 275.089L137.098 275.088L136.704 277.048L136.709 277.049L137.103 275.089ZM137.076 275.084L80.0271 264.925L79.6765 266.894L136.726 277.053L137.076 275.084ZM78.873 265.704L78.8525 265.802L80.8101 266.212L80.8306 266.114L78.873 265.704ZM80.816 266.181L80.8335 266.082L78.864 265.734L78.8465 265.833L80.816 266.181ZM79.8488 266.908H79.8502V264.908H79.8488V266.908ZM137.081 275.085L80.0255 264.924L79.6748 266.893L136.731 277.054L137.081 275.085ZM81.8633 339.949C74.2098 330.334 71.3766 315.606 73.6757 295.974L71.6893 295.742C69.3626 315.608 72.1657 330.978 80.2985 341.195L81.8633 339.949ZM73.6758 295.973C75.2883 282.059 79.1021 270.08 80.225 266.741L78.3293 266.103C77.1874 269.499 73.3248 281.629 71.6891 295.743L73.6758 295.973ZM82.1589 340.486L80.372 266.429L78.3726 266.477L80.1595 340.534L82.1589 340.486ZM80.2342 266.712L80.2345 266.711L78.3204 266.131L78.3201 266.132L80.2342 266.712ZM78.9575 267.368L79.0523 267.4L79.6922 265.506L79.5974 265.474L78.9575 267.368ZM78.9672 267.373L79.0623 267.404L79.6822 265.502L79.5871 265.471L78.9672 267.373ZM80.2303 266.725C80.2438 266.682 80.2541 266.651 80.2616 266.629C80.2653 266.618 80.2674 266.612 80.2681 266.61C80.2693 266.607 80.2665 266.615 80.2603 266.629L78.4265 265.831C78.3868 265.922 78.3483 266.043 78.3241 266.119L80.2303 266.725ZM80.3251 266.756C80.3404 266.709 80.3511 266.676 80.3581 266.656C80.3616 266.646 80.3629 266.643 80.3622 266.644C80.3618 266.645 80.3602 266.65 80.3575 266.656C80.355 266.662 80.3496 266.675 80.3414 266.692L78.5341 265.836C78.4875 265.934 78.4435 266.074 78.4194 266.15L80.3251 266.756ZM78.3771 265.972C78.3767 265.974 78.372 265.991 78.3672 266.012L80.3149 266.466C80.313 266.474 80.3114 266.481 80.3106 266.484C80.3098 266.487 80.3092 266.489 80.3096 266.488L78.3771 265.972ZM79.0908 267.207L79.1875 267.232L79.688 265.296L79.5913 265.271L79.0908 267.207ZM80.3062 266.5C80.2335 266.759 79.9624 266.952 79.649 266.888L80.0514 264.928C79.3095 264.776 78.584 265.235 78.3806 265.96L80.3062 266.5ZM80.2378 266.677C80.247 266.659 80.2562 266.639 80.2651 266.619L78.43 265.823C78.4363 265.809 78.4427 265.795 78.4489 265.783L80.2378 266.677ZM78.9172 267.124L79.0074 267.167L79.8681 265.361L79.7779 265.318L78.9172 267.124ZM80.0912 267.021L80.5036 266.665L79.1967 265.151L78.7843 265.507L80.0912 267.021ZM74.5794 296.1C76.161 282.515 79.8439 270.78 81.0279 267.226L79.1304 266.594C77.9276 270.204 74.1973 282.087 72.5928 295.868L74.5794 296.1ZM79.9036 267.894L136.241 277.94L136.592 275.972L80.2547 265.926L79.9036 267.894ZM135.426 277.092L145.143 348.095L147.125 347.823L137.408 276.82L135.426 277.092ZM145.812 347.012C143.799 347.696 133.358 351.003 121.162 351.908L121.31 353.902C133.744 352.979 144.364 349.616 146.455 348.906L145.812 347.012ZM121.161 351.908C114.918 352.376 107.438 352.368 100.327 350.731C93.2209 349.095 86.5487 345.849 81.8147 339.888L80.2486 341.132C85.3504 347.555 92.4873 350.978 99.8781 352.68C107.264 354.38 114.968 354.377 121.311 353.902L121.161 351.908ZM81.815 339.888C74.3745 330.512 72.3097 315.519 74.5793 296.1L72.5928 295.868C70.3076 315.421 72.2932 331.106 80.2483 341.132L81.815 339.888Z" fill="#263238" mask="url(#path-24-outside-1_519_351)"/>
<path d="M92.6665 229.205C100.066 211.033 117.718 199.156 137.334 199.189C161.916 199.222 197.256 200.107 230.54 203.923C252.223 206.41 270.72 220.811 278.375 241.241V241.242C278.54 241.68 278.715 242.145 278.898 242.634C281.507 249.566 285.888 261.209 287.71 269.325L208.572 289.626L150.453 284.618L74.7466 275.108C74.8006 274.964 74.864 274.796 74.9365 274.603C75.2054 273.889 75.5995 272.844 76.1004 271.522C77.1022 268.877 78.5312 265.123 80.2398 260.682C83.6573 251.8 88.1928 240.177 92.6665 229.205Z" fill="#E9E9E9" stroke="#263238"/>
<path d="M266.867 331.399L266.866 331.398L227.335 292.373L228.777 254.982L256.633 232.205L308.348 292.833C316.982 302.965 317.401 317.738 309.362 328.354C299.02 341.999 279.045 343.432 266.867 331.399Z" fill="white" stroke="#263238"/>
<path d="M286.777 340.426C279.122 340.426 271.745 337.426 266.253 332.016L226.581 292.836C226.515 292.754 226.466 292.656 226.466 292.557L227.925 254.721C227.925 254.623 227.974 254.525 228.056 254.459L256.466 231.229C256.63 231.098 256.859 231.131 256.974 231.279C257.105 231.426 257.089 231.656 256.925 231.787L228.646 254.918L227.204 292.426L266.761 331.492C272.597 337.262 280.63 340.23 288.81 339.639C296.99 339.049 304.531 334.967 309.482 328.426C317.499 317.852 317.056 302.852 308.449 292.754L287.253 267.885C287.122 267.738 287.138 267.508 287.285 267.377C287.449 267.246 287.679 267.262 287.794 267.426L308.99 292.279C313.302 297.328 315.777 303.754 315.974 310.393C316.154 317.016 314.056 323.574 310.056 328.869C304.974 335.574 297.253 339.754 288.859 340.361C288.16 340.404 287.466 340.426 286.777 340.426Z" fill="#263238"/>
<path d="M275.556 313.65L275.557 313.652C275.638 313.814 275.802 313.92 275.974 313.92C276.042 313.92 276.109 313.906 276.175 313.88L276.179 313.878C276.418 313.77 276.493 313.476 276.393 313.254L276.392 313.252L265.179 289.924L265.176 289.92C265.052 289.692 264.782 289.609 264.555 289.713C264.319 289.82 264.24 290.096 264.342 290.32L264.343 290.322L275.556 313.65Z" fill="#263238" stroke="#263238" stroke-width="0.2"/>
<path d="M262.72 339.55H128.359V226.763H262.72V339.55Z" fill="white" stroke="#263238"/>
<path d="M263.22 340.41H127.86C127.647 340.41 127.499 340.246 127.499 340.05V282.214C127.499 282.017 127.647 281.853 127.86 281.853C128.056 281.853 128.22 282.017 128.22 282.214V339.689H262.86V287.804C262.86 287.607 263.024 287.443 263.22 287.443C263.417 287.443 263.581 287.607 263.581 287.804V340.05C263.581 340.246 263.417 340.41 263.22 340.41Z" fill="#263238"/>
<path d="M226.661 327.525C226.661 327.774 226.851 327.986 227.122 327.986C227.374 327.986 227.583 327.777 227.583 327.525V230.41C227.583 230.158 227.374 229.95 227.122 229.95C226.851 229.95 226.661 230.161 226.661 230.41V327.525Z" fill="#263238" stroke="#263238" stroke-width="0.2"/>
<path fill-rule="evenodd" clip-rule="evenodd" d="M182.515 261.328H137.958C137.745 261.328 137.597 261.165 137.597 260.968V237.656C137.597 237.46 137.745 237.296 137.958 237.296H182.515C182.712 237.296 182.876 237.46 182.876 237.656V260.968C182.876 261.165 182.712 261.328 182.515 261.328ZM138.318 260.607H182.155V238.017H138.318V260.607Z" fill="#263238"/>
<path d="M144.171 257.984C143.974 257.984 143.81 257.837 143.81 257.624V240.984C143.81 240.787 143.974 240.624 144.171 240.624C144.367 240.624 144.531 240.787 144.531 240.984V257.624C144.531 257.837 144.367 257.984 144.171 257.984Z" fill="#263238"/>
<path d="M150.597 257.984C150.4 257.984 150.236 257.837 150.236 257.624V240.984C150.236 240.787 150.4 240.624 150.597 240.624C150.794 240.624 150.958 240.787 150.958 240.984V257.624C150.958 257.837 150.794 257.984 150.597 257.984Z" fill="#263238"/>
<path d="M157.023 257.984C156.81 257.984 156.663 257.837 156.663 257.624V240.984C156.663 240.787 156.81 240.624 157.023 240.624C157.22 240.624 157.384 240.787 157.384 240.984V257.624C157.384 257.837 157.22 257.984 157.023 257.984Z" fill="#263238"/>
<path d="M163.45 257.984C163.236 257.984 163.089 257.837 163.089 257.624V240.984C163.089 240.787 163.236 240.624 163.45 240.624C163.646 240.624 163.81 240.787 163.81 240.984V257.624C163.81 257.837 163.646 257.984 163.45 257.984Z" fill="#263238"/>
<path d="M169.859 257.984C169.662 257.984 169.499 257.837 169.499 257.624V240.984C169.499 240.787 169.662 240.624 169.859 240.624C170.072 240.624 170.22 240.787 170.22 240.984V257.624C170.22 257.837 170.072 257.984 169.859 257.984Z" fill="#263238"/>
<path d="M176.285 257.984C176.089 257.984 175.925 257.837 175.925 257.624V240.984C175.925 240.787 176.089 240.624 176.285 240.624C176.499 240.624 176.646 240.787 176.646 240.984V257.624C176.646 257.837 176.499 257.984 176.285 257.984Z" fill="#263238"/>
<path d="M264.842 286.718C264.392 287.013 264.006 287.235 263.707 287.393L263.376 267.5L263.371 267.181L263.079 267.052C256.44 264.106 254.078 261.335 253.317 259.411C252.937 258.453 252.945 257.681 253.036 257.161C253.082 256.899 253.15 256.698 253.204 256.567C253.231 256.501 253.254 256.453 253.27 256.424C253.277 256.409 253.283 256.399 253.285 256.394L253.287 256.391L253.5 256.046L253.201 255.766C250.268 253.025 250.06 251.085 250.396 249.915C250.571 249.304 250.91 248.838 251.213 248.521C251.364 248.364 251.503 248.246 251.602 248.169C251.651 248.13 251.69 248.103 251.716 248.085C251.728 248.076 251.737 248.07 251.743 248.067L251.747 248.064C251.748 248.064 251.748 248.064 251.747 248.064L252.177 247.798L251.904 247.371C250.743 245.548 250.381 244.237 250.417 243.308C250.452 242.408 250.863 241.808 251.414 241.387C251.981 240.953 252.699 240.71 253.301 240.578C253.597 240.513 253.856 240.477 254.04 240.457C254.131 240.447 254.204 240.442 254.252 240.438C254.276 240.437 254.294 240.436 254.305 240.435H254.317H254.319L254.923 240.415L254.79 239.825C254.64 239.159 254.79 238.721 255.091 238.421C255.42 238.094 256.008 237.853 256.876 237.782C258.606 237.64 261.177 238.201 264.018 239.581C264.183 239.661 264.348 239.741 264.513 239.821C267.258 241.147 270.004 242.473 272.077 245.583C274.278 248.885 275.76 254.274 275.442 263.968C275.118 273.586 271.978 279.526 268.956 283.054C267.441 284.822 265.949 285.992 264.842 286.718Z" fill="white"/>
<path d="M251.747 248.064L251.743 248.067C251.737 248.07 251.728 248.076 251.716 248.085C251.69 248.103 251.651 248.13 251.602 248.169C251.503 248.246 251.364 248.364 251.213 248.521C250.91 248.838 250.571 249.304 250.396 249.915C250.06 251.085 250.268 253.025 253.201 255.766L253.5 256.046L253.287 256.391L253.285 256.394C253.283 256.399 253.277 256.409 253.27 256.424C253.254 256.453 253.231 256.501 253.204 256.567C253.15 256.698 253.082 256.899 253.036 257.161C252.945 257.681 252.937 258.453 253.317 259.411C254.078 261.335 256.44 264.106 263.079 267.052L263.371 267.181L263.376 267.5L263.707 287.393C264.006 287.235 264.392 287.013 264.842 286.718C265.949 285.992 267.441 284.822 268.956 283.054C271.978 279.526 275.118 273.586 275.442 263.968C275.76 254.274 274.278 248.885 272.077 245.583C270.004 242.473 267.258 241.147 264.513 239.821C264.348 239.741 264.183 239.661 264.018 239.581C261.177 238.201 258.606 237.64 256.876 237.782C256.008 237.853 255.42 238.094 255.091 238.421C254.79 238.721 254.64 239.159 254.79 239.825L254.923 240.415L254.319 240.435H254.317H254.305C254.294 240.436 254.276 240.437 254.252 240.438C254.204 240.442 254.131 240.447 254.04 240.457C253.856 240.477 253.597 240.513 253.301 240.578C252.699 240.71 251.981 240.953 251.414 241.387C250.863 241.808 250.452 242.408 250.417 243.308C250.381 244.237 250.743 245.548 251.904 247.371L252.177 247.798L251.747 248.064ZM251.747 248.064C251.748 248.064 251.748 248.064 251.747 248.064Z" stroke="#263238"/>
<path d="M269.204 262.576C269.149 262.576 269.089 262.56 269.023 262.527C265.318 260.33 261.466 258.281 257.564 256.461C256.794 256.101 256.154 255.822 255.466 255.74C254.712 255.658 254.023 255.871 253.63 256.314C253.499 256.461 253.269 256.478 253.122 256.346C252.974 256.215 252.958 255.986 253.089 255.838C253.646 255.215 254.564 254.92 255.548 255.019C256.417 255.117 257.22 255.494 257.859 255.805C261.794 257.642 265.663 259.691 269.4 261.904C269.564 262.002 269.614 262.232 269.515 262.396C269.45 262.51 269.335 262.576 269.204 262.576Z" fill="#263238"/>
<path d="M269.105 255.424C269.051 255.424 268.996 255.408 268.941 255.375L256.794 248.9C255.941 248.457 255.073 247.982 254.122 247.801C253.138 247.604 252.204 247.785 251.581 248.293C251.433 248.424 251.204 248.391 251.089 248.244C250.958 248.096 250.974 247.867 251.122 247.736C251.909 247.08 253.056 246.85 254.269 247.096C255.302 247.293 256.236 247.785 257.122 248.26L269.269 254.736C269.45 254.834 269.515 255.047 269.417 255.227C269.351 255.342 269.236 255.424 269.105 255.424Z" fill="#263238"/>
<path d="M271.379 248.782C271.314 248.782 271.248 248.766 271.182 248.716C266.002 245.126 260.314 242.438 254.264 240.7C254.068 240.651 253.953 240.454 254.019 240.257C254.068 240.077 254.264 239.962 254.461 240.011C260.592 241.766 266.346 244.487 271.592 248.126C271.756 248.241 271.789 248.47 271.674 248.634C271.609 248.733 271.494 248.782 271.379 248.782Z" fill="#263238"/>
<mask id="mask4_519_351" style="mask-type:luminance" maskUnits="userSpaceOnUse" x="109" y="305" width="140" height="49">
<path d="M249 305H109V354H249V305Z" fill="white"/>
</mask>
<g mask="url(#mask4_519_351)">
<path d="M200.934 316.426C200.466 316.601 200.466 316.601 200.466 316.601V316.603L200.468 316.606L200.472 316.618L200.489 316.661C200.504 316.698 200.525 316.751 200.554 316.819C200.612 316.956 200.7 317.155 200.822 317.408C201.065 317.915 201.443 318.641 201.988 319.53C203.079 321.309 204.838 323.742 207.522 326.382C212.892 331.668 221.946 337.77 236.708 341.143L236.763 341.155H236.819H247.749C247.65 341.357 247.521 341.599 247.358 341.872C246.852 342.722 246.015 343.874 244.702 345.054C242.085 347.406 237.541 349.899 229.86 350.287C216.572 350.959 138.155 353.172 115.461 353.795C107.647 354.022 99.8863 352.189 93.1345 348.304L93.1336 348.303C84.5365 343.379 76.3759 335.335 73.5 318.37L107 308.48L107.016 308.479L107.244 308.47L108.135 308.432C108.916 308.399 110.061 308.351 111.519 308.292C114.436 308.173 118.607 308.006 123.622 307.817C133.651 307.438 147.056 306.967 160.556 306.6C174.058 306.232 187.652 305.967 198.062 306C203.268 306.017 207.67 306.108 210.864 306.297C212.462 306.391 213.747 306.51 214.674 306.654C215.138 306.726 215.499 306.802 215.76 306.881C216.026 306.96 216.115 307.022 216.126 307.03C216.875 307.829 217.264 308.542 217.289 309.181C217.312 309.782 217.013 310.46 216.026 311.215C215.031 311.976 213.397 312.763 210.91 313.559C208.43 314.352 205.135 315.145 200.844 315.934L200.257 316.042L200.466 316.601L200.934 316.426Z" fill="white"/>
<path d="M200.466 316.601C200.466 316.601 200.466 316.601 200.934 316.426L200.466 316.601ZM200.466 316.601V316.603L200.468 316.606L200.472 316.618L200.489 316.661C200.504 316.698 200.525 316.751 200.554 316.819C200.612 316.956 200.7 317.155 200.822 317.408C201.065 317.915 201.443 318.641 201.988 319.53C203.079 321.309 204.838 323.742 207.522 326.382C212.892 331.668 221.946 337.77 236.708 341.143L236.763 341.155H236.819H247.749C247.65 341.357 247.521 341.599 247.358 341.872C246.852 342.722 246.015 343.874 244.702 345.054C242.085 347.406 237.541 349.899 229.86 350.287C216.572 350.959 138.155 353.172 115.461 353.795C107.647 354.022 99.8863 352.189 93.1345 348.304L93.1336 348.303C84.5365 343.379 76.3759 335.335 73.5 318.37L107 308.48L107.016 308.479L107.244 308.47L108.135 308.432C108.916 308.399 110.061 308.351 111.519 308.292C114.436 308.173 118.607 308.006 123.622 307.817C133.651 307.438 147.056 306.967 160.556 306.6C174.058 306.232 187.652 305.967 198.062 306C203.268 306.017 207.67 306.108 210.864 306.297C212.462 306.391 213.747 306.51 214.674 306.654C215.138 306.726 215.499 306.802 215.76 306.881C216.026 306.96 216.115 307.022 216.126 307.03M200.466 316.601L200.257 316.042L200.844 315.934C205.135 315.145 208.43 314.352 210.91 313.559C213.397 312.763 215.031 311.976 216.026 311.215C217.013 310.46 217.312 309.782 217.289 309.181C217.264 308.542 216.875 307.829 216.126 307.03M216.126 307.03L217.057 306.5" stroke="#263238"/>
</g>
<path d="M168 161L151.859 173.263C148.745 175.574 149.515 180.509 153.22 181.673C154.237 181.984 155.417 182.197 156.777 182.296C156.335 185.525 158.827 188.394 162.073 188.427C166.991 188.476 173.4 188.492 175.548 188.361L185.81 163.328L168 161Z" fill="#263238"/>
<path d="M198.701 181.574C198.704 181.578 198.707 181.581 198.71 181.584L197.786 201.239L197.78 201.378L197.845 201.499V201.5L197.846 201.501L197.853 201.514C197.859 201.527 197.869 201.546 197.882 201.573C197.908 201.627 197.945 201.707 197.989 201.811C198.077 202.02 198.189 202.32 198.282 202.678C198.472 203.402 198.577 204.325 198.307 205.218C198.043 206.09 197.405 206.989 195.995 207.665C194.566 208.35 192.338 208.807 188.92 208.73C182.1 208.585 177.323 206.444 174.258 204.354C172.723 203.307 171.615 202.272 170.893 201.501C170.532 201.116 170.268 200.798 170.095 200.578C170.037 200.504 169.989 200.441 169.952 200.39L173.574 168.817C179.322 168.079 185.539 171.167 190.428 174.576C192.91 176.307 195.02 178.099 196.509 179.459C197.253 180.139 197.841 180.71 198.243 181.11C198.443 181.31 198.597 181.467 198.701 181.574Z" fill="white" stroke="#263238"/>
<path d="M169.433 200.886C169.422 200.886 169.406 200.886 169.384 200.886C169.187 200.869 169.056 200.689 169.073 200.492L172.761 168.345C172.778 168.181 172.892 168.05 173.056 168.033C185.22 166.099 198.909 180.525 199.483 181.148C199.614 181.295 199.614 181.525 199.466 181.656C199.319 181.787 199.089 181.787 198.958 181.64C198.827 181.492 185.171 167.082 173.433 168.705L169.794 200.574C169.778 200.755 169.614 200.886 169.433 200.886Z" fill="#263238"/>
<path d="M198.286 201.623C198.286 201.623 198.28 201.623 198.27 201.623C198.073 201.607 197.925 201.443 197.925 201.246L198.86 181.377C198.876 181.181 199.04 181.017 199.237 181.033C199.433 181.033 199.597 181.213 199.581 181.41L198.647 201.279C198.647 201.459 198.483 201.623 198.286 201.623Z" fill="#263238"/>
<path d="M207.236 152.607C207.236 152.607 217.089 178.098 201.777 186.279C186.482 194.475 173.876 174.115 173.122 172.066C172.351 170.033 170.4 161 170.4 161L199.056 150.721L204.974 151.557L207.236 152.607Z" fill="white"/>
<path fill-rule="evenodd" clip-rule="evenodd" d="M194.417 188.574C192.526 188.574 190.625 188.213 188.712 187.492C179.401 183.984 173.188 173.295 172.778 172.197C172.007 170.164 170.122 161.443 170.04 161.066C170.007 160.902 170.106 160.722 170.269 160.656L198.942 150.377C198.996 150.366 199.051 150.361 199.106 150.361L205.024 151.213C205.056 151.213 205.089 151.219 205.122 151.23L207.401 152.279C207.483 152.328 207.548 152.394 207.581 152.476C207.597 152.541 210.056 158.984 210.614 166.345C211.335 176.181 208.351 183.181 201.958 186.607C199.499 187.918 196.974 188.574 194.417 188.574ZM170.81 161.23C171.171 162.836 172.794 170.164 173.45 171.951C173.86 173.017 179.892 183.394 188.958 186.82C193.269 188.443 197.515 188.164 201.614 185.968C215.892 178.328 207.696 154.886 206.958 152.869L204.876 151.918L199.089 151.099L170.81 161.23Z" fill="#263238"/>
<path d="M206.548 148.918C206.548 148.918 214.876 147.41 214.236 153.164C213.597 158.902 202.909 157.836 199.056 152.754L206.548 148.918Z" fill="#263238"/>
<path d="M202.966 138.247C199.015 128.755 187.998 124.395 178.621 128.608C176.703 129.477 174.703 130.542 172.671 131.87C165.425 136.592 162.294 145.641 164.917 153.887L167.257 161.262L167.733 161.109M202.966 138.247L207.183 148.407ZM167.733 161.109L167.884 161.586L206.898 149.024L206.706 148.561M167.733 161.109L206.706 148.561ZM206.706 148.561L207.183 148.407Z" fill="#0487FF"/>
<path d="M167.733 161.109L167.257 161.262L164.917 153.887C162.294 145.641 165.425 136.592 172.671 131.87C174.703 130.542 176.703 129.477 178.621 128.608C187.998 124.395 199.015 128.755 202.966 138.247L207.183 148.407L206.706 148.561M167.733 161.109L167.884 161.586L206.898 149.024L206.706 148.561M167.733 161.109L206.706 148.561" stroke="#263238"/>
<path fill-rule="evenodd" clip-rule="evenodd" d="M179.581 156.722C179.466 156.722 179.335 156.656 179.27 156.541C174.86 149.23 170.729 139.082 176.024 132.361C176.089 132.279 176.171 132.197 176.204 132.148C176.22 132.033 176.302 131.935 176.401 131.886C176.581 131.804 176.794 131.886 176.876 132.066C176.991 132.312 176.843 132.492 176.597 132.804C171.548 139.213 175.597 149.05 179.892 156.164C179.991 156.345 179.942 156.558 179.761 156.672C179.707 156.705 179.647 156.722 179.581 156.722Z" fill="#263238"/>
<path d="M168.561 161.887L218.354 143.997C218.354 143.996 218.354 143.996 218.355 143.996C218.984 143.776 219.657 144.104 219.861 144.716L219.864 144.726C220.081 145.329 219.749 146.009 219.142 146.215L170.433 162.789L168.561 161.887Z" fill="#5479F7" stroke="#263238"/>
<path d="M173.122 165.131C173.122 165.131 171.122 157.738 165.236 162.721C159.351 167.705 169.138 178.574 176.122 174.246L173.122 165.131Z" fill="white"/>
<path d="M172.614 175.607C169.565 175.607 166.581 173.705 164.761 171.213C162.417 168 162.515 164.558 165.007 162.443C166.843 160.885 168.532 160.328 170.007 160.787C172.499 161.574 173.417 164.902 173.466 165.033C173.515 165.23 173.401 165.426 173.204 165.476C173.024 165.541 172.81 165.426 172.761 165.23C172.761 165.197 171.909 162.131 169.794 161.476C168.565 161.098 167.106 161.607 165.466 163C162.827 165.23 163.679 168.492 165.351 170.803C167.712 174.033 172.22 176.246 175.925 173.951C176.106 173.836 176.319 173.885 176.433 174.066C176.532 174.23 176.483 174.459 176.319 174.558C175.122 175.295 173.86 175.607 172.614 175.607Z" fill="#263238"/>
<path d="M173.515 171.541C173.368 171.541 173.236 171.459 173.187 171.328C172.4 169.443 170.22 168.262 168.236 168.623C168.04 168.656 167.843 168.525 167.81 168.328C167.777 168.131 167.909 167.951 168.105 167.918C170.286 167.525 172.63 168.705 173.663 170.656C173.706 170.7 173.739 170.749 173.761 170.803L173.859 171.066C173.925 171.246 173.827 171.459 173.646 171.525C173.603 171.536 173.559 171.541 173.515 171.541Z" fill="#263238"/>
<path d="M358.958 138.754C358.958 151.524 348.597 161.885 335.81 161.885C323.04 161.885 312.679 151.524 312.679 138.754C312.679 125.967 323.04 115.606 335.81 115.606C348.597 115.606 358.958 125.967 358.958 138.754Z" fill="#0487FF"/>
<path d="M332.958 152.705C332.947 152.705 332.942 152.705 332.942 152.705C332.351 152.688 331.778 152.393 331.45 151.902L322.302 138.147C321.745 137.311 321.974 136.197 322.81 135.639C323.63 135.098 324.761 135.328 325.302 136.147L332.974 147.672L347.171 126.787C347.728 125.967 348.843 125.738 349.663 126.311C350.499 126.869 350.712 127.984 350.155 128.803L334.45 151.902C334.105 152.41 333.548 152.705 332.958 152.705Z" fill="white"/>
<path d="M336.237 164.737C336.237 164.485 336.237 164.457 336.237 164.277C336.237 164.531 336.238 164.485 336.237 164.737Z" fill="#263238"/>
<path d="M336.237 164.737L336.5 230M336.237 164.737C336.237 164.485 336.237 164.457 336.237 164.277C336.237 164.531 336.238 164.485 336.237 164.737ZM336.5 230H281.058C280.806 230 280 230 279.5 230M336.5 230H279.5M279.5 230C279.248 230 280.5 230 279.5 230Z" stroke="#263238" stroke-linejoin="round"/>
<path d="M356.761 389H449.827V314.115H356.761V389Z" fill="white"/>
<path fill-rule="evenodd" clip-rule="evenodd" d="M449.827 389.361H356.762C356.565 389.361 356.401 389.213 356.401 389V314.115C356.401 313.918 356.565 313.754 356.762 313.754H449.827C450.04 313.754 450.188 313.918 450.188 314.115V389C450.188 389.213 450.04 389.361 449.827 389.361ZM357.122 388.64H449.466V314.476H357.122V388.64Z" fill="#263238"/>
<path d="M325.384 389H367.827V314.115H325.384V389Z" fill="white"/>
<path fill-rule="evenodd" clip-rule="evenodd" d="M367.827 389.361H325.385C325.171 389.361 325.024 389.213 325.024 389V314.115C325.024 313.918 325.171 313.754 325.385 313.754H367.827C368.024 313.754 368.188 313.918 368.188 314.115V389C368.188 389.213 368.024 389.361 367.827 389.361ZM325.745 388.64H367.467V314.476H325.745V388.64Z" fill="#263238"/>
<path d="M413.909 314.41L413.926 339.344H402.057V314.377L413.909 314.41Z" fill="#0487FF"/>
<path d="M349.483 314.41L349.499 339.344H340.368L340.385 314.377L349.483 314.41Z" fill="#0487FF"/>
<path d="M370.794 314.115H464.089V245.132H370.794V314.115Z" fill="white"/>
<path fill-rule="evenodd" clip-rule="evenodd" d="M464.089 314.476H370.794C370.581 314.476 370.434 314.312 370.434 314.115V245.132C370.434 244.935 370.581 244.771 370.794 244.771H464.089C464.302 244.771 464.45 244.935 464.45 245.132V314.115C464.45 314.312 464.302 314.476 464.089 314.476ZM371.155 313.754H463.729V245.492H371.155V313.754Z" fill="#263238"/>
<path d="M339.319 314.115H381.876V245.132H339.319V314.115Z" fill="white"/>
<path fill-rule="evenodd" clip-rule="evenodd" d="M381.876 314.476H339.319C339.122 314.476 338.958 314.312 338.958 314.115V245.131C338.958 244.935 339.122 244.771 339.319 244.771H381.876C382.073 244.771 382.237 244.935 382.237 245.131V314.115C382.237 314.312 382.073 314.476 381.876 314.476ZM339.679 313.754H381.515V245.492H339.679V313.754Z" fill="#263238"/>
<path d="M428.073 245.377L428.089 271.426H416.188L416.204 245.361L428.073 245.377Z" fill="#0487FF"/>
<path d="M363.483 245.459L363.499 271.525H354.352V245.443L363.483 245.459Z" fill="#0487FF"/>
</g>
</g>
</g>
<defs>
<clipPath id="clip0_519_351">
<rect width="480" height="480" fill="white"/>
</clipPath>
</defs>
</svg>
