<svg width="480" height="480" viewBox="0 0 480 480" fill="none" xmlns="http://www.w3.org/2000/svg">
<g clip-path="url(#clip0_519_2255)">
<mask id="mask0_519_2255" style="mask-type:luminance" maskUnits="userSpaceOnUse" x="0" y="0" width="480" height="480">
<path d="M480 0H0V480H480V0Z" fill="white"/>
</mask>
<g mask="url(#mask0_519_2255)">
<mask id="mask1_519_2255" style="mask-type:luminance" maskUnits="userSpaceOnUse" x="0" y="0" width="480" height="480">
<path d="M456 0H24C10.7452 0 0 10.7452 0 24V456C0 469.255 10.7452 480 24 480H456C469.255 480 480 469.255 480 456V24C480 10.7452 469.255 0 456 0Z" fill="white"/>
</mask>
<g mask="url(#mask1_519_2255)">
<mask id="mask2_519_2255" style="mask-type:luminance" maskUnits="userSpaceOnUse" x="0" y="0" width="480" height="480">
<path d="M456 0H24C10.7452 0 0 10.7452 0 24V456C0 469.255 10.7452 480 24 480H456C469.255 480 480 469.255 480 456V24C480 10.7452 469.255 0 456 0Z" fill="white"/>
</mask>
<g mask="url(#mask2_519_2255)">
<path d="M456 0H24C10.7452 0 0 10.7452 0 24V456C0 469.255 10.7452 480 24 480H456C469.255 480 480 469.255 480 456V24C480 10.7452 469.255 0 456 0Z" fill="#E6F3FF"/>
<path d="M298.016 111.234C290.093 111.234 283.646 104.787 283.646 96.864C283.646 88.9408 290.093 82.4944 298.016 82.4944C305.939 82.4944 312.386 88.9408 312.386 96.864C312.386 104.787 305.939 111.234 298.016 111.234ZM298.016 85.6944C291.858 85.6944 286.846 90.7048 286.846 96.864C286.846 103.023 291.858 108.034 298.016 108.034C304.174 108.034 309.186 103.023 309.186 96.864C309.186 90.7048 304.174 85.6944 298.016 85.6944Z" fill="#52D180"/>
<path d="M68.7512 243.574C64.7896 243.574 61.5664 240.35 61.5664 236.389C61.5664 232.427 64.7896 229.204 68.7512 229.204C72.7128 229.204 75.936 232.427 75.936 236.389C75.936 240.35 72.7128 243.574 68.7512 243.574ZM68.7512 230.804C65.672 230.804 63.1664 233.31 63.1664 236.389C63.1664 239.468 65.672 241.974 68.7512 241.974C71.8304 241.974 74.336 239.468 74.336 236.389C74.336 233.31 71.8304 230.804 68.7512 230.804Z" fill="#0487FF"/>
<path d="M409.586 338.602C405.624 338.602 402.401 335.379 402.401 331.418C402.401 327.456 405.624 324.233 409.586 324.233C413.547 324.233 416.77 327.456 416.77 331.418C416.77 335.379 413.547 338.602 409.586 338.602ZM409.586 325.833C406.506 325.833 404.001 328.338 404.001 331.418C404.001 334.497 406.506 337.002 409.586 337.002C412.665 337.002 415.17 334.497 415.17 331.418C415.17 328.338 412.665 325.833 409.586 325.833Z" fill="#0487FF"/>
<path d="M417.607 181.534C416.972 181.538 416.45 181.023 416.445 180.39L416.372 170.242C416.367 169.608 416.882 169.085 417.516 169.081C418.15 169.076 418.672 169.591 418.676 170.225L418.75 180.373C418.756 181.006 418.241 181.529 417.607 181.534Z" fill="#0487FF"/>
<path d="M411.335 175.352C411.33 174.718 411.845 174.195 412.479 174.191L422.627 174.118C423.261 174.113 423.784 174.628 423.789 175.262C423.793 175.895 423.278 176.418 422.644 176.422L412.496 176.496C411.862 176.501 411.34 175.986 411.335 175.352Z" fill="#0487FF"/>
<path d="M184.439 371.702C184.123 371.704 183.861 371.446 183.859 371.13L183.822 366.055C183.819 365.738 184.077 365.477 184.394 365.474C184.711 365.472 184.972 365.73 184.975 366.046L185.011 371.121C185.014 371.438 184.756 371.699 184.439 371.702Z" fill="#52D180"/>
<path d="M181.303 368.61C181.301 368.294 181.558 368.032 181.875 368.03L186.949 367.993C187.266 367.99 187.527 368.248 187.53 368.565C187.532 368.882 187.274 369.143 186.958 369.146L181.883 369.182C181.566 369.185 181.306 368.927 181.303 368.61Z" fill="#52D180"/>
<path d="M67.6407 325.319C67.0071 325.324 66.4839 324.809 66.4799 324.174L66.4063 314.026C66.4015 313.393 66.9167 312.87 67.5511 312.866C68.1847 312.861 68.7079 313.376 68.7119 314.01L68.7855 324.158C68.7895 324.792 68.2751 325.314 67.6407 325.319Z" fill="#52D180"/>
<path d="M61.3687 319.138C61.3639 318.503 61.8791 317.981 62.5135 317.976L72.6615 317.902C73.2959 317.898 73.8183 318.413 73.8223 319.046C73.8271 319.681 73.3119 320.203 72.6775 320.208L62.5295 320.282C61.8959 320.286 61.3735 319.772 61.3687 319.138Z" fill="#52D180"/>
<path d="M192.374 85.6944C191.74 85.6992 191.217 85.184 191.213 84.5496L191.139 74.4016C191.134 73.7672 191.65 73.2448 192.283 73.2408C192.917 73.236 193.44 73.7512 193.444 74.3856L193.518 84.5336C193.523 85.1672 193.008 85.6904 192.374 85.6944Z" fill="#0487FF"/>
<path d="M186.102 79.5128C186.097 78.8792 186.612 78.356 187.246 78.352L197.394 78.2784C198.028 78.2736 198.55 78.7888 198.554 79.4224C198.559 80.0568 198.044 80.5792 197.41 80.584L187.262 80.6576C186.629 80.6624 186.106 80.1472 186.102 79.5128Z" fill="#0487FF"/>
<path d="M421.824 120.664L418.672 102.062C418.341 100.114 416.493 98.8008 414.544 99.1312L317.38 115.594C315.431 115.925 314.118 117.773 314.448 119.722L317.6 138.323C317.931 140.272 319.779 141.585 321.728 141.254L418.893 124.791C420.841 124.461 422.154 122.613 421.824 120.664Z" fill="#263238"/>
<path d="M318.857 137.89C317.181 138.174 315.591 137.045 315.307 135.368L312.155 116.767C311.87 115.09 313 113.5 314.677 113.216L411.842 96.753C413.519 96.4687 415.109 97.5981 415.393 99.2748L418.545 117.876C418.829 119.554 417.7 121.143 416.023 121.427L318.857 137.89Z" fill="#E6F3FF"/>
<path d="M411.842 96.753L314.677 113.216C313 113.5 311.87 115.09 312.155 116.767L315.307 135.368C315.591 137.045 317.181 138.174 318.857 137.89L416.023 121.427C417.7 121.143 418.829 119.554 418.545 117.876L415.393 99.2748C415.109 97.5981 413.519 96.4687 411.842 96.753ZM411.842 96.753L411.759 96.26" stroke="#263238"/>
<path d="M332.655 132.026L321.696 133.883C319.802 134.204 318.006 132.929 317.685 131.034L315.828 120.076C315.507 118.182 316.783 116.386 318.677 116.065L329.635 114.208C331.53 113.887 333.326 115.162 333.647 117.057L335.503 128.015C335.825 129.91 334.55 131.706 332.655 132.026Z" fill="#B4DBFF" stroke="#263238" stroke-width="0.9846" stroke-miterlimit="10"/>
<path d="M411.391 108.658L345.173 119.877C343.842 120.102 342.58 119.206 342.355 117.875C342.129 116.544 343.025 115.282 344.356 115.057L410.574 103.838C411.905 103.612 413.167 104.508 413.392 105.839C413.618 107.17 412.722 108.432 411.391 108.658Z" fill="#B4DBFF"/>
<path d="M372.751 121.89L346.274 126.377C344.942 126.602 343.681 125.706 343.455 124.375C343.23 123.044 344.126 121.782 345.457 121.557L371.934 117.07C373.265 116.845 374.526 117.741 374.752 119.072C374.978 120.402 374.082 121.665 372.751 121.89Z" fill="#B4DBFF"/>
<path d="M189.074 124.132L185.093 100.632C184.676 98.1697 182.342 96.5113 179.878 96.9289L57.1264 117.726C54.664 118.143 53.0056 120.478 53.4232 122.941L57.4048 146.441C57.8216 148.903 60.1568 150.561 62.6192 150.144L185.372 129.346C187.834 128.929 189.492 126.594 189.074 124.132Z" fill="#263238"/>
<path d="M50.5 118L52 115.5L56.5 114L64.5 113L80.5 110L112.5 104.5L177 93.5L179 94L180.5 95.5L181.5 100.5L183.5 111L185 119.5L184.5 124C183 125.5 167.216 127.657 155.5 130L122.5 135L57.5 146L55 144.5L54 139.5L52.5 131.5L50.5 118Z" fill="#E6F3FF"/>
<path d="M185.063 120.588C185.433 122.779 183.959 124.855 181.769 125.226L59.0159 146.024C56.8256 146.395 54.7494 144.92 54.3787 142.73L50.3971 119.23C50.0257 117.04 51.5006 114.964 53.6909 114.592L176.444 93.7938C178.634 93.4232 180.71 94.8976 181.082 97.0877L185.063 120.588ZM185.063 120.588L185.556 120.504" stroke="#263238"/>
<path d="M76.4251 138.486L62.5811 140.832C60.1875 141.238 57.9187 139.626 57.5131 137.233L55.1675 123.389C54.7619 120.995 56.3731 118.726 58.7667 118.321L72.6107 115.975C75.0043 115.57 77.2731 117.181 77.6787 119.574L80.0243 133.418C80.4299 135.812 78.8187 138.081 76.4251 138.486Z" fill="#B4DBFF" stroke="#263238" stroke-width="1.2438" stroke-miterlimit="10"/>
<path d="M175.895 108.963L92.2394 123.138C90.5578 123.422 88.9634 122.29 88.6786 120.609C88.3938 118.927 89.5258 117.333 91.2074 117.048L174.863 102.874C176.544 102.59 178.139 103.722 178.423 105.403C178.708 107.084 177.576 108.678 175.895 108.963Z" fill="#B4DBFF"/>
<path d="M127.08 125.681L93.6305 131.348C91.9489 131.633 90.3545 130.501 90.0697 128.819C89.7849 127.138 90.9169 125.543 92.5985 125.258L126.048 119.591C127.73 119.306 129.324 120.438 129.609 122.12C129.895 123.802 128.762 125.396 127.08 125.681Z" fill="#B4DBFF"/>
<path d="M157.723 364.416L154.571 345.814C154.241 343.866 152.393 342.553 150.444 342.883L53.2795 359.346C51.3307 359.676 50.0179 361.524 50.3483 363.473L53.5003 382.074C53.8307 384.023 55.6779 385.336 57.6275 385.006L154.793 368.542C156.742 368.213 158.054 366.365 157.723 364.416Z" fill="#263238"/>
<path d="M54.7572 381.642C53.0808 381.927 51.4908 380.797 51.2065 379.121V379.12L48.0545 360.519C47.7703 358.842 48.8997 357.252 50.5763 356.968L147.742 340.505C149.418 340.221 151.008 341.35 151.293 343.027L154.445 361.628C154.729 363.305 153.6 364.895 151.923 365.179L54.7572 381.642Z" fill="#E6F3FF"/>
<path d="M147.742 340.505L50.5763 356.968C48.8997 357.252 47.7703 358.842 48.0545 360.519L51.2065 379.12C51.2065 379.121 51.2065 379.121 51.2065 379.121C51.4908 380.797 53.0808 381.927 54.7572 381.642L151.923 365.179C153.6 364.895 154.729 363.305 154.445 361.628M147.742 340.505L147.658 340.012M147.742 340.505C149.418 340.221 151.008 341.35 151.293 343.027L154.445 361.628M154.445 361.628L154.938 361.545" stroke="#263238"/>
<path d="M68.555 375.778L57.5966 377.635C55.7022 377.956 53.9062 376.681 53.5854 374.786L51.7286 363.828C51.4078 361.934 52.683 360.138 54.5774 359.817L65.5358 357.96C67.4302 357.639 69.2262 358.914 69.547 360.809L71.4038 371.767C71.7246 373.662 70.4494 375.458 68.555 375.778Z" fill="#B4DBFF" stroke="#263238" stroke-width="0.9846" stroke-miterlimit="10"/>
<path d="M147.29 352.41L81.0724 363.629C79.7412 363.854 78.4796 362.958 78.254 361.627C78.0284 360.296 78.9244 359.034 80.2556 358.809L146.473 347.59C147.804 347.364 149.066 348.26 149.292 349.591C149.517 350.922 148.621 352.184 147.29 352.41Z" fill="#B4DBFF"/>
<path d="M108.651 365.642L82.1735 370.128C80.8423 370.354 79.5807 369.458 79.3551 368.126C79.1295 366.795 80.0262 365.534 81.3566 365.308L107.834 360.822C109.165 360.596 110.427 361.492 110.653 362.823C110.879 364.154 109.982 365.416 108.651 365.642Z" fill="#B4DBFF"/>
<path d="M209.488 352.48H261.653C261.062 354.976 260.691 357.311 260.508 359.5C259.923 366.555 261.325 372.064 263.782 376.351C266.237 380.634 269.726 383.669 273.273 385.809C276.675 387.863 280.14 389.1 282.82 389.832H194.672C202.165 386.364 206.412 381.309 208.693 375.991C211.188 370.174 211.313 364.084 210.832 359.49C210.595 357.221 210.21 355.308 209.882 353.961C209.732 353.341 209.594 352.841 209.488 352.48Z" fill="white" stroke="#263238"/>
<path d="M309.03 397.937H170.97C167.774 397.937 165.184 395.346 165.184 392.15C165.184 388.954 167.774 386.364 170.97 386.364H309.03C312.226 386.364 314.817 388.954 314.817 392.15C314.817 395.346 312.226 397.937 309.03 397.937Z" fill="#263238"/>
<path d="M376.858 150.767V339.889C376.858 348.276 370.06 355.078 361.672 355.078H118.332C109.945 355.078 103.144 348.276 103.144 339.889V150.767C103.144 142.38 109.945 135.582 118.332 135.582H361.672C370.059 135.582 376.858 142.38 376.858 150.767Z" fill="white" stroke="#263238"/>
<path d="M376.858 150.767V320H103.143V150.767C103.143 142.38 109.944 135.582 118.331 135.582H361.672C370.059 135.582 376.858 142.38 376.858 150.767Z" fill="#0487FF" stroke="#263238"/>
<path d="M368.904 153.698V305.5C368.904 309.42 365.729 312.598 361.806 312.598H118.195C114.272 312.598 111.096 309.42 111.096 305.5V153.698C111.096 149.778 114.271 146.601 118.195 146.601H361.807C365.729 146.601 368.904 149.779 368.904 153.698Z" fill="white" stroke="#263238"/>
<path d="M368.904 153.698V159.34H111.096V153.698C111.096 149.778 114.271 146.601 118.195 146.601H361.807C365.729 146.601 368.904 149.779 368.904 153.698Z" fill="white" stroke="#263238"/>
<path d="M132.186 152.862C132.186 154.537 130.827 155.896 129.152 155.896C127.476 155.896 126.117 154.537 126.117 152.862C126.117 151.186 127.476 149.827 129.152 149.827C130.827 149.827 132.186 151.186 132.186 152.862Z" fill="white" stroke="#263238"/>
<path d="M142.307 152.862C142.307 154.537 140.948 155.896 139.272 155.896C137.596 155.896 136.238 154.537 136.238 152.862C136.238 151.186 137.596 149.827 139.272 149.827C140.948 149.827 142.307 151.186 142.307 152.862Z" fill="white" stroke="#263238"/>
<path d="M152.039 152.862C152.039 154.537 150.68 155.896 149.004 155.896C147.328 155.896 145.97 154.537 145.97 152.862C145.97 151.186 147.328 149.827 149.004 149.827C150.68 149.827 152.039 151.186 152.039 152.862Z" fill="white" stroke="#263238"/>
<path d="M231.259 194.332H132.71C131.009 194.332 129.63 192.954 129.63 191.252V172.386C129.63 170.685 131.009 169.306 132.71 169.306H231.26C232.961 169.306 234.339 170.685 234.339 172.386V191.252C234.339 192.953 232.96 194.332 231.259 194.332Z" fill="#E6F3FF" stroke="#263238"/>
<path d="M147.292 190.855H136.177C134.256 190.855 132.698 189.298 132.698 187.376V176.262C132.698 174.34 134.256 172.782 136.177 172.782H147.292C149.213 172.782 150.771 174.34 150.771 176.262V187.376C150.771 189.298 149.213 190.855 147.292 190.855Z" fill="#B4DBFF" stroke="#263238" stroke-miterlimit="10"/>
<path d="M228.826 180.968H161.664C160.314 180.968 159.219 179.874 159.219 178.523C159.219 177.173 160.314 176.078 161.664 176.078H228.825C230.175 176.078 231.27 177.173 231.27 178.523C231.27 179.873 230.175 180.968 228.826 180.968Z" fill="#B4DBFF"/>
<path d="M188.519 187.559H161.664C160.314 187.559 159.219 186.465 159.219 185.114C159.219 183.764 160.314 182.67 161.664 182.67H188.518C189.869 182.67 190.963 183.764 190.963 185.114C190.963 186.465 189.869 187.559 188.519 187.559Z" fill="#B4DBFF"/>
<path d="M231.259 230.238H132.71C131.009 230.238 129.63 228.859 129.63 227.158V208.292C129.63 206.591 131.009 205.213 132.71 205.213H231.26C232.961 205.213 234.339 206.591 234.339 208.292V227.158C234.339 228.859 232.96 230.238 231.259 230.238Z" fill="#E6F3FF" stroke="#263238"/>
<path d="M147.292 226.761H136.177C134.256 226.761 132.698 225.203 132.698 223.282V212.167C132.698 210.246 134.256 208.688 136.177 208.688H147.292C149.213 208.688 150.771 210.246 150.771 212.167V223.282C150.771 225.203 149.213 226.761 147.292 226.761Z" fill="#B4DBFF" stroke="#263238" stroke-miterlimit="10"/>
<path d="M228.826 216.874H161.664C160.314 216.874 159.219 215.779 159.219 214.429C159.219 213.078 160.314 211.984 161.664 211.984H228.825C230.175 211.984 231.27 213.078 231.27 214.429C231.27 215.779 230.175 216.874 228.826 216.874Z" fill="#B4DBFF"/>
<path d="M188.519 223.465H161.664C160.314 223.465 159.219 222.37 159.219 221.02C159.219 219.67 160.314 218.575 161.664 218.575H188.518C189.869 218.575 190.963 219.67 190.963 221.02C190.963 222.37 189.869 223.465 188.519 223.465Z" fill="#B4DBFF"/>
<path d="M347.29 230.238H248.741C247.04 230.238 245.662 228.859 245.662 227.158V208.292C245.662 206.591 247.04 205.213 248.741 205.213H347.291C348.992 205.213 350.37 206.591 350.37 208.292V227.158C350.37 228.859 348.992 230.238 347.29 230.238Z" fill="#E6F3FF" stroke="#263238"/>
<path d="M263.324 226.761H252.21C250.288 226.761 248.73 225.203 248.73 223.282V212.167C248.73 210.246 250.288 208.688 252.21 208.688H263.324C265.246 208.688 266.803 210.246 266.803 212.167V223.282C266.803 225.203 265.245 226.761 263.324 226.761Z" fill="#B4DBFF" stroke="#263238" stroke-miterlimit="10"/>
<path d="M344.857 216.874H277.696C276.346 216.874 275.251 215.779 275.251 214.429C275.251 213.078 276.346 211.984 277.696 211.984H344.857C346.207 211.984 347.302 213.078 347.302 214.429C347.301 215.779 346.207 216.874 344.857 216.874Z" fill="#B4DBFF"/>
<path d="M304.551 223.465H277.696C276.346 223.465 275.251 222.37 275.251 221.02C275.251 219.67 276.346 218.575 277.696 218.575H304.551C305.901 218.575 306.995 219.67 306.995 221.02C306.995 222.37 305.9 223.465 304.551 223.465Z" fill="#B4DBFF"/>
<path d="M347.29 266.143H248.741C247.04 266.143 245.662 264.765 245.662 263.064V244.198C245.662 242.497 247.04 241.118 248.741 241.118H347.291C348.992 241.118 350.37 242.497 350.37 244.198V263.064C350.37 264.765 348.992 266.143 347.29 266.143Z" fill="#E6F3FF" stroke="#263238"/>
<path d="M263.324 262.667H252.21C250.288 262.667 248.73 261.11 248.73 259.188V248.074C248.73 246.152 250.288 244.594 252.21 244.594H263.324C265.246 244.594 266.803 246.152 266.803 248.074V259.188C266.803 261.11 265.245 262.667 263.324 262.667Z" fill="#B4DBFF" stroke="#263238" stroke-miterlimit="10"/>
<path d="M344.857 252.779H277.696C276.346 252.779 275.251 251.685 275.251 250.334C275.251 248.984 276.346 247.89 277.696 247.89H344.857C346.207 247.89 347.302 248.984 347.302 250.334C347.301 251.685 346.207 252.779 344.857 252.779Z" fill="#B4DBFF"/>
<path d="M304.551 259.371H277.696C276.346 259.371 275.251 258.277 275.251 256.926C275.251 255.576 276.346 254.482 277.696 254.482H304.551C305.901 254.482 306.995 255.576 306.995 256.926C306.995 258.277 305.9 259.371 304.551 259.371Z" fill="#B4DBFF"/>
<path d="M231.259 302.049H132.71C131.009 302.049 129.63 300.67 129.63 298.97V280.103C129.63 278.403 131.009 277.024 132.71 277.024H231.26C232.961 277.024 234.339 278.403 234.339 280.103V298.97C234.339 300.67 232.96 302.049 231.259 302.049Z" fill="#E6F3FF" stroke="#263238"/>
<path d="M228.826 288.685H161.664C160.314 288.685 159.219 287.59 159.219 286.24C159.219 284.89 160.314 283.795 161.664 283.795H228.825C230.175 283.795 231.27 284.89 231.27 286.24C231.27 287.59 230.175 288.685 228.826 288.685Z" fill="#B4DBFF"/>
<path d="M188.519 295.277H161.664C160.314 295.277 159.219 294.182 159.219 292.832C159.219 291.482 160.314 290.387 161.664 290.387H188.518C189.869 290.387 190.963 291.482 190.963 292.832C190.963 294.182 189.869 295.277 188.519 295.277Z" fill="#B4DBFF"/>
<path d="M347.29 302.049H248.741C247.04 302.049 245.662 300.67 245.662 298.97V280.103C245.662 278.403 247.04 277.024 248.741 277.024H347.291C348.992 277.024 350.37 278.403 350.37 280.103V298.97C350.37 300.67 348.992 302.049 347.29 302.049Z" fill="#E6F3FF" stroke="#263238"/>
<path d="M263.324 299.073H252.21C250.288 299.073 248.73 297.515 248.73 295.594V284.479C248.73 282.558 250.288 281 252.21 281H263.324C265.246 281 266.803 282.558 266.803 284.479V295.594C266.803 297.515 265.245 299.073 263.324 299.073Z" fill="#B4DBFF" stroke="#263238" stroke-miterlimit="10"/>
<path d="M147.594 299.073H136.479C134.558 299.073 133 297.515 133 295.594V284.479C133 282.558 134.558 281 136.479 281H147.594C149.515 281 151.073 282.558 151.073 284.479V295.594C151.073 297.515 149.514 299.073 147.594 299.073Z" fill="#B4DBFF" stroke="#263238" stroke-miterlimit="10"/>
<path d="M344.857 288.685H277.696C276.346 288.685 275.251 287.59 275.251 286.24C275.251 284.89 276.346 283.795 277.696 283.795H344.857C346.207 283.795 347.302 284.89 347.302 286.24C347.301 287.59 346.207 288.685 344.857 288.685Z" fill="#B4DBFF"/>
<path d="M304.551 295.277H277.696C276.346 295.277 275.251 294.182 275.251 292.832C275.251 291.482 276.346 290.387 277.696 290.387H304.551C305.901 290.387 306.995 291.482 306.995 292.832C306.995 294.182 305.9 295.277 304.551 295.277Z" fill="#B4DBFF"/>
<path d="M364.761 198.778H246.775C244.408 198.778 242.49 196.859 242.49 194.492V171.905C242.49 169.538 244.408 167.619 246.775 167.619H364.762C367.129 167.619 369.047 169.538 369.047 171.905V194.492C369.047 196.859 367.128 198.778 364.761 198.778Z" fill="#263238"/>
<path d="M367.433 194.332H249.447C247.356 194.332 245.661 192.637 245.661 190.546V167.959C245.661 165.869 247.356 164.174 249.447 164.174H367.433C369.523 164.174 371.219 165.868 371.219 167.959V190.546C371.219 192.637 369.523 194.332 367.433 194.332Z" fill="#E6F3FF" stroke="#263238"/>
<path d="M266.906 190.071H253.599C251.298 190.071 249.434 188.206 249.434 185.906V172.599C249.434 170.298 251.298 168.434 253.599 168.434H266.906C269.206 168.434 271.071 170.298 271.071 172.599V185.906C271.071 188.206 269.206 190.071 266.906 190.071Z" fill="#0487FF" stroke="#263238" stroke-miterlimit="10"/>
<path d="M364.518 178.234H284.112C282.495 178.234 281.186 176.923 281.186 175.306C281.186 173.69 282.496 172.38 284.112 172.38H364.518C366.134 172.38 367.445 173.69 367.445 175.306C367.446 176.923 366.135 178.234 364.518 178.234Z" fill="#B4DBFF"/>
<path d="M316.262 186.125H284.112C282.495 186.125 281.186 184.814 281.186 183.198C281.186 181.582 282.496 180.271 284.112 180.271H316.263C317.88 180.271 319.19 181.582 319.19 183.198C319.19 184.814 317.879 186.125 316.262 186.125Z" fill="#B4DBFF"/>
<path d="M254.932 176.98L252.497 179.09L258.341 186.72L269.38 174.058L267.27 171.785L258.718 182.337L254.932 176.98Z" fill="white"/>
<path d="M231.259 266.143H132.71C131.009 266.143 129.63 264.765 129.63 263.064V244.198C129.63 242.497 131.009 241.118 132.71 241.118H231.26C232.961 241.118 234.339 242.497 234.339 244.198V263.064C234.339 264.765 232.96 266.143 231.259 266.143Z" fill="#E6F3FF" stroke="#263238"/>
<path d="M147.292 262.667H136.177C134.256 262.667 132.698 261.11 132.698 259.188V248.074C132.698 246.152 134.256 244.594 136.177 244.594H147.292C149.213 244.594 150.771 246.152 150.771 248.074V259.188C150.771 261.11 149.213 262.667 147.292 262.667Z" fill="#0487FF" stroke="#263238" stroke-miterlimit="10"/>
<path d="M228.826 252.779H161.664C160.314 252.779 159.219 251.685 159.219 250.334C159.219 248.984 160.314 247.89 161.664 247.89H228.825C230.175 247.89 231.27 248.984 231.27 250.334C231.27 251.685 230.175 252.779 228.826 252.779Z" fill="#B4DBFF"/>
<path d="M188.519 259.371H161.664C160.314 259.371 159.219 258.277 159.219 256.926C159.219 255.576 160.314 254.482 161.664 254.482H188.518C189.869 254.482 190.963 255.576 190.963 256.926C190.963 258.277 189.869 259.371 188.519 259.371Z" fill="#B4DBFF"/>
<path d="M137.291 251.732L135.257 253.495L140.138 259.868L149.359 249.291L147.597 247.393L140.453 256.207L137.291 251.732Z" fill="white"/>
<path d="M356.327 244.58V229.704H362.871V244.58H356.327Z" fill="white" stroke="#263238"/>
<path d="M366.511 399.615C366.511 399.615 373.334 396.556 376.765 398.547C376.765 398.547 374.479 403.845 366.511 399.615Z" fill="#263238"/>
<path d="M373.019 385.729L373.027 385.772C373.103 386.168 373.211 386.735 373.341 387.416C373.6 388.778 373.946 390.598 374.29 392.43C374.634 394.263 374.977 396.107 375.231 397.517C375.358 398.223 375.463 398.818 375.534 399.248C375.56 399.407 375.582 399.542 375.598 399.65L375.596 399.651C375.387 399.726 375.079 399.818 374.693 399.92C373.927 400.125 372.902 400.361 371.872 400.587C370.843 400.813 369.815 401.026 369.044 401.183C368.741 401.245 368.477 401.297 368.269 401.339L366.207 388.237L373.019 385.729Z" fill="white"/>
<path d="M375.634 399.921V399.919M373.019 385.729L373.027 385.772C373.103 386.168 373.211 386.735 373.341 387.416C373.6 388.778 373.946 390.598 374.29 392.43C374.634 394.263 374.977 396.107 375.231 397.517C375.358 398.223 375.463 398.818 375.534 399.248C375.56 399.407 375.582 399.542 375.598 399.65L375.596 399.651C375.387 399.726 375.079 399.818 374.693 399.92C373.927 400.125 372.902 400.361 371.872 400.587C370.843 400.813 369.815 401.026 369.044 401.183C368.741 401.245 368.477 401.297 368.269 401.339L366.207 388.237L373.019 385.729Z" stroke="#263238"/>
<path d="M367 399.5L361 402L358.5 403.5L360 408.5H365H366.5H368.5H371L374 408L376.5 407L378.5 406V405V403.5V402V401L377.5 400L377 399H376L374.5 400L372.5 400.5H369.5L367 399.5Z" fill="white"/>
<path d="M376.921 399.196C376.811 399.091 376.5 399 376.5 399C375.5 399.5 373.302 401.812 366.645 399.568M366.645 399.568C366.645 399.568 365.355 400.142 363.67 400.797ZM363.67 400.797C363.487 400.869 363.305 400.94 363.117 401.011C362.951 401.073 362.783 401.134 362.614 401.197H362.613C362.452 401.256 362.289 401.316 362.124 401.377C361.937 401.443 361.75 401.509 361.563 401.574C361.128 401.726 360.694 401.873 360.267 402.004M360.267 402.004C360.075 402.064 359.889 402.119 359.703 402.174ZM360.267 402.004L360.413 402.482H360.415M359.703 402.174C358.592 402.496 357.583 402.716 356.883 402.714Z" fill="white"/>
<path d="M378.499 404.504C378.48 404.812 378.5 405.165 378.684 405.496C378.851 405.8 378.873 406.022 378.837 406.189L378.815 406.289L378.835 406.39C378.897 406.707 378.784 407.011 378.323 407.339C377.844 407.68 377.07 407.977 376.037 408.216C373.985 408.689 371.106 408.887 368.083 408.883C365.067 408.879 361.939 408.674 359.403 408.353C358.134 408.192 357.021 408.004 356.147 407.8C355.249 407.589 354.676 407.378 354.427 407.203H354.426C353.598 406.625 353.448 406.095 353.514 405.704L353.528 405.62L353.514 405.537C353.494 405.42 353.496 405.304 353.517 405.189L353.518 405.182C353.593 404.733 353.978 404.239 354.632 403.843M356.883 402.714C357.583 402.716 358.592 402.496 359.703 402.174C359.889 402.119 360.075 402.064 360.267 402.004M378.499 404.505C378.514 404.272 378.555 404.026 378.593 403.794L378.596 403.78M378.596 403.78L379.089 403.862M378.596 403.78C378.701 403.151 378.806 402.495 378.599 401.721C378.414 401.025 377.961 400.186 376.921 399.196C376.811 399.091 376.5 399 376.5 399C375.5 399.5 373.302 401.812 366.645 399.568C366.645 399.568 365.355 400.142 363.67 400.797M363.67 400.797C363.487 400.869 363.305 400.94 363.117 401.011C362.951 401.073 362.783 401.134 362.614 401.197H362.613C362.452 401.256 362.289 401.316 362.124 401.377C361.937 401.443 361.75 401.509 361.563 401.574C361.128 401.726 360.694 401.873 360.267 402.004M363.67 400.797L363.851 401.263M363.67 400.797L363.853 401.262M360.267 402.004L360.413 402.482H360.415" stroke="#263238"/>
<path d="M352.684 406.069C352.684 406.069 363 402.5 363 404C363 404 361.041 409.465 352.684 406.069Z" fill="#263238"/>
<path d="M351.223 394.78L357.745 391.592L357.757 391.634C357.873 392.021 358.038 392.573 358.237 393.237C358.633 394.566 359.162 396.341 359.691 398.129C360.22 399.917 360.748 401.717 361.145 403.094C361.343 403.783 361.507 404.364 361.622 404.785C361.665 404.941 361.7 405.072 361.727 405.179L361.725 405.18C361.525 405.276 361.228 405.398 360.855 405.54C360.113 405.821 359.118 406.161 358.116 406.49C357.115 406.819 356.114 407.136 355.363 407.371C355.068 407.463 354.811 407.542 354.608 407.605L351.223 394.78Z" fill="white"/>
<path d="M361.79 405.444L361.789 405.442M351.223 394.78L357.745 391.592L357.757 391.634C357.873 392.021 358.038 392.573 358.237 393.237C358.633 394.566 359.162 396.341 359.691 398.129C360.22 399.917 360.748 401.717 361.145 403.094C361.343 403.783 361.507 404.364 361.622 404.785C361.665 404.941 361.7 405.072 361.727 405.179L361.725 405.18C361.525 405.276 361.228 405.398 360.855 405.54C360.113 405.821 359.118 406.161 358.116 406.49C357.115 406.819 356.114 407.136 355.363 407.371C355.068 407.463 354.811 407.542 354.608 407.605L351.223 394.78Z" stroke="#263238"/>
<path d="M354.14 407.577C353.204 406.924 352.906 406.214 353.025 405.563C353.295 405.718 353.559 405.894 353.836 406.038C354.904 406.598 356.04 407.006 357.198 407.306C359.587 407.922 362.064 408.074 364.519 408.092C366.412 408.106 368.313 408.045 370.182 407.77C371.815 407.528 373.421 407.125 375.022 406.721C375.807 406.52 376.607 406.321 377.32 405.937C377.809 405.674 378.251 405.337 378.748 405.102C378.826 405.067 378.909 405.033 378.998 405C378.981 405.269 379.004 405.51 379.121 405.718C382.002 410.953 356.938 409.534 354.14 407.577Z" fill="#263238"/>
<path d="M341 411.5L340.5 413H340L340.5 414L342.5 414.5L347.5 415L355 414.5L362.5 413L365 411.5L365.5 410V409V408L365 406.5L364 405.5L363.5 405L362.5 404.5L362 405L360 406L357.5 407H354.5L353 406.5L351.5 407L350.5 407.5L349.5 408.5L348 409L346.5 410L345 410.5H343.5L342 411L341 411.5Z" fill="white"/>
<path d="M346.784 409.601C347.204 409.423 347.626 409.231 348.046 409.034C348.226 408.95 348.406 408.865 348.586 408.78L348.593 408.777C348.74 408.704 348.892 408.63 349.044 408.556C349.213 408.474 349.382 408.391 349.543 408.312L349.546 408.31C349.728 408.219 349.904 408.129 350.079 408.038C350.889 407.624 351.602 407.241 352.112 406.96C352.367 406.82 352.572 406.706 352.713 406.626C352.731 406.616 352.748 406.607 352.764 406.598C356.613 407.436 359.196 406.912 360.843 406.123C361.676 405.724 363 404.5 363 404.5C365.504 406.439 365.579 407.861 365.502 409.074C365.486 409.319 365.472 409.545 365.48 409.752L365.5 410C365.512 410.307 365.5 410.5 365.5 411C365.5 411.5 365.49 411.182 365.491 411.336C365.492 411.487 365.442 411.647 365.311 411.826C365.031 412.208 364.428 412.606 363.489 412.984C361.634 413.73 358.781 414.275 355.682 414.62C352.595 414.964 349.308 415.103 346.612 415.053C345.264 415.028 344.072 414.956 343.13 414.841C342.161 414.722 341.535 414.564 341.257 414.41V414.409C340.364 413.914 340.166 413.396 340.198 412.997V412.989C340.227 412.534 340.56 412.004 341.17 411.543C341.769 411.091 342.56 410.766 343.343 410.689C344.117 410.612 345.157 410.265 346.231 409.832L346.234 409.831C346.413 409.757 346.596 409.681 346.784 409.601ZM346.784 409.601H346.783L346.588 409.141L346.785 409.6L346.784 409.601Z" stroke="#263238"/>
<path d="M341.014 414.846C340.016 414.292 339.646 413.617 339.699 412.957C339.984 413.083 340.264 413.231 340.554 413.347C341.674 413.796 342.846 414.086 344.028 414.266C346.466 414.635 348.948 414.535 351.391 414.302C353.275 414.123 355.16 413.87 356.991 413.405C358.59 412.998 360.148 412.434 361.699 411.869C362.459 411.589 363.235 411.31 363.906 410.855C364.365 410.544 364.771 410.164 365.241 409.878C365.314 409.836 365.394 409.794 365.478 409.752C365.489 410.021 365.536 410.258 365.674 410.454C369.074 415.369 343.996 416.51 341.014 414.846Z" fill="#263238"/>
<path d="M350.631 411.416C350.605 411.538 350.499 411.627 350.373 411.627C350.357 411.627 350.341 411.627 350.32 411.622C348.431 411.252 346.974 410.218 346.045 409.368C346.224 409.294 346.404 409.22 346.589 409.141C347.471 409.906 348.785 410.782 350.427 411.104C350.568 411.13 350.658 411.273 350.631 411.416Z" fill="#263238"/>
<path d="M352.125 410.36C352.098 410.486 351.987 410.571 351.866 410.571H351.814C350.119 410.238 348.762 409.368 347.833 408.581C348.013 408.497 348.193 408.412 348.372 408.327C349.243 409.03 350.452 409.763 351.914 410.048C352.056 410.08 352.151 410.218 352.125 410.36Z" fill="#263238"/>
<path d="M353.381 409.452C353.355 409.578 353.249 409.669 353.123 409.669C353.107 409.669 353.091 409.663 353.07 409.663C351.507 409.357 350.24 408.592 349.322 407.863C349.501 407.774 349.675 407.684 349.85 407.594C350.699 408.238 351.829 408.876 353.175 409.14C353.318 409.172 353.407 409.31 353.381 409.452Z" fill="#263238"/>
<path d="M336.153 343.546L336.154 343.521V343.52L338.885 296.781L356.864 299.32L356.428 302.523L349.744 351.891L349.73 351.988L349.755 352.084L361.311 396.441L359.827 396.733L349.862 398.68C349.791 398.521 349.699 398.311 349.586 398.055C349.306 397.418 348.903 396.494 348.412 395.349C347.431 393.059 346.099 389.885 344.697 386.349C341.887 379.265 338.814 370.775 337.696 365.03C336.767 360.244 336.381 354.867 336.227 350.676C336.151 348.583 336.132 346.791 336.133 345.522C336.134 344.888 336.139 344.384 336.144 344.04C336.147 343.868 336.149 343.736 336.151 343.647L336.153 343.546Z" fill="white" stroke="#263238"/>
<path d="M356.682 298.09C356.679 298.008 356.676 297.933 356.673 297.864L373.217 296.098L372.973 301.101L370.694 348.312L370.692 348.351L370.697 348.391L375.216 389.709L374.726 389.807L374.725 389.808L365.023 391.736L357.726 347.078L357.724 346.973L357.716 346.564L357.685 345.011C357.659 343.672 357.622 341.759 357.576 339.46C357.486 334.863 357.363 328.725 357.237 322.562C357.11 316.399 356.98 310.21 356.872 305.512C356.819 303.163 356.771 301.186 356.732 299.77C356.713 299.063 356.696 298.495 356.682 298.09Z" fill="white" stroke="#263238"/>
<path d="M381.058 272.76C380.704 271.98 380.275 270.525 379.797 268.62C379.316 266.701 378.777 264.285 378.207 261.555C377.619 258.74 377 255.591 376.387 252.292C375.5 247.559 373.589 244.943 371.942 243.512C371.114 242.794 370.345 242.366 369.79 242.12C369.512 241.996 369.287 241.918 369.136 241.872C369.104 241.862 369.075 241.854 369.05 241.847C367.78 242.372 366.905 243.853 366.378 246.082C365.84 248.356 365.708 251.239 365.792 254.172C365.96 260.029 366.988 265.958 367.238 267.331C367.251 267.397 367.261 267.453 367.269 267.498L371.733 272.776L375.193 276.867L375.49 277.218L375.165 277.543C375.121 277.587 375.075 277.622 375.053 277.64L365.743 285.632L368.258 296.761C368.433 296.527 368.639 296.252 368.874 295.944C369.671 294.897 370.797 293.46 372.114 291.903C374.735 288.803 378.152 285.174 381.246 283.214C382.687 282.301 383.416 281.35 383.731 280.438C384.047 279.524 383.973 278.581 383.679 277.64C383.383 276.694 382.876 275.78 382.362 274.945C382.226 274.725 382.088 274.506 381.952 274.292C381.592 273.725 381.254 273.191 381.058 272.76Z" fill="white"/>
<path d="M381.058 272.76C380.704 271.98 380.275 270.525 379.797 268.62C379.316 266.701 378.777 264.285 378.207 261.555M381.058 272.76C381.254 273.191 381.592 273.725 381.952 274.292C382.088 274.506 382.226 274.725 382.362 274.945C382.876 275.78 383.383 276.694 383.679 277.64C383.973 278.581 384.047 279.524 383.731 280.438C383.416 281.35 382.687 282.301 381.246 283.214C378.152 285.174 374.735 288.803 372.114 291.903C370.797 293.46 369.671 294.897 368.874 295.944C368.639 296.252 368.433 296.527 368.258 296.761L365.743 285.632L375.053 277.64C375.075 277.622 375.121 277.587 375.165 277.543L375.49 277.218L375.193 276.867L371.733 272.776L367.269 267.498C367.261 267.453 367.251 267.397 367.238 267.331C366.988 265.958 365.96 260.029 365.792 254.172C365.708 251.239 365.84 248.356 366.378 246.082C366.905 243.853 367.78 242.372 369.05 241.847C369.075 241.854 369.104 241.862 369.136 241.872C369.287 241.918 369.512 241.996 369.79 242.12C370.345 242.366 371.114 242.794 371.942 243.512C373.589 244.943 375.5 247.559 376.387 252.292C377 255.591 377.619 258.74 378.207 261.555M381.058 272.76L381.514 272.554M378.207 261.555L378.696 261.453" stroke="#263238"/>
<path d="M376.383 252.292C376.969 255.451 377.562 258.472 378.128 261.194C377.466 261.555 376.787 261.891 376.1 262.212L376.098 262.213C375.333 262.573 374.548 262.92 373.757 263.27C372.096 264.006 370.406 264.753 368.816 265.66V265.661C368.586 265.792 368.32 265.981 368.066 266.16C367.934 266.254 367.805 266.345 367.687 266.424C367.492 266.555 367.307 266.668 367.133 266.755C366.779 264.716 365.939 259.416 365.789 254.172C365.704 251.239 365.836 248.356 366.374 246.082C366.901 243.853 367.777 242.372 369.046 241.847C369.071 241.854 369.1 241.862 369.132 241.872C369.283 241.918 369.508 241.996 369.786 242.12C370.341 242.366 371.11 242.794 371.937 243.512C373.585 244.943 375.496 247.559 376.383 252.292ZM376.383 252.292C376.383 252.292 376.383 252.292 376.383 252.291L376.874 252.2L376.383 252.292Z" fill="#E9E9E9"/>
<path d="M376.383 252.292C376.969 255.451 377.562 258.472 378.128 261.194C377.466 261.555 376.787 261.891 376.1 262.212L376.098 262.213C375.333 262.573 374.548 262.92 373.757 263.27C372.096 264.006 370.406 264.753 368.816 265.66V265.661C368.586 265.792 368.32 265.981 368.066 266.16C367.934 266.254 367.805 266.345 367.687 266.424C367.492 266.555 367.307 266.668 367.133 266.755C366.779 264.716 365.939 259.416 365.789 254.172C365.704 251.239 365.836 248.356 366.374 246.082C366.901 243.853 367.777 242.372 369.046 241.847C369.071 241.854 369.1 241.862 369.132 241.872C369.283 241.918 369.508 241.996 369.786 242.12C370.341 242.366 371.11 242.794 371.937 243.512C373.585 244.943 375.496 247.559 376.383 252.292ZM376.383 252.292C376.383 252.292 376.383 252.292 376.383 252.291L376.874 252.2L376.383 252.292Z" stroke="#263238"/>
<path d="M376.383 252.292C376.969 255.451 377.562 258.472 378.128 261.194C377.466 261.555 376.787 261.891 376.1 262.212L376.098 262.213C375.333 262.573 374.548 262.92 373.757 263.27C372.096 264.006 370.406 264.753 368.816 265.66V265.661C368.586 265.792 368.32 265.981 368.066 266.16C367.934 266.254 367.805 266.345 367.687 266.424C367.492 266.555 367.307 266.668 367.133 266.755C366.779 264.716 365.939 259.416 365.789 254.172C365.704 251.239 365.836 248.356 366.374 246.082C366.901 243.853 367.777 242.372 369.046 241.847C369.071 241.854 369.1 241.862 369.132 241.872C369.283 241.918 369.508 241.996 369.786 242.12C370.341 242.366 371.11 242.794 371.937 243.512C373.585 244.943 375.496 247.559 376.383 252.292ZM376.383 252.292C376.383 252.292 376.383 252.292 376.383 252.291L376.874 252.2L376.383 252.292Z" stroke="black" stroke-opacity="0.2"/>
<path d="M344 251.5L339.5 274.5L338.5 280.5L337.5 285L336.5 290L335 294V296V298.5L336 300.5L337 301.5L342 304L349 305.5L355.5 306.5L361 307H364L367.5 306.5L370.5 305L373 303L374 301L374.5 299V297.5V294L374 288V271.5L374.5 250.5V247L371.5 243L369.5 242L366 241L359.5 240.5H351L348 244L344 251.5Z" fill="#E9E9E9"/>
<path d="M345.512 304.688L345.513 304.689C352.413 306.049 360.176 307.574 365.993 306.688C368.887 306.247 371.226 305.219 372.743 303.343C374.258 301.472 375.027 298.667 374.593 294.518C373.65 285.482 373.681 274.237 373.946 265.264C374.079 260.775 374.27 256.849 374.429 254.046C374.508 252.644 374.579 251.522 374.63 250.751C374.655 250.365 374.676 250.067 374.69 249.865L374.707 249.636L374.711 249.577V249.575V249.571C374.711 249.557 374.711 249.535 374.71 249.505C374.708 249.445 374.705 249.355 374.696 249.239C374.679 249.005 374.642 248.667 374.562 248.259C374.404 247.44 374.078 246.35 373.413 245.254C372.101 243.094 369.413 240.823 363.796 240.69C362.147 240.652 360.603 240.591 359.189 240.535C358.144 240.494 357.169 240.455 356.274 240.431C354.132 240.372 352.366 240.391 350.886 240.618C349.413 240.845 348.252 241.275 347.304 242.021C346.365 242.759 345.593 243.839 344.948 245.438L342.728 257.712L338.268 282.375C337.628 285.913 336.793 289.43 335.593 292.838C334.952 294.666 334.504 297.06 335.322 299.195C336.124 301.286 338.201 303.273 342.941 304.185M345.512 304.688C344.897 304.569 344.289 304.45 343.69 304.332C343.44 304.283 343.19 304.234 342.943 304.185H342.941M345.512 304.688L342.941 304.185" stroke="#263238"/>
<path d="M375.918 391.21L365.173 393.428C364.689 393.528 364.214 393.216 364.114 392.732L363.676 390.607C363.576 390.122 363.888 389.649 364.372 389.549L375.117 387.331C375.601 387.231 376.076 387.543 376.176 388.027L376.614 390.152C376.714 390.637 376.402 391.11 375.918 391.21Z" fill="#263238"/>
<path d="M337.911 238.449C341.429 239.572 345.826 240.483 350.914 240.549L347.511 261.139L330.727 248.991L325.031 244.87L325.025 244.866H325.024L325.019 244.861C325.011 244.856 324.998 244.846 324.979 244.83C324.942 244.8 324.881 244.748 324.801 244.672C324.642 244.52 324.404 244.269 324.116 243.891C323.539 243.134 322.755 241.865 321.979 239.847C320.449 235.864 318.954 228.972 319.151 217.38H323.758C323.784 217.445 323.813 217.519 323.846 217.602C323.983 217.945 324.177 218.44 324.41 219.049C324.874 220.266 325.489 221.934 326.091 223.739C326.693 225.546 327.28 227.482 327.691 229.236C328.106 231.007 328.327 232.538 328.233 233.558L328.207 233.841L328.437 234.008L328.731 233.604C328.437 234.008 328.438 234.009 328.438 234.009H328.439L328.441 234.011L328.45 234.018L328.483 234.041C328.512 234.061 328.553 234.09 328.608 234.128C328.717 234.202 328.878 234.309 329.09 234.444C329.512 234.712 330.134 235.088 330.943 235.522C332.559 236.391 334.92 237.496 337.911 238.449Z" fill="white" stroke="#263238"/>
<path d="M350.914 240.549L349.194 250.954L347.511 261.14L331.096 249.258L337.5 238.477L350.914 240.549Z" fill="#E9E9E9"/>
<path d="M337.996 238.477C337.967 238.468 337.529 238.486 337.5 238.477M337.5 238.477L331.096 249.258L347.511 261.14L349.194 250.954L350.914 240.549L337.5 238.477Z" stroke="#263238"/>
<path d="M324 217.5C323.2 218.3 320.167 217.667 319 217.5C319 213.5 317.5 212.5 317.5 210C317.5 208 318.5 208.5 319 209C319 208.2 319.667 208.333 320 208.5C320 207.3 320.667 207.667 321 208C321 206.4 322 206.667 322.5 207C321.833 205.667 320.6 202.9 321 202.5C321.4 202.1 321.833 202.667 322 203C323.167 205 325.6 209.2 326 210C326.5 211 326 213 324.5 214.5C323.3 215.7 323.833 217 324 217.5Z" fill="white" stroke="#263238" stroke-width="0.8"/>
<path d="M362.012 397.336L349.787 400.518C349.276 400.65 348.755 400.344 348.622 399.834L348.106 397.85C347.973 397.34 348.279 396.818 348.79 396.685L361.015 393.503C361.526 393.37 362.047 393.677 362.18 394.187L362.696 396.17C362.829 396.681 362.523 397.203 362.012 397.336Z" fill="#263238"/>
<path d="M364.487 202.34C363.275 201.667 361.849 201.492 360.464 201.482C358.273 201.466 355.829 201.984 354.602 203.798C353.773 205.025 353.675 206.605 353.814 208.079C354.049 210.578 355.078 213.242 357.312 214.389C359.023 215.267 361.251 215.159 362.613 216.518C363.193 217.097 363.529 217.872 363.828 218.635C365.306 222.418 366.181 226.434 366.412 230.489C369.117 227.05 372.717 224.55 375.423 221.111C376.985 219.126 377.718 216.038 377.908 213.518C378.109 210.851 376.539 208.225 374.273 206.804C372.281 205.555 370.318 205.534 368.073 205.386C366.369 205.274 367.22 205.547 366.34 204.271C365.8 203.49 365.349 202.819 364.487 202.34Z" fill="#263238"/>
<path fill-rule="evenodd" clip-rule="evenodd" d="M358.282 235.927C358.635 235.882 359.006 235.834 359.397 235.787C365.735 235.022 369.566 226.358 369.586 222.066C369.587 221.809 369.592 221.537 369.596 221.253C369.671 216.782 369.799 209.171 356.278 208.185C356.278 208.185 353.076 213.85 351.755 220.733C351.698 220.792 351.641 220.851 351.584 220.909C350.809 221.708 350.086 222.452 349.166 223.157C348.783 223.45 348.378 223.808 348.342 224.288C348.29 225.006 349.071 225.478 349.757 225.698C350.228 225.849 350.71 225.967 351.197 226.049C351.192 226.62 351.207 227.192 351.244 227.763C351.275 228.218 351.306 228.649 351.336 229.058C351.398 229.814 351.462 230.488 351.534 231.097C352.227 236.697 353.687 236.511 358.282 235.927Z" fill="white"/>
<mask id="mask3_519_2255" style="mask-type:luminance" maskUnits="userSpaceOnUse" x="348" y="208" width="22" height="29">
<path fill-rule="evenodd" clip-rule="evenodd" d="M358.282 235.927C358.635 235.882 359.006 235.834 359.397 235.787C365.735 235.022 369.566 226.358 369.586 222.066C369.587 221.809 369.592 221.537 369.596 221.253C369.671 216.782 369.799 209.171 356.278 208.185C356.278 208.185 353.076 213.85 351.755 220.733C351.698 220.792 351.641 220.851 351.584 220.909C350.809 221.708 350.086 222.452 349.166 223.157C348.783 223.45 348.378 223.808 348.342 224.288C348.29 225.006 349.071 225.478 349.757 225.698C350.228 225.849 350.71 225.967 351.197 226.049C351.192 226.62 351.207 227.192 351.244 227.763C351.275 228.218 351.306 228.649 351.336 229.058C351.398 229.814 351.462 230.488 351.534 231.097C352.227 236.697 353.687 236.511 358.282 235.927Z" fill="white"/>
</mask>
<g mask="url(#mask3_519_2255)">
<path d="M369.586 222.066L370.386 222.069V222.068L369.586 222.066ZM356.278 208.185L356.336 207.387L355.83 207.35L355.581 207.791L356.278 208.185ZM351.755 220.733L352.329 221.291L352.496 221.119L352.541 220.884L351.755 220.733ZM349.757 225.698L349.512 226.46H349.513L349.757 225.698ZM351.197 226.049L351.997 226.056L352.003 225.373L351.33 225.26L351.197 226.049ZM351.244 227.763L350.446 227.815V227.818L351.244 227.763ZM351.336 229.058L350.538 229.117L350.539 229.123L351.336 229.058ZM351.534 231.097L350.739 231.191L350.74 231.195L351.534 231.097ZM359.301 234.993C358.907 235.04 358.534 235.088 358.181 235.133L358.383 236.72C358.736 236.675 359.105 236.628 359.493 236.581L359.301 234.993ZM368.786 222.062C368.777 224.028 367.875 227.123 366.183 229.825C364.488 232.531 362.123 234.652 359.301 234.993L359.493 236.581C363.009 236.157 365.729 233.564 367.539 230.674C369.352 227.78 370.375 224.396 370.386 222.069L368.786 222.062ZM368.797 221.24C368.792 221.523 368.787 221.8 368.786 222.063L370.386 222.068C370.387 221.818 370.392 221.552 370.396 221.266L368.797 221.24ZM356.219 208.983C362.836 209.465 365.897 211.547 367.361 213.842C368.862 216.195 368.835 218.973 368.797 221.24L370.396 221.266C370.433 219.061 370.507 215.798 368.71 212.982C366.876 210.107 363.241 207.89 356.336 207.387L356.219 208.983ZM352.541 220.884C353.187 217.515 354.297 214.434 355.248 212.19C355.723 211.07 356.157 210.162 356.472 209.537C356.629 209.224 356.756 208.982 356.843 208.819C356.886 208.738 356.92 208.676 356.942 208.636C356.953 208.616 356.962 208.601 356.967 208.591C356.97 208.586 356.972 208.583 356.973 208.581C356.973 208.58 356.974 208.579 356.974 208.579C356.974 208.579 356.974 208.578 356.278 208.185C355.581 207.791 355.581 207.791 355.581 207.792C355.58 207.792 355.58 207.793 355.58 207.793C355.579 207.794 355.579 207.796 355.578 207.797C355.576 207.801 355.573 207.805 355.57 207.811C355.563 207.824 355.553 207.841 355.54 207.864C355.515 207.91 355.479 207.977 355.432 208.064C355.339 208.238 355.205 208.493 355.042 208.818C354.714 209.47 354.266 210.409 353.775 211.565C352.796 213.875 351.644 217.068 350.97 220.582L352.541 220.884ZM351.182 220.175C351.124 220.235 351.067 220.294 351.01 220.352L352.158 221.467C352.215 221.408 352.272 221.35 352.329 221.291L351.182 220.175ZM351.01 220.352C350.231 221.155 349.546 221.858 348.679 222.522L349.652 223.792C350.625 223.047 351.387 222.261 352.158 221.467L351.01 220.352ZM348.679 222.522C348.479 222.675 348.221 222.883 348.007 223.143C347.788 223.408 347.578 223.771 347.544 224.23L349.14 224.347C349.142 224.325 349.152 224.269 349.241 224.161C349.333 224.049 349.469 223.932 349.652 223.792L348.679 222.522ZM347.544 224.23C347.494 224.931 347.864 225.455 348.252 225.787C348.635 226.116 349.109 226.331 349.512 226.46L350.001 224.937C349.719 224.846 349.46 224.715 349.294 224.573C349.133 224.435 349.139 224.364 349.14 224.346L347.544 224.23ZM349.513 226.46C350.02 226.623 350.539 226.749 351.065 226.838L351.33 225.26C350.88 225.184 350.436 225.076 350.001 224.937L349.513 226.46ZM352.042 227.711C352.007 227.161 351.992 226.609 351.997 226.056L350.397 226.041C350.392 226.632 350.407 227.223 350.446 227.815L352.042 227.711ZM352.134 228.998C352.103 228.591 352.073 228.163 352.042 227.709L350.446 227.818C350.477 228.274 350.508 228.706 350.538 229.117L352.134 228.998ZM352.328 231.003C352.257 230.407 352.194 229.744 352.133 228.993L350.539 229.123C350.601 229.885 350.666 230.569 350.739 231.191L352.328 231.003ZM358.181 235.133C357.017 235.281 356.114 235.395 355.374 235.406C354.637 235.418 354.17 235.323 353.839 235.135C353.528 234.959 353.237 234.645 352.976 233.998C352.709 233.334 352.498 232.377 352.327 230.999L350.74 231.195C350.916 232.617 351.147 233.737 351.492 234.595C351.844 235.47 352.336 236.123 353.051 236.528C353.745 236.92 354.548 237.019 355.399 237.006C356.247 236.993 357.25 236.864 358.383 236.72L358.181 235.133Z" fill="#263238"/>
</g>
<path d="M355.85 212.64C356.711 213.154 357.726 213.326 358.708 213.526C360.974 213.985 363.432 214.801 364.561 216.819C365.336 218.206 365.317 219.882 365.695 221.425C366.074 222.968 367.178 224.599 368.767 224.593C370.142 224.587 371.172 223.374 371.942 222.236C372.708 221.105 373.439 219.882 373.558 218.522C373.622 217.798 373.506 217.066 373.293 216.37C372.167 212.704 368.58 210.418 365.134 208.736C363.322 207.851 361.398 207.026 359.382 207.057C356.78 207.095 352.138 210.426 355.85 212.64Z" fill="#263238"/>
<path d="M353.132 216.39C353.412 216.554 353.762 216.473 354.086 216.47C354.767 216.463 355.389 216.819 356.01 217.096C356.139 217.154 356.273 217.208 356.414 217.214C356.554 217.219 356.706 217.166 356.782 217.047C356.88 216.893 356.818 216.677 356.69 216.547C356.561 216.416 356.382 216.351 356.207 216.293C355.495 216.053 354.766 215.851 354.019 215.755C353.808 215.729 353.47 215.636 353.266 215.742C353.06 215.85 352.882 216.243 353.132 216.39Z" fill="#263238"/>
<path d="M354.014 228.952C354.045 228.942 354.077 228.932 354.108 228.921C353.527 229.57 352.8 230.175 351.967 230.467C351.934 230.154 351.903 229.823 351.873 229.473C352.507 229.357 353.287 229.187 354.014 228.952Z" fill="white" stroke="#263238"/>
<path d="M370.232 223.401C369.925 224.903 368.458 225.872 366.956 225.566C365.453 225.259 364.485 223.792 364.791 222.29C365.098 220.787 366.565 219.819 368.067 220.125C369.57 220.432 370.539 221.899 370.232 223.401Z" fill="white"/>
<path d="M349.415 241H351.5L347.976 263.044L346 262.733L349.415 241Z" fill="#E9E9E9"/>
<path d="M354.948 219.433C354.79 220.206 354.305 220.761 353.865 220.671C353.425 220.582 353.196 219.881 353.354 219.107C353.513 218.334 353.998 217.778 354.438 217.869C354.878 217.958 355.106 218.659 354.948 219.433Z" fill="#263238"/>
<path d="M-63.0308 40.797C-37.5941 54.9419 19.0021 75.7463 41.8931 45.8041C70.5068 8.37635 41.7033 0.871214 33.2447 19.5474C24.786 38.2236 66.9968 63.6024 108.765 25.1247C142.179 -5.65756 157.787 -53.1177 161.414 -73" stroke="#0487FF" stroke-dasharray="6 6"/>
<path d="M479.529 315.123C454.601 330.146 408.389 368.881 422.967 403.637C441.189 447.083 462.034 425.835 450.045 409.204C438.056 392.572 395.035 416.553 407.622 471.93C417.691 516.232 451.088 553.391 466.527 566.432" stroke="#0487FF" stroke-dasharray="6 6"/>
</g>
</g>
</g>
</g>
<defs>
<clipPath id="clip0_519_2255">
<rect width="480" height="480" fill="white"/>
</clipPath>
</defs>
</svg>
