<svg width="480" height="480" viewBox="0 0 480 480" fill="none" xmlns="http://www.w3.org/2000/svg">
<g clip-path="url(#clip0_531_8584)">
<mask id="mask0_531_8584" style="mask-type:luminance" maskUnits="userSpaceOnUse" x="0" y="0" width="480" height="480">
<path d="M480 0H0V480H480V0Z" fill="white"/>
</mask>
<g mask="url(#mask0_531_8584)">
<mask id="mask1_531_8584" style="mask-type:luminance" maskUnits="userSpaceOnUse" x="0" y="0" width="480" height="480">
<path d="M456 0H24C10.7452 0 0 10.7452 0 24V456C0 469.255 10.7452 480 24 480H456C469.255 480 480 469.255 480 456V24C480 10.7452 469.255 0 456 0Z" fill="white"/>
</mask>
<g mask="url(#mask1_531_8584)">
<path d="M456 0H24C10.7452 0 0 10.7452 0 24V456C0 469.255 10.7452 480 24 480H456C469.255 480 480 469.255 480 456V24C480 10.7452 469.255 0 456 0Z" fill="#E6F3FF"/>
<path d="M-63.0303 40.797C-37.5936 54.9419 19.0026 75.7463 41.8936 45.8041C70.5073 8.37637 41.7038 0.871229 33.2452 19.5474C24.7865 38.2236 66.9973 63.6025 108.765 25.1247C142.179 -5.65755 157.787 -53.1177 161.414 -73" stroke="#0487FF" stroke-dasharray="6 6"/>
<path d="M479.53 315.123C454.602 330.146 408.39 368.881 422.968 403.637C441.19 447.083 462.035 425.835 450.046 409.204C438.057 392.572 395.036 416.553 407.623 471.93C417.692 516.232 451.089 553.391 466.528 566.432" stroke="#0487FF" stroke-dasharray="6 6"/>
<path d="M200.777 266.838H206.334C209.121 266.838 211.38 269.097 211.38 271.883C211.38 274.67 209.121 276.929 206.334 276.929H102.414C99.6272 276.929 97.3682 274.67 97.3682 271.883C97.3682 269.097 99.6272 266.838 102.414 266.838H107.527H200.777Z" fill="#F4EAE2"/>
<path d="M206.334 277.235H102.414C99.463 277.235 97.0625 274.834 97.0625 271.883C97.0625 268.933 99.4631 266.532 102.414 266.532H107.527C107.695 266.532 107.832 266.669 107.832 266.838C107.832 267.006 107.695 267.143 107.527 267.143H102.414C99.7998 267.143 97.6733 269.27 97.6733 271.883C97.6733 274.497 99.7998 276.624 102.414 276.624H206.334C208.948 276.624 211.074 274.497 211.074 271.883C211.074 269.27 208.948 267.143 206.334 267.143H200.777C200.608 267.143 200.472 267.006 200.472 266.838C200.472 266.669 200.608 266.532 200.777 266.532H206.334C209.284 266.532 211.685 268.933 211.685 271.883C211.685 274.834 209.285 277.235 206.334 277.235Z" fill="#263238"/>
<path d="M204.917 246.667H103.83V266.85H204.917V246.667Z" fill="#263238"/>
<path d="M256.864 235.986L51.9652 235.607L50.1973 237.583V240.019C50.1973 243.691 53.1662 246.667 56.8284 246.667H251.919C255.582 246.667 258.55 243.691 258.55 240.019V237.583L256.864 235.986Z" fill="white"/>
<path d="M50.3953 237.23L52.1634 235.254C52.2402 235.168 52.3503 235.118 52.4658 235.118L256.479 235.279C256.582 235.279 256.681 235.319 256.757 235.39L50.3953 237.23ZM50.3953 237.23C50.329 237.304 50.292 237.4 50.292 237.5V239.936C50.292 241.872 50.8538 243.581 51.9069 244.807C52.9616 246.035 54.5025 246.771 56.4423 246.771H251.533C255.413 246.771 258.569 243.607 258.569 239.718V237.282C258.569 237.17 258.524 237.064 258.443 236.987L256.757 235.39L50.3953 237.23ZM51.1029 239.936V237.655L52.6466 235.93L256.316 236.09L257.759 237.456V239.718C257.759 243.16 254.965 245.961 251.533 245.961H56.4423C54.7255 245.961 53.3944 245.315 52.491 244.245C51.5858 243.174 51.1029 241.667 51.1029 239.936Z" fill="#263238"/>
<path d="M50.3953 237.23L52.1634 235.254C52.2402 235.168 52.3503 235.118 52.4658 235.118L256.479 235.279M50.3953 237.23L256.757 235.39M50.3953 237.23C50.329 237.304 50.292 237.4 50.292 237.5V239.936C50.292 241.872 50.8538 243.581 51.9069 244.807C52.9616 246.035 54.5025 246.771 56.4423 246.771H251.533C255.413 246.771 258.569 243.607 258.569 239.718V237.282C258.569 237.17 258.524 237.064 258.443 236.987L256.757 235.39M256.479 235.279L256.478 235.379M256.479 235.279C256.582 235.279 256.681 235.319 256.757 235.39M51.1029 239.936V237.655L52.6466 235.93L256.316 236.09L257.759 237.456V239.718C257.759 243.16 254.965 245.961 251.533 245.961H56.4423C54.7255 245.961 53.3944 245.315 52.491 244.245C51.5858 243.174 51.1029 241.667 51.1029 239.936Z" stroke="#263238" stroke-width="0.2"/>
<path d="M258.051 237.083H50.6973V120.708C50.6973 116.727 53.9242 113.5 57.9049 113.5H250.843C254.824 113.5 258.051 116.727 258.051 120.708V237.083Z" fill="#0487FF" stroke="#263238"/>
<path d="M57.8145 229.949V120.905C57.8145 120.756 57.9359 120.634 58.0857 120.634H250.664C250.813 120.634 250.935 120.755 250.935 120.905V229.949H57.8145Z" fill="white" stroke="#263238"/>
<path d="M251.435 230.754H57.3142C57.1455 230.754 57.0088 230.617 57.0088 230.449V120.905C57.0088 120.312 57.4917 119.829 58.0855 119.829H250.664C251.257 119.829 251.74 120.312 251.74 120.905V230.449C251.74 230.617 251.603 230.754 251.435 230.754ZM57.6196 230.143H251.129V120.905C251.129 120.649 250.92 120.44 250.663 120.44H58.0853C57.8285 120.44 57.6196 120.649 57.6196 120.905V230.143Z" fill="#263238"/>
<path d="M119.128 144.459H68.4404V195.146H119.128V144.459Z" fill="#CDE7FF"/>
<path d="M119.433 195.551H119.533V195.451V144.153V144.053H119.433H68.1352H68.0352V144.153V195.451V195.551H68.1352H119.433ZM118.722 194.74H68.8461V144.864H118.722V194.74Z" fill="#263238" stroke="#263238" stroke-width="0.2"/>
<path d="M68.4406 134.887H105.723L106.028 134.482H106.128C106.128 134.258 105.946 134.077 105.723 134.077H68.4406C68.2166 134.077 68.0352 134.258 68.0352 134.482C68.0352 134.706 68.2166 134.887 68.4406 134.887Z" fill="#263238" stroke="#263238" stroke-width="0.2"/>
<path d="M105.722 202.409H118.825L119.131 202.003H119.231C119.231 201.779 119.049 201.598 118.825 201.598H105.722C105.498 201.598 105.317 201.78 105.317 202.003C105.317 202.227 105.498 202.409 105.722 202.409Z" fill="#263238" stroke="#263238" stroke-width="0.2"/>
<path d="M179.718 144.459H129.031V195.146H179.718V144.459Z" fill="#CDE7FF"/>
<path d="M180.024 195.551H180.124V195.451V144.153V144.053H180.024H128.726H128.626V144.153V195.451V195.551H128.726H180.024ZM179.313 194.74H129.436V144.864H179.313V194.74Z" fill="#263238" stroke="#263238" stroke-width="0.2"/>
<path d="M166.615 202.409H179.718L180.023 202.003H180.123C180.123 201.78 179.942 201.598 179.718 201.598H166.615C166.391 201.598 166.21 201.78 166.21 202.003C166.21 202.227 166.391 202.409 166.615 202.409Z" fill="#263238" stroke="#263238" stroke-width="0.2"/>
<path d="M129.031 134.888H164.052L164.357 134.482H164.457C164.457 134.258 164.275 134.077 164.052 134.077H129.031C128.807 134.077 128.626 134.258 128.626 134.482C128.626 134.706 128.807 134.888 129.031 134.888Z" fill="#263238" stroke="#263238" stroke-width="0.2"/>
<path d="M240.308 144.459H189.621V195.146H240.308V144.459Z" fill="#CDE7FF"/>
<path d="M240.615 195.551H240.715V195.451V144.153V144.053H240.615H189.316H189.216V144.153V195.451V195.551H189.316H240.615ZM239.904 194.74H190.027V144.864H239.904V194.74Z" fill="#263238" stroke="#263238" stroke-width="0.2"/>
<path d="M240.309 202.309H227.206C227.037 202.309 226.9 202.172 226.9 202.003C226.9 201.835 227.037 201.698 227.206 201.698H240.309C240.477 201.698 240.614 201.835 240.614 202.003C240.614 202.172 240.477 202.309 240.309 202.309Z" fill="#263238"/>
<path d="M189.622 134.888H228.213C228.437 134.888 228.619 134.706 228.619 134.482C228.619 134.258 228.437 134.077 228.213 134.077H189.622C189.398 134.077 189.216 134.258 189.216 134.482C189.216 134.706 189.398 134.888 189.622 134.888Z" fill="#263238" stroke="#263238" stroke-width="0.2"/>
<path d="M348.612 287.02H173.283V175.313C173.283 172.213 175.796 169.7 178.896 169.7H342.999C346.099 169.7 348.612 172.213 348.612 175.313V287.02Z" fill="white"/>
<path d="M173.284 287.425H348.613C348.836 287.425 349.018 287.244 349.018 287.02V175.313C349.018 171.994 346.318 169.295 342.999 169.295H178.897C175.578 169.295 172.879 171.994 172.879 175.313V287.02C172.879 287.244 173.06 287.425 173.284 287.425ZM348.207 175.313V286.615H173.689V175.313C173.689 172.442 176.026 170.105 178.897 170.105H342.999C345.871 170.105 348.207 172.442 348.207 175.313Z" fill="#263238" stroke="#263238" stroke-width="0.2"/>
<path d="M178.707 276.866H343.189C343.412 276.866 343.594 276.684 343.594 276.46V180.259C343.594 180.036 343.412 179.854 343.189 179.854H178.707C178.483 179.854 178.301 180.036 178.301 180.259V276.461C178.301 276.684 178.483 276.866 178.707 276.866ZM342.783 180.665V276.055H179.112V180.665H342.783Z" fill="#263238" stroke="#263238" stroke-width="0.2"/>
<path d="M351.661 301.514H170.499C162.208 301.514 154.587 297.97 150.654 292.287L148.762 289.553C147.434 287.633 148.81 285.015 151.148 285.015H370.749C372.98 285.015 374.375 287.423 373.262 289.352L372.224 291.151C368.588 297.457 360.537 301.514 351.661 301.514Z" fill="white"/>
<path d="M150.32 292.518C154.337 298.323 162.071 301.919 170.498 301.919H351.66C360.655 301.919 368.869 297.78 372.575 291.354L373.613 289.554C374.207 288.523 374.207 287.291 373.611 286.26C373.014 285.227 371.943 284.609 370.748 284.609H151.147C149.895 284.609 148.799 285.271 148.218 286.379C147.639 287.484 147.718 288.758 148.428 289.783L150.32 292.518ZM148.937 286.756C149.375 285.919 150.2 285.42 151.147 285.42H370.748C371.651 285.42 372.458 285.886 372.909 286.666C373.358 287.444 373.359 288.371 372.91 289.149L371.872 290.949C368.318 297.113 360.388 301.108 351.66 301.108H170.498C162.32 301.108 154.846 297.634 150.987 292.057L149.094 289.322C148.558 288.548 148.5 287.589 148.937 286.756Z" fill="#263238"/>
<path d="M150.32 292.518L150.402 292.461M150.32 292.518C154.337 298.323 162.071 301.919 170.498 301.919H351.66C360.655 301.919 368.869 297.78 372.575 291.354L373.613 289.554C374.207 288.523 374.207 287.291 373.611 286.26C373.014 285.227 371.943 284.609 370.748 284.609H151.147C149.895 284.609 148.799 285.271 148.218 286.379C147.639 287.484 147.718 288.758 148.428 289.783L150.32 292.518ZM148.937 286.756C149.375 285.919 150.2 285.42 151.147 285.42H370.748C371.651 285.42 372.458 285.886 372.909 286.666C373.358 287.444 373.359 288.371 372.91 289.149L371.872 290.949C368.318 297.113 360.388 301.108 351.66 301.108H170.498C162.32 301.108 154.846 297.634 150.987 292.057L149.094 289.322C148.558 288.548 148.5 287.589 148.937 286.756Z" stroke="#263238" stroke-width="0.2"/>
<path d="M249.704 201.544H190.979V260.269H249.704V201.544Z" fill="#CDE7FF"/>
<path d="M250.01 260.675H250.11V260.575V201.239V201.139H250.01H190.674H190.574V201.239V260.575V260.675H190.674H250.01ZM249.299 259.864H191.385V201.95H249.299V259.864Z" fill="#263238" stroke="#263238" stroke-width="0.2"/>
<path d="M190.979 190.391H234.173C234.397 190.391 234.579 190.21 234.579 189.986C234.579 189.762 234.397 189.581 234.173 189.581H190.979C190.755 189.581 190.574 189.762 190.574 189.986C190.574 190.21 190.755 190.391 190.979 190.391Z" fill="#263238" stroke="#263238" stroke-width="0.2"/>
<path d="M234.175 268.62H249.355L249.661 268.214H249.761C249.761 267.99 249.579 267.809 249.355 267.809H234.175C233.951 267.809 233.769 267.99 233.769 268.214C233.769 268.438 233.951 268.62 234.175 268.62Z" fill="#263238" stroke="#263238" stroke-width="0.2"/>
<path d="M328.495 201.544H269.771V260.269H328.495V201.544Z" fill="#CDE7FF"/>
<path d="M328.8 260.675H328.9V260.575V201.239V201.139H328.8H269.464H269.364V201.239V260.575V260.675H269.464H328.8ZM328.089 259.864H270.175V201.95H328.089V259.864Z" fill="#263238" stroke="#263238" stroke-width="0.2"/>
<path d="M269.769 190.391H312.964C313.187 190.391 313.369 190.21 313.369 189.986C313.369 189.762 313.187 189.581 312.964 189.581H269.769C269.545 189.581 269.364 189.762 269.364 189.986C269.364 190.21 269.545 190.391 269.769 190.391Z" fill="#263238" stroke="#263238" stroke-width="0.2"/>
<path d="M328.551 268.214C328.551 267.99 328.369 267.809 328.145 267.809H312.965C312.741 267.809 312.559 267.99 312.559 268.214C312.559 268.438 312.741 268.62 312.965 268.62H328.145C328.369 268.62 328.551 268.438 328.551 268.214Z" fill="#263238" stroke="#263238" stroke-width="0.2"/>
<path d="M327.098 365.897H419.012C424.997 365.897 429.893 361.001 429.893 355.017V169.672C429.893 163.688 424.997 158.792 419.012 158.792H327.098C321.114 158.792 316.218 163.688 316.218 169.672V355.017C316.218 361.001 321.114 365.897 327.098 365.897Z" fill="#263238"/>
<path d="M330.04 359.323H416.072C420.607 359.323 424.317 355.612 424.317 351.078V173.04C424.317 168.505 420.607 164.795 416.072 164.795H330.04C325.505 164.795 321.795 168.505 321.795 173.04V351.077C321.795 355.612 325.505 359.323 330.04 359.323Z" fill="white"/>
<path d="M416.071 359.628H330.039C325.324 359.628 321.488 355.792 321.488 351.078V173.04C321.488 168.325 325.324 164.489 330.039 164.489H416.071C420.785 164.489 424.621 168.325 424.621 173.04V351.078C424.621 355.792 420.785 359.628 416.071 359.628ZM330.039 165.1C325.661 165.1 322.099 168.662 322.099 173.04V351.078C322.099 355.455 325.661 359.017 330.039 359.017H416.071C420.449 359.017 424.01 355.456 424.01 351.078V173.04C424.01 168.662 420.449 165.1 416.071 165.1H330.039Z" fill="white"/>
<path d="M383.708 170.96H361.116C360.947 170.96 360.811 170.824 360.811 170.655C360.811 170.486 360.947 170.349 361.116 170.349H383.708C383.877 170.349 384.013 170.486 384.013 170.655C384.013 170.824 383.877 170.96 383.708 170.96Z" fill="#263238"/>
<path d="M333.988 273.574V195.441H412.121V273.574H333.988Z" fill="#52D180" stroke="black"/>
<path d="M379.936 186.201C379.936 185.977 379.754 185.796 379.53 185.796H333.488C333.264 185.796 333.083 185.977 333.083 186.201C333.083 186.425 333.264 186.606 333.488 186.606H379.53C379.754 186.606 379.936 186.425 379.936 186.201Z" fill="#263238" stroke="#263238" stroke-width="0.2"/>
<path d="M394.388 281.336H412.622C412.845 281.336 413.027 281.154 413.027 280.93C413.027 280.707 412.845 280.525 412.622 280.525H394.388C394.164 280.525 393.982 280.707 393.982 280.93C393.982 281.154 394.164 281.336 394.388 281.336Z" fill="#263238" stroke="#263238" stroke-width="0.2"/>
<path d="M333.988 334.174V302.804H412.121V334.174H333.988Z" fill="#52D180" stroke="black"/>
<path d="M382.372 351.309C380.387 351.309 378.771 349.693 378.771 347.708C378.771 345.722 380.387 344.107 382.372 344.107C384.358 344.107 385.973 345.722 385.973 347.708C385.973 349.693 384.358 351.309 382.372 351.309ZM382.372 344.718C380.724 344.718 379.382 346.059 379.382 347.708C379.382 349.357 380.724 350.698 382.372 350.698C384.021 350.698 385.362 349.357 385.362 347.708C385.362 346.059 384.021 344.718 382.372 344.718Z" fill="#263238"/>
<path d="M372.755 351.309C370.77 351.309 369.154 349.693 369.154 347.708C369.154 345.722 370.77 344.107 372.755 344.107C374.741 344.107 376.356 345.722 376.356 347.708C376.356 349.693 374.741 351.309 372.755 351.309ZM372.755 344.718C371.106 344.718 369.765 346.059 369.765 347.708C369.765 349.357 371.107 350.698 372.755 350.698C374.404 350.698 375.745 349.357 375.745 347.708C375.745 346.059 374.404 344.718 372.755 344.718Z" fill="#263238"/>
<path d="M364.579 351.157C366.484 350.368 367.389 348.184 366.599 346.279C365.81 344.374 363.626 343.469 361.721 344.258C359.816 345.047 358.911 347.231 359.7 349.136C360.49 351.042 362.674 351.946 364.579 351.157Z" fill="#263238"/>
<path d="M333.488 293.97H379.53C379.754 293.97 379.936 293.788 379.936 293.564C379.936 293.34 379.754 293.159 379.53 293.159H333.488C333.264 293.159 333.083 293.34 333.083 293.564C333.083 293.788 333.264 293.97 333.488 293.97Z" fill="#263238" stroke="#263238" stroke-width="0.2"/>
<path d="M209.451 327.541C209.458 327.562 209.464 327.582 209.471 327.601L171.998 356.607L108.63 361.432L108.586 361.435L108.544 361.446L108.582 361.597C108.543 361.446 108.544 361.446 108.544 361.446L108.541 361.447L108.534 361.449L108.502 361.457C108.474 361.464 108.432 361.474 108.376 361.488C108.264 361.516 108.097 361.557 107.878 361.609C107.442 361.713 106.801 361.86 105.985 362.036C104.353 362.387 102.021 362.85 99.2269 363.293C93.6354 364.18 86.2076 364.988 78.8339 364.682C71.4487 364.375 64.1824 362.954 58.8637 359.436C53.5842 355.944 50.1755 350.356 50.5245 341.559C50.9618 330.537 55.2741 318.364 60.6924 306.974C66.0109 295.794 72.3717 285.417 77.1137 277.68C77.1995 277.54 77.2847 277.401 77.3694 277.263C82.4953 268.899 91.0026 263.136 100.686 261.619C105.69 260.835 109.909 260.385 115.187 260.076C115.536 261.321 116.214 262.497 117.001 263.579C117.877 264.782 118.912 265.902 119.832 266.893C122.188 269.433 125.421 270.874 128.796 271.281C132.242 271.698 135.76 271.054 138.895 269.64C142.032 268.226 144.862 265.943 146.676 262.957C147.233 262.039 147.676 261.074 148.01 260.078C153.896 260.385 159.175 260.799 163.403 261.189C170.856 261.876 177.661 265.701 182.115 271.719C189.957 282.314 196.825 296.361 201.737 307.779C204.191 313.484 206.154 318.526 207.503 322.14C208.178 323.947 208.699 325.398 209.051 326.396C209.227 326.895 209.361 327.281 209.451 327.541Z" fill="#E9E9E9"/>
<path d="M108.544 361.446L108.586 361.435L108.63 361.432L171.998 356.607L209.471 327.601C209.464 327.582 209.458 327.562 209.451 327.541C209.361 327.281 209.227 326.895 209.051 326.396C208.699 325.398 208.178 323.947 207.503 322.14C206.154 318.526 204.191 313.484 201.737 307.779C196.825 296.361 189.957 282.314 182.115 271.719C177.661 265.701 170.856 261.876 163.403 261.189C159.175 260.799 153.896 260.385 148.01 260.078C147.676 261.074 147.233 262.039 146.676 262.957C144.862 265.943 142.032 268.226 138.895 269.64M108.544 361.446L108.582 361.597C108.543 361.446 108.544 361.446 108.544 361.446ZM108.544 361.446L108.541 361.447L108.534 361.449L108.502 361.457C108.474 361.464 108.432 361.474 108.376 361.488C108.264 361.516 108.097 361.557 107.878 361.609C107.442 361.713 106.801 361.86 105.985 362.036C104.353 362.387 102.021 362.85 99.2269 363.293C93.6354 364.18 86.2076 364.988 78.8339 364.682C71.4487 364.375 64.1824 362.954 58.8637 359.436C53.5842 355.944 50.1755 350.356 50.5245 341.559C50.9618 330.537 55.2741 318.364 60.6924 306.974C66.0109 295.794 72.3717 285.417 77.1137 277.68C77.1995 277.54 77.2847 277.401 77.3694 277.263C82.4953 268.899 91.0026 263.136 100.686 261.619M138.895 269.64C135.76 271.054 132.242 271.698 128.796 271.281C125.421 270.874 122.188 269.433 119.832 266.893C118.912 265.902 117.877 264.782 117.001 263.579C116.214 262.497 115.536 261.321 115.187 260.076C109.909 260.385 105.69 260.835 100.686 261.619M138.895 269.64L138.69 269.185M100.686 261.619L100.608 261.126" stroke="#263238"/>
<path d="M122.227 326.402C122.229 326.4 122.231 326.398 122.233 326.396C131.615 325.387 138.485 326.766 143.518 329.366C148.578 331.981 151.823 335.851 153.906 339.862C155.992 343.878 156.909 348.033 157.303 351.191C157.5 352.768 157.565 354.093 157.582 355.021C157.589 355.424 157.587 355.752 157.583 355.993L131.084 355.728C124.774 355.664 118.523 356.954 112.754 359.511C110.324 360.587 107.66 358.558 108.05 355.926C109.513 346.05 113.097 338.633 116.312 333.688C117.92 331.216 119.435 329.361 120.545 328.128C121.1 327.511 121.554 327.05 121.867 326.744C122.024 326.591 122.145 326.477 122.227 326.402Z" fill="white"/>
<path d="M108.05 355.926C107.66 358.558 110.324 360.587 112.754 359.511C118.523 356.954 124.774 355.664 131.084 355.728L157.583 355.993C157.587 355.752 157.589 355.424 157.582 355.021C157.565 354.093 157.5 352.768 157.303 351.191C156.909 348.033 155.992 343.878 153.906 339.862C151.823 335.851 148.578 331.981 143.518 329.366C138.485 326.766 131.615 325.387 122.233 326.396C122.231 326.398 122.229 326.4 122.227 326.402C122.145 326.477 122.024 326.591 121.867 326.744C121.554 327.05 121.1 327.511 120.545 328.128C119.435 329.361 117.92 331.216 116.312 333.688C113.097 338.633 109.513 346.05 108.05 355.926ZM108.05 355.926L107.556 355.852" stroke="#263238"/>
<path d="M138.189 356.938C138.174 356.938 138.159 356.937 138.144 356.935C137.977 356.911 137.862 356.756 137.886 356.589C138.168 354.653 137.714 352.501 136.607 350.529C135.679 348.875 134.305 347.315 132.408 345.761C132.048 345.466 131.66 345.162 131.225 344.972C131.071 344.904 131 344.724 131.068 344.569C131.135 344.415 131.315 344.344 131.47 344.412C131.976 344.633 132.402 344.966 132.795 345.288C134.752 346.892 136.173 348.509 137.14 350.231C138.312 352.319 138.792 354.608 138.491 356.677C138.468 356.829 138.338 356.938 138.189 356.938Z" fill="#263238"/>
<path d="M146.911 356.438C146.761 356.438 146.63 356.328 146.609 356.176C146.282 353.869 145.812 351.17 144.805 348.646C143.764 346.037 142.237 343.908 140.388 342.487C140.254 342.385 140.229 342.193 140.332 342.059C140.435 341.925 140.627 341.9 140.76 342.003C142.696 343.49 144.291 345.709 145.372 348.419C146.403 351.004 146.882 353.747 147.214 356.09C147.237 356.257 147.121 356.411 146.954 356.435C146.939 356.437 146.925 356.438 146.911 356.438Z" fill="#263238"/>
<path d="M153.9 356.438C153.888 356.438 153.875 356.437 153.863 356.436C153.695 356.416 153.576 356.264 153.596 356.096C154.77 346.259 148.326 340.12 148.261 340.059C148.138 339.944 148.131 339.751 148.246 339.628C148.361 339.504 148.554 339.498 148.677 339.613C148.745 339.675 155.414 346.015 154.202 356.169C154.184 356.324 154.052 356.438 153.9 356.438Z" fill="#263238"/>
<path d="M300 120.5L293.5 120L293 119L292.5 118L291 117L290 116.5H288L286.5 117L285.5 118L284.5 119V120.5V121.5V122.5L285 123.5L280.5 128H280L279.5 127.5H278.5H277.5H276L275 128L274 129L273.5 130V131L273 132L273.5 133L274 134.5L275 135L275.5 135.5L276 136H277L276.5 139.5L277 143H276.5L275.5 143.5L274.5 144L274 145L273.5 146V147V148.5L274 150L275.5 151.5L277.5 152L279 151.5L280 151L285 156L284.5 157L284 158.5V159.5L285.5 162L287.5 163H289L290.5 162.5L292 162V161L292.5 160.5L293 159.5H294.5H296H297.5H299.5L300 160.5L301 161.5L302 162.5L303.5 163H305L306.5 162.5L307.5 161.5L308 161L308.5 160V159V157.5L308 156.5V156H308.5L309 155.5L309.5 154.5L310.5 154L311 153L312 152.5L312.5 151.5H313L314 152H314.5L315.5 152.5L316.5 152L317.5 151.5L318 151L319 150.5L319.5 149.5L320 148.5V147.5L319.5 146.5L319 145L318 144.5L317.5 144L316.5 143.5L316 143L316.5 142V141V139V138V137.5L316 136.5H316.5L318 136L319 135L319.5 134L320 132.5V131.5L319.5 130.5L318.5 129L317 128L316 127.5L314.5 128L313 128.5L311 126L308 123.5L308.5 122.5L309 121L308.5 119.5L307.5 118L306 117L304.5 116.5L303 117L301.5 117.5L301 118.5L300 120.5Z" fill="#0487FF"/>
<path d="M245.792 365.913H115.565C114.794 365.913 114.022 365.715 113.387 365.278C111.897 364.253 111.38 362.42 111.969 360.845C113.505 357.624 116.679 356.49 121.371 356.49H254.336L252.611 361.181C251.547 364.027 248.829 365.913 245.792 365.913Z" fill="#263238"/>
<path d="M245.792 366.219H115.565C114.682 366.219 113.869 365.98 113.214 365.529C111.658 364.459 111.029 362.489 111.683 360.738C113.187 357.581 116.172 356.184 121.371 356.184H254.336C254.436 356.184 254.53 356.233 254.587 356.315C254.644 356.397 254.658 356.502 254.623 356.595L252.898 361.287C251.795 364.237 248.939 366.219 245.792 366.219ZM121.371 356.795C116.438 356.795 113.623 358.085 112.245 360.977C111.699 362.44 112.236 364.115 113.56 365.026C114.113 365.407 114.806 365.608 115.565 365.608H245.792C248.685 365.608 251.311 363.786 252.325 361.074L253.899 356.795H121.371Z" fill="#263238"/>
<path d="M251.974 361.72C251.085 363.95 248.928 365.413 246.529 365.413H159.161L180.565 304.95C182.104 300.602 186.215 297.696 190.826 297.696H270.862C272.349 297.696 273.739 298.433 274.574 299.664C275.408 300.895 275.578 302.46 275.028 303.842L251.974 361.72Z" fill="#0487FF" stroke="#263238"/>
<path d="M221.993 319.512C221.728 321.612 223.497 323.377 225.599 323.111C227.029 322.93 228.184 321.776 228.365 320.346C228.63 318.247 226.861 316.481 224.759 316.747C223.329 316.928 222.174 318.082 221.993 319.512Z" fill="#F4EAE2"/>
<path d="M246.529 366.219H158.454C158.285 366.219 158.148 366.082 158.148 365.913C158.148 365.744 158.285 365.608 158.454 365.608H246.529C249.023 365.608 251.232 364.11 252.155 361.792L275.209 303.914C275.784 302.471 275.607 300.841 274.735 299.555C273.864 298.269 272.416 297.501 270.863 297.501H198.31C198.141 297.501 198.004 297.365 198.004 297.196C198.004 297.027 198.141 296.89 198.31 296.89H270.863C272.619 296.89 274.256 297.758 275.241 299.212C276.226 300.666 276.427 302.508 275.777 304.14L252.723 362.018C251.706 364.57 249.275 366.219 246.529 366.219Z" fill="#263238"/>
<path d="M248.402 357.362H169.05C168.882 357.362 168.745 357.226 168.745 357.057C168.745 356.888 168.882 356.751 169.05 356.751H248.402C248.57 356.751 248.707 356.888 248.707 357.057C248.707 357.226 248.57 357.362 248.402 357.362Z" fill="#F4EAE2"/>
<path d="M75.6231 326.555C75.6274 326.776 75.8079 326.953 76.0284 326.953H76.0295H76.0306H76.0317H76.0328H76.0339H76.0362L120.048 326.117C120.272 326.113 120.45 325.928 120.446 325.704C120.442 325.482 120.256 325.298 120.032 325.307L76.0208 326.142C75.7969 326.146 75.6189 326.331 75.6231 326.555Z" fill="#263238" stroke="#263238" stroke-width="0.2"/>
<path d="M99.8632 306.347C98.4938 306.304 97.5717 307.622 97.0037 308.619C94.2465 313.462 92.0359 318.624 90.4333 323.961C90.3848 324.123 90.4766 324.293 90.6381 324.342L99.8632 306.347ZM99.8632 306.347C100.031 306.352 100.164 306.494 100.158 306.662L99.8632 306.347ZM100.158 306.662C100.152 306.831 100.011 306.961 99.8429 306.957L100.158 306.662ZM90.3375 323.933C90.2732 324.147 90.3949 324.373 90.6092 324.437L91.1141 324.166C92.7011 318.879 94.8905 313.767 97.6214 308.971C97.8652 308.543 98.1748 308.053 98.5499 307.675C98.9254 307.297 99.3548 307.042 99.8397 307.057H99.8408C100.062 307.062 100.251 306.89 100.258 306.666C100.265 306.442 100.09 306.254 99.8665 306.247C99.1459 306.224 98.5483 306.56 98.0641 307.02C97.5805 307.479 97.2022 308.069 96.9168 308.57C94.1559 313.419 91.9423 318.588 90.3375 323.933Z" fill="#263238"/>
<path d="M99.8632 306.347C98.4938 306.304 97.5717 307.622 97.0037 308.619C94.2465 313.462 92.0359 318.624 90.4333 323.961C90.3848 324.123 90.4766 324.293 90.6381 324.342L99.8632 306.347ZM99.8632 306.347C100.031 306.352 100.164 306.494 100.158 306.662M99.8632 306.347L100.158 306.662M100.158 306.662C100.152 306.831 100.011 306.961 99.8429 306.957L100.158 306.662ZM90.3375 323.933C90.2732 324.147 90.3949 324.373 90.6092 324.437L91.1141 324.166C92.7011 318.879 94.8905 313.767 97.6214 308.971C97.8652 308.543 98.1748 308.053 98.5499 307.675C98.9254 307.297 99.3548 307.042 99.8397 307.057H99.8408C100.062 307.062 100.251 306.89 100.258 306.666C100.265 306.442 100.09 306.254 99.8665 306.247C99.1459 306.224 98.5483 306.56 98.0641 307.02C97.5805 307.479 97.2022 308.069 96.9168 308.57C94.1559 313.419 91.9423 318.588 90.3375 323.933Z" stroke="#263238" stroke-width="0.2"/>
<path d="M120.505 256.421L128.32 233.565C129.251 232.879 130.757 232.873 132.69 233.44C134.66 234.017 136.9 235.138 139.028 236.393C141.15 237.645 143.135 239.016 144.592 240.075C145.319 240.604 145.914 241.055 146.326 241.373C146.482 241.493 146.613 241.595 146.714 241.674L143.147 255.492C142.583 257.68 144.126 259.85 146.379 260.032L149.253 260.264C149.263 260.32 149.275 260.383 149.286 260.451C149.346 260.802 149.416 261.31 149.453 261.931C149.527 263.176 149.47 264.862 148.953 266.642C148.438 268.419 147.464 270.288 145.7 271.916C143.935 273.543 141.355 274.95 137.592 275.762C130.179 277.362 124.236 273.402 120.09 268.925C118.023 266.693 116.426 264.355 115.344 262.573C114.804 261.683 114.394 260.933 114.119 260.407C114.073 260.319 114.031 260.237 113.992 260.162L116.851 259.606C118.551 259.275 119.944 258.06 120.505 256.421Z" fill="white"/>
<path d="M120.505 256.421L120.032 256.26M120.505 256.421L128.32 233.565C129.251 232.879 130.757 232.873 132.69 233.44C134.66 234.017 136.9 235.138 139.028 236.393C141.15 237.645 143.135 239.016 144.592 240.075C145.319 240.604 145.914 241.055 146.326 241.373C146.482 241.493 146.613 241.595 146.714 241.674L143.147 255.492C142.583 257.68 144.126 259.85 146.379 260.032L149.253 260.264C149.263 260.32 149.275 260.383 149.286 260.451C149.346 260.802 149.416 261.31 149.453 261.931C149.527 263.176 149.47 264.862 148.953 266.642C148.438 268.419 147.464 270.288 145.7 271.916C143.935 273.543 141.355 274.95 137.592 275.762C130.179 277.362 124.236 273.402 120.09 268.925C118.023 266.693 116.426 264.355 115.344 262.573C114.804 261.683 114.394 260.933 114.119 260.407C114.073 260.319 114.031 260.237 113.992 260.162L116.851 259.606C118.551 259.275 119.944 258.06 120.505 256.421Z" stroke="#263238"/>
<path d="M113.255 260.101C113.112 260.101 112.984 260 112.956 259.854C112.924 259.689 113.032 259.528 113.197 259.496L116.698 258.815C118.111 258.54 119.278 257.523 119.744 256.161L127.607 233.164C127.625 233.111 127.657 233.064 127.7 233.029C132.358 229.149 146.857 240.751 147.472 241.247C147.565 241.322 147.606 241.445 147.576 241.561L143.928 255.693C143.718 256.506 143.877 257.364 144.364 258.048C144.851 258.731 145.609 259.162 146.445 259.229L149.69 259.491C149.858 259.505 149.983 259.652 149.97 259.821C149.956 259.989 149.808 260.114 149.641 260.1L146.395 259.838C145.38 259.756 144.458 259.233 143.866 258.402C143.275 257.571 143.082 256.528 143.337 255.541L146.935 241.6C145.363 240.362 132.272 230.242 128.156 233.446L120.322 256.359C119.785 257.927 118.442 259.098 116.815 259.415L113.314 260.096C113.294 260.099 113.275 260.101 113.255 260.101Z" fill="#263238"/>
<path d="M161.025 205.843C162.368 212.477 157.205 218.493 152.739 219.601C152.581 219.64 152.422 219.676 152.267 219.709C152.172 220.038 152.055 220.367 151.906 220.691C150.149 224.536 145.122 226.407 140.899 226.024C139.675 227.334 138.081 229.158 136.39 231.464C130.991 238.829 127.159 235.517 121.55 228.225C120.803 227.254 119.726 226.015 119.168 223.959C118.058 219.876 119.977 216.2 120.221 215.749C122.052 212.362 124.408 212.488 129.586 209.009C137.458 203.719 137.595 199.677 144.362 197.393C146.153 196.788 148.408 196.057 151.222 196.574C155.316 197.325 159.964 200.602 161.025 205.843Z" fill="#263238"/>
<path d="M133.253 238.011C133.253 238.011 137.063 246.81 147.041 245.184C157.019 243.559 157.271 230.863 156.381 217.373C155.383 218.648 153.15 219.629 151.387 220.378C144.211 223.431 137.757 219.429 136.807 218.917C138.517 221.018 138.52 223.871 137.08 225.803C136.285 226.869 134.786 227.639 132.137 227.684C132.137 227.684 130.873 223.458 127.109 225.911C123.345 228.364 124.745 238.713 133.253 238.011Z" fill="white"/>
<path d="M132.667 234.34C132.54 234.34 132.421 234.26 132.378 234.133C132.16 233.494 131.934 232.834 131.545 232.292C131.135 231.721 130.584 231.372 130.034 231.334C129.866 231.322 129.739 231.177 129.751 231.008C129.762 230.84 129.907 230.713 130.076 230.725C130.809 230.775 131.525 231.217 132.041 231.936C132.483 232.551 132.723 233.255 132.956 233.935C133.011 234.095 132.925 234.268 132.766 234.323C132.733 234.334 132.7 234.34 132.667 234.34Z" fill="#263238"/>
<path d="M287.628 136.01C285.533 140.947 287.838 146.648 292.776 148.743C297.714 150.839 303.416 148.536 305.511 143.6C307.607 138.663 305.301 132.962 300.363 130.866C295.425 128.77 289.723 131.073 287.628 136.01Z" fill="#E6F3FF"/>
<path d="M287.628 136.01L288.088 136.205M287.628 136.01C285.533 140.947 287.838 146.648 292.776 148.743C297.714 150.839 303.416 148.536 305.511 143.6C307.607 138.663 305.301 132.962 300.363 130.866M287.628 136.01C289.723 131.073 295.425 128.77 300.363 130.866M300.363 130.866L300.168 131.326M305.876 162.825C303.592 163.747 300.992 162.644 300.068 160.36C300.002 160.195 299.947 160.023 299.899 159.844L299.784 159.417L299.346 159.479C297.417 159.753 295.433 159.743 293.457 159.427L293.02 159.358L292.898 159.782C292.846 159.961 292.789 160.131 292.72 160.295C291.757 162.562 289.139 163.62 286.87 162.658C284.602 161.695 283.544 159.076 284.506 156.809C284.576 156.645 284.659 156.486 284.751 156.325L284.972 155.942L284.618 155.676C283.018 154.473 281.633 153.054 280.489 151.476L280.23 151.118L279.843 151.332C279.68 151.421 279.519 151.502 279.354 151.568C277.07 152.491 274.47 151.387 273.546 149.103C272.623 146.819 273.726 144.22 276.01 143.298C276.175 143.231 276.346 143.177 276.526 143.129L276.953 143.014L276.891 142.576C276.617 140.646 276.627 138.663 276.942 136.688L277.011 136.251L276.586 136.129C276.408 136.077 276.237 136.02 276.073 135.951V135.95C273.805 134.988 272.747 132.369 273.709 130.102C274.671 127.835 277.29 126.777 279.558 127.74C279.722 127.81 279.881 127.893 280.043 127.985L280.426 128.206L280.692 127.852C281.894 126.253 283.313 124.869 284.891 123.726L285.25 123.466L285.036 123.079C284.946 122.916 284.866 122.755 284.799 122.59C283.876 120.306 284.979 117.707 287.263 116.785C289.547 115.862 292.147 116.966 293.071 119.25C293.138 119.415 293.192 119.586 293.24 119.766L293.355 120.192L293.793 120.13C295.723 119.857 297.706 119.867 299.682 120.182L300.119 120.252L300.242 119.827C300.293 119.648 300.35 119.478 300.42 119.314C301.382 117.047 304.001 115.989 306.269 116.952C308.537 117.915 309.595 120.533 308.633 122.8C308.564 122.964 308.481 123.124 308.388 123.284L308.167 123.668L308.521 123.934C310.121 125.136 311.506 126.556 312.65 128.133L312.91 128.492L313.297 128.278C313.459 128.188 313.62 128.108 313.785 128.041C316.069 127.119 318.67 128.222 319.593 130.506C320.516 132.79 319.413 135.389 317.129 136.312C316.964 136.379 316.793 136.432 316.613 136.481L316.186 136.596L316.248 137.034C316.523 138.963 316.513 140.946 316.198 142.922L316.128 143.359L316.553 143.481C316.731 143.532 316.902 143.589 317.066 143.659C319.334 144.622 320.393 147.24 319.43 149.507C318.468 151.774 315.85 152.831 313.581 151.869C313.417 151.8 313.258 151.717 313.097 151.624L312.713 151.404L312.448 151.757C311.246 153.356 309.826 154.741 308.248 155.884L307.889 156.144L308.104 156.531C308.194 156.694 308.274 156.854 308.34 157.019C309.264 159.303 308.16 161.902 305.876 162.825Z" stroke="#263238"/>
<path d="M337.275 139.434C339.592 139.434 341.469 137.559 341.469 135.245C341.469 132.932 339.592 131.056 337.275 131.056C334.959 131.056 333.081 132.932 333.081 135.245C333.081 137.559 334.959 139.434 337.275 139.434Z" fill="#263238"/>
<path d="M349.515 139.434C351.832 139.434 353.71 137.559 353.71 135.245C353.71 132.932 351.832 131.056 349.515 131.056C347.199 131.056 345.321 132.932 345.321 135.245C345.321 137.559 347.199 139.434 349.515 139.434Z" fill="#263238"/>
<path d="M361.757 139.434C364.073 139.434 365.951 137.559 365.951 135.245C365.951 132.932 364.073 131.056 361.757 131.056C359.44 131.056 357.562 132.932 357.562 135.245C357.562 137.559 359.44 139.434 361.757 139.434Z" fill="#263238"/>
<path d="M393.193 149.323C393.025 149.323 392.888 149.187 392.888 149.018V135.551H370.333C370.164 135.551 370.027 135.414 370.027 135.245C370.027 135.077 370.164 134.94 370.333 134.94H393.193C393.362 134.94 393.499 135.077 393.499 135.245V149.018C393.499 149.187 393.362 149.323 393.193 149.323Z" fill="#263238"/>
<path d="M299.032 346.821C301.348 346.821 303.226 344.946 303.226 342.632C303.226 340.319 301.348 338.443 299.032 338.443C296.716 338.443 294.838 340.319 294.838 342.632C294.838 344.946 296.716 346.821 299.032 346.821Z" fill="#263238"/>
<path d="M286.793 346.821C289.109 346.821 290.987 344.946 290.987 342.632C290.987 340.319 289.109 338.443 286.793 338.443C284.476 338.443 282.599 340.319 282.599 342.632C282.599 344.946 284.476 346.821 286.793 346.821Z" fill="#263238"/>
<path d="M274.552 346.821C276.868 346.821 278.746 344.946 278.746 342.632C278.746 340.319 276.868 338.443 274.552 338.443C272.235 338.443 270.357 340.319 270.357 342.632C270.357 344.946 272.235 346.821 274.552 346.821Z" fill="#263238"/>
<path d="M260.487 342.938H243.114C242.945 342.938 242.809 342.801 242.809 342.632C242.809 342.464 242.945 342.327 243.114 342.327H260.487C260.656 342.327 260.792 342.464 260.792 342.632C260.792 342.801 260.656 342.938 260.487 342.938Z" fill="#F4EAE2"/>
<path d="M265.975 342.938H260.487C260.318 342.938 260.182 342.801 260.182 342.632C260.182 342.464 260.318 342.327 260.487 342.327H265.975C266.144 342.327 266.28 342.464 266.28 342.632C266.28 342.801 266.144 342.938 265.975 342.938Z" fill="#263238"/>
<path d="M343.188 120.44H323.746C323.577 120.44 323.44 120.303 323.44 120.134C323.44 119.966 323.577 119.829 323.746 119.829H343.188C343.357 119.829 343.494 119.966 343.494 120.134C343.494 120.303 343.357 120.44 343.188 120.44Z" fill="#263238"/>
<path d="M335.392 125.565H327.214C327.045 125.565 326.908 125.428 326.908 125.26C326.908 125.091 327.045 124.954 327.214 124.954H335.392C335.56 124.954 335.697 125.091 335.697 125.26C335.697 125.428 335.56 125.565 335.392 125.565Z" fill="#263238"/>
<path d="M133.459 238.301L133.316 237.972L132.959 238.002C130.95 238.168 129.402 237.631 128.249 236.723C127.087 235.809 126.296 234.492 125.862 233.058C125.428 231.622 125.36 230.096 125.62 228.795C125.881 227.483 126.458 226.469 127.245 225.957C128.121 225.386 128.797 225.238 129.306 225.278C129.813 225.319 130.221 225.55 130.552 225.866C130.888 226.187 131.133 226.583 131.296 226.911C131.376 227.073 131.433 227.213 131.471 227.311C131.489 227.36 131.502 227.398 131.511 227.423L131.519 227.45L131.521 227.454V227.455L131.629 227.817L132.008 227.811C134.746 227.764 136.423 226.965 137.344 225.729C138.579 224.071 138.33 221.495 137.5 219.5C140.073 220.729 145.794 222.869 151.446 220.466C152.326 220.091 153.347 219.65 154.275 219.137C154.829 218.832 155.368 218.492 155.832 218.113C156.382 225.177 156.435 231.468 155.243 236.231C154.619 238.725 153.661 240.768 152.282 242.28C150.91 243.784 149.098 244.791 146.707 245.18C141.896 245.964 138.597 244.24 136.488 242.326C135.428 241.364 134.668 240.352 134.172 239.579C133.925 239.194 133.744 238.87 133.627 238.644C133.568 238.531 133.525 238.443 133.497 238.384C133.483 238.355 133.473 238.333 133.467 238.319L133.46 238.304L133.459 238.301Z" fill="white" stroke="#263238"/>
</g>
</g>
</g>
<defs>
<clipPath id="clip0_531_8584">
<rect width="480" height="480" fill="white"/>
</clipPath>
</defs>
</svg>
