<svg width="480" height="480" viewBox="0 0 480 480" fill="none" xmlns="http://www.w3.org/2000/svg">
<g clip-path="url(#clip0_332_4686)">
<rect width="480" height="480" rx="24" fill="#E6F3FF"/>
<path d="M-63.0307 40.7969C-37.594 54.9419 19.0022 75.7462 41.8932 45.8041C70.5069 8.37631 41.7034 0.871165 33.2448 19.5474C24.7861 38.2236 66.9969 63.6024 108.765 25.1246C142.179 -5.65761 157.787 -53.1178 161.414 -73" stroke="#0487FF" stroke-dasharray="6 6"/>
<path d="M479.529 315.123C454.601 330.146 408.389 368.881 422.967 403.637C441.189 447.083 462.034 425.835 450.045 409.203C438.056 392.572 395.035 416.553 407.622 471.93C417.691 516.232 451.088 553.391 466.527 566.432" stroke="#0487FF" stroke-dasharray="6 6"/>
<path d="M126.67 102.568C126.999 101.135 127.179 99.647 127.179 98.1154C127.179 87.1858 118.319 78.3247 107.388 78.3247C105.601 78.3247 103.87 78.5656 102.223 79.01C98.9645 73.243 92.7811 69.3469 85.6849 69.3469C75.5996 69.3469 67.3544 77.2114 66.7385 87.1414C65.8074 86.967 64.8493 86.8658 63.8671 86.8658C55.8889 86.8658 49.3247 92.8872 48.4524 100.632C43.7679 100.733 40 104.555 40 109.264C40 114.036 43.8691 117.905 48.6413 117.905H121.21C125.983 117.905 129.852 114.036 129.852 109.264C129.852 106.563 128.611 104.152 126.67 102.568Z" fill="white" stroke="#263238" stroke-miterlimit="10" stroke-linecap="round" stroke-linejoin="round"/>
<path d="M73.8779 132.589V152.587" stroke="#0487FF" stroke-miterlimit="10" stroke-linecap="round" stroke-linejoin="round"/>
<path d="M73.8779 120.591V128.589" stroke="#0487FF" stroke-miterlimit="10" stroke-linecap="round" stroke-linejoin="round"/>
<path d="M73.8779 113.115V117.393" stroke="#0487FF" stroke-miterlimit="10" stroke-linecap="round" stroke-linejoin="round"/>
<path d="M70.1016 150.25L73.8781 154.925L77.6547 150.25" stroke="#0487FF" stroke-miterlimit="10" stroke-linecap="round" stroke-linejoin="round"/>
<path d="M86.7676 141.157V161.155" stroke="#0487FF" stroke-miterlimit="10" stroke-linecap="round" stroke-linejoin="round"/>
<path d="M86.7676 129.159V137.157" stroke="#0487FF" stroke-miterlimit="10" stroke-linecap="round" stroke-linejoin="round"/>
<path d="M86.7676 121.684V125.962" stroke="#0487FF" stroke-miterlimit="10" stroke-linecap="round" stroke-linejoin="round"/>
<path d="M82.9912 158.818L86.7678 163.493L90.5443 158.818" stroke="#0487FF" stroke-miterlimit="10" stroke-linecap="round" stroke-linejoin="round"/>
<path d="M98.8105 124.348V144.346" stroke="#0487FF" stroke-miterlimit="10" stroke-linecap="round" stroke-linejoin="round"/>
<path d="M98.8105 112.349V120.349" stroke="#0487FF" stroke-miterlimit="10" stroke-linecap="round" stroke-linejoin="round"/>
<path d="M98.8105 104.874V109.153" stroke="#0487FF" stroke-miterlimit="10" stroke-linecap="round" stroke-linejoin="round"/>
<path d="M95.0342 142.008L98.8117 146.683L102.588 142.008" stroke="#0487FF" stroke-miterlimit="10" stroke-linecap="round" stroke-linejoin="round"/>
<path d="M290.302 237.682C289.972 236.25 289.793 234.761 289.793 233.229C289.793 222.299 298.653 213.438 309.583 213.438C311.371 213.438 313.101 213.679 314.748 214.123C318.007 208.356 324.191 204.46 331.287 204.46C341.372 204.46 349.617 212.325 350.233 222.255C351.164 222.08 352.122 221.979 353.105 221.979C361.083 221.979 367.647 228.001 368.519 235.745C373.204 235.847 376.972 239.668 376.972 244.377C376.972 249.149 373.103 253.018 368.33 253.018H295.761C290.989 253.018 287.12 249.149 287.12 244.377C287.119 241.677 288.361 239.267 290.302 237.682Z" fill="white" stroke="#263238" stroke-miterlimit="10" stroke-linecap="round" stroke-linejoin="round"/>
<path d="M340.005 260.373V240.375" stroke="#0487FF" stroke-miterlimit="10" stroke-linecap="round" stroke-linejoin="round"/>
<path d="M340.005 272.372V264.373" stroke="#0487FF" stroke-miterlimit="10" stroke-linecap="round" stroke-linejoin="round"/>
<path d="M340.005 279.847V275.568" stroke="#0487FF" stroke-miterlimit="10" stroke-linecap="round" stroke-linejoin="round"/>
<path d="M343.782 242.712L340.005 238.038L336.229 242.712" stroke="#0487FF" stroke-miterlimit="10" stroke-linecap="round" stroke-linejoin="round"/>
<path d="M327.116 251.805V231.807" stroke="#0487FF" stroke-miterlimit="10" stroke-linecap="round" stroke-linejoin="round"/>
<path d="M327.116 263.803V255.805" stroke="#0487FF" stroke-miterlimit="10" stroke-linecap="round" stroke-linejoin="round"/>
<path d="M327.116 271.278V267" stroke="#0487FF" stroke-miterlimit="10" stroke-linecap="round" stroke-linejoin="round"/>
<path d="M330.893 234.144L327.116 229.469L323.34 234.144" stroke="#0487FF" stroke-miterlimit="10" stroke-linecap="round" stroke-linejoin="round"/>
<path d="M315.073 268.614V248.616" stroke="#0487FF" stroke-miterlimit="10" stroke-linecap="round" stroke-linejoin="round"/>
<path d="M315.073 280.613V272.614" stroke="#0487FF" stroke-miterlimit="10" stroke-linecap="round" stroke-linejoin="round"/>
<path d="M315.073 288.088V283.809" stroke="#0487FF" stroke-miterlimit="10" stroke-linecap="round" stroke-linejoin="round"/>
<path d="M318.85 250.954L315.073 246.279L311.297 250.954" stroke="#0487FF" stroke-miterlimit="10" stroke-linecap="round" stroke-linejoin="round"/>
<path d="M440 75.4581V216.216C440 219.782 437.108 222.674 433.542 222.674H161C157.434 222.674 154.532 219.782 154.532 216.216V75.4581C154.532 71.8917 157.434 69 161 69H433.542C437.108 69 440 71.8917 440 75.4581Z" fill="white"/>
<mask id="mask0_332_4686" style="mask-type:luminance" maskUnits="userSpaceOnUse" x="154" y="69" width="286" height="154">
<path d="M440 75.4581V216.216C440 219.782 437.108 222.674 433.542 222.674H161C157.434 222.674 154.532 219.782 154.532 216.216V75.4581C154.532 71.8917 157.434 69 161 69H433.542C437.108 69 440 71.8917 440 75.4581Z" fill="white"/>
</mask>
<g mask="url(#mask0_332_4686)">
<path opacity="0.2" d="M440 82.938V216.216C440 219.783 437.108 222.674 433.542 222.674H262.074V82.938H440Z" fill="white"/>
</g>
<path d="M440 75.4581V216.216C440 219.782 437.108 222.674 433.542 222.674H161C157.434 222.674 154.532 219.782 154.532 216.216V75.4581C154.532 71.8917 157.434 69 161 69H433.542C437.108 69 440 71.8917 440 75.4581Z" stroke="#263238" stroke-miterlimit="10" stroke-linecap="round" stroke-linejoin="round"/>
<path d="M416.128 139.881H380.663C376.708 139.881 373.502 143.087 373.502 147.042C373.502 150.997 376.708 154.203 380.663 154.203H416.128C420.083 154.203 423.289 150.997 423.289 147.042C423.288 143.087 420.082 139.881 416.128 139.881Z" fill="#0487FF" stroke="#263238" stroke-miterlimit="10" stroke-linecap="round" stroke-linejoin="round"/>
<path d="M440 75.4581V88.6442H154.532V75.4581C154.532 71.8917 157.434 69 161 69H433.542C437.108 69 440 71.8917 440 75.4581Z" fill="white" stroke="#263238" stroke-miterlimit="10" stroke-linecap="round" stroke-linejoin="round"/>
<path d="M166.611 82.9371C169.068 82.9371 171.06 80.9454 171.06 78.4887C171.06 76.0319 169.068 74.0403 166.611 74.0403C164.155 74.0403 162.163 76.0319 162.163 78.4887C162.163 80.9454 164.155 82.9371 166.611 82.9371Z" fill="white" stroke="#263238" stroke-miterlimit="10" stroke-linecap="round" stroke-linejoin="round"/>
<path d="M178.66 82.9371C181.117 82.9371 183.109 80.9454 183.109 78.4887C183.109 76.0319 181.117 74.0403 178.66 74.0403C176.204 74.0403 174.212 76.0319 174.212 78.4887C174.212 80.9454 176.204 82.9371 178.66 82.9371Z" fill="white" stroke="#263238" stroke-miterlimit="10" stroke-linecap="round" stroke-linejoin="round"/>
<path d="M190.709 82.9371C193.166 82.9371 195.158 80.9454 195.158 78.4887C195.158 76.0319 193.166 74.0403 190.709 74.0403C188.252 74.0403 186.261 76.0319 186.261 78.4887C186.261 80.9454 188.252 82.9371 190.709 82.9371Z" fill="white" stroke="#263238" stroke-miterlimit="10" stroke-linecap="round" stroke-linejoin="round"/>
<path d="M262.069 88.6443V222.8" stroke="#263238" stroke-miterlimit="10" stroke-linecap="round" stroke-linejoin="round"/>
<path d="M430.286 82.9371H367.876C365.419 82.9371 363.428 80.9456 363.428 78.4887C363.428 76.0317 365.419 74.0403 367.876 74.0403H430.286C432.743 74.0403 434.734 76.0317 434.734 78.4887C434.734 80.9456 432.743 82.9371 430.286 82.9371Z" fill="white" stroke="#263238" stroke-miterlimit="10" stroke-linecap="round" stroke-linejoin="round"/>
<path d="M418.903 129.967H283.843C281.421 129.967 279.458 128.004 279.458 125.583C279.458 123.16 281.421 121.198 283.843 121.198H418.903C421.325 121.198 423.288 123.161 423.288 125.583C423.288 128.004 421.325 129.967 418.903 129.967Z" fill="white" stroke="#263238" stroke-miterlimit="10"/>
<path d="M356.25 129.967H283.843C281.421 129.967 279.458 128.004 279.458 125.583C279.458 123.16 281.421 121.198 283.843 121.198H356.25C358.672 121.198 360.635 123.161 360.635 125.583C360.635 128.004 358.672 129.967 356.25 129.967Z" fill="#0487FF" stroke="#263238" stroke-miterlimit="10" stroke-linecap="round" stroke-linejoin="round"/>
<path d="M289.395 192.254H283.444V198.205H289.395V192.254Z" stroke="#263238" stroke-miterlimit="10" stroke-linecap="round" stroke-linejoin="round"/>
<path d="M285.253 194.821L286.131 196.014L287.588 193.94" stroke="#263238" stroke-miterlimit="10" stroke-linecap="round" stroke-linejoin="round"/>
<path opacity="0.3" d="M340.972 196.961H300.467C299.511 196.961 298.735 196.185 298.735 195.229C298.735 194.273 299.511 193.497 300.467 193.497H340.972C341.929 193.497 342.704 194.273 342.704 195.229C342.704 196.185 341.93 196.961 340.972 196.961Z" fill="#82C3FF"/>
<path d="M195.545 198.777H195.568L196.528 192.175H197.695L196.447 200.268H194.551L193.303 192.175H194.587L195.545 198.777Z" fill="#263238"/>
<path d="M199.558 195.586H201.304V196.741H199.558V199.112H201.755V200.267H198.287V192.174H201.755V193.33H199.558V195.586Z" fill="#263238"/>
<path d="M205.202 200.268C205.133 200.06 205.087 199.933 205.087 199.275V198.003C205.087 197.252 204.832 196.975 204.255 196.975H203.815V200.269H202.544V192.176H204.463C205.781 192.176 206.347 192.789 206.347 194.038V194.674C206.347 195.506 206.081 196.038 205.515 196.304V196.326C206.151 196.592 206.359 197.193 206.359 198.037V199.285C206.359 199.678 206.371 199.968 206.498 200.268H205.202ZM203.815 193.332V195.818H204.313C204.787 195.818 205.076 195.61 205.076 194.962V194.165C205.076 193.586 204.879 193.332 204.428 193.332H203.815Z" fill="#263238"/>
<path d="M208.418 199.042V200.267H207.193V199.042H208.418Z" fill="#263238"/>
<path d="M212.999 193.24C212.594 193.24 212.34 193.459 212.34 194.037V194.904H211.138V194.118C211.138 192.823 211.784 192.084 213.034 192.084C214.282 192.084 214.93 192.824 214.93 194.118C214.93 195.193 214.536 196.061 213.358 197.32C212.606 198.129 212.398 198.51 212.398 198.939C212.398 198.997 212.398 199.054 212.409 199.113H214.814V200.268H211.138V199.275C211.138 198.372 211.461 197.69 212.409 196.696C213.381 195.668 213.658 195.031 213.658 194.165C213.657 193.436 213.404 193.24 212.999 193.24Z" fill="#263238"/>
<path d="M216.943 199.042V200.267H215.718V199.042H216.943Z" fill="#263238"/>
<path d="M217.766 194.118C217.766 192.823 218.448 192.084 219.696 192.084C220.945 192.084 221.627 192.824 221.627 194.118V198.326C221.627 199.621 220.945 200.36 219.696 200.36C218.448 200.36 217.766 199.62 217.766 198.326V194.118ZM219.037 198.407C219.037 198.985 219.291 199.204 219.696 199.204C220.101 199.204 220.356 198.984 220.356 198.407V194.037C220.356 193.458 220.101 193.24 219.696 193.24C219.292 193.24 219.037 193.459 219.037 194.037V198.407Z" fill="#263238"/>
<path d="M223.595 197.655V198.407C223.595 198.985 223.849 199.194 224.254 199.194C224.659 199.194 224.913 198.985 224.913 198.407V196.626C224.913 196.047 224.659 195.829 224.254 195.829C223.85 195.829 223.595 196.048 223.595 196.626V196.869H222.393L222.624 192.175H225.976V193.331H223.757L223.652 195.262H223.676C223.907 194.881 224.265 194.673 224.774 194.673C225.71 194.673 226.185 195.332 226.185 196.523V198.326C226.185 199.621 225.538 200.36 224.289 200.36C223.04 200.36 222.393 199.62 222.393 198.326V197.655H223.595Z" fill="#263238"/>
<path d="M188.982 168C185.985 165.15 183.57 161.693 181.935 157.827" stroke="#263238" stroke-miterlimit="10" stroke-linecap="round" stroke-linejoin="round"/>
<path d="M216.744 116.488C226.57 118.765 234.565 125.819 238.151 135.069" stroke="#263238" stroke-miterlimit="10" stroke-linecap="round" stroke-linejoin="round"/>
<path d="M219.301 138.334V129.697L212.831 129.139C212.445 127.775 211.91 126.474 211.231 125.262L215.407 120.297L209.299 114.188L204.334 118.365C203.122 117.685 201.822 117.151 200.456 116.765L199.899 110.294H191.262L190.704 116.765C189.339 117.151 188.038 117.685 186.827 118.365L181.862 114.188L175.755 120.297L179.931 125.262C179.252 126.473 178.717 127.774 178.331 129.139L171.86 129.697V138.334L178.331 138.891C178.717 140.256 179.252 141.556 179.931 142.769L175.755 147.734L181.862 153.842L186.827 149.666C188.039 150.345 189.339 150.88 190.705 151.266L191.263 157.736H199.9L200.457 151.266C201.822 150.88 203.122 150.345 204.335 149.666L209.299 153.842L215.407 147.734L211.231 142.769C211.91 141.557 212.445 140.257 212.831 138.891L219.301 138.334ZM195.582 144.052C190.038 144.052 185.545 139.558 185.545 134.015C185.545 128.471 190.038 123.978 195.582 123.978C201.125 123.978 205.619 128.471 205.619 134.015C205.619 139.558 201.125 144.052 195.582 144.052Z" fill="#0487FF" stroke="#263238" stroke-miterlimit="10" stroke-linecap="round" stroke-linejoin="round"/>
<path d="M247.882 157.616V151.469L243.277 151.072C243.003 150.1 242.623 149.175 242.139 148.313L245.111 144.781L240.765 140.434L237.232 143.407C236.37 142.923 235.444 142.542 234.474 142.269L234.077 137.664H227.93L227.533 142.269C226.561 142.543 225.636 142.923 224.774 143.407L221.241 140.434L216.895 144.781L219.867 148.313C219.383 149.176 219.002 150.101 218.729 151.073L214.124 151.47V157.617L218.729 158.014C219.003 158.986 219.383 159.911 219.867 160.773L216.895 164.305L221.241 168.652L224.774 165.68C225.637 166.164 226.562 166.544 227.533 166.818L227.93 171.423H234.077L234.474 166.818C235.445 166.544 236.371 166.164 237.233 165.68L240.766 168.652L245.112 164.305L242.14 160.773C242.624 159.91 243.004 158.985 243.278 158.014L247.882 157.616ZM231.003 161.685C227.059 161.685 223.86 158.486 223.86 154.542C223.86 150.598 227.059 147.4 231.003 147.4C234.947 147.4 238.145 150.598 238.145 154.542C238.145 158.486 234.947 161.685 231.003 161.685Z" fill="#52D180"/>
<path d="M247.882 157.616V151.469L243.277 151.072C243.003 150.1 242.623 149.175 242.139 148.313L245.111 144.781L240.765 140.434L237.232 143.407C236.37 142.923 235.444 142.542 234.474 142.269L234.077 137.664H227.93L227.533 142.269C226.561 142.543 225.636 142.923 224.774 143.407L221.241 140.434L216.895 144.781L219.867 148.313C219.383 149.176 219.002 150.101 218.729 151.073L214.124 151.47V157.617L218.729 158.014C219.003 158.986 219.383 159.911 219.867 160.773L216.895 164.305L221.241 168.652L224.774 165.68C225.637 166.164 226.562 166.544 227.533 166.818L227.93 171.423H234.077L234.474 166.818C235.445 166.544 236.371 166.164 237.233 165.68L240.766 168.652L245.112 164.305L242.14 160.773C242.624 159.91 243.004 158.985 243.278 158.014L247.882 157.616ZM231.003 161.685C227.059 161.685 223.86 158.486 223.86 154.542C223.86 150.598 227.059 147.4 231.003 147.4C234.947 147.4 238.145 150.598 238.145 154.542C238.145 158.486 234.947 161.685 231.003 161.685Z" stroke="#263238" stroke-miterlimit="10" stroke-linecap="round" stroke-linejoin="round"/>
<path d="M217.814 171.932V167.558L214.538 167.275C214.343 166.584 214.071 165.926 213.727 165.312L215.842 162.798L212.749 159.706L210.235 161.82C209.621 161.476 208.963 161.205 208.272 161.011L207.989 157.734H203.615L203.333 161.011C202.642 161.205 201.983 161.477 201.369 161.82L198.855 159.706L195.763 162.798L197.878 165.312C197.534 165.926 197.263 166.584 197.068 167.275L193.792 167.558V171.932L197.068 172.214C197.263 172.905 197.535 173.564 197.878 174.178L195.763 176.691L198.855 179.784L201.369 177.669C201.983 178.013 202.642 178.284 203.333 178.479L203.615 181.755H207.989L208.272 178.479C208.963 178.284 209.621 178.012 210.235 177.669L212.749 179.784L215.842 176.691L213.727 174.178C214.071 173.564 214.342 172.905 214.538 172.214L217.814 171.932ZM205.804 174.827C202.997 174.827 200.721 172.552 200.721 169.745C200.721 166.938 202.997 164.662 205.804 164.662C208.611 164.662 210.887 166.938 210.887 169.745C210.886 172.552 208.611 174.827 205.804 174.827Z" fill="#0487FF"/>
<path d="M217.814 171.932V167.558L214.538 167.275C214.343 166.584 214.071 165.926 213.727 165.312L215.842 162.798L212.749 159.706L210.235 161.82C209.621 161.476 208.963 161.205 208.272 161.011L207.989 157.734H203.615L203.333 161.011C202.642 161.205 201.983 161.477 201.369 161.82L198.855 159.706L195.763 162.798L197.878 165.312C197.534 165.926 197.263 166.584 197.068 167.275L193.792 167.558V171.932L197.068 172.214C197.263 172.905 197.535 173.564 197.878 174.178L195.763 176.691L198.855 179.784L201.369 177.669C201.983 178.013 202.642 178.284 203.333 178.479L203.615 181.755H207.989L208.272 178.479C208.963 178.284 209.621 178.012 210.235 177.669L212.749 179.784L215.842 176.691L213.727 174.178C214.071 173.564 214.342 172.905 214.538 172.214L217.814 171.932ZM205.804 174.827C202.997 174.827 200.721 172.552 200.721 169.745C200.721 166.938 202.997 164.662 205.804 164.662C208.611 164.662 210.887 166.938 210.887 169.745C210.886 172.552 208.611 174.827 205.804 174.827Z" stroke="#263238" stroke-miterlimit="10" stroke-linecap="round" stroke-linejoin="round"/>
<path d="M235.827 134.02L238.151 135.069L239.068 132.97" stroke="#263238" stroke-miterlimit="10" stroke-linecap="round" stroke-linejoin="round"/>
<path d="M184.206 158.784L181.882 157.734L180.965 159.834" stroke="#263238" stroke-miterlimit="10" stroke-linecap="round" stroke-linejoin="round"/>
<path d="M280.729 110.352V115.086C280.729 115.523 280.92 115.681 281.228 115.681C281.534 115.681 281.728 115.523 281.728 115.086V110.352H282.64V115.025C282.64 116.007 282.148 116.568 281.202 116.568C280.255 116.568 279.765 116.007 279.765 115.025V110.352H280.729Z" fill="#263238"/>
<path d="M286.153 111.868V112.666C286.153 113.648 285.68 114.183 284.715 114.183H284.259V116.488H283.295V110.352H284.715C285.68 110.352 286.153 110.887 286.153 111.868ZM284.259 111.228V113.305H284.715C285.021 113.305 285.188 113.166 285.188 112.727V111.807C285.188 111.368 285.021 111.228 284.715 111.228H284.259Z" fill="#263238"/>
<path d="M289.604 116.488H288.631L288.464 115.375H287.28L287.113 116.488H286.229L287.211 110.352H288.622L289.604 116.488ZM287.404 114.542H288.334L287.877 111.439H287.859L287.404 114.542Z" fill="#263238"/>
<path d="M290.05 110.352H291.575C292.539 110.352 293.012 110.887 293.012 111.869V114.972C293.012 115.953 292.539 116.488 291.575 116.488H290.05V110.352ZM291.014 111.228V115.611H291.557C291.864 115.611 292.049 115.453 292.049 115.014V111.824C292.049 111.385 291.865 111.227 291.557 111.227L291.014 111.228Z" fill="#263238"/>
<path d="M296.736 116.488H295.762L295.596 115.375H294.412L294.245 116.488H293.36L294.343 110.352H295.754L296.736 116.488ZM294.536 114.542H295.465L295.009 111.439H294.991L294.536 114.542Z" fill="#263238"/>
<path d="M296.567 110.352H299.548V111.229H298.54V116.488H297.576V111.228H296.567V110.352Z" fill="#263238"/>
<path d="M299.966 110.352H300.931V116.488H299.966V110.352Z" fill="#263238"/>
<path d="M302.508 112.044H302.49V116.488H301.622V110.352H302.833L303.805 114.025H303.823V110.352H304.681V116.488H303.692L302.508 112.044Z" fill="#263238"/>
<path d="M306.819 113.069H308.168V115.015C308.168 115.998 307.678 116.559 306.731 116.559C305.785 116.559 305.294 115.998 305.294 115.015V111.825C305.294 110.844 305.785 110.283 306.731 110.283C307.679 110.283 308.168 110.844 308.168 111.825V112.421H307.257V111.763C307.257 111.325 307.065 111.159 306.758 111.159C306.452 111.159 306.258 111.326 306.258 111.763V115.077C306.258 115.516 306.451 115.674 306.758 115.674C307.065 115.674 307.257 115.517 307.257 115.077V113.946H306.819V113.069Z" fill="#263238"/>
<path d="M431.958 158.142L415.942 146.718L420.502 165.855L423.784 160.976L426.815 165.478L429.234 163.85L426.202 159.348L431.958 158.142Z" fill="#263238"/>
<path d="M241.033 243.993C243.01 241.21 256.025 248.958 254.424 254.462C252.822 259.967 247.616 259.373 244.566 256.449C241.514 253.526 238.914 246.974 241.033 243.993Z" fill="white" stroke="#263238" stroke-miterlimit="10" stroke-linecap="round" stroke-linejoin="round"/>
<path d="M247.205 222.622C247.205 222.622 249.09 222.622 252.33 230.058C254.589 235.242 253.328 240.317 253.328 240.317L248.632 262.932L237.131 256.068L243.768 239.464C243.768 239.464 240.331 228.74 247.205 222.622Z" fill="white" stroke="#263238" stroke-miterlimit="10" stroke-linecap="round" stroke-linejoin="round"/>
<path d="M242.576 237.182L235.244 239.614C234.469 239.813 232.939 238.519 233.006 237.722L235.181 212.098C235.268 211.064 236.001 210.198 237.006 209.939L245.128 208.175C245.903 207.976 247.854 208.903 247.786 209.7L244.4 235.022C244.314 236.057 243.581 236.922 242.576 237.182Z" fill="#263238"/>
<mask id="mask1_332_4686" style="mask-type:luminance" maskUnits="userSpaceOnUse" x="233" y="208" width="15" height="32">
<path d="M242.576 237.182L235.244 239.614C234.469 239.813 232.939 238.519 233.006 237.722L235.181 212.098C235.268 211.064 236.001 210.198 237.006 209.939L245.128 208.175C245.903 207.976 247.854 208.903 247.786 209.7L244.4 235.022C244.314 236.057 243.581 236.922 242.576 237.182Z" fill="white"/>
</mask>
<g mask="url(#mask1_332_4686)">
<path opacity="0.3" d="M242.576 237.182L235.244 239.614C234.469 239.813 232.939 238.519 233.006 237.722L235.181 212.098C235.268 211.064 236.001 210.198 237.006 209.939L245.128 208.175C245.903 207.976 247.854 208.903 247.786 209.7L244.4 235.022C244.314 236.057 243.581 236.922 242.576 237.182Z" fill="#263238" fill-opacity="0.7"/>
</g>
<path d="M242.576 237.182L235.244 239.614C234.469 239.813 232.939 238.519 233.006 237.722L235.181 212.098C235.268 211.064 236.001 210.198 237.006 209.939L245.128 208.175C245.903 207.976 247.854 208.903 247.786 209.7L244.4 235.022C244.314 236.057 243.581 236.922 242.576 237.182Z" stroke="#263238" stroke-miterlimit="10" stroke-linecap="round" stroke-linejoin="round"/>
<path d="M243.782 237.813L235.66 239.577C234.885 239.777 234.145 239.151 234.213 238.354L236.389 212.731C236.477 211.696 237.209 210.831 238.215 210.571L246.336 208.807C247.111 208.608 247.852 209.233 247.783 210.031L245.609 235.654C245.52 236.688 244.787 237.554 243.782 237.813Z" fill="white" stroke="#263238" stroke-miterlimit="10" stroke-linecap="round" stroke-linejoin="round"/>
<path d="M239.279 217.472L237.969 217.756C237.844 217.788 237.725 217.688 237.736 217.559L238.087 213.426C238.101 213.26 238.219 213.12 238.381 213.078L239.691 212.794C239.816 212.762 239.935 212.863 239.924 212.992L239.573 217.124C239.56 217.291 239.441 217.43 239.279 217.472Z" fill="#263238"/>
<path d="M250.703 230.316C251.018 226.723 247.747 221.331 245.574 221.331C243.4 221.331 236.775 226.431 236.775 226.431C234.212 228.289 235.482 230.058 235.482 230.058C233.973 231.054 233.562 232.402 234.25 233.027C235.02 233.726 237.131 233.027 237.131 233.027C237.131 233.027 234.934 234.633 235.481 235.422C236.774 237.286 241.032 234.826 241.032 234.826C241.032 234.826 238.561 236.456 238.703 236.764C239.635 238.799 243.669 236.427 243.669 236.427L246.505 237.88C246.505 237.88 246.473 240.281 249.089 240.317" fill="white"/>
<path d="M250.703 230.316C251.018 226.723 247.747 221.331 245.574 221.331C243.4 221.331 236.775 226.431 236.775 226.431C234.212 228.289 235.482 230.058 235.482 230.058C233.973 231.054 233.562 232.402 234.25 233.027C235.02 233.726 237.131 233.027 237.131 233.027C237.131 233.027 234.934 234.633 235.481 235.422C236.774 237.286 241.032 234.826 241.032 234.826C241.032 234.826 238.561 236.456 238.703 236.764C239.635 238.799 243.669 236.427 243.669 236.427L246.505 237.88C246.505 237.88 246.473 240.281 249.089 240.317" stroke="#263238" stroke-miterlimit="10" stroke-linecap="round" stroke-linejoin="round"/>
<path d="M235.481 230.058C235.481 230.058 241.681 226.052 242.463 225.943C243.245 225.835 246.117 225.211 246.117 225.211" fill="white"/>
<path d="M235.481 230.058C235.481 230.058 241.681 226.052 242.463 225.943C243.245 225.835 246.117 225.211 246.117 225.211" stroke="#263238" stroke-miterlimit="10" stroke-linecap="round" stroke-linejoin="round"/>
<path d="M237.132 233.026C237.132 233.026 242.168 230.426 243.09 230.426C244.057 230.426 247.205 229.715 247.205 229.715" fill="white"/>
<path d="M237.132 233.026C237.132 233.026 242.168 230.426 243.09 230.426C244.057 230.426 247.205 229.715 247.205 229.715" stroke="#263238" stroke-miterlimit="10" stroke-linecap="round" stroke-linejoin="round"/>
<path d="M241.033 234.825C241.033 234.825 242.372 233.896 242.896 233.727C243.421 233.558 246.506 233.727 246.506 233.727" fill="white"/>
<path d="M241.033 234.825C241.033 234.825 242.372 233.896 242.896 233.727C243.421 233.558 246.506 233.727 246.506 233.727" stroke="#263238" stroke-miterlimit="10" stroke-linecap="round" stroke-linejoin="round"/>
<path d="M191.434 234.696C201.094 234.841 223.211 269.372 223.211 269.372L237.131 252.034L241.032 243.994C241.032 243.994 242.927 258.451 254.424 254.463C254.424 254.463 244.324 292.422 233.005 296.997C221.686 301.573 190.259 269.372 190.259 269.372L191.434 234.696Z" fill="#E9E9E9"/>
<mask id="mask2_332_4686" style="mask-type:luminance" maskUnits="userSpaceOnUse" x="190" y="234" width="65" height="64">
<path d="M191.434 234.696C201.094 234.841 223.211 269.372 223.211 269.372L237.131 252.034L241.032 243.994C241.032 243.994 242.927 258.451 254.424 254.463C254.424 254.463 244.324 292.422 233.005 296.997C221.686 301.573 190.259 269.372 190.259 269.372L191.434 234.696Z" fill="white"/>
</mask>
<g mask="url(#mask2_332_4686)">
<path d="M222.572 278.223C222.572 278.223 221.878 273.886 223.372 269.163L223.208 269.375C223.208 269.375 221.704 267.033 219.314 263.563C218.687 268.064 218.369 275.563 222.572 278.223Z" fill="#263238"/>
</g>
<path d="M191.434 234.696C201.094 234.841 223.211 269.372 223.211 269.372L237.131 252.034L241.032 243.994C241.032 243.994 242.927 258.451 254.424 254.463C254.424 254.463 244.324 292.422 233.005 296.997C221.686 301.573 190.259 269.372 190.259 269.372L191.434 234.696Z" stroke="#263238" stroke-miterlimit="10" stroke-linecap="round" stroke-linejoin="round"/>
<path d="M91.5276 383.389C91.5276 383.389 85.4261 395.639 85.4261 398.559C85.4261 401.48 84.4092 402.746 79.0711 402.746C73.7331 402.746 60.5132 402.865 58.4794 401.918C58.4794 401.918 47.8977 401.918 46.1184 401.918C43.1862 401.918 42.0507 399.145 43.8301 399.523C45.6094 399.901 58.7233 396.27 62.282 394.808C65.8407 393.345 71.7166 391.607 74.8763 388.55C78.0359 385.494 81.8674 374.096 81.8674 374.096L91.5276 383.389Z" fill="white" stroke="#263238" stroke-miterlimit="10" stroke-linecap="round" stroke-linejoin="round"/>
<path d="M58.4795 401.918C58.4795 398.333 62.2927 400.049 68.1397 398.559C71.8699 397.608 72.2584 396.291 72.2584 396.291" stroke="#263238" stroke-miterlimit="10" stroke-linecap="round" stroke-linejoin="round"/>
<path d="M195.351 256.848C195.737 263.861 195.903 271.146 196.186 276.583C196.87 289.726 205.67 328.125 205.67 328.125C205.67 328.125 215.28 333.898 215.789 344.486C216.297 355.072 157.369 384.955 141.556 376.441C125.744 367.927 127.88 343.174 127.88 343.174C127.88 343.174 104.492 248.696 114.069 241.111C123.646 233.525 126.863 234.46 151.374 231.072C175.885 227.685 191.433 234.695 191.433 234.695C191.433 234.695 193.658 236.705 194.229 239.634" fill="#E9E9E9"/>
<mask id="mask3_332_4686" style="mask-type:luminance" maskUnits="userSpaceOnUse" x="111" y="230" width="105" height="148">
<path d="M195.351 256.848C195.737 263.861 195.903 271.146 196.186 276.583C196.87 289.726 205.67 328.125 205.67 328.125C205.67 328.125 215.28 333.898 215.789 344.486C216.297 355.072 157.369 384.955 141.556 376.441C125.744 367.927 127.88 343.174 127.88 343.174C127.88 343.174 104.492 248.696 114.069 241.111C123.646 233.525 126.863 234.46 151.374 231.072C175.885 227.685 191.433 234.695 191.433 234.695C191.433 234.695 193.658 236.705 194.229 239.634" fill="white"/>
</mask>
<g mask="url(#mask3_332_4686)">
<path d="M127.878 343.171C127.878 343.171 125.747 367.924 141.555 376.445C157.373 384.956 216.296 355.075 215.785 344.482C215.284 333.898 205.674 328.124 205.674 328.124C205.674 328.124 204.806 324.317 203.582 318.698C195.225 324.115 176.178 335.354 163.783 334.101C163.783 334.101 184.42 341.417 197.616 335.132C210.821 328.838 192.131 343.402 188.324 343.171C184.507 342.949 156.1 337.802 150.953 340.472C145.806 343.132 134.365 362.777 134.365 362.777C134.365 362.777 127.425 347.181 128.967 337.609C128.967 337.609 129.169 307.805 125.853 290.388C125.853 290.388 133.786 276.701 125.015 266.069C121.776 262.146 118.239 270.223 115.067 281.973C119.781 310.447 127.878 343.171 127.878 343.171Z" fill="#263238"/>
</g>
<path d="M195.351 256.848C195.737 263.861 195.903 271.146 196.186 276.583C196.87 289.726 205.67 328.125 205.67 328.125C205.67 328.125 215.28 333.898 215.789 344.486C216.297 355.072 157.369 384.955 141.556 376.441C125.744 367.927 127.88 343.174 127.88 343.174C127.88 343.174 104.492 248.696 114.069 241.111C123.646 233.525 126.863 234.46 151.374 231.072C175.885 227.685 191.433 234.695 191.433 234.695C191.433 234.695 193.658 236.705 194.229 239.634" stroke="#263238" stroke-miterlimit="10" stroke-linecap="round" stroke-linejoin="round"/>
<path d="M212.699 339.519C212.824 340.003 212.824 340.003 212.824 340.003L212.826 340.002L212.835 340L212.87 339.991L213.009 339.955C213.132 339.924 213.315 339.878 213.554 339.817C214.032 339.696 214.734 339.52 215.632 339.297C217.427 338.851 220.003 338.221 223.124 337.48C229.368 335.999 237.793 334.08 246.523 332.326C255.254 330.572 264.28 328.986 271.728 328.169C275.453 327.76 278.771 327.545 281.454 327.595C284.163 327.645 286.14 327.966 287.247 328.566C292.07 331.179 295.014 334.408 296.677 337.855C298.343 341.308 298.741 345.016 298.411 348.609C297.749 355.812 294.165 362.473 292.156 365.443C291.945 365.755 291.52 366.18 290.861 366.712C290.211 367.236 289.362 367.84 288.335 368.511C286.281 369.854 283.536 371.452 280.281 373.207C273.773 376.718 265.254 380.844 256.207 384.801C247.161 388.758 237.595 392.542 228.995 395.369C220.38 398.201 212.782 400.056 207.649 400.189C197.269 400.456 182.551 399.156 169.495 396.26C162.968 394.812 156.874 392.969 151.952 390.733C147.014 388.489 143.33 385.881 141.528 382.945C137.862 376.969 137.895 370.664 140.146 364.591C142.403 358.501 146.887 352.661 152.086 347.694C157.233 342.776 164.872 342.429 172.273 343.127C174.664 343.352 176.995 343.682 179.195 343.994C180.396 344.164 181.559 344.329 182.67 344.468C185.767 344.855 188.502 345.049 190.396 344.508L190.259 344.027L190.396 344.508C195.038 343.182 198.175 341.59 200.704 340.268C200.814 340.211 200.923 340.154 201.031 340.098C203.41 338.852 205.193 337.919 207.258 337.659L212.699 339.519ZM212.699 339.519L212.824 340.003M212.699 339.519L212.824 340.003M212.614 340.057L212.432 339.941L212.431 339.941L212.43 339.94L212.422 339.935L212.389 339.914C212.36 339.896 212.318 339.87 212.262 339.836C212.152 339.768 211.991 339.671 211.794 339.555C211.4 339.323 210.859 339.016 210.275 338.715C209.689 338.414 209.069 338.124 208.511 337.922C207.931 337.712 207.5 337.628 207.258 337.659L212.614 340.057ZM212.614 340.057L212.824 340.003M212.614 340.057L212.824 340.003" fill="white" stroke="#263238"/>
<path d="M152.821 394.275L151.86 398.467C151.86 398.467 154.417 405.725 165.661 406.909C176.906 408.092 183.56 410.585 188.963 410.909C194.365 411.233 197.511 410.773 197.511 410.773L198.615 409.123L152.821 394.275Z" fill="white" stroke="#263238" stroke-miterlimit="10" stroke-linecap="round" stroke-linejoin="round"/>
<path d="M218.095 393.832L198.618 409.12C198.618 409.12 183.517 407.924 170.689 404.945L170.688 404.935C161.458 402.799 153.4 399.734 152.956 395.536C152.282 389.152 159.105 387.403 167.215 387.652C168.73 387.686 170.284 387.802 171.853 387.967C184.832 389.359 201.328 382.188 201.328 382.188L218.095 393.832Z" fill="white"/>
<path d="M218.095 393.832L198.618 409.12C198.618 409.12 183.517 407.924 170.689 404.945L170.688 404.935C161.458 402.799 153.4 399.734 152.956 395.536C152.282 389.152 159.105 387.403 167.215 387.652C168.73 387.686 170.284 387.802 171.853 387.967C184.832 389.359 201.328 382.188 201.328 382.188L218.095 393.832Z" stroke="#263238" stroke-miterlimit="10" stroke-linecap="round" stroke-linejoin="round"/>
<path d="M199.937 399.858C203.449 400.43 199.59 407.612 194.83 405.431C190.071 403.25 196.426 399.285 199.937 399.858Z" fill="white"/>
<path d="M199.937 399.858C203.449 400.43 199.59 407.612 194.83 405.431C190.071 403.25 196.426 399.285 199.937 399.858Z" stroke="#263238" stroke-miterlimit="10" stroke-linecap="round" stroke-linejoin="round"/>
<path d="M170.687 404.935C161.457 402.799 153.399 399.734 152.955 395.535C152.281 389.152 159.104 387.403 167.214 387.652C167.57 387.993 175.43 395.595 170.687 404.935Z" fill="white"/>
<path d="M170.687 404.935C161.457 402.799 153.399 399.734 152.955 395.535C152.281 389.152 159.104 387.403 167.214 387.652C167.57 387.993 175.43 395.595 170.687 404.935Z" stroke="#263238" stroke-miterlimit="10" stroke-linecap="round" stroke-linejoin="round"/>
<path d="M177.271 397.007C177.252 397.009 177.233 397.01 177.216 397.011C176.684 397.037 176.232 396.627 176.207 396.096C176.013 392.074 172.918 388.799 172.886 388.766C172.519 388.382 172.53 387.772 172.914 387.404C173.298 387.036 173.906 387.048 174.275 387.43C174.422 387.584 177.902 391.245 178.131 396.003C178.156 396.515 177.775 396.953 177.271 397.007Z" fill="white" stroke="#263238" stroke-miterlimit="10" stroke-linecap="round" stroke-linejoin="round"/>
<path d="M181.129 397.239C181.102 397.242 181.074 397.244 181.046 397.244C180.513 397.254 180.074 396.831 180.063 396.3C179.982 392.237 177.141 388.714 177.113 388.678C176.777 388.267 176.837 387.66 177.248 387.323C177.66 386.986 178.263 387.045 178.603 387.456C178.738 387.619 181.896 391.517 181.99 396.26C182.001 396.765 181.622 397.187 181.129 397.239Z" fill="white" stroke="#263238" stroke-miterlimit="10" stroke-linecap="round" stroke-linejoin="round"/>
<path d="M185.743 396.751C185.737 396.752 185.731 396.752 185.727 396.753C185.196 396.799 184.728 396.407 184.682 395.877C184.386 392.498 181.512 388.18 181.482 388.137C181.187 387.694 181.304 387.097 181.747 386.8C182.187 386.501 182.788 386.621 183.084 387.062C183.214 387.256 186.262 391.833 186.603 395.708C186.648 396.232 186.264 396.696 185.743 396.751Z" fill="white" stroke="#263238" stroke-miterlimit="10" stroke-linecap="round" stroke-linejoin="round"/>
<path d="M190.104 396.29C190.019 396.299 189.931 396.297 189.843 396.283C189.317 396.194 188.963 395.697 189.05 395.173C189.736 391.079 185.932 387.573 185.893 387.537C185.5 387.181 185.469 386.571 185.825 386.177C186.181 385.783 186.79 385.751 187.185 386.107C187.375 386.278 191.813 390.346 190.952 395.491C190.879 395.928 190.523 396.246 190.104 396.29Z" fill="white" stroke="#263238" stroke-miterlimit="10" stroke-linecap="round" stroke-linejoin="round"/>
<path d="M194.838 395.152C194.735 395.163 194.628 395.157 194.521 395.133C194.002 395.013 193.679 394.496 193.798 393.978C194.637 390.329 191.038 386.204 191.002 386.164C190.65 385.765 190.688 385.155 191.086 384.803C191.483 384.451 192.092 384.487 192.445 384.884C192.621 385.083 196.739 389.788 195.676 394.411C195.581 394.82 195.236 395.11 194.838 395.152Z" fill="white" stroke="#263238" stroke-miterlimit="10" stroke-linecap="round" stroke-linejoin="round"/>
<path d="M295.03 388.006L296.425 392.073C296.425 392.073 294.646 399.56 283.587 401.918C272.528 404.275 266.173 407.453 260.835 408.343C255.496 409.233 252.319 409.105 252.319 409.105L251.048 407.579L295.03 388.006Z" fill="white" stroke="#263238" stroke-miterlimit="10" stroke-linecap="round" stroke-linejoin="round"/>
<path d="M230.07 394.421L251.045 407.579C251.045 407.579 265.937 404.803 278.381 400.494V400.484C287.335 397.39 295.027 393.496 295.027 389.274C295.027 382.855 288.058 381.833 280.019 382.932C278.516 383.125 276.983 383.404 275.441 383.732C262.679 386.479 245.522 381.081 245.522 381.081L230.07 394.421Z" fill="white"/>
<path d="M230.07 394.421L251.045 407.579C251.045 407.579 265.937 404.803 278.381 400.494V400.484C287.335 397.39 295.027 393.496 295.027 389.274C295.027 382.855 288.058 381.833 280.019 382.932C278.516 383.125 276.983 383.404 275.441 383.732C262.679 386.479 245.522 381.081 245.522 381.081L230.07 394.421Z" stroke="#263238" stroke-miterlimit="10" stroke-linecap="round" stroke-linejoin="round"/>
<path d="M278.381 400.484C287.336 397.39 295.028 393.496 295.028 389.274C295.028 382.855 288.059 381.833 280.02 382.932C279.702 383.308 272.685 391.694 278.381 400.484Z" fill="white" stroke="#263238" stroke-miterlimit="10" stroke-linecap="round" stroke-linejoin="round"/>
<path d="M271.002 393.291C271.022 393.291 271.04 393.29 271.058 393.289C271.59 393.259 271.997 392.803 271.965 392.272C271.736 388.252 274.47 384.67 274.498 384.634C274.822 384.214 274.746 383.607 274.326 383.283C273.906 382.957 273.301 383.033 272.976 383.451C272.844 383.62 269.77 387.626 270.041 392.382C270.07 392.895 270.495 393.291 271.002 393.291Z" fill="white" stroke="#263238" stroke-miterlimit="10" stroke-linecap="round" stroke-linejoin="round"/>
<path d="M267.189 393.926C267.216 393.926 267.245 393.925 267.272 393.922C267.803 393.877 268.196 393.41 268.15 392.88C267.804 388.832 270.259 385.029 270.284 384.991C270.575 384.546 270.451 383.949 270.007 383.657C269.561 383.365 268.967 383.486 268.673 383.931C268.556 384.108 265.824 388.316 266.23 393.043C266.272 393.547 266.693 393.926 267.189 393.926Z" fill="white" stroke="#263238" stroke-miterlimit="10" stroke-linecap="round" stroke-linejoin="round"/>
<path d="M262.549 393.926C262.555 393.926 262.561 393.926 262.567 393.926C263.099 393.916 263.523 393.477 263.513 392.945C263.452 389.554 265.857 384.958 265.881 384.912C266.129 384.441 265.949 383.858 265.479 383.609C265.009 383.359 264.424 383.542 264.176 384.01C264.067 384.217 261.516 389.089 261.584 392.978C261.595 393.506 262.025 393.926 262.549 393.926Z" fill="white" stroke="#263238" stroke-miterlimit="10" stroke-linecap="round" stroke-linejoin="round"/>
<path d="M258.164 393.926C258.25 393.926 258.337 393.914 258.424 393.891C258.936 393.749 259.237 393.217 259.094 392.705C257.983 388.705 261.397 384.818 261.432 384.779C261.786 384.383 261.752 383.774 261.357 383.419C260.962 383.065 260.352 383.097 259.997 383.492C259.826 383.682 255.839 388.194 257.237 393.22C257.356 393.647 257.743 393.926 258.164 393.926Z" fill="white" stroke="#263238" stroke-miterlimit="10" stroke-linecap="round" stroke-linejoin="round"/>
<path d="M253.336 393.291C253.44 393.291 253.547 393.273 253.65 393.238C254.154 393.064 254.421 392.517 254.247 392.013C253.03 388.471 256.175 383.992 256.207 383.948C256.514 383.514 256.414 382.912 255.981 382.603C255.549 382.295 254.948 382.394 254.638 382.827C254.483 383.043 250.881 388.153 252.425 392.64C252.562 393.04 252.936 393.291 253.336 393.291Z" fill="white" stroke="#263238" stroke-miterlimit="10" stroke-linecap="round" stroke-linejoin="round"/>
<path d="M248.759 398.507C245.328 399.446 249.919 406.183 254.423 403.513C258.927 400.844 252.191 397.568 248.759 398.507Z" fill="white" stroke="#263238" stroke-miterlimit="10" stroke-linecap="round" stroke-linejoin="round"/>
<path d="M230.481 401.951L230.479 401.949L230.479 401.949L230.478 401.948L230.477 401.947L230.477 401.947L230.349 401.766L230.127 401.741L230.126 401.741L230.126 401.741L230.122 401.741L230.11 401.739L230.059 401.733L229.857 401.71C229.678 401.69 229.414 401.659 229.069 401.619C228.379 401.538 227.368 401.418 226.084 401.261C223.516 400.945 219.856 400.481 215.491 399.882L215.142 399.834L214.98 400.148C214.428 401.213 213.261 402.709 211.087 402.366L211.087 402.366C210.881 402.333 210.588 402.227 210.203 402.026C209.825 401.828 209.388 401.554 208.899 401.213C207.923 400.531 206.775 399.602 205.548 398.535L205.438 398.44L205.294 398.418C194.277 396.76 181.299 394.548 170.07 391.941C164.455 390.636 159.287 389.235 155.023 387.757C150.746 386.274 147.43 384.73 145.481 383.16C139.137 378.049 139.228 368.764 142.445 360.319C144.044 356.121 146.396 352.196 149.032 349.206C151.68 346.203 154.56 344.202 157.202 343.739C160.259 343.204 164.657 343.866 169.918 345.399C175.161 346.926 181.193 349.296 187.486 352.111C200.072 357.74 213.66 365.126 223.993 371.038L224.244 371.182L224.494 371.035C227.23 369.434 229.394 368.053 230.407 367.151L230.407 367.151C231.624 366.066 233.677 363.782 236.234 360.925L236.565 360.556C239.068 357.759 242.05 354.427 245.254 351.065C248.6 347.553 252.181 344.014 255.702 341.024C259.101 338.137 262.419 335.783 265.398 334.448L291.861 365.521C290.603 367.15 288.58 368.811 285.989 370.477C283.239 372.244 279.885 373.993 276.205 375.696C268.845 379.101 260.225 382.3 252.618 385.071L252.452 385.131L252.361 385.282C250.736 387.968 247.43 392.988 242.893 397.654L243.251 398.003L242.893 397.654C238.255 402.424 235.095 403.363 233.184 403.233C232.226 403.168 231.543 402.833 231.102 402.522C230.88 402.366 230.719 402.215 230.615 402.106C230.563 402.052 230.526 402.008 230.504 401.981C230.499 401.974 230.494 401.969 230.491 401.965C230.486 401.959 230.483 401.954 230.481 401.951Z" fill="white" stroke="#263238"/>
<path d="M123.064 256.848C125.448 264.563 125.647 275.605 123.686 284.219C123.686 284.219 115.13 322.081 114.07 330.32C113.01 338.561 98.5194 370.597 97.756 381.081L91.0993 390.665C91.0993 390.665 81.3592 389.93 74.877 382.549L79.4526 372.4C79.4526 372.4 83.6475 356.789 85.1723 354.621C86.6972 352.453 91.7037 323.013 93.3953 318.203C95.087 313.393 105.216 249.286 114.07 241.11C114.07 241.11 116.428 240.924 117.394 242.777" fill="#E9E9E9"/>
<path d="M123.064 256.848C125.448 264.563 125.647 275.605 123.686 284.219C123.686 284.219 115.13 322.081 114.07 330.32C113.01 338.561 98.5194 370.597 97.756 381.081L91.0993 390.665C91.0993 390.665 81.3592 389.93 74.877 382.549L79.4526 372.4C79.4526 372.4 83.6475 356.789 85.1723 354.621C86.6972 352.453 91.7037 323.013 93.3953 318.203C95.087 313.393 105.216 249.286 114.07 241.11C114.07 241.11 116.428 240.924 117.394 242.777" stroke="#263238" stroke-miterlimit="10" stroke-linecap="round" stroke-linejoin="round"/>
<path d="M251.743 378.761C247.233 376.883 240.751 378.761 240.751 378.761C240.751 378.761 219.478 369.496 204.907 360.677C190.335 351.858 165.444 344.234 165.444 344.234C157.436 343.662 153.623 343.852 149.81 348.047" stroke="#263238" stroke-miterlimit="10" stroke-linecap="round" stroke-linejoin="round"/>
<path d="M144.087 374.094C144.087 374.094 143.98 380.555 153.138 385.028" stroke="#263238" stroke-miterlimit="10" stroke-linecap="round" stroke-linejoin="round"/>
<path d="M209.483 348.094C209.483 348.094 204.646 354.557 203.441 359.81" stroke="#263238" stroke-miterlimit="10" stroke-linecap="round" stroke-linejoin="round"/>
<path d="M223.211 269.371C223.211 269.371 220.351 274.307 223.211 279.646" stroke="#263238" stroke-miterlimit="10" stroke-linecap="round" stroke-linejoin="round"/>
<path d="M146.807 240.525C153.459 244.652 162.79 248.141 169.772 242.777" stroke="#263238" stroke-miterlimit="10" stroke-linecap="round" stroke-linejoin="round"/>
<path d="M141.557 236.748C142.461 237.514 143.408 238.229 144.376 238.913" stroke="#263238" stroke-miterlimit="10" stroke-linecap="round" stroke-linejoin="round"/>
<path d="M128.643 264.203C128.643 264.203 128.353 280.025 123.064 286.985" stroke="#263238" stroke-miterlimit="10" stroke-linecap="round" stroke-linejoin="round"/>
<path d="M158.767 332.969C157.512 332.678 156.258 332.382 155.007 332.078" stroke="#263238" stroke-miterlimit="10" stroke-linecap="round" stroke-linejoin="round"/>
<path d="M205.67 328.126C200.257 328.202 195.437 332.057 190.618 335.913C180.979 341.696 171.34 333.985 161.319 333.554" stroke="#263238" stroke-miterlimit="10" stroke-linecap="round" stroke-linejoin="round"/>
<path d="M100.805 344.999C100.805 344.999 89.7475 354.095 85.1709 354.621" stroke="#263238" stroke-miterlimit="10" stroke-linecap="round" stroke-linejoin="round"/>
<path d="M82.1996 383.598C80.1109 382.452 77.6433 381.001 76.584 378.761" stroke="#263238" stroke-miterlimit="10" stroke-linecap="round" stroke-linejoin="round"/>
<path d="M89.8195 386.941C88.1568 386.364 86.5239 385.699 84.9258 384.964" stroke="#263238" stroke-miterlimit="10" stroke-linecap="round" stroke-linejoin="round"/>
<path d="M242.071 259.244C243.296 260.415 244.804 261.397 246.505 261.663" stroke="#263238" stroke-miterlimit="10" stroke-linecap="round" stroke-linejoin="round"/>
<path d="M237.132 252.033C237.879 253.668 238.797 255.232 239.854 256.685" stroke="#263238" stroke-miterlimit="10" stroke-linecap="round" stroke-linejoin="round"/>
<path d="M142.982 232.593C142.982 232.593 149.72 242.318 161.287 240.988C167.668 240.246 167.012 235.33 167.012 235.33C167.012 235.33 165.808 234.713 165.085 232.862C164.4 231.118 164.14 228.274 165.73 223.831C165.769 223.705 165.817 223.57 165.865 223.445C167.677 218.577 145.845 211.811 145.845 211.811C145.845 211.811 148.515 224.399 142.982 232.593Z" fill="white" stroke="#263238" stroke-miterlimit="10" stroke-linecap="round" stroke-linejoin="round"/>
<path d="M153.557 220.476C153.557 220.476 157.605 230.568 165.085 232.862C164.4 231.118 164.14 228.274 165.731 223.831L153.557 220.476Z" fill="#263238"/>
<path d="M151.564 218.105C151.052 222.434 162.082 228.977 168.533 228.961C171.488 228.953 175.578 223.265 177.303 214.864C178.174 210.623 175.587 206.475 177.685 200.564C179.479 195.509 175.972 180.441 161.097 179.21C139.84 177.451 137.367 200.238 146.778 215.609" fill="white"/>
<path d="M151.564 218.105C151.052 222.434 162.082 228.977 168.533 228.961C171.488 228.953 175.578 223.265 177.303 214.864C178.174 210.623 175.587 206.475 177.685 200.564C179.479 195.509 175.972 180.441 161.097 179.21C139.84 177.451 137.367 200.238 146.778 215.609" stroke="#263238" stroke-miterlimit="10" stroke-linecap="round" stroke-linejoin="round"/>
<path d="M178.114 199.421C178.114 199.421 176.35 196.752 172.918 197.514" stroke="#263238" stroke-miterlimit="10" stroke-linecap="round" stroke-linejoin="round"/>
<path d="M165.864 197.377C165.864 197.377 161.48 196.942 158.81 199.42" stroke="#263238" stroke-miterlimit="10" stroke-linecap="round" stroke-linejoin="round"/>
<path d="M171.774 200.374C171.393 204.759 176.35 212.1 175.112 213.149C173.872 214.198 170.917 212.767 169.773 212.196" stroke="#263238" stroke-miterlimit="10" stroke-linecap="round" stroke-linejoin="round"/>
<path d="M164.053 205.426C164.527 205.426 164.911 204.893 164.911 204.235C164.911 203.577 164.527 203.043 164.053 203.043C163.579 203.043 163.195 203.577 163.195 204.235C163.195 204.893 163.579 205.426 164.053 205.426Z" fill="#263238"/>
<path d="M174.453 205.426C174.926 205.426 175.31 204.893 175.31 204.235C175.31 203.577 174.926 203.043 174.453 203.043C173.979 203.043 173.595 203.577 173.595 204.235C173.595 204.893 173.979 205.426 174.453 205.426Z" fill="#263238"/>
<path d="M171.679 217.82C171.679 217.82 166.626 218.487 164.053 215.818" stroke="#263238" stroke-miterlimit="10" stroke-linecap="round" stroke-linejoin="round"/>
<path d="M164.911 216.529C164.911 216.529 165.197 218.963 167.866 219.63C170.535 220.297 170.44 217.893 170.44 217.893" stroke="#263238" stroke-miterlimit="10" stroke-linecap="round" stroke-linejoin="round"/>
<path d="M157.38 188.934C157.38 188.934 181.021 195.416 183.5 185.407C183.5 185.407 179.201 185.922 174.452 180.736C168.628 174.374 159.286 172.728 151.374 175.588C143.461 178.448 143.938 182.593 143.938 182.593C143.938 182.593 139.267 183.215 137.17 188.839C135.072 194.464 138.381 214.355 146.321 218.582L148.514 215.818C148.514 215.818 147.635 210.145 151.374 205.903L153.471 206.443C153.471 206.443 151.183 201.53 153.567 198.848C155.949 196.167 157.571 192.653 157.38 188.934Z" fill="#263238"/>
<path d="M151.374 205.426C151.374 205.426 148.99 198.562 145.94 200.373C142.889 202.184 146.226 215.34 151.374 212.385" fill="white"/>
<path d="M151.374 205.426C151.374 205.426 148.99 198.562 145.94 200.373C142.889 202.184 146.226 215.34 151.374 212.385" stroke="#263238" stroke-miterlimit="10" stroke-linecap="round" stroke-linejoin="round"/>
<path opacity="0.3" d="M151.374 183.362C151.374 183.362 166.072 185.841 170.441 179.93" stroke="white" stroke-miterlimit="10" stroke-linecap="round" stroke-linejoin="round"/>
<path opacity="0.3" d="M160.906 186.795C160.906 186.795 171.123 190.226 178.114 186.795" stroke="white" stroke-miterlimit="10" stroke-linecap="round" stroke-linejoin="round"/>
<path opacity="0.3" d="M148.074 188.32C148.074 188.32 147.927 196.793 140.109 199.42" stroke="white" stroke-miterlimit="10" stroke-linecap="round" stroke-linejoin="round"/>
<path d="M267.013 330L293 363L291.5 365L290.5 366L289.558 366.792L263 333.17L267.013 330Z" fill="white"/>
</g>
<defs>
<clipPath id="clip0_332_4686">
<rect width="480" height="480" rx="24" fill="white"/>
</clipPath>
</defs>
</svg>
