<svg width="480" height="480" viewBox="0 0 480 480" fill="none" xmlns="http://www.w3.org/2000/svg">
<g clip-path="url(#clip0_332_4349)">
<rect width="480" height="480" rx="24" fill="#E6F3FF"/>
<path d="M-63.0307 40.797C-37.594 54.9419 19.0022 75.7463 41.8932 45.8041C70.5069 8.37637 41.7034 0.871226 33.2448 19.5474C24.7861 38.2236 66.9969 63.6025 108.765 25.1247C142.179 -5.65755 157.787 -53.1177 161.414 -73" stroke="#0487FF" stroke-dasharray="6 6"/>
<path d="M479.529 315.123C454.601 330.146 408.389 368.881 422.967 403.637C441.189 447.083 462.034 425.835 450.045 409.204C438.056 392.572 395.035 416.553 407.622 471.93C417.691 516.232 451.088 553.391 466.527 566.432" stroke="#0487FF" stroke-dasharray="6 6"/>
<path d="M207.626 90.8023C213.651 90.8023 218.535 85.868 218.535 79.7812C218.535 73.6944 213.651 68.7601 207.626 68.7601C201.601 68.7601 196.717 73.6944 196.717 79.7812C196.717 85.868 201.601 90.8023 207.626 90.8023Z" fill="#263238" stroke="#263238" stroke-miterlimit="10" stroke-linecap="round" stroke-linejoin="round"/>
<path d="M237.905 109.949C237.905 109.949 243.025 109.726 244.361 118.855C245.697 127.983 251.04 151.807 251.486 155.146C251.932 158.486 249.928 162.493 245.03 164.053C240.131 165.611 237.46 160.936 237.015 158.709C236.569 156.482 232.253 129.361 232.253 129.361L237.905 109.949Z" fill="#E9E9E9" stroke="#263238" stroke-miterlimit="10" stroke-linecap="round" stroke-linejoin="round"/>
<path d="M187.764 132.147C187.764 132.147 165.199 141.694 165.199 145.166C165.199 148.637 179.086 182.486 179.086 182.486L238.971 166.864L232.253 129.36C232.253 129.36 223.348 118.26 187.764 132.147Z" fill="white" stroke="#263238" stroke-miterlimit="10" stroke-linecap="round" stroke-linejoin="round"/>
<path d="M208.335 111.666C208.335 111.666 201.879 115.673 196.758 118.568C191.637 121.462 183.845 125.47 183.845 133.485C183.845 141.5 189.633 173.339 189.633 176.679C189.633 180.018 189.856 181.8 189.856 181.131C189.856 180.463 229.041 167.549 229.041 167.549C229.041 167.549 231.49 157.308 233.493 152.409C235.496 147.511 233.493 143.282 235.72 135.265C237.947 127.25 242.177 121.907 240.395 115.896C238.614 109.885 238.168 110.108 231.712 109.885C225.257 109.662 214.569 109.662 208.335 111.666Z" fill="#E9E9E9" stroke="#263238" stroke-miterlimit="10" stroke-linecap="round" stroke-linejoin="round"/>
<path d="M205.399 108.168C205.399 108.168 202.505 109.726 201.391 116.851C200.278 123.976 200.278 133.995 200.278 133.995C200.278 133.995 212.301 127.316 214.081 127.093C215.863 126.87 228.776 132.214 228.776 132.214C228.776 132.214 226.995 121.972 224.323 114.849C221.652 107.722 208.07 105.051 205.399 108.168Z" fill="white" stroke="#263238" stroke-miterlimit="10" stroke-linecap="round" stroke-linejoin="round"/>
<path d="M203.172 106.387C203.172 106.387 203.25 106.661 203.391 107.15C204.258 110.16 207.49 121.317 209.406 126.871C211.633 133.327 214.972 135.998 214.972 135.998L218.312 122.64C218.312 122.64 205.176 109.949 203.172 106.387Z" fill="white" stroke="#263238" stroke-miterlimit="10" stroke-linecap="round" stroke-linejoin="round"/>
<path d="M214.973 77.8879C214.973 77.8879 204.064 76.1067 200.278 90.3554C196.493 104.604 208.739 116.85 212.302 121.525C215.864 126.201 220.998 127.693 223.879 123.084C228.332 115.959 229.667 112.398 230.336 103.046C231.004 93.6938 229.89 87.4613 225.66 82.5632C221.429 77.6651 214.973 77.8879 214.973 77.8879Z" fill="white" stroke="#263238" stroke-miterlimit="10" stroke-linecap="round" stroke-linejoin="round"/>
<path d="M225.66 82.5632C221.43 77.6651 214.974 77.8879 214.974 77.8879C214.974 77.8879 204.065 76.1067 200.279 90.3554C199.129 94.683 199.464 98.8238 200.58 102.627C200.975 101.607 201.576 100.82 202.505 100.82C205.176 100.82 205.399 104.605 206.29 104.383C207.18 104.16 210.743 101.043 210.076 98.1489C209.407 95.2548 210.299 93.9192 214.974 93.9192C219.649 93.9192 220.762 95.9233 222.32 95.4776C223.879 95.032 224.992 91.9151 226.55 91.9151C227.537 91.9151 228.88 92.2757 230.241 93.6101C229.694 89.1383 228.276 85.5925 225.66 82.5632Z" fill="#263238" stroke="#263238" stroke-miterlimit="10" stroke-linecap="round" stroke-linejoin="round"/>
<path d="M206.289 105.718C206.289 105.718 204.508 101.266 202.504 100.82C200.5 100.374 199.387 101.71 200.5 105.495C201.612 109.281 203.171 110.839 204.062 110.839C204.952 110.839 205.398 109.504 205.398 109.504" fill="white"/>
<path d="M206.289 105.718C206.289 105.718 204.508 101.266 202.504 100.82C200.5 100.374 199.387 101.71 200.5 105.495C201.612 109.281 203.171 110.839 204.062 110.839C204.952 110.839 205.398 109.504 205.398 109.504" stroke="#263238" stroke-miterlimit="10" stroke-linecap="round" stroke-linejoin="round"/>
<path d="M190.036 151.36C190.036 151.36 191.149 158.485 196.047 161.602C200.945 164.719 207.625 163.16 207.625 163.16" stroke="#263238" stroke-miterlimit="10" stroke-linecap="round" stroke-linejoin="round"/>
<path d="M214.973 135.998C214.973 135.998 218.09 147.799 217.422 152.92" stroke="#263238" stroke-miterlimit="10" stroke-linecap="round" stroke-linejoin="round"/>
<path d="M148.437 132.999C148.437 132.999 151.142 134.126 153.17 141.113C155.199 148.1 160.608 160.947 161.961 165.906C163.313 170.865 162.862 177.176 157.002 178.754C151.142 180.331 144.831 164.328 143.929 162.976C143.027 161.624 140.774 149.002 141.901 142.24C143.028 135.478 145.958 132.097 148.437 132.999Z" fill="white" stroke="#263238" stroke-miterlimit="10" stroke-linecap="round" stroke-linejoin="round"/>
<path d="M116.335 156.407C116.335 156.407 81.1309 190.753 81.1309 195.905C81.1309 201.057 101.845 243.667 107.641 242.701C113.437 241.735 139.518 213.937 139.518 213.937L116.335 156.407Z" fill="white" stroke="#263238" stroke-miterlimit="10" stroke-linecap="round" stroke-linejoin="round"/>
<path d="M117.333 138.408C117.333 138.408 106.289 148.1 98.3998 157.341C90.511 166.582 91.1872 182.134 93.6665 192.728C96.1459 203.321 100.654 233.3 106.289 234.427C111.923 235.554 116.431 223.608 126.349 215.043C136.266 206.478 144.155 199.266 144.831 193.631C145.507 187.996 144.605 169.964 145.056 168.612C145.507 167.26 146.859 155.088 146.859 148.552C146.859 142.016 141.901 134.803 136.942 133.225C131.983 131.646 119.361 136.83 117.333 138.408Z" fill="white" stroke="#263238" stroke-miterlimit="10" stroke-linecap="round" stroke-linejoin="round"/>
<path d="M162.995 350.436C162.995 350.436 155.724 365.432 145.274 374.975C134.822 384.517 118.464 396.332 118.464 396.332C118.464 396.332 135.731 401.785 139.366 402.24C143.001 402.694 142.093 404.512 138.003 406.329C133.914 408.146 128.915 409.51 117.556 409.51C106.196 409.51 98.9252 409.51 98.4705 406.784C98.0159 404.057 105.286 397.241 110.74 391.788C116.193 386.335 137.095 352.255 138.913 350.436C140.73 348.618 153.452 342.711 162.995 350.436Z" fill="white" stroke="#263238" stroke-miterlimit="10" stroke-linecap="round" stroke-linejoin="round"/>
<path d="M139.366 402.238C136.373 401.865 124.147 398.104 119.917 396.786L116.645 404.056C116.645 404.056 109.077 405.695 102.902 399.745C100.193 402.702 98.2263 405.326 98.4684 406.782C98.923 409.509 106.194 409.509 117.553 409.509C128.913 409.509 133.912 408.146 138.001 406.328C142.093 404.51 143.002 402.693 139.366 402.238Z" fill="#263238" stroke="#263238" stroke-miterlimit="10" stroke-linecap="round" stroke-linejoin="round"/>
<path d="M293.361 350.436C293.361 350.436 300.632 365.432 311.082 374.975C321.534 384.517 337.893 396.332 337.893 396.332C337.893 396.332 320.625 401.785 316.99 402.24C313.354 402.694 314.264 404.512 318.353 406.329C322.442 408.146 327.441 409.51 338.801 409.51C350.161 409.51 357.431 409.51 357.886 406.784C358.34 404.057 351.07 397.241 345.617 391.788C340.163 386.335 319.261 352.255 317.444 350.436C315.628 348.618 302.904 342.711 293.361 350.436Z" fill="white" stroke="#263238" stroke-miterlimit="10" stroke-linecap="round" stroke-linejoin="round"/>
<path d="M316.99 402.238C319.983 401.865 332.21 398.104 336.438 396.786L339.71 404.056C339.71 404.056 347.276 405.695 353.454 399.745C356.162 402.702 358.129 405.326 357.887 406.782C357.432 409.509 350.161 409.509 338.802 409.509C327.442 409.509 322.443 408.146 318.354 406.328C314.263 404.51 313.355 402.693 316.99 402.238Z" fill="#263238" stroke="#263238" stroke-miterlimit="10" stroke-linecap="round" stroke-linejoin="round"/>
<path d="M58.0272 356.798C58.0272 356.798 64.3885 368.612 63.9351 372.701C63.5642 376.041 55.6149 401.509 52.7144 410.732C52.2172 412.314 53.491 413.887 55.1409 413.737C56.0656 413.654 56.8513 413.026 57.1385 412.144L69.8417 373.156C69.8417 373.156 72.1137 370.429 79.3842 369.067C84.9547 368.022 112.666 366.711 125.321 366.155C130.152 365.942 134.394 369.519 134.808 374.337C134.813 374.398 134.818 374.458 134.822 374.519C135.225 379.765 143.873 406.872 145.802 412.874C146.021 413.556 146.704 413.965 147.409 413.847C148.223 413.712 148.76 412.928 148.583 412.122C147.035 405.095 140.404 374.731 138.003 359.523C138.003 359.523 89.836 361.795 78.9309 359.068C68.0257 356.342 60.3005 351.343 60.3005 351.343C60.3005 351.343 57.5738 351.344 58.0272 356.798Z" fill="#263238" stroke="#263238" stroke-miterlimit="10" stroke-linecap="round" stroke-linejoin="round"/>
<path d="M53.9384 276.823C53.9384 276.823 37.5799 328.17 40.3066 337.258C43.0332 346.346 56.2103 359.07 61.2089 359.07C66.2075 359.07 70.2968 309.085 70.2968 304.541C70.2968 299.997 61.6636 283.639 58.937 276.823C56.2103 270.007 53.9384 276.823 53.9384 276.823Z" fill="white" stroke="#263238" stroke-miterlimit="10" stroke-linecap="round" stroke-linejoin="round"/>
<path d="M143.383 353.615C143.222 358.722 142.42 362.704 140.276 362.704C136.185 362.704 91.6536 367.248 81.2031 366.794C70.7525 366.339 63.0273 360.887 63.0273 353.162C63.0273 345.437 63.482 311.357 71.2072 306.812C78.9324 302.268 119.828 301.813 129.373 301.813C141.119 301.815 141.629 324.508 142.125 332.201C142.271 334.47 143.641 345.471 143.383 353.615Z" fill="white" stroke="#263238" stroke-miterlimit="10" stroke-linecap="round" stroke-linejoin="round"/>
<path d="M131.641 354.071C131.641 354.071 160.723 354.98 162.995 350.435C165.267 345.891 162.995 336.349 157.087 334.531C151.18 332.714 126.643 334.077 126.643 334.077L131.641 354.071Z" fill="white" stroke="#263238" stroke-miterlimit="10" stroke-linecap="round" stroke-linejoin="round"/>
<path d="M61.2088 311.357C61.2088 311.357 58.4822 319.99 58.9369 329.988C59.3915 339.985 62.1182 349.982 75.75 358.16C89.3818 366.339 133.913 356.797 133.913 356.797L130.732 297.269C130.732 297.269 101.195 293.635 84.8365 296.815C68.4794 299.997 61.6635 309.54 61.2088 311.357Z" fill="#263238" stroke="#263238" stroke-miterlimit="10" stroke-linecap="round" stroke-linejoin="round"/>
<path d="M274.126 101.907C274.126 101.907 269.012 107.022 266.577 113.839C264.141 120.657 256.106 141.113 256.349 145.009C256.593 148.905 260.002 153.775 263.411 151.097C266.82 148.418 275.099 134.051 275.586 133.321C276.073 132.59 276.56 122.363 276.56 116.031C276.561 109.701 277.048 101.664 274.126 101.907Z" fill="white" stroke="#263238" stroke-miterlimit="10" stroke-linecap="round" stroke-linejoin="round"/>
<path d="M282.053 123.778C284.72 123.269 345.592 136.658 345.592 143.526C345.592 150.395 331.853 188.176 331.853 188.176L273.466 172.721C273.466 172.721 274.638 125.195 282.053 123.778Z" fill="white" stroke="#263238" stroke-miterlimit="10" stroke-linecap="round" stroke-linejoin="round"/>
<path d="M302.617 94.1149C302.617 94.1149 289.467 92.6544 280.214 97.2808C270.961 101.907 270.96 109.701 271.447 117.249C271.934 124.798 274.453 165.507 275.183 168.428C275.913 171.35 292.633 170.577 302.372 172.526C312.113 174.474 318.931 166.438 320.392 163.272C321.853 160.106 338.899 129.181 338.899 122.606C338.899 116.031 331.837 103.612 321.853 97.7676C311.871 91.9241 302.617 94.1149 302.617 94.1149Z" fill="white" stroke="#263238" stroke-miterlimit="10" stroke-linecap="round" stroke-linejoin="round"/>
<path d="M293.362 119.197L296.041 125.042L285.57 161.568L288.006 168.63L295.068 163.273L298.964 125.772L304.32 119.927L301.643 113.353L293.362 119.197Z" fill="#263238" stroke="#263238" stroke-miterlimit="10" stroke-linecap="round" stroke-linejoin="round"/>
<path d="M294.094 104.099C294.094 104.099 291.415 109.214 290.441 112.622C289.468 116.031 289.468 122.363 289.468 122.363C289.468 122.363 297.26 118.71 299.452 118.71C301.644 118.71 306.027 128.694 306.027 128.694C306.027 128.694 312.602 118.953 313.576 111.891C314.55 104.83 307.001 99.7163 301.644 99.7163C296.285 99.7163 294.094 104.099 294.094 104.099Z" fill="white" stroke="#263238" stroke-miterlimit="10" stroke-linecap="round" stroke-linejoin="round"/>
<path d="M321.853 97.0374C321.853 97.0374 324.289 93.3848 324.776 96.794C325.263 100.203 322.34 102.882 320.636 103.856C318.932 104.83 317.714 103.856 317.714 103.856" fill="white"/>
<path d="M321.853 97.0374C321.853 97.0374 324.289 93.3848 324.776 96.794C325.263 100.203 322.34 102.882 320.636 103.856C318.932 104.83 317.714 103.856 317.714 103.856" stroke="#263238" stroke-miterlimit="10" stroke-linecap="round" stroke-linejoin="round"/>
<path d="M297.015 82.9136C297.015 82.9136 294.58 80.9649 293.119 84.8623C291.658 88.7583 294.093 93.6281 294.093 93.6281L296.528 88.5149" fill="white"/>
<path d="M297.015 82.9136C297.015 82.9136 294.58 80.9649 293.119 84.8623C291.658 88.7583 294.093 93.6281 294.093 93.6281L296.528 88.5149" stroke="#263238" stroke-miterlimit="10" stroke-linecap="round" stroke-linejoin="round"/>
<path d="M297.015 115.544C297.015 115.544 296.285 118.466 299.451 118.71C302.617 118.953 309.192 112.135 309.678 110.674C310.165 109.212 297.015 115.544 297.015 115.544Z" fill="white" stroke="#263238" stroke-miterlimit="10" stroke-linecap="round" stroke-linejoin="round"/>
<path d="M308.461 68.0595C308.461 68.0595 299.939 71.9555 297.99 78.0437C296.041 84.1319 292.877 96.5505 292.877 101.177C292.877 105.803 294.337 115.301 297.503 116.761C300.669 118.222 311.14 111.403 314.063 109.456C316.985 107.508 320.394 99.9584 324.047 95.5755C327.7 91.1926 330.622 83.1557 329.16 76.5819C327.698 70.0069 316.984 62.2147 308.461 68.0595Z" fill="white" stroke="#263238" stroke-miterlimit="10" stroke-linecap="round" stroke-linejoin="round"/>
<path d="M329.159 76.5819C327.699 70.0069 316.984 62.2147 308.46 68.0582C308.46 68.0582 299.938 71.9543 297.989 78.0425C297.063 80.9365 295.864 85.2602 294.859 89.4976C296.525 86.8921 299.281 82.4679 299.451 81.4517C299.694 79.9911 299.694 79.7464 301.4 79.7464C303.105 79.7464 306.269 84.6162 310.654 85.5912C315.038 86.5662 320.881 85.8346 320.881 88.2702C320.881 90.7057 317.472 94.6018 319.664 95.8189C321.368 96.7656 319.841 100.06 319.99 101.482C321.299 99.3763 322.655 97.246 324.047 95.5755C327.699 91.1926 330.621 83.157 329.159 76.5819Z" fill="#263238" stroke="#263238" stroke-miterlimit="10" stroke-linecap="round" stroke-linejoin="round"/>
<path d="M297.259 91.6807C297.259 91.6807 305.781 95.8202 309.922 97.2808C314.061 98.7413 318.201 100.447 316.74 103.126C315.28 105.804 310.409 107.022 307.486 105.804C304.564 104.587 305.294 98.4992 303.59 98.2557C301.886 98.0123 300.668 101.178 297.502 101.178C294.336 101.178 290.927 96.3083 291.414 92.8991C291.902 89.4886 297.259 91.6807 297.259 91.6807Z" fill="white" stroke="#263238" stroke-miterlimit="10" stroke-linecap="round" stroke-linejoin="round"/>
<path d="M317.471 100.69L323.072 95.0887" stroke="#263238" stroke-miterlimit="10" stroke-linecap="round" stroke-linejoin="round"/>
<path d="M292.876 91.436L295.798 84.8622" stroke="#263238" stroke-miterlimit="10" stroke-linecap="round" stroke-linejoin="round"/>
<path d="M360.882 143.087C360.882 143.087 344.739 157.436 340.553 161.622C336.367 165.808 336.169 173.779 340.154 175.574C344.14 177.368 356.696 169.993 358.689 168.398C360.683 166.804 366.064 144.083 360.882 143.087Z" fill="#E9E9E9" stroke="#263238" stroke-miterlimit="10" stroke-linecap="round" stroke-linejoin="round"/>
<path d="M401.267 179.014C401.267 179.014 422.964 200.711 418.625 207.654C414.286 214.597 372.627 236.295 372.627 236.295L364.815 202.447L401.267 179.014Z" fill="white" stroke="#263238" stroke-miterlimit="10" stroke-linecap="round" stroke-linejoin="round"/>
<path d="M373.439 141.691C373.439 141.691 364.271 140.894 360.882 143.086C357.494 145.278 355.102 165.607 354.504 177.764C353.907 189.921 352.312 199.687 353.109 202.079C353.907 204.47 374.634 230.579 377.623 234.166C380.612 237.753 404.728 201.082 408.116 193.708C411.504 186.334 409.311 179.557 404.927 169.394C400.542 159.231 391.175 149.862 385.594 144.68C380.015 139.499 373.439 141.691 373.439 141.691Z" fill="#E9E9E9" stroke="#263238" stroke-miterlimit="10" stroke-linecap="round" stroke-linejoin="round"/>
<path d="M373.238 165.807C373.238 165.807 373.186 166.084 373.097 166.578C372.842 168.011 372.287 171.273 371.842 174.975C371.245 179.956 371.443 186.534 373.038 186.534C374.632 186.534 395.559 171.388 395.957 157.635C396.357 143.884 374.833 160.028 373.238 165.807Z" fill="white" stroke="#263238" stroke-miterlimit="10" stroke-linecap="round" stroke-linejoin="round"/>
<path d="M372.242 138.702C372.242 138.702 370.249 146.075 370.249 147.272C370.249 148.467 371.046 151.458 371.046 151.458C371.046 151.458 367.658 156.839 368.057 157.436C368.456 158.034 369.652 159.031 369.652 159.031C369.652 159.031 369.254 166.604 370.847 168.199C372.441 169.793 379.018 168.796 379.018 168.796C379.018 168.796 375.829 172.782 379.417 172.982C383.004 173.182 392.571 165.209 395.361 160.625C398.15 156.042 397.952 147.671 395.361 143.485C392.771 139.299 377.424 133.52 372.242 138.702Z" fill="white" stroke="#263238" stroke-miterlimit="10" stroke-linecap="round" stroke-linejoin="round"/>
<path d="M389.581 124.353C389.581 124.353 374.235 126.345 371.446 132.325C368.656 138.304 375.033 145.679 379.616 146.674C384.2 147.671 387.19 147.471 387.19 147.471C387.19 147.471 382.406 151.657 385.395 152.653C388.385 153.65 389.78 153.051 389.78 154.048C389.78 155.045 386.79 158.234 389.38 158.432C391.972 158.632 392.769 154.048 394.364 155.043C395.958 156.04 393.766 160.025 394.563 160.225C395.36 160.425 402.934 152.452 406.123 144.082C409.312 135.711 404.927 130.53 401.738 127.739C398.549 124.95 393.368 123.356 389.581 124.353Z" fill="#263238" stroke="#263238" stroke-miterlimit="10" stroke-linecap="round" stroke-linejoin="round"/>
<path d="M389.581 159.23C389.581 159.23 392.371 152.852 394.165 154.249C395.959 155.644 395.36 160.227 393.368 161.822C391.375 163.416 387.589 161.622 387.589 161.622" fill="white"/>
<path d="M389.581 159.23C389.581 159.23 392.371 152.852 394.165 154.249C395.959 155.644 395.36 160.227 393.368 161.822C391.375 163.416 387.589 161.622 387.589 161.622" stroke="#263238" stroke-miterlimit="10" stroke-linecap="round" stroke-linejoin="round"/>
<path d="M371.844 176.769L378.22 173.58L377.225 183.147" fill="white"/>
<path d="M371.844 176.769L378.22 173.58L377.225 183.147" stroke="#263238" stroke-miterlimit="10" stroke-linecap="round" stroke-linejoin="round"/>
<path d="M422.566 346.038C422.566 346.038 411.106 368.612 411.561 372.702C411.932 376.041 419.881 401.509 422.782 410.732C423.279 412.314 422.005 413.887 420.355 413.737C419.43 413.654 418.645 413.026 418.357 412.144L405.654 373.156C405.654 373.156 403.382 370.43 396.112 369.067C390.541 368.022 362.829 366.711 350.175 366.155C345.344 365.942 341.101 369.519 340.688 374.337C340.683 374.398 340.678 374.458 340.673 374.519C340.269 379.765 331.622 406.872 329.693 412.874C329.474 413.556 328.791 413.965 328.085 413.847C327.271 413.712 326.734 412.928 326.912 412.122C328.46 405.095 335.091 374.731 337.491 359.523C337.491 359.523 385.659 361.795 396.564 359.068C407.469 356.342 420.293 340.585 420.293 340.585C420.293 340.585 423.021 340.586 422.566 346.038Z" fill="#263238" stroke="#263238" stroke-miterlimit="10" stroke-linecap="round" stroke-linejoin="round"/>
<path d="M430.252 271.222C430.252 271.222 442.805 323.629 439.421 332.494C436.036 341.358 421.961 353.082 416.977 352.716C411.991 352.35 411.574 302.201 411.907 297.669C412.239 293.136 422.049 277.454 425.267 270.856C428.484 264.258 430.252 271.222 430.252 271.222Z" fill="white" stroke="#263238" stroke-miterlimit="10" stroke-linecap="round" stroke-linejoin="round"/>
<path d="M332.113 353.615C332.274 358.722 333.077 362.704 335.221 362.704C339.312 362.704 383.842 367.248 394.294 366.794C404.745 366.339 412.469 360.887 412.469 353.162C412.469 345.437 412.015 311.357 404.291 306.812C396.565 302.268 355.67 301.813 346.125 301.813C334.379 301.815 333.869 324.508 333.373 332.201C333.227 334.47 331.856 345.471 332.113 353.615Z" fill="white" stroke="#263238" stroke-miterlimit="10" stroke-linecap="round" stroke-linejoin="round"/>
<path d="M409.221 311.351C409.221 311.351 405.458 320.522 405.458 327.813C405.458 335.105 401.93 349.45 394.639 353.683C387.348 357.917 379.117 360.269 367.123 358.623C355.128 356.977 328.788 352.743 328.788 352.743C328.788 352.743 355.834 333.459 362.655 323.816C369.475 314.173 371.827 306.177 377.236 300.767C382.646 295.359 408.751 289.95 409.221 311.351Z" fill="#263238" stroke="#263238" stroke-miterlimit="10" stroke-linecap="round" stroke-linejoin="round"/>
<path d="M247.385 384.377C327.231 384.377 391.959 334.353 391.959 272.646C391.959 210.939 327.231 160.915 247.385 160.915C167.539 160.915 102.812 210.939 102.812 272.646C102.812 334.353 167.539 384.377 247.385 384.377Z" fill="#263238" stroke="#263238" stroke-miterlimit="10" stroke-linecap="round" stroke-linejoin="round"/>
<path d="M247.385 381.031C327.231 381.031 391.959 331.007 391.959 269.3C391.959 207.593 327.231 157.569 247.385 157.569C167.539 157.569 102.812 207.593 102.812 269.3C102.812 331.007 167.539 381.031 247.385 381.031Z" fill="#9BCFFF" stroke="#263238" stroke-miterlimit="10" stroke-linecap="round" stroke-linejoin="round"/>
<path d="M319.028 200.685L337.363 220.815L304.878 244.132L286.144 221.412L319.028 200.685Z" fill="white" stroke="#263238" stroke-miterlimit="10" stroke-linecap="round" stroke-linejoin="round"/>
<path d="M219.826 202.422L189.823 217.852L216.398 250.426L247.257 229.853L219.826 202.422Z" fill="white" stroke="#263238" stroke-miterlimit="10" stroke-linecap="round" stroke-linejoin="round"/>
<path d="M265.334 235.05L235.332 250.48L261.905 283.054L292.765 262.481L265.334 235.05Z" fill="white" stroke="#263238" stroke-miterlimit="10" stroke-linecap="round" stroke-linejoin="round"/>
<path d="M261.986 237.411L229.662 247.077L249.812 283.972L283.921 269.407L261.986 237.411Z" fill="white" stroke="#263238" stroke-miterlimit="10" stroke-linecap="round" stroke-linejoin="round"/>
<path d="M223.424 184.124C223.424 184.124 229.253 181.939 229.253 183.395C229.253 184.852 229.253 186.31 226.703 187.039C224.153 187.768 215.409 185.945 217.594 184.853C219.78 183.76 223.424 184.124 223.424 184.124Z" fill="white" stroke="#263238" stroke-miterlimit="10" stroke-linecap="round" stroke-linejoin="round"/>
<path d="M191.15 121.527C191.15 121.527 183.581 124.198 179.795 128.873C176.01 133.549 174.229 145.794 173.339 151.137C172.449 156.481 168.441 176.74 170.668 179.19C172.895 181.64 196.717 189.878 201.392 191.213C206.067 192.549 211.634 194.553 214.751 194.33C217.868 194.107 220.985 191.88 220.985 191.88C220.985 191.88 226.328 194.33 227.664 194.33C229 194.33 230.781 191.88 229.222 189.432C227.664 186.982 223.323 183.395 220.875 183.395C218.427 183.395 209.408 184.755 209.408 184.755C209.408 184.755 194.045 176.963 189.593 173.846C185.141 170.729 181.801 167.167 181.801 167.167L190.929 138.668" fill="#E9E9E9"/>
<path d="M191.15 121.527C191.15 121.527 183.581 124.198 179.795 128.873C176.01 133.549 174.229 145.794 173.339 151.137C172.449 156.481 168.441 176.74 170.668 179.19C172.895 181.64 196.717 189.878 201.392 191.213C206.067 192.549 211.634 194.553 214.751 194.33C217.868 194.107 220.985 191.88 220.985 191.88C220.985 191.88 226.328 194.33 227.664 194.33C229 194.33 230.781 191.88 229.222 189.432C227.664 186.982 223.323 183.395 220.875 183.395C218.427 183.395 209.408 184.755 209.408 184.755C209.408 184.755 194.045 176.963 189.593 173.846C185.141 170.729 181.801 167.167 181.801 167.167L190.929 138.668" stroke="#263238" stroke-miterlimit="10" stroke-linecap="round" stroke-linejoin="round"/>
<path d="M220.874 183.395C218.425 183.395 209.407 184.755 209.407 184.755C209.407 184.755 207.713 183.896 205.292 182.637C203.67 183.871 201.771 185.706 201.169 187.872C200.831 189.092 200.712 190.126 200.691 191.003C200.953 191.083 201.195 191.155 201.392 191.212C206.067 192.548 211.634 194.552 214.751 194.329C217.868 194.106 220.985 191.879 220.985 191.879C220.985 191.879 226.328 194.329 227.664 194.329C229 194.329 230.781 191.879 229.222 189.431C227.663 186.984 223.322 183.395 220.874 183.395Z" fill="white" stroke="#263238" stroke-miterlimit="10" stroke-linecap="round" stroke-linejoin="round"/>
<path d="M118.911 143.592C118.227 143.793 113.051 149.452 112.6 155.989C112.149 162.525 117.108 173.344 118.01 175.147C118.911 176.95 117.784 180.106 120.038 180.106C122.292 180.106 129.279 169.738 129.279 169.738C129.279 169.738 137.168 170.189 138.07 168.16C138.971 166.132 131.759 154.862 130.181 150.129C128.603 145.395 122.743 142.465 118.911 143.592Z" fill="white" stroke="#263238" stroke-miterlimit="10" stroke-linecap="round" stroke-linejoin="round"/>
<path d="M118.461 140.211C118.461 140.211 118.461 146.297 117.559 149.452C116.657 152.608 116.432 154.186 119.813 159.144C123.194 164.103 130.857 171.766 130.857 171.766C130.857 171.766 131.308 166.582 131.533 163.652C131.759 160.722 136.267 158.919 137.168 157.567C138.07 156.214 132.21 155.313 129.956 151.255C127.702 147.198 127.702 140.211 124.546 139.535C121.391 138.859 119.588 137.056 118.461 140.211Z" fill="white" stroke="#263238" stroke-miterlimit="10" stroke-linecap="round" stroke-linejoin="round"/>
<path d="M148.663 126.462C148.663 126.462 154.974 124.659 153.848 118.348C152.721 112.037 141.225 107.304 128.829 108.431C116.432 109.558 110.797 117.672 109.67 125.786C108.543 133.9 117.108 141.789 118.01 143.141C118.911 144.494 117.785 145.846 120.489 146.748C123.194 147.649 126.124 146.748 126.124 146.748C126.124 146.748 128.378 150.129 132.21 149.227C136.041 148.325 134.914 140.662 136.492 139.76C138.07 138.859 139.197 135.929 143.93 133.224C148.663 130.519 148.663 126.462 148.663 126.462Z" fill="#263238" stroke="#263238" stroke-miterlimit="10" stroke-linecap="round" stroke-linejoin="round"/>
<path d="M129.505 145.17C129.505 145.17 129.956 141.564 125.448 141.113C120.94 140.662 122.067 144.944 122.969 146.973C123.87 149.002 127.026 150.579 127.026 150.579C127.026 150.579 128.153 155.763 129.73 156.214C131.308 156.665 140.775 160.722 142.578 160.046C144.381 159.37 146.184 151.03 146.184 151.03C146.184 151.03 149.34 149.452 149.34 147.875C149.34 146.297 147.987 141.789 147.987 140.662C147.987 139.535 150.467 136.379 150.917 133.9C151.368 131.421 148.664 126.462 148.664 126.462C148.664 126.462 147.537 130.519 143.93 130.519C140.324 130.519 136.718 129.392 136.718 129.392C136.718 129.392 138.521 134.126 137.168 136.154C135.816 138.183 133.562 137.732 133.111 138.633C132.661 139.535 132.886 143.592 132.661 144.494C132.435 145.395 130.857 148.551 129.505 145.17Z" fill="white" stroke="#263238" stroke-miterlimit="10" stroke-linecap="round" stroke-linejoin="round"/>
<path d="M151.368 169.738C151.368 169.738 152.495 178.753 154.749 182.36C157.003 185.966 166.47 199.94 166.47 199.94C166.47 199.94 165.793 204.674 166.47 206.026C167.146 207.378 169.85 213.915 169.85 214.816C169.85 215.718 171.654 216.394 171.879 215.042C172.104 213.689 172.104 211.886 172.104 211.886L175.936 217.747C175.936 217.747 177.965 219.324 178.641 217.972C179.317 216.62 178.866 209.407 179.317 206.477C179.768 203.547 177.514 199.49 175.711 197.687C173.908 195.883 171.654 192.728 170.977 192.052C170.301 191.375 167.371 180.782 166.019 173.569C164.666 166.357 161.06 161.849 158.355 161.398" fill="white"/>
<path d="M151.368 169.738C151.368 169.738 152.495 178.753 154.749 182.36C157.003 185.966 166.47 199.94 166.47 199.94C166.47 199.94 165.793 204.674 166.47 206.026C167.146 207.378 169.85 213.915 169.85 214.816C169.85 215.718 171.654 216.394 171.879 215.042C172.104 213.689 172.104 211.886 172.104 211.886L175.936 217.747C175.936 217.747 177.965 219.324 178.641 217.972C179.317 216.62 178.866 209.407 179.317 206.477C179.768 203.547 177.514 199.49 175.711 197.687C173.908 195.883 171.654 192.728 170.977 192.052C170.301 191.375 167.371 180.782 166.019 173.569C164.666 166.357 161.06 161.849 158.355 161.398" stroke="#263238" stroke-miterlimit="10" stroke-linecap="round" stroke-linejoin="round"/>
<path d="M178.642 217.973C179.318 216.621 178.867 209.408 179.318 206.478C179.769 203.548 177.515 199.491 175.712 197.688C174.48 196.456 173.049 194.61 172.044 193.337C168.641 194.227 166.255 196.383 165.005 197.775C165.897 199.098 166.469 199.942 166.469 199.942C166.469 199.942 165.793 204.675 166.469 206.027C167.145 207.38 169.85 213.916 169.85 214.818C169.85 215.719 171.653 216.395 171.879 215.043C172.104 213.691 172.104 211.888 172.104 211.888L175.936 217.748C175.936 217.748 177.966 219.326 178.642 217.973Z" fill="white" stroke="#263238" stroke-miterlimit="10" stroke-linecap="round" stroke-linejoin="round"/>
<path d="M97.2732 160.722C97.2732 160.722 92.9907 163.652 91.413 169.963C89.8352 176.274 95.0192 201.969 96.3716 209.407C97.724 216.845 104.486 241.64 106.514 243.217C108.543 244.795 132.209 241.865 140.775 240.287C149.34 238.71 167.823 232.173 171.654 231.046C175.486 229.919 177.515 224.059 178.642 222.932C179.769 221.805 182.248 217.973 180.896 216.621C179.543 215.269 175.711 216.621 174.134 216.621C172.556 216.621 169.626 216.396 166.47 216.396C163.315 216.396 160.61 218.649 159.708 221.805C158.807 224.961 157.455 226.538 157.455 226.538C157.455 226.538 134.239 229.694 129.28 229.694C124.322 229.694 119.588 229.018 119.588 229.018C119.588 229.018 116.884 213.465 114.855 203.774C112.827 194.082 111.023 186.644 109.446 184.164" fill="white"/>
<path d="M97.2732 160.722C97.2732 160.722 92.9907 163.652 91.413 169.963C89.8352 176.274 95.0192 201.969 96.3716 209.407C97.724 216.845 104.486 241.64 106.514 243.217C108.543 244.795 132.209 241.865 140.775 240.287C149.34 238.71 167.823 232.173 171.654 231.046C175.486 229.919 177.515 224.059 178.642 222.932C179.769 221.805 182.248 217.973 180.896 216.621C179.543 215.269 175.711 216.621 174.134 216.621C172.556 216.621 169.626 216.396 166.47 216.396C163.315 216.396 160.61 218.649 159.708 221.805C158.807 224.961 157.455 226.538 157.455 226.538C157.455 226.538 134.239 229.694 129.28 229.694C124.322 229.694 119.588 229.018 119.588 229.018C119.588 229.018 116.884 213.465 114.855 203.774C112.827 194.082 111.023 186.644 109.446 184.164" stroke="#263238" stroke-miterlimit="10" stroke-linecap="round" stroke-linejoin="round"/>
<path d="M174.133 216.621C172.556 216.621 169.625 216.395 166.47 216.395C163.314 216.395 160.61 218.649 159.708 221.805C158.806 224.96 157.454 226.538 157.454 226.538C157.454 226.538 156.849 226.621 155.822 226.757C156.383 227.979 156.905 229.482 157.003 231.046C157.105 232.682 156.929 234.454 156.706 235.906C163.372 233.796 169.606 231.649 171.654 231.046C175.486 229.919 177.514 224.059 178.641 222.932C179.768 221.805 182.247 217.973 180.895 216.621C179.543 215.268 175.711 216.621 174.133 216.621Z" fill="white" stroke="#263238" stroke-miterlimit="10" stroke-linecap="round" stroke-linejoin="round"/>
<path d="M158.887 259.089C158.887 259.089 164.693 259.573 166.629 259.573C168.564 259.573 181.87 258.122 179.936 255.944C178 253.766 163.45 251.83 163.45 251.83L158.887 259.089Z" fill="white" stroke="#263238" stroke-miterlimit="10" stroke-linecap="round" stroke-linejoin="round"/>
<path d="M187.921 246.024L145.58 265.622L162.033 299.009L203.647 277.96L187.921 246.024Z" fill="white" stroke="#263238" stroke-miterlimit="10" stroke-linecap="round" stroke-linejoin="round"/>
<path d="M159.612 257.153C159.612 257.153 164.693 257.153 165.903 257.88C167.112 258.606 172.193 263.203 172.92 261.992C173.646 260.783 170.742 257.88 169.532 256.669C168.323 255.459 167.113 254.491 167.113 254.491" fill="white"/>
<path d="M159.612 257.153C159.612 257.153 164.693 257.153 165.903 257.88C167.112 258.606 172.193 263.203 172.92 261.992C173.646 260.783 170.742 257.88 169.532 256.669C168.323 255.459 167.113 254.491 167.113 254.491" stroke="#263238" stroke-miterlimit="10" stroke-linecap="round" stroke-linejoin="round"/>
<path d="M119.827 240.47L163.45 251.83L156.634 261.827L110.739 256.374C110.739 256.374 99.8338 241.38 119.827 240.47Z" fill="white" stroke="#263238" stroke-miterlimit="10" stroke-linecap="round" stroke-linejoin="round"/>
<path d="M88.9655 242.379C88.9655 242.379 78.3398 251.395 74.7979 262.342C71.256 273.29 69.0021 295.185 69.0021 295.185C69.0021 295.185 57.7324 311.285 57.7324 312.895C57.7324 314.505 67.0702 312.895 67.0702 312.895L58.0544 328.35C58.0544 328.35 58.0544 341.23 65.1382 347.992C72.222 354.754 82.2037 357.33 89.9315 356.042C97.6593 354.754 111.827 337.366 113.437 336.4C115.047 335.434 109.573 320.623 108.285 315.149C106.997 309.675 109.573 305.811 111.183 304.845C112.793 303.879 122.131 298.083 124.063 293.897C125.994 289.712 125.673 282.628 125.029 277.154C124.385 271.68 116.335 252.683 109.251 246.887C102.167 241.091 95.7273 237.227 88.9655 242.379Z" fill="white" stroke="#263238" stroke-miterlimit="10" stroke-linecap="round" stroke-linejoin="round"/>
<path d="M95.4051 240.769C95.4051 240.769 90.5752 247.853 90.5752 253.005C90.5752 258.156 94.7611 266.528 97.981 270.392C101.201 274.256 104.099 276.832 104.099 276.832L111.183 275.222L111.505 280.696C111.505 280.696 113.115 277.798 117.622 279.73C122.13 281.662 125.028 280.374 125.028 279.408C125.028 278.442 127.604 271.68 125.028 260.41C122.452 249.141 119.554 247.209 115.368 243.023C111.183 238.837 101.523 237.227 95.4051 240.769Z" fill="white" stroke="#263238" stroke-miterlimit="10" stroke-linecap="round" stroke-linejoin="round"/>
<path d="M98.6251 242.379C98.6251 242.379 95.0832 248.497 97.0151 253.327C98.947 258.156 105.065 263.952 109.895 268.138C114.725 272.324 120.842 276.832 120.842 276.832C120.842 276.832 124.706 266.85 118.588 255.259C112.471 243.667 101.523 240.125 98.6251 242.379Z" fill="white" stroke="#263238" stroke-miterlimit="10" stroke-linecap="round" stroke-linejoin="round"/>
<path d="M126.638 213.078C126.638 213.078 128.892 218.551 128.892 219.517C128.892 220.483 128.892 221.771 128.892 221.771C128.892 221.771 133.4 224.347 132.756 225.313C132.112 226.279 129.536 230.465 129.536 230.465C129.536 230.465 130.18 236.905 129.214 241.091C128.248 245.277 129.536 247.209 125.994 247.209C122.452 247.209 116.979 247.209 116.979 247.209C116.979 247.209 116.013 260.732 113.759 260.732C111.505 260.732 101.201 255.902 99.2691 253.327C97.3372 250.751 96.6932 248.175 97.3372 246.243C97.9812 244.311 101.201 236.261 102.489 230.465C103.777 224.669 113.437 220.161 115.691 219.195C117.945 218.229 126.638 213.078 126.638 213.078Z" fill="white" stroke="#263238" stroke-miterlimit="10" stroke-linecap="round" stroke-linejoin="round"/>
<path d="M90.8977 235.939C90.8977 235.939 83.17 234.651 79.3061 235.295C75.4422 235.939 70.6123 241.413 70.6123 246.887C70.6123 252.361 74.7982 255.58 81.56 256.224C88.3218 256.868 92.8297 251.073 92.8297 247.853C92.8297 244.633 92.5077 241.091 90.8977 235.939Z" fill="#263238" stroke="#263238" stroke-miterlimit="10" stroke-linecap="round" stroke-linejoin="round"/>
<path d="M110.539 234.329C110.539 234.329 122.774 221.127 126.638 213.078C130.502 205.028 129.214 196.656 123.096 196.656C116.979 196.656 110.217 194.724 98.6251 198.91C87.0335 203.096 82.2036 216.62 82.8476 223.703C83.4916 230.787 94.1173 245.277 99.5911 246.243C105.065 247.209 105.065 237.549 105.065 237.549L110.539 234.329Z" fill="#263238" stroke="#263238" stroke-miterlimit="10" stroke-linecap="round" stroke-linejoin="round"/>
<path d="M112.149 236.583C112.149 236.583 109.251 230.143 105.709 232.075C102.167 234.007 105.387 241.091 107.641 242.701C109.895 244.311 113.437 241.735 113.437 241.735" fill="white"/>
<path d="M112.149 236.583C112.149 236.583 109.251 230.143 105.709 232.075C102.167 234.007 105.387 241.091 107.641 242.701C109.895 244.311 113.437 241.735 113.437 241.735" stroke="#263238" stroke-miterlimit="10" stroke-linecap="round" stroke-linejoin="round"/>
<path d="M128.892 221.771C128.892 221.771 127.604 225.957 125.994 226.601" stroke="#263238" stroke-miterlimit="10" stroke-linecap="round" stroke-linejoin="round"/>
<path d="M153.589 280.075C153.589 280.075 151.121 278.43 150.793 280.568C150.465 282.706 152.931 285.009 152.931 285.009C152.931 285.009 149.806 281.555 149.642 283.529C149.477 285.502 151.451 287.642 151.451 287.642C151.451 287.642 148.983 286.49 148.983 287.477C148.983 288.463 152.438 291.918 152.601 293.563C152.765 295.207 155.891 290.108 156.549 286.161C157.207 282.213 153.589 280.075 153.589 280.075Z" fill="white" stroke="#263238" stroke-miterlimit="10" stroke-linecap="round" stroke-linejoin="round"/>
<path d="M148.855 304.523C148.855 304.523 150.465 298.405 150.465 295.829C150.465 293.253 153.363 288.746 154.651 286.17C155.939 283.594 150.465 279.086 153.041 277.798C155.617 276.51 157.549 279.086 159.803 281.984C162.057 284.882 162.701 290.999 160.769 295.185C158.837 299.371 155.617 303.879 153.685 305.811C151.753 307.743 150.465 308.387 150.465 308.387L148.855 304.523Z" fill="white" stroke="#263238" stroke-miterlimit="10" stroke-linecap="round" stroke-linejoin="round"/>
<path d="M151.296 298.339C151.296 298.339 151.296 294.259 151.296 290.179C151.296 286.099 153.588 280.076 153.588 280.076C153.588 280.076 156.577 279.858 156.096 282.979C155.616 286.1 156.577 290.9 156.577 290.9" fill="white"/>
<path d="M151.296 298.339C151.296 298.339 151.296 294.259 151.296 290.179C151.296 286.099 153.588 280.076 153.588 280.076C153.588 280.076 156.577 279.858 156.096 282.979C155.616 286.1 156.577 290.9 156.577 290.9" stroke="#263238" stroke-miterlimit="10" stroke-linecap="round" stroke-linejoin="round"/>
<path d="M79.9495 293.576C79.9495 293.576 75.4416 300.015 77.6956 307.099C79.9495 314.183 112.149 357.008 116.656 357.008C121.164 357.008 153.685 314.827 155.617 312.251C157.549 309.675 149.178 303.235 149.178 303.235L116.656 332.858C116.656 332.858 107.963 298.083 104.421 291.644C100.879 285.204 92.5071 284.56 92.5071 284.56" fill="white"/>
<path d="M79.9495 293.576C79.9495 293.576 75.4416 300.015 77.6956 307.099C79.9495 314.183 112.149 357.008 116.656 357.008C121.164 357.008 153.685 314.827 155.617 312.251C157.549 309.675 149.178 303.235 149.178 303.235L116.656 332.858C116.656 332.858 107.963 298.083 104.421 291.644C100.879 285.204 92.5071 284.56 92.5071 284.56" stroke="#263238" stroke-miterlimit="10" stroke-linecap="round" stroke-linejoin="round"/>
<path d="M235.678 157.149C235.678 157.149 240.13 152.251 244.805 151.36C249.481 150.47 251.93 153.587 250.595 159.152C249.259 164.719 245.028 166.054 242.58 165.831C240.13 165.609 236.123 164.496 235.01 161.602C233.898 158.708 235.678 157.149 235.678 157.149Z" fill="#E9E9E9" stroke="#263238" stroke-miterlimit="10" stroke-linecap="round" stroke-linejoin="round"/>
<path d="M238.35 155.814C238.35 155.814 228.777 157.149 226.55 158.708C224.323 160.266 219.203 168.95 219.203 170.062C219.203 171.175 222.32 172.289 223.878 172.289C225.437 172.289 229.445 166.946 229.445 166.946L227.441 172.512C227.441 172.512 229.445 172.289 229.668 171.399C229.891 170.509 233.008 164.497 233.008 164.497C233.008 164.497 238.796 164.72 240.354 162.047C241.912 159.375 243.025 157.595 238.35 155.814Z" fill="white" stroke="#263238" stroke-miterlimit="10" stroke-linecap="round" stroke-linejoin="round"/>
<path d="M257.567 141.113C257.567 141.113 254.888 150.122 254.888 155.723C254.888 161.323 258.784 179.345 258.784 179.345C258.784 179.345 258.054 184.214 254.888 187.624C251.722 191.033 252.696 195.659 254.158 197.121C255.618 198.583 258.54 201.261 259.515 199.557C260.489 197.851 259.759 194.687 260.733 193.468C261.706 192.251 265.359 190.303 265.847 186.65C266.334 182.997 265.604 171.796 265.604 165.708C265.604 159.619 268.769 150.61 265.36 144.279" fill="white"/>
<path d="M257.567 141.113C257.567 141.113 254.888 150.122 254.888 155.723C254.888 161.323 258.784 179.345 258.784 179.345C258.784 179.345 258.054 184.214 254.888 187.624C251.722 191.033 252.696 195.659 254.158 197.121C255.618 198.583 258.54 201.261 259.515 199.557C260.489 197.851 259.759 194.687 260.733 193.468C261.706 192.251 265.359 190.303 265.847 186.65C266.334 182.997 265.604 171.796 265.604 165.708C265.604 159.619 268.769 150.61 265.36 144.279" stroke="#263238" stroke-miterlimit="10" stroke-linecap="round" stroke-linejoin="round"/>
<path d="M265.889 176.469C261.938 175.691 259.76 177.025 258.598 178.462C258.716 179.023 258.786 179.346 258.786 179.346C258.786 179.346 258.056 184.216 254.89 187.625C251.724 191.034 252.698 195.661 254.16 197.122C255.621 198.584 258.542 201.262 259.517 199.558C260.491 197.853 259.761 194.688 260.735 193.47C261.708 192.253 265.361 190.304 265.849 186.651C266.103 184.73 266.022 180.721 265.889 176.469Z" fill="white" stroke="#263238" stroke-miterlimit="10" stroke-linecap="round" stroke-linejoin="round"/>
<path d="M272.666 176.179L249.288 202.722L272.909 219.524L295.556 190.79L272.666 176.179Z" fill="white" stroke="#263238" stroke-miterlimit="10" stroke-linecap="round" stroke-linejoin="round"/>
<path d="M262.438 187.137C262.438 187.137 262.682 195.416 262.682 196.634C262.682 197.853 265.361 199.313 265.604 196.391C265.848 193.469 265.848 192.251 266.091 191.521C266.335 190.791 267.795 186.163 265.848 182.754" fill="white"/>
<path d="M262.438 187.137C262.438 187.137 262.682 195.416 262.682 196.634C262.682 197.853 265.361 199.313 265.604 196.391C265.848 193.469 265.848 192.251 266.091 191.521C266.335 190.791 267.795 186.163 265.848 182.754" stroke="#263238" stroke-miterlimit="10" stroke-linecap="round" stroke-linejoin="round"/>
<path d="M328.186 122.606C328.186 122.606 321.611 129.911 318.445 136.73C315.279 143.548 312.844 161.081 312.844 161.081C312.844 161.081 300.182 181.78 298.476 183.484C296.773 185.189 297.746 184.945 293.607 186.893C289.467 188.841 284.109 189.816 283.379 191.033C282.649 192.25 279.97 198.095 279.239 198.825C278.509 199.555 280.213 201.017 281.188 200.042C282.162 199.069 285.571 195.173 285.571 195.173L281.432 204.913C281.432 204.913 281.432 206.13 282.892 206.13C284.353 206.13 288.007 204.425 288.007 204.425C288.007 204.425 292.146 203.452 293.607 201.503C295.067 199.554 300.425 189.083 300.425 189.083C300.425 189.083 314.549 180.074 319.662 173.985C324.775 167.897 328.185 160.349 328.916 157.913C329.648 155.477 338.657 128.448 338.414 124.064C338.17 119.681 335.978 118.951 335.978 118.951" fill="white"/>
<path d="M328.186 122.606C328.186 122.606 321.611 129.911 318.445 136.73C315.279 143.548 312.844 161.081 312.844 161.081C312.844 161.081 300.182 181.78 298.476 183.484C296.773 185.189 297.746 184.945 293.607 186.893C289.467 188.841 284.109 189.816 283.379 191.033C282.649 192.25 279.97 198.095 279.239 198.825C278.509 199.555 280.213 201.017 281.188 200.042C282.162 199.069 285.571 195.173 285.571 195.173L281.432 204.913C281.432 204.913 281.432 206.13 282.892 206.13C284.353 206.13 288.007 204.425 288.007 204.425C288.007 204.425 292.146 203.452 293.607 201.503C295.067 199.554 300.425 189.083 300.425 189.083C300.425 189.083 314.549 180.074 319.662 173.985C324.775 167.897 328.185 160.349 328.916 157.913C329.648 155.477 338.657 128.448 338.414 124.064C338.17 119.681 335.978 118.951 335.978 118.951" stroke="#263238" stroke-miterlimit="10" stroke-linecap="round" stroke-linejoin="round"/>
<path d="M297.751 184.262C296.958 185.174 296.973 185.309 293.607 186.893C289.467 188.841 284.109 189.816 283.379 191.033C282.649 192.25 279.97 198.095 279.239 198.825C278.509 199.555 280.213 201.017 281.188 200.042C282.162 199.068 285.571 195.172 285.571 195.172L281.432 204.913C281.432 204.913 281.432 206.13 282.892 206.13C284.353 206.13 288.007 204.426 288.007 204.426C288.007 204.426 292.146 203.453 293.607 201.504C295.067 199.557 300.425 189.085 300.425 189.085C300.425 189.085 301.31 188.521 302.716 187.579C301.298 185.726 299.338 184.76 297.751 184.262Z" fill="white" stroke="#263238" stroke-miterlimit="10" stroke-linecap="round" stroke-linejoin="round"/>
<path d="M394.365 191.915C394.365 191.915 388.984 202.08 387.987 206.066C386.991 210.052 385.396 214.436 385.396 214.436C385.396 214.436 375.431 212.842 366.861 211.845C358.291 210.848 346.134 208.656 343.144 208.058C340.155 207.461 334.574 205.866 333.379 206.863C332.184 207.86 332.98 207.66 334.376 208.258C335.771 208.856 337.963 208.458 337.963 208.458C337.963 208.458 335.97 209.055 333.777 209.853C331.585 210.65 327.599 212.045 327.001 212.842C326.403 213.639 327.798 216.429 329.99 216.429C332.183 216.429 333.777 216.229 334.974 216.429C336.169 216.629 336.768 217.824 340.753 217.824C344.739 217.824 350.32 214.635 350.32 214.635C350.32 214.635 369.054 223.205 379.617 224.999C390.18 226.793 391.774 224.401 396.16 221.013C400.545 217.624 413.3 196.699 412.303 192.513C411.306 188.328 409.114 185.139 409.114 185.139" fill="#E9E9E9"/>
<path d="M394.365 191.915C394.365 191.915 388.984 202.08 387.987 206.066C386.991 210.052 385.396 214.436 385.396 214.436C385.396 214.436 375.431 212.842 366.861 211.845C358.291 210.848 346.134 208.656 343.144 208.058C340.155 207.461 334.574 205.866 333.379 206.863C332.184 207.86 332.98 207.66 334.376 208.258C335.771 208.856 337.963 208.458 337.963 208.458C337.963 208.458 335.97 209.055 333.777 209.853C331.585 210.65 327.599 212.045 327.001 212.842C326.403 213.639 327.798 216.429 329.99 216.429C332.183 216.429 333.777 216.229 334.974 216.429C336.169 216.629 336.768 217.824 340.753 217.824C344.739 217.824 350.32 214.635 350.32 214.635C350.32 214.635 369.054 223.205 379.617 224.999C390.18 226.793 391.774 224.401 396.16 221.013C400.545 217.624 413.3 196.699 412.303 192.513C411.306 188.328 409.114 185.139 409.114 185.139" stroke="#263238" stroke-miterlimit="10" stroke-linecap="round" stroke-linejoin="round"/>
<path d="M354.614 210.083C349.404 209.234 344.825 208.395 343.144 208.058C340.155 207.461 334.574 205.866 333.379 206.863C332.184 207.86 332.98 207.66 334.376 208.258C335.771 208.856 337.963 208.458 337.963 208.458C337.963 208.458 335.97 209.055 333.777 209.853C331.585 210.65 327.599 212.045 327.001 212.842C326.403 213.639 327.798 216.429 329.99 216.429C332.183 216.429 333.777 216.229 334.972 216.429C336.167 216.629 336.766 217.824 340.751 217.824C344.738 217.824 350.318 214.635 350.318 214.635C350.318 214.635 351.78 215.303 354.115 216.305L354.614 210.083Z" fill="white" stroke="#263238" stroke-miterlimit="10" stroke-linecap="round" stroke-linejoin="round"/>
<path d="M341.749 161.223C341.749 161.223 332.381 165.807 328.794 168.996C325.207 172.185 316.238 192.314 316.038 193.709C315.839 195.104 322.814 195.901 323.612 195.503C324.409 195.105 338.56 178.762 342.147 175.971C345.734 173.182 344.14 169.793 344.14 169.793" fill="#E9E9E9"/>
<path d="M341.749 161.223C341.749 161.223 332.381 165.807 328.794 168.996C325.207 172.185 316.238 192.314 316.038 193.709C315.839 195.104 322.814 195.901 323.612 195.503C324.409 195.105 338.56 178.762 342.147 175.971C345.734 173.182 344.14 169.793 344.14 169.793" stroke="#263238" stroke-miterlimit="10" stroke-linecap="round" stroke-linejoin="round"/>
<path d="M319.427 189.523C319.427 189.523 313.049 190.918 310.658 191.915C308.266 192.912 302.685 200.086 304.081 200.485C305.476 200.885 309.263 196.299 309.263 196.299C309.263 196.299 306.273 200.684 305.874 202.278C305.476 203.873 305.077 207.46 306.671 206.862C308.266 206.264 311.455 201.88 311.455 201.88C311.455 201.88 315.441 199.488 318.63 199.488C321.819 199.488 324.011 193.51 324.011 193.51C324.011 193.51 326.603 190.918 325.606 188.129C324.609 185.339 319.427 189.523 319.427 189.523Z" fill="white" stroke="#263238" stroke-miterlimit="10" stroke-linecap="round" stroke-linejoin="round"/>
<path d="M324.809 187.929C324.809 187.929 322.217 188.129 320.623 186.135C319.028 184.142 318.031 186.135 318.031 188.127C318.031 190.12 320.025 190.719 320.025 190.719C320.025 190.719 316.636 193.908 318.63 194.903C320.624 195.899 322.617 194.306 322.617 194.306" fill="white"/>
<path d="M324.809 187.929C324.809 187.929 322.217 188.129 320.623 186.135C319.028 184.142 318.031 186.135 318.031 188.127C318.031 190.12 320.025 190.719 320.025 190.719C320.025 190.719 316.636 193.908 318.63 194.903C320.624 195.899 322.617 194.306 322.617 194.306" stroke="#263238" stroke-miterlimit="10" stroke-linecap="round" stroke-linejoin="round"/>
<path d="M394.875 239.856C394.875 239.856 384.998 237.974 381.47 237.268C377.943 236.562 366.419 241.266 363.126 242.442C359.833 243.618 363.126 244.558 366.654 245.264C370.181 245.97 377.237 244.558 377.237 244.558C377.237 244.558 369.476 247.85 371.357 248.322C373.239 248.792 377.002 247.851 380.294 247.616C383.586 247.38 386.88 244.324 386.88 244.324C386.88 244.324 402.637 252.085 404.518 252.085C406.4 252.085 409.222 246.441 405.224 244.089C401.225 241.736 394.875 239.856 394.875 239.856Z" fill="white" stroke="#263238" stroke-miterlimit="10" stroke-linecap="round" stroke-linejoin="round"/>
<path d="M398.403 248.557C398.403 248.557 388.996 255.378 382.175 265.02C375.355 274.663 374.179 294.183 375.59 299.827C377.001 305.471 377.942 312.056 384.761 316.526C391.582 320.994 396.52 322.875 408.28 316.526C420.039 310.176 426.154 289.01 424.978 272.781C423.802 256.553 413.925 245.265 408.75 243.854C403.578 242.442 398.403 248.557 398.403 248.557Z" fill="white" stroke="#263238" stroke-miterlimit="10" stroke-linecap="round" stroke-linejoin="round"/>
<path d="M399.109 251.615C399.109 251.615 394.876 252.085 392.759 254.907C390.643 257.729 391.348 258.67 392.759 259.375C394.171 260.081 394.405 261.962 394.405 261.962C394.405 261.962 389.466 269.958 392.054 271.605C394.641 273.251 406.165 267.842 409.222 263.844C412.28 259.846 410.868 253.261 408.986 251.379C407.106 249.498 399.109 251.615 399.109 251.615Z" fill="white" stroke="#263238" stroke-miterlimit="10" stroke-linecap="round" stroke-linejoin="round"/>
<path d="M396.287 221.04C396.287 221.04 393.465 224.332 391.584 225.273C389.702 226.214 387.35 227.155 389.232 228.565C391.114 229.977 392.29 231.153 392.29 231.153C392.29 231.153 389.938 238.914 390.878 243.382C391.818 247.85 396.052 246.674 396.052 246.674C396.052 246.674 395.346 258.433 394.406 261.961C393.465 265.489 397.933 265.253 401.461 263.137C404.989 261.021 405.459 252.318 406.871 245.968C408.282 239.619 416.748 232.092 410.868 225.036C404.989 217.984 396.287 221.04 396.287 221.04Z" fill="white" stroke="#263238" stroke-miterlimit="10" stroke-linecap="round" stroke-linejoin="round"/>
<path d="M434.622 213.044C425.92 204.107 412.749 206.225 410.868 206.695C410.868 206.695 403.525 204.913 399.291 205.619C395.058 206.325 393.463 218.454 396.051 225.275C397.134 228.13 399.082 229.904 400.981 231.013C400.555 230.639 398.042 228.269 400.461 226.389C403.094 224.341 405.434 224.049 405.434 224.049C405.434 224.049 403.386 230.777 404.269 231.954C407.851 236.725 391.744 259.192 391.11 258.834C391.11 258.834 395.815 261.494 401.695 264.316C414.692 270.553 430.02 257.22 434.86 245.975C438.685 237.088 442.38 221.013 434.622 213.044Z" fill="#263238" stroke="#263238" stroke-miterlimit="10" stroke-linecap="round" stroke-linejoin="round"/>
<path d="M307.996 246.565L296.118 296.233L320.413 307.301L329.591 260.601L307.996 246.565Z" fill="white" stroke="#263238" stroke-miterlimit="10" stroke-linecap="round" stroke-linejoin="round"/>
<path d="M308.816 251.693L298.945 292.974L319.137 302.171L326.764 263.36L308.816 251.693Z" fill="#263238" stroke="#263238" stroke-miterlimit="10" stroke-linecap="round" stroke-linejoin="round"/>
<path d="M329.591 260.601L362.794 262.221L356.315 309.999L320.413 307.301L329.591 260.601Z" fill="white" stroke="#263238" stroke-miterlimit="10" stroke-linecap="round" stroke-linejoin="round"/>
<path d="M339.367 281.822L341.776 281.932L342.019 280.378L339.645 280.212L339.367 281.822Z" fill="#263238"/>
<path d="M344.96 292.664L345.347 290.313L341.989 290.159L341.635 292.432L344.96 292.664Z" fill="#263238"/>
<path d="M339.034 275.07L339.321 273.409L336.314 273.199L336.006 274.931L339.034 275.07Z" fill="#263238"/>
<path d="M340.522 275.138L342.82 275.244L343.065 273.67L340.805 273.513L340.522 275.138Z" fill="#263238"/>
<path d="M338.74 285.448L341.2 285.62L341.547 283.401L339.114 283.289L338.74 285.448Z" fill="#263238"/>
<path d="M347.162 279.256L347.542 276.941L344.076 276.782L343.729 279.015L347.162 279.256Z" fill="#263238"/>
<path d="M337.193 268.249L340.19 268.387L340.633 265.822L337.652 265.668L337.193 268.249Z" fill="#263238"/>
<path d="M343.864 268.555L344.262 266.009L342.121 265.898L341.68 268.455L343.864 268.555Z" fill="#263238"/>
<path d="M336.932 269.716L336.574 271.734L339.575 271.944L339.937 269.854L336.932 269.716Z" fill="#263238"/>
<path d="M342.591 276.713L340.269 276.605L339.899 278.747L342.247 278.912L342.591 276.713Z" fill="#263238"/>
<path d="M343.635 270.025L341.426 269.922L341.058 272.047L343.295 272.204L343.635 270.025Z" fill="#263238"/>
<path d="M346.061 285.961L346.444 283.627L343.033 283.469L342.682 285.724L346.061 285.961Z" fill="#263238"/>
<path d="M332.449 286.49L329.986 286.318L329.672 288.11L332.141 288.224L332.449 286.49Z" fill="#263238"/>
<path d="M331.88 289.691L329.414 289.578L329.067 291.552L331.518 291.723L331.88 289.691Z" fill="#263238"/>
<path d="M331.258 293.188L328.811 293.016L328.501 294.793L330.953 294.906L331.258 293.188Z" fill="#263238"/>
<path d="M330.692 296.373L328.244 296.259L327.895 298.252L330.329 298.422L330.692 296.373Z" fill="#263238"/>
<path d="M333.068 283.009L330.585 282.894L330.242 284.853L332.709 285.026L333.068 283.009Z" fill="#263238"/>
<path d="M334.255 276.328L331.755 276.214L331.415 278.153L333.9 278.327L334.255 276.328Z" fill="#263238"/>
<path d="M335.443 269.646L332.926 269.53L332.589 271.455L335.09 271.63L335.443 269.646Z" fill="#263238"/>
<path d="M333.64 279.791L331.16 279.618L330.843 281.427L333.329 281.542L333.64 279.791Z" fill="#263238"/>
<path d="M334.83 273.094L332.332 272.919L332.012 274.747L334.516 274.861L334.83 273.094Z" fill="#263238"/>
<path d="M348.641 270.255L345.121 270.093L344.775 272.307L348.263 272.552L348.641 270.255Z" fill="#263238"/>
<path d="M330.068 299.886L327.638 299.716L327.16 302.442L329.57 302.686L330.068 299.886Z" fill="#263238"/>
<path d="M343.263 282L346.686 282.159L346.922 280.721L343.5 280.482L343.263 282Z" fill="#263238"/>
<path d="M341.175 295.377L344.489 295.529L344.719 294.129L341.405 293.897L341.175 295.377Z" fill="#263238"/>
<path d="M342.218 288.689L345.587 288.845L345.82 287.427L342.452 287.19L342.218 288.689Z" fill="#263238"/>
<path d="M340.972 287.087L338.487 286.913L338.211 288.505L340.733 288.621L340.972 287.087Z" fill="#263238"/>
<path d="M344.247 296.997L340.945 296.845L340.587 299.139L343.858 299.369L344.247 296.997Z" fill="#263238"/>
<path d="M340.358 300.606L339.87 303.734L343.087 304.061L343.618 300.834L340.358 300.606Z" fill="#263238"/>
<path d="M335.383 278.431L338.416 278.644L338.78 276.537L335.745 276.396L335.383 278.431Z" fill="#263238"/>
<path d="M335.704 268.179L336.164 265.59L333.639 265.46L333.183 268.063L335.704 268.179Z" fill="#263238"/>
<path d="M344.306 275.313L347.784 275.473L348.023 274.018L344.546 273.774L344.306 275.313Z" fill="#263238"/>
<path d="M345.351 268.624L348.882 268.787L349.296 266.269L345.747 266.086L345.351 268.624Z" fill="#263238"/>
<path d="M340.503 290.089L337.957 289.972L337.581 292.147L340.153 292.327L340.503 290.089Z" fill="#263238"/>
<path d="M336.468 289.903L333.369 289.759L333.002 291.828L336.097 292.044L336.468 289.903Z" fill="#263238"/>
<path d="M337.327 293.613L337.056 295.187L339.688 295.308L339.925 293.794L337.327 293.613Z" fill="#263238"/>
<path d="M339.459 296.777L336.802 296.654L336.422 298.848L339.107 299.036L339.459 296.777Z" fill="#263238"/>
<path d="M331.811 298.525L334.938 298.744L335.311 296.585L332.182 296.441L331.811 298.525Z" fill="#263238"/>
<path d="M335.845 293.508L332.741 293.292L332.442 294.974L335.566 295.118L335.845 293.508Z" fill="#263238"/>
<path d="M333.63 288.293L336.722 288.435L337.003 286.808L333.933 286.593L333.63 288.293Z" fill="#263238"/>
<path d="M331.551 299.989L331.045 302.837L334.176 303.155L334.686 300.21L331.551 299.989Z" fill="#263238"/>
<path d="M338.878 300.502L336.168 300.313L335.65 303.305L338.396 303.584L338.878 300.502Z" fill="#263238"/>
<path d="M338.162 280.108L335.122 279.896L334.818 281.611L337.879 281.752L338.162 280.108Z" fill="#263238"/>
<path d="M337.625 283.219L334.557 283.078L334.192 285.129L337.256 285.344L337.625 283.219Z" fill="#263238"/>
<path d="M399.579 291.126C399.579 291.126 396.521 291.361 391.347 295.595C386.174 299.828 365.712 335.576 365.712 335.576C365.712 335.576 347.132 324.052 342.428 320.759C337.724 317.467 333.961 311.588 331.375 308.059C328.787 304.531 328.317 304.061 324.789 303.825C321.261 303.589 318.674 301.238 318.204 302.885C317.734 304.532 319.144 305.237 320.086 305.707C321.026 306.177 322.673 306.177 322.673 306.177C322.673 306.177 319.851 306.883 316.323 304.765C312.796 302.649 311.855 302.178 311.855 304.53C311.855 306.881 314.443 310.645 316.323 312.997C318.205 315.348 329.024 316.289 329.024 316.289C329.024 316.289 335.139 328.283 342.195 338.161C349.25 348.038 364.303 358.621 368.535 357.211C372.767 355.801 395.111 327.813 401.226 320.052C407.341 312.291 415.337 303.119 413.455 297.945" fill="white"/>
<path d="M399.579 291.126C399.579 291.126 396.521 291.361 391.347 295.595C386.174 299.828 365.712 335.576 365.712 335.576C365.712 335.576 347.132 324.052 342.428 320.759C337.724 317.467 333.961 311.588 331.375 308.059C328.787 304.531 328.317 304.061 324.789 303.825C321.261 303.589 318.674 301.238 318.204 302.885C317.734 304.532 319.144 305.237 320.086 305.707C321.026 306.177 322.673 306.177 322.673 306.177C322.673 306.177 319.851 306.883 316.323 304.765C312.796 302.649 311.855 302.178 311.855 304.53C311.855 306.881 314.443 310.645 316.323 312.997C318.205 315.348 329.024 316.289 329.024 316.289C329.024 316.289 335.139 328.283 342.195 338.161C349.25 348.038 364.303 358.621 368.535 357.211C372.767 355.801 395.111 327.813 401.226 320.052C407.341 312.291 415.337 303.119 413.455 297.945" stroke="#263238" stroke-miterlimit="10" stroke-linecap="round" stroke-linejoin="round"/>
<path d="M336.096 314.48C334.249 312.163 332.666 309.818 331.376 308.059C328.788 304.531 328.318 304.061 324.79 303.825C321.262 303.589 318.675 301.237 318.205 302.885C317.735 304.532 319.145 305.237 320.087 305.707C321.027 306.177 322.674 306.177 322.674 306.177C322.674 306.177 319.852 306.883 316.324 304.765C312.797 302.649 311.856 302.178 311.856 304.529C311.856 306.881 314.444 310.645 316.324 312.997C318.206 315.348 329.025 316.289 329.025 316.289C329.025 316.289 329.498 317.213 330.312 318.727C331.458 317.218 333.266 315.686 336.096 314.48Z" fill="white" stroke="#263238" stroke-miterlimit="10" stroke-linecap="round" stroke-linejoin="round"/>
</g>
<defs>
<clipPath id="clip0_332_4349">
<rect width="480" height="480" rx="24" fill="white"/>
</clipPath>
</defs>
</svg>
