<svg width="480" height="480" viewBox="0 0 480 480" fill="none" xmlns="http://www.w3.org/2000/svg">
<g clip-path="url(#clip0_332_1503)">
<g clip-path="url(#clip1_332_1503)">
<rect width="480" height="480" rx="24" fill="#E6F3FF"/>
<path d="M441.069 388H67.4935C66.6688 388 66 387.776 66 387.5C66 387.224 66.6688 387 67.4935 387H441.069C441.894 387 442.563 387.224 442.563 387.5C442.563 387.776 441.894 388 441.069 388Z" fill="#263238"/>
<path d="M104.216 127.891H81.3218C81.1633 127.891 81.0327 127.76 81.0327 127.602C81.0327 127.434 81.1633 127.303 81.3218 127.303H104.216C104.384 127.303 104.514 127.434 104.514 127.602C104.514 127.76 104.384 127.891 104.216 127.891Z" fill="#C6E2FA"/>
<path d="M104.216 139.24H81.3218C81.1633 139.24 81.0327 139.11 81.0327 138.951C81.0327 138.783 81.1633 138.653 81.3218 138.653H104.216C104.384 138.653 104.514 138.783 104.514 138.951C104.514 139.11 104.384 139.24 104.216 139.24Z" fill="#C6E2FA"/>
<path d="M100.057 133.57H67.6783C67.5104 133.57 67.3799 133.44 67.3799 133.272C67.3799 133.113 67.5104 132.983 67.6783 132.983H100.057C100.225 132.983 100.355 133.113 100.355 133.272C100.355 133.44 100.225 133.57 100.057 133.57Z" fill="#C6E2FA"/>
<path d="M86.0308 127.891C85.8723 127.891 85.7417 127.76 85.7417 127.602V122.771C85.7417 122.613 85.8723 122.482 86.0308 122.482C86.1986 122.482 86.3292 122.613 86.3292 122.771V127.602C86.3292 127.76 86.1986 127.891 86.0308 127.891Z" fill="#C6E2FA"/>
<path d="M94.0885 133.57C93.9206 133.57 93.79 133.44 93.79 133.272V127.602C93.79 127.434 93.9206 127.303 94.0885 127.303C94.247 127.303 94.3775 127.434 94.3775 127.602V133.272C94.3775 133.44 94.247 133.57 94.0885 133.57Z" fill="#C6E2FA"/>
<path d="M87.9615 139.054C87.803 139.054 87.6631 138.923 87.6631 138.755V133.272C87.6631 133.113 87.803 132.983 87.9615 132.983C88.12 132.983 88.2506 133.113 88.2506 133.272V138.755C88.2506 138.923 88.12 139.054 87.9615 139.054Z" fill="#C6E2FA"/>
<path d="M139.858 333.892C136.165 333.892 132.509 333.622 129.04 333.361L129.161 331.794C137.284 332.41 146.497 333.1 154.62 330.05C162.108 327.243 169.298 319.923 168.543 311.343C168.123 306.559 165.242 301.99 164.123 297.122C162.752 291.153 164.067 284.626 167.657 279.655C171.238 274.684 177.02 271.374 183.119 270.805L183.268 272.362C177.608 272.894 172.245 275.962 168.925 280.569C165.596 285.176 164.375 291.237 165.643 296.767C166.771 301.663 169.644 306.028 170.1 311.203C170.921 320.557 163.209 328.502 155.17 331.514C150.256 333.361 145.015 333.892 139.858 333.892Z" fill="#263238"/>
<path d="M277.516 119.852V266.469C277.516 266.955 277.464 267.434 277.367 267.907C276.671 271.262 273.557 273.811 269.791 273.811H103.162C98.8747 273.811 95.4551 270.508 95.4551 266.469V119.852C95.4551 115.812 98.8666 112.5 103.162 112.5H269.791C273.992 112.5 277.516 115.746 277.516 119.852Z" fill="white" stroke="#263238"/>
<path d="M269.306 265.456H209.212C207.584 265.456 206.271 264.14 206.271 262.524V123.797C206.271 122.181 207.584 120.865 209.212 120.865H269.306C270.922 120.865 272.237 122.18 272.237 123.797V262.524C272.237 264.141 270.922 265.456 269.306 265.456Z" fill="white" stroke="#263238"/>
<path d="M246.318 224.503C246.943 224.503 247.465 225.016 247.465 225.65C247.465 226.285 246.943 226.788 246.318 226.788H241.917C241.292 226.788 240.77 226.285 240.77 225.65C240.77 225.016 241.292 224.503 241.917 224.503H246.318Z" fill="#52D180"/>
<path d="M267.72 216.362C267.72 216.996 267.207 217.509 266.573 217.509H250.617C249.983 217.509 249.47 216.996 249.47 216.362C249.47 215.728 249.983 215.225 250.617 215.225H266.573C267.207 215.225 267.72 215.728 267.72 216.362Z" fill="#B4DBFF"/>
<path d="M267.72 197.804C267.72 198.438 267.208 198.942 266.573 198.942H245.395C244.761 198.942 244.257 198.438 244.257 197.804C244.257 197.17 244.761 196.657 245.395 196.657H266.573C267.208 196.657 267.72 197.17 267.72 197.804Z" fill="#B4DBFF"/>
<path d="M232.106 197.804C232.106 197.17 232.619 196.657 233.253 196.657H238.429C239.054 196.657 239.576 197.17 239.576 197.804C239.576 198.438 239.054 198.942 238.429 198.942H233.253C232.619 198.942 232.106 198.438 232.106 197.804Z" fill="#0487FF"/>
<path d="M237.357 245.356H233.253C232.619 245.356 232.106 244.843 232.106 244.208C232.106 243.574 232.619 243.071 233.253 243.071H237.357C237.991 243.071 238.504 243.574 238.504 244.208C238.504 244.843 237.991 245.356 237.357 245.356Z" fill="#52D180"/>
<path d="M232.106 207.083C232.106 206.449 232.619 205.936 233.253 205.936H255.42C256.045 205.936 256.558 206.449 256.558 207.083C256.558 207.717 256.045 208.23 255.42 208.23H233.253C232.619 208.23 232.106 207.717 232.106 207.083Z" fill="#B4DBFF"/>
<path d="M220.198 132.824C220.198 133.458 219.694 133.962 219.06 133.962H211.935C211.301 133.962 210.797 133.458 210.797 132.824C210.797 132.19 211.301 131.677 211.935 131.677H219.06C219.694 131.677 220.198 132.19 220.198 132.824Z" fill="#B4DBFF"/>
<path d="M232.106 179.237C232.106 178.603 232.619 178.09 233.253 178.09H243.241C243.875 178.09 244.388 178.603 244.388 179.237C244.388 179.862 243.875 180.384 243.241 180.384H233.253C232.619 180.384 232.106 179.862 232.106 179.237Z" fill="#52D180"/>
<path d="M267.72 188.516C267.72 189.15 267.207 189.663 266.573 189.663H261.174C260.54 189.663 260.036 189.15 260.036 188.516C260.036 187.882 260.54 187.378 261.174 187.378H266.573C267.207 187.378 267.72 187.882 267.72 188.516Z" fill="#0487FF"/>
<path d="M220.198 244.208C220.198 244.843 219.694 245.356 219.06 245.356H211.935C211.301 245.356 210.797 244.843 210.797 244.208C210.797 243.574 211.301 243.071 211.935 243.071H219.06C219.694 243.071 220.198 243.574 220.198 244.208Z" fill="#B4DBFF"/>
<path d="M220.198 225.65C220.198 226.285 219.694 226.788 219.06 226.788H211.935C211.301 226.788 210.797 226.285 210.797 225.65C210.797 225.016 211.301 224.503 211.935 224.503H219.06C219.694 224.503 220.198 225.016 220.198 225.65Z" fill="#B4DBFF"/>
<path d="M232.106 188.516C232.106 187.882 232.619 187.378 233.253 187.378H246.179C246.813 187.378 247.335 187.882 247.335 188.516C247.335 189.15 246.813 189.663 246.179 189.663H233.253C232.619 189.663 232.106 189.15 232.106 188.516Z" fill="#B4DBFF"/>
<path d="M232.106 160.67C232.106 160.045 232.619 159.523 233.253 159.523H253.266C253.9 159.523 254.413 160.045 254.413 160.67C254.413 161.304 253.9 161.817 253.266 161.817H233.253C232.619 161.817 232.106 161.304 232.106 160.67Z" fill="#B4DBFF"/>
<path d="M220.198 216.362C220.198 216.996 219.694 217.509 219.06 217.509H211.935C211.301 217.509 210.797 216.996 210.797 216.362C210.797 215.728 211.301 215.225 211.935 215.225H219.06C219.694 215.225 220.198 215.728 220.198 216.362Z" fill="#B4DBFF"/>
<path d="M220.198 188.516C220.198 189.15 219.694 189.663 219.06 189.663H211.935C211.301 189.663 210.797 189.15 210.797 188.516C210.797 187.882 211.301 187.378 211.935 187.378H219.06C219.694 187.378 220.198 187.882 220.198 188.516Z" fill="#B4DBFF"/>
<path d="M220.198 234.929C220.198 235.564 219.694 236.067 219.06 236.067H211.935C211.301 236.067 210.797 235.564 210.797 234.929C210.797 234.295 211.301 233.782 211.935 233.782H219.06C219.694 233.782 220.198 234.295 220.198 234.929Z" fill="#B4DBFF"/>
<path d="M220.198 179.237C220.198 179.862 219.694 180.384 219.06 180.384H211.935C211.301 180.384 210.797 179.862 210.797 179.237C210.797 178.603 211.301 178.09 211.935 178.09H219.06C219.694 178.09 220.198 178.603 220.198 179.237Z" fill="#B4DBFF"/>
<path d="M220.198 151.382C220.198 152.016 219.694 152.529 219.06 152.529H211.935C211.301 152.529 210.797 152.016 210.797 151.382C210.797 150.757 211.301 150.244 211.935 150.244H219.06C219.694 150.244 220.198 150.757 220.198 151.382Z" fill="#B4DBFF"/>
<path d="M220.198 169.949C220.198 170.583 219.694 171.096 219.06 171.096H211.935C211.301 171.096 210.797 170.583 210.797 169.949C210.797 169.324 211.301 168.802 211.935 168.802H219.06C219.694 168.802 220.198 169.324 220.198 169.949Z" fill="#B4DBFF"/>
<path d="M220.198 142.103C220.198 142.737 219.694 143.25 219.06 143.25H211.935C211.301 143.25 210.797 142.737 210.797 142.103C210.797 141.469 211.301 140.956 211.935 140.956H219.06C219.694 140.956 220.198 141.469 220.198 142.103Z" fill="#B4DBFF"/>
<path d="M220.198 197.804C220.198 198.438 219.694 198.942 219.06 198.942H211.935C211.301 198.942 210.797 198.438 210.797 197.804C210.797 197.17 211.301 196.657 211.935 196.657H219.06C219.694 196.657 220.198 197.17 220.198 197.804Z" fill="#B4DBFF"/>
<path d="M232.106 225.65C232.106 225.016 232.619 224.503 233.253 224.503H235.753C236.387 224.503 236.9 225.016 236.9 225.65C236.9 226.285 236.387 226.788 235.753 226.788H233.253C232.619 226.788 232.106 226.285 232.106 225.65Z" fill="#0487FF"/>
<path d="M220.198 253.487C220.198 254.121 219.694 254.634 219.06 254.634H211.935C211.301 254.634 210.797 254.121 210.797 253.487C210.797 252.862 211.301 252.35 211.935 252.35H219.06C219.694 252.35 220.198 252.862 220.198 253.487Z" fill="#B4DBFF"/>
<path d="M232.106 234.929C232.106 234.295 232.619 233.782 233.253 233.782H240.835C241.469 233.782 241.982 234.295 241.982 234.929C241.982 235.564 241.469 236.067 240.835 236.067H233.253C232.619 236.067 232.106 235.564 232.106 234.929Z" fill="#B4DBFF"/>
<path d="M232.106 151.382C232.106 150.757 232.619 150.244 233.253 150.244H242.038C242.672 150.244 243.185 150.757 243.185 151.382C243.185 152.016 242.672 152.529 242.038 152.529H233.253C232.619 152.529 232.106 152.016 232.106 151.382Z" fill="#52D180"/>
<path d="M220.198 207.083C220.198 207.717 219.694 208.23 219.06 208.23H211.935C211.301 208.23 210.797 207.717 210.797 207.083C210.797 206.449 211.301 205.936 211.935 205.936H219.06C219.694 205.936 220.198 206.449 220.198 207.083Z" fill="#B4DBFF"/>
<path d="M232.106 216.362C232.106 215.728 232.619 215.225 233.253 215.225H244.314C244.938 215.225 245.461 215.728 245.461 216.362C245.461 216.996 244.938 217.509 244.314 217.509H233.253C232.619 217.509 232.106 216.996 232.106 216.362Z" fill="#B4DBFF"/>
<path d="M247.857 253.487C247.857 254.121 247.353 254.634 246.719 254.634H238.718C238.084 254.634 237.562 254.121 237.562 253.487C237.562 252.862 238.084 252.35 238.718 252.35H246.719C247.353 252.35 247.857 252.862 247.857 253.487Z" fill="#B4DBFF"/>
<path d="M254.152 244.208C254.152 244.843 253.639 245.356 253.005 245.356H244.062C243.427 245.356 242.915 244.843 242.915 244.208C242.915 243.574 243.427 243.071 244.062 243.071H253.005C253.639 243.071 254.152 243.574 254.152 244.208Z" fill="#BDD6FF"/>
<path d="M220.198 160.67C220.198 161.304 219.694 161.817 219.06 161.817H211.935C211.301 161.817 210.797 161.304 210.797 160.67C210.797 160.045 211.301 159.523 211.935 159.523H219.06C219.694 159.523 220.198 160.045 220.198 160.67Z" fill="#B4DBFF"/>
<path d="M261.911 253.487C261.911 254.121 261.398 254.634 260.763 254.634H255.429C254.795 254.634 254.282 254.121 254.282 253.487C254.282 252.862 254.795 252.35 255.429 252.35H260.763C261.398 252.35 261.911 252.862 261.911 253.487Z" fill="#BDD6FF"/>
<path d="M259.039 161.817C258.404 161.817 257.901 161.304 257.901 160.67C257.901 160.045 258.404 159.523 259.039 159.523H263.03C263.664 159.523 264.177 160.045 264.177 160.67C264.177 161.304 263.664 161.817 263.03 161.817H259.039Z" fill="#0487FF"/>
<path d="M267.721 244.208C267.721 244.843 267.208 245.356 266.574 245.356H260.381C259.747 245.356 259.234 244.843 259.234 244.208C259.234 243.574 259.747 243.071 260.381 243.071H266.574C267.208 243.071 267.721 243.574 267.721 244.208Z" fill="#BDD6FF"/>
<path d="M267.721 234.929C267.721 235.564 267.208 236.067 266.573 236.067H247.27C246.635 236.067 246.132 235.564 246.132 234.929C246.132 234.295 246.635 233.782 247.27 233.782H266.573C267.208 233.782 267.721 234.295 267.721 234.929Z" fill="#BDD6FF"/>
<path d="M232.106 132.824C232.106 132.19 232.619 131.677 233.253 131.677H248.324C248.958 131.677 249.471 132.19 249.471 132.824C249.471 133.458 248.958 133.962 248.324 133.962H233.253C232.619 133.962 232.106 133.458 232.106 132.824Z" fill="#B4DBFF"/>
<path d="M267.721 225.65C267.721 226.285 267.208 226.788 266.573 226.788H256.632C255.998 226.788 255.485 226.285 255.485 225.65C255.485 225.016 255.998 224.503 256.632 224.503H266.573C267.208 224.503 267.721 225.016 267.721 225.65Z" fill="#BDD6FF"/>
<path d="M255.896 132.824C255.896 132.19 256.4 131.677 257.034 131.677H266.574C267.208 131.677 267.721 132.19 267.721 132.824C267.721 133.458 267.208 133.962 266.574 133.962H257.034C256.4 133.962 255.896 133.458 255.896 132.824Z" fill="#0487FF"/>
<path d="M267.721 142.103C267.721 142.737 267.208 143.25 266.574 143.25H238.578C237.953 143.25 237.431 142.737 237.431 142.103C237.431 141.469 237.953 140.956 238.578 140.956H266.574C267.208 140.956 267.721 141.469 267.721 142.103Z" fill="#B4DBFF"/>
<path d="M267.721 179.237C267.721 179.862 267.208 180.384 266.574 180.384H252.623C251.988 180.384 251.476 179.862 251.476 179.237C251.476 178.603 251.988 178.09 252.623 178.09H266.574C267.208 178.09 267.721 178.603 267.721 179.237Z" fill="#B4DBFF"/>
<path d="M267.72 151.382C267.72 152.016 267.208 152.529 266.573 152.529H252.492C251.858 152.529 251.345 152.016 251.345 151.382C251.345 150.757 251.858 150.244 252.492 150.244H266.573C267.208 150.244 267.72 150.757 267.72 151.382Z" fill="#B4DBFF"/>
<path d="M267.72 169.949C267.72 170.583 267.208 171.096 266.573 171.096H244.462C243.838 171.096 243.315 170.583 243.315 169.949C243.315 169.324 243.838 168.802 244.462 168.802H266.573C267.208 168.802 267.72 169.324 267.72 169.949Z" fill="#B4DBFF"/>
<path d="M107.265 120.99C107.265 122.333 106.127 123.405 104.747 123.405C103.348 123.405 102.22 122.333 102.22 120.99C102.22 119.665 103.348 118.584 104.747 118.584C106.127 118.584 107.265 119.665 107.265 120.99Z" fill="#263238"/>
<path d="M121.44 120.99C121.44 122.333 120.302 123.405 118.912 123.405C117.523 123.405 116.395 122.333 116.395 120.99C116.395 119.665 117.523 118.584 118.912 118.584C120.302 118.584 121.44 119.665 121.44 120.99Z" fill="#263238"/>
<path d="M114.352 120.99C114.352 122.333 113.215 123.405 111.825 123.405C110.436 123.405 109.307 122.333 109.307 120.99C109.307 119.665 110.436 118.584 111.825 118.584C113.215 118.584 114.352 119.665 114.352 120.99Z" fill="#263238"/>
<path d="M411.372 311.772C411.372 312.248 432.671 386.899 432.671 386.899L411.372 311.772Z" fill="white"/>
<path d="M432.102 387.057C422.376 352.972 410.784 312.229 410.784 311.772H411.959H411.372L411.95 311.679C412.192 312.873 425.975 361.3 433.231 386.74L432.102 387.057Z" fill="#263238"/>
<path d="M386.015 311.772C386.015 312.248 364.725 386.899 364.725 386.899L386.015 311.772Z" fill="white"/>
<path d="M365.285 387.057L364.156 386.74C371.412 361.3 385.204 312.873 385.437 311.679L385.903 311.772H386.603C386.603 312.229 375.011 352.973 365.285 387.057Z" fill="#263238"/>
<path d="M383.662 372.94L383.663 372.94L383.663 372.94L383.794 372.617L383.536 372.382L382.012 370.993L391.612 360.425C393.481 361.99 396.021 364.109 398.154 365.872C399.292 366.812 400.315 367.652 401.06 368.252C401.375 368.506 401.642 368.719 401.848 368.879L385.853 386.5C383.048 384.22 382.442 380.968 382.58 378.168C382.651 376.713 382.923 375.402 383.178 374.453C383.305 373.979 383.428 373.597 383.518 373.335C383.563 373.205 383.6 373.104 383.625 373.037C383.638 373.003 383.647 372.978 383.654 372.962L383.661 372.944L383.662 372.941L383.662 372.94Z" fill="white" stroke="#263238"/>
<path d="M383.516 384.54C384.094 385.5 384.859 386.405 385.913 387.179L402.596 368.798C402.568 368.826 401.421 367.903 399.808 366.588L383.516 384.54Z" fill="#263238"/>
<path d="M439.134 244.563C439.964 240.488 441.344 230.183 427.495 232.645C419.158 234.118 405.571 250.335 405.571 250.335H401.132L376.83 296.572V314.346" fill="white"/>
<path d="M377.221 314.355H376.447V296.478L376.485 296.385L400.89 249.944H405.384C406.83 248.237 419.364 233.689 427.43 232.253C431.468 231.535 434.592 231.843 436.709 233.167L436.289 233.829C434.35 232.617 431.412 232.347 427.57 233.027C419.457 234.463 406 250.419 405.869 250.578L405.748 250.718H401.365L377.221 296.665V314.355Z" fill="#263238"/>
<path d="M381.269 370.132C381.49 369.836 381.548 369.759 381.563 369.738C381.563 369.738 381.563 369.738 381.563 369.738L381.269 370.132ZM381.862 369.598C381.711 369.667 381.606 369.7 381.543 369.712L381.52 369.695L381.376 369.587C381.249 369.49 381.06 369.347 380.813 369.159C380.32 368.783 379.597 368.227 378.679 367.51C376.841 366.075 374.221 363.995 371.093 361.414C364.836 356.251 356.55 349.087 348.429 341.081C340.305 333.071 332.362 324.234 326.777 315.722C321.175 307.185 318.024 299.09 319.288 292.526C319.806 289.835 322.483 287.491 326.474 285.496C330.428 283.519 335.512 281.964 340.554 280.769C345.59 279.575 350.559 278.747 354.272 278.217C356.127 277.953 357.667 277.763 358.743 277.639C359.281 277.577 359.703 277.532 359.989 277.502C360.133 277.487 360.242 277.476 360.316 277.469L360.394 277.461L378 278.152L380.209 291.068L356.259 302.349L355.747 302.59L356.05 303.069L392.031 359.859C392.014 359.93 391.969 360.047 391.876 360.215C391.683 360.568 391.345 361.038 390.887 361.593C389.975 362.698 388.651 364.066 387.259 365.37C385.867 366.674 384.423 367.9 383.274 368.725C382.696 369.14 382.214 369.439 381.862 369.598ZM392.038 359.815C392.038 359.815 392.038 359.816 392.038 359.82C392.038 359.816 392.038 359.815 392.038 359.815Z" fill="white" stroke="#263238"/>
<path d="M310.706 375.935L310.706 375.935L310.707 375.935L311.034 375.815V375.466V373.411H325.311C325.413 375.849 325.552 379.156 325.681 381.921C325.75 383.396 325.816 384.719 325.872 385.674C325.895 386.078 325.917 386.419 325.937 386.679H302.137C301.936 383.066 303.937 380.43 306.104 378.649C307.229 377.723 308.384 377.043 309.259 376.593C309.696 376.369 310.061 376.203 310.316 376.094C310.443 376.039 310.543 375.999 310.609 375.973C310.643 375.96 310.668 375.95 310.684 375.944L310.702 375.937L310.706 375.935L310.706 375.935Z" fill="white" stroke="#263238"/>
<path d="M302.011 383.635C301.694 384.707 301.535 385.873 301.675 387.179H326.5C326.453 387.179 326.369 385.705 326.267 383.635H302.011Z" fill="#263238"/>
<path d="M392.052 282.903L392.052 282.903L414.906 285.791C414.884 285.897 414.858 286.019 414.829 286.155C414.706 286.727 414.52 287.55 414.272 288.557C413.776 290.57 413.028 293.312 412.023 296.227C411.016 299.143 409.756 302.222 408.237 304.914C406.715 307.613 404.955 309.882 402.969 311.228L402.968 311.228C402.008 311.879 400.571 312.391 398.747 312.772C396.932 313.151 394.773 313.391 392.399 313.523C387.65 313.785 382.082 313.611 376.76 313.258C371.441 312.907 366.379 312.379 362.646 311.938C360.78 311.718 359.247 311.52 358.18 311.377C357.647 311.306 357.231 311.248 356.948 311.208C356.806 311.189 356.698 311.173 356.626 311.163L356.544 311.151L356.523 311.148L356.518 311.147L356.517 311.147C356.517 311.147 356.516 311.147 356.444 311.642L356.516 311.147L356.152 311.094L355.993 311.425L325.443 375.138L325.403 375.219C325.346 375.251 325.246 375.292 325.092 375.334C324.718 375.437 324.156 375.514 323.445 375.561C322.032 375.653 320.135 375.619 318.227 375.488C316.32 375.357 314.426 375.129 313.018 374.842C312.311 374.697 311.751 374.542 311.378 374.386C311.216 374.318 311.111 374.259 311.05 374.214L311.058 374.158C311.077 374.025 311.105 373.827 311.142 373.568C311.217 373.05 311.328 372.289 311.474 371.314C311.766 369.364 312.199 366.561 312.759 363.152C313.879 356.335 315.509 347.095 317.55 337.403C319.591 327.709 322.042 317.572 324.8 308.958C327.567 300.317 330.618 293.296 333.827 289.755C336.273 287.061 341.075 285.234 347.045 284.049C352.984 282.87 359.963 282.348 366.64 282.177C373.314 282.007 379.671 282.189 384.36 282.413C386.704 282.525 388.63 282.648 389.97 282.743C390.64 282.79 391.164 282.831 391.519 282.859C391.697 282.873 391.833 282.885 391.924 282.892L392.027 282.901L392.052 282.903ZM310.998 374.169C310.998 374.169 310.999 374.171 311.001 374.173C310.999 374.171 310.998 374.169 310.998 374.169Z" fill="white" stroke="#263238"/>
<path d="M324.597 310.289L324.215 310.178C325.968 304.256 327.768 298.138 330.668 292.552C331.451 291.051 332.356 289.484 333.68 288.253C335.126 286.92 336.888 286.211 338.539 286.341L338.511 286.733C336.982 286.621 335.312 287.274 333.951 288.542C332.664 289.736 331.778 291.256 331.013 292.739C328.132 298.287 326.332 304.386 324.597 310.289Z" fill="white"/>
<path d="M344.097 336.989L343.78 336.765C347.333 331.906 350.038 326.535 351.819 320.79L352.192 320.911C350.401 326.693 347.678 332.102 344.097 336.989Z" fill="white"/>
<path d="M376.83 314.346H417.368C419.708 314.346 421.741 312.77 422.32 310.504L439.134 244.563" fill="white"/>
<path d="M417.368 314.738H376.83V313.964H417.368C419.531 313.964 421.406 312.5 421.937 310.411L438.751 244.47L439.516 244.665L422.693 310.606C422.077 313.04 419.886 314.738 417.368 314.738Z" fill="#263238"/>
<path d="M356.36 226.705C355.8 226.639 344.516 250.13 344.516 250.13L303.876 257.544L303.213 268.52L363.139 270.255L367.7 228.103L356.36 226.705Z" fill="white"/>
<path fill-rule="evenodd" clip-rule="evenodd" d="M363.494 270.656L363.13 270.647L302.794 268.903L303.503 257.218L344.246 249.776C355.567 226.229 356.052 226.266 356.407 226.322L368.129 227.758L363.494 270.656ZM303.633 268.138L362.795 269.854L367.271 228.439L356.5 227.115C355.455 228.532 349.049 241.597 344.871 250.289L344.787 250.475L304.258 257.871L303.633 268.138Z" fill="#263238"/>
<mask id="path-76-inside-1_332_1503" fill="white">
<path fill-rule="evenodd" clip-rule="evenodd" d="M407.809 193.748C407.809 193.748 427.859 205.824 429.752 211.821C432.419 220.232 416.641 279.459 416.641 279.459H353.32C353.32 279.459 355.804 252.444 358.277 232.28L352.154 227.423L361.806 211.019L361.806 211.075C361.844 210.998 361.881 210.933 361.918 210.879C367.159 203.176 387.424 193.16 387.424 193.16L407.809 193.748Z"/>
</mask>
<path fill-rule="evenodd" clip-rule="evenodd" d="M407.809 193.748C407.809 193.748 427.859 205.824 429.752 211.821C432.419 220.232 416.641 279.459 416.641 279.459H353.32C353.32 279.459 355.804 252.444 358.277 232.28L352.154 227.423L361.806 211.019L361.806 211.075C361.844 210.998 361.881 210.933 361.918 210.879C367.159 203.176 387.424 193.16 387.424 193.16L407.809 193.748Z" fill="#E9E9E9"/>
<path d="M429.752 211.821L428.799 212.122L428.799 212.123L429.752 211.821ZM407.809 193.748L408.325 192.891L408.1 192.756L407.838 192.748L407.809 193.748ZM416.641 279.459V280.459H417.409L417.607 279.717L416.641 279.459ZM353.32 279.459L352.324 279.368L352.224 280.459H353.32V279.459ZM358.277 232.28L359.269 232.402L359.338 231.845L358.898 231.496L358.277 232.28ZM352.154 227.423L351.292 226.915L350.851 227.665L351.533 228.206L352.154 227.423ZM361.806 211.019L362.806 211.024L362.826 207.313L360.944 210.512L361.806 211.019ZM361.806 211.075L360.806 211.07L362.703 211.518L361.806 211.075ZM361.918 210.879L362.744 211.443L362.745 211.441L361.918 210.879ZM387.424 193.16L387.452 192.161L387.204 192.154L386.98 192.264L387.424 193.16ZM430.706 211.52C430.415 210.597 429.805 209.638 429.044 208.695C428.273 207.739 427.297 206.739 426.202 205.732C424.014 203.717 421.293 201.618 418.654 199.723C416.011 197.826 413.43 196.119 411.512 194.887C410.552 194.271 409.757 193.773 409.201 193.428C408.923 193.256 408.705 193.122 408.556 193.031C408.481 192.986 408.424 192.951 408.385 192.928C408.366 192.916 408.351 192.907 408.341 192.901C408.336 192.898 408.332 192.895 408.329 192.894C408.328 192.893 408.327 192.892 408.326 192.892C408.326 192.892 408.326 192.892 408.326 192.892C408.325 192.891 408.325 192.891 407.809 193.748C407.293 194.605 407.293 194.605 407.293 194.605C407.293 194.605 407.294 194.605 407.294 194.605C407.294 194.605 407.295 194.606 407.296 194.606C407.299 194.608 407.302 194.61 407.307 194.613C407.316 194.618 407.33 194.627 407.348 194.638C407.386 194.66 407.441 194.694 407.514 194.739C407.659 194.827 407.874 194.959 408.148 195.129C408.696 195.468 409.482 195.96 410.431 196.57C412.331 197.79 414.881 199.477 417.488 201.348C420.098 203.222 422.745 205.267 424.848 207.203C425.899 208.171 426.8 209.098 427.488 209.951C428.185 210.815 428.617 211.546 428.799 212.122L430.706 211.52ZM416.641 279.459C417.607 279.717 417.607 279.716 417.607 279.716C417.607 279.715 417.607 279.715 417.608 279.714C417.608 279.712 417.609 279.709 417.61 279.705C417.612 279.698 417.615 279.687 417.618 279.673C417.626 279.644 417.637 279.602 417.652 279.545C417.682 279.432 417.726 279.265 417.784 279.047C417.899 278.61 418.068 277.969 418.281 277.15C418.708 275.512 419.314 273.163 420.034 270.319C421.473 264.63 423.364 256.956 425.172 249.016C426.979 241.08 428.706 232.865 429.816 226.1C430.37 222.719 430.773 219.682 430.952 217.215C431.128 214.8 431.104 212.775 430.706 211.519L428.799 212.123C429.067 212.97 429.134 214.636 428.957 217.07C428.784 219.452 428.392 222.422 427.842 225.776C426.743 232.482 425.026 240.65 423.222 248.572C421.418 256.491 419.531 264.149 418.095 269.828C417.377 272.668 416.771 275.012 416.346 276.646C416.133 277.463 415.965 278.102 415.85 278.537C415.793 278.754 415.749 278.921 415.719 279.033C415.704 279.089 415.693 279.131 415.686 279.159C415.682 279.173 415.679 279.184 415.677 279.191C415.676 279.195 415.675 279.197 415.675 279.199C415.675 279.2 415.675 279.201 415.674 279.201C415.674 279.201 415.674 279.202 416.641 279.459ZM353.32 280.459H416.641V278.459H353.32V280.459ZM357.284 232.158C356.047 242.251 354.807 254.054 353.876 263.331C353.411 267.97 353.023 271.979 352.751 274.828C352.615 276.253 352.509 277.387 352.436 278.166C352.4 278.555 352.372 278.855 352.353 279.058C352.343 279.16 352.336 279.237 352.331 279.289C352.329 279.315 352.327 279.335 352.326 279.348C352.325 279.354 352.325 279.359 352.325 279.363C352.325 279.364 352.324 279.365 352.324 279.366C352.324 279.367 352.324 279.367 352.324 279.367C352.324 279.367 352.324 279.368 353.32 279.459C354.316 279.551 354.316 279.551 354.316 279.55C354.316 279.55 354.316 279.55 354.316 279.549C354.316 279.549 354.316 279.547 354.316 279.546C354.317 279.543 354.317 279.538 354.318 279.531C354.319 279.518 354.321 279.499 354.323 279.473C354.328 279.421 354.335 279.344 354.344 279.243C354.363 279.041 354.391 278.741 354.427 278.352C354.5 277.574 354.607 276.441 354.742 275.018C355.014 272.171 355.401 268.166 355.866 263.531C356.796 254.259 358.034 242.473 359.269 232.402L357.284 232.158ZM351.533 228.206L357.655 233.063L358.898 231.496L352.776 226.639L351.533 228.206ZM360.944 210.512L351.292 226.915L353.016 227.93L362.668 211.526L360.944 210.512ZM362.806 211.081L362.806 211.024L360.806 211.013L360.806 211.07L362.806 211.081ZM361.092 210.315C361.022 210.418 360.962 210.527 360.909 210.633L362.703 211.518C362.726 211.47 362.741 211.448 362.744 211.443L361.092 210.315ZM387.424 193.16C386.98 192.264 386.98 192.264 386.98 192.264C386.98 192.264 386.98 192.264 386.979 192.265C386.978 192.265 386.977 192.265 386.976 192.266C386.973 192.267 386.969 192.269 386.964 192.272C386.954 192.277 386.939 192.284 386.919 192.294C386.88 192.314 386.822 192.343 386.746 192.381C386.594 192.458 386.371 192.57 386.087 192.716C385.518 193.007 384.701 193.431 383.704 193.964C381.711 195.029 378.998 196.531 376.118 198.276C373.24 200.02 370.182 202.015 367.506 204.067C364.846 206.107 362.494 208.255 361.091 210.316L362.745 211.441C363.963 209.651 366.109 207.659 368.723 205.654C371.32 203.662 374.311 201.709 377.154 199.986C379.996 198.265 382.676 196.781 384.647 195.728C385.632 195.201 386.439 194.782 386.998 194.496C387.278 194.353 387.496 194.242 387.644 194.168C387.718 194.131 387.774 194.103 387.811 194.084C387.83 194.075 387.844 194.068 387.853 194.063C387.858 194.061 387.861 194.059 387.864 194.058C387.865 194.058 387.866 194.057 387.866 194.057C387.866 194.057 387.866 194.057 387.867 194.057C387.867 194.057 387.867 194.057 387.424 193.16ZM407.838 192.748L387.452 192.161L387.395 194.16L407.78 194.747L407.838 192.748Z" fill="#263238" mask="url(#path-76-inside-1_332_1503)"/>
<path d="M387.993 184.805C387.993 184.805 389.345 189.654 387.312 193.291C385.782 196.014 386.417 200.742 390.203 201.74C396.386 203.363 407.268 193.729 407.268 193.729L402.205 166.695L387.993 184.805Z" fill="white"/>
<path fill-rule="evenodd" clip-rule="evenodd" d="M390.109 202.113C388.524 201.703 387.33 200.658 386.677 199.101C385.885 197.245 386.006 194.83 386.976 193.095C388.3 190.726 388.263 187.295 387.563 184.721L402.428 165.781L407.688 193.878L407.52 194.028C403.594 197.506 395.192 203.456 390.109 202.113ZM388.421 184.889C388.654 185.858 389.531 190.12 387.657 193.477C386.799 195.007 386.696 197.152 387.395 198.802C387.787 199.726 388.608 200.91 390.305 201.358C395.816 202.803 405.45 194.764 406.839 193.58L401.981 167.618L388.421 184.889Z" fill="#263238"/>
<path d="M402.27 163.747C402.093 164.102 403.454 186.082 390.193 186.698C376.923 187.313 376.009 159.859 380.877 152.958C385.736 146.066 398.474 149.507 398.474 149.507L403.865 158.264L402.27 163.747Z" fill="white"/>
<path fill-rule="evenodd" clip-rule="evenodd" d="M389.755 187.099C386.193 187.099 383.209 185.075 381.101 181.233C376.531 172.905 376.932 157.882 380.56 152.734C385.521 145.693 398.045 148.995 398.577 149.134L398.726 149.172L404.294 158.208L402.652 163.841C402.643 163.934 402.643 164.167 402.643 164.503C402.531 178.696 398.12 186.716 390.212 187.089C390.057 187.096 389.904 187.099 389.755 187.099ZM391.508 149.05C387.806 149.05 383.526 149.88 381.194 153.182C377.762 158.05 377.417 172.896 381.782 180.851C383.861 184.637 386.678 186.446 390.175 186.306C397.71 185.952 401.757 178.417 401.86 164.494C401.86 163.85 401.869 163.72 401.906 163.617L403.445 158.32L398.223 149.852C397.561 149.685 394.754 149.05 391.508 149.05Z" fill="#263238"/>
<path d="M404.396 178.417C404.396 178.417 411.474 164.279 404.536 151.279C397.607 138.279 382.938 141.338 378.172 136.806C378.172 136.806 370.162 141.879 376.447 148.817C376.447 148.817 372.894 150.785 369.015 147.558C369.015 147.558 368.241 152.398 371.533 156.623C377.501 164.288 392.441 155.243 394.576 155.578C393.886 161.127 402.148 167.963 402.148 167.963L404.396 178.417Z" fill="#263238"/>
<path d="M376.83 314.346C376.83 314.346 379.021 293.336 386.715 286.183C398.148 275.57 417.62 276.111 422.907 269.388C426.395 264.492 428.083 258.551 430.908 247.612L435.301 256.817C435.301 256.817 423.896 285.26 423.616 285.782C423.336 286.313 397.831 308.984 397.831 308.984L376.83 314.346Z" fill="white"/>
<path d="M377.221 314.393L376.447 314.309C376.531 313.451 378.732 293.065 386.454 285.894C392.72 280.075 401.253 277.613 408.77 275.44C414.934 273.659 420.259 272.12 422.599 269.145C425.406 265.2 427.057 260.444 428.941 253.562L429.696 253.767C427.784 260.733 426.115 265.564 423.224 269.621C420.716 272.801 415.279 274.377 408.984 276.195C401.552 278.34 393.121 280.774 386.985 286.472C379.478 293.438 377.24 314.178 377.221 314.393Z" fill="#263238"/>
<path d="M417.368 314.738H376.83V313.964H417.368C419.531 313.964 421.406 312.5 421.937 310.411L438.751 244.47C439.842 239.117 439.022 235.526 436.289 233.829L436.709 233.167C439.74 235.06 440.682 238.921 439.516 244.647L422.693 310.607C422.077 313.041 419.886 314.738 417.368 314.738Z" fill="#263238"/>
<path d="M306.888 281.819H251.69V274.656H306.888V281.819Z" fill="white"/>
<path fill-rule="evenodd" clip-rule="evenodd" d="M307.28 282.21H251.298V274.265H307.28V282.21ZM252.082 281.427H306.506V275.048H252.082V281.427Z" fill="#263238"/>
<path d="M306.888 281.819H423.43V274.656H306.888V281.819Z" fill="white"/>
<path fill-rule="evenodd" clip-rule="evenodd" d="M423.821 282.21H306.506V274.265H423.821V282.21ZM307.28 281.427H423.047V275.048H307.28V281.427Z" fill="#263238"/>
<path d="M358.943 232.542L358.169 232.458L359.484 220.298L360.268 220.382L358.943 232.542Z" fill="#263238"/>
<path d="M392.842 281.818L412.5 386.899L392.842 281.818Z" fill="white"/>
<path d="M277.55 281.818L257.892 386.899L277.55 281.818Z" fill="white"/>
<path d="M258.47 387.011L257.313 386.796L276.972 281.707L278.128 281.921L258.47 387.011Z" fill="#263238"/>
<path d="M392.375 165.547C392.459 166.266 392.124 166.89 391.62 166.956C391.116 167.012 390.631 166.48 390.548 165.762C390.464 165.044 390.799 164.41 391.303 164.354C391.806 164.289 392.291 164.829 392.375 165.547Z" fill="#263238"/>
<path d="M383.749 166.853C383.833 167.571 383.498 168.196 382.994 168.261C382.49 168.317 382.015 167.786 381.922 167.068C381.838 166.349 382.173 165.715 382.677 165.659C383.181 165.594 383.665 166.135 383.749 166.853Z" fill="#263238"/>
<path d="M388.43 174.537C388.291 174.463 388.141 174.453 387.554 174.472C387.554 174.472 387.551 174.472 387.545 174.472C386.91 174.472 386.435 174.211 386.267 173.763C386.071 173.232 386.398 172.765 386.64 172.42C387.601 171.04 387.806 169.175 387.172 167.636L387.899 167.338C388.626 169.11 388.393 171.273 387.293 172.84C387.134 173.083 386.948 173.344 387.004 173.493C387.041 173.605 387.293 173.707 387.554 173.689C388.002 173.679 388.43 173.642 388.822 173.857L388.43 174.537Z" fill="#263238"/>
<path d="M389.839 180.935L390.007 180.17C390.566 180.291 391.172 180.189 391.657 179.871C392.133 179.564 392.487 179.051 392.618 178.501L393.373 178.668C393.205 179.433 392.73 180.114 392.077 180.534C391.415 180.953 390.604 181.102 389.839 180.935Z" fill="#263238"/>
<path d="M433.417 233.093L419.82 270.367C418.916 272.847 416.361 274.321 413.768 273.864L358.906 264.193C355.67 263.904 354.224 264.389 351.772 265.993C349.31 267.606 346.801 265.807 346.801 265.807C346.801 265.807 343.164 269.164 341.56 269.919C339.947 270.675 337.914 269.919 337.914 269.919C337.914 269.919 348.536 258.654 350.634 257.152C353.935 254.802 358.552 254.094 358.552 254.094L403.585 251.977L414.915 225.418L433.417 233.093Z" fill="white"/>
<path fill-rule="evenodd" clip-rule="evenodd" d="M414.72 274.339C414.384 274.339 414.045 274.308 413.703 274.246L358.831 264.576C355.689 264.296 354.365 264.762 351.986 266.319C349.786 267.756 347.594 266.739 346.848 266.301C346.018 267.047 343.155 269.602 341.719 270.273C339.985 271.094 337.868 270.32 337.774 270.292L337.224 270.087L337.634 269.649C338.063 269.192 348.303 258.337 350.41 256.835C353.74 254.457 358.3 253.739 358.496 253.702L403.314 251.604L414.71 224.905L433.912 232.869L420.194 270.497C419.336 272.838 417.135 274.339 414.72 274.339ZM357.358 263.727C357.843 263.727 358.365 263.746 358.934 263.802L413.834 273.472C416.249 273.901 418.618 272.54 419.457 270.236L432.923 233.307L415.121 225.921L403.846 252.359L358.57 254.485C358.57 254.485 354.047 255.203 350.858 257.479C349.058 258.756 340.675 267.569 338.642 269.723C339.322 269.873 340.451 270.003 341.393 269.565C342.922 268.847 346.503 265.555 346.531 265.517L346.764 265.303L347.025 265.489C347.119 265.555 349.357 267.103 351.558 265.667C353.544 264.361 354.961 263.727 357.358 263.727Z" fill="#263238"/>
<path d="M330.407 268.53C257.024 268.492 261.277 268.613 260.391 268.427C258.479 268.073 256.866 266.758 256.157 264.902L244.565 231.647C243.185 227.973 245.889 224.047 249.806 224.047H310.693C313.024 224.047 315.113 225.483 315.934 227.665L330.407 268.53Z" fill="#0487FF"/>
<path fill-rule="evenodd" clip-rule="evenodd" d="M330.957 268.921C257.267 268.884 261.277 269.015 260.307 268.809C258.274 268.436 256.539 266.991 255.793 265.042L244.202 231.768C242.719 227.87 245.591 223.655 249.806 223.655H310.693C313.173 223.655 315.43 225.212 316.307 227.525L330.957 268.921ZM249.806 224.438C246.151 224.438 243.633 228.085 244.929 231.507L256.521 264.781C257.164 266.469 258.675 267.718 260.447 268.045C261.295 268.222 257.22 268.11 329.848 268.138L315.561 227.796C314.805 225.791 312.838 224.438 310.684 224.438H249.806Z" fill="#263238"/>
<path d="M361.918 271.486V272.586C361.918 273.724 360.995 274.657 359.857 274.657H263.99C262.303 274.657 260.932 273.286 260.932 271.588C260.932 269.9 262.303 268.53 263.99 268.53H358.962C360.594 268.53 361.918 269.854 361.918 271.486Z" fill="#263238"/>
<path fill-rule="evenodd" clip-rule="evenodd" d="M359.857 275.048H263.99C262.088 275.048 260.54 273.491 260.54 271.589C260.54 269.677 262.079 268.138 263.99 268.138H358.962C360.808 268.138 362.31 269.639 362.31 271.486V272.586C362.31 273.939 361.209 275.048 359.857 275.048ZM263.99 268.921C262.536 268.921 261.323 270.096 261.323 271.589C261.323 273.062 262.517 274.265 263.99 274.265H359.857C360.78 274.265 361.526 273.51 361.526 272.586V271.486C361.526 270.068 360.379 268.921 358.962 268.921H263.99Z" fill="#263238"/>
<path d="M287.043 248.62C287.743 251.259 286.624 253.338 284.544 253.264C282.464 253.189 280.208 250.988 279.499 248.349C278.799 245.71 279.909 243.63 281.998 243.705C284.078 243.77 286.334 245.971 287.043 248.62Z" fill="white"/>
<mask id="path-105-inside-2_332_1503" fill="white">
<path d="M428.935 210C428.935 210 432.935 215.5 434.435 219C435.935 225 434.435 244.5 434.435 244.5L407 240.183L411.989 227.603"/>
</mask>
<path d="M428.935 210C428.935 210 432.935 215.5 434.435 219C435.935 225 434.435 244.5 434.435 244.5L407 240.183L411.989 227.603" fill="#E9E9E9"/>
<path d="M434.435 219L435.405 218.757L435.385 218.68L435.354 218.606L434.435 219ZM434.435 244.5L434.279 245.488L435.349 245.656L435.432 244.577L434.435 244.5ZM407 240.183L406.07 239.815L405.61 240.977L406.845 241.171L407 240.183ZM428.935 210C428.126 210.588 428.126 210.588 428.126 210.588C428.126 210.588 428.126 210.588 428.126 210.588C428.126 210.588 428.126 210.589 428.126 210.589C428.127 210.589 428.127 210.59 428.128 210.591C428.13 210.594 428.133 210.597 428.136 210.602C428.144 210.612 428.154 210.628 428.169 210.647C428.198 210.687 428.241 210.747 428.296 210.824C428.406 210.979 428.566 211.205 428.763 211.487C429.158 212.051 429.699 212.84 430.286 213.736C431.471 215.545 432.803 217.731 433.516 219.394L435.354 218.606C434.566 216.769 433.148 214.455 431.959 212.639C431.358 211.723 430.806 210.918 430.403 210.341C430.201 210.053 430.037 209.822 429.923 209.662C429.866 209.582 429.822 209.52 429.791 209.478C429.776 209.457 429.764 209.44 429.756 209.429C429.752 209.424 429.749 209.42 429.747 209.417C429.746 209.415 429.745 209.414 429.744 209.413C429.744 209.413 429.744 209.413 429.744 209.412C429.744 209.412 429.744 209.412 429.744 209.412C429.743 209.412 429.743 209.412 428.935 210ZM433.465 219.243C433.811 220.627 433.998 222.873 434.068 225.542C434.137 228.186 434.091 231.164 433.998 233.967C433.904 236.767 433.764 239.383 433.647 241.299C433.589 242.256 433.537 243.038 433.499 243.581C433.48 243.852 433.464 244.063 433.454 244.206C433.449 244.278 433.445 244.332 433.442 244.369C433.44 244.387 433.439 244.401 433.439 244.41C433.438 244.415 433.438 244.418 433.438 244.42C433.438 244.421 433.438 244.422 433.438 244.423C433.438 244.423 433.438 244.423 433.438 244.423C433.438 244.423 433.438 244.423 434.435 244.5C435.432 244.577 435.432 244.577 435.432 244.576C435.432 244.576 435.432 244.576 435.432 244.576C435.432 244.575 435.432 244.574 435.432 244.573C435.432 244.57 435.433 244.567 435.433 244.562C435.434 244.552 435.435 244.538 435.436 244.519C435.439 244.481 435.443 244.426 435.448 244.353C435.459 244.208 435.475 243.994 435.494 243.72C435.532 243.173 435.585 242.384 435.644 241.42C435.761 239.492 435.902 236.858 435.997 234.033C436.091 231.211 436.138 228.189 436.067 225.489C435.997 222.814 435.809 220.373 435.405 218.757L433.465 219.243ZM434.59 243.512L407.155 239.196L406.845 241.171L434.279 245.488L434.59 243.512ZM407.93 240.552L412.919 227.972L411.06 227.235L406.07 239.815L407.93 240.552Z" fill="#263238" mask="url(#path-105-inside-2_332_1503)"/>
<path d="M114.483 141.987H183.309V158.501H114.483C109.928 158.501 106.226 154.808 106.226 150.244C106.226 145.69 109.928 141.987 114.483 141.987Z" fill="white" stroke="#263238"/>
<path fill-rule="evenodd" clip-rule="evenodd" d="M184.201 159.392H114.483C109.438 159.392 105.334 155.289 105.334 150.244C105.334 145.208 109.438 141.105 114.483 141.105H184.201V159.392ZM114.483 141.879C109.876 141.879 106.118 145.628 106.118 150.244C106.118 154.851 109.876 158.609 114.483 158.609H183.417V141.879H114.483Z" fill="#263238"/>
<path d="M193.387 157.528L193.386 157.529C191.528 159.396 188.95 160.543 186.103 160.543C180.42 160.543 175.804 155.936 175.804 150.244C175.804 147.398 176.96 144.829 178.819 142.969C180.688 141.1 183.258 139.945 186.103 139.945C188.949 139.945 191.528 141.101 193.386 142.969L193.387 142.969C195.247 144.829 196.402 147.398 196.402 150.244C196.402 153.09 195.246 155.669 193.387 157.528Z" fill="#0487FF" stroke="#263238"/>
<path fill-rule="evenodd" clip-rule="evenodd" d="M186.952 153.881C185.805 153.881 184.658 153.443 183.781 152.566C182.037 150.822 182.037 147.987 183.781 146.243C185.525 144.49 188.369 144.49 190.113 146.243C191.857 147.987 191.857 150.822 190.113 152.566C189.237 153.443 188.089 153.881 186.952 153.881ZM186.952 147.232C186.392 147.232 185.833 147.437 185.413 147.866C184.564 148.715 184.564 150.095 185.413 150.944C186.252 151.792 187.633 151.792 188.49 150.944C189.33 150.095 189.33 148.715 188.481 147.866C188.061 147.437 187.502 147.232 186.952 147.232Z" fill="white"/>
<path d="M181.935 155.56C181.646 155.56 181.347 155.448 181.123 155.224C180.676 154.776 180.676 154.049 181.123 153.601L183.781 150.944C184.229 150.496 184.956 150.496 185.413 150.944C185.861 151.391 185.861 152.119 185.413 152.566L182.746 155.224C182.522 155.448 182.233 155.56 181.935 155.56Z" fill="white"/>
<path d="M148.68 206.22H105.326C104.1 206.22 103.112 205.231 103.112 204.006V170.742C103.112 169.517 104.1 168.528 105.326 168.528H148.68C149.895 168.528 150.884 169.515 150.884 170.742V204.006C150.884 205.232 149.895 206.22 148.68 206.22Z" fill="#0487FF" stroke="#263238"/>
<path d="M131.994 182.508L131.995 182.509L142.066 196.188C142.066 196.189 142.066 196.189 142.066 196.189C142.235 196.42 142.066 196.754 141.779 196.754H112.226C111.928 196.754 111.762 196.398 111.954 196.17C111.954 196.17 111.954 196.17 111.955 196.169L118.434 188.608C118.434 188.608 118.434 188.608 118.434 188.608C118.57 188.45 118.826 188.45 118.962 188.608L122.149 192.327C122.149 192.327 122.15 192.327 122.15 192.328C122.714 192.994 123.751 192.951 124.259 192.252C124.259 192.252 124.26 192.251 124.26 192.25L131.427 182.511C131.575 182.318 131.861 182.327 131.994 182.508Z" fill="white" stroke="#263238"/>
<path d="M123.663 180.608C123.663 182.056 122.489 183.223 121.048 183.223C119.607 183.223 118.433 182.056 118.433 180.608C118.433 179.17 119.606 178.003 121.048 178.003C122.49 178.003 123.663 179.17 123.663 180.608Z" fill="white" stroke="#263238"/>
<path d="M196.915 180.108H157.657V170.915H196.915V180.108Z" fill="white" stroke="#263238"/>
<path d="M194.496 187.379H157.157V185.234H194.496V187.379Z" fill="#B4DBFF"/>
<path d="M194.496 192.769H157.157V190.624H194.496V192.769Z" fill="#B4DBFF"/>
<path d="M194.496 198.159H157.157V196.014H194.496V198.159Z" fill="#B4DBFF"/>
<path d="M169.261 201.404H157.157V203.549H169.261V201.404Z" fill="#B4DBFF"/>
<path d="M173.831 201.404V203.549H179.314V201.404H173.831Z" fill="#B4DBFF"/>
<path d="M193.918 262.518H106.118C104.463 262.518 103.112 261.174 103.112 259.512V217.621C103.112 215.959 104.463 214.615 106.118 214.615H193.918C195.572 214.615 196.915 215.957 196.915 217.621V259.512C196.915 261.176 195.572 262.518 193.918 262.518Z" fill="white" stroke="#263238"/>
<path d="M177.925 223.562C177.925 224.214 178.456 224.746 179.109 224.746H188.854C189.507 224.746 190.039 224.214 190.039 223.562C190.039 222.909 189.507 222.377 188.854 222.377H179.109C178.456 222.377 177.925 222.909 177.925 223.562Z" fill="#B4DBFF"/>
<path d="M164.384 222.377H111.173C110.52 222.377 109.988 222.909 109.988 223.562C109.988 224.214 110.52 224.746 111.173 224.746H164.384C165.037 224.746 165.569 224.214 165.569 223.562C165.569 222.909 165.037 222.377 164.384 222.377Z" fill="#B4DBFF"/>
<path d="M136.557 229.875H111.173C110.52 229.875 109.988 230.407 109.988 231.059C109.988 231.722 110.52 232.253 111.173 232.253H136.557C137.219 232.253 137.75 231.722 137.75 231.059C137.75 230.407 137.219 229.875 136.557 229.875Z" fill="#B4DBFF"/>
<path d="M145.649 231.059C145.649 231.722 146.181 232.253 146.834 232.253H188.855C189.508 232.253 190.039 231.722 190.039 231.059C190.039 230.407 189.508 229.875 188.855 229.875H146.834C146.181 229.875 145.649 230.407 145.649 231.059Z" fill="#B4DBFF"/>
<path d="M163.498 237.382H111.173C110.52 237.382 109.988 237.914 109.988 238.567C109.988 239.219 110.52 239.751 111.173 239.751H163.498C164.151 239.751 164.683 239.219 164.683 238.567C164.683 237.914 164.151 237.382 163.498 237.382Z" fill="#B4DBFF"/>
<path d="M175.249 238.567C175.249 239.219 175.78 239.751 176.433 239.751H188.855C189.507 239.751 190.039 239.219 190.039 238.567C190.039 237.914 189.507 237.382 188.855 237.382H176.433C175.78 237.382 175.249 237.914 175.249 238.567Z" fill="#B4DBFF"/>
<path d="M126.327 244.88H111.173C110.52 244.88 109.988 245.411 109.988 246.074C109.988 246.726 110.52 247.258 111.173 247.258H126.327C126.979 247.258 127.511 246.726 127.511 246.074C127.511 245.411 126.979 244.88 126.327 244.88Z" fill="#B4DBFF"/>
<path d="M131.176 246.074C131.176 246.726 131.707 247.258 132.369 247.258H188.854C189.507 247.258 190.039 246.726 190.039 246.074C190.039 245.411 189.507 244.88 188.854 244.88H132.369C131.707 244.88 131.176 245.411 131.176 246.074Z" fill="#B4DBFF"/>
<path d="M137.34 252.387H111.173C110.52 252.387 109.988 252.919 109.988 253.571C109.988 254.224 110.52 254.756 111.173 254.756H137.34C137.993 254.756 138.524 254.224 138.524 253.571C138.524 252.919 137.993 252.387 137.34 252.387Z" fill="#B4DBFF"/>
<path d="M160.375 252.387H148.055C147.403 252.387 146.871 252.919 146.871 253.571C146.871 254.224 147.403 254.756 148.055 254.756H160.375C161.037 254.756 161.559 254.224 161.559 253.571C161.559 252.919 161.037 252.387 160.375 252.387Z" fill="#B4DBFF"/>
<path d="M138.823 287.666V342.173C138.823 345.587 136.034 348.347 132.621 348.347H60.4041C56.9817 348.347 54.2026 345.587 54.2026 342.173V287.666C54.2026 284.215 56.9817 281.464 60.4041 281.464H132.621C136.034 281.464 138.823 284.215 138.823 287.666Z" fill="#0487FF"/>
<path d="M64.6848 287.908C64.6848 288.785 63.976 289.484 63.1087 289.484C62.2321 289.484 61.5327 288.785 61.5327 287.908C61.5327 287.041 62.2321 286.332 63.1087 286.332C63.976 286.332 64.6848 287.041 64.6848 287.908Z" fill="white"/>
<path d="M69.7111 287.908C69.7111 288.785 69.0024 289.484 68.1351 289.484C67.2585 289.484 66.5591 288.785 66.5591 287.908C66.5591 287.041 67.2585 286.332 68.1351 286.332C69.0024 286.332 69.7111 287.041 69.7111 287.908Z" fill="white"/>
<path d="M74.7375 287.908C74.7375 288.785 74.0287 289.484 73.1615 289.484C72.2942 289.484 71.5854 288.785 71.5854 287.908C71.5854 287.041 72.2942 286.332 73.1615 286.332C74.0287 286.332 74.7375 287.041 74.7375 287.908Z" fill="white"/>
<path d="M90.442 297.383H81.4242C81.0699 297.383 80.7808 297.094 80.7808 296.739C80.7808 296.385 81.0699 296.096 81.4242 296.096H90.442C90.7964 296.096 91.0855 296.385 91.0855 296.739C91.0855 297.094 90.7964 297.383 90.442 297.383Z" fill="white"/>
<path d="M77.3394 297.383H65.5985C65.2442 297.383 64.9551 297.094 64.9551 296.739C64.9551 296.385 65.2442 296.096 65.5985 296.096H77.3394C77.6938 296.096 77.9829 296.385 77.9829 296.739C77.9829 297.094 77.6938 297.383 77.3394 297.383Z" fill="white"/>
<path d="M109.475 302.633H100.942C100.588 302.633 100.299 302.344 100.299 301.99C100.299 301.635 100.588 301.346 100.942 301.346H109.475C109.83 301.346 110.119 301.635 110.119 301.99C110.119 302.344 109.83 302.633 109.475 302.633Z" fill="white"/>
<path d="M97.3241 302.633H88.0824C87.7281 302.633 87.439 302.344 87.439 301.99C87.439 301.635 87.7281 301.346 88.0824 301.346H97.3241C97.6784 301.346 97.9675 301.635 97.9675 301.99C97.9675 302.344 97.6784 302.633 97.3241 302.633Z" fill="white"/>
<path d="M84.3708 302.633H70.1586C69.8042 302.633 69.5151 302.344 69.5151 301.99C69.5151 301.635 69.8042 301.346 70.1586 301.346H84.3708C84.7251 301.346 85.0142 301.635 85.0142 301.99C85.0142 302.344 84.7251 302.633 84.3708 302.633Z" fill="white"/>
<path d="M125.413 307.893H108.366C108.011 307.893 107.722 307.604 107.722 307.249C107.722 306.895 108.011 306.606 108.366 306.606H125.413C125.767 306.606 126.056 306.895 126.056 307.249C126.056 307.604 125.767 307.893 125.413 307.893Z" fill="white"/>
<path d="M105.456 307.893H93.911C93.5567 307.893 93.2676 307.604 93.2676 307.249C93.2676 306.895 93.5567 306.606 93.911 306.606H105.456C105.81 306.606 106.1 306.895 106.1 307.249C106.1 307.604 105.81 307.893 105.456 307.893Z" fill="white"/>
<path d="M89.6956 307.893H70.1586C69.8042 307.893 69.5151 307.604 69.5151 307.249C69.5151 306.895 69.8042 306.606 70.1586 306.606H89.6956C90.05 306.606 90.3391 306.895 90.3391 307.249C90.3391 307.604 90.05 307.893 89.6956 307.893Z" fill="white"/>
<path d="M105.204 313.143H70.1586C69.8042 313.143 69.5151 312.854 69.5151 312.5C69.5151 312.145 69.8042 311.856 70.1586 311.856H105.204C105.558 311.856 105.848 312.145 105.848 312.5C105.848 312.854 105.558 313.143 105.204 313.143Z" fill="white"/>
<path d="M125.413 318.403H106.211C105.857 318.403 105.568 318.113 105.568 317.759C105.568 317.405 105.857 317.116 106.211 317.116H125.413C125.767 317.116 126.056 317.405 126.056 317.759C126.056 318.113 125.767 318.403 125.413 318.403Z" fill="white"/>
<path d="M100.336 318.403H89.6957C89.3413 318.403 89.0522 318.113 89.0522 317.759C89.0522 317.405 89.3413 317.116 89.6957 317.116H100.336C100.691 317.116 100.98 317.405 100.98 317.759C100.98 318.113 100.691 318.403 100.336 318.403Z" fill="white"/>
<path d="M86.3757 318.403H70.1586C69.8042 318.403 69.5151 318.113 69.5151 317.759C69.5151 317.405 69.8042 317.116 70.1586 317.116H86.3757C86.7301 317.116 87.0192 317.405 87.0192 317.759C87.0192 318.113 86.7301 318.403 86.3757 318.403Z" fill="white"/>
<path d="M101.241 323.653H94.3588C94.0044 323.653 93.7153 323.364 93.7153 323.009C93.7153 322.655 94.0044 322.375 94.3588 322.375H101.241C101.595 322.375 101.885 322.655 101.885 323.009C101.885 323.364 101.595 323.653 101.241 323.653Z" fill="white"/>
<path d="M90.7961 323.653H70.1586C69.8042 323.653 69.5151 323.364 69.5151 323.009C69.5151 322.655 69.8042 322.375 70.1586 322.375H90.7961C91.1504 322.375 91.4395 322.655 91.4395 323.009C91.4395 323.364 91.1504 323.653 90.7961 323.653Z" fill="white"/>
<path d="M93.9112 328.912H82.3568C82.0024 328.912 81.7227 328.623 81.7227 328.269C81.7227 327.915 82.0024 327.626 82.3568 327.626H93.9112C94.2655 327.626 94.5546 327.915 94.5546 328.269C94.5546 328.623 94.2655 328.912 93.9112 328.912Z" fill="white"/>
<path d="M79.046 328.912H65.5985C65.2442 328.912 64.9551 328.623 64.9551 328.269C64.9551 327.915 65.2442 327.626 65.5985 327.626H79.046C79.4004 327.626 79.6895 327.915 79.6895 328.269C79.6895 328.623 79.4004 328.912 79.046 328.912Z" fill="white"/>
<path d="M110.427 334.163H96.7182C96.3638 334.163 96.0747 333.883 96.0747 333.519C96.0747 333.165 96.3638 332.885 96.7182 332.885H110.427C110.781 332.885 111.07 333.165 111.07 333.519C111.07 333.883 110.781 334.163 110.427 334.163Z" fill="white"/>
<path d="M92.7082 334.163H69.7113C69.357 334.163 69.0679 333.883 69.0679 333.519C69.0679 333.165 69.357 332.885 69.7113 332.885H92.7082C93.0625 332.885 93.3516 333.165 93.3516 333.519C93.3516 333.883 93.0625 334.163 92.7082 334.163Z" fill="white"/>
<path d="M106.808 339.422H86.8329C86.4785 339.422 86.1895 339.133 86.1895 338.779C86.1895 338.425 86.4785 338.135 86.8329 338.135H106.808C107.163 338.135 107.452 338.425 107.452 338.779C107.452 339.133 107.163 339.422 106.808 339.422Z" fill="white"/>
<path d="M82.5619 339.422H69.7113C69.357 339.422 69.0679 339.133 69.0679 338.779C69.0679 338.425 69.357 338.135 69.7113 338.135H82.5619C82.9163 338.135 83.2054 338.425 83.2054 338.779C83.2054 339.133 82.9163 339.422 82.5619 339.422Z" fill="white"/>
<path d="M307.6 166.918L307.6 166.918C297.186 163.589 291.455 152.447 294.784 142.041C298.113 131.635 309.246 125.887 319.661 129.225L319.661 129.225C330.057 132.554 335.806 143.687 332.477 154.093L332.477 154.093C331.259 157.903 329.002 161.08 326.11 163.427L323.33 159.664L323.309 159.68C323.161 159.545 322.947 159.46 322.862 159.463C322.821 159.47 322.759 159.489 322.739 159.497C322.71 159.509 322.687 159.522 322.682 159.525L322.682 159.525C322.668 159.533 322.657 159.54 322.655 159.542C322.648 159.547 322.642 159.551 322.639 159.552C322.629 159.56 322.614 159.571 322.599 159.582C322.566 159.606 322.516 159.644 322.453 159.69C322.327 159.784 322.15 159.917 321.968 160.053L321.453 160.44L321.183 160.643L320.785 160.942L321.081 161.341L323.825 165.036C319.105 167.868 313.238 168.724 307.6 166.918Z" fill="#0487FF" stroke="#263238"/>
<path d="M334.333 172.812L333.139 173.707L322.536 159.458L323.72 158.572L334.333 172.812Z" fill="#0487FF"/>
<path d="M307.093 144.425L300.407 147.418C299.922 147.652 299.586 148.09 299.586 148.649V148.78C299.586 149.33 299.912 149.768 300.416 150.002L307.093 152.995L307.112 153.004C308.445 153.517 309.201 151.578 307.895 151.027L302.673 148.715L307.886 146.393C309.201 145.852 308.464 143.893 307.093 144.425Z" fill="white"/>
<path d="M314.843 141.226L310.404 154.189C309.928 155.625 311.989 156.231 312.437 154.907L316.866 141.944C317.342 140.527 315.29 139.883 314.843 141.226Z" fill="white"/>
<path d="M326.844 147.418L320.167 144.425C318.862 143.865 318.032 145.833 319.365 146.392L324.588 148.715L319.375 151.027C319.17 151.114 319.005 151.245 318.88 151.419C318.265 152.286 319.179 153.424 320.167 152.995L326.854 150.001C327.348 149.768 327.674 149.321 327.674 148.78V148.649C327.674 148.09 327.348 147.661 326.844 147.418Z" fill="white"/>
<path d="M67.447 187.708L67.8427 187.409L68.5701 186.859L68.5734 186.856L69.3008 186.315L69.7038 186.015L70.0017 186.42L72.7729 190.182C75.6647 187.843 77.9294 184.658 79.1383 180.858L79.1387 180.857C82.4767 170.442 76.7285 159.309 66.3227 155.98C55.9177 152.651 44.7844 158.39 41.4459 168.796C38.1169 179.201 43.8563 190.344 54.2621 193.682C54.2621 193.682 54.2621 193.682 54.2621 193.682L54.1094 194.158C59.9155 196.006 65.9415 195.118 70.7861 192.194L67.447 187.708ZM67.447 187.708L67.7433 188.106L70.4861 191.791L67.447 187.708Z" fill="#52D180" stroke="#263238"/>
<path d="M80.9951 199.576L79.8107 200.462L69.1982 186.222L70.3919 185.327L80.9951 199.576Z" fill="#52D180"/>
<path d="M51.489 171.926C51.9273 171.674 52.4682 171.544 53.093 171.544C53.5033 171.544 53.867 171.581 54.1748 171.674C54.4856 171.761 54.812 171.895 55.154 172.075C55.4431 172.215 55.8254 172.159 56.0492 171.926C56.1891 171.777 56.2637 171.6 56.2637 171.404C56.2637 171.096 56.1145 170.844 55.8534 170.695C55.4151 170.443 54.9674 170.257 54.5198 170.117C54.0722 169.986 53.55 169.921 52.9904 169.921C52.1418 169.921 51.3771 170.108 50.7057 170.471C50.0249 170.844 49.484 171.385 49.0923 172.075C48.71 172.765 48.5142 173.586 48.5142 174.5C48.5142 175.414 48.71 176.225 49.0923 176.915C49.484 177.615 50.0249 178.155 50.7057 178.519C51.3771 178.892 52.1418 179.079 52.9904 179.079C53.55 179.079 54.0722 179.013 54.5198 178.874C54.9674 178.743 55.4151 178.547 55.8534 178.305C56.1145 178.155 56.2637 177.904 56.2637 177.587C56.2637 177.391 56.1891 177.204 56.0492 177.064C55.8254 176.841 55.443 176.775 55.1446 176.925C54.8089 177.102 54.4825 177.232 54.1748 177.326C53.867 177.409 53.5033 177.456 53.093 177.456C52.4682 177.456 51.9273 177.326 51.489 177.074C51.06 176.813 50.7336 176.477 50.5192 176.029C50.2953 175.591 50.1834 175.069 50.1834 174.5C50.1834 173.922 50.2953 173.409 50.5192 172.961C50.743 172.523 51.06 172.178 51.489 171.926Z" fill="white"/>
<path d="M63.4166 173.791H61.7566V172.122C61.7566 171.907 61.682 171.721 61.5421 171.581C61.2624 171.301 60.7681 171.292 60.4697 171.572C60.3205 171.721 60.2459 171.907 60.2459 172.122V173.791H58.5766C58.3714 173.791 58.1849 173.866 58.0451 174.006C57.9052 174.146 57.8306 174.332 57.8306 174.547C57.8306 174.752 57.9052 174.929 58.0451 175.078C58.1849 175.218 58.3714 175.293 58.5766 175.293H60.2459V176.962C60.2459 177.167 60.3205 177.344 60.4697 177.493C60.6096 177.643 60.7961 177.717 61.0013 177.717C61.2157 177.717 61.4023 177.633 61.5421 177.493C61.682 177.344 61.7566 177.158 61.7566 176.962V175.293H63.4166C63.6217 175.293 63.8082 175.218 63.9575 175.078C64.0973 174.929 64.1719 174.752 64.1719 174.547C64.1719 174.332 64.0973 174.146 63.9575 174.006C63.8082 173.866 63.6217 173.791 63.4166 173.791Z" fill="white"/>
<path d="M71.8558 174.006C71.716 173.866 71.5295 173.791 71.315 173.791H69.6643V172.122C69.6643 171.907 69.5897 171.721 69.4499 171.581C69.1701 171.301 68.6758 171.292 68.3774 171.572C68.2282 171.721 68.1443 171.907 68.1443 172.122V173.791H66.4843C66.2792 173.791 66.0927 173.866 65.9528 174.006C65.8129 174.146 65.7383 174.332 65.7383 174.547C65.7383 174.752 65.8129 174.929 65.9528 175.078C66.0927 175.218 66.2792 175.293 66.4843 175.293H68.1443V176.962C68.1443 177.167 68.2282 177.344 68.3681 177.493C68.5173 177.643 68.7038 177.717 68.909 177.717C69.1235 177.717 69.31 177.633 69.4499 177.493C69.5897 177.344 69.6643 177.158 69.6643 176.962V175.293H71.315C71.5295 175.293 71.716 175.218 71.8652 175.078C72.0051 174.929 72.0797 174.752 72.0797 174.547C72.0797 174.332 72.0051 174.146 71.8558 174.006Z" fill="white"/>
<path d="M244.155 322.17H221.26C221.092 322.17 220.962 322.04 220.962 321.872C220.962 321.713 221.092 321.583 221.26 321.583H244.155C244.313 321.583 244.444 321.713 244.444 321.872C244.444 322.04 244.313 322.17 244.155 322.17Z" fill="#0487FF"/>
<path d="M244.155 333.519H221.26C221.092 333.519 220.962 333.38 220.962 333.221C220.962 333.063 221.092 332.932 221.26 332.932H244.155C244.313 332.932 244.444 333.063 244.444 333.221C244.444 333.38 244.313 333.519 244.155 333.519Z" fill="#0487FF"/>
<path d="M239.996 327.84H207.608C207.449 327.84 207.319 327.71 207.319 327.551C207.319 327.383 207.449 327.253 207.608 327.253H239.996C240.154 327.253 240.285 327.383 240.285 327.551C240.285 327.71 240.154 327.84 239.996 327.84Z" fill="#0487FF"/>
<path d="M225.97 322.17C225.811 322.17 225.681 322.04 225.681 321.872V317.05C225.681 316.892 225.811 316.752 225.97 316.752C226.128 316.752 226.259 316.892 226.259 317.05V321.872C226.259 322.04 226.128 322.17 225.97 322.17Z" fill="#0487FF"/>
<path d="M234.018 327.84C233.86 327.84 233.729 327.71 233.729 327.551V321.872C233.729 321.713 233.86 321.583 234.018 321.583C234.177 321.583 234.316 321.713 234.316 321.872V327.551C234.316 327.71 234.177 327.84 234.018 327.84Z" fill="#0487FF"/>
<path d="M227.891 333.324C227.733 333.324 227.602 333.193 227.602 333.035V327.551C227.602 327.383 227.733 327.253 227.891 327.253C228.059 327.253 228.19 327.383 228.19 327.551V333.035C228.19 333.193 228.059 333.324 227.891 333.324Z" fill="#0487FF"/>
<path d="M325.325 192.601H302.431C302.272 192.601 302.142 192.47 302.142 192.312C302.142 192.144 302.272 192.013 302.431 192.013H325.325C325.483 192.013 325.614 192.144 325.614 192.312C325.614 192.47 325.483 192.601 325.325 192.601Z" fill="#0487FF"/>
<path d="M325.325 203.95H302.431C302.272 203.95 302.142 203.819 302.142 203.661C302.142 203.493 302.272 203.362 302.431 203.362H325.325C325.483 203.362 325.614 203.493 325.614 203.661C325.614 203.819 325.483 203.95 325.325 203.95Z" fill="#0487FF"/>
<path d="M321.166 198.28H288.778C288.619 198.28 288.489 198.149 288.489 197.982C288.489 197.823 288.619 197.692 288.787 197.692H321.166C321.324 197.692 321.464 197.823 321.464 197.982C321.464 198.149 321.324 198.28 321.166 198.28Z" fill="#0487FF"/>
<path d="M307.14 192.601C306.981 192.601 306.851 192.47 306.851 192.312V187.49C306.851 187.323 306.981 187.192 307.14 187.192C307.308 187.192 307.438 187.323 307.438 187.49V192.312C307.438 192.47 307.308 192.601 307.14 192.601Z" fill="#0487FF"/>
<path d="M315.188 198.28C315.029 198.28 314.899 198.15 314.899 197.982V192.312C314.899 192.144 315.029 192.013 315.188 192.013C315.356 192.013 315.486 192.144 315.486 192.312V197.982C315.486 198.15 315.356 198.28 315.188 198.28Z" fill="#0487FF"/>
<path d="M309.07 203.763C308.903 203.763 308.772 203.633 308.772 203.465V197.982C308.772 197.823 308.903 197.692 309.07 197.692C309.229 197.692 309.359 197.823 309.359 197.982V203.465C309.359 203.633 309.229 203.763 309.07 203.763Z" fill="#0487FF"/>
<path d="M-63.0307 40.797C-37.594 54.9419 19.0022 75.7463 41.8932 45.8041C70.5069 8.37635 41.7034 0.871211 33.2448 19.5474C24.7861 38.2236 66.9969 63.6024 108.765 25.1247C142.179 -5.65756 157.787 -53.1177 161.414 -73" stroke="#0487FF" stroke-dasharray="6 6"/>
<path d="M479.529 315.123C454.601 330.146 408.389 368.881 422.967 403.637C441.189 447.083 462.034 425.835 450.045 409.204C438.056 392.572 395.035 416.553 407.622 471.93C417.691 516.232 451.088 553.391 466.527 566.432" stroke="#0487FF" stroke-dasharray="6 6"/>
</g>
</g>
<defs>
<clipPath id="clip0_332_1503">
<rect width="480" height="480" rx="24" fill="white"/>
</clipPath>
<clipPath id="clip1_332_1503">
<rect width="480" height="480" rx="24" fill="white"/>
</clipPath>
</defs>
</svg>
