<svg width="480" height="480" viewBox="0 0 480 480" fill="none" xmlns="http://www.w3.org/2000/svg">
<g clip-path="url(#clip0_528_7812)">
<mask id="mask0_528_7812" style="mask-type:luminance" maskUnits="userSpaceOnUse" x="0" y="0" width="480" height="480">
<path d="M480 0H0V480H480V0Z" fill="white"/>
</mask>
<g mask="url(#mask0_528_7812)">
<mask id="mask1_528_7812" style="mask-type:luminance" maskUnits="userSpaceOnUse" x="0" y="0" width="480" height="480">
<path d="M456 0H24C10.7452 0 0 10.7452 0 24V456C0 469.255 10.7452 480 24 480H456C469.255 480 480 469.255 480 456V24C480 10.7452 469.255 0 456 0Z" fill="white"/>
</mask>
<g mask="url(#mask1_528_7812)">
<path d="M456 0H24C10.7452 0 0 10.7452 0 24V456C0 469.255 10.7452 480 24 480H456C469.255 480 480 469.255 480 456V24C480 10.7452 469.255 0 456 0Z" fill="#E6F3FF"/>
<path d="M-63.0308 40.797C-37.5941 54.9419 19.0021 75.7463 41.8931 45.8041C70.5068 8.37637 41.7033 0.871229 33.2447 19.5474C24.786 38.2236 66.9968 63.6025 108.765 25.1247C142.179 -5.65755 157.787 -53.1177 161.414 -73" stroke="#0487FF" stroke-dasharray="6 6"/>
<path d="M479.529 315.123C454.601 330.146 408.389 368.881 422.967 403.637C441.189 447.083 462.034 425.835 450.045 409.204C438.056 392.572 395.035 416.553 407.622 471.93C417.691 516.232 451.088 553.391 466.527 566.432" stroke="#0487FF" stroke-dasharray="6 6"/>
<path d="M88.2081 69.0957H341.715C347.313 69.0957 351.863 73.623 351.863 79.2431V253.243C351.863 258.841 347.313 263.368 341.715 263.368H88.2081C82.6103 263.368 78.083 258.841 78.083 253.243V79.2431C78.083 73.623 82.6103 69.0957 88.2081 69.0957Z" fill="white"/>
<path fill-rule="evenodd" clip-rule="evenodd" d="M341.715 264.104H88.2087C82.2095 264.104 77.3477 259.242 77.3477 253.243V79.2429C77.3477 73.2437 82.2095 68.3596 88.2087 68.3596H341.715C347.715 68.3596 352.599 73.2437 352.599 79.2429V253.243C352.599 259.242 347.715 264.104 341.715 264.104ZM88.2087 69.8315C83.0347 69.8315 78.8196 74.0466 78.8196 79.2429V253.243C78.8196 258.417 83.0347 262.632 88.2087 262.632H341.715C346.912 262.632 351.127 258.417 351.127 253.243V79.2429C351.127 74.0466 346.912 69.8315 341.715 69.8315H88.2087Z" fill="#263238"/>
<path d="M78.6726 79.1727L78.6729 79.1633V79.1539C78.6729 73.8883 83.0317 69.6626 88.3649 69.6626H341.871C347.21 69.6626 351.691 73.8906 351.697 79.1428L351.43 84.9233L78.4023 86.3676L78.6726 79.1727Z" fill="white" stroke="#263238"/>
<path d="M94.096 79.3992C94.096 81.2057 92.6464 82.6776 90.8399 82.6776C89.0334 82.6776 87.5615 81.2057 87.5615 79.3992C87.5615 77.5928 89.0334 76.1431 90.8399 76.1431C92.6464 76.1431 94.096 77.5928 94.096 79.3992Z" fill="#263238"/>
<path d="M104.578 79.1763C104.578 80.9828 103.106 82.4547 101.3 82.4547C99.4934 82.4547 98.0215 80.9828 98.0215 79.1763C98.0215 77.3921 99.4934 75.9202 101.3 75.9202C103.106 75.9202 104.578 77.3921 104.578 79.1763Z" fill="#263238"/>
<path d="M115.908 79.6223C115.908 81.4288 114.458 82.8784 112.652 82.8784C110.845 82.8784 109.374 81.4288 109.374 79.6223C109.374 77.8159 110.845 76.3662 112.652 76.3662C114.458 76.3662 115.908 77.8159 115.908 79.6223Z" fill="#263238"/>
<path fill-rule="evenodd" clip-rule="evenodd" d="M341.715 264.104H88.2087C82.2095 264.104 77.3477 259.242 77.3477 253.243V79.2429C77.3477 73.2437 82.2095 68.3596 88.2087 68.3596H341.715C347.715 68.3596 352.599 73.2437 352.599 79.2429V253.243C352.599 259.242 347.715 264.104 341.715 264.104ZM88.2087 69.8315C83.0347 69.8315 78.8196 74.0466 78.8196 79.2429V253.243C78.8196 258.417 83.0347 262.632 88.2087 262.632H341.715C346.912 262.632 351.127 258.417 351.127 253.243V79.2429C351.127 74.0466 346.912 69.8315 341.715 69.8315H88.2087Z" fill="#263238"/>
<path d="M171.393 192.773H171.391C169.159 192.793 167.568 191.2 167.568 188.88V94.8993C167.568 93.2998 168.305 91.7195 169.459 90.5308C170.614 89.3417 172.148 88.5851 173.695 88.5749L276.975 88.0842H276.977C278.123 88.0742 279.071 88.4791 279.733 89.1528C280.395 89.8276 280.799 90.8013 280.799 91.9777V185.958C280.799 187.558 280.063 189.138 278.908 190.327C277.753 191.516 276.219 192.273 274.672 192.283L171.393 192.773Z" fill="white" stroke="#263238"/>
<path d="M178.041 183.616L175.097 183.572C173.804 183.55 172.778 182.412 172.778 181.007L172.8 165.663C172.8 164.214 173.893 163.054 175.209 163.076L178.13 163.121C179.402 163.143 180.45 164.281 180.45 165.686C180.45 169.589 180.45 177.06 180.45 181.029C180.45 182.479 179.357 183.661 178.041 183.616Z" fill="#E6F3FF"/>
<path d="M188.434 183.572L185.49 183.527C184.196 183.505 183.17 182.368 183.17 180.963L183.193 155.94C183.215 154.49 184.286 153.33 185.601 153.353L188.523 153.375C189.816 153.397 190.842 154.535 190.842 155.94C190.842 161.604 190.842 175.231 190.842 180.985C190.842 182.435 189.749 183.594 188.434 183.572Z" fill="#E6F3FF"/>
<path d="M198.826 183.527L195.882 183.483C194.588 183.438 193.562 182.301 193.562 180.896L193.607 161.047C193.607 159.597 194.678 158.438 196.016 158.46L198.915 158.482C200.208 158.505 201.234 159.642 201.234 161.047C201.234 165.82 201.234 176.101 201.234 180.94C201.234 182.39 200.142 183.55 198.826 183.527Z" fill="#E6F3FF"/>
<path d="M209.219 183.483L206.275 183.416C205.004 183.393 203.956 182.256 203.956 180.851L204.001 141.778C204.001 140.351 205.093 139.169 206.409 139.191L209.309 139.236C210.602 139.258 211.65 140.395 211.65 141.8C211.65 149.561 211.65 173.001 211.65 180.896C211.65 182.323 210.557 183.505 209.219 183.483Z" fill="#B4DBFF"/>
<path d="M219.612 183.416L216.691 183.371C215.397 183.349 214.371 182.211 214.371 180.806L214.393 131.675C214.393 130.226 215.486 129.066 216.802 129.088L219.701 129.133C220.995 129.133 222.043 130.27 222.043 131.697C222.043 140.774 222.043 171.596 222.043 180.829C222.043 182.278 220.95 183.46 219.612 183.416Z" fill="#B4DBFF"/>
<path d="M230.027 183.371L227.083 183.327C225.79 183.304 224.764 182.167 224.764 180.762L224.786 124.137C224.786 122.71 225.879 121.528 227.195 121.55L230.116 121.595C231.387 121.617 232.436 122.754 232.436 124.159C232.436 134.128 232.436 170.637 232.436 180.784C232.436 182.234 231.343 183.394 230.027 183.371Z" fill="#0487FF"/>
<path d="M240.42 183.327L237.476 183.282C236.183 183.237 235.157 182.1 235.157 180.695L235.179 140.485C235.201 139.057 236.272 137.875 237.588 137.897L240.509 137.942C241.803 137.964 242.829 139.102 242.829 140.507C242.829 148.424 242.829 172.689 242.829 180.74C242.829 182.189 241.736 183.349 240.42 183.327Z" fill="#E6F3FF"/>
<path d="M250.813 183.282L247.869 183.215C246.575 183.193 245.549 182.055 245.549 180.65L245.594 127.282C245.594 125.854 246.664 124.672 248.003 124.695L250.902 124.739C252.195 124.762 253.221 125.899 253.221 127.304C253.221 136.894 253.221 170.927 253.221 180.695C253.221 182.122 252.128 183.304 250.813 183.282Z" fill="#B4DBFF"/>
<path d="M261.205 183.215L258.261 183.17C256.99 183.148 255.942 182.011 255.942 180.606L255.986 111.202C255.986 109.775 257.079 108.615 258.395 108.615L261.294 108.66C262.588 108.682 263.636 109.819 263.636 111.224C263.636 122.621 263.636 169.053 263.636 180.628C263.636 182.078 262.543 183.237 261.205 183.215Z" fill="#B4DBFF"/>
<path d="M271.754 183.17L268.81 183.126C267.517 183.104 266.491 181.944 266.491 180.561L266.513 100.385C266.513 98.9581 267.606 97.7761 268.922 97.7984L271.843 97.843C273.137 97.8653 274.163 99.0027 274.163 100.408C274.163 112.897 274.163 167.871 274.163 180.583C274.163 182.033 273.07 183.193 271.754 183.17Z" fill="#0487FF"/>
<path d="M229.247 247.601L173.804 247.69C172.042 247.69 170.615 246.575 170.615 245.17V204.134C170.615 202.729 172.042 201.592 173.804 201.592L229.247 201.503C231.009 201.503 232.436 202.618 232.436 204.023V245.058C232.436 246.464 231.009 247.601 229.247 247.601Z" fill="white"/>
<path d="M186.695 244.166L181.721 244.189V214.549H186.695V244.166Z" fill="#0487FF"/>
<path d="M186.695 244.166L181.721 244.189V225.054H186.695V244.166Z" fill="#52D180"/>
<path d="M196.039 244.166H191.066V218.898H196.039V244.166Z" fill="#0487FF"/>
<path d="M196.039 244.166H191.066V229.692L196.039 229.67V244.166Z" fill="#52D180"/>
<path d="M204.759 244.278H199.786V221.351L204.759 221.329V244.278Z" fill="#0487FF"/>
<path d="M204.759 244.278H199.786V233.64L204.759 233.618V244.278Z" fill="#52D180"/>
<path d="M213.702 244.523L208.729 244.545V214.906H213.702V244.523Z" fill="#0487FF"/>
<path d="M213.702 244.523L208.729 244.545V219.835L213.702 219.813V244.523Z" fill="#52D180"/>
<path d="M222.735 244.389H217.761V216.802H222.735V244.389Z" fill="#0487FF"/>
<path d="M222.735 244.389H217.761V226.236L222.735 226.213V244.389Z" fill="#52D180"/>
<path d="M177.93 245.17C177.35 245.17 176.792 244.947 176.413 244.568C176.056 244.211 175.878 243.765 175.878 243.274L176.056 208.238C176.056 207.836 176.391 207.502 176.792 207.502C176.807 207.502 176.815 207.502 176.815 207.502C177.216 207.502 177.551 207.836 177.551 208.238L177.35 243.297C177.35 243.386 177.417 243.475 177.461 243.52C177.573 243.631 177.729 243.698 177.93 243.698L226.637 243.609C227.039 243.609 227.373 243.921 227.373 244.345C227.373 244.746 227.039 245.081 226.637 245.081L177.93 245.17Z" fill="#263238"/>
<path d="M207.703 206.877L181.721 206.9V204.58L207.703 204.558V206.877Z" fill="#B4DBFF"/>
<path d="M207.792 210.424L181.811 210.446V208.126L207.792 208.104V210.424Z" fill="#B4DBFF"/>
<path d="M96.775 185.258H96.7727C95.6346 185.258 94.8418 184.469 94.8418 183.371V92.9143C94.8418 91.4377 96.2577 90.0501 97.77 90.069H97.7742L156.183 90.3143H156.185C157.295 90.3143 158.094 91.1194 158.094 92.2007V182.658C158.094 184.135 156.698 185.525 155.16 185.525H155.159L96.775 185.258Z" fill="white" stroke="#263238"/>
<path d="M150.502 124.948L150.5 124.972V124.996C150.5 138.773 139.061 148.996 125.5 148.996C111.938 148.996 101 139.273 101 125.496C101 111.679 111.978 100.496 125.5 100.496C132.295 100.496 138.922 102.835 143.657 107.056C148.381 111.269 151.236 117.365 150.502 124.948Z" fill="#B4DBFF" stroke="black"/>
<path d="M151.341 120.728L151.342 120.73C152.54 129.01 149.252 137.052 143.265 142.523L127.326 124.891L144.789 107.514C148.228 111.008 150.602 115.531 151.341 120.728Z" fill="#52D180" stroke="#263238"/>
<path d="M128.243 99.2394L127.751 99.2153L127.72 99.7073L126.136 124.842L126.053 126.156L126.988 125.228L145.142 107.185L145.503 106.826L145.137 106.472C140.722 102.194 134.764 99.5575 128.243 99.2394Z" fill="#0487FF" stroke="#263238"/>
<path d="M133.522 123.626V123.629C134.083 127.51 131.256 131.244 127.157 131.918C123.085 132.568 119.35 129.923 118.812 126.053L118.811 126.051C118.251 122.168 121.078 118.435 125.175 117.784H125.178C129.248 117.112 132.984 119.755 133.522 123.626Z" fill="white" stroke="#263238"/>
<path d="M151.524 164.392L100.832 164.504V159.107L151.524 159.017V164.392Z" fill="#CADDFF"/>
<path d="M151.636 174.384L100.943 174.473V169.098L151.636 168.986V174.384Z" fill="#CADDFF"/>
<path d="M332.215 211.918L248.226 212.029V205.45L332.215 205.339V211.918Z" fill="#E9E9E9"/>
<path d="M332.616 222.4L248.604 222.511V215.932L332.616 215.821V222.4Z" fill="#E9E9E9"/>
<path d="M332.75 233.328L248.738 233.439V226.86L332.75 226.748V233.328Z" fill="#E9E9E9"/>
<path d="M332.75 243.497L248.738 243.609V237.03L332.75 236.918V243.497Z" fill="#E9E9E9"/>
<path d="M326.461 96.7725H289.64V90.6172H326.461V96.7725Z" fill="#B4DBFF"/>
<path d="M336.72 113.588L289.64 113.566V107.433H336.72V113.588Z" fill="#B4DBFF"/>
<path d="M336.72 123.557L289.64 123.535V117.402H336.72V123.557Z" fill="#B4DBFF"/>
<path d="M336.72 143.696L289.64 143.674V137.541H336.72V143.696Z" fill="#B4DBFF"/>
<path d="M336.72 153.776L289.64 153.754V147.599L336.72 147.621V153.776Z" fill="#B4DBFF"/>
<path d="M336.72 163.745L289.64 163.723V157.278L336.72 157.3V163.745Z" fill="#B4DBFF"/>
<path d="M147.131 217.783C147.153 227.351 139.392 235.089 129.824 235.089C120.257 235.112 112.496 227.373 112.496 217.828C112.496 208.282 120.234 200.544 129.802 200.521C139.37 200.521 147.131 208.238 147.131 217.783Z" fill="#0487FF"/>
<path fill-rule="evenodd" clip-rule="evenodd" d="M129.824 235.825C125.007 235.825 120.48 233.952 117.068 230.562C113.655 227.172 111.76 222.645 111.76 217.828C111.76 213.01 113.633 208.483 117.045 205.071C120.435 201.659 124.985 199.785 129.802 199.785C129.802 199.785 129.81 199.785 129.824 199.785C134.642 199.785 139.169 201.659 142.581 205.049C145.993 208.461 147.867 212.988 147.867 217.783C147.889 222.6 146.016 227.127 142.603 230.54C139.191 233.952 134.664 235.825 129.824 235.825ZM129.824 201.257C129.81 201.257 129.802 201.257 129.802 201.257C125.364 201.257 121.216 202.997 118.071 206.119C114.949 209.241 113.232 213.412 113.232 217.828C113.232 222.243 114.971 226.392 118.094 229.514C121.238 232.636 125.386 234.353 129.824 234.353C134.262 234.353 138.433 232.636 141.555 229.492C144.677 226.369 146.395 222.221 146.395 217.805C146.395 213.367 144.677 209.219 141.533 206.097C138.411 202.974 134.24 201.257 129.824 201.257Z" fill="#263238"/>
<path d="M128.576 226.102C128.308 226.102 128.04 225.945 127.929 225.7L122.331 214.794C122.153 214.438 122.286 213.992 122.666 213.813C123.022 213.612 123.468 213.769 123.647 214.125L128.33 223.269C129.981 217.047 132.099 212.408 134.798 209.152C135.065 208.818 135.534 208.773 135.846 209.041C136.158 209.308 136.203 209.777 135.935 210.089C133.17 213.456 130.917 218.653 129.289 225.522C129.222 225.834 128.977 226.057 128.665 226.079C128.635 226.094 128.605 226.102 128.576 226.102Z" fill="white"/>
<mask id="mask2_528_7812" style="mask-type:luminance" maskUnits="userSpaceOnUse" x="263" y="167" width="182" height="273">
<path d="M444.53 439.94H263.625V167.983H444.53V439.94Z" fill="white"/>
</mask>
<g mask="url(#mask2_528_7812)">
<path d="M276.149 217.203C276.074 217.203 275.999 217.188 275.925 217.158C275.523 217.047 275.3 216.623 275.434 216.244L276.349 213.3C276.461 212.899 276.885 212.698 277.264 212.81C277.665 212.921 277.887 213.345 277.753 213.724L276.839 216.69C276.75 217.002 276.461 217.203 276.149 217.203Z" fill="#263238"/>
<path d="M279.337 206.9C279.262 206.9 279.195 206.885 279.136 206.855C278.735 206.744 278.512 206.32 278.645 205.941L279.56 202.997C279.671 202.595 280.095 202.372 280.474 202.506C280.876 202.618 281.099 203.041 280.965 203.421L280.05 206.364C279.961 206.677 279.649 206.9 279.337 206.9Z" fill="#263238"/>
<path d="M274.52 209.397C274.445 209.397 274.371 209.39 274.297 209.375L271.353 208.438C270.951 208.327 270.751 207.903 270.862 207.524C270.996 207.123 271.397 206.922 271.799 207.033L274.743 207.97C275.122 208.082 275.345 208.505 275.211 208.884C275.122 209.197 274.832 209.397 274.52 209.397Z" fill="#263238"/>
<path d="M284.824 212.676C284.75 212.676 284.676 212.661 284.601 212.631L281.657 211.695C281.278 211.583 281.055 211.159 281.189 210.78C281.301 210.379 281.724 210.178 282.103 210.29L285.047 211.226C285.449 211.338 285.649 211.761 285.538 212.141C285.426 212.475 285.136 212.676 284.824 212.676Z" fill="#263238"/>
<path d="M375.57 205.874C374.455 205.428 370.374 204.179 367.898 200.41C366.136 197.733 364.798 193.273 366.783 190.552C367.296 189.883 368.924 188.054 376.663 188.367C386.476 188.768 393.367 192.002 393.367 192.002C409.335 199.495 409.982 215.82 419.237 220.392C427.556 224.473 430.991 221.753 438.239 229.67C450.036 242.583 445.108 279.113 419.594 288.837C399.634 296.464 392.832 291.179 381.726 278.98C363.616 259.042 389.085 211.404 375.57 205.874Z" fill="#263238"/>
<path d="M326.088 405.09C328.392 386.058 333.832 362.936 338.701 344.558C341.134 335.373 343.424 327.378 345.105 321.679C345.945 318.83 346.634 316.556 347.112 314.993C347.351 314.212 347.537 313.609 347.664 313.202C347.698 313.093 347.727 312.998 347.753 312.918C347.877 312.913 348.032 312.907 348.218 312.9C348.748 312.881 349.52 312.856 350.489 312.832C352.426 312.783 355.15 312.736 358.293 312.746C364.584 312.765 372.537 313.01 379.228 313.909C385.983 314.817 390.714 314.802 393.767 314.556C395.294 314.433 396.401 314.253 397.132 314.101C397.463 314.032 397.717 313.969 397.898 313.92C397.956 313.993 398.025 314.082 398.106 314.187C398.372 314.534 398.753 315.057 399.211 315.753C400.125 317.145 401.34 319.23 402.532 321.984C404.914 327.491 407.205 335.68 406.806 346.38C406.602 351.726 404.991 361.416 402.69 373.319C400.821 382.985 398.503 394.081 396.129 405.446C395.583 408.062 395.034 410.692 394.486 413.322C391.561 427.376 388.687 441.432 386.601 453.31C384.56 464.929 383.262 474.519 383.422 479.986C383.406 479.993 383.39 480.001 383.373 480.008C383.145 480.109 382.807 480.252 382.367 480.418C381.487 480.751 380.206 481.176 378.609 481.54C375.503 482.25 371.212 482.731 366.361 481.871L370.584 359.685L369.612 359.504L370.084 359.668C369.612 359.504 369.612 359.504 369.611 359.504V359.505L369.61 359.509L369.605 359.523L369.586 359.578L369.512 359.793C369.446 359.982 369.35 360.262 369.226 360.625C368.978 361.35 368.62 362.404 368.176 363.724C367.29 366.362 366.065 370.061 364.712 374.299C362.007 382.774 358.786 393.421 356.729 402.082C355.066 409.091 352.787 414.863 350.924 418.881C349.993 420.89 349.167 422.46 348.574 423.526C348.278 424.059 348.04 424.466 347.877 424.738C347.796 424.874 347.733 424.977 347.691 425.045C347.669 425.08 347.654 425.105 347.643 425.122L347.631 425.14L347.629 425.144L347.628 425.145L347.548 425.27L347.55 425.418L348.05 425.414C347.55 425.418 347.55 425.418 347.55 425.418V425.419V425.424V425.441V425.511C347.55 425.573 347.551 425.666 347.55 425.789C347.55 426.034 347.549 426.399 347.545 426.872C347.537 427.819 347.518 429.202 347.471 430.948C347.376 434.44 347.173 439.379 346.734 445.167C345.863 456.67 344.067 471.505 340.371 484.983C340.334 484.993 340.293 485.004 340.248 485.017C339.995 485.086 339.621 485.183 339.148 485.291C338.2 485.508 336.851 485.771 335.253 485.952C332.138 486.306 328.108 486.348 324.262 485.167C324.26 485.124 324.257 485.076 324.254 485.025C324.234 484.706 324.206 484.233 324.173 483.617C324.105 482.385 324.013 480.582 323.918 478.3C323.727 473.734 323.52 467.249 323.457 459.574C323.332 444.221 323.783 424.117 326.088 405.09Z" fill="white"/>
<path d="M326.088 405.09L325.591 405.03M326.088 405.09C328.392 386.058 333.832 362.936 338.701 344.558C341.134 335.373 343.424 327.378 345.105 321.679C345.945 318.83 346.634 316.556 347.112 314.993C347.351 314.212 347.537 313.609 347.664 313.202C347.698 313.093 347.727 312.998 347.753 312.918C347.877 312.913 348.032 312.907 348.218 312.9C348.748 312.881 349.52 312.856 350.489 312.832C352.426 312.783 355.15 312.736 358.293 312.746C364.584 312.765 372.537 313.01 379.228 313.909C385.983 314.817 390.714 314.802 393.767 314.556C395.294 314.433 396.401 314.253 397.132 314.101C397.463 314.032 397.717 313.969 397.898 313.92C397.956 313.993 398.025 314.082 398.106 314.187C398.372 314.534 398.753 315.057 399.211 315.753C400.125 317.145 401.34 319.23 402.532 321.984C404.914 327.491 407.205 335.68 406.806 346.38C406.602 351.726 404.991 361.416 402.69 373.319C400.821 382.985 398.503 394.081 396.129 405.446C395.583 408.062 395.034 410.692 394.486 413.322C391.561 427.376 388.687 441.432 386.601 453.31C384.56 464.929 383.262 474.519 383.422 479.986C383.406 479.993 383.39 480.001 383.373 480.008C383.145 480.109 382.807 480.252 382.367 480.418C381.487 480.751 380.206 481.176 378.609 481.54C375.503 482.25 371.212 482.731 366.361 481.871L370.584 359.685L369.612 359.504L370.084 359.668C369.612 359.504 369.612 359.504 369.611 359.504V359.505L369.61 359.509L369.605 359.523L369.586 359.578L369.512 359.793C369.446 359.982 369.35 360.262 369.226 360.625C368.978 361.35 368.62 362.404 368.176 363.724C367.29 366.362 366.065 370.061 364.712 374.299C362.007 382.774 358.786 393.421 356.729 402.082M326.088 405.09C323.783 424.117 323.332 444.221 323.457 459.574C323.52 467.249 323.727 473.734 323.918 478.3C324.013 480.582 324.105 482.385 324.173 483.617C324.206 484.233 324.234 484.706 324.254 485.025C324.257 485.076 324.26 485.124 324.262 485.167C328.108 486.348 332.138 486.306 335.253 485.952C336.851 485.771 338.2 485.508 339.148 485.291C339.621 485.183 339.995 485.086 340.248 485.017C340.293 485.004 340.334 484.993 340.371 484.983C344.067 471.505 345.863 456.67 346.734 445.167C347.173 439.379 347.376 434.44 347.471 430.948C347.518 429.202 347.537 427.819 347.545 426.872C347.549 426.399 347.55 426.034 347.55 425.789C347.551 425.666 347.55 425.573 347.55 425.511V425.441V425.424V425.419V425.418M356.729 402.082L357.216 402.198M356.729 402.082C355.066 409.091 352.787 414.863 350.924 418.881C349.993 420.89 349.167 422.46 348.574 423.526C348.278 424.059 348.04 424.466 347.877 424.738C347.796 424.874 347.733 424.977 347.691 425.045C347.669 425.08 347.654 425.105 347.643 425.122L347.631 425.14L347.629 425.144L347.628 425.145L347.548 425.27L347.55 425.418M347.55 425.418L348.05 425.414C347.55 425.418 347.55 425.418 347.55 425.418Z" stroke="#263238"/>
<path d="M381.949 417.452C379.808 417.452 378.202 417.051 378.068 417.006C377.689 416.917 377.444 416.516 377.533 416.114C377.645 415.735 378.046 415.49 378.447 415.579C378.492 415.601 384.514 417.073 388.617 414.04C388.952 413.795 389.42 413.862 389.665 414.196C389.911 414.509 389.844 414.977 389.509 415.222C387.101 417.006 384.224 417.452 381.949 417.452Z" fill="#263238"/>
<path d="M289.351 220.437C289.351 220.437 280.987 212.72 278.623 210.735C275.925 208.505 282.103 207.769 290.02 215.017L289.351 220.437Z" fill="white"/>
<path fill-rule="evenodd" clip-rule="evenodd" d="M289.909 221.953L288.839 220.972C288.772 220.905 280.475 213.256 278.156 211.315C277.442 210.735 277.152 210.156 277.264 209.576C277.309 209.308 277.487 208.817 278.201 208.594C279.873 208.037 284.69 209.13 290.534 214.46L290.801 214.728L289.909 221.953ZM278.847 209.933C278.907 209.992 278.996 210.066 279.115 210.156C280.988 211.717 286.475 216.757 288.816 218.92L289.262 215.285C284.155 210.735 279.985 209.71 278.847 209.933Z" fill="#263238"/>
<path d="M288.659 218.876C288.592 219.299 288.547 219.723 288.48 220.147C288.347 220.861 288.168 222.6 289.216 223.693C290.22 224.786 295.126 227.44 297.446 228.666C298.249 229.09 298.94 229.67 299.498 230.361C300.278 231.32 298.182 241.557 298.182 241.557L306.612 238.568C306.612 238.568 305.586 224.585 303.735 218.898C301.884 213.233 297 210.535 295.729 210.713C294.48 210.892 294.078 213.3 294.078 213.3C294.078 213.3 291.357 211.204 289.685 212.319C288.815 212.921 289.239 213.925 289.105 214.884L288.659 218.876Z" fill="white"/>
<path fill-rule="evenodd" clip-rule="evenodd" d="M297.178 242.694L297.446 241.423C298.36 236.963 299.163 231.677 298.896 230.785C298.405 230.183 297.803 229.692 297.112 229.313C293.811 227.573 289.685 225.276 288.659 224.206C287.388 222.868 287.589 220.838 287.745 220.013C287.812 219.612 287.879 219.188 287.923 218.786L288.369 214.794C288.414 214.549 288.391 214.304 288.391 214.036C288.369 213.322 288.325 212.363 289.284 211.717C290.689 210.735 292.54 211.494 293.632 212.118C293.945 211.248 294.525 210.133 295.64 209.977C297.379 209.732 302.509 212.765 304.449 218.675C306.3 224.384 307.304 237.922 307.348 238.501L307.37 239.059L297.178 242.694ZM290.845 212.72C290.577 212.72 290.309 212.787 290.109 212.943C289.863 213.099 289.841 213.3 289.863 213.991C289.886 214.281 289.886 214.638 289.841 214.995L289.373 218.965C289.328 219.389 289.284 219.835 289.194 220.281C289.083 220.86 288.927 222.332 289.752 223.202C290.399 223.894 293.409 225.7 297.803 228.019C298.695 228.488 299.453 229.112 300.078 229.893C300.702 230.673 300.39 234.219 299.163 240.442L305.832 238.055C305.609 235.401 304.627 224.027 303.044 219.143C301.237 213.612 296.599 211.36 295.84 211.449C295.394 211.494 294.948 212.631 294.814 213.412L294.614 214.638L293.632 213.88C293.164 213.523 291.871 212.72 290.845 212.72Z" fill="#263238"/>
<path d="M296.242 224.63C295.461 224.63 294.748 224.206 294.257 223.47C292.986 221.552 293.276 219.634 293.276 219.545C293.343 219.143 293.722 218.876 294.123 218.92C294.525 218.987 294.814 219.366 294.748 219.768C294.748 219.79 294.547 221.24 295.484 222.645C295.64 222.89 295.974 223.269 296.443 223.135C297.045 222.957 297.691 222.02 297.758 220.281C297.87 217.671 294.703 214.683 293.476 213.768C293.142 213.523 293.075 213.055 293.32 212.72C293.566 212.408 294.034 212.341 294.368 212.586C294.569 212.743 299.386 216.445 299.23 220.348C299.141 222.979 297.937 224.25 296.822 224.54C296.628 224.6 296.435 224.63 296.242 224.63Z" fill="#263238"/>
<path fill-rule="evenodd" clip-rule="evenodd" d="M407.463 329.783C407.299 329.783 407.151 329.776 407.017 329.761C403.27 329.092 400.728 326.75 399.546 325.39C398.275 323.94 396.334 322.691 396.022 322.491L393.859 321.576C391.74 320.662 387.235 319.636 387.191 319.636C386.856 319.547 386.611 319.257 386.633 318.9C386.633 318.543 386.901 318.253 387.235 318.186L388.997 317.896C386.187 317.004 385.317 315.421 385.273 315.332C385.139 315.086 385.161 314.819 385.295 314.596C385.429 314.373 385.674 314.239 385.919 314.239C385.919 314.239 385.927 314.239 385.942 314.239L391.74 314.373C389.198 312.878 388.885 310.938 388.863 310.827C388.819 310.581 388.908 310.336 389.108 310.18C389.287 310.024 389.532 309.957 389.778 310.002L403.07 313.28C403.27 313.325 403.426 313.436 403.516 313.614L407.686 320.305L418.859 310.18C419.015 310.024 419.238 309.957 419.461 310.002C419.684 310.024 419.885 310.158 419.997 310.358L426.219 321.398C426.308 321.576 426.331 321.777 426.286 321.978C426.219 322.178 426.085 322.335 425.907 322.424C424.39 323.204 411.433 329.783 407.463 329.783ZM390.937 319.056C392.186 319.391 393.502 319.814 394.439 320.216L396.669 321.153C396.699 321.167 396.728 321.19 396.758 321.219C396.847 321.264 399.122 322.669 400.661 324.431C401.709 325.635 403.962 327.732 407.262 328.311C409.359 328.668 418.681 324.431 424.546 321.465L419.149 311.897L408.021 321.978C407.864 322.134 407.641 322.201 407.418 322.178C407.195 322.134 407.017 322.022 406.905 321.822L402.423 314.64L390.937 311.83C391.718 312.767 393.39 314.016 397.026 314.484C397.427 314.551 397.695 314.886 397.672 315.287C397.65 315.666 397.316 315.956 396.914 315.956L387.837 315.755C388.975 316.447 390.982 317.16 394.394 316.982C394.795 316.96 395.13 317.25 395.175 317.629C395.219 318.03 394.952 318.365 394.55 318.432L390.937 319.056Z" fill="#263238"/>
<path d="M419.349 310.715L407.529 321.442L402.89 313.994L389.598 310.715C389.598 310.715 390.111 314.35 396.936 315.22L385.918 314.975C385.918 314.975 387.569 318.075 394.438 317.718L387.368 318.922C387.368 318.922 391.94 319.948 394.148 320.885C396.378 321.844 396.378 321.844 396.378 321.844C396.378 321.844 398.631 323.227 400.103 324.922C401.574 326.594 403.938 328.468 407.15 329.025C410.339 329.583 425.571 321.755 425.571 321.755L419.349 310.715Z" fill="white"/>
<path fill-rule="evenodd" clip-rule="evenodd" d="M407.976 321.086C405.79 323.539 401.352 323.093 392.565 322.134C385.051 321.315 380.944 320.015 377.307 318.863C374.305 317.912 371.623 317.063 367.609 316.67C359.379 315.856 353.669 317.763 349.289 319.226C345.267 320.57 342.366 321.538 339.665 319.681C336.208 317.317 333.376 310.581 338.483 289.841C339.689 284.103 340.883 278.322 342.066 272.497C329.286 281.823 316.318 284.818 308.687 279.894C303.959 276.838 301.817 271.107 300.011 266.223C295.662 254.492 295.351 245.103 296.421 239.773C300.012 237.788 304.85 236.271 309.222 235.312C309.365 235.846 309.465 236.225 309.54 236.51C309.655 236.951 309.711 237.166 309.781 237.376C309.847 237.576 309.926 237.772 310.08 238.155C310.293 238.685 310.65 239.575 311.319 241.334C315.2 251.459 317.14 256.499 320.686 257.28C325.012 258.239 330.676 253.02 334.869 245.437L339.576 240.04C342.252 236.94 345.709 234.621 349.589 233.305C360.584 232.346 369.929 232.792 376.998 233.528C386.231 234.487 393.234 236.137 396.089 236.851C402.295 238.398 407.725 240.244 412.49 242.092L412.541 242C412.541 242 412.724 242.106 413.06 242.314C413.459 242.471 413.853 242.627 414.243 242.783C414.197 242.85 414.151 242.917 414.106 242.984C420.21 246.997 442.059 263.039 441.579 286.76C441.022 314.347 423.559 323.424 423.559 323.424L413.746 309.932C413.746 309.932 431.313 290.78 406.704 272.87C406.841 274.361 407.012 276.115 407.201 278.058C408.618 292.593 411.059 317.648 407.976 321.086Z" fill="#E9E9E9"/>
<mask id="mask3_528_7812" style="mask-type:luminance" maskUnits="userSpaceOnUse" x="295" y="232" width="147" height="92">
<path fill-rule="evenodd" clip-rule="evenodd" d="M407.976 321.086C405.79 323.539 401.352 323.093 392.565 322.134C385.051 321.315 380.944 320.015 377.307 318.863C374.305 317.912 371.623 317.063 367.609 316.67C359.379 315.856 353.669 317.763 349.289 319.226C345.267 320.57 342.366 321.538 339.665 319.681C336.208 317.317 333.376 310.581 338.483 289.841C339.689 284.103 340.883 278.322 342.066 272.497C329.286 281.823 316.318 284.818 308.687 279.894C303.959 276.838 301.817 271.107 300.011 266.223C295.662 254.492 295.351 245.103 296.421 239.773C300.012 237.788 304.85 236.271 309.222 235.312C309.365 235.846 309.465 236.225 309.54 236.51C309.655 236.951 309.711 237.166 309.781 237.376C309.847 237.576 309.926 237.772 310.08 238.155C310.293 238.685 310.65 239.575 311.319 241.334C315.2 251.459 317.14 256.499 320.686 257.28C325.012 258.239 330.676 253.02 334.869 245.437L339.576 240.04C342.252 236.94 345.709 234.621 349.589 233.305C360.584 232.346 369.929 232.792 376.998 233.528C386.231 234.487 393.234 236.137 396.089 236.851C402.295 238.398 407.725 240.244 412.49 242.092L412.541 242C412.541 242 412.724 242.106 413.06 242.314C413.459 242.471 413.853 242.627 414.243 242.783C414.197 242.85 414.151 242.917 414.106 242.984C420.21 246.997 442.059 263.039 441.579 286.76C441.022 314.347 423.559 323.424 423.559 323.424L413.746 309.932C413.746 309.932 431.313 290.78 406.704 272.87C406.841 274.361 407.012 276.115 407.201 278.058C408.618 292.593 411.059 317.648 407.976 321.086Z" fill="white"/>
</mask>
<g mask="url(#mask3_528_7812)">
<path d="M392.565 322.134L392.674 321.14H392.673L392.565 322.134ZM407.976 321.086L407.231 320.418L407.229 320.42L407.976 321.086ZM339.665 319.681L340.232 318.857L340.229 318.855L339.665 319.681ZM338.483 289.841L339.454 290.08L339.458 290.063L339.461 290.046L338.483 289.841ZM342.066 272.497L343.046 272.696L343.558 270.17L341.476 271.689L342.066 272.497ZM300.012 266.223L300.95 265.876V265.875L300.012 266.223ZM296.421 239.773L295.938 238.897L295.532 239.121L295.441 239.576L296.421 239.773ZM309.223 235.312L310.188 235.052L309.94 234.131L309.008 234.335L309.223 235.312ZM311.319 241.334L310.384 241.689L310.385 241.692L311.319 241.334ZM320.686 257.28L320.902 256.303H320.901L320.686 257.28ZM334.87 245.437L334.116 244.78L334.046 244.86L333.995 244.953L334.87 245.437ZM339.576 240.04L340.329 240.697L340.333 240.694L339.576 240.04ZM349.589 233.305L350.578 233.452L350.819 231.832L349.268 232.358L349.589 233.305ZM349.589 233.305L348.6 233.158L348.414 234.411L349.676 234.301L349.589 233.305ZM412.49 242.092L412.128 243.024L412.932 243.336L413.359 242.586L412.49 242.092ZM412.542 242L413.044 241.135L412.172 240.628L411.673 241.505L412.542 242ZM413.06 242.314L412.532 243.164L412.61 243.212L412.695 243.245L413.06 242.314ZM414.243 242.783L415.066 243.351L415.776 242.321L414.615 241.855L414.243 242.783ZM414.106 242.984L413.274 242.43L412.716 243.267L413.557 243.82L414.106 242.984ZM423.559 323.424L422.75 324.013L423.257 324.709L424.02 324.312L423.559 323.424ZM413.746 309.932L413.009 309.256L412.456 309.858L412.937 310.52L413.746 309.932ZM406.704 272.87L407.292 272.062L405.506 270.762L405.708 272.962L406.704 272.87ZM407.201 278.058L408.197 277.968V277.961L407.201 278.058ZM407.201 278.058L406.205 278.149L406.206 278.156L407.201 278.058ZM392.457 323.128C396.822 323.604 400.209 323.967 402.776 323.889C405.346 323.811 407.352 323.289 408.722 321.751L407.229 320.42C406.414 321.335 405.108 321.817 402.716 321.89C400.32 321.962 397.095 321.622 392.674 321.14L392.457 323.128ZM377.005 319.816C380.671 320.977 384.849 322.299 392.457 323.128L392.673 321.14C385.254 320.331 381.218 319.052 377.609 317.91L377.005 319.816ZM367.511 317.665C371.413 318.047 374.011 318.868 377.005 319.816L377.609 317.91C374.599 316.957 371.832 316.079 367.707 315.675L367.511 317.665ZM349.606 320.175C353.96 318.72 359.501 316.873 367.511 317.665L367.708 315.675C359.256 314.839 353.377 316.806 348.972 318.278L349.606 320.175ZM339.098 320.505C340.69 321.6 342.347 321.846 344.094 321.647C345.786 321.455 347.626 320.836 349.606 320.175L348.972 318.278C346.929 318.96 345.308 319.497 343.869 319.66C342.485 319.817 341.341 319.619 340.232 318.857L339.098 320.505ZM337.512 289.601C334.947 300.02 334.348 307.02 334.868 311.761C335.392 316.531 337.064 319.113 339.1 320.506L340.229 318.855C338.809 317.884 337.336 315.917 336.856 311.543C336.373 307.14 336.912 300.402 339.454 290.08L337.512 289.601ZM341.086 272.298C339.904 278.121 338.71 283.9 337.504 289.635L339.461 290.046C340.668 284.306 341.863 278.523 343.046 272.696L341.086 272.298ZM308.145 280.734C312.263 283.392 317.716 283.849 323.664 282.515C329.623 281.179 336.184 278.027 342.655 273.305L341.476 271.689C335.168 276.293 328.855 279.301 323.227 280.563C317.589 281.828 312.742 281.32 309.23 279.054L308.145 280.734ZM299.074 266.57C300.854 271.382 303.088 277.466 308.145 280.734L309.23 279.054C304.831 276.211 302.783 270.832 300.95 265.876L299.074 266.57ZM295.441 239.576C294.326 245.126 294.676 254.707 299.074 266.57L300.95 265.875C296.65 254.277 296.376 245.079 297.402 239.969L295.441 239.576ZM309.008 234.335C304.593 235.304 299.648 236.846 295.938 238.897L296.905 240.648C300.376 238.729 305.11 237.238 309.437 236.289L309.008 234.335ZM310.507 236.257C310.433 235.972 310.333 235.59 310.188 235.052L308.257 235.572C308.4 236.102 308.498 236.479 308.572 236.763L310.507 236.257ZM310.73 237.061C310.673 236.889 310.626 236.71 310.507 236.257L308.572 236.763C308.685 237.192 308.75 237.443 308.832 237.691L310.73 237.061ZM311.008 237.782C310.85 237.389 310.785 237.225 310.73 237.061L308.832 237.691C308.91 237.927 309.002 238.155 309.152 238.527L311.008 237.782ZM312.254 240.978C311.582 239.213 311.222 238.317 311.008 237.782L309.152 238.527C309.363 239.054 309.718 239.938 310.384 241.689L312.254 240.978ZM320.901 256.303C319.58 256.012 318.394 254.908 317.008 252.337C315.633 249.784 314.203 246.065 312.253 240.976L310.385 241.692C312.315 246.727 313.796 250.592 315.248 253.285C316.689 255.96 318.246 257.766 320.471 258.256L320.901 256.303ZM333.995 244.953C331.938 248.674 329.542 251.769 327.176 253.803C324.771 255.87 322.596 256.679 320.902 256.303L320.469 258.256C323.102 258.84 325.923 257.518 328.48 255.32C331.076 253.089 333.609 249.784 335.745 245.921L333.995 244.953ZM338.822 239.383L334.116 244.78L335.624 246.094L340.329 240.697L338.822 239.383ZM349.268 232.358C345.22 233.731 341.612 236.151 338.819 239.387L340.333 240.694C342.891 237.73 346.197 235.511 349.91 234.252L349.268 232.358ZM377.102 232.533C369.983 231.792 360.573 231.343 349.502 232.309L349.676 234.301C360.595 233.349 369.875 233.792 376.895 234.523L377.102 232.533ZM396.331 235.881C393.451 235.161 386.399 233.499 377.102 232.533L376.895 234.523C386.064 235.475 393.017 237.114 395.846 237.821L396.331 235.881ZM412.851 241.16C408.057 239.3 402.586 237.439 396.331 235.881L395.846 237.821C402.003 239.356 407.394 241.188 412.128 243.024L412.851 241.16ZM413.359 242.586L413.411 242.494L411.673 241.505L411.62 241.597L413.359 242.586ZM412.542 242C412.039 242.864 412.039 242.864 412.039 242.864L412.04 242.865C412.041 242.865 412.043 242.866 412.045 242.868C412.05 242.87 412.057 242.875 412.067 242.881C412.087 242.893 412.119 242.911 412.16 242.936C412.244 242.986 412.369 243.062 412.532 243.164L413.588 241.465C413.415 241.358 413.281 241.277 413.19 241.221C413.144 241.194 413.108 241.173 413.084 241.159C413.072 241.151 413.062 241.146 413.056 241.142C413.052 241.14 413.05 241.138 413.048 241.137C413.047 241.137 413.046 241.136 413.046 241.136C413.045 241.136 413.045 241.136 413.045 241.135C413.045 241.135 413.045 241.135 413.044 241.135C413.044 241.135 413.044 241.135 412.542 242ZM414.615 241.855C414.223 241.698 413.826 241.541 413.425 241.383L412.695 243.245C413.091 243.401 413.483 243.556 413.871 243.712L414.615 241.855ZM414.938 243.539C414.98 243.476 415.023 243.413 415.066 243.351L413.419 242.216C413.37 242.287 413.322 242.358 413.274 242.43L414.938 243.539ZM413.557 243.82C416.565 245.798 423.463 250.748 429.54 258.118C435.618 265.489 440.813 275.203 440.579 286.74L442.579 286.78C442.825 274.595 437.335 264.428 431.083 256.845C424.829 249.261 417.751 244.184 414.656 242.149L413.557 243.82ZM440.579 286.74C440.305 300.308 435.88 309.268 431.57 314.825C429.41 317.609 427.272 319.548 425.682 320.786C424.887 321.405 424.23 321.849 423.777 322.135C423.55 322.278 423.375 322.381 423.259 322.448C423.201 322.481 423.158 322.505 423.131 322.519C423.117 322.527 423.107 322.532 423.102 322.535C423.099 322.536 423.097 322.537 423.097 322.538C423.097 322.537 423.098 322.537 423.559 323.424C424.02 324.312 424.021 324.311 424.022 324.311L424.023 324.31C424.024 324.309 424.026 324.309 424.028 324.308C424.031 324.306 424.036 324.303 424.042 324.3C424.053 324.294 424.068 324.286 424.088 324.276C424.127 324.254 424.182 324.224 424.252 324.184C424.392 324.104 424.592 323.985 424.844 323.826C425.348 323.508 426.06 323.027 426.911 322.364C428.612 321.038 430.874 318.984 433.15 316.05C437.71 310.172 442.296 300.8 442.579 286.78L440.579 286.74ZM424.368 322.836L414.555 309.343L412.937 310.52L422.75 324.013L424.368 322.836ZM413.746 309.932C414.483 310.608 414.484 310.607 414.484 310.607C414.484 310.606 414.485 310.606 414.485 310.605C414.487 310.604 414.488 310.602 414.489 310.601C414.493 310.597 414.497 310.593 414.502 310.587C414.512 310.575 414.527 310.559 414.545 310.538C414.582 310.497 414.634 310.437 414.7 310.359C414.832 310.204 415.018 309.978 415.244 309.686C415.695 309.102 416.307 308.253 416.961 307.179C418.265 305.035 419.75 301.967 420.436 298.301C421.125 294.624 421.008 290.349 419.108 285.829C417.209 281.314 413.56 276.623 407.292 272.062L406.115 273.679C412.153 278.073 415.535 282.492 417.264 286.604C418.992 290.713 419.098 294.583 418.47 297.933C417.841 301.293 416.473 304.133 415.252 306.14C414.643 307.141 414.075 307.928 413.662 308.462C413.456 308.729 413.288 308.931 413.175 309.065C413.118 309.132 413.074 309.182 413.046 309.214C413.032 309.23 413.022 309.242 413.016 309.249C413.013 309.252 413.01 309.254 413.009 309.256C413.009 309.256 413.009 309.256 413.746 309.932ZM408.197 277.961C408.007 276.018 407.836 274.266 407.7 272.779L405.708 272.962C405.845 274.456 406.017 276.213 406.206 278.155L408.197 277.961ZM408.72 321.753C409.29 321.118 409.632 320.128 409.863 319.058C410.104 317.945 410.26 316.571 410.353 315.016C410.539 311.904 410.477 307.954 410.275 303.687C409.872 295.147 408.904 285.224 408.197 277.962L406.206 278.156C406.915 285.429 407.877 295.3 408.277 303.781C408.478 308.024 408.536 311.891 408.357 314.897C408.267 316.402 408.119 317.663 407.909 318.635C407.689 319.649 407.432 320.194 407.231 320.418L408.72 321.753Z" fill="#263238"/>
</g>
<path d="M367.52 234.152C370.999 233.595 373.497 230.495 373.319 226.994L373.029 221.53C369.728 221.262 366.985 219.701 366.985 218.653C367.007 218.162 368.212 213.189 368.97 211.137C368.323 210.624 367.543 209.197 368.925 208.327C370.308 207.435 373.408 201.859 373.408 201.859C377.222 197.443 378.314 203.666 381.169 204.201C383.154 204.558 384.224 205.762 383.466 208.327C382.73 210.914 384.135 209.62 385.607 208.884C387.057 208.148 388.038 208.728 387.235 211.07C386.455 213.412 383.533 214.817 383.533 214.817L382.173 217.515L385.072 230.763C385.607 233.283 387.414 235.334 389.845 236.182L393.837 237.609L372.828 248.604L362.681 234.955L367.52 234.152Z" fill="white"/>
<path fill-rule="evenodd" clip-rule="evenodd" d="M372.828 249.34C372.605 249.34 372.382 249.229 372.226 249.028L362.078 235.401C361.922 235.178 361.9 234.911 361.989 234.665C362.078 234.442 362.301 234.264 362.547 234.219L367.409 233.439C370.531 232.926 372.739 230.161 372.583 227.016L372.337 222.199C369.327 221.797 366.249 220.303 366.249 218.653C366.249 218.006 367.386 213.501 368.122 211.338C367.699 210.847 367.386 210.156 367.431 209.442C367.453 208.951 367.676 208.238 368.524 207.702C369.416 207.123 371.601 203.599 372.761 201.502C372.776 201.458 372.806 201.421 372.85 201.391C373.898 200.142 374.902 199.54 375.906 199.54C377.266 199.54 378.225 200.633 379.117 201.703C379.831 202.506 380.544 203.331 381.303 203.465C382.574 203.71 383.466 204.246 383.979 205.071C384.537 205.941 384.603 207.123 384.18 208.528C384.15 208.661 384.12 208.78 384.09 208.884C384.224 208.817 384.358 208.728 384.447 208.661C384.715 208.528 384.983 208.371 385.272 208.215C386.611 207.546 387.369 207.925 387.703 208.215C388.372 208.795 388.439 209.821 387.949 211.293C387.19 213.523 384.849 214.951 384.09 215.352L382.931 217.604L385.785 230.607C386.276 232.881 387.904 234.71 390.09 235.491L394.082 236.918C394.372 237.007 394.55 237.275 394.572 237.565C394.595 237.855 394.439 238.122 394.193 238.278L373.162 249.251C373.058 249.31 372.947 249.34 372.828 249.34ZM363.996 235.491L373.051 247.645L392.008 237.743L389.599 236.896C386.923 235.937 384.96 233.707 384.336 230.941L381.437 217.671C381.414 217.493 381.437 217.315 381.503 217.181L382.886 214.482C382.953 214.326 383.065 214.215 383.221 214.148C383.243 214.125 385.852 212.832 386.544 210.825C386.945 209.643 386.744 209.33 386.722 209.33C386.7 209.308 386.432 209.286 385.942 209.531C385.674 209.665 385.429 209.821 385.206 209.955C384.336 210.446 383.578 210.892 382.953 210.379C382.351 209.933 382.507 209.018 382.775 208.126C383.065 207.123 383.042 206.342 382.73 205.829C382.44 205.383 381.883 205.071 381.035 204.915C379.764 204.692 378.827 203.621 378.002 202.662C377.288 201.815 376.597 201.034 375.906 201.034C375.37 201.034 374.746 201.458 374.01 202.283C373.386 203.398 370.754 208.037 369.327 208.951C368.97 209.174 368.903 209.397 368.903 209.531C368.881 209.888 369.17 210.356 369.438 210.579C369.683 210.78 369.773 211.115 369.661 211.405C368.903 213.434 367.765 218.162 367.721 218.675C367.832 219.166 370.04 220.548 373.096 220.794C373.452 220.816 373.742 221.128 373.765 221.485L374.055 226.949C374.255 230.852 371.512 234.264 367.654 234.889L363.996 235.491Z" fill="#263238"/>
<path d="M374.21 222.422C373.794 222.422 373.348 222.362 372.872 222.243C372.47 222.154 372.225 221.753 372.314 221.351C372.403 220.972 372.805 220.704 373.206 220.816C376.262 221.53 377.533 218.898 377.577 218.786C377.756 218.407 378.202 218.251 378.559 218.43C378.938 218.586 379.094 219.032 378.916 219.411C378.403 220.548 376.797 222.422 374.21 222.422Z" fill="#263238"/>
</g>
<path d="M85.0478 438.675L156.642 439.491L106.294 316.166H59.4171C51.3972 316.166 45.1583 324.616 46.597 333.99L58.9746 414.433C61.2383 429.114 72.2462 438.675 85.0421 438.675H85.0478Z" stroke="#263238"/>
<path d="M65.6609 378.536C65.3041 378.536 64.9919 378.268 64.9473 377.911L58.9257 338.86C58.8811 338.437 59.1488 338.08 59.5502 338.013C59.9516 337.946 60.3308 338.214 60.3977 338.615L66.3969 377.688C66.4638 378.09 66.1739 378.469 65.7724 378.513C65.7427 378.528 65.7055 378.536 65.6609 378.536Z" fill="#263238"/>
<path d="M190.759 410.536C195.777 417.441 199.431 426.801 200.236 439.5H200.233H200.191H200.148H200.106H200.064H200.021H199.978H199.936H199.893H199.85H199.806H199.763H199.72H199.676H199.632H199.588H199.544H199.5H199.456H199.412H199.367H199.322H199.278H199.233H199.188H199.143H199.097H199.052H199.006H198.961H198.915H198.869H198.823H198.777H198.731H198.684H198.638H198.591H198.544H198.497H198.45H198.403H198.356H198.309H198.261H198.214H198.166H198.118H198.07H198.022H197.974H197.925H197.877H197.828H197.78H197.731H197.682H197.633H197.583H197.534H197.485H197.435H197.386H197.336H197.286H197.236H197.186H197.135H197.085H197.035H196.984H196.933H196.883H196.832H196.781H196.729H196.678H196.627H196.575H196.523H196.472H196.42H196.368H196.316H196.264H196.211H196.159H196.106H196.054H196.001H195.948H195.895H195.842H195.789H195.735H195.682H195.629H195.575H195.521H195.467H195.413H195.359H195.305H195.251H195.196H195.142H195.087H195.032H194.978H194.923H194.868H194.812H194.757H194.702H194.646H194.591H194.535H194.479H194.423H194.367H194.311H194.255H194.199H194.142H194.086H194.029H193.972H193.915H193.858H193.801H193.744H193.687H193.63H193.572H193.515H193.457H193.399H193.341H193.283H193.225H193.167H193.109H193.05H192.992H192.933H192.875H192.816H192.757H192.698H192.639H192.58H192.521H192.461H192.402H192.342H192.283H192.223H192.163H192.103H192.043H191.983H191.923H191.862H191.802H191.742H191.681H191.62H191.559H191.499H191.438H191.377H191.315H191.254H191.193H191.131H191.07H191.008H190.946H190.885H190.823H190.761H190.699H190.636H190.574H190.512H190.449H190.387H190.324H190.261H190.199H190.136H190.073H190.01H189.947H189.883H189.82H189.757H189.693H189.629H189.566H189.502H189.438H189.374H189.31H189.246H189.182H189.118H189.053H188.989H188.924H188.859H188.795H188.73H188.665H188.6H188.535H188.47H188.405H188.339H188.274H188.209H188.143H188.077H188.012H187.946H187.88H187.814H187.748H187.682H187.616H187.549H187.483H187.417H187.35H187.284H187.217H187.15H187.083H187.016H186.949H186.882H186.815H186.748H186.681H186.613H186.546H186.478H186.411H186.343H186.275H186.208H186.14H186.072H186.004H185.936H185.867H185.799H185.731H185.662H185.594H185.525H185.457H185.388H185.319H185.25H185.181H185.112H185.043H184.974H184.905H184.836H184.766H184.697H184.627H184.558H184.488H184.418H184.349H184.279H184.209H184.139H184.069H183.999H183.929H183.858H183.788H183.718H183.647H183.577H183.506H183.435H183.365H183.294H183.223H183.152H183.081H183.01H182.939H182.868H182.796H182.725H182.654H182.582H182.511H182.439H182.368H182.296H182.224H182.152H182.08H182.009H181.937H181.864H181.792H181.72H181.648H181.576H181.503H181.431H181.358H181.286H181.213H181.141H181.068H180.995H180.922H180.849H180.776H180.703H180.63H180.557H180.484H180.411H180.337H180.264H180.191H180.117H180.044H179.97H179.896H179.823H179.749H179.675H179.601H179.527H179.453H179.379H179.305H179.231H179.157H179.083H179.009H178.934H178.86H178.785H178.711H178.636H178.562H178.487H178.412H178.338H178.263H178.188H178.113H178.038H177.963H177.888H177.813H177.738H177.663H177.588H177.512H177.437H177.362H177.286H177.211H177.135H177.06H176.984H176.908H176.833H176.757H176.681H176.605H176.529H176.453H176.377H176.301H176.225H176.149H176.073H175.997H175.921H175.844H175.768H175.692H175.615H175.539H175.462H175.386H175.309H175.232H175.156H175.079H175.002H174.926H174.849H174.772H174.695H174.618H174.541H174.464H174.387H174.31H174.233H174.155H174.078H174.001H173.924H173.846H173.769H173.692H173.614H173.537H173.459H173.382H173.304H173.226H173.149H173.071H172.993H172.916H172.838H172.76H172.682H172.604H172.526H172.448H172.37H172.292H172.214H172.136H172.058H171.98H171.902H171.824H171.745H171.667H171.589H171.51H171.432H171.354H171.275H171.197H171.118H171.04H170.961H170.883H170.804H170.725H170.647H170.568H170.489H170.411H170.332H170.253H170.174H170.095H170.016H169.938H169.859H169.78H169.701H169.622H169.543H169.464H169.385H169.305H169.226H169.147H169.068H168.989H168.91H168.83H168.751H168.672H168.592H168.513H168.434H168.354H168.275H168.196H168.116H168.037H167.957H167.878H167.798H167.719H167.639H167.594C167.579 439.492 167.543 439.472 167.482 439.423C167.368 439.33 167.221 439.179 167.041 438.961C166.684 438.527 166.251 437.893 165.762 437.111C164.79 435.557 163.635 433.484 162.469 431.391L162.452 431.36C161.284 429.265 160.107 427.153 159.111 425.565C158.614 424.773 158.151 424.094 157.75 423.609C157.55 423.368 157.353 423.159 157.163 423.006C156.99 422.867 156.742 422.707 156.453 422.707C156.046 422.707 155.855 423.029 155.784 423.22C155.71 423.419 155.684 423.664 155.676 423.907C155.66 424.405 155.721 425.09 155.824 425.875C156.032 427.451 156.427 429.543 156.818 431.616L156.821 431.629C157.215 433.717 157.604 435.784 157.808 437.328C157.91 438.105 157.961 438.722 157.948 439.135C157.945 439.231 157.939 439.308 157.931 439.366C147.264 439.367 136.823 439.4 129.031 439.433C125.105 439.45 121.852 439.467 119.58 439.479C118.444 439.485 117.553 439.491 116.946 439.494L116.292 439.498C116.217 439.384 116.115 439.232 115.988 439.044C115.689 438.607 115.246 437.981 114.667 437.221C113.509 435.701 111.803 433.645 109.61 431.492C105.229 427.193 98.8666 422.475 91.004 420.932C83.36 419.432 77.154 416.061 73.1971 412.093C69.3628 408.248 67.7056 403.923 68.7183 400.203C78.7919 401.425 96.378 403.48 112.472 403.094C120.629 402.898 128.434 402.075 134.695 400.185C140.809 398.338 145.558 395.44 147.637 391C147.709 390.998 147.792 390.996 147.887 390.994C148.251 390.987 148.789 390.983 149.475 390.997C150.847 391.024 152.815 391.121 155.187 391.399C159.933 391.956 166.284 393.237 172.721 396.134C179.156 399.029 185.669 403.533 190.759 410.536Z" fill="white" stroke="#263238"/>
<path d="M194.144 312.99C196.797 312.299 218.564 382.282 256.611 382.773L218.676 383.286C218.676 383.286 179.201 352.844 178.421 330.519C177.885 315.086 194.144 312.99 194.144 312.99Z" fill="white"/>
<path fill-rule="evenodd" clip-rule="evenodd" d="M218.676 384.022C218.497 384.022 218.341 383.977 218.207 383.866C216.602 382.617 178.465 352.955 177.685 330.542C177.127 315.042 193.029 312.41 194.01 312.276C195.103 312.009 195.839 313.503 199.295 320.952C207.703 339.106 227.396 381.658 256.634 382.037C257.035 382.059 257.347 382.372 257.347 382.773C257.347 383.197 257.035 383.509 256.634 383.531L218.676 384.022ZM194.032 313.771C192.114 314.061 178.666 316.67 179.157 330.497C179.893 351.416 215.888 380.164 218.921 382.55L247.78 382.171C222.534 374.655 205.607 338.124 197.957 321.554C196.262 317.919 194.679 314.484 194.032 313.771Z" fill="#263238"/>
<path d="M169.79 364.485L169.311 364.342L169.286 364.425L169.29 364.512L169.79 364.485ZM169.79 364.485C169.311 364.342 169.311 364.342 169.311 364.342V364.34L169.312 364.336L169.318 364.317L169.34 364.244L169.427 363.955L169.763 362.834C170.056 361.855 170.485 360.427 171.024 358.632C172.103 355.041 173.628 349.977 175.408 344.088C178.968 332.309 183.551 317.226 187.644 304.011C188.013 302.825 187.919 301.76 187.452 300.788C186.978 299.801 186.102 298.875 184.851 298.017C182.341 296.296 178.441 294.935 173.727 293.929C164.317 291.92 151.87 291.368 141.409 292.035C111.845 293.899 93.7066 320.653 82.9408 347.197C77.5687 360.442 74.0578 373.575 71.89 383.4C70.8062 388.311 70.0586 392.393 69.5821 395.247C69.3438 396.674 69.1734 397.793 69.0625 398.555C69.0233 398.825 68.9915 399.05 68.9668 399.228C68.9799 399.23 68.9932 399.232 69.0068 399.234C69.3572 399.281 69.8751 399.35 70.5444 399.437C71.8829 399.611 73.8272 399.856 76.2483 400.141C81.0909 400.709 87.8403 401.434 95.4674 402.059C110.732 403.311 129.474 404.16 143.484 402.571C157.278 401.018 163.723 391.579 166.736 382.433C168.243 377.857 168.883 373.374 169.144 370.03C169.275 368.359 169.312 366.976 169.315 366.011C169.317 365.53 169.311 365.153 169.304 364.897C169.301 364.769 169.297 364.672 169.295 364.607L169.291 364.534V364.517L169.29 364.513V364.512L169.79 364.485Z" fill="#E9E9E9"/>
<path d="M169.79 364.485L169.311 364.342M169.79 364.485L169.29 364.512M169.79 364.485C169.311 364.342 169.311 364.342 169.311 364.342M169.311 364.342L169.286 364.425L169.29 364.512M169.311 364.342V364.34L169.312 364.336L169.318 364.317L169.34 364.244L169.427 363.955L169.763 362.834C170.056 361.855 170.485 360.427 171.024 358.632C172.103 355.041 173.628 349.977 175.408 344.088C178.968 332.309 183.551 317.226 187.644 304.011C188.013 302.825 187.919 301.76 187.452 300.788C186.978 299.801 186.102 298.875 184.851 298.017C182.341 296.296 178.441 294.935 173.727 293.929C164.317 291.92 151.87 291.368 141.409 292.035C111.845 293.899 93.7066 320.653 82.9408 347.197C77.5687 360.442 74.0578 373.575 71.89 383.4C70.8062 388.311 70.0586 392.393 69.5821 395.247C69.3438 396.674 69.1734 397.793 69.0625 398.555C69.0233 398.825 68.9915 399.05 68.9668 399.228C68.9799 399.23 68.9932 399.232 69.0068 399.234C69.3572 399.281 69.8751 399.35 70.5444 399.437C71.8829 399.611 73.8272 399.856 76.2483 400.141C81.0909 400.709 87.8403 401.434 95.4674 402.059C110.732 403.311 129.474 404.16 143.484 402.571C157.278 401.018 163.723 391.579 166.736 382.433C168.243 377.857 168.883 373.374 169.144 370.03C169.275 368.359 169.312 366.976 169.315 366.011C169.317 365.53 169.311 365.153 169.304 364.897C169.301 364.769 169.297 364.672 169.295 364.607L169.291 364.534V364.517L169.29 364.513V364.512" stroke="#263238"/>
<path d="M206.343 326.081L185.892 298.182L171.596 340.555L190.776 355.698L206.343 326.081Z" fill="#263238"/>
<path d="M176.012 344.436C175.967 344.436 175.93 344.428 175.9 344.414C175.499 344.369 175.209 343.99 175.276 343.588L179.268 315.577C179.312 315.176 179.692 314.886 180.093 314.953C180.494 314.997 180.784 315.376 180.717 315.778L176.725 343.789C176.681 344.168 176.369 344.436 176.012 344.436Z" fill="#263238"/>
<path d="M89.792 323.673C89.792 323.673 91.1301 362.902 100.095 378.157C110.822 396.377 164.905 371.845 164.905 371.845L171.194 368.255C175.431 365.846 180.516 365.333 185.155 366.827L190.686 368.634C191.979 369.035 192.983 367.452 192.046 366.47C188.946 363.192 184.151 358.531 179.802 356.189C176.457 354.383 172.13 356.078 168.473 358.397C162.139 362.411 154.69 364.285 147.197 364.062L125.765 363.415C122.152 363.326 119.186 360.516 118.873 356.903L115.639 311.585L89.792 323.673Z" fill="white"/>
<path fill-rule="evenodd" clip-rule="evenodd" d="M116.488 385.628C108.883 385.628 102.527 383.754 99.4492 378.536C90.4838 363.281 89.1011 325.323 89.0342 323.695C89.0342 323.405 89.2126 323.138 89.4802 323.004L115.328 310.916C115.551 310.827 115.797 310.827 116.02 310.961C116.22 311.072 116.354 311.295 116.376 311.541L119.61 356.858C119.9 360.07 122.554 362.59 125.788 362.679L147.22 363.326C154.78 363.549 161.984 361.631 168.095 357.773C173.023 354.628 177.082 353.87 180.138 355.52C184.531 357.906 189.326 362.501 192.582 365.957C193.251 366.649 193.341 367.675 192.828 368.478C192.315 369.28 191.378 369.615 190.464 369.325L184.933 367.541C180.495 366.091 175.61 366.604 171.552 368.901L165.262 372.47C165.248 372.484 165.225 372.499 165.195 372.514C163.59 373.228 135.958 385.628 116.488 385.628ZM90.5507 324.141C90.7291 328.691 92.491 363.772 100.743 377.777C110.89 395.062 163.032 371.867 164.571 371.176L170.816 367.63C175.254 365.11 180.562 364.575 185.401 366.136L190.91 367.92C191.311 368.054 191.534 367.764 191.579 367.675C191.646 367.585 191.802 367.273 191.512 366.983C188.323 363.593 183.662 359.111 179.446 356.836C176.28 355.119 171.953 357.059 168.875 359.022C162.519 363.036 155.026 365.043 147.175 364.798L125.743 364.151C121.751 364.039 118.495 360.939 118.138 356.97L114.971 312.723L90.5507 324.141Z" fill="#263238"/>
<path d="M132.5 291.669C106.942 292.45 86.1789 307.66 81.0049 344.904L122.91 340.488L132.5 291.669Z" fill="#E9E9E9"/>
<path d="M122.5 324.5V340L81.5 345C83 327.167 95.4 291.6 133 292" stroke="#263238"/>
<path d="M150.722 286.54L131.431 293.119C160.379 301.772 173.425 294.747 173.425 294.747L165.865 291.179L167.738 286.852C169.634 287.767 171.44 288.748 172.801 288.213C175.923 286.919 177.618 281.723 177.618 281.723L179.045 281.901C179.246 281.924 179.447 281.857 179.625 281.723C179.781 281.589 179.871 281.388 179.871 281.165C179.96 278.355 179.848 276.237 180.651 273.828C181.454 271.464 182.056 271.509 182.792 265.732L169.924 257.079L163.389 266.714C163.389 266.714 162.252 264.104 159.843 264.974C158.104 265.621 157.301 271.196 158.929 272.289L150.722 286.54Z" fill="white"/>
<path fill-rule="evenodd" clip-rule="evenodd" d="M157.836 298.204C151.19 298.204 142.381 297.156 131.208 293.811C130.895 293.721 130.695 293.454 130.672 293.119C130.672 292.807 130.873 292.517 131.185 292.405L150.231 285.916L158.015 272.401C157.145 271.241 157.301 269.167 157.368 268.498C157.569 266.781 158.26 264.773 159.598 264.283C161.338 263.636 162.631 264.439 163.389 265.353L169.299 256.655C169.545 256.321 169.991 256.232 170.325 256.455L183.216 265.13C183.439 265.286 183.55 265.554 183.528 265.844C182.971 270.17 182.458 271.352 181.922 272.601C181.744 273.047 181.565 273.471 181.365 274.073C180.718 275.969 180.696 277.686 180.651 279.849C180.636 280.281 180.621 280.727 180.607 281.188C180.607 281.611 180.406 282.013 180.094 282.28C179.781 282.548 179.358 282.682 178.956 282.637L178.109 282.526C177.551 283.975 175.856 287.744 173.068 288.882C171.597 289.484 169.902 288.726 168.117 287.856L166.824 290.822L173.738 294.078C173.983 294.212 174.139 294.457 174.161 294.725C174.161 295.015 174.005 295.26 173.76 295.394C173.425 295.572 168.363 298.204 157.836 298.204ZM133.884 293.052C155.45 299.074 167.604 296.108 171.597 294.703L165.553 291.848C165.196 291.67 165.04 291.246 165.196 290.889L167.069 286.562C167.136 286.384 167.292 286.228 167.471 286.161C167.671 286.094 167.872 286.116 168.051 286.183L168.586 286.451C170.125 287.187 171.597 287.9 172.511 287.521C174.808 286.585 176.481 282.838 176.927 281.5C177.038 281.165 177.373 280.942 177.707 280.987L179.135 281.165C179.157 280.697 179.157 280.251 179.179 279.827C179.201 277.619 179.246 275.724 179.96 273.605C180.183 272.958 180.383 272.49 180.584 272.021C181.075 270.862 181.499 269.858 182.012 266.089L170.125 258.083L163.992 267.115C163.835 267.338 163.568 267.472 163.3 267.427C163.033 267.405 162.81 267.249 162.698 267.004C162.609 266.803 161.784 265.063 160.111 265.688C159.643 265.844 159.04 267.048 158.84 268.676C158.639 270.282 158.951 271.419 159.353 271.687C159.665 271.888 159.776 272.311 159.576 272.668L151.369 286.897C151.279 287.053 151.123 287.165 150.967 287.231L133.884 293.052Z" fill="#263238"/>
<path d="M159.041 265.175C159.041 265.175 163.122 264.818 162.832 266.669C162.431 269.256 161.918 269.769 162.386 270.795C162.654 271.352 163.323 271.732 163.902 271.732C165.107 271.754 165.508 269.747 167.627 267.516C168.541 266.557 169.478 265.866 170.013 265.554C174.161 263.101 178.845 268.632 183.863 267.048C187.186 265.978 189.84 262.03 189.193 259.354C188.903 258.239 187.966 256.99 179.737 254.291C171.418 251.571 167.248 250.188 164.75 251.459C158.907 254.403 159.018 264.439 159.041 265.175Z" fill="#263238"/>
<path d="M167.738 287.588C167.582 287.588 167.448 287.544 167.315 287.454L164.014 285.135C162.386 283.998 161.561 282.08 161.851 280.117L161.962 279.203C162.029 278.801 162.408 278.534 162.81 278.578C163.211 278.645 163.501 279.024 163.434 279.426L163.3 280.318C163.1 281.745 163.702 283.128 164.861 283.931L168.162 286.25C168.497 286.495 168.586 286.941 168.341 287.276C168.207 287.499 167.961 287.588 167.738 287.588Z" fill="#263238"/>
<path d="M274.697 386.644H186.805C186.626 386.644 186.48 386.503 186.48 386.319V379.071C186.48 378.888 186.626 378.746 186.805 378.746H274.697C274.889 378.746 275.022 378.879 275.022 379.071V386.319C275.022 386.511 274.889 386.644 274.697 386.644Z" fill="#9BCFFF" stroke="#263238"/>
<path d="M189.638 386.007C180.561 377.354 168.295 375.837 159.062 385.828C158.17 386.787 158.839 388.349 160.133 388.349H188.702C189.928 388.349 190.53 386.854 189.638 386.007Z" fill="white"/>
<path fill-rule="evenodd" clip-rule="evenodd" d="M188.701 389.084H160.133C159.241 389.084 158.46 388.572 158.103 387.769C157.746 386.921 157.902 386.007 158.505 385.338C162.675 380.833 167.715 378.357 173.09 378.179C178.956 378 185.022 380.587 190.151 385.472C190.776 386.051 190.954 386.966 190.642 387.769C190.33 388.572 189.549 389.084 188.701 389.084ZM173.692 379.651C173.499 379.651 173.313 379.651 173.135 379.651C168.184 379.807 163.5 382.126 159.597 386.341C159.285 386.676 159.419 387.055 159.464 387.167C159.508 387.278 159.687 387.613 160.133 387.613H188.701C189.081 387.613 189.237 387.3 189.281 387.211C189.304 387.122 189.415 386.81 189.125 386.542C184.442 382.082 178.978 379.651 173.692 379.651Z" fill="#263238"/>
<path d="M281.567 370.306H171.886C170.905 370.306 170.236 369.593 170.302 368.634L175.276 301.103C175.41 299.23 177.238 297.557 179.156 297.557H287.41C288.391 297.557 289.061 298.271 288.994 299.23L283.931 368.143C283.842 369.28 282.727 370.306 281.567 370.306Z" fill="#0487FF"/>
<path fill-rule="evenodd" clip-rule="evenodd" d="M281.567 371.042H171.886C171.195 371.042 170.593 370.775 170.146 370.306C169.723 369.86 169.522 369.236 169.567 368.589L174.54 301.036C174.696 298.784 176.859 296.821 179.157 296.821H287.41C288.102 296.821 288.726 297.089 289.15 297.535C289.574 298.003 289.774 298.628 289.73 299.274L284.667 368.188C284.556 369.749 283.128 371.042 281.567 371.042ZM179.157 298.293C177.618 298.293 176.101 299.654 176.012 301.148L171.039 368.678C171.016 368.946 171.083 369.147 171.239 369.303C171.395 369.481 171.618 369.57 171.886 369.57H281.567C282.348 369.57 283.151 368.857 283.195 368.098L288.258 299.163C288.28 298.918 288.213 298.717 288.057 298.561C287.923 298.382 287.678 298.293 287.41 298.293H179.157Z" fill="#263238"/>
<path d="M214.706 386.944H231.499L235.692 341.425C235.737 340.868 235.358 340.466 234.822 340.466H220.884C219.813 340.466 218.921 341.291 218.81 342.407L214.706 386.944Z" fill="#263238"/>
<path d="M217.36 386.943H234.131L238.257 341.403H221.486L217.36 386.943Z" fill="white"/>
<path fill-rule="evenodd" clip-rule="evenodd" d="M234.131 387.679H217.36C217.137 387.679 216.958 387.59 216.802 387.434C216.668 387.3 216.602 387.077 216.624 386.877L220.75 341.336C220.772 340.957 221.107 340.667 221.486 340.667H238.257C238.48 340.667 238.681 340.756 238.814 340.912C238.948 341.046 239.015 341.269 238.993 341.47L234.867 387.01C234.845 387.39 234.51 387.679 234.131 387.679ZM218.163 386.208H233.462L237.454 342.139H222.155L218.163 386.208Z" fill="#263238"/>
<path d="M246.106 387.791H200.164C199.83 387.791 199.562 387.523 199.562 387.189V380.431C199.562 380.097 199.83 379.829 200.164 379.829H246.106C246.441 379.829 246.708 380.097 246.708 380.431V387.189C246.708 387.523 246.441 387.791 246.106 387.791Z" fill="#263238"/>
<path d="M249.095 387.1H201.927V380.521H249.095V387.1Z" fill="white"/>
<path fill-rule="evenodd" clip-rule="evenodd" d="M249.096 387.836H201.927C201.525 387.836 201.191 387.501 201.191 387.1V380.521C201.191 380.119 201.525 379.785 201.927 379.785H249.096C249.497 379.785 249.832 380.119 249.832 380.521V387.1C249.832 387.501 249.497 387.836 249.096 387.836ZM202.663 386.364H248.36V381.257H202.663V386.364Z" fill="#263238"/>
<path d="M38.2295 400.28H423.831C424.657 400.28 425.348 399.611 425.348 398.764V386.854C425.348 386.029 424.657 385.36 423.831 385.36H38.2295C37.4043 385.36 36.7354 386.029 36.7354 386.854V398.764C36.7354 399.611 37.4043 400.28 38.2295 400.28Z" fill="white"/>
<path fill-rule="evenodd" clip-rule="evenodd" d="M423.832 401.016H38.2302C37.0036 401.016 36 400.013 36 398.764V386.854C36 385.628 37.0036 384.624 38.2302 384.624H423.832C425.058 384.624 426.084 385.628 426.084 386.854V398.764C426.084 400.013 425.058 401.016 423.832 401.016ZM38.2302 386.096C37.8065 386.096 37.4719 386.431 37.4719 386.854V398.764C37.4719 399.187 37.8065 399.544 38.2302 399.544H423.832C424.255 399.544 424.59 399.187 424.59 398.764V386.854C424.59 386.431 424.255 386.096 423.832 386.096H38.2302Z" fill="#263238"/>
<path d="M139.125 396.779C138.723 396.779 138.389 396.467 138.389 396.043V389.174C138.389 388.772 138.723 388.438 139.125 388.438C139.548 388.438 139.861 388.772 139.861 389.174V396.043C139.861 396.467 139.548 396.779 139.125 396.779Z" fill="#263238"/>
<path d="M44.0059 434.982C43.6268 434.982 43.2923 434.692 43.27 434.291L40.5714 400.793C40.5491 400.392 40.8614 400.035 41.2628 400.013C41.6642 399.99 42.0211 400.28 42.0434 400.682L44.7419 434.179C44.7642 434.581 44.4743 434.937 44.0505 434.982C44.0357 434.982 44.0208 434.982 44.0059 434.982Z" fill="#263238"/>
<path d="M412.525 439.398C412.495 439.398 412.465 439.398 412.435 439.398C412.034 439.353 411.744 438.974 411.789 438.573L415.937 403.269C415.981 402.845 416.338 402.555 416.74 402.622C417.141 402.667 417.431 403.023 417.387 403.425L413.261 438.751C413.216 439.13 412.881 439.398 412.525 439.398Z" fill="#263238"/>
<path d="M388.304 103.597C388.259 103.597 388.207 103.597 388.148 103.597C387.746 103.508 387.501 103.106 387.59 102.705L388.482 98.6458C388.571 98.2667 388.95 97.9991 389.352 98.0883C389.753 98.1775 389.999 98.5789 389.909 98.9803L389.04 103.017C388.95 103.374 388.661 103.597 388.304 103.597Z" fill="#0487FF"/>
<path d="M386.431 112.205C386.387 112.205 386.335 112.198 386.275 112.183C385.874 112.094 385.628 111.692 385.718 111.313L386.476 107.812C386.565 107.41 386.944 107.165 387.346 107.254C387.747 107.344 387.992 107.745 387.925 108.124L387.145 111.625C387.078 111.96 386.766 112.205 386.431 112.205Z" fill="#0487FF"/>
<path d="M394.081 107.12C394.036 107.12 393.992 107.12 393.947 107.12L390.356 106.407C389.955 106.318 389.687 105.938 389.776 105.537C389.866 105.136 390.245 104.868 390.646 104.957L394.237 105.671C394.638 105.738 394.884 106.139 394.817 106.541C394.75 106.875 394.438 107.12 394.081 107.12Z" fill="#0487FF"/>
<path d="M385.16 105.336C385.115 105.351 385.063 105.351 385.004 105.336L381.391 104.623C381.012 104.533 380.744 104.154 380.811 103.753C380.9 103.351 381.302 103.084 381.681 103.173L385.294 103.887C385.695 103.954 385.963 104.355 385.874 104.756C385.807 105.113 385.494 105.336 385.16 105.336Z" fill="#0487FF"/>
<path fill-rule="evenodd" clip-rule="evenodd" d="M396.578 131.675C396.251 131.675 395.924 131.638 395.597 131.563C394.549 131.296 393.657 130.649 393.122 129.712C391.962 127.772 392.609 125.23 394.549 124.025C395.508 123.423 396.645 123.245 397.716 123.512C398.764 123.78 399.656 124.427 400.214 125.364C401.351 127.304 400.704 129.869 398.764 131.051C398.095 131.474 397.337 131.675 396.578 131.675ZM396.734 124.873C396.244 124.873 395.753 125.007 395.329 125.274C394.058 126.055 393.634 127.705 394.37 128.954C394.727 129.556 395.285 129.958 395.954 130.136C396.645 130.292 397.359 130.181 397.983 129.802C399.255 129.021 399.678 127.371 398.942 126.122C398.586 125.542 398.028 125.118 397.359 124.962C397.151 124.903 396.943 124.873 396.734 124.873Z" fill="#52D180"/>
</g>
</g>
</g>
<defs>
<clipPath id="clip0_528_7812">
<rect width="480" height="480" fill="white"/>
</clipPath>
</defs>
</svg>
