<svg width="480" height="480" viewBox="0 0 480 480" fill="none" xmlns="http://www.w3.org/2000/svg">
<g clip-path="url(#clip0_313_1875)">
<g clip-path="url(#clip1_313_1875)">
<rect width="480" height="480" rx="24" fill="#E6F3FF"/>
<path d="M443.232 400.804H60.4543C60.0303 400.804 59.686 400.58 59.686 400.304C59.686 400.028 60.0303 399.804 60.4543 399.804H443.232C443.656 399.804 444 400.028 444 400.304C444 400.58 443.656 400.804 443.232 400.804Z" fill="#030047"/>
<path d="M297.431 355.424C297.423 355.424 297.415 355.424 297.407 355.424L290.826 355.228C290.402 355.215 290.068 354.861 290.081 354.436C290.094 354.012 290.441 353.671 290.872 353.691L297.453 353.887C297.877 353.9 298.211 354.254 298.198 354.679C298.186 355.095 297.844 355.424 297.431 355.424Z" fill="#030047"/>
<path d="M303.735 256.134L263.039 273.878L212.676 230.496L190.827 258.011L243.262 307.711C250.3 314.381 259.907 317.633 269.549 316.607C273.933 316.141 278.179 314.804 282.039 312.675L321.571 290.875" fill="white"/>
<path d="M266.031 317.563C257.401 317.563 249.067 314.273 242.734 308.268L190.298 258.568C190.009 258.295 189.977 257.845 190.225 257.533L212.074 230.018C212.204 229.855 212.395 229.751 212.604 229.731C212.813 229.713 213.019 229.778 213.177 229.914L263.174 272.981L303.428 255.43C303.817 255.258 304.27 255.438 304.44 255.827C304.609 256.216 304.431 256.668 304.042 256.838L263.345 274.582C263.076 274.7 262.761 274.653 262.537 274.46L212.781 231.6L191.866 257.938L243.791 307.154C250.675 313.678 260.032 316.846 269.468 315.843C273.774 315.385 277.878 314.093 281.668 312.002L321.199 290.202C321.571 290.001 322.038 290.133 322.243 290.504C322.448 290.876 322.313 291.343 321.942 291.548L282.41 313.348C278.441 315.537 274.141 316.89 269.631 317.372C268.428 317.5 267.226 317.563 266.031 317.563Z" fill="#030047"/>
<path d="M263.567 352.075L99.4208 369.94C93.103 370.627 87.424 366.063 86.7363 359.746L67.3488 181.608C66.6613 175.29 71.2253 169.611 77.543 168.924L241.689 151.059C248.007 150.371 253.686 154.936 254.373 161.253L273.761 339.391C274.449 345.708 269.884 351.388 263.567 352.075Z" fill="white"/>
<path d="M98.1674 370.776C91.9886 370.776 86.6561 366.108 85.9724 359.828L66.5849 181.69C65.8531 174.962 70.7316 168.892 77.4599 168.159L241.606 150.294C244.86 149.94 248.068 150.875 250.623 152.929C253.179 154.984 254.782 157.91 255.137 161.169L274.524 339.307C274.879 342.567 273.943 345.769 271.889 348.324C269.835 350.881 266.908 352.484 263.649 352.838L99.5034 370.703C99.0551 370.752 98.6091 370.776 98.1674 370.776ZM242.956 151.758C242.563 151.758 242.168 151.779 241.772 151.822L77.6264 169.686C71.7401 170.327 67.4724 175.638 68.1126 181.524L87.5001 359.662C88.1411 365.548 93.4534 369.804 99.3379 369.176L263.483 351.311C266.335 351 268.895 349.599 270.692 347.362C272.489 345.127 273.308 342.325 272.997 339.473L253.61 161.336C253.299 158.484 251.897 155.924 249.662 154.128C247.736 152.58 245.391 151.758 242.956 151.758Z" fill="#030047"/>
<path d="M68.2683 190.825C68.094 190.825 67.924 190.766 67.787 190.656C67.628 190.528 67.5265 190.343 67.5045 190.139L66.8283 183.925C66.4085 180.068 67.5155 176.279 69.9458 173.257C72.3753 170.233 75.8373 168.336 79.694 167.917L239.372 150.539C243.23 150.119 247.018 151.226 250.04 153.656C253.064 156.086 254.96 159.548 255.38 163.404L256.057 169.62C256.079 169.822 256.019 170.025 255.892 170.184C255.764 170.343 255.578 170.444 255.376 170.467L68.3513 190.82C68.3238 190.824 68.2955 190.825 68.2683 190.825ZM240.969 151.989C240.494 151.989 240.017 152.014 239.538 152.066L79.86 169.445C76.412 169.82 73.3163 171.515 71.143 174.219C68.9705 176.923 67.98 180.311 68.3558 183.759L68.949 189.209L254.446 169.023L253.853 163.57C253.478 160.122 251.782 157.026 249.078 154.854C246.749 152.982 243.914 151.989 240.969 151.989Z" fill="#030047"/>
<path d="M87.9482 178.743C88.1519 180.617 86.7984 182.301 84.9249 182.505C83.0511 182.709 81.3672 181.355 81.1634 179.482C80.9594 177.608 82.3129 175.924 84.1866 175.72C86.0601 175.516 87.7444 176.87 87.9482 178.743Z" fill="#263238"/>
<path d="M99.2235 177.516C99.4273 179.39 98.0738 181.074 96.2003 181.278C94.3265 181.482 92.6425 180.128 92.4388 178.255C92.2348 176.381 93.5883 174.697 95.462 174.493C97.3355 174.289 99.0195 175.643 99.2235 177.516Z" fill="#263238"/>
<path d="M110.498 176.289C110.702 178.163 109.349 179.847 107.475 180.051C105.602 180.255 103.917 178.901 103.714 177.027C103.51 175.154 104.863 173.47 106.737 173.266C108.61 173.062 110.294 174.416 110.498 176.289Z" fill="#263238"/>
<path d="M324.878 365.85H414.458V400.073H322.949L324.878 365.85Z" fill="white" stroke="#263238"/>
<path d="M311.398 247.732L311.421 247.718L311.443 247.701C314.505 245.354 318.105 243.811 321.916 243.211L343.165 240.506L350.273 276.025L317.149 296.6L295.584 257.32L311.398 247.732Z" fill="#E9E9E9" stroke="#263238"/>
<path d="M320.806 373.038L324.889 259.723L324.889 259.714V259.705C324.889 249.289 333.167 240.76 343.578 240.45C350.424 240.247 356.83 240.06 361.549 239.932C363.909 239.868 365.846 239.819 367.205 239.79C367.885 239.775 368.419 239.766 368.788 239.762C368.973 239.76 369.114 239.76 369.211 239.761C369.254 239.761 369.285 239.762 369.305 239.763C369.32 239.766 369.332 239.768 369.338 239.769L369.341 239.77C369.371 239.776 369.411 239.783 369.459 239.792C369.556 239.809 369.692 239.832 369.865 239.862C370.212 239.92 370.709 240.002 371.334 240.105C372.585 240.31 374.354 240.597 376.465 240.938C380.688 241.619 386.286 242.517 391.873 243.411C397.461 244.305 403.037 245.196 407.217 245.863C409.307 246.196 411.047 246.474 412.265 246.668L413.679 246.893L413.767 246.907L416.448 373.038H320.806ZM369.229 239.743C369.238 239.746 369.246 239.748 369.255 239.751C369.247 239.748 369.239 239.746 369.23 239.743L369.388 239.269L369.229 239.743Z" fill="#E9E9E9" stroke="#263238"/>
<path d="M370.374 248.462L376.837 241.882L373.367 208.124L345.716 213.886L344.688 240.796L346.773 244.862C351.354 253.796 363.338 255.624 370.374 248.462Z" fill="white"/>
<path d="M359.936 253.641C359.142 253.641 358.341 253.581 357.536 253.458C352.558 252.699 348.387 249.694 346.09 245.213L344.005 241.146C343.945 241.029 343.916 240.898 343.921 240.767L344.948 213.858C344.962 213.505 345.214 213.206 345.559 213.134L373.211 207.373C373.425 207.329 373.645 207.377 373.821 207.505C373.996 207.633 374.109 207.83 374.131 208.046L377.601 241.803C377.625 242.031 377.545 242.258 377.385 242.421L370.921 249.001C367.963 252.012 364.055 253.641 359.936 253.641ZM345.464 240.624L347.457 244.512C349.526 248.547 353.284 251.255 357.768 251.939C362.248 252.618 366.646 251.159 369.825 247.924L376.036 241.601L372.69 209.051L346.461 214.516L345.464 240.624Z" fill="#030047"/>
<path d="M374.295 212.143C387.834 198.376 385.584 175.129 385.584 175.129L346.784 157.516C346.036 158.092 326.272 172.9 325.485 197.291C324.74 220.351 343.844 227.722 364.568 220.809" fill="white"/>
<path d="M350.211 224.079C343.812 224.079 338.138 222.427 333.765 219.166C327.533 214.522 324.404 206.948 324.717 197.265C325.484 173.506 344.154 158.56 346.28 156.933C346.505 156.761 346.844 156.698 347.102 156.815L385.902 174.428C386.152 174.541 386.323 174.781 386.349 175.054C386.442 176.018 388.477 198.817 374.843 212.681C374.545 212.982 374.059 212.987 373.757 212.69C373.454 212.392 373.45 211.906 373.748 211.603C385.875 199.272 385.066 178.879 384.853 175.639L346.891 158.406C343.602 161.013 326.965 175.265 326.253 197.315C325.957 206.473 328.873 213.603 334.683 217.934C341.77 223.218 352.575 224 364.325 220.079C364.727 219.948 365.163 220.163 365.297 220.565C365.431 220.968 365.214 221.403 364.811 221.538C359.715 223.237 354.779 224.079 350.211 224.079Z" fill="#030047"/>
<path d="M339.299 188.913C339.012 190.367 337.988 191.39 337.012 191.197C336.036 191.005 335.479 189.669 335.766 188.215C336.054 186.76 337.077 185.737 338.053 185.93C339.029 186.123 339.587 187.458 339.299 188.913Z" fill="#030047"/>
<path d="M335.858 183.257C337.618 182.51 339.739 182.99 341.239 184.475L335.858 183.257Z" fill="white"/>
<path d="M341.239 185.243C341.044 185.243 340.848 185.169 340.699 185.021C339.416 183.753 337.634 183.336 336.158 183.964C335.766 184.133 335.316 183.946 335.151 183.557C334.985 183.166 335.167 182.715 335.558 182.55C337.61 181.676 340.052 182.218 341.779 183.929C342.081 184.227 342.084 184.714 341.785 185.015C341.635 185.167 341.437 185.243 341.239 185.243Z" fill="#030047"/>
<path d="M383.15 149.091C387.558 153.573 381.313 164.527 381.313 164.527C381.313 164.527 389.753 162.547 394.691 172.01C399.628 181.472 385.049 196.001 385.049 196.001L375.662 190.755C375.662 190.755 373.42 197.602 370.773 195.377C370.773 195.377 365.167 178.224 370.891 173.663C370.891 173.663 327.68 184.955 328.088 157.24C328.406 135.567 375.909 141.726 383.15 149.091Z" fill="#030047"/>
<path d="M355.474 193.58C355.418 195.062 354.567 196.232 353.573 196.195C352.579 196.157 351.819 194.925 351.875 193.444C351.931 191.962 352.782 190.792 353.776 190.829C354.77 190.867 355.53 192.098 355.474 193.58Z" fill="#030047"/>
<path d="M351.839 188.258C353.575 187.458 355.71 187.873 357.255 189.312L351.839 188.258Z" fill="white"/>
<path d="M357.254 190.08C357.067 190.08 356.879 190.012 356.73 189.874C355.411 188.645 353.618 188.284 352.16 188.955C351.774 189.132 351.318 188.964 351.141 188.58C350.963 188.194 351.132 187.738 351.517 187.561C353.541 186.626 356 187.093 357.778 188.749C358.088 189.038 358.105 189.524 357.816 189.834C357.665 189.998 357.46 190.08 357.254 190.08Z" fill="#030047"/>
<path d="M375.213 190.95C375.213 190.95 384.46 183.809 388.842 186.022C393.223 188.234 389.415 204.188 383.77 205.004C378.126 205.821 374.016 203.1 374.016 203.1" fill="white"/>
<path d="M381.63 205.927C376.955 205.927 373.746 203.842 373.592 203.74C373.239 203.507 373.142 203.031 373.375 202.678C373.609 202.324 374.086 202.227 374.438 202.459C374.477 202.483 378.391 205.002 383.66 204.244C386.467 203.838 388.948 198.671 389.726 193.91C390.32 190.273 389.825 187.378 388.495 186.707C385.262 185.077 378.149 189.655 375.682 191.558C375.347 191.819 374.865 191.756 374.605 191.419C374.346 191.083 374.408 190.6 374.743 190.341C375.729 189.58 384.508 182.974 389.187 185.335C391.21 186.356 391.978 189.654 391.242 194.157C390.366 199.523 387.556 205.233 383.88 205.765C383.1 205.878 382.347 205.927 381.63 205.927Z" fill="#030047"/>
<path d="M384.082 198.059C383.943 198.059 383.802 198.022 383.675 197.943C383.316 197.718 383.206 197.245 383.43 196.885C383.956 196.041 384.313 195.074 384.462 194.092C384.542 193.557 384.499 193.18 384.336 193.001C384.225 192.88 384.008 192.809 383.783 192.824C383.533 192.838 383.252 192.939 382.923 193.131C382.428 193.42 381.989 193.817 381.652 194.281C381.402 194.622 380.922 194.698 380.579 194.45C380.236 194.201 380.16 193.721 380.409 193.377C380.87 192.744 381.471 192.2 382.149 191.804C382.692 191.487 383.198 191.319 383.693 191.29C384.38 191.256 385.049 191.502 385.471 191.966C385.97 192.513 386.138 193.284 385.981 194.321C385.802 195.51 385.37 196.677 384.734 197.697C384.588 197.931 384.338 198.059 384.082 198.059Z" fill="#030047"/>
<path d="M344.226 192.691C343.303 194.624 342.38 196.557 341.458 198.49C340.901 199.656 340.335 200.869 340.432 202.121C340.53 203.373 341.493 204.675 342.986 204.915" fill="white"/>
<path d="M342.987 205.683C342.946 205.683 342.905 205.68 342.864 205.673C340.918 205.361 339.783 203.679 339.667 202.179C339.551 200.7 340.196 199.349 340.765 198.158L343.532 192.359C343.715 191.976 344.173 191.816 344.557 191.997C344.939 192.18 345.102 192.639 344.919 193.022L342.151 198.82C341.665 199.837 341.115 200.991 341.198 202.06C341.266 202.938 341.959 203.972 343.108 204.157C343.526 204.224 343.811 204.618 343.744 205.037C343.684 205.414 343.358 205.683 342.987 205.683Z" fill="#030047"/>
<path d="M346.07 212.758C345.98 212.758 345.889 212.742 345.8 212.709C345.403 212.56 345.202 212.117 345.351 211.72C346.082 209.774 347.584 208.162 349.474 207.296C351.364 206.428 353.566 206.341 355.517 207.06C355.915 207.206 356.12 207.648 355.974 208.046C355.827 208.443 355.386 208.646 354.987 208.502C353.414 207.922 351.639 207.993 350.115 208.692C348.591 209.39 347.379 210.69 346.79 212.26C346.674 212.568 346.381 212.758 346.07 212.758Z" fill="#030047"/>
<g opacity="0.4">
<path d="M385.596 316.668C385.325 316.668 385.062 316.524 384.923 316.27C384.016 314.619 384.434 312.374 385.876 311.161C386.428 310.695 387.052 310.414 387.654 310.143C387.942 310.013 388.231 309.884 388.506 309.733C389.093 309.408 389.709 308.848 389.674 308.246C389.65 307.816 389.31 307.408 388.918 306.935C388.626 306.585 388.325 306.221 388.098 305.785C387.393 304.427 387.691 302.682 388.806 301.636C389.922 300.59 391.681 300.403 392.991 301.19C393.355 301.409 393.472 301.881 393.253 302.244C393.035 302.606 392.561 302.725 392.199 302.506C391.489 302.079 390.461 302.19 389.859 302.756C389.254 303.322 389.08 304.342 389.462 305.077C389.612 305.366 389.849 305.651 390.1 305.953C390.595 306.548 391.155 307.223 391.209 308.158C391.272 309.274 390.539 310.365 389.249 311.077C388.938 311.248 388.612 311.397 388.286 311.542C387.756 311.781 387.255 312.007 386.866 312.335C385.98 313.082 385.712 314.514 386.269 315.529C386.474 315.902 386.338 316.369 385.966 316.573C385.848 316.638 385.721 316.668 385.596 316.668Z" fill="white"/>
</g>
<g opacity="0.4">
<path d="M360.44 360.449C359.642 360.449 358.782 360.092 358.002 359.413C357.734 359.18 357.484 358.925 357.234 358.67C356.828 358.254 356.444 357.86 356.003 357.608C354.997 357.03 353.558 357.271 352.796 358.144C352.517 358.464 352.031 358.498 351.712 358.217C351.392 357.938 351.36 357.453 351.639 357.134C352.88 355.715 355.131 355.336 356.766 356.275C357.394 356.634 357.872 357.123 358.334 357.596C358.554 357.821 358.775 358.048 359.011 358.254C359.516 358.694 360.252 359.083 360.808 358.841C361.204 358.671 361.47 358.212 361.778 357.681C362.008 357.286 362.245 356.878 362.578 356.515C363.611 355.388 365.351 355.07 366.717 355.756C368.083 356.443 368.863 358.033 368.573 359.534C368.492 359.95 368.09 360.223 367.673 360.142C367.256 360.061 366.984 359.659 367.064 359.242C367.221 358.428 366.766 357.5 366.026 357.128C365.288 356.757 364.27 356.943 363.71 357.553C363.49 357.793 363.304 358.114 363.107 358.454C362.718 359.123 362.277 359.881 361.416 360.251C361.109 360.384 360.78 360.449 360.44 360.449Z" fill="white"/>
</g>
<g opacity="0.4">
<path d="M386.682 355.008C386.544 355.008 386.405 354.971 386.279 354.894C384.675 353.904 383.931 351.747 384.586 349.979C384.836 349.301 385.239 348.75 385.629 348.216C385.816 347.961 386.003 347.706 386.168 347.438C386.518 346.867 386.776 346.075 386.45 345.57C386.216 345.208 385.72 345.021 385.146 344.804C384.719 344.643 384.277 344.476 383.864 344.207C382.581 343.375 381.978 341.711 382.432 340.25C382.876 338.816 384.271 337.794 385.769 337.794C385.796 337.794 385.823 337.795 385.85 337.795C386.274 337.806 386.609 338.158 386.599 338.583C386.588 339.007 386.225 339.315 385.812 339.332C384.986 339.292 384.144 339.914 383.899 340.704C383.654 341.496 384.006 342.468 384.7 342.919C384.974 343.097 385.322 343.228 385.689 343.366C386.412 343.639 387.233 343.949 387.741 344.737C388.347 345.674 388.248 346.984 387.478 348.242C387.292 348.545 387.081 348.835 386.87 349.123C386.527 349.592 386.203 350.035 386.027 350.512C385.624 351.6 386.099 352.978 387.086 353.585C387.447 353.808 387.559 354.281 387.337 354.643C387.191 354.878 386.939 355.008 386.682 355.008Z" fill="white"/>
</g>
<g opacity="0.4">
<path d="M332.558 343.471C332.32 343.471 332.085 343.361 331.935 343.153C330.831 341.628 330.967 339.348 332.246 337.965C332.737 337.434 333.32 337.078 333.884 336.733C334.153 336.569 334.424 336.405 334.678 336.22C335.196 335.844 335.761 335.194 335.652 334.601C335.575 334.176 335.188 333.813 334.74 333.394C334.407 333.082 334.062 332.759 333.782 332.354C332.915 331.096 332.993 329.327 333.969 328.15C334.946 326.971 336.67 326.568 338.067 327.187C338.455 327.359 338.63 327.814 338.458 328.201C338.286 328.588 337.831 328.763 337.444 328.592C336.689 328.259 335.681 328.493 335.152 329.13C334.624 329.767 334.578 330.801 335.048 331.482C335.233 331.751 335.503 332.004 335.79 332.273C336.355 332.802 336.995 333.402 337.164 334.324C337.365 335.422 336.774 336.596 335.582 337.463C335.294 337.672 334.989 337.859 334.684 338.046C334.188 338.348 333.719 338.634 333.374 339.007C332.588 339.858 332.501 341.315 333.18 342.253C333.429 342.596 333.352 343.076 333.008 343.325C332.872 343.424 332.714 343.471 332.558 343.471Z" fill="white"/>
</g>
<path d="M307.207 378.687L303.002 383.453C300.616 386.152 296.397 386.401 293.691 383.993L229.418 325.491C232.65 322.671 235.633 319.581 238.325 316.257L306.333 369.681C309.196 371.897 309.586 375.981 307.207 378.687Z" fill="#263238"/>
<path d="M176.888 329.685C162.808 329.685 149.249 324.933 138.117 315.986C125.191 305.598 117.085 290.799 115.291 274.314C111.587 240.283 136.26 209.583 170.29 205.88C204.314 202.167 235.02 226.849 238.724 260.88C240.518 277.364 235.785 293.562 225.397 306.488C215.009 319.412 200.209 327.519 183.724 329.312C181.437 329.561 179.155 329.685 176.888 329.685ZM177.051 207.049C174.871 207.049 172.673 207.166 170.456 207.407C137.268 211.02 113.206 240.959 116.818 274.148C118.568 290.225 126.473 304.658 139.079 314.789C151.685 324.92 167.482 329.534 183.558 327.786C199.635 326.036 214.068 318.13 224.199 305.525C234.33 292.92 238.945 277.123 237.196 261.046C233.826 230.074 207.523 207.049 177.051 207.049Z" fill="#030047"/>
<path d="M181.313 329.443C172.317 329.443 163.374 324.001 155.892 313.895C147.831 303.007 142.408 287.972 140.622 271.557C136.918 237.526 150.227 208.064 170.291 205.88C190.346 203.687 209.69 229.606 213.393 263.637C215.18 280.052 213.118 295.902 207.588 308.27C201.997 320.773 193.522 328.247 183.724 329.313C182.921 329.4 182.116 329.443 181.313 329.443ZM142.149 271.391C143.906 287.539 149.225 302.309 157.127 312.981C164.939 323.533 174.323 328.787 183.558 327.786C192.79 326.781 200.827 319.628 206.186 307.642C211.606 295.52 213.623 279.951 211.866 263.803C208.253 230.615 189.677 205.326 170.457 207.407C151.236 209.499 138.537 238.202 142.149 271.391Z" fill="#030047"/>
<path d="M183.64 329.317C183.253 329.317 182.92 329.026 182.877 328.632L169.61 206.727C169.564 206.305 169.868 205.925 170.29 205.88C170.709 205.826 171.091 206.138 171.137 206.561L184.405 328.466C184.451 328.888 184.146 329.267 183.724 329.312C183.696 329.316 183.668 329.317 183.64 329.317Z" fill="#030047"/>
<path d="M116.053 274.999C115.666 274.999 115.334 274.708 115.291 274.313C115.245 273.891 115.549 273.512 115.971 273.467L237.877 260.199C238.292 260.147 238.678 260.457 238.724 260.88C238.77 261.302 238.465 261.681 238.043 261.726L116.138 274.994C116.109 274.998 116.081 274.999 116.053 274.999Z" fill="#030047"/>
<path d="M166.406 233.684C154.886 233.684 143.736 230.503 133.811 224.337C133.451 224.113 133.34 223.639 133.564 223.279C133.789 222.919 134.261 222.807 134.622 223.032C146.214 230.236 159.525 233.261 173.111 231.783C186.698 230.304 199.045 224.486 208.817 214.957C209.12 214.662 209.607 214.665 209.904 214.971C210.2 215.275 210.194 215.761 209.89 216.057C199.87 225.827 187.209 231.794 173.277 233.309C170.977 233.56 168.683 233.684 166.406 233.684Z" fill="#030047"/>
<path d="M144.673 320.46C144.474 320.46 144.274 320.383 144.123 320.229C143.827 319.925 143.833 319.439 144.136 319.143C154.138 309.374 166.796 303.408 180.741 301.891C194.677 300.369 208.32 303.477 220.208 310.863C220.568 311.087 220.679 311.56 220.455 311.92C220.231 312.281 219.758 312.394 219.397 312.167C207.804 304.964 194.497 301.94 180.907 303.417C167.307 304.897 154.963 310.715 145.21 320.241C145.061 320.387 144.867 320.46 144.673 320.46Z" fill="#030047"/>
<path d="M202.602 265.921C204.046 279.496 193.828 291.741 179.74 293.24C165.651 294.739 153.085 284.918 151.641 271.343C150.197 257.769 160.415 245.524 174.503 244.025C188.592 242.526 201.158 252.347 202.602 265.921Z" fill="#0487FF" stroke="#263238"/>
<path d="M189.947 273.245L184.524 279.73C184.508 279.749 184.479 279.752 184.46 279.737L164.292 264.009L169.715 257.524C169.731 257.505 169.759 257.502 169.779 257.517L189.947 273.245Z" fill="white"/>
<path d="M165.55 275.84L172.217 281.039C172.236 281.054 172.265 281.051 172.281 281.032L188.688 261.413L182.022 256.215C182.002 256.199 181.973 256.203 181.958 256.221L165.55 275.84Z" fill="white"/>
<path d="M177.006 346.646C133.42 346.646 97.96 311.186 97.96 267.601C97.96 224.01 133.42 188.546 177.006 188.546C220.596 188.546 256.06 224.01 256.06 267.601C256.06 311.186 220.596 346.646 177.006 346.646ZM177.006 190.083C134.267 190.083 99.4965 224.858 99.4965 267.601C99.4965 310.339 134.267 345.11 177.006 345.11C219.749 345.11 254.523 310.339 254.523 267.601C254.523 224.858 219.749 190.083 177.006 190.083Z" fill="#030047"/>
<path d="M422.169 290.526L406.988 343.039C405.365 348.656 400.884 352.982 395.218 354.401L311.972 374.626C311.972 374.626 290.396 387.912 283.505 388.68C276.624 389.458 272.337 388.875 270.637 385.979C268.946 383.072 272.649 380.711 272.649 380.711C272.649 380.711 266.516 379.438 265.631 375.861C264.728 372.303 269.072 371.069 269.072 371.069C269.072 371.069 263.464 370.622 262.9 366.958C262.327 363.304 266.117 361.992 266.117 361.992C266.059 361.953 265.991 361.933 265.923 361.904C262.259 360.204 263.503 354.673 267.546 354.605L277.013 354.459C277.013 354.459 272.989 352.127 273.601 349.609C274.272 346.859 280.599 346.023 284.098 345.527C285.779 345.294 293.594 343.972 296.402 343.496L296.363 343.389L369.559 319.305L385.159 278.61L422.169 290.526Z" fill="white"/>
<path d="M278.636 389.76C274.011 389.76 271.33 388.676 269.974 386.367C268.75 384.264 269.791 382.307 271.019 381.058C269.01 380.404 265.59 378.893 264.885 376.044C264.332 373.868 265.413 372.331 266.722 371.38C264.878 370.827 262.534 369.628 262.141 367.075C261.742 364.536 263.176 362.837 264.56 361.923C263.141 360.736 262.777 358.969 263.083 357.527C263.465 355.72 264.99 353.879 267.533 353.836L274.735 353.725C273.59 352.679 272.437 351.144 272.854 349.428C273.634 346.228 279.731 345.367 283.766 344.797L283.99 344.766C284.774 344.657 287.475 344.228 295.859 342.808C295.936 342.742 296.025 342.691 296.123 342.658L368.972 318.688L384.441 278.335C384.587 277.954 385.003 277.751 385.394 277.879L422.405 289.794C422.8 289.921 423.023 290.339 422.908 290.738L407.726 343.252C406.033 349.109 401.312 353.666 395.404 355.145L312.272 375.344C310.45 376.461 290.397 388.686 283.59 389.443C281.735 389.653 280.089 389.76 278.636 389.76ZM296.989 343.991C296.873 344.128 296.711 344.222 296.531 344.252C289.621 345.424 285.358 346.128 284.203 346.288L283.981 346.319C281.027 346.736 274.88 347.603 274.347 349.791C273.958 351.391 276.417 353.222 277.398 353.794C277.696 353.967 277.842 354.319 277.755 354.652C277.668 354.986 277.369 355.221 277.024 355.226L267.558 355.372C265.745 355.402 264.823 356.723 264.585 357.845C264.355 358.933 264.651 360.467 266.246 361.206C266.327 361.237 266.431 361.278 266.543 361.352C266.785 361.514 266.916 361.799 266.879 362.089C266.841 362.378 266.644 362.621 266.368 362.717C266.241 362.762 263.194 363.877 263.659 366.838C264.123 369.857 269.084 370.298 269.134 370.302C269.503 370.333 269.798 370.623 269.835 370.993C269.871 371.361 269.639 371.704 269.283 371.807C269.136 371.85 265.668 372.888 266.375 375.671C267.007 378.225 271.23 379.631 272.804 379.958C273.11 380.021 273.346 380.264 273.403 380.57C273.46 380.877 273.325 381.189 273.063 381.358C272.937 381.438 270.003 383.363 271.3 385.592C272.707 387.987 276.445 388.703 283.418 387.917C290.062 387.176 311.355 374.104 311.57 373.972C311.638 373.93 311.713 373.899 311.791 373.88L395.036 353.654C400.41 352.308 404.709 348.158 406.25 342.826L421.224 291.028L385.616 279.564L370.276 319.579C370.194 319.794 370.019 319.961 369.799 320.034L296.989 343.991Z" fill="#030047"/>
<path d="M379.612 287.603L395.281 244.063L415.571 247.21C423.921 248.506 429.864 256.011 429.213 264.432L420.2 305.211L379.612 287.603Z" fill="#E9E9E9" stroke="#263238"/>
<path d="M376.262 320.077H369.562C369.138 320.077 368.793 319.733 368.793 319.309C368.793 318.884 369.138 318.54 369.562 318.54H376.262C376.686 318.54 377.03 318.884 377.03 319.309C377.03 319.733 376.686 320.077 376.262 320.077Z" fill="#030047"/>
<path d="M274.114 363.282C274.097 363.282 274.08 363.281 274.063 363.28L266.074 362.753C265.651 362.725 265.33 362.36 265.358 361.936C265.386 361.513 265.767 361.185 266.175 361.221L274.164 361.748C274.587 361.776 274.908 362.141 274.88 362.565C274.853 362.971 274.515 363.282 274.114 363.282Z" fill="#030047"/>
<path d="M269.066 371.846C268.656 371.846 268.315 371.521 268.299 371.108C268.283 370.683 268.613 370.326 269.037 370.31L275.438 370.064C275.875 370.045 276.22 370.379 276.236 370.802C276.252 371.226 275.922 371.583 275.497 371.599L269.096 371.845C269.086 371.846 269.076 371.846 269.066 371.846Z" fill="#030047"/>
<path d="M277.414 381.721C277.412 381.721 277.41 381.721 277.407 381.721L272.359 381.679C271.935 381.675 271.594 381.329 271.598 380.905C271.601 380.483 271.944 380.143 272.366 380.143C272.368 380.143 272.37 380.143 272.372 380.143L277.42 380.185C277.844 380.189 278.186 380.535 278.182 380.959C278.179 381.381 277.835 381.721 277.414 381.721Z" fill="#030047"/>
<path d="M295.319 160.534L242.837 141.908C235.685 139.37 234.232 129.894 240.293 125.329L280.622 94.9518C286.074 90.845 293.949 93.6403 295.592 100.265L307.746 149.269C309.572 156.634 302.471 163.072 295.319 160.534Z" fill="#52D180"/>
<path d="M298.561 161.869C297.398 161.869 296.218 161.669 295.062 161.258L242.58 142.632C238.95 141.344 236.435 138.301 235.85 134.495C235.267 130.688 236.755 127.033 239.831 124.716L280.16 94.3387C282.927 92.2542 286.527 91.7019 289.793 92.8604C293.057 94.0197 295.504 96.7184 296.338 100.08L308.491 149.084C309.418 152.822 308.268 156.597 305.415 159.184C303.47 160.947 301.052 161.869 298.561 161.869ZM295.576 159.81C298.663 160.905 301.956 160.246 304.383 158.046C306.811 155.846 307.789 152.634 307 149.454L294.847 100.45C294.138 97.5904 292.056 95.2937 289.279 94.3084C286.5 93.3202 283.437 93.7922 281.084 95.5649L240.755 125.942C238.139 127.914 236.873 131.024 237.369 134.262C237.866 137.5 240.006 140.088 243.094 141.184L295.576 159.81Z" fill="#030047"/>
<path d="M287.174 113.822C287.125 113.961 287.069 114.098 287.007 114.236L279.473 129.588C278.711 131.292 276.768 132.122 275.008 131.498C273.251 130.874 272.266 129.004 272.749 127.202L276.578 110.535C277.416 107.406 280.744 105.659 283.794 106.741C286.705 107.774 288.188 110.964 287.174 113.822Z" fill="white"/>
<path d="M276.64 140.486C275.8 142.852 273.203 144.088 270.837 143.248C268.475 142.41 267.235 139.811 268.074 137.445C268.913 135.083 271.515 133.844 273.877 134.683C276.243 135.522 277.479 138.123 276.64 140.486Z" fill="white"/>
<path d="M106.995 333.787L67.0243 369.461C61.5778 374.322 52.9111 371.17 51.8601 363.946L44.8668 315.879C43.9213 309.381 49.9193 304.028 56.2688 305.703L103.233 318.095C110.292 319.958 112.442 328.926 106.995 333.787Z" fill="#0487FF"/>
<path d="M60.9783 372.574C59.8305 372.574 58.6675 372.371 57.5308 371.957C54.0388 370.687 51.6345 367.734 51.0998 364.057L44.1063 315.99C43.6253 312.682 44.8265 309.378 47.3208 307.152C49.8145 304.927 53.2315 304.107 56.4648 304.96L103.429 317.352C107.022 318.3 109.684 321.024 110.551 324.637C111.417 328.25 110.279 331.885 107.507 334.36L67.536 370.034C65.666 371.703 63.3555 372.574 60.9783 372.574ZM53.9238 306.166C51.889 306.166 49.903 306.907 48.3435 308.298C46.236 310.18 45.2203 312.972 45.6268 315.767L52.6203 363.835C53.0725 366.943 55.1045 369.439 58.0558 370.513C61.0073 371.588 64.1695 370.98 66.5128 368.887L106.484 333.213C108.827 331.122 109.789 328.05 109.056 324.995C108.324 321.941 106.074 319.639 103.037 318.838L56.0728 306.446C55.3618 306.258 54.6395 306.166 53.9238 306.166Z" fill="#030047"/>
<path d="M63.817 319.071C63.9115 319.177 64.0005 319.287 64.0893 319.403L73.5603 332.855C74.646 334.285 74.4488 336.309 73.108 337.505C71.7703 338.699 69.7368 338.666 68.4395 337.426L56.1465 326.492C53.8935 324.34 53.9573 320.724 56.2803 318.651C58.497 316.672 61.8745 316.895 63.817 319.071Z" fill="white"/>
<path d="M81.4461 340.282C83.0543 342.084 82.8973 344.847 81.0956 346.455C79.2963 348.061 76.5308 347.906 74.9226 346.105C73.3168 344.305 73.4741 341.537 75.2731 339.931C77.0751 338.323 79.8403 338.483 81.4461 340.282Z" fill="white"/>
<path d="M119.349 103.221C116.378 103.315 113.419 103.753 110.552 104.548L119.349 103.221Z" fill="white"/>
<path d="M110.552 105.317C110.215 105.317 109.906 105.094 109.812 104.754C109.698 104.346 109.938 103.922 110.346 103.809C113.237 103.008 116.258 102.551 119.325 102.452C119.733 102.427 120.104 102.771 120.117 103.196C120.13 103.62 119.798 103.975 119.374 103.989C116.429 104.083 113.53 104.52 110.757 105.289C110.689 105.308 110.62 105.317 110.552 105.317Z" fill="#030047"/>
<path d="M158.508 145.658C158.465 145.658 158.421 145.654 158.378 145.647C157.959 145.575 157.679 145.178 157.75 144.76C158.14 142.483 158.219 140.008 157.977 137.6C156.888 126.761 150.87 116.617 141.88 110.465C137.244 107.292 131.762 105.181 126.027 104.358C125.607 104.298 125.315 103.909 125.376 103.489C125.436 103.068 125.826 102.771 126.245 102.838C132.212 103.693 137.918 105.892 142.748 109.197C152.107 115.602 158.372 126.162 159.505 137.446C159.761 139.99 159.678 142.608 159.265 145.02C159.2 145.394 158.875 145.658 158.508 145.658Z" fill="#030047"/>
<path d="M72.7361 131.705C88.1824 131.705 100.704 119.183 100.704 103.737C100.704 88.2903 88.1824 75.7686 72.7361 75.7686C57.2898 75.7686 44.7681 88.2903 44.7681 103.737C44.7681 119.183 57.2898 131.705 72.7361 131.705Z" fill="white"/>
<path d="M72.7363 132.472C56.8913 132.472 44 119.582 44 103.736C44 87.8907 56.891 75 72.7363 75C88.5813 75 101.473 87.8907 101.473 103.736C101.472 119.582 88.5813 132.472 72.7363 132.472ZM72.7363 76.5365C57.7385 76.5365 45.5365 88.738 45.5365 103.736C45.5365 118.734 57.7385 130.936 72.7363 130.936C87.734 130.936 99.936 118.734 99.936 103.736C99.936 88.738 87.734 76.5365 72.7363 76.5365Z" fill="#030047"/>
<path d="M86.9461 96.6253C86.9461 99.4171 85.1866 101.465 83.2528 101.465C81.3188 101.465 79.5596 99.4172 79.5596 96.6253C79.5596 93.8331 81.319 91.7858 83.2528 91.7858C85.1866 91.7858 86.9461 93.8331 86.9461 96.6253Z" fill="#030047" stroke="#263238"/>
<path d="M67.1575 96.6253C67.1575 99.4171 65.3981 101.465 63.4642 101.465C61.5302 101.465 59.771 99.4172 59.771 96.6253C59.771 93.8331 61.5304 91.7858 63.4642 91.7858C65.3983 91.7858 67.1575 93.8331 67.1575 96.6253Z" fill="#030047" stroke="#263238"/>
<path d="M59.6797 116.068C59.5017 116.068 59.3222 116.006 59.1772 115.88C58.8567 115.602 58.8219 115.117 59.0997 114.797C62.4407 110.944 67.4777 108.54 72.5739 108.366C77.6699 108.216 82.8589 110.248 86.4544 113.864C86.7534 114.164 86.7524 114.651 86.4514 114.95C86.1504 115.249 85.6642 115.246 85.3652 114.946C82.0647 111.627 77.2874 109.723 72.6267 109.902C67.9494 110.061 63.3264 112.267 60.2612 115.803C60.1087 115.978 59.8947 116.068 59.6797 116.068Z" fill="#030047"/>
<path d="M419.066 213.375L413.227 217.05C410.486 218.759 406.885 217.94 405.172 215.218L401.497 209.38C399.784 206.657 400.603 203.057 403.325 201.344L409.168 197.649C411.889 195.936 415.491 196.755 417.223 199.481L420.894 205.339C422.607 208.061 421.788 211.661 419.066 213.375Z" fill="#E6F3FF"/>
<path d="M301.712 232.046L298.45 234.099C296.919 235.054 294.907 234.596 293.95 233.076L291.897 229.814C290.941 228.294 291.398 226.282 292.918 225.325L296.182 223.261C297.703 222.304 299.714 222.762 300.682 224.285L302.732 227.557C303.689 229.078 303.232 231.089 301.712 232.046Z" fill="#E6F3FF"/>
<path d="M372.357 116.27L370.008 117.748C368.905 118.435 367.456 118.106 366.767 117.011L365.289 114.662C364.6 113.567 364.929 112.118 366.024 111.429L368.375 109.943C369.47 109.254 370.918 109.584 371.615 110.68L373.092 113.037C373.781 114.132 373.452 115.58 372.357 116.27Z" fill="#E6F3FF"/>
<path d="M58.1755 222.194L55.8265 223.672C54.724 224.36 53.2755 224.03 52.5863 222.935L51.1078 220.586C50.4185 219.491 50.748 218.043 51.843 217.354L54.1935 215.867C55.2885 215.178 56.737 215.508 57.4338 216.604L58.9105 218.961C59.5998 220.056 59.2705 221.504 58.1755 222.194Z" fill="#E6F3FF"/>
<path d="M220.575 125.166L218.226 126.644C217.123 127.332 215.675 127.002 214.986 125.908L213.507 123.559C212.818 122.464 213.148 121.015 214.242 120.326L216.593 118.84C217.688 118.151 219.137 118.48 219.833 119.577L221.31 121.933C221.999 123.028 221.67 124.477 220.575 125.166Z" fill="#E6F3FF"/>
<path d="M218.459 374.798L216.11 376.276C215.007 376.963 213.558 376.634 212.869 375.539L211.391 373.19C210.702 372.095 211.031 370.646 212.126 369.957L214.477 368.471C215.572 367.782 217.02 368.112 217.717 369.208L219.194 371.565C219.883 372.66 219.554 374.108 218.459 374.798Z" fill="#E6F3FF"/>
<path d="M-63.0307 40.797C-37.594 54.9419 19.0022 75.7463 41.8932 45.8041C70.5069 8.37637 41.7034 0.871226 33.2448 19.5474C24.7861 38.2236 66.9969 63.6025 108.765 25.1247C142.179 -5.65755 157.787 -53.1177 161.414 -73" stroke="#0487FF" stroke-dasharray="6 6"/>
<path d="M479.529 315.123C454.601 330.146 408.389 368.881 422.967 403.637C441.189 447.083 462.034 425.835 450.045 409.203C438.056 392.572 395.035 416.553 407.622 471.93C417.691 516.232 451.088 553.391 466.527 566.432" stroke="#0487FF" stroke-dasharray="6 6"/>
</g>
</g>
<defs>
<clipPath id="clip0_313_1875">
<rect width="480" height="480" rx="24" fill="white"/>
</clipPath>
<clipPath id="clip1_313_1875">
<rect width="480" height="480" rx="24" fill="white"/>
</clipPath>
</defs>
</svg>
