<svg width="370" height="236" viewBox="0 0 370 236" fill="none" xmlns="http://www.w3.org/2000/svg">
<path d="M72.8415 130.278C70.9387 123.684 75.8177 117.042 82.6482 117.042H68.8895C62.059 117.042 57.18 123.684 59.0828 130.278L89.6251 234.811H103.384L72.8415 130.278Z" fill="#263238"/>
<path d="M103.76 234.311L73.323 130.14C73.3229 130.139 73.3228 130.139 73.3228 130.139C71.5101 123.856 76.1613 117.542 82.6493 117.542H168.763C173.073 117.542 176.834 120.397 178.09 124.554C178.091 124.555 178.091 124.555 178.091 124.556L210.104 234.311H103.76Z" fill="white" stroke="#263238"/>
<path d="M207.26 178.763L210.968 167.757L221.555 197.188L207.26 178.763Z" fill="#263238"/>
<mask id="path-4-inside-1_835_173" fill="white">
<path fill-rule="evenodd" clip-rule="evenodd" d="M210.089 227.83C205.711 220.825 205.226 203.293 205.791 191.197C206.157 190.679 206.533 190.091 206.919 189.43C208.287 187.082 209.352 184.764 210.165 182.501L229.118 206.884L243.706 183.272C243.706 183.272 231.216 158.157 221.506 145.163C211.749 132.121 195.063 128.679 195.063 128.679L195.063 128.68L195.062 128.679L190.671 130.957L159.982 126.206C148.625 128.678 141.229 132.43 138.962 133.684L138.954 133.672C138.954 133.672 128.659 136.339 121.048 150.885C120.434 152.052 119.738 153.354 118.98 154.771C111.178 169.36 96.8128 196.22 98.4582 215.709C98.7509 219.49 101.434 222.69 105.142 223.66C113.982 226.021 126.806 227.194 139.346 227.739L139.393 227.83H141.586C161.441 228.58 179.937 227.83 179.937 227.83L210.089 227.83Z"/>
</mask>
<path fill-rule="evenodd" clip-rule="evenodd" d="M210.089 227.83C205.711 220.825 205.226 203.293 205.791 191.197C206.157 190.679 206.533 190.091 206.919 189.43C208.287 187.082 209.352 184.764 210.165 182.501L229.118 206.884L243.706 183.272C243.706 183.272 231.216 158.157 221.506 145.163C211.749 132.121 195.063 128.679 195.063 128.679L195.063 128.68L195.062 128.679L190.671 130.957L159.982 126.206C148.625 128.678 141.229 132.43 138.962 133.684L138.954 133.672C138.954 133.672 128.659 136.339 121.048 150.885C120.434 152.052 119.738 153.354 118.98 154.771C111.178 169.36 96.8128 196.22 98.4582 215.709C98.7509 219.49 101.434 222.69 105.142 223.66C113.982 226.021 126.806 227.194 139.346 227.739L139.393 227.83H141.586C161.441 228.58 179.937 227.83 179.937 227.83L210.089 227.83Z" fill="#D0D2D3"/>
<path d="M205.791 191.197L204.975 190.62L204.806 190.858L204.793 191.15L205.791 191.197ZM210.089 227.83L210.089 228.83L211.894 228.83L210.937 227.3L210.089 227.83ZM206.919 189.43L207.782 189.934L207.782 189.934L206.919 189.43ZM210.165 182.501L210.955 181.887L209.839 180.452L209.224 182.163L210.165 182.501ZM229.118 206.884L228.328 207.498L229.212 208.635L229.968 207.41L229.118 206.884ZM243.706 183.272L244.556 183.798L244.849 183.325L244.601 182.827L243.706 183.272ZM221.506 145.163L222.308 144.565L222.307 144.564L221.506 145.163ZM195.063 128.679L195.265 127.699L193.715 127.38L194.091 128.916L195.063 128.679ZM195.063 128.68L194.195 129.178L196.034 128.442L195.063 128.68ZM195.062 128.679L195.929 128.181L195.452 127.349L194.601 127.791L195.062 128.679ZM190.671 130.957L190.518 131.946L190.841 131.996L191.132 131.845L190.671 130.957ZM159.982 126.206L160.135 125.218L159.951 125.189L159.769 125.229L159.982 126.206ZM138.962 133.684L138.15 134.268L138.668 134.989L139.446 134.559L138.962 133.684ZM138.954 133.672L139.765 133.089L139.366 132.533L138.703 132.704L138.954 133.672ZM121.048 150.885L121.933 151.35L121.934 151.348L121.048 150.885ZM118.98 154.771L118.099 154.299L118.099 154.299L118.98 154.771ZM98.4582 215.709L99.4552 215.631L99.4546 215.624L98.4582 215.709ZM105.142 223.66L105.4 222.694L105.395 222.693L105.142 223.66ZM139.346 227.739L140.234 227.28L139.968 226.765L139.389 226.74L139.346 227.739ZM139.393 227.83L138.505 228.289L138.784 228.83H139.393V227.83ZM141.586 227.83L141.624 226.83L141.605 226.83H141.586V227.83ZM179.937 227.83L179.937 226.83L179.917 226.83L179.896 226.831L179.937 227.83ZM204.793 191.15C204.508 197.228 204.487 204.682 205.09 211.51C205.688 218.281 206.913 224.635 209.241 228.36L210.937 227.3C208.887 224.02 207.68 218.105 207.082 211.335C206.49 204.622 206.509 197.262 206.79 191.243L204.793 191.15ZM206.055 188.926C205.681 189.567 205.321 190.129 204.975 190.62L206.608 191.774C206.993 191.229 207.384 190.616 207.782 189.934L206.055 188.926ZM209.224 182.163C208.431 184.369 207.393 186.632 206.055 188.926L207.782 189.934C209.182 187.533 210.273 185.159 211.106 182.839L209.224 182.163ZM229.907 206.271L210.955 181.887L209.376 183.115L228.328 207.498L229.907 206.271ZM242.855 182.747L228.267 206.359L229.968 207.41L244.556 183.798L242.855 182.747ZM220.705 145.762C225.515 152.198 231.036 161.672 235.37 169.572C237.534 173.514 239.394 177.052 240.714 179.604C241.374 180.88 241.899 181.91 242.258 182.619C242.438 182.974 242.576 183.249 242.669 183.435C242.716 183.528 242.751 183.599 242.775 183.647C242.787 183.67 242.796 183.688 242.802 183.7C242.805 183.706 242.807 183.71 242.808 183.713C242.809 183.715 242.81 183.716 242.81 183.717C242.81 183.717 242.81 183.717 242.81 183.717C242.81 183.718 242.81 183.718 243.706 183.272C244.601 182.827 244.601 182.827 244.601 182.827C244.601 182.826 244.601 182.826 244.6 182.826C244.6 182.825 244.599 182.824 244.599 182.822C244.597 182.819 244.595 182.814 244.592 182.808C244.586 182.796 244.576 182.777 244.564 182.753C244.54 182.705 244.504 182.633 244.457 182.539C244.363 182.351 244.223 182.073 244.042 181.716C243.681 181.002 243.154 179.967 242.491 178.686C241.165 176.123 239.297 172.57 237.124 168.61C232.785 160.703 227.207 151.122 222.308 144.565L220.705 145.762ZM195.063 128.679C194.86 129.658 194.86 129.658 194.86 129.658C194.86 129.658 194.86 129.658 194.86 129.658C194.86 129.658 194.86 129.658 194.861 129.658C194.862 129.658 194.864 129.659 194.868 129.659C194.874 129.661 194.884 129.663 194.899 129.666C194.927 129.672 194.971 129.682 195.03 129.695C195.148 129.722 195.324 129.764 195.555 129.822C196.015 129.938 196.688 130.118 197.529 130.376C199.211 130.892 201.559 131.715 204.206 132.938C209.511 135.389 215.962 139.421 220.706 145.762L222.307 144.564C217.294 137.863 210.522 133.653 205.045 131.122C202.301 129.854 199.867 129.001 198.115 128.464C197.239 128.195 196.533 128.006 196.043 127.882C195.797 127.82 195.606 127.775 195.474 127.745C195.409 127.73 195.358 127.719 195.323 127.712C195.305 127.708 195.291 127.705 195.282 127.703C195.277 127.702 195.273 127.701 195.27 127.7C195.269 127.7 195.267 127.7 195.267 127.7C195.266 127.699 195.266 127.699 195.265 127.699C195.265 127.699 195.265 127.699 195.063 128.679ZM196.034 128.442L196.034 128.441L194.091 128.916L194.092 128.918L196.034 128.442ZM194.195 129.176L194.195 129.178L195.93 128.182L195.929 128.181L194.195 129.176ZM191.132 131.845L195.523 129.566L194.601 127.791L190.21 130.07L191.132 131.845ZM159.829 127.194L190.518 131.946L190.824 129.969L160.135 125.218L159.829 127.194ZM139.446 134.559C141.649 133.341 148.954 129.63 160.195 127.183L159.769 125.229C148.297 127.726 140.81 131.519 138.478 132.809L139.446 134.559ZM139.774 133.1L139.765 133.089L138.142 134.256L138.15 134.268L139.774 133.1ZM138.954 133.672C138.703 132.704 138.702 132.705 138.702 132.705C138.701 132.705 138.701 132.705 138.7 132.705C138.699 132.705 138.698 132.706 138.697 132.706C138.694 132.707 138.691 132.708 138.687 132.709C138.679 132.711 138.668 132.714 138.656 132.717C138.63 132.724 138.595 132.734 138.55 132.748C138.46 132.775 138.334 132.814 138.173 132.869C137.851 132.979 137.393 133.15 136.823 133.401C135.684 133.903 134.101 134.722 132.279 136.007C128.631 138.578 124.045 143 120.162 150.421L121.934 151.348C125.662 144.224 130.029 140.039 133.431 137.641C135.134 136.441 136.6 135.685 137.629 135.232C138.144 135.005 138.549 134.854 138.82 134.762C138.955 134.715 139.057 134.684 139.122 134.664C139.155 134.654 139.178 134.648 139.192 134.644C139.199 134.642 139.204 134.641 139.206 134.64C139.207 134.64 139.207 134.64 139.207 134.64C139.207 134.64 139.206 134.64 139.206 134.64C139.206 134.64 139.205 134.64 139.205 134.64C139.205 134.64 139.204 134.641 138.954 133.672ZM120.163 150.419C119.551 151.583 118.857 152.881 118.099 154.299L119.862 155.242C120.62 153.826 121.318 152.521 121.933 151.35L120.163 150.419ZM118.099 154.299C114.2 161.589 108.632 171.999 104.247 183.033C99.8727 194.041 96.6188 205.808 97.4617 215.793L99.4546 215.624C98.6522 206.12 101.758 194.713 106.106 183.772C110.443 172.857 115.959 162.541 119.862 155.242L118.099 154.299ZM97.4612 215.786C97.7871 219.997 100.773 223.551 104.889 224.628L105.395 222.693C102.096 221.83 99.7147 218.984 99.4552 215.631L97.4612 215.786ZM104.884 224.626C113.838 227.017 126.755 228.192 139.303 228.738L139.389 226.74C126.857 226.195 114.127 225.025 105.4 222.694L104.884 224.626ZM140.281 227.371L140.234 227.28L138.458 228.198L138.505 228.289L140.281 227.371ZM141.586 226.83H139.393V228.83H141.586V226.83ZM141.549 228.829C151.499 229.205 161.104 229.205 168.22 229.111C171.779 229.064 174.717 228.994 176.765 228.935C177.79 228.905 178.592 228.879 179.138 228.86C179.412 228.85 179.621 228.843 179.762 228.837C179.833 228.835 179.886 228.833 179.922 228.831C179.94 228.83 179.954 228.83 179.963 228.829C179.968 228.829 179.971 228.829 179.974 228.829C179.975 228.829 179.976 228.829 179.976 228.829C179.977 228.829 179.977 228.829 179.977 228.829C179.977 228.829 179.977 228.829 179.937 227.83C179.896 226.831 179.896 226.831 179.896 226.831C179.896 226.831 179.896 226.831 179.896 226.831C179.895 226.831 179.894 226.831 179.893 226.831C179.891 226.831 179.888 226.831 179.884 226.831C179.875 226.831 179.862 226.832 179.844 226.833C179.809 226.834 179.756 226.836 179.686 226.839C179.547 226.844 179.34 226.852 179.068 226.861C178.526 226.88 177.728 226.906 176.708 226.936C174.668 226.994 171.741 227.064 168.194 227.111C161.099 227.205 151.529 227.205 141.624 226.83L141.549 228.829ZM210.089 226.83L179.937 226.83L179.937 228.83L210.089 228.83L210.089 226.83Z" fill="#263238" mask="url(#path-4-inside-1_835_173)"/>
<path d="M205.076 214.174L205.076 214.174L205.081 214.182L213.425 227.33H201.542L197.301 222.225L197.059 221.934L196.713 222.088L196.713 222.088L196.712 222.089L196.706 222.091L196.678 222.103C196.654 222.114 196.616 222.13 196.566 222.151C196.466 222.192 196.318 222.252 196.127 222.326C195.743 222.474 195.188 222.675 194.504 222.888C193.134 223.314 191.259 223.781 189.226 223.956C185.229 224.299 180.758 223.51 178.189 219.225L183.906 211.069H199.161C201.644 211.069 203.91 212.257 205.076 214.174Z" fill="white" stroke="#263238"/>
<path d="M185.011 210.569L185.743 208.145L124.512 196.412" stroke="#263238" stroke-miterlimit="10"/>
<path d="M149.493 168.63L141.882 199.806L132.807 198.351L149.493 168.63Z" fill="#263238"/>
<path d="M180 222.5L184 210.5L182.5 209L176.5 219L180 222.5Z" fill="#D0D2D3"/>
<path d="M156.273 71.2242C156.273 71.2242 154.955 78.6908 148.759 84.1696C143.539 88.7756 133.976 103.612 137.001 122.133L217.211 126.012C218.967 122.133 224.578 117.915 215.942 101.527C212.576 95.0786 213.552 83.4908 213.552 83.4908L208.575 70.8363L176.911 66.4727L156.273 71.2242Z" fill="#263238"/>
<path d="M194.769 93.7693C194.378 97.7936 197.355 101.381 201.404 101.769C205.503 102.157 209.113 99.1996 209.503 95.1754C209.894 91.1512 206.917 87.5148 202.868 87.1269C198.77 86.7391 195.159 89.6966 194.769 93.7693Z" fill="white"/>
<path d="M162.809 86.5454C163.053 87.903 187.595 81.7939 189.4 65.7939C189.4 65.7939 158.565 66.0364 162.809 86.5454Z" fill="#263238"/>
<path d="M171.787 108.703L189.01 124.024L190.961 109.139L171.787 108.703Z" fill="#D8906C"/>
<path d="M175.787 78.2544L173.445 93.7695L163.102 80.4362L175.787 78.2544Z" fill="#263238"/>
<mask id="path-15-inside-2_835_173" fill="white">
<path fill-rule="evenodd" clip-rule="evenodd" d="M205.993 100.412L208.969 79.1272L186.769 71.8545L171.401 81.6969L171.115 85.4629C170.133 84.8378 168.989 84.4305 167.74 84.315C163.544 83.9272 159.836 86.9332 159.446 91.1029C159.056 95.2726 162.081 98.9574 166.277 99.3453C167.631 99.472 168.944 99.2366 170.112 98.7168L169.99 100.318L169.985 100.315L167.762 124.519L156.957 126.885C156.957 126.885 162.568 139.539 181.352 139.539C196.184 139.539 197.843 129.406 197.843 129.406L188.875 125.29L190.143 114.851C191.191 114.766 192.233 114.593 193.258 114.327C199.894 112.582 204.968 107.733 205.993 100.412Z"/>
</mask>
<path fill-rule="evenodd" clip-rule="evenodd" d="M205.993 100.412L208.969 79.1272L186.769 71.8545L171.401 81.6969L171.115 85.4629C170.133 84.8378 168.989 84.4305 167.74 84.315C163.544 83.9272 159.836 86.9332 159.446 91.1029C159.056 95.2726 162.081 98.9574 166.277 99.3453C167.631 99.472 168.944 99.2366 170.112 98.7168L169.99 100.318L169.985 100.315L167.762 124.519L156.957 126.885C156.957 126.885 162.568 139.539 181.352 139.539C196.184 139.539 197.843 129.406 197.843 129.406L188.875 125.29L190.143 114.851C191.191 114.766 192.233 114.593 193.258 114.327C199.894 112.582 204.968 107.733 205.993 100.412Z" fill="white"/>
<path d="M208.969 79.1272L209.959 79.2657L210.075 78.4373L209.28 78.1769L208.969 79.1272ZM205.993 100.412L206.983 100.551L206.983 100.55L205.993 100.412ZM186.769 71.8545L187.081 70.9042L186.63 70.7564L186.23 71.0124L186.769 71.8545ZM171.401 81.6969L170.861 80.8548L170.441 81.1238L170.404 81.6214L171.401 81.6969ZM171.115 85.4629L170.578 86.3064L171.987 87.2028L172.113 85.5384L171.115 85.4629ZM167.74 84.315L167.832 83.3193L167.832 83.3193L167.74 84.315ZM159.446 91.1029L158.45 91.0097L158.45 91.0097L159.446 91.1029ZM166.277 99.3453L166.37 98.3496L166.369 98.3495L166.277 99.3453ZM170.112 98.7168L171.109 98.7924L171.235 97.122L169.705 97.8033L170.112 98.7168ZM169.99 100.318L169.505 101.193L170.87 101.95L170.987 100.394L169.99 100.318ZM169.985 100.315L170.47 99.4406L169.129 98.6966L168.989 100.224L169.985 100.315ZM167.762 124.519L167.976 125.496L168.691 125.34L168.758 124.611L167.762 124.519ZM156.957 126.885L156.743 125.908L155.546 126.17L156.043 127.29L156.957 126.885ZM197.843 129.406L198.83 129.567L198.953 128.815L198.26 128.497L197.843 129.406ZM188.875 125.29L187.882 125.169L187.794 125.894L188.458 126.199L188.875 125.29ZM190.143 114.851L190.063 113.854L189.249 113.92L189.151 114.73L190.143 114.851ZM193.258 114.327L193.51 115.295L193.513 115.294L193.258 114.327ZM207.978 78.9887L205.002 100.273L206.983 100.55L209.959 79.2657L207.978 78.9887ZM186.458 72.8048L208.657 80.0775L209.28 78.1769L187.081 70.9042L186.458 72.8048ZM171.94 82.539L187.309 72.6966L186.23 71.0124L170.861 80.8548L171.94 82.539ZM172.113 85.5384L172.398 81.7724L170.404 81.6214L170.118 85.3873L172.113 85.5384ZM167.648 85.3108C168.736 85.4113 169.728 85.7653 170.578 86.3064L171.652 84.6193C170.538 83.9102 169.242 83.4496 167.832 83.3193L167.648 85.3108ZM160.442 91.1961C160.779 87.5912 163.986 84.9723 167.648 85.3108L167.832 83.3193C163.102 82.8821 158.894 86.2752 158.45 91.0097L160.442 91.1961ZM166.369 98.3495C162.727 98.0129 160.102 94.8193 160.442 91.1961L158.45 91.0097C158.009 95.7258 161.434 99.9019 166.184 100.341L166.369 98.3495ZM169.705 97.8033C168.69 98.2552 167.549 98.4599 166.37 98.3496L166.183 100.341C167.714 100.484 169.198 100.218 170.518 99.6304L169.705 97.8033ZM170.987 100.394L171.109 98.7924L169.114 98.6413L168.993 100.243L170.987 100.394ZM169.499 101.189L169.505 101.193L170.475 99.4438L170.47 99.4406L169.499 101.189ZM168.758 124.611L170.98 100.406L168.989 100.224L166.766 124.428L168.758 124.611ZM167.548 123.542L156.743 125.908L157.171 127.861L167.976 125.496L167.548 123.542ZM156.957 126.885C156.043 127.29 156.043 127.291 156.043 127.291C156.044 127.291 156.044 127.292 156.044 127.293C156.045 127.294 156.045 127.295 156.046 127.297C156.047 127.3 156.049 127.304 156.051 127.308C156.055 127.317 156.061 127.329 156.068 127.344C156.082 127.374 156.102 127.416 156.128 127.469C156.18 127.574 156.256 127.723 156.358 127.91C156.563 128.283 156.874 128.807 157.304 129.43C158.166 130.677 159.512 132.328 161.466 133.976C165.388 137.285 171.713 140.539 181.352 140.539V138.539C172.207 138.539 166.334 135.466 162.755 132.447C160.958 130.932 159.728 129.419 158.95 128.294C158.561 127.731 158.286 127.266 158.111 126.947C158.024 126.787 157.961 126.665 157.922 126.585C157.902 126.545 157.888 126.515 157.88 126.498C157.875 126.489 157.873 126.483 157.871 126.48C157.871 126.478 157.87 126.477 157.87 126.477C157.87 126.477 157.87 126.477 157.87 126.478C157.871 126.478 157.871 126.478 157.871 126.478C157.871 126.479 157.871 126.479 156.957 126.885ZM181.352 140.539C189.023 140.539 193.427 137.905 195.904 135.14C197.129 133.772 197.856 132.402 198.278 131.367C198.489 130.849 198.624 130.413 198.708 130.1C198.75 129.944 198.779 129.818 198.799 129.727C198.808 129.682 198.815 129.646 198.82 129.619C198.823 129.606 198.825 129.594 198.826 129.586C198.827 129.582 198.828 129.578 198.828 129.575C198.829 129.573 198.829 129.572 198.829 129.571C198.829 129.57 198.829 129.569 198.829 129.569C198.83 129.568 198.83 129.567 197.843 129.406C196.856 129.244 196.856 129.244 196.856 129.243C196.856 129.243 196.856 129.242 196.856 129.242C196.856 129.241 196.856 129.241 196.857 129.241C196.857 129.24 196.857 129.24 196.857 129.24C196.856 129.242 196.856 129.245 196.855 129.251C196.852 129.262 196.849 129.283 196.842 129.312C196.83 129.37 196.809 129.462 196.777 129.582C196.712 129.824 196.602 130.179 196.426 130.612C196.073 131.477 195.458 132.64 194.414 133.805C192.354 136.106 188.512 138.539 181.352 138.539V140.539ZM198.26 128.497L189.292 124.381L188.458 126.199L197.426 130.315L198.26 128.497ZM189.151 114.73L187.882 125.169L189.868 125.41L191.136 114.971L189.151 114.73ZM193.007 113.359C192.04 113.61 191.055 113.773 190.063 113.854L190.224 115.847C191.327 115.758 192.427 115.576 193.51 115.295L193.007 113.359ZM205.002 100.273C204.041 107.144 199.302 111.703 193.004 113.36L193.513 115.294C200.486 113.46 205.895 108.322 206.983 100.551L205.002 100.273Z" fill="#263238" mask="url(#path-15-inside-2_835_173)"/>
<path d="M194.717 101.721L197.156 101.672L197.205 97.0664" stroke="#263238" stroke-linecap="round" stroke-linejoin="round"/>
<path d="M189.984 93.8179C189.837 94.8361 188.91 95.5149 187.886 95.3694C186.861 95.224 186.178 94.3028 186.324 93.3331C186.471 92.3149 187.398 91.6361 188.422 91.7816C189.398 91.927 190.13 92.8482 189.984 93.8179Z" fill="#263238"/>
<path d="M203.061 94.6422C202.963 95.4665 202.183 96.0483 201.305 95.9513C200.475 95.8543 199.89 95.0786 199.987 94.2059C200.134 93.3816 200.914 92.7998 201.744 92.8968C202.573 93.0422 203.207 93.818 203.061 94.6422Z" fill="#263238"/>
<path d="M187.35 85.2361C187.35 85.2361 191.741 84.9936 191.693 86.7391C191.693 86.7391 191.693 87.9027 187.887 88.0482C184.033 88.1936 183.057 87.9027 182.764 86.7391C182.423 85.6239 185.301 85.1876 187.35 85.2361Z" fill="#263238"/>
<path d="M203.793 86.8846C203.793 86.8846 200.914 85.8664 200.133 87.224C200.133 87.224 199.597 88.1452 202.134 88.9695C204.671 89.8422 205.451 89.7937 206.183 88.9695C206.964 88.1452 205.207 87.224 203.793 86.8846Z" fill="#263238"/>
<path d="M186.668 103.078C186.668 103.078 188.473 105.648 193.742 105.163" stroke="#263238" stroke-linecap="round" stroke-linejoin="round"/>
<path d="M156.271 71.2241C158.223 60.7514 166.956 49.7938 190.473 52.8969C203.207 54.5453 218.137 67.5392 213.746 82.8604C213.648 83.2968 213.55 83.4907 213.55 83.4907C197.45 83.3452 182.911 73.1635 182.911 73.1635L156.271 71.2241Z" fill="#263238"/>
<path d="M169.447 94.3027C169.447 94.3027 169.984 88.8724 164.617 89.2118" stroke="#263238" stroke-linecap="round" stroke-linejoin="round"/>
<path d="M161.64 234.811H223.944V227.83H161.64C159.688 227.83 158.127 229.381 158.127 231.32C158.127 233.26 159.688 234.811 161.64 234.811Z" fill="#263238"/>
<path d="M305.178 234.311H216.396L234.77 164.83L234.77 164.83L234.771 164.826C235.494 161.997 238.073 160.015 241.019 160.015H323.766C326.226 160.015 328.131 161.185 329.262 162.943C330.397 164.709 330.763 167.092 330.068 169.51L330.067 169.51L330.065 169.52L314.893 226.968C314.893 226.969 314.892 226.97 314.892 226.971C313.683 231.308 309.687 234.311 305.178 234.311Z" fill="#0487FF" stroke="#263238"/>
<path d="M279.662 207.305C275.593 207.305 272.355 204.084 272.355 200.048C272.355 196.058 275.595 192.79 279.662 192.79C283.682 192.79 286.968 196.06 286.968 200.048C286.968 204.082 283.684 207.305 279.662 207.305Z" fill="white" stroke="#263238"/>
<path d="M185.5 208L179 227" stroke="#263238"/>
<path d="M43.1797 234.812H369.241" stroke="#263238" stroke-width="1.52036" stroke-miterlimit="10"/>
<path d="M0 234.812H27.8589" stroke="#263238" stroke-width="1.52036" stroke-miterlimit="10"/>
<mask id="path-31-inside-3_835_173" fill="white">
<path fill-rule="evenodd" clip-rule="evenodd" d="M269.526 92.7028H313.523C314.694 92.7028 315.621 91.7816 315.621 90.6179V73.4059C315.621 72.2422 314.694 71.321 313.523 71.321H256C254.829 71.321 253.854 72.2422 253.854 73.4059V90.6179C253.854 91.7816 254.829 92.7028 256 92.7028H262.051V98.6179L269.526 92.7028Z"/>
</mask>
<path fill-rule="evenodd" clip-rule="evenodd" d="M269.526 92.7028H313.523C314.694 92.7028 315.621 91.7816 315.621 90.6179V73.4059C315.621 72.2422 314.694 71.321 313.523 71.321H256C254.829 71.321 253.854 72.2422 253.854 73.4059V90.6179C253.854 91.7816 254.829 92.7028 256 92.7028H262.051V98.6179L269.526 92.7028Z" fill="#0487FF"/>
<path d="M269.526 92.7028V91.7028H269.178L268.905 91.9186L269.526 92.7028ZM262.051 92.7028H263.051V91.7028H262.051V92.7028ZM262.051 98.6179H261.051V100.684L262.671 99.4021L262.051 98.6179ZM313.523 91.7028H269.526V93.7028H313.523V91.7028ZM314.621 90.6179C314.621 91.2234 314.148 91.7028 313.523 91.7028V93.7028C315.241 93.7028 316.621 92.3398 316.621 90.6179H314.621ZM314.621 73.4059V90.6179H316.621V73.4059H314.621ZM313.523 72.321C314.148 72.321 314.621 72.8005 314.621 73.4059H316.621C316.621 71.684 315.241 70.321 313.523 70.321V72.321ZM256 72.321H313.523V70.321H256V72.321ZM254.854 73.4059C254.854 72.83 255.345 72.321 256 72.321V70.321C254.313 70.321 252.854 71.6545 252.854 73.4059H254.854ZM254.854 90.6179V73.4059H252.854V90.6179H254.854ZM256 91.7028C255.345 91.7028 254.854 91.1938 254.854 90.6179H252.854C252.854 92.3694 254.313 93.7028 256 93.7028V91.7028ZM262.051 91.7028H256V93.7028H262.051V91.7028ZM261.051 92.7028V98.6179H263.051V92.7028H261.051ZM262.671 99.4021L270.146 93.487L268.905 91.9186L261.43 97.8337L262.671 99.4021Z" fill="#263238" mask="url(#path-31-inside-3_835_173)"/>
<path d="M264.053 78.9331H301.182" stroke="white" stroke-width="0.923077" stroke-miterlimit="10"/>
<path d="M264.053 84.0725H280.69" stroke="white" stroke-width="0.923077" stroke-miterlimit="10"/>
<path d="M125.144 52.1544H82.4042C78.5303 52.1544 75.3906 49.0299 75.3906 45.1877V5.67272C75.3906 2.84321 77.7064 0.5 80.5502 0.5H125.144C127.988 0.5 130.304 2.84321 130.304 5.67272V46.9817C130.304 49.8112 127.988 52.1544 125.144 52.1544Z" fill="#52D180" stroke="#263238"/>
<path fill-rule="evenodd" clip-rule="evenodd" d="M114.995 34.3274C114.751 34.5698 114.458 34.8607 114.263 35.1032C113.84 35.4264 113.499 35.7658 113.239 36.1213C113.141 36.1698 113.141 36.1698 113.141 36.1698C112.263 37.091 111.092 37.6244 109.726 37.6244C109.579 37.6244 109.482 37.6244 109.336 37.6244C107.335 37.4304 105.53 36.7032 104.213 36.1213C100.7 34.4244 97.6748 32.0486 95.1378 29.0426C93.0398 26.5214 91.5761 24.2426 90.6979 21.6244C90.3076 20.6062 89.8197 19.0063 89.966 17.3093C90.0636 16.2426 90.5027 15.2729 91.2346 14.5457L93.235 12.5578C93.8692 11.976 94.5523 11.6851 95.2841 11.6851C96.016 11.6851 96.7966 12.0244 97.3333 12.5578C97.6748 12.8972 98.0651 13.3335 98.4066 13.6729C98.6018 13.8669 98.7482 14.0608 98.9433 14.2063L100.553 15.8063C101.139 16.4366 101.48 17.1638 101.48 17.8911C101.48 18.6184 101.139 19.3456 100.553 19.9759C100.358 20.1376 100.179 20.3153 100.017 20.5093C99.6264 20.8972 99.2361 21.3335 98.7482 21.7214C99.0409 22.4002 99.5776 23.2244 100.261 24.0487C101.724 25.8426 103.286 27.2971 104.944 28.3638C105.14 28.4608 105.286 28.5092 105.53 28.6547C105.66 28.687 105.774 28.7355 105.871 28.8001L107.677 27.0062C108.262 26.4244 108.994 26.085 109.726 26.085C110.506 26.085 111.238 26.4244 111.775 27.0547L114.995 30.2062C116.166 31.4183 116.166 33.1153 114.995 34.3274ZM113.678 31.5153L110.506 28.3638C110.311 28.1699 110.019 27.9759 109.726 27.9759C109.384 27.9759 109.14 28.1699 108.945 28.3638L106.945 30.3517C106.506 30.788 105.92 30.885 105.384 30.5941L105.286 30.5456C105.14 30.4486 104.944 30.4001 104.749 30.2547C104.505 30.1577 104.213 30.0608 104.017 29.8668C102.115 28.7032 100.407 27.1517 98.8458 25.1638C97.9675 24.0486 97.3333 23.1274 96.943 22.1578V22.0608C96.8454 21.7214 96.699 21.2365 97.2845 20.6547C97.3333 20.6062 97.3333 20.6062 97.3333 20.6062C97.8212 20.1699 98.2603 19.685 98.7482 19.2002C98.9433 19.0386 99.1222 18.8608 99.2849 18.6669C99.4312 18.5214 99.6752 18.2305 99.6752 17.8911C99.6752 17.6002 99.4312 17.2608 99.2849 17.1154L97.6748 15.5153C97.4796 15.3699 97.2845 15.1275 97.1381 14.9335C96.7803 14.6103 96.4388 14.2709 96.1136 13.9154C95.8696 13.7214 95.6256 13.5275 95.2841 13.5275C94.9426 13.5275 94.6498 13.7699 94.5035 13.9154L92.5519 15.8547C92.064 16.2911 91.8201 16.8729 91.7713 17.5032C91.6737 18.5699 91.8689 19.6366 92.4543 20.9941C93.3813 23.3214 94.6499 25.5032 96.6014 27.8305C98.9921 30.6911 101.822 32.8729 105.091 34.4729C106.213 35.0062 107.823 35.685 109.531 35.8304C109.628 35.8304 109.677 35.8304 109.823 35.8304C110.653 35.8304 111.287 35.5395 111.873 34.9577C112.263 34.5698 112.604 34.182 112.995 33.8426C113.222 33.6163 113.45 33.39 113.678 33.1638C114.166 32.582 114.166 32.0486 113.678 31.5153Z" fill="white"/>
<path d="M45.7032 99.733C45.7032 111.623 35.9777 121.294 23.9551 121.294C11.9821 121.294 2.25586 111.624 2.25586 99.733C2.25586 87.7933 11.9828 78.124 23.9551 78.124C35.9769 78.124 45.7032 87.794 45.7032 99.733Z" fill="#0487FF" stroke="#263238"/>
<path d="M33.9062 106.327H17.0738H14V93.0906H33.9062V96.3875V106.327Z" stroke="white" stroke-width="1.08597" stroke-linecap="round" stroke-linejoin="round"/>
<path d="M14 93.0906L23.9531 100.897L33.9062 93.0906" stroke="white" stroke-width="1.08597" stroke-linecap="round" stroke-linejoin="round"/>
<path d="M356.945 126.787H284.102C282.98 126.787 282.102 125.866 282.102 124.799C282.102 123.684 282.98 122.812 284.102 122.812H356.945C358.067 122.812 358.945 123.684 358.945 124.799C358.945 125.866 358.067 126.787 356.945 126.787Z" fill="#B4DBFF"/>
<path d="M205.697 24.3877H172.569C171.495 24.3877 170.568 23.515 170.568 22.4483C170.568 21.3332 171.495 20.4604 172.569 20.4604H205.697C206.819 20.4604 207.697 21.3332 207.697 22.4483C207.697 23.515 206.819 24.3877 205.697 24.3877Z" fill="#B4DBFF"/>
<path d="M23.6142 158.496H1.854C0.829418 158.496 0 159.369 0 160.387V160.581C0 161.648 0.829418 162.472 1.854 162.472H23.6142C24.6387 162.472 25.4682 161.648 25.4682 160.581V160.387C25.4682 159.369 24.6387 158.496 23.6142 158.496Z" fill="#B4DBFF"/>
<path d="M347.823 62.5937H344.651C343.822 62.5937 343.139 61.9149 343.139 61.0907V58.1331C343.139 57.3089 343.822 56.6301 344.651 56.6301H347.823C348.652 56.6301 349.335 57.3089 349.335 58.1331V61.0907C349.335 61.9149 348.652 62.5937 347.823 62.5937Z" fill="#B4DBFF"/>
<path d="M38.9346 195.296H34.7386C33.6165 195.296 32.7383 194.423 32.7383 193.308V189.381C32.7383 188.314 33.6165 187.442 34.7386 187.442H38.9346C40.0079 187.442 40.9349 188.314 40.9349 189.381V193.308C40.9349 194.423 40.0079 195.296 38.9346 195.296Z" fill="#B4DBFF"/>
<path d="M257.122 23.5635H272.588C273.369 23.5635 274.003 24.1938 274.003 25.018V32.5331C274.003 33.3574 273.369 33.9877 272.588 33.9877H264.587L259.854 38.0119V34.1816L257.073 34.1331C256.293 34.1331 255.707 33.4543 255.707 32.6786V25.018C255.707 24.1938 256.341 23.5635 257.122 23.5635Z" stroke="#0487FF" stroke-width="1.08597" stroke-miterlimit="10"/>
<path d="M362.313 159.466C362.313 162.084 360.215 164.218 357.629 164.218C355.043 164.218 352.945 162.084 352.945 159.466C352.945 156.897 355.043 154.763 357.629 154.763C360.215 154.763 362.313 156.897 362.313 159.466Z" stroke="#FFF6EE" stroke-width="1.08597" stroke-miterlimit="10"/>
<path d="M87.432 85.1874C87.432 87.8056 85.3341 89.9389 82.7482 89.9389C80.1624 89.9389 78.0645 87.8056 78.0645 85.1874C78.0645 82.6177 80.1624 80.4844 82.7482 80.4844C85.3341 80.4844 87.432 82.6177 87.432 85.1874Z" stroke="#FFF6EE" stroke-width="1.08597" stroke-miterlimit="10"/>
</svg>
