<svg width="488" height="488" viewBox="0 0 488 488" fill="none" xmlns="http://www.w3.org/2000/svg">
<g clip-path="url(#clip0_540_467)">
<rect width="488" height="488" rx="24" fill="#E6F3FF"/>
<g filter="url(#filter0_dd_540_467)">
<rect x="40" y="92" width="120" height="120" rx="12" fill="white"/>
</g>
<g clip-path="url(#clip1_540_467)">
<path d="M121.349 142.108C121.349 141.306 121.178 140.583 120.823 139.978C120.481 139.374 119.968 138.874 119.284 138.479C113.605 135.205 107.911 131.931 102.231 128.657C100.693 127.776 99.2199 127.802 97.6946 128.697C95.4334 130.025 84.0999 136.52 80.7343 138.479C79.3402 139.282 78.6699 140.518 78.6699 142.122C78.6699 148.708 78.6699 155.309 78.6699 161.896C78.6699 162.685 78.8405 163.382 79.1696 163.987C79.5118 164.605 80.0377 165.131 80.7343 165.538C84.113 167.498 95.4343 173.98 97.6955 175.32C99.2209 176.215 100.707 176.254 102.232 175.36C107.912 172.073 113.605 168.812 119.285 165.538C119.995 165.13 120.508 164.617 120.85 163.986C121.179 163.381 121.35 162.685 121.35 161.895C121.349 161.883 121.349 148.695 121.349 142.108Z" fill="#9A4993"/>
<path d="M100.061 151.93L79.1426 163.974C79.4848 164.592 80.0107 165.117 80.7073 165.525C84.086 167.485 95.4073 173.967 97.6685 175.307C99.1938 176.202 100.68 176.241 102.205 175.347C107.885 172.06 113.578 168.799 119.258 165.524C119.968 165.117 120.481 164.604 120.823 163.973L100.061 151.93Z" fill="#6A1577"/>
<path d="M93.8691 155.493C95.0916 157.623 97.3801 159.057 99.9966 159.057C102.639 159.057 104.94 157.61 106.15 155.454L100.063 151.93L93.8691 155.493Z" fill="#6A1577"/>
<path d="M121.349 142.108C121.349 141.306 121.179 140.583 120.823 139.978L100.062 151.93L120.85 163.974C121.179 163.369 121.349 162.672 121.349 161.883C121.349 161.883 121.349 148.695 121.349 142.108Z" fill="#813084"/>
<path d="M106.15 155.454C104.94 157.597 102.639 159.057 99.9958 159.057C97.3661 159.057 95.0786 157.623 93.8683 155.493C93.2767 154.454 92.9345 153.271 92.9345 151.995C92.9345 148.091 96.0902 144.935 99.9948 144.935C102.598 144.935 104.873 146.355 106.096 148.459L112.263 144.909C109.804 140.675 105.229 137.822 99.9827 137.822C92.1461 137.822 85.8086 144.173 85.8086 151.996C85.8086 154.56 86.492 156.979 87.6892 159.057C90.1352 163.303 94.7364 166.169 99.9958 166.169C105.268 166.169 109.87 163.29 112.315 159.016L106.15 155.454Z" fill="white"/>
<path d="M113.948 148.643H112.541V155.441H113.948V148.643Z" fill="white"/>
<path d="M117.063 148.643H115.656V155.441H117.063V148.643Z" fill="white"/>
<path d="M118.208 149.787H111.41V151.194H118.208V149.787Z" fill="white"/>
<path d="M118.208 152.89H111.41V154.297H118.208V152.89Z" fill="white"/>
</g>
<g filter="url(#filter1_dd_540_467)">
<rect x="40" y="236" width="120" height="120" rx="12" fill="white"/>
</g>
<g clip-path="url(#clip2_540_467)">
<path d="M104.596 266.016C105.538 267.088 105.849 268.621 105.578 270.003C105.287 271.556 104.426 272.929 103.414 274.111C102.603 275.062 101.671 275.904 100.699 276.685C99.5671 277.597 98.4551 278.579 97.7437 279.861C97.1427 280.903 97.0024 282.185 97.4132 283.317C98.0844 285.261 99.6472 286.703 100.499 288.537C99.557 287.705 98.6353 286.844 97.7738 285.932C96.8722 284.97 96.0206 283.948 95.4596 282.746C95.079 281.905 94.9086 280.923 95.1992 280.031C95.4897 279.12 96.1409 278.388 96.792 277.707C98.6053 275.894 100.839 274.562 102.613 272.718C103.594 271.706 104.406 270.494 104.686 269.102C104.917 268.08 104.807 267.028 104.596 266.016Z" fill="#E92E2F" stroke="#E92E2F" stroke-width="0.0121377" stroke-miterlimit="10"/>
<path d="M103.112 277.427C105.055 275.994 107.329 275.083 109.634 274.422C107.81 275.584 105.907 276.646 104.334 278.138C103.763 278.689 103.222 279.32 102.972 280.092C102.781 280.663 102.861 281.294 103.092 281.835C103.513 282.797 104.224 283.578 104.765 284.46C105.226 285.211 105.306 286.173 104.955 286.984C104.424 288.176 103.382 289.048 102.3 289.739C102.16 289.819 102.04 289.97 101.869 289.99C102.591 289.338 103.152 288.417 103.132 287.425C103.112 286.684 102.701 286.032 102.22 285.502C101.228 284.319 100.397 282.817 100.567 281.224C100.738 279.631 101.879 278.349 103.112 277.427Z" fill="#E92E2F" stroke="#E92E2F" stroke-width="0.0121377" stroke-miterlimit="10"/>
<path d="M110.004 289.008C110.425 288.497 111.096 288.367 111.707 288.286C112.769 288.146 113.901 288.417 114.702 289.148C115.364 289.739 115.734 290.661 115.594 291.552C115.444 292.584 114.752 293.446 113.971 294.097C112.559 295.229 110.815 295.89 109.072 296.331C109.172 296.221 109.283 296.12 109.413 296.04C110.735 295.329 112.048 294.498 113.019 293.336C113.61 292.614 114.071 291.673 113.881 290.721C113.681 289.619 112.609 288.817 111.517 288.757C110.996 288.707 110.505 288.908 110.004 289.008Z" fill="#0774BB" stroke="#0774BB" stroke-width="0.0121377" stroke-miterlimit="10"/>
<path d="M89.8697 289.919C91.713 289.128 93.7167 288.617 95.7303 288.647C94.5582 288.988 93.356 289.278 92.254 289.799C91.9936 289.939 91.693 290.07 91.5427 290.34C91.4626 290.551 91.683 290.691 91.8433 290.761C92.5245 291.041 93.2759 291.082 94.0072 291.152C96.5718 291.322 99.1464 291.222 101.701 291.061C104.225 290.901 106.73 290.561 109.225 290.16C108.674 290.42 108.113 290.681 107.602 291.011C107.341 291.192 107.021 291.242 106.73 291.312C103.665 291.993 100.519 292.204 97.3933 292.254C96.1811 292.264 94.9789 292.244 93.7768 292.163C92.4343 292.073 91.0819 291.973 89.7696 291.622C89.3889 291.512 88.9881 291.392 88.6876 291.122C88.5373 291.001 88.5373 290.761 88.6676 290.621C88.9982 290.28 89.459 290.12 89.8697 289.919Z" fill="#0774BB" stroke="#0774BB" stroke-width="0.0121377" stroke-miterlimit="10"/>
<path d="M92.2326 294.197C92.7535 293.786 93.3746 293.556 93.9958 293.335C93.7954 293.576 93.5149 293.806 93.4949 294.137C93.4848 294.347 93.6551 294.508 93.8255 294.608C94.156 294.778 94.5267 294.838 94.8974 294.888C96.8208 295.089 98.7643 295.199 100.708 295.069C102.481 294.978 104.244 294.688 105.997 294.377C106.478 294.828 107.049 295.139 107.65 295.409C105.536 296.03 103.363 296.391 101.179 296.561C99.115 296.702 97.0211 296.692 94.9674 296.361C94.1559 296.211 93.3245 296.04 92.5831 295.66C92.2826 295.499 91.942 295.289 91.8518 294.938C91.7918 294.638 92.0122 294.367 92.2326 294.197Z" fill="#0774BB" stroke="#0774BB" stroke-width="0.0121377" stroke-miterlimit="10"/>
<path d="M93.3963 298.565C93.8571 298.195 94.4282 298.004 94.9892 297.844C94.8089 298.014 94.4883 298.225 94.6285 298.515C94.899 298.866 95.3999 298.906 95.8006 298.996C97.4937 299.207 99.2068 299.347 100.9 299.216C102.182 299.136 103.444 298.906 104.697 298.686C105.418 299.106 106.169 299.467 106.94 299.788C105.758 300.318 104.486 300.659 103.214 300.9C101.07 301.28 98.856 301.33 96.7022 300.99C95.7504 300.819 94.7787 300.599 93.9171 300.128C93.5866 299.938 93.2359 299.717 93.0957 299.347C92.9856 299.056 93.1659 298.746 93.3963 298.565Z" fill="#0774BB" stroke="#0774BB" stroke-width="0.0121377" stroke-miterlimit="10"/>
<path d="M87.8366 301.4C88.7583 301.09 89.71 300.839 90.6818 300.809C91.0725 300.799 91.4732 300.819 91.8138 301.02C90.6517 301.09 89.4896 301.38 88.4477 301.911C88.2173 302.042 87.9569 302.192 87.8667 302.462C87.8667 302.773 88.2173 302.873 88.4477 302.973C89.9003 303.514 91.4531 303.684 92.9759 303.845C97.514 304.225 102.082 304.125 106.62 303.714C108.333 303.524 110.057 303.334 111.72 302.863C112.25 302.683 112.852 302.502 113.202 302.031C113.413 301.751 113.272 301.4 113.062 301.16C113.403 301.35 113.883 301.591 113.813 302.052C113.683 302.532 113.192 302.783 112.792 303.013C111.509 303.664 110.097 303.995 108.694 304.285C104.617 305.087 100.439 305.267 96.2919 305.147C93.1663 305.037 90.0407 304.736 86.9552 304.205C86.4042 304.075 85.783 303.965 85.3823 303.534C85.1219 303.234 85.3523 302.813 85.6027 302.593C86.2338 302.011 87.0452 301.691 87.8366 301.4Z" fill="#0774BB" stroke="#0774BB" stroke-width="0.0121377" stroke-miterlimit="10"/>
<path d="M112.801 304.827C113.813 304.476 114.895 304.105 115.646 303.304C115.516 304.175 114.765 304.777 114.023 305.167C112.601 305.909 111.008 306.249 109.425 306.53C106.079 307.061 102.683 307.191 99.2868 307.131C96.9726 307.061 94.6384 306.971 92.3643 306.49C91.8234 306.339 91.2423 306.239 90.7715 305.919C92.7951 306.259 94.8488 306.4 96.9025 306.48C100.279 306.58 103.665 306.45 107.021 306.029C108.964 305.758 110.918 305.428 112.801 304.827Z" fill="#0774BB" stroke="#0774BB" stroke-width="0.0121377" stroke-miterlimit="10"/>
<path d="M86.4028 319.683C86.4128 316.397 86.3928 313.111 86.4128 309.815C87.094 309.835 87.7753 309.815 88.4565 309.835C88.4465 313.512 88.4565 317.199 88.4465 320.885C88.4264 321.917 88.4064 322.999 87.9055 323.921C87.3545 324.903 86.3727 325.594 85.3309 325.994C85.0003 325.634 84.6997 325.253 84.3691 324.893C85.2107 324.402 86.0522 323.7 86.2525 322.689C86.4429 321.697 86.3828 320.685 86.4028 319.683Z" fill="#E92E2F" stroke="#E92E2F" stroke-width="0.0121377" stroke-miterlimit="10"/>
<path d="M90.3509 313.773C91.7034 313.192 93.2061 312.891 94.6787 313.051C95.4401 313.142 96.2315 313.422 96.7224 314.033C97.1331 314.554 97.2834 315.225 97.2734 315.877C97.2734 318.121 97.2734 320.355 97.2734 322.599C96.7725 322.599 96.2716 322.599 95.7607 322.599C95.7106 322.268 95.6605 321.928 95.6204 321.587C95.0494 322.038 94.4383 322.468 93.727 322.649C92.9156 322.859 92.0239 322.839 91.2325 322.529C90.6214 322.278 90.1406 321.727 89.9703 321.086C89.7198 320.154 89.85 319.062 90.5112 318.311C91.1023 317.62 91.9939 317.279 92.8755 317.119C93.6869 316.959 94.5184 316.959 95.3499 316.959C95.3299 316.328 95.4501 315.636 95.0895 315.075C94.7989 314.644 94.268 314.474 93.7771 314.444C92.7052 314.354 91.6433 314.624 90.6314 314.975C90.5313 314.574 90.4411 314.174 90.3509 313.773ZM92.8354 318.421C92.3946 318.561 91.9839 318.882 91.8637 319.343C91.7234 319.854 91.7635 320.455 92.0941 320.886C92.4146 321.306 92.9957 321.406 93.4966 321.346C94.1979 321.266 94.809 320.865 95.3499 320.435C95.3499 319.683 95.3399 318.942 95.3499 318.191C94.5084 318.191 93.6469 318.141 92.8354 318.421Z" fill="#E92E2F" stroke="#E92E2F" stroke-width="0.0121377" stroke-miterlimit="10"/>
<path d="M107.96 313.772C109.323 313.191 110.826 312.881 112.308 313.051C113.049 313.141 113.811 313.412 114.302 313.993C114.763 314.544 114.903 315.275 114.893 315.976C114.883 318.19 114.903 320.394 114.873 322.608C114.372 322.588 113.871 322.618 113.37 322.588C113.32 322.248 113.28 321.917 113.22 321.587C112.518 322.188 111.677 322.678 110.725 322.759C109.854 322.839 108.872 322.729 108.191 322.107C107.479 321.446 107.359 320.374 107.539 319.463C107.71 318.621 108.341 317.93 109.102 317.559C110.294 316.978 111.657 316.948 112.959 316.958C112.939 316.347 113.049 315.696 112.739 315.145C112.498 314.704 111.988 314.504 111.507 314.454C110.395 314.333 109.283 314.614 108.241 314.975C108.151 314.574 108.051 314.173 107.96 313.772ZM110.415 318.431C109.994 318.571 109.603 318.892 109.473 319.332C109.333 319.843 109.373 320.444 109.693 320.885C110.024 321.316 110.615 321.406 111.126 321.346C111.817 321.246 112.448 320.865 112.969 320.404C112.949 319.673 112.959 318.932 112.959 318.19C112.108 318.19 111.236 318.14 110.415 318.431Z" fill="#E92E2F" stroke="#E92E2F" stroke-width="0.0121377" stroke-miterlimit="10"/>
<path d="M98.4141 313.172C99.1153 313.172 99.8166 313.172 100.518 313.172C100.928 314.494 101.329 315.807 101.74 317.129C101.98 317.941 102.281 318.742 102.451 319.573C102.542 319.944 102.622 320.325 102.732 320.685C103.594 318.251 104.255 315.737 104.595 313.172C105.277 313.172 105.958 313.172 106.639 313.172C106.048 316.418 105.116 319.613 103.714 322.599C102.912 322.599 102.111 322.599 101.309 322.599C100.348 319.453 99.3758 316.318 98.4141 313.172Z" fill="#E92E2F" stroke="#E92E2F" stroke-width="0.0121377" stroke-miterlimit="10"/>
<path d="M115.293 312.989H115.047V312.9H115.646V312.989H115.399V313.71H115.293V312.989H115.293Z" fill="#E92E2F" stroke="#E92E2F" stroke-width="0.0121377" stroke-miterlimit="10"/>
<path d="M116.421 313.355C116.415 313.242 116.408 313.105 116.408 313.005H116.405C116.376 313.099 116.344 313.201 116.303 313.313L116.16 313.705H116.081L115.949 313.32C115.91 313.204 115.879 313.101 115.856 313.005H115.854C115.851 313.106 115.845 313.24 115.838 313.363L115.817 313.71H115.717L115.773 312.9H115.907L116.045 313.292C116.078 313.392 116.105 313.481 116.126 313.565H116.129C116.15 313.483 116.179 313.394 116.215 313.292L116.36 312.9H116.493L116.543 313.71H116.44L116.421 313.355Z" fill="#E92E2F" stroke="#E92E2F" stroke-width="0.0121377" stroke-miterlimit="10"/>
</g>
<g filter="url(#filter2_dd_540_467)">
<rect x="184" y="40" width="120" height="120" rx="12" fill="white"/>
</g>
<g clip-path="url(#clip3_540_467)">
<path d="M220 76H268V124H220V76Z" fill="#F7DF1E"/>
<path d="M232.621 116.112L236.294 113.889C237.003 115.146 237.648 116.209 239.194 116.209C240.676 116.209 241.611 115.629 241.611 113.374V98.0367H246.122V113.438C246.122 118.11 243.383 120.236 239.387 120.236C235.779 120.236 233.684 118.367 232.621 116.112M248.572 115.629L252.244 113.502C253.211 115.081 254.468 116.241 256.691 116.241C258.56 116.241 259.752 115.307 259.752 114.018C259.752 112.471 258.528 111.923 256.465 111.022L255.338 110.538C252.084 109.153 249.925 107.413 249.925 103.74C249.925 100.356 252.502 97.7787 256.53 97.7787C259.398 97.7787 261.46 98.7777 262.942 101.387L259.43 103.643C258.656 102.258 257.819 101.71 256.53 101.71C255.209 101.71 254.371 102.548 254.371 103.643C254.371 104.996 255.209 105.544 257.142 106.382L258.27 106.865C262.104 108.509 264.263 110.184 264.263 113.954C264.263 118.014 261.073 120.237 256.788 120.237C252.599 120.237 249.892 118.239 248.572 115.629" fill="black"/>
</g>
<g filter="url(#filter3_dd_540_467)">
<rect x="184" y="184" width="120" height="120" rx="12" fill="white"/>
</g>
<g clip-path="url(#clip4_540_467)">
<path d="M244 264C265.807 264 283.486 255.046 283.486 244C283.486 232.954 265.807 224 244 224C222.192 224 204.514 232.954 204.514 244C204.514 255.046 222.192 264 244 264Z" fill="#6181B6"/>
<path d="M227.78 237.619C229.546 237.619 230.712 237.934 231.311 238.596C231.91 239.259 232.036 240.362 231.721 241.938C231.406 243.578 230.775 244.776 229.861 245.469C228.947 246.163 227.56 246.509 225.7 246.509H222.894L224.628 237.619H227.78ZM216.494 255.526H221.128L222.232 249.883H226.204C227.97 249.883 229.388 249.694 230.523 249.315C231.658 248.937 232.667 248.338 233.613 247.455C234.401 246.73 235.031 245.942 235.504 245.091C235.977 244.24 236.324 243.294 236.513 242.253C237.017 239.731 236.639 237.777 235.41 236.358C234.18 234.939 232.226 234.246 229.546 234.246H220.624L216.494 255.526Z" fill="white"/>
<path d="M239.917 228.603H244.52L243.416 234.246H247.515C250.1 234.246 251.865 234.687 252.843 235.602C253.82 236.516 254.104 237.966 253.725 239.984L251.802 249.883H247.136L248.965 240.456C249.186 239.385 249.091 238.66 248.744 238.281C248.397 237.903 247.609 237.682 246.443 237.682H242.754L240.39 249.883H235.787L239.917 228.603Z" fill="white"/>
<path d="M263.941 237.619C265.706 237.619 266.872 237.934 267.471 238.596C268.07 239.259 268.197 240.362 267.881 241.938C267.566 243.578 266.936 244.776 266.021 245.469C265.107 246.163 263.72 246.509 261.86 246.509H259.054L260.788 237.619H263.941ZM252.654 255.526H257.289L258.392 249.883H262.364C264.13 249.883 265.548 249.694 266.683 249.315C267.818 248.937 268.827 248.338 269.773 247.455C270.561 246.73 271.191 245.942 271.664 245.091C272.137 244.24 272.484 243.294 272.673 242.253C273.178 239.731 272.799 237.777 271.57 236.358C270.34 234.939 268.386 234.246 265.706 234.246H256.784L252.654 255.526Z" fill="white"/>
</g>
<g filter="url(#filter4_dd_540_467)">
<rect x="184" y="328" width="120" height="120" rx="12" fill="white"/>
</g>
<g clip-path="url(#clip5_540_467)">
<path d="M267.519 374.84C267.536 374.904 267.545 374.97 267.545 375.036V385.321C267.545 385.59 267.402 385.838 267.169 385.972L258.536 390.942V400.793C258.536 401.061 258.394 401.308 258.161 401.443L240.142 411.816C240.1 411.84 240.055 411.855 240.01 411.871C239.994 411.876 239.978 411.887 239.96 411.891C239.834 411.925 239.701 411.925 239.575 411.891C239.555 411.886 239.536 411.875 239.516 411.867C239.475 411.852 239.432 411.839 239.393 411.816L221.377 401.443C221.144 401.309 221 401.061 221 400.793V369.937C221 369.87 221.009 369.804 221.026 369.74C221.032 369.719 221.045 369.699 221.052 369.678C221.067 369.638 221.08 369.598 221.1 369.561C221.114 369.537 221.135 369.517 221.152 369.495C221.173 369.465 221.193 369.434 221.218 369.408C221.24 369.386 221.268 369.37 221.292 369.351C221.32 369.329 221.344 369.305 221.375 369.287H221.376L230.384 364.1C230.616 363.967 230.902 363.967 231.134 364.1L240.143 369.287H240.144C240.174 369.306 240.2 369.329 240.227 369.351C240.251 369.369 240.278 369.386 240.3 369.407C240.326 369.434 240.345 369.465 240.368 369.495C240.383 369.517 240.405 369.537 240.418 369.561C240.44 369.599 240.452 369.638 240.467 369.678C240.474 369.699 240.488 369.719 240.493 369.741C240.51 369.805 240.519 369.871 240.519 369.937V389.209L248.026 384.887V375.035C248.026 374.969 248.035 374.903 248.052 374.84C248.059 374.817 248.071 374.798 248.079 374.776C248.094 374.737 248.107 374.697 248.127 374.66C248.141 374.636 248.162 374.616 248.178 374.593C248.2 374.563 248.219 374.532 248.245 374.506C248.267 374.485 248.294 374.469 248.319 374.45C248.347 374.427 248.371 374.403 248.401 374.385H248.402L257.411 369.199C257.643 369.065 257.929 369.065 258.161 369.199L267.17 374.385C267.201 374.404 267.226 374.427 267.254 374.449C267.277 374.468 267.305 374.485 267.326 374.505C267.352 374.532 267.371 374.563 267.394 374.593C267.41 374.616 267.431 374.636 267.444 374.66C267.466 374.697 267.478 374.737 267.493 374.776C267.501 374.798 267.514 374.817 267.519 374.84ZM266.044 384.887V376.334L262.891 378.149L258.536 380.656V389.209L266.045 384.887H266.044ZM257.035 400.359V391.8L252.751 394.247L240.518 401.229V409.868L257.035 400.359ZM222.502 371.236V400.359L239.017 409.867V401.229L230.389 396.347L230.386 396.345L230.382 396.343C230.353 396.326 230.329 396.302 230.302 396.281C230.278 396.262 230.251 396.247 230.231 396.227L230.229 396.224C230.204 396.2 230.187 396.171 230.167 396.145C230.148 396.12 230.126 396.098 230.111 396.072L230.11 396.069C230.093 396.041 230.082 396.007 230.07 395.975C230.058 395.947 230.042 395.921 230.035 395.891V395.89C230.025 395.854 230.023 395.817 230.02 395.78C230.016 395.752 230.008 395.724 230.008 395.696V395.694V375.558L225.654 373.049L222.502 371.237V371.236ZM230.76 365.617L223.254 369.937L230.758 374.258L238.263 369.936L230.758 365.617H230.76ZM234.663 392.58L239.018 390.074V371.236L235.865 373.05L231.51 375.558V394.396L234.663 392.58ZM257.786 370.715L250.281 375.036L257.786 379.356L265.29 375.035L257.786 370.715ZM257.035 380.656L252.68 378.149L249.528 376.334V384.887L253.882 387.394L257.035 389.209V380.656ZM239.767 399.93L250.775 393.646L256.277 390.506L248.778 386.188L240.143 391.159L232.274 395.689L239.767 399.93Z" fill="#FF2D20"/>
</g>
<g filter="url(#filter5_dd_540_467)">
<rect x="328" y="132" width="120" height="120" rx="12" fill="white"/>
</g>
<path d="M405.158 193.281C405.158 193.196 405.134 193.136 405.087 193.096C405.034 193.053 404.942 193.031 404.815 193.031H404.631V193.535H404.852C405.057 193.535 405.158 193.45 405.158 193.281ZM405.444 194.332H405.192L405.031 193.977C404.949 193.8 404.862 193.711 404.767 193.711H404.631V194.332H404.424V192.854H404.84C405.025 192.854 405.163 192.894 405.259 192.977C405.34 193.049 405.38 193.141 405.38 193.256C405.38 193.358 405.347 193.443 405.281 193.514C405.216 193.586 405.123 193.635 405.004 193.66V193.666C405.087 193.686 405.169 193.776 405.249 193.939L405.444 194.333V194.332ZM405.904 193.607C405.904 193.317 405.805 193.071 405.607 192.876C405.408 192.682 405.166 192.584 404.88 192.584C404.585 192.584 404.34 192.682 404.145 192.878C403.95 193.075 403.853 193.319 403.853 193.607C403.853 193.902 403.954 194.149 404.155 194.345C404.352 194.541 404.595 194.638 404.88 194.638C405.163 194.638 405.406 194.54 405.605 194.342C405.805 194.146 405.904 193.901 405.904 193.607ZM406.044 193.601C406.044 193.927 405.932 194.201 405.706 194.422C405.481 194.644 405.205 194.754 404.874 194.754C404.541 194.754 404.265 194.645 404.046 194.431C403.826 194.214 403.717 193.941 403.717 193.61C403.717 193.286 403.828 193.014 404.051 192.79C404.274 192.567 404.552 192.456 404.884 192.456C405.209 192.456 405.482 192.562 405.704 192.775C405.931 192.993 406.044 193.267 406.044 193.601Z" fill="black"/>
<path d="M374.452 197.723H373.736V193.623C373.736 193.299 373.757 192.905 373.795 192.439H373.779C373.712 192.712 373.651 192.909 373.597 193.031L371.514 197.723H371.165L369.079 193.065C369.02 192.935 368.959 192.725 368.896 192.439H368.881C368.903 192.684 368.915 193.081 368.915 193.631V197.723H368.225V191.617H369.17L371.043 195.875C371.184 196.195 371.275 196.439 371.32 196.606H371.349C371.471 196.272 371.568 196.022 371.642 195.857L373.555 191.617H374.452V197.723H374.452Z" fill="black"/>
<path d="M376.656 197.722H375.96V193.362H376.656V197.722ZM376.777 191.799C376.777 191.928 376.732 192.035 376.642 192.123C376.554 192.211 376.445 192.256 376.317 192.256C376.193 192.256 376.085 192.213 375.996 192.128C375.907 192.042 375.863 191.933 375.863 191.799C375.863 191.673 375.907 191.566 375.996 191.479C376.085 191.391 376.193 191.349 376.317 191.349C376.445 191.349 376.554 191.391 376.642 191.479C376.732 191.566 376.777 191.673 376.777 191.799Z" fill="black"/>
<path d="M381.007 197.52C380.673 197.726 380.274 197.827 379.812 197.827C379.187 197.827 378.684 197.62 378.3 197.205C377.926 196.803 377.738 196.284 377.738 195.647C377.738 194.933 377.943 194.355 378.355 193.916C378.764 193.475 379.315 193.256 380.008 193.256C380.387 193.256 380.723 193.33 381.017 193.477V194.194C380.691 193.965 380.347 193.852 379.978 193.852C379.534 193.852 379.173 194.007 378.892 194.316C378.601 194.633 378.453 195.056 378.453 195.584C378.453 196.092 378.588 196.493 378.856 196.789C379.125 197.084 379.483 197.232 379.934 197.232C380.316 197.232 380.673 197.107 381.007 196.857V197.52Z" fill="black"/>
<path d="M384.338 194.07C384.215 193.975 384.038 193.929 383.805 193.929C383.522 193.929 383.283 194.056 383.09 194.312C382.871 194.598 382.762 194.994 382.762 195.499V197.722H382.064V193.362H382.762V194.261H382.779C382.882 193.943 383.04 193.698 383.252 193.525C383.45 193.366 383.673 193.286 383.92 193.286C384.105 193.286 384.244 193.306 384.338 193.346V194.069L384.338 194.07Z" fill="black"/>
<path d="M388.228 195.55C388.228 194.992 388.102 194.566 387.85 194.273C387.605 193.992 387.264 193.852 386.823 193.852C386.39 193.852 386.042 193.994 385.781 194.278C385.506 194.582 385.369 195.011 385.369 195.567C385.369 196.089 385.5 196.499 385.764 196.791C386.026 197.085 386.38 197.232 386.823 197.232C387.282 197.232 387.634 197.083 387.874 196.785C388.11 196.495 388.228 196.083 388.228 195.55ZM388.944 195.526C388.944 196.22 388.747 196.779 388.356 197.197C387.964 197.617 387.436 197.827 386.772 197.827C386.118 197.827 385.597 197.617 385.215 197.197C384.841 196.792 384.652 196.258 384.652 195.593C384.652 194.834 384.865 194.25 385.291 193.834C385.685 193.449 386.213 193.255 386.874 193.255C387.524 193.255 388.032 193.458 388.398 193.86C388.76 194.263 388.944 194.819 388.944 195.526Z" fill="black"/>
<path d="M392.403 196.556C392.403 196.913 392.27 197.208 392.002 197.444C391.711 197.699 391.31 197.827 390.806 197.827C390.393 197.827 390.032 197.741 389.725 197.564V196.814C390.066 197.092 390.443 197.232 390.858 197.232C391.41 197.232 391.687 197.028 391.687 196.623C391.687 196.452 391.627 196.311 391.504 196.202C391.381 196.09 391.143 195.957 390.788 195.801C390.423 195.641 390.163 195.477 390.01 195.307C389.826 195.105 389.733 194.843 389.733 194.519C389.733 194.158 389.877 193.856 390.163 193.616C390.45 193.376 390.818 193.255 391.271 193.255C391.617 193.255 391.927 193.323 392.203 193.46V194.162C391.915 193.955 391.586 193.851 391.213 193.851C390.982 193.851 390.796 193.909 390.658 194.021C390.519 194.136 390.448 194.282 390.448 194.46C390.448 194.654 390.507 194.804 390.624 194.911C390.727 195.011 390.947 195.132 391.278 195.273C391.65 195.429 391.919 195.59 392.083 195.756C392.296 195.965 392.403 196.232 392.403 196.556Z" fill="black"/>
<path d="M396.667 195.55C396.667 194.992 396.541 194.566 396.289 194.273C396.045 193.992 395.702 193.852 395.263 193.852C394.829 193.852 394.481 193.994 394.219 194.278C393.945 194.582 393.808 195.011 393.808 195.567C393.808 196.089 393.939 196.499 394.201 196.791C394.467 197.085 394.82 197.232 395.263 197.232C395.722 197.232 396.073 197.083 396.314 196.785C396.55 196.495 396.667 196.083 396.667 195.55ZM397.385 195.526C397.385 196.22 397.187 196.779 396.795 197.197C396.404 197.617 395.876 197.827 395.212 197.827C394.557 197.827 394.036 197.617 393.654 197.197C393.28 196.792 393.092 196.258 393.092 195.593C393.092 194.834 393.306 194.25 393.73 193.834C394.124 193.449 394.652 193.255 395.314 193.255C395.964 193.255 396.471 193.458 396.836 193.86C397.2 194.263 397.385 194.819 397.385 195.526Z" fill="black"/>
<path d="M400.461 191.881C400.324 191.805 400.171 191.766 399.997 191.766C399.509 191.766 399.266 192.074 399.266 192.69V193.362H400.288V193.953H399.266V197.722H398.568V193.953H397.826V193.362H398.568V192.655C398.568 192.176 398.715 191.799 399.014 191.528C399.27 191.292 399.583 191.175 399.955 191.175C400.171 191.175 400.339 191.201 400.461 191.251V191.881Z" fill="black"/>
<path d="M403.215 197.678C403.05 197.773 402.831 197.82 402.559 197.82C401.798 197.82 401.418 197.391 401.418 196.533V193.954H400.67V193.362H401.418V192.298C401.641 192.228 401.873 192.151 402.117 192.072V193.362H403.215V193.954H402.117V196.414C402.117 196.707 402.165 196.916 402.265 197.037C402.366 197.162 402.531 197.224 402.763 197.224C402.937 197.224 403.087 197.177 403.215 197.083V197.678Z" fill="black"/>
<path d="M365.489 214.739C365.489 215.081 365.367 215.376 365.121 215.626C364.875 215.875 364.577 216 364.228 216C363.886 216 363.595 215.875 363.357 215.626C363.119 215.376 363 215.081 363 214.739C363 214.388 363.119 214.091 363.357 213.846C363.595 213.599 363.886 213.477 364.228 213.477C364.577 213.477 364.875 213.601 365.121 213.851C365.367 214.1 365.489 214.397 365.489 214.739Z" fill="black"/>
<path d="M381.115 215.743H378.839L370.577 202.983C370.384 202.676 370.217 202.343 370.076 201.979H370.008C370.067 202.32 370.097 203.054 370.097 204.177V215.743H368.221V199.735H370.656L378.671 212.293C378.99 212.791 379.208 213.148 379.319 213.363H379.363C379.289 212.903 379.25 212.118 379.25 211.01V199.735H381.115V215.743H381.115Z" fill="black"/>
<path d="M393.144 215.743H384.66V199.735H392.776V201.431H386.535V206.756H392.318V208.453H386.535V214.046H393.144V215.743Z" fill="black"/>
<path d="M406.013 201.431H401.402V215.743H399.526V201.431H394.906V199.734H406.013V201.431Z" fill="black"/>
<path d="M380.479 172.086C382.289 177.621 382.974 187.495 388.267 187.495C388.67 187.495 389.077 187.456 389.486 187.378C384.675 186.256 384.104 176.489 381.168 171.432C380.938 171.641 380.71 171.859 380.479 172.086Z" fill="url(#paint0_linear_540_467)"/>
<path d="M381.17 171.432C384.106 176.49 384.676 186.257 389.488 187.378C389.866 187.309 390.245 187.204 390.624 187.071C386.305 184.955 385.112 175.471 381.777 170.905C381.575 171.073 381.373 171.249 381.17 171.432Z" fill="url(#paint1_linear_540_467)"/>
<path d="M385.399 168.424C384.997 168.424 384.589 168.463 384.18 168.541C383.109 168.743 382.021 169.204 380.924 169.902C381.223 170.197 381.509 170.536 381.777 170.905C382.892 169.979 384 169.295 385.105 168.884C385.519 168.73 385.932 168.615 386.346 168.539C386.047 168.463 385.732 168.424 385.399 168.424Z" fill="#14559A"/>
<path d="M393.995 185.121C394.437 184.769 394.879 184.381 395.323 183.957C393.483 178.447 392.825 168.432 387.495 168.432C387.114 168.432 386.729 168.467 386.346 168.538C391.201 169.746 391.823 180.309 393.995 185.121Z" fill="url(#paint2_linear_540_467)"/>
<path d="M386.345 168.539C386.046 168.463 385.731 168.424 385.398 168.424L387.494 168.431C387.113 168.431 386.729 168.467 386.345 168.539" fill="#3092C4"/>
<path d="M393.901 186.291C393.693 186.093 393.495 185.875 393.301 185.642C392.404 186.277 391.511 186.758 390.623 187.072C390.939 187.226 391.27 187.341 391.621 187.412C391.894 187.467 392.175 187.496 392.472 187.496C393.468 187.496 394.255 187.378 394.926 187.056C394.557 186.857 394.218 186.598 393.901 186.291Z" fill="#1969BC"/>
<path d="M385.104 168.885C389.452 171.159 389.83 181.459 393.3 185.642C393.533 185.478 393.763 185.304 393.993 185.121C391.821 180.309 391.2 169.745 386.346 168.538C385.931 168.616 385.518 168.731 385.104 168.885Z" fill="url(#paint3_linear_540_467)"/>
<path d="M381.777 170.905C385.112 175.471 386.305 184.955 390.624 187.071C391.512 186.758 392.405 186.277 393.302 185.642C389.832 181.46 389.454 171.16 385.105 168.885C384.001 169.295 382.893 169.98 381.777 170.905Z" fill="url(#paint4_linear_540_467)"/>
<path d="M378.346 171.953C377.824 173.135 377.29 174.688 376.645 176.715C377.928 174.907 379.207 173.349 380.48 172.086C380.304 171.547 380.116 171.051 379.913 170.608C379.393 171.006 378.869 171.454 378.346 171.953Z" fill="url(#paint5_linear_540_467)"/>
<path d="M380.377 170.267C380.223 170.377 380.069 170.489 379.914 170.608C380.117 171.051 380.304 171.547 380.479 172.086C380.71 171.86 380.94 171.641 381.169 171.432C380.923 171.009 380.661 170.618 380.377 170.267Z" fill="#2B74B1"/>
<path d="M380.925 169.902C380.742 170.017 380.56 170.139 380.377 170.267C380.661 170.617 380.923 171.008 381.17 171.432C381.373 171.249 381.576 171.072 381.778 170.905C381.509 170.536 381.224 170.197 380.925 169.902Z" fill="#125A9E"/>
<path d="M410.585 168.002C408.126 177.487 402.989 185.105 398.682 187.026H398.674C398.596 187.062 398.518 187.094 398.442 187.125C398.431 187.132 398.421 187.133 398.413 187.136C398.391 187.146 398.37 187.153 398.347 187.162C398.336 187.168 398.327 187.17 398.317 187.174C398.281 187.187 398.245 187.198 398.21 187.212C398.194 187.219 398.18 187.223 398.165 187.228C398.149 187.234 398.13 187.24 398.112 187.245C398.096 187.251 398.079 187.256 398.06 187.263C398.045 187.27 398.029 187.272 398.014 187.279C397.983 187.288 397.954 187.295 397.922 187.306C397.909 187.306 397.897 187.314 397.883 187.317C397.864 187.323 397.842 187.328 397.821 187.334C397.807 187.34 397.795 187.342 397.779 187.345C397.757 187.352 397.733 187.358 397.711 187.363C397.682 187.369 397.656 187.375 397.629 187.381C397.824 187.453 398.026 187.489 398.245 187.489C402.329 187.489 406.447 180.171 413.26 168H410.585L410.585 168.002Z" fill="url(#paint6_linear_540_467)"/>
<path d="M375.757 168.809C375.76 168.809 375.763 168.802 375.764 168.802C375.768 168.802 375.773 168.802 375.774 168.796H375.779C375.802 168.788 375.823 168.779 375.846 168.771C375.851 168.771 375.854 168.771 375.858 168.764C375.864 168.764 375.87 168.758 375.875 168.757C375.9 168.749 375.924 168.74 375.947 168.732H375.95C376.005 168.716 376.055 168.696 376.107 168.677C376.114 168.677 376.122 168.67 376.13 168.67C376.152 168.663 376.175 168.656 376.198 168.65C376.208 168.644 376.219 168.644 376.228 168.641C376.252 168.634 376.274 168.626 376.296 168.621C376.306 168.621 376.315 168.614 376.322 168.614C376.397 168.593 376.471 168.574 376.546 168.555C376.557 168.555 376.566 168.549 376.577 168.548C376.599 168.542 376.619 168.539 376.643 168.535C376.652 168.529 376.664 168.529 376.675 168.526C376.697 168.519 376.718 168.519 376.741 168.513H376.756C376.802 168.504 376.848 168.497 376.893 168.488H376.92C376.942 168.482 376.962 168.481 376.983 168.477C376.995 168.477 377.008 168.471 377.019 168.471C377.039 168.471 377.059 168.464 377.08 168.462C377.09 168.462 377.101 168.462 377.113 168.455C377.16 168.449 377.21 168.446 377.26 168.442C377.118 168.429 376.973 168.42 376.825 168.42C372.226 168.42 365.89 176.953 363.035 188.004H363.585C364.499 186.375 365.319 184.834 366.07 183.387C368.069 175.56 372.14 170.222 375.757 168.807" fill="url(#paint7_linear_540_467)"/>
<path d="M378.346 171.953C378.868 171.455 379.392 171.006 379.913 170.608C379.794 170.348 379.671 170.107 379.539 169.887C379.119 170.397 378.734 171.071 378.346 171.953Z" fill="#0D82CA"/>
<path d="M378.724 168.873C379.025 169.125 379.294 169.472 379.54 169.887C379.617 169.792 379.696 169.704 379.777 169.621C379.436 169.302 379.067 169.041 378.666 168.844C378.682 168.853 378.698 168.86 378.715 168.867C378.715 168.867 378.722 168.873 378.724 168.873" fill="#0D82CA"/>
<path d="M366.07 183.388C370.264 175.307 372.251 170.193 375.758 168.808C372.142 170.223 368.069 175.562 366.07 183.388Z" fill="url(#paint8_linear_540_467)"/>
<path d="M379.777 169.621C379.695 169.704 379.617 169.792 379.539 169.887C379.671 170.107 379.793 170.347 379.913 170.608C380.068 170.49 380.222 170.377 380.376 170.267C380.186 170.033 379.986 169.816 379.777 169.621Z" fill="#127BCA"/>
<path d="M367.973 187.969C367.947 187.975 367.921 187.975 367.897 187.978H367.882C367.86 187.978 367.838 187.984 367.818 187.984H367.807C367.755 187.991 367.703 187.991 367.653 187.995H367.637C371.881 187.876 373.821 185.751 374.784 182.669C375.516 180.332 376.117 178.363 376.643 176.712C374.866 179.214 373.08 182.197 371.284 185.538C370.418 187.149 369.102 187.822 367.973 187.966" fill="url(#paint9_linear_540_467)"/>
<path d="M367.975 187.967C369.104 187.823 370.42 187.151 371.286 185.54C373.082 182.199 374.868 179.216 376.645 176.713C377.291 174.685 377.824 173.133 378.347 171.951C374.807 175.321 371.253 180.924 367.975 187.966" fill="url(#paint10_linear_540_467)"/>
<path d="M366.07 183.388C365.32 184.835 364.499 186.376 363.586 188.005H365.186C365.398 186.387 365.698 184.845 366.07 183.389" fill="#05A1E6"/>
<path d="M377.113 168.46C377.1 168.46 377.09 168.466 377.079 168.466C377.059 168.472 377.039 168.472 377.019 168.474C377.007 168.474 376.996 168.474 376.984 168.481C376.962 168.487 376.942 168.488 376.921 168.492C376.911 168.492 376.901 168.492 376.893 168.498C376.847 168.506 376.802 168.514 376.757 168.522H376.741C376.718 168.529 376.697 168.532 376.675 168.535C376.664 168.541 376.652 168.541 376.642 168.544C376.62 168.55 376.598 168.553 376.577 168.557C376.566 168.563 376.557 168.563 376.547 168.564C376.471 168.582 376.397 168.602 376.322 168.622C376.314 168.622 376.306 168.629 376.296 168.63C376.274 168.636 376.252 168.643 376.228 168.65C376.219 168.656 376.207 168.656 376.198 168.659C376.175 168.665 376.152 168.672 376.131 168.679C376.122 168.679 376.114 168.685 376.106 168.685C376.055 168.705 376.004 168.724 375.95 168.74C375.928 168.747 375.904 168.756 375.879 168.765C375.87 168.771 375.861 168.773 375.85 168.777C375.827 168.784 375.804 168.793 375.783 168.802C375.775 168.808 375.767 168.809 375.762 168.812C372.254 170.196 370.268 175.311 366.074 183.392C365.702 184.848 365.4 186.39 365.189 188.008H365.414C366.046 188.008 366.225 188.002 366.953 188.002H366.99H367.098H367.135H367.146H367.183H367.204H367.218H367.248H367.338H367.428H367.504H367.525H367.658C367.708 187.995 367.76 187.995 367.812 187.991H367.822C367.844 187.991 367.865 187.985 367.886 187.985H367.902C367.925 187.985 367.952 187.978 367.978 187.976C371.256 180.934 374.81 175.331 378.35 171.961C378.74 171.079 379.123 170.406 379.543 169.896C379.298 169.481 379.029 169.134 378.728 168.881C378.728 168.881 378.72 168.881 378.719 168.875C378.702 168.868 378.686 168.86 378.669 168.851C378.652 168.842 378.638 168.835 378.62 168.826C378.605 168.82 378.587 168.811 378.572 168.803C378.551 168.796 378.534 168.787 378.515 168.779C378.5 168.772 378.486 168.766 378.471 168.759C378.439 168.747 378.408 168.734 378.378 168.721C378.364 168.714 378.351 168.711 378.338 168.706C378.316 168.698 378.291 168.688 378.269 168.678C378.257 168.672 378.244 168.67 378.232 168.666C378.198 168.655 378.166 168.643 378.135 168.633H378.127C378.09 168.62 378.054 168.611 378.016 168.601C378.007 168.595 378 168.595 377.991 168.593C377.958 168.584 377.929 168.575 377.897 168.567C377.889 168.567 377.882 168.56 377.875 168.56C377.8 168.54 377.721 168.524 377.642 168.509C377.634 168.509 377.626 168.503 377.618 168.503C377.584 168.497 377.551 168.491 377.517 168.487C377.509 168.48 377.504 168.48 377.497 168.48C377.456 168.474 377.417 168.469 377.377 168.465H377.356C377.324 168.459 377.294 168.458 377.264 168.455C377.213 168.461 377.165 168.464 377.117 168.468" fill="url(#paint11_linear_540_467)"/>
<path d="M400.978 173.253C400.171 175.838 399.518 177.97 398.949 179.725C401.163 176.678 403.344 172.845 405.421 168.422C402.998 169.183 401.706 170.925 400.978 173.253Z" fill="url(#paint12_linear_540_467)"/>
<path d="M399.019 186.865C398.906 186.922 398.793 186.977 398.682 187.026C402.988 185.106 408.125 177.487 410.585 168.002H410.086C404.436 178.096 402.618 184.854 399.019 186.865Z" fill="url(#paint13_linear_540_467)"/>
<path d="M396.207 186.016C397.144 184.873 397.907 182.929 398.949 179.724C397.747 181.375 396.538 182.795 395.327 183.952C395.327 183.958 395.327 183.958 395.32 183.962C395.584 184.754 395.874 185.453 396.205 186.016" fill="#079AE1"/>
<path d="M396.208 186.016C395.889 186.406 395.552 186.702 395.176 186.922C395.094 186.97 395.011 187.015 394.926 187.056C395.322 187.27 395.755 187.413 396.24 187.47C396.311 187.477 396.381 187.484 396.455 187.489H396.468C396.501 187.489 396.536 187.489 396.571 187.495H396.585H396.691H396.805H396.841H396.921C396.934 187.495 396.948 187.495 396.961 187.489C396.986 187.489 397.013 187.489 397.038 187.483H397.047H397.077C397.103 187.483 397.132 187.476 397.161 187.474H397.167C397.175 187.474 397.184 187.467 397.193 187.467C397.223 187.461 397.254 187.458 397.282 187.454H397.309C397.342 187.447 397.376 187.443 397.41 187.437H397.416H397.426C397.494 187.424 397.56 187.411 397.627 187.394C397.071 187.191 396.606 186.711 396.206 186.027" fill="#1969BC"/>
<path d="M388.268 187.495C388.671 187.495 389.078 187.456 389.486 187.378C389.864 187.309 390.243 187.204 390.623 187.071C390.939 187.226 391.27 187.34 391.62 187.411C391.893 187.467 392.175 187.495 392.472 187.495H388.268Z" fill="#1E5CB3"/>
<path d="M392.472 187.495C393.467 187.495 394.255 187.378 394.925 187.056C395.321 187.27 395.754 187.413 396.239 187.47C396.31 187.478 396.38 187.484 396.454 187.489H396.467C396.5 187.489 396.534 187.489 396.57 187.496H396.585H396.691H392.469L392.472 187.495Z" fill="#1E5CB3"/>
<path d="M396.693 187.496H396.808H396.844H396.924C396.937 187.496 396.95 187.496 396.963 187.489C396.988 187.489 397.015 187.489 397.041 187.483H397.05H397.08C397.106 187.483 397.135 187.476 397.163 187.474H397.17C397.178 187.474 397.187 187.467 397.195 187.467C397.225 187.461 397.256 187.458 397.285 187.454C397.294 187.454 397.302 187.454 397.312 187.447C397.345 187.441 397.38 187.438 397.413 187.431H397.42H397.43C397.497 187.418 397.564 187.405 397.631 187.389C397.825 187.46 398.028 187.497 398.247 187.497L396.695 187.503L396.693 187.496Z" fill="#1D60B5"/>
<path d="M395.324 183.963V183.956C394.881 184.38 394.438 184.769 393.997 185.12C393.766 185.304 393.535 185.477 393.303 185.641C393.497 185.874 393.695 186.092 393.904 186.291C394.22 186.598 394.559 186.856 394.928 187.056C395.012 187.014 395.096 186.969 395.177 186.921C395.554 186.702 395.891 186.405 396.21 186.016C395.88 185.452 395.59 184.754 395.326 183.962" fill="#175FAB"/>
<path d="M408.509 168.002H406.414H406.206H406.009H406.001C405.865 168.009 405.734 168.013 405.604 168.022C405.542 168.153 405.479 168.285 405.419 168.418C403.342 172.841 401.161 176.673 398.947 179.72C397.906 182.924 397.142 184.868 396.205 186.012C396.606 186.695 397.072 187.176 397.626 187.379C397.642 187.373 397.655 187.373 397.669 187.369H397.678C397.688 187.369 397.699 187.363 397.709 187.363C397.732 187.357 397.756 187.353 397.779 187.346C397.793 187.339 397.805 187.339 397.82 187.334C397.841 187.328 397.863 187.323 397.882 187.318C397.895 187.311 397.908 187.309 397.921 187.307C397.953 187.296 397.982 187.289 398.013 187.279C398.027 187.273 398.043 187.267 398.059 187.263C398.077 187.257 398.094 187.252 398.111 187.245C398.129 187.238 398.148 187.235 398.164 187.228C398.178 187.222 398.194 187.218 398.208 187.212C398.244 187.199 398.279 187.188 398.316 187.174C398.325 187.174 398.335 187.165 398.346 187.163C398.367 187.153 398.39 187.146 398.412 187.137C398.42 187.13 398.43 187.13 398.44 187.126C398.516 187.095 398.594 187.062 398.673 187.027H398.681C398.792 186.978 398.905 186.923 399.018 186.865C402.618 184.854 404.435 178.097 410.086 168.003H408.507L408.509 168.002Z" fill="url(#paint14_linear_540_467)"/>
<path d="M377.26 168.446C377.269 168.446 377.277 168.446 377.286 168.452C377.307 168.452 377.329 168.452 377.351 168.459H377.373C377.412 168.466 377.452 168.469 377.492 168.475C377.5 168.475 377.506 168.475 377.513 168.481C377.546 168.488 377.58 168.493 377.614 168.498C377.621 168.498 377.631 168.504 377.639 168.504C377.716 168.52 377.795 168.536 377.871 168.556C377.878 168.556 377.886 168.563 377.892 168.563C377.925 168.57 377.954 168.58 377.986 168.589C377.996 168.589 378.003 168.595 378.012 168.597C378.05 168.607 378.085 168.616 378.122 168.629C378.124 168.629 378.126 168.629 378.131 168.635C378.162 168.645 378.194 168.657 378.227 168.668C378.24 168.674 378.253 168.677 378.265 168.68C378.287 168.69 378.312 168.7 378.334 168.709C378.347 168.709 378.36 168.718 378.374 168.722C378.404 168.736 378.435 168.748 378.466 168.761C378.482 168.767 378.496 168.775 378.511 168.78C378.529 168.789 378.547 168.798 378.567 168.804C378.583 168.812 378.601 168.82 378.616 168.828C378.633 168.837 378.649 168.844 378.665 168.853C379.066 169.05 379.435 169.312 379.777 169.631C379.903 169.498 380.034 169.379 380.171 169.273C379.424 168.743 378.577 168.441 377.601 168.441C377.488 168.441 377.375 168.447 377.26 168.456" fill="#7DCBEC"/>
<path d="M379.777 169.621C379.987 169.816 380.187 170.033 380.377 170.267C380.56 170.14 380.742 170.017 380.924 169.902C380.685 169.663 380.433 169.448 380.171 169.263C380.034 169.369 379.903 169.489 379.777 169.621Z" fill="#5EC5ED"/>
<path d="M377.259 168.446C377.373 168.436 377.487 168.432 377.6 168.432C378.576 168.432 379.423 168.734 380.17 169.263C380.958 168.641 381.911 168.424 383.235 168.424H376.824C376.972 168.424 377.117 168.433 377.259 168.446Z" fill="url(#paint15_linear_540_467)"/>
<path d="M383.235 168.424C381.911 168.424 380.958 168.641 380.17 169.263C380.432 169.448 380.684 169.663 380.923 169.902C382.02 169.204 383.108 168.742 384.179 168.54C384.588 168.464 384.996 168.424 385.398 168.424H383.235Z" fill="url(#paint16_linear_540_467)"/>
<path d="M398.95 179.726C399.519 177.97 400.171 175.838 400.98 173.253C401.708 170.924 402.998 169.182 405.42 168.422C405.484 168.292 405.545 168.158 405.607 168.026C401.658 168.263 399.813 170.272 398.884 173.247C397.259 178.44 396.276 181.807 395.328 183.952C396.538 182.795 397.748 181.375 398.95 179.726Z" fill="url(#paint17_linear_540_467)"/>
<path d="M404.743 186.112H404.296V187.503H404.113V186.112H403.664V185.947H404.743V186.112Z" fill="black"/>
<path d="M406.576 187.503H406.394V186.457C406.394 186.375 406.401 186.274 406.409 186.155C406.39 186.226 406.375 186.276 406.361 186.307L405.831 187.503H405.742L405.21 186.316C405.195 186.283 405.179 186.23 405.163 186.155H405.156C405.163 186.218 405.165 186.319 405.165 186.46V187.503H404.99V185.946H405.231L405.708 187.033C405.744 187.114 405.767 187.177 405.779 187.219H405.786C405.817 187.134 405.843 187.07 405.861 187.028L406.348 185.946H406.577V187.503H406.576Z" fill="black"/>
<g filter="url(#filter6_dd_540_467)">
<rect x="328" y="276" width="120" height="120" rx="12" fill="white"/>
</g>
<g clip-path="url(#clip6_540_467)">
<path d="M387.571 358C387.328 358 387.1 357.935 386.889 357.821L384.729 356.538C384.404 356.36 384.567 356.295 384.664 356.262C385.103 356.116 385.184 356.084 385.639 355.824C385.687 355.791 385.752 355.807 385.801 355.84L387.458 356.831C387.523 356.863 387.604 356.863 387.653 356.831L394.133 353.079C394.198 353.046 394.231 352.981 394.231 352.9V345.412C394.231 345.331 394.198 345.266 394.133 345.234L387.653 341.498C387.588 341.466 387.507 341.466 387.458 341.498L380.977 345.234C380.912 345.266 380.88 345.348 380.88 345.412V352.9C380.88 352.965 380.912 353.046 380.977 353.079L382.748 354.102C383.706 354.589 384.307 354.021 384.307 353.452V346.062C384.307 345.965 384.388 345.867 384.502 345.867H385.33C385.427 345.867 385.525 345.948 385.525 346.062V353.452C385.525 354.735 384.826 355.482 383.608 355.482C383.235 355.482 382.942 355.482 382.114 355.076L380.409 354.102C379.986 353.858 379.727 353.403 379.727 352.916V345.429C379.727 344.941 379.986 344.487 380.409 344.243L386.889 340.491C387.295 340.264 387.848 340.264 388.254 340.491L394.734 344.243C395.157 344.487 395.416 344.941 395.416 345.429V352.916C395.416 353.403 395.157 353.858 394.734 354.102L388.254 357.854C388.042 357.951 387.799 358 387.571 358ZM389.569 352.851C386.727 352.851 386.142 351.552 386.142 350.447C386.142 350.35 386.223 350.253 386.337 350.253H387.182C387.279 350.253 387.36 350.317 387.36 350.415C387.49 351.276 387.864 351.698 389.586 351.698C390.95 351.698 391.535 351.389 391.535 350.659C391.535 350.236 391.372 349.928 389.244 349.717C387.474 349.538 386.37 349.148 386.37 347.735C386.37 346.419 387.474 345.64 389.326 345.64C391.405 345.64 392.428 346.354 392.558 347.914C392.558 347.963 392.542 348.011 392.509 348.06C392.477 348.092 392.428 348.125 392.379 348.125H391.535C391.453 348.125 391.372 348.06 391.356 347.979C391.161 347.085 390.657 346.793 389.326 346.793C387.831 346.793 387.653 347.313 387.653 347.703C387.653 348.174 387.864 348.32 389.878 348.58C391.876 348.84 392.818 349.213 392.818 350.61C392.801 352.039 391.632 352.851 389.569 352.851Z" fill="#539E43"/>
<path d="M367.463 328.715C367.463 328.423 367.301 328.147 367.041 328.001L360.154 324.038C360.041 323.973 359.911 323.94 359.781 323.924H359.716C359.586 323.924 359.456 323.973 359.342 324.038L352.456 328.001C352.196 328.147 352.033 328.423 352.033 328.715L352.05 339.37C352.05 339.517 352.131 339.663 352.261 339.728C352.391 339.809 352.553 339.809 352.667 339.728L356.76 337.389C357.019 337.243 357.182 336.967 357.182 336.674V331.688C357.182 331.396 357.344 331.119 357.604 330.973L359.342 329.966C359.472 329.885 359.618 329.853 359.764 329.853C359.911 329.853 360.057 329.885 360.17 329.966L361.908 330.973C362.168 331.119 362.331 331.396 362.331 331.688V336.674C362.331 336.967 362.493 337.243 362.753 337.389L366.846 339.728C366.976 339.809 367.138 339.809 367.268 339.728C367.398 339.663 367.479 339.517 367.479 339.37L367.463 328.715Z" fill="#333333"/>
<path d="M400.565 314.049C400.435 313.984 400.273 313.984 400.159 314.049C400.029 314.13 399.948 314.26 399.948 314.406V324.964C399.948 325.061 399.899 325.158 399.802 325.223C399.704 325.272 399.607 325.272 399.509 325.223L397.788 324.233C397.528 324.086 397.219 324.086 396.959 324.233L390.073 328.212C389.813 328.358 389.65 328.634 389.65 328.927V336.869C389.65 337.161 389.813 337.437 390.073 337.584L396.959 341.563C397.219 341.709 397.528 341.709 397.788 341.563L404.674 337.584C404.934 337.437 405.097 337.161 405.097 336.869V317.07C405.097 316.761 404.934 316.485 404.674 316.339L400.565 314.049ZM399.931 334.254C399.931 334.335 399.899 334.4 399.834 334.433L397.479 335.797C397.414 335.829 397.333 335.829 397.268 335.797L394.913 334.433C394.848 334.4 394.816 334.319 394.816 334.254V331.525C394.816 331.444 394.848 331.379 394.913 331.347L397.268 329.982C397.333 329.95 397.414 329.95 397.479 329.982L399.834 331.347C399.899 331.379 399.931 331.46 399.931 331.525V334.254Z" fill="#333333"/>
<path d="M423.483 331.46C423.743 331.314 423.889 331.038 423.889 330.746V328.813C423.889 328.521 423.727 328.244 423.483 328.098L416.645 324.135C416.385 323.989 416.077 323.989 415.817 324.135L408.93 328.114C408.67 328.261 408.508 328.537 408.508 328.829V336.771C408.508 337.064 408.67 337.34 408.93 337.486L415.768 341.384C416.028 341.53 416.336 341.53 416.58 341.384L420.722 339.078C420.852 339.013 420.933 338.867 420.933 338.72C420.933 338.574 420.852 338.428 420.722 338.363L413.803 334.384C413.673 334.303 413.592 334.173 413.592 334.027V331.542C413.592 331.395 413.673 331.249 413.803 331.184L415.963 329.95C416.093 329.869 416.255 329.869 416.385 329.95L418.546 331.184C418.676 331.265 418.757 331.395 418.757 331.542V333.491C418.757 333.637 418.838 333.783 418.968 333.848C419.098 333.929 419.26 333.929 419.39 333.848L423.483 331.46Z" fill="#333333"/>
<path d="M416.125 331.087C416.174 331.054 416.239 331.054 416.288 331.087L417.604 331.85C417.652 331.883 417.685 331.931 417.685 331.996V333.523C417.685 333.588 417.652 333.637 417.604 333.669L416.288 334.433C416.239 334.465 416.174 334.465 416.125 334.433L414.81 333.669C414.761 333.637 414.729 333.588 414.729 333.523V331.996C414.729 331.931 414.761 331.883 414.81 331.85L416.125 331.087Z" fill="#539E43"/>
<path d="M378.978 324.168C378.719 324.021 378.41 324.021 378.15 324.168L371.312 328.114C371.052 328.261 370.906 328.537 370.906 328.829V336.739C370.906 337.031 371.069 337.307 371.312 337.454L378.15 341.4C378.41 341.547 378.719 341.547 378.978 341.4L385.817 337.454C386.076 337.308 386.223 337.031 386.223 336.739V328.829C386.223 328.537 386.06 328.261 385.817 328.114L378.978 324.168Z" fill="url(#paint18_linear_540_467)"/>
<mask id="mask0_540_467" style="mask-type:luminance" maskUnits="userSpaceOnUse" x="370" y="324" width="17" height="18">
<path d="M378.978 324.168C378.719 324.021 378.41 324.021 378.15 324.168L371.312 328.114C371.052 328.261 370.906 328.537 370.906 328.829V336.739C370.906 337.031 371.069 337.307 371.312 337.454L378.15 341.4C378.41 341.547 378.719 341.547 378.978 341.4L385.817 337.454C386.076 337.308 386.223 337.031 386.223 336.739V328.829C386.223 328.537 386.06 328.261 385.817 328.114L378.978 324.168Z" fill="white"/>
</mask>
<g mask="url(#mask0_540_467)">
<path d="M385.833 328.114L378.963 324.168C378.898 324.135 378.817 324.103 378.752 324.086L371.053 337.275C371.118 337.356 371.199 337.421 371.28 337.47L378.15 341.417C378.345 341.531 378.573 341.563 378.784 341.498L386.012 328.277C385.963 328.212 385.898 328.163 385.833 328.114Z" fill="url(#paint19_linear_540_467)"/>
</g>
<mask id="mask1_540_467" style="mask-type:luminance" maskUnits="userSpaceOnUse" x="370" y="324" width="17" height="18">
<path d="M378.978 324.168C378.719 324.021 378.41 324.021 378.15 324.168L371.312 328.114C371.052 328.261 370.906 328.537 370.906 328.829V336.739C370.906 337.031 371.069 337.307 371.312 337.454L378.15 341.4C378.41 341.547 378.719 341.547 378.978 341.4L385.817 337.454C386.076 337.308 386.223 337.031 386.223 336.739V328.829C386.223 328.537 386.06 328.261 385.817 328.114L378.978 324.168Z" fill="white"/>
</mask>
<g mask="url(#mask1_540_467)">
<path fill-rule="evenodd" clip-rule="evenodd" d="M385.849 337.454C386.044 337.34 386.19 337.145 386.255 336.934L378.719 324.07C378.524 324.038 378.313 324.054 378.134 324.168L371.312 328.098L378.67 341.514C378.768 341.498 378.881 341.465 378.979 341.417L385.849 337.454Z" fill="url(#paint20_linear_540_467)"/>
<path fill-rule="evenodd" clip-rule="evenodd" d="M385.85 337.454L378.996 341.401C378.899 341.449 378.801 341.482 378.688 341.498L378.817 341.742L386.419 337.34V337.243L386.224 336.918C386.191 337.145 386.045 337.34 385.85 337.454Z" fill="url(#paint21_linear_540_467)"/>
<path fill-rule="evenodd" clip-rule="evenodd" d="M385.85 337.454L378.996 341.401C378.899 341.449 378.801 341.482 378.688 341.498L378.817 341.742L386.419 337.34V337.243L386.224 336.918C386.191 337.145 386.045 337.34 385.85 337.454Z" fill="url(#paint22_linear_540_467)"/>
</g>
</g>
<path d="M-67.0307 63.4816C-41.594 77.6266 15.0022 98.4309 37.8932 68.4887C66.5069 31.061 37.7034 23.5559 29.2448 42.2321C20.7861 60.9083 62.9969 86.2871 104.765 47.8093C138.179 17.0271 153.787 -30.4331 157.414 -50.3154" stroke="#0487FF" stroke-dasharray="6 6"/>
<path d="M544.597 443.809C519.16 429.664 462.564 408.86 439.673 438.802C411.06 476.23 439.863 483.735 448.322 465.058C456.78 446.382 414.57 421.003 372.802 459.481C339.388 490.263 323.779 537.724 320.152 557.606" stroke="#0487FF" stroke-dasharray="6 6"/>
</g>
<defs>
<filter id="filter0_dd_540_467" x="20" y="92" width="160" height="160" filterUnits="userSpaceOnUse" color-interpolation-filters="sRGB">
<feFlood flood-opacity="0" result="BackgroundImageFix"/>
<feColorMatrix in="SourceAlpha" type="matrix" values="0 0 0 0 0 0 0 0 0 0 0 0 0 0 0 0 0 0 127 0" result="hardAlpha"/>
<feMorphology radius="5" operator="erode" in="SourceAlpha" result="effect1_dropShadow_540_467"/>
<feOffset dy="20"/>
<feGaussianBlur stdDeviation="12.5"/>
<feComposite in2="hardAlpha" operator="out"/>
<feColorMatrix type="matrix" values="0 0 0 0 0 0 0 0 0 0 0 0 0 0 0 0 0 0 0.1 0"/>
<feBlend mode="normal" in2="BackgroundImageFix" result="effect1_dropShadow_540_467"/>
<feColorMatrix in="SourceAlpha" type="matrix" values="0 0 0 0 0 0 0 0 0 0 0 0 0 0 0 0 0 0 127 0" result="hardAlpha"/>
<feMorphology radius="5" operator="erode" in="SourceAlpha" result="effect2_dropShadow_540_467"/>
<feOffset dy="10"/>
<feGaussianBlur stdDeviation="5"/>
<feComposite in2="hardAlpha" operator="out"/>
<feColorMatrix type="matrix" values="0 0 0 0 0 0 0 0 0 0 0 0 0 0 0 0 0 0 0.1 0"/>
<feBlend mode="normal" in2="effect1_dropShadow_540_467" result="effect2_dropShadow_540_467"/>
<feBlend mode="normal" in="SourceGraphic" in2="effect2_dropShadow_540_467" result="shape"/>
</filter>
<filter id="filter1_dd_540_467" x="20" y="236" width="160" height="160" filterUnits="userSpaceOnUse" color-interpolation-filters="sRGB">
<feFlood flood-opacity="0" result="BackgroundImageFix"/>
<feColorMatrix in="SourceAlpha" type="matrix" values="0 0 0 0 0 0 0 0 0 0 0 0 0 0 0 0 0 0 127 0" result="hardAlpha"/>
<feMorphology radius="5" operator="erode" in="SourceAlpha" result="effect1_dropShadow_540_467"/>
<feOffset dy="20"/>
<feGaussianBlur stdDeviation="12.5"/>
<feComposite in2="hardAlpha" operator="out"/>
<feColorMatrix type="matrix" values="0 0 0 0 0 0 0 0 0 0 0 0 0 0 0 0 0 0 0.1 0"/>
<feBlend mode="normal" in2="BackgroundImageFix" result="effect1_dropShadow_540_467"/>
<feColorMatrix in="SourceAlpha" type="matrix" values="0 0 0 0 0 0 0 0 0 0 0 0 0 0 0 0 0 0 127 0" result="hardAlpha"/>
<feMorphology radius="5" operator="erode" in="SourceAlpha" result="effect2_dropShadow_540_467"/>
<feOffset dy="10"/>
<feGaussianBlur stdDeviation="5"/>
<feComposite in2="hardAlpha" operator="out"/>
<feColorMatrix type="matrix" values="0 0 0 0 0 0 0 0 0 0 0 0 0 0 0 0 0 0 0.1 0"/>
<feBlend mode="normal" in2="effect1_dropShadow_540_467" result="effect2_dropShadow_540_467"/>
<feBlend mode="normal" in="SourceGraphic" in2="effect2_dropShadow_540_467" result="shape"/>
</filter>
<filter id="filter2_dd_540_467" x="164" y="40" width="160" height="160" filterUnits="userSpaceOnUse" color-interpolation-filters="sRGB">
<feFlood flood-opacity="0" result="BackgroundImageFix"/>
<feColorMatrix in="SourceAlpha" type="matrix" values="0 0 0 0 0 0 0 0 0 0 0 0 0 0 0 0 0 0 127 0" result="hardAlpha"/>
<feMorphology radius="5" operator="erode" in="SourceAlpha" result="effect1_dropShadow_540_467"/>
<feOffset dy="20"/>
<feGaussianBlur stdDeviation="12.5"/>
<feComposite in2="hardAlpha" operator="out"/>
<feColorMatrix type="matrix" values="0 0 0 0 0 0 0 0 0 0 0 0 0 0 0 0 0 0 0.1 0"/>
<feBlend mode="normal" in2="BackgroundImageFix" result="effect1_dropShadow_540_467"/>
<feColorMatrix in="SourceAlpha" type="matrix" values="0 0 0 0 0 0 0 0 0 0 0 0 0 0 0 0 0 0 127 0" result="hardAlpha"/>
<feMorphology radius="5" operator="erode" in="SourceAlpha" result="effect2_dropShadow_540_467"/>
<feOffset dy="10"/>
<feGaussianBlur stdDeviation="5"/>
<feComposite in2="hardAlpha" operator="out"/>
<feColorMatrix type="matrix" values="0 0 0 0 0 0 0 0 0 0 0 0 0 0 0 0 0 0 0.1 0"/>
<feBlend mode="normal" in2="effect1_dropShadow_540_467" result="effect2_dropShadow_540_467"/>
<feBlend mode="normal" in="SourceGraphic" in2="effect2_dropShadow_540_467" result="shape"/>
</filter>
<filter id="filter3_dd_540_467" x="164" y="184" width="160" height="160" filterUnits="userSpaceOnUse" color-interpolation-filters="sRGB">
<feFlood flood-opacity="0" result="BackgroundImageFix"/>
<feColorMatrix in="SourceAlpha" type="matrix" values="0 0 0 0 0 0 0 0 0 0 0 0 0 0 0 0 0 0 127 0" result="hardAlpha"/>
<feMorphology radius="5" operator="erode" in="SourceAlpha" result="effect1_dropShadow_540_467"/>
<feOffset dy="20"/>
<feGaussianBlur stdDeviation="12.5"/>
<feComposite in2="hardAlpha" operator="out"/>
<feColorMatrix type="matrix" values="0 0 0 0 0 0 0 0 0 0 0 0 0 0 0 0 0 0 0.1 0"/>
<feBlend mode="normal" in2="BackgroundImageFix" result="effect1_dropShadow_540_467"/>
<feColorMatrix in="SourceAlpha" type="matrix" values="0 0 0 0 0 0 0 0 0 0 0 0 0 0 0 0 0 0 127 0" result="hardAlpha"/>
<feMorphology radius="5" operator="erode" in="SourceAlpha" result="effect2_dropShadow_540_467"/>
<feOffset dy="10"/>
<feGaussianBlur stdDeviation="5"/>
<feComposite in2="hardAlpha" operator="out"/>
<feColorMatrix type="matrix" values="0 0 0 0 0 0 0 0 0 0 0 0 0 0 0 0 0 0 0.1 0"/>
<feBlend mode="normal" in2="effect1_dropShadow_540_467" result="effect2_dropShadow_540_467"/>
<feBlend mode="normal" in="SourceGraphic" in2="effect2_dropShadow_540_467" result="shape"/>
</filter>
<filter id="filter4_dd_540_467" x="164" y="328" width="160" height="160" filterUnits="userSpaceOnUse" color-interpolation-filters="sRGB">
<feFlood flood-opacity="0" result="BackgroundImageFix"/>
<feColorMatrix in="SourceAlpha" type="matrix" values="0 0 0 0 0 0 0 0 0 0 0 0 0 0 0 0 0 0 127 0" result="hardAlpha"/>
<feMorphology radius="5" operator="erode" in="SourceAlpha" result="effect1_dropShadow_540_467"/>
<feOffset dy="20"/>
<feGaussianBlur stdDeviation="12.5"/>
<feComposite in2="hardAlpha" operator="out"/>
<feColorMatrix type="matrix" values="0 0 0 0 0 0 0 0 0 0 0 0 0 0 0 0 0 0 0.1 0"/>
<feBlend mode="normal" in2="BackgroundImageFix" result="effect1_dropShadow_540_467"/>
<feColorMatrix in="SourceAlpha" type="matrix" values="0 0 0 0 0 0 0 0 0 0 0 0 0 0 0 0 0 0 127 0" result="hardAlpha"/>
<feMorphology radius="5" operator="erode" in="SourceAlpha" result="effect2_dropShadow_540_467"/>
<feOffset dy="10"/>
<feGaussianBlur stdDeviation="5"/>
<feComposite in2="hardAlpha" operator="out"/>
<feColorMatrix type="matrix" values="0 0 0 0 0 0 0 0 0 0 0 0 0 0 0 0 0 0 0.1 0"/>
<feBlend mode="normal" in2="effect1_dropShadow_540_467" result="effect2_dropShadow_540_467"/>
<feBlend mode="normal" in="SourceGraphic" in2="effect2_dropShadow_540_467" result="shape"/>
</filter>
<filter id="filter5_dd_540_467" x="308" y="132" width="160" height="160" filterUnits="userSpaceOnUse" color-interpolation-filters="sRGB">
<feFlood flood-opacity="0" result="BackgroundImageFix"/>
<feColorMatrix in="SourceAlpha" type="matrix" values="0 0 0 0 0 0 0 0 0 0 0 0 0 0 0 0 0 0 127 0" result="hardAlpha"/>
<feMorphology radius="5" operator="erode" in="SourceAlpha" result="effect1_dropShadow_540_467"/>
<feOffset dy="20"/>
<feGaussianBlur stdDeviation="12.5"/>
<feComposite in2="hardAlpha" operator="out"/>
<feColorMatrix type="matrix" values="0 0 0 0 0 0 0 0 0 0 0 0 0 0 0 0 0 0 0.1 0"/>
<feBlend mode="normal" in2="BackgroundImageFix" result="effect1_dropShadow_540_467"/>
<feColorMatrix in="SourceAlpha" type="matrix" values="0 0 0 0 0 0 0 0 0 0 0 0 0 0 0 0 0 0 127 0" result="hardAlpha"/>
<feMorphology radius="5" operator="erode" in="SourceAlpha" result="effect2_dropShadow_540_467"/>
<feOffset dy="10"/>
<feGaussianBlur stdDeviation="5"/>
<feComposite in2="hardAlpha" operator="out"/>
<feColorMatrix type="matrix" values="0 0 0 0 0 0 0 0 0 0 0 0 0 0 0 0 0 0 0.1 0"/>
<feBlend mode="normal" in2="effect1_dropShadow_540_467" result="effect2_dropShadow_540_467"/>
<feBlend mode="normal" in="SourceGraphic" in2="effect2_dropShadow_540_467" result="shape"/>
</filter>
<filter id="filter6_dd_540_467" x="308" y="276" width="160" height="160" filterUnits="userSpaceOnUse" color-interpolation-filters="sRGB">
<feFlood flood-opacity="0" result="BackgroundImageFix"/>
<feColorMatrix in="SourceAlpha" type="matrix" values="0 0 0 0 0 0 0 0 0 0 0 0 0 0 0 0 0 0 127 0" result="hardAlpha"/>
<feMorphology radius="5" operator="erode" in="SourceAlpha" result="effect1_dropShadow_540_467"/>
<feOffset dy="20"/>
<feGaussianBlur stdDeviation="12.5"/>
<feComposite in2="hardAlpha" operator="out"/>
<feColorMatrix type="matrix" values="0 0 0 0 0 0 0 0 0 0 0 0 0 0 0 0 0 0 0.1 0"/>
<feBlend mode="normal" in2="BackgroundImageFix" result="effect1_dropShadow_540_467"/>
<feColorMatrix in="SourceAlpha" type="matrix" values="0 0 0 0 0 0 0 0 0 0 0 0 0 0 0 0 0 0 127 0" result="hardAlpha"/>
<feMorphology radius="5" operator="erode" in="SourceAlpha" result="effect2_dropShadow_540_467"/>
<feOffset dy="10"/>
<feGaussianBlur stdDeviation="5"/>
<feComposite in2="hardAlpha" operator="out"/>
<feColorMatrix type="matrix" values="0 0 0 0 0 0 0 0 0 0 0 0 0 0 0 0 0 0 0.1 0"/>
<feBlend mode="normal" in2="effect1_dropShadow_540_467" result="effect2_dropShadow_540_467"/>
<feBlend mode="normal" in="SourceGraphic" in2="effect2_dropShadow_540_467" result="shape"/>
</filter>
<linearGradient id="paint0_linear_540_467" x1="830.831" y1="-142.069" x2="830.831" y2="2253.7" gradientUnits="userSpaceOnUse">
<stop stop-color="#0994DC"/>
<stop offset="0.350006" stop-color="#66CEF5"/>
<stop offset="0.846161" stop-color="#127BCA"/>
<stop offset="1" stop-color="#127BCA"/>
</linearGradient>
<linearGradient id="paint1_linear_540_467" x1="853.887" y1="-150.589" x2="853.887" y2="2306.23" gradientUnits="userSpaceOnUse">
<stop stop-color="#0E76BC"/>
<stop offset="0.360001" stop-color="#36AEE8"/>
<stop offset="0.846161" stop-color="#00ADEF"/>
<stop offset="1" stop-color="#00ADEF"/>
</linearGradient>
<linearGradient id="paint2_linear_540_467" x1="835.181" y1="2019.59" x2="835.181" y2="64.7281" gradientUnits="userSpaceOnUse">
<stop stop-color="#1C63B7"/>
<stop offset="0.5" stop-color="#33BDF2"/>
<stop offset="1" stop-color="#33BDF2" stop-opacity="0.419608"/>
</linearGradient>
<linearGradient id="paint3_linear_540_467" x1="829.594" y1="-165.231" x2="829.594" y2="2385.58" gradientUnits="userSpaceOnUse">
<stop stop-color="#166AB8"/>
<stop offset="0.399994" stop-color="#36AEE8"/>
<stop offset="0.846161" stop-color="#0798DD"/>
<stop offset="1" stop-color="#0798DD"/>
</linearGradient>
<linearGradient id="paint4_linear_540_467" x1="957.979" y1="-186.133" x2="957.979" y2="2526.32" gradientUnits="userSpaceOnUse">
<stop stop-color="#124379"/>
<stop offset="0.389999" stop-color="#1487CB"/>
<stop offset="0.780228" stop-color="#165197"/>
<stop offset="1" stop-color="#165197"/>
</linearGradient>
<linearGradient id="paint5_linear_540_467" x1="376.646" y1="475.966" x2="760.145" y2="475.966" gradientUnits="userSpaceOnUse">
<stop stop-color="#33BDF2" stop-opacity="0.698039"/>
<stop offset="1" stop-color="#1DACD8"/>
</linearGradient>
<linearGradient id="paint6_linear_540_467" x1="1179.31" y1="2013.36" x2="1179.31" y2="109.054" gradientUnits="userSpaceOnUse">
<stop stop-color="#136AB4"/>
<stop offset="0.6" stop-color="#59CAF5" stop-opacity="0.54902"/>
<stop offset="1" stop-color="#59CAF5" stop-opacity="0.235294"/>
</linearGradient>
<linearGradient id="paint7_linear_540_467" x1="363.024" y1="1147.64" x2="1785.48" y2="1147.64" gradientUnits="userSpaceOnUse">
<stop stop-color="#05A1E6" stop-opacity="0.247059"/>
<stop offset="1" stop-color="#05A1E6"/>
</linearGradient>
<linearGradient id="paint8_linear_540_467" x1="850.436" y1="1981.3" x2="850.436" y2="31.445" gradientUnits="userSpaceOnUse">
<stop stop-color="#318ED5"/>
<stop offset="1" stop-color="#38A7E4"/>
</linearGradient>
<linearGradient id="paint9_linear_540_467" x1="817.961" y1="1205.71" x2="817.961" y2="-689.65" gradientUnits="userSpaceOnUse">
<stop stop-color="#05A1E6"/>
<stop offset="1" stop-color="#05A1E6" stop-opacity="0.54902"/>
</linearGradient>
<linearGradient id="paint10_linear_540_467" x1="886.604" y1="1773.73" x2="886.604" y2="172.114" gradientUnits="userSpaceOnUse">
<stop stop-color="#1959A6"/>
<stop offset="0.5" stop-color="#05A1E6"/>
<stop offset="0.917587" stop-color="#7EC5EA"/>
<stop offset="1" stop-color="#7EC5EA"/>
</linearGradient>
<linearGradient id="paint11_linear_540_467" x1="1223.6" y1="2017.59" x2="680.698" y2="358.439" gradientUnits="userSpaceOnUse">
<stop stop-color="#165096"/>
<stop offset="1" stop-color="#0D82CA"/>
</linearGradient>
<linearGradient id="paint12_linear_540_467" x1="722.484" y1="1038.67" x2="722.484" y2="131.137" gradientUnits="userSpaceOnUse">
<stop stop-color="#05A1E6"/>
<stop offset="0.873627" stop-color="#0495D6"/>
<stop offset="1" stop-color="#0495D6"/>
</linearGradient>
<linearGradient id="paint13_linear_540_467" x1="1175.52" y1="88.8356" x2="329.7" y2="1966.81" gradientUnits="userSpaceOnUse">
<stop stop-color="#38A7E4" stop-opacity="0.329412"/>
<stop offset="0.961533" stop-color="#0E88D3"/>
<stop offset="1" stop-color="#0E88D3"/>
</linearGradient>
<linearGradient id="paint14_linear_540_467" x1="1090.47" y1="162.271" x2="1090.47" y2="2142.16" gradientUnits="userSpaceOnUse">
<stop stop-color="#168CD4"/>
<stop offset="0.5" stop-color="#1C87CC"/>
<stop offset="1" stop-color="#154B8D"/>
</linearGradient>
<linearGradient id="paint15_linear_540_467" x1="483.716" y1="-3.24851" x2="492.295" y2="204.397" gradientUnits="userSpaceOnUse">
<stop stop-color="#97D6EE"/>
<stop offset="0.703293" stop-color="#55C1EA"/>
<stop offset="1" stop-color="#55C1EA"/>
</linearGradient>
<linearGradient id="paint16_linear_540_467" x1="416.194" y1="160.589" x2="454.973" y2="-59.3647" gradientUnits="userSpaceOnUse">
<stop stop-color="#7ACCEC"/>
<stop offset="1" stop-color="#3FB7ED"/>
</linearGradient>
<linearGradient id="paint17_linear_540_467" x1="909.239" y1="269.358" x2="909.239" y2="2205.89" gradientUnits="userSpaceOnUse">
<stop stop-color="#1DA7E7"/>
<stop offset="1" stop-color="#37ABE7" stop-opacity="0"/>
</linearGradient>
<linearGradient id="paint18_linear_540_467" x1="381.348" y1="327.108" x2="373.852" y2="338.885" gradientUnits="userSpaceOnUse">
<stop stop-color="#41873F"/>
<stop offset="0.3288" stop-color="#418B3D"/>
<stop offset="0.6352" stop-color="#419637"/>
<stop offset="0.9319" stop-color="#3FA92D"/>
<stop offset="1" stop-color="#3FAE2A"/>
</linearGradient>
<linearGradient id="paint19_linear_540_467" x1="377.525" y1="333.708" x2="396.296" y2="323.511" gradientUnits="userSpaceOnUse">
<stop offset="0.1376" stop-color="#41873F"/>
<stop offset="0.4032" stop-color="#54A044"/>
<stop offset="0.7136" stop-color="#66B848"/>
<stop offset="0.9081" stop-color="#6CC04A"/>
</linearGradient>
<linearGradient id="paint20_linear_540_467" x1="370.656" y1="332.784" x2="386.479" y2="332.784" gradientUnits="userSpaceOnUse">
<stop offset="0.0919" stop-color="#6CC04A"/>
<stop offset="0.2864" stop-color="#66B848"/>
<stop offset="0.5968" stop-color="#54A044"/>
<stop offset="0.8624" stop-color="#41873F"/>
</linearGradient>
<linearGradient id="paint21_linear_540_467" x1="370.658" y1="339.328" x2="386.48" y2="339.328" gradientUnits="userSpaceOnUse">
<stop offset="0.0919" stop-color="#6CC04A"/>
<stop offset="0.2864" stop-color="#66B848"/>
<stop offset="0.5968" stop-color="#54A044"/>
<stop offset="0.8624" stop-color="#41873F"/>
</linearGradient>
<linearGradient id="paint22_linear_540_467" x1="388.772" y1="326.732" x2="384.763" y2="347.736" gradientUnits="userSpaceOnUse">
<stop stop-color="#41873F"/>
<stop offset="0.3288" stop-color="#418B3D"/>
<stop offset="0.6352" stop-color="#419637"/>
<stop offset="0.9319" stop-color="#3FA92D"/>
<stop offset="1" stop-color="#3FAE2A"/>
</linearGradient>
<clipPath id="clip0_540_467">
<rect width="488" height="488" rx="24" fill="white"/>
</clipPath>
<clipPath id="clip1_540_467">
<rect width="48" height="48" fill="white" transform="translate(76 128)"/>
</clipPath>
<clipPath id="clip2_540_467">
<rect width="32.9032" height="60" fill="white" transform="translate(84 266)"/>
</clipPath>
<clipPath id="clip3_540_467">
<rect width="48" height="48" fill="white" transform="translate(220 76)"/>
</clipPath>
<clipPath id="clip4_540_467">
<rect width="80" height="40" fill="white" transform="translate(204 224)"/>
</clipPath>
<clipPath id="clip5_540_467">
<rect width="46.5455" height="48" fill="white" transform="translate(221 364)"/>
</clipPath>
<clipPath id="clip6_540_467">
<rect width="71.9231" height="44" fill="white" transform="translate(352 314)"/>
</clipPath>
</defs>
</svg>
