<svg width="488" height="488" viewBox="0 0 488 488" fill="none" xmlns="http://www.w3.org/2000/svg">
<g clip-path="url(#clip0_540_264)">
<rect width="488" height="488" rx="24" fill="#E6F3FF"/>
<g filter="url(#filter0_dd_540_264)">
<rect x="40" y="132" width="120" height="120" rx="12" fill="white"/>
</g>
<g clip-path="url(#clip1_540_264)">
<mask id="mask0_540_264" style="mask-type:luminance" maskUnits="userSpaceOnUse" x="76" y="168" width="48" height="48">
<path d="M124 168H76V216H124V168Z" fill="white"/>
</mask>
<g mask="url(#mask0_540_264)">
<path fill-rule="evenodd" clip-rule="evenodd" d="M116.458 199.968C116.661 199.851 116.829 199.683 116.947 199.481C117.064 199.279 117.127 199.049 117.127 198.816L117.151 191.1C117.152 190.866 117.214 190.636 117.332 190.434C117.449 190.232 117.618 190.064 117.821 189.948L122.003 187.545C122.206 187.428 122.436 187.367 122.669 187.368C122.903 187.368 123.133 187.43 123.335 187.547C123.538 187.664 123.706 187.833 123.822 188.035C123.939 188.237 124.001 188.467 124.001 188.701V202.729C124.001 202.963 123.939 203.194 123.821 203.397C123.704 203.6 123.535 203.768 123.331 203.885L107.546 212.952C107.344 213.067 107.116 213.128 106.883 213.128C106.651 213.129 106.423 213.068 106.221 212.953L93.8326 205.868C93.6286 205.751 93.4589 205.583 93.3409 205.379C93.2228 205.176 93.1607 204.945 93.1606 204.71V197.637C93.1606 197.629 93.1699 197.623 93.178 197.628C93.1846 197.632 93.1939 197.628 93.1939 197.618V197.61C93.1939 197.605 93.1966 197.599 93.202 197.597L103.405 191.736C103.414 191.73 103.41 191.716 103.399 191.716C103.396 191.716 103.394 191.714 103.392 191.712C103.39 191.71 103.389 191.708 103.389 191.705L103.409 184.77C103.409 184.536 103.349 184.305 103.232 184.102C103.115 183.898 102.947 183.729 102.744 183.612C102.541 183.494 102.311 183.432 102.077 183.432C101.842 183.431 101.612 183.493 101.409 183.61L93.826 187.98C93.6235 188.096 93.3943 188.157 93.1606 188.157C92.9272 188.157 92.6977 188.096 92.4953 187.98L84.8886 183.6C84.686 183.483 84.4562 183.421 84.2223 183.422C83.9885 183.422 83.7588 183.484 83.5563 183.6C83.3538 183.717 83.1857 183.886 83.0687 184.088C82.9517 184.291 82.8901 184.52 82.89 184.754V197.287C82.8901 197.521 82.8289 197.751 82.7124 197.953C82.596 198.156 82.4283 198.324 82.2263 198.441C82.0243 198.559 81.7951 198.621 81.5615 198.622C81.3279 198.623 81.0981 198.562 80.8953 198.446L76.674 196.033C76.4695 195.916 76.2996 195.747 76.1816 195.543C76.0635 195.34 76.0016 195.108 76.002 194.873L76.0393 172.966C76.0398 172.733 76.1016 172.503 76.2186 172.301C76.3356 172.099 76.5036 171.931 76.7059 171.814C76.9081 171.698 77.1375 171.636 77.371 171.636C77.6046 171.635 77.8341 171.697 78.0366 171.813L92.4967 180.118C92.6987 180.234 92.9276 180.295 93.1606 180.295C93.3937 180.295 93.6226 180.234 93.8246 180.118L108.281 171.813C108.483 171.696 108.713 171.635 108.947 171.636C109.181 171.636 109.411 171.698 109.613 171.815C109.815 171.933 109.983 172.101 110.1 172.304C110.217 172.506 110.278 172.736 110.278 172.97V194.882C110.278 195.117 110.216 195.347 110.099 195.55C109.982 195.753 109.813 195.921 109.61 196.038L102.039 200.398C101.836 200.515 101.667 200.684 101.55 200.887C101.433 201.091 101.371 201.322 101.372 201.556C101.372 201.791 101.435 202.021 101.553 202.224C101.671 202.427 101.841 202.595 102.045 202.712L106.221 205.089C106.423 205.204 106.651 205.264 106.883 205.263C107.115 205.263 107.343 205.202 107.545 205.086L116.458 199.968ZM117.334 180.312C117.334 180.547 117.397 180.779 117.516 180.982C117.635 181.186 117.805 181.355 118.01 181.471C118.216 181.587 118.448 181.647 118.684 181.644C118.919 181.641 119.15 181.575 119.353 181.454L123.353 179.054C123.55 178.936 123.713 178.768 123.827 178.568C123.941 178.368 124 178.142 124.001 177.912V173.021C124 172.785 123.937 172.554 123.818 172.35C123.699 172.147 123.529 171.979 123.323 171.863C123.118 171.747 122.886 171.687 122.65 171.69C122.415 171.693 122.184 171.758 121.982 171.88L117.982 174.28C117.784 174.398 117.621 174.565 117.507 174.766C117.394 174.966 117.334 175.192 117.334 175.422V180.312Z" fill="#007FFF"/>
</g>
</g>
<g filter="url(#filter1_dd_540_264)">
<rect x="40" y="276" width="120" height="120" rx="12" fill="white"/>
</g>
<g clip-path="url(#clip2_540_264)">
<path d="M80 350.842C80 353.691 82.3092 356 85.1577 356H114.842C117.691 356 120 353.691 120 350.842V321.158C120 318.309 117.691 316 114.842 316H85.1578C82.3089 316 80 318.309 80 321.158V350.842Z" fill="#563D7C"/>
<path d="M96.5872 333.693V328.029H101.573C102.048 328.029 102.506 328.068 102.947 328.148C103.388 328.227 103.778 328.368 104.117 328.572C104.456 328.775 104.728 329.058 104.931 329.42C105.135 329.781 105.237 330.245 105.237 330.81C105.237 331.828 104.931 332.563 104.321 333.015C103.71 333.467 102.93 333.693 101.98 333.693H96.5872ZM91.2617 323.891V348.109H102.998C104.083 348.109 105.141 347.974 106.17 347.702C107.198 347.431 108.114 347.013 108.917 346.447C109.72 345.882 110.359 345.153 110.833 344.26C111.308 343.366 111.546 342.309 111.546 341.088C111.546 339.573 111.178 338.278 110.443 337.204C109.708 336.13 108.595 335.378 107.102 334.948C108.188 334.428 109.008 333.761 109.562 332.947C110.115 332.133 110.393 331.116 110.393 329.894C110.393 328.764 110.206 327.814 109.833 327.045C109.46 326.276 108.934 325.66 108.255 325.197C107.577 324.733 106.763 324.399 105.813 324.196C104.864 323.992 103.812 323.891 102.659 323.891H91.2617ZM96.5872 343.971V337.323H102.387C103.541 337.323 104.468 337.588 105.169 338.12C105.87 338.651 106.22 339.539 106.22 340.783C106.22 341.416 106.113 341.936 105.898 342.343C105.683 342.75 105.395 343.072 105.033 343.31C104.671 343.547 104.253 343.717 103.778 343.819C103.303 343.92 102.806 343.971 102.286 343.971H96.5872Z" fill="white"/>
</g>
<g filter="url(#filter2_dd_540_264)">
<rect x="184" y="40" width="120" height="120" rx="12" fill="white"/>
</g>
<g clip-path="url(#clip3_540_264)">
<path d="M227.825 94.8057C227.49 94.7219 227.07 94.5543 226.735 94.4705C226.819 94.219 226.819 93.9676 226.903 93.7162C227.741 89.6933 227.154 86.5085 225.31 85.419C223.55 84.4133 220.617 85.5028 217.768 88.0171C217.516 88.2685 217.181 88.52 216.93 88.7714C216.762 88.6038 216.594 88.4362 216.343 88.2685C213.326 85.5866 210.225 84.4133 208.381 85.5028C206.621 86.4247 206.118 89.5257 206.872 93.2971C206.956 93.6324 207.04 94.0514 207.124 94.3866C206.705 94.4705 206.286 94.6381 205.867 94.8057C202.263 96.0628 200 97.9905 200 100.086C200 102.181 202.43 104.276 206.202 105.533C206.537 105.617 206.789 105.701 207.124 105.785C207.04 106.204 206.956 106.623 206.872 106.958C206.202 110.73 206.705 113.663 208.465 114.669C210.309 115.758 213.326 114.669 216.343 112.07C216.594 111.903 216.846 111.651 217.013 111.4C217.349 111.735 217.6 111.987 217.935 112.238C220.785 114.752 223.634 115.674 225.394 114.669C227.238 113.579 227.825 110.394 227.07 106.539C226.987 106.204 226.903 105.952 226.903 105.617C227.154 105.533 227.322 105.45 227.573 105.45C231.429 104.192 233.943 102.097 233.943 99.9181C233.859 97.9905 231.512 96.0628 227.825 94.8057ZM218.773 89.1066C221.288 86.9276 223.634 86.0895 224.64 86.6762C225.813 87.3466 226.232 89.9447 225.478 93.4647C225.394 93.7162 225.394 93.8838 225.31 94.1352C223.886 93.8 222.377 93.5485 220.785 93.3809C219.863 92.04 218.857 90.8666 217.935 89.7771C218.187 89.5257 218.522 89.2743 218.773 89.1066ZM210.728 100.086C211.147 99.1638 211.65 98.2419 212.152 97.32C212.655 96.3981 213.242 95.56 213.829 94.7219C214.834 94.6381 215.84 94.6381 216.93 94.6381C218.019 94.6381 219.025 94.6381 220.03 94.7219C220.617 95.56 221.12 96.3981 221.623 97.32C222.126 98.2419 222.629 99.1638 223.048 100.002C222.629 100.924 222.126 101.846 221.623 102.768C221.12 103.69 220.533 104.528 220.03 105.366C219.025 105.449 218.019 105.45 216.93 105.45C215.84 105.45 214.834 105.449 213.829 105.366C213.242 104.528 212.739 103.69 212.152 102.768C211.65 101.93 211.23 101.008 210.728 100.086ZM209.973 101.762C210.309 102.349 210.56 102.935 210.895 103.522C211.23 104.109 211.566 104.695 211.985 105.282C210.895 105.198 209.806 105.03 208.884 104.779C209.219 103.857 209.554 102.851 209.973 101.762ZM209.973 98.4095C209.554 97.4038 209.219 96.3981 208.884 95.4762C209.89 95.2247 210.895 95.0571 211.985 94.9733C211.65 95.56 211.314 96.0628 210.979 96.6495C210.644 97.2362 210.309 97.8228 209.973 98.4095ZM222.88 103.522C223.215 102.935 223.55 102.349 223.886 101.762C224.305 102.768 224.724 103.773 225.059 104.779C224.053 105.03 223.048 105.198 221.874 105.282C222.21 104.695 222.545 104.109 222.88 103.522ZM223.886 98.4095C223.55 97.8228 223.215 97.2362 222.88 96.6495C222.545 96.0628 222.21 95.4762 221.874 94.9733C222.964 95.1409 223.97 95.3085 224.975 95.4762C224.64 96.3981 224.305 97.4038 223.886 98.4095ZM216.93 90.8666C217.6 91.6209 218.27 92.3752 218.941 93.2971C218.27 93.2971 217.6 93.2133 216.93 93.2133C216.259 93.2133 215.589 93.2133 214.918 93.2971C215.589 92.3752 216.259 91.5371 216.93 90.8666ZM209.135 86.6762C210.309 86.0057 212.739 86.9276 215.421 89.2743C215.589 89.4419 215.756 89.6095 215.924 89.7771C214.918 90.8666 213.996 92.04 213.074 93.3809C211.482 93.5485 209.973 93.8 208.549 94.0514C208.465 93.7162 208.381 93.3809 208.297 93.0457C207.627 89.7771 208.046 87.3466 209.135 86.6762ZM207.459 104.444C207.208 104.36 206.872 104.276 206.621 104.192C204.945 103.606 203.604 102.935 202.682 102.097C201.844 101.343 201.425 100.672 201.425 100.086C201.425 98.8285 203.269 97.32 206.37 96.2305C206.705 96.0628 207.124 95.8952 207.543 95.8114C207.962 97.1524 208.549 98.6609 209.219 100.086C208.465 101.594 207.962 103.019 207.459 104.444ZM215.337 111.065C213.996 112.238 212.739 112.992 211.566 113.411C210.56 113.747 209.722 113.83 209.219 113.495C208.13 112.909 207.71 110.478 208.297 107.293C208.381 106.958 208.465 106.539 208.549 106.204C209.973 106.539 211.482 106.707 213.074 106.874C213.996 108.215 215.002 109.389 216.008 110.478C215.756 110.646 215.589 110.813 215.337 111.065ZM217.013 109.389C216.343 108.634 215.672 107.796 215.002 106.958C215.672 106.958 216.343 106.958 217.013 106.958C217.684 106.958 218.354 106.958 219.025 106.874C218.354 107.88 217.684 108.634 217.013 109.389ZM225.813 111.4C225.646 112.49 225.227 113.244 224.724 113.495C223.634 114.082 221.371 113.328 218.941 111.232C218.69 110.981 218.354 110.729 218.103 110.478C219.025 109.472 220.03 108.215 220.952 106.874C222.629 106.707 224.137 106.455 225.562 106.204C225.646 106.455 225.73 106.79 225.73 107.042C225.981 108.634 225.981 110.227 225.813 111.4ZM226.987 104.192C226.819 104.276 226.651 104.276 226.4 104.36C225.981 103.019 225.394 101.594 224.724 100.086C225.394 98.6609 225.981 97.2362 226.4 95.8952C226.735 95.979 227.07 96.0628 227.406 96.2305C230.507 97.32 232.434 98.9124 232.434 100.17C232.434 101.343 230.339 103.103 226.987 104.192Z" fill="#01D8F8"/>
<path d="M216.929 97.0685C218.605 97.0685 219.946 98.4095 219.946 100.086C219.946 101.762 218.605 103.103 216.929 103.103C215.253 103.103 213.912 101.762 213.912 100.086C213.912 98.4095 215.253 97.0685 216.929 97.0685Z" fill="#01D8F8"/>
<path d="M239.475 101.175V107.209H237.799V92.7104H241.738C243.498 92.7104 244.839 93.0457 245.677 93.7162C246.515 94.3866 246.934 95.3924 246.934 96.8171C246.934 98.7447 245.928 100.002 244.001 100.672L247.94 107.209H245.928L242.408 101.175H239.475ZM239.475 99.7505H241.822C242.995 99.7505 243.917 99.499 244.42 99.08C245.006 98.5771 245.258 97.9066 245.258 96.9847C245.258 96.0628 245.006 95.3085 244.42 94.8895C243.833 94.4704 242.911 94.219 241.738 94.219H239.559L239.475 99.7505Z" fill="#01D8F8"/>
<path d="M254.645 107.461C253.053 107.461 251.796 106.958 250.874 105.952C249.952 104.947 249.449 103.606 249.449 101.846C249.449 100.086 249.868 98.661 250.706 97.6552C251.544 96.6495 252.718 96.1467 254.143 96.1467C255.484 96.1467 256.573 96.5657 257.411 97.4876C258.165 98.4095 258.584 99.5829 258.584 101.008V102.013H251.125C251.125 103.27 251.461 104.276 252.131 104.947C252.718 105.617 253.64 105.952 254.729 105.952C255.903 105.952 257.076 105.701 258.165 105.198V106.707C257.579 106.958 256.992 107.126 256.489 107.21C255.986 107.377 255.4 107.461 254.645 107.461ZM254.226 97.5714C253.388 97.5714 252.634 97.8229 252.131 98.4095C251.628 98.9962 251.293 99.7505 251.209 100.756H256.908C256.908 99.7505 256.657 98.9124 256.238 98.4095C255.735 97.8229 255.064 97.5714 254.226 97.5714Z" fill="#01D8F8"/>
<path d="M268.139 107.21L267.803 105.701H267.72C267.217 106.371 266.63 106.874 266.127 107.126C265.624 107.377 264.954 107.461 264.116 107.461C263.026 107.461 262.188 107.21 261.602 106.623C261.015 106.036 260.68 105.282 260.68 104.276C260.68 102.097 262.44 100.924 265.96 100.84L267.803 100.756V100.086C267.803 99.2476 267.636 98.5771 267.217 98.1581C266.882 97.739 266.295 97.5714 265.457 97.5714C264.535 97.5714 263.529 97.8229 262.356 98.4095L261.853 97.1524C262.356 96.9009 262.943 96.6495 263.613 96.4819C264.283 96.3143 264.87 96.2305 265.541 96.2305C266.798 96.2305 267.803 96.4819 268.39 97.0686C268.977 97.6552 269.312 98.5771 269.312 99.8343V107.293L268.139 107.21ZM264.451 106.036C265.457 106.036 266.295 105.785 266.882 105.198C267.468 104.611 267.72 103.857 267.72 102.851V101.846L266.043 101.93C264.703 102.013 263.781 102.181 263.194 102.516C262.607 102.851 262.356 103.438 262.356 104.192C262.356 104.779 262.523 105.282 262.859 105.533C263.278 105.952 263.781 106.036 264.451 106.036Z" fill="#01D8F8"/>
<path d="M277.105 107.461C275.513 107.461 274.339 106.958 273.417 106.036C272.579 105.03 272.16 103.69 272.16 101.93C272.16 100.086 272.579 98.7448 273.501 97.739C274.339 96.7333 275.596 96.2305 277.273 96.2305C277.775 96.2305 278.278 96.3143 278.865 96.3981C279.368 96.4819 279.787 96.6495 280.122 96.8171L279.619 98.2419C279.284 98.0743 278.865 97.9905 278.446 97.9067C278.027 97.8228 277.608 97.739 277.273 97.739C275.093 97.739 273.92 99.1638 273.92 101.93C273.92 103.27 274.172 104.276 274.758 105.03C275.261 105.785 276.099 106.12 277.189 106.12C278.111 106.12 279.033 105.952 279.954 105.533V106.958C279.116 107.21 278.194 107.461 277.105 107.461Z" fill="#01D8F8"/>
<path d="M285.906 106.036C286.157 106.036 286.492 106.036 286.744 105.952C286.995 105.869 287.247 105.869 287.414 105.785V107.042C287.247 107.126 286.995 107.21 286.66 107.293C286.325 107.377 285.99 107.377 285.738 107.377C283.643 107.377 282.553 106.288 282.553 104.025V97.5714H280.961V96.8171L282.553 96.1467L283.224 93.8H284.146V96.3143H287.33V97.5714H284.146V103.941C284.146 104.611 284.313 105.114 284.649 105.45C284.984 105.869 285.403 106.036 285.906 106.036Z" fill="#01D8F8"/>
</g>
<g filter="url(#filter3_dd_540_264)">
<rect x="184" y="184" width="120" height="120" rx="12" fill="white"/>
</g>
<path d="M230.162 220H232.318V222.137H234.306V220H236.462V226.469H234.306V224.312H232.337V226.469H230.162V220ZM239.312 222.156H237.409V220H243.381V222.156H241.468V226.469H239.312V222.156ZM244.328 220H246.587L247.975 222.278L249.362 220H251.621V226.469H249.465V223.262L247.956 225.587L246.446 223.262V226.469H244.328V220ZM252.69 220H254.846V224.331H257.903V226.469H252.69V220Z" fill="black"/>
<path d="M230.088 264.156L226.994 229.431H261.007L257.913 264.138L243.972 268" fill="#FF4C1E"/>
<path d="M244 265.047V232.281H257.903L255.25 261.906L244 265.047Z" fill="#FF651E"/>
<path d="M233.312 236.528H244L245.589 238.656L244 240.784H237.981L238.375 245.144H244L245.589 247.351L244 249.391H234.475L233.312 236.528ZM234.662 251.528H238.938L239.238 254.931L244 256.206L245.793 258.331L244 260.65L235.263 258.213L234.662 251.528Z" fill="#EBEBEB"/>
<path d="M254.651 236.528H243.982V240.784H254.257L254.651 236.528ZM253.873 245.144H243.982V249.4H249.232L248.736 254.931L243.982 256.206V260.631L252.701 258.213L253.873 245.144Z" fill="white"/>
<g filter="url(#filter4_dd_540_264)">
<rect x="184" y="328" width="120" height="120" rx="12" fill="white"/>
</g>
<g clip-path="url(#clip4_540_264)">
<path d="M222.756 384.269V393.313H223.846V385.926L229.38 393.313H230.552V384.269H229.462V391.541L223.94 384.269H222.756Z" fill="#B3B3B3"/>
<path d="M239.524 385.562V384.592C235.751 383.604 231.957 384.448 232.277 389.177C232.564 393.258 236.139 393.991 239.524 392.95V389.177H238.343V392.263C236.103 392.792 233.564 392.136 233.423 389.177C233.232 384.984 236.227 384.697 239.524 385.562Z" fill="#B3B3B3"/>
<path d="M247.672 384.269V390.236C247.544 391.661 246.642 392.429 245.114 392.429C243.585 392.429 242.683 391.661 242.555 390.236V384.269H241.379V390.236C241.618 392.773 242.934 393.356 244.636 393.392L244.636 393.392C246.724 393.508 248.573 393.168 248.848 390.236V384.269H247.672Z" fill="#B3B3B3"/>
<path d="M252.148 392.352V384.269H250.994C250.994 384.654 250.994 392.928 250.994 393.313C251.065 393.313 256.834 393.313 256.894 393.313V392.352H252.148V392.352Z" fill="#B3B3B3"/>
<path d="M261.852 383.087L257.398 393.313H258.618L261.852 385.402L263.532 389.512H261.21L260.88 390.435H263.909L265.086 393.313H266.306L261.852 383.087Z" fill="#B3B3B3"/>
<path d="M271.471 389.037C273.128 388.504 273.995 387.687 273.989 386.408C273.975 384.881 273.049 384.239 271.431 384.269C271.021 384.269 268.028 384.269 267.553 384.269V385.23V393.313H268.761V385.23H271.431C272.456 385.301 272.72 385.768 272.72 386.468C272.72 387.339 272.276 387.862 271.333 388.197C270.972 388.318 270.585 388.417 270.162 388.489V389.23L273.035 393.313H274.598L271.471 389.037Z" fill="#B3B3B3"/>
<path d="M275.883 392.33V393.313C277.742 393.26 279.007 392.611 278.956 390.647V384.269H277.781V390.79C277.836 391.743 277.153 392.301 275.883 392.33Z" fill="#B3B3B3"/>
<path d="M287.301 384.568V385.641C284.573 384.743 281.9 385.067 281.89 386.729C281.92 387.923 282.506 388.295 284.514 388.22C286.791 388.124 287.627 389.137 287.6 390.814C287.539 393.428 284.958 393.809 281.055 392.984V391.887C283.522 392.627 286.48 392.783 286.407 390.829C286.417 389.637 285.93 389.159 283.709 389.263C281.684 389.235 280.634 388.424 280.742 386.684C280.933 384.173 283.412 383.689 287.301 384.568Z" fill="#B3B3B3"/>
<path d="M200.156 380.701L210.741 377L221.379 380.701L219.698 394.486L210.767 399.42L201.819 394.486L200.156 380.701Z" fill="#B3B3B3"/>
<path d="M210.742 378.149V398.197L218.689 393.804L220.196 381.438L210.742 378.149Z" fill="#A5120D"/>
<path d="M210.741 378.149V398.197L202.795 393.804L201.287 381.438L210.741 378.149Z" fill="#DC1B16"/>
<path d="M210.745 379.172L204.24 393.616H206.63L208.002 390.357C208.213 390.357 213.257 390.357 213.488 390.357L214.86 393.616H217.249L210.745 379.172ZM208.827 388.398L210.745 383.843L212.663 388.398C209.629 388.405 210.474 388.405 208.827 388.398Z" fill="white"/>
<path d="M210.744 379.172V383.843L212.662 388.398C211.701 388.4 211.129 388.402 210.744 388.403V390.357C212.058 390.357 213.372 390.357 213.487 390.357L214.859 393.616H217.249L210.744 379.172Z" fill="#B3B2B2"/>
<path d="M223.025 383.964V393.008H224.116V385.621L229.649 393.008H230.822V383.964H229.731V391.236L224.209 383.964H223.025Z" fill="#020202"/>
<path d="M239.794 385.256V384.287C236.02 383.299 232.226 384.143 232.546 388.871C232.833 392.952 236.408 393.686 239.794 392.645V388.871H238.612V391.958C236.373 392.487 233.834 391.831 233.692 388.871C233.502 384.679 236.496 384.392 239.794 385.256Z" fill="#020202"/>
<path d="M247.942 383.964V389.931C247.814 391.356 246.912 392.124 245.383 392.124C243.855 392.124 242.953 391.356 242.825 389.931V383.964H241.648V389.931C241.887 392.468 243.203 393.051 244.906 393.087L244.906 393.087C246.994 393.203 248.842 392.863 249.118 389.931V383.964H247.942Z" fill="#020202"/>
<path d="M252.418 392.047V383.964H251.264C251.264 384.349 251.264 392.622 251.264 393.008C251.335 393.008 257.104 393.008 257.164 393.008V392.047H252.418Z" fill="#020202"/>
<path d="M262.122 382.782L257.668 393.008H258.888L262.122 385.097L263.802 389.207H261.479L261.149 390.13H264.179L265.355 393.008H266.575L262.122 382.782Z" fill="#020202"/>
<path d="M271.741 388.732C273.397 388.198 274.265 387.382 274.258 386.102C274.244 384.576 273.319 383.934 271.7 383.964C271.29 383.964 268.297 383.964 267.822 383.964V384.925V393.008H269.03V384.925H271.7C272.726 384.996 272.99 385.463 272.99 386.163C272.99 387.034 272.546 387.557 271.602 387.892C271.242 388.013 270.855 388.112 270.431 388.184V388.925L273.304 393.008H274.868L271.741 388.732Z" fill="#020202"/>
<path d="M276.152 392.025V393.008C278.012 392.955 279.276 392.306 279.226 390.342V383.964H278.05V390.485C278.106 391.438 277.423 391.996 276.152 392.025Z" fill="#A5120D"/>
<path d="M287.571 384.263V385.336C284.843 384.438 282.169 384.762 282.159 386.424C282.19 387.618 282.775 387.99 284.783 387.915C287.061 387.819 287.896 388.832 287.869 390.509C287.809 393.123 285.227 393.504 281.325 392.679V391.582C283.791 392.321 286.75 392.477 286.676 390.523C286.686 389.332 286.199 388.854 283.978 388.958C281.954 388.929 280.904 388.119 281.011 386.379C281.202 383.868 283.682 383.384 287.571 384.263Z" fill="#A5120D"/>
<path d="M269.032 396.46C268.754 396.46 268.575 396.568 268.469 396.737V395.906H268.213V398.092H268.469V397.859C268.574 398.043 268.751 398.166 269.032 398.156C269.368 398.145 269.641 397.766 269.641 397.32C269.641 396.821 269.369 396.46 269.032 396.46ZM268.959 397.925C268.703 397.925 268.469 397.801 268.469 397.308C268.469 396.885 268.65 396.692 268.959 396.692C269.239 396.692 269.356 396.968 269.356 397.308C269.356 397.649 269.227 397.925 268.959 397.925Z" fill="#00000D"/>
<path d="M270.895 396.536L270.481 397.813L270.053 396.536H269.729C269.729 396.536 270.303 398.129 270.33 398.203C270.315 398.259 270.302 398.284 270.263 398.387C270.189 398.584 270.096 398.613 269.896 398.533V398.79C270.186 398.837 270.344 398.815 270.474 398.476C270.535 398.316 271.219 396.536 271.219 396.536H270.895Z" fill="#00000D"/>
<path d="M275.997 396.128H274.232V396.647H275.489C275.427 397.375 274.821 397.686 274.25 397.686C273.518 397.686 272.88 397.11 272.88 396.303C272.88 395.517 273.488 394.912 274.251 394.912C274.84 394.912 275.187 395.287 275.187 395.287L275.55 394.911C275.55 394.911 275.084 394.391 274.233 394.391C273.149 394.391 272.311 395.306 272.311 396.294C272.311 397.262 273.099 398.206 274.26 398.206C275.282 398.206 276.029 397.507 276.029 396.472C276.029 396.254 275.997 396.128 275.997 396.128L275.997 396.128Z" fill="black"/>
<path d="M277.492 395.752C276.774 395.752 276.26 396.313 276.26 396.968C276.26 397.632 276.759 398.204 277.501 398.204C278.172 398.204 278.723 397.691 278.723 396.982C278.723 396.17 278.083 395.752 277.492 395.752ZM277.499 396.233C277.853 396.233 278.187 396.519 278.187 396.979C278.187 397.429 277.854 397.723 277.498 397.723C277.107 397.723 276.798 397.409 276.798 396.975C276.798 396.551 277.103 396.233 277.499 396.233Z" fill="black"/>
<path d="M280.156 395.752C279.438 395.752 278.924 396.313 278.924 396.968C278.924 397.632 279.423 398.204 280.165 398.204C280.836 398.204 281.387 397.691 281.387 396.982C281.387 396.17 280.747 395.752 280.156 395.752ZM280.164 396.233C280.517 396.233 280.851 396.519 280.851 396.979C280.851 397.429 280.518 397.723 280.162 397.723C279.771 397.723 279.462 397.409 279.462 396.975C279.462 396.551 279.767 396.233 280.164 396.233Z" fill="black"/>
<path d="M282.786 395.753C282.127 395.753 281.609 396.33 281.609 396.978C281.609 397.716 282.21 398.206 282.775 398.206C283.124 398.206 283.31 398.067 283.448 397.908V398.149C283.448 398.572 283.191 398.826 282.803 398.826C282.428 398.826 282.241 398.547 282.175 398.389L281.704 398.586C281.871 398.94 282.208 399.308 282.807 399.308C283.462 399.308 283.962 398.895 283.962 398.03V395.796H283.448V396.034C283.29 395.864 283.073 395.753 282.786 395.753ZM282.834 396.234C283.157 396.234 283.489 396.51 283.489 396.981C283.489 397.46 283.158 397.724 282.827 397.724C282.476 397.724 282.149 397.438 282.149 396.985C282.149 396.515 282.488 396.234 282.834 396.234Z" fill="black"/>
<path d="M286.202 395.75C285.581 395.75 285.059 396.245 285.059 396.975C285.059 397.747 285.64 398.205 286.262 398.205C286.781 398.205 287.099 397.921 287.289 397.667L286.865 397.385C286.755 397.556 286.571 397.722 286.265 397.722C285.92 397.722 285.761 397.534 285.663 397.351L287.307 396.669L287.222 396.469C287.063 396.077 286.693 395.75 286.202 395.75L286.202 395.75ZM286.224 396.222C286.448 396.222 286.609 396.341 286.677 396.484L285.58 396.942C285.532 396.587 285.869 396.222 286.224 396.222Z" fill="black"/>
<path d="M284.808 394.518H284.305V398.132H284.808V394.518Z" fill="black"/>
</g>
<g filter="url(#filter5_dd_540_264)">
<rect x="328" y="92" width="120" height="120" rx="12" fill="white"/>
</g>
<path d="M405.436 139.201L402.696 170.975C398.636 174.125 393.537 176 387.999 176C382.462 176 377.363 174.125 373.302 170.975L370.562 139.201H405.436Z" fill="#006BC0"/>
<path d="M388 142.188V175.371L399.463 172.135L402.02 142.188H388Z" fill="#0096DC"/>
<path d="M398.129 155.168H389.862L398.501 150.771L398.874 146.351H377.127L377.507 150.857H386.237L377.861 155.045L378.251 159.662H393.192L392.702 165.159L388 166.433L383.102 165.061L382.98 161.633H378.417L378.988 168.392L388 170.939L397.013 168.392L398.129 155.167L398.129 155.168Z" fill="white"/>
<path d="M379.502 134.302V131.168H384.008V129.47H377.869V136H384.008V134.302H379.502Z" fill="#222123"/>
<path d="M386.645 132.025V131.241H391.127V131.168V129.47H384.988V133.518H389.388V134.302H384.988V136H391.127V134.302V132.025H386.645Z" fill="#222123"/>
<path d="M393.649 132.025V131.241H398.131V131.168V129.47H391.992V133.518H396.392V134.302H391.992V136H398.131V134.302V132.025H393.649Z" fill="#222123"/>
<g filter="url(#filter6_dd_540_264)">
<rect x="328" y="236" width="120" height="120" rx="12" fill="white"/>
</g>
<g clip-path="url(#clip5_540_264)">
<path fill-rule="evenodd" clip-rule="evenodd" d="M428.17 287.486L431.852 287.506C431.852 287.506 425.007 296.781 424.448 297.537C424.267 297.782 423.991 298.046 423.851 298.373C423.498 299.196 423.135 301 423.135 301L419.766 301.017C419.766 301.017 420.29 299.136 420.269 298.134C420.25 297.259 419.803 296.385 419.552 295.507C419.299 294.619 418.955 292.88 418.955 292.88H422.418L422.896 294.791L428.17 287.486Z" fill="#1A1918"/>
<path fill-rule="evenodd" clip-rule="evenodd" d="M421.198 289.442C421.878 289.852 422.294 292.111 422.294 292.111C422.294 292.111 418.739 292.164 416.805 292.164H415.133L413.103 301H409.998C409.998 301 411.93 291.397 412.386 289.656C412.534 289.092 413.399 289.189 414.859 289.189H417.192C418.698 289.189 420.458 288.997 421.198 289.442Z" fill="#1A1918"/>
<path fill-rule="evenodd" clip-rule="evenodd" d="M406.744 293.746C406.744 293.746 406.841 293.179 406.416 292.522C406.053 291.962 405.717 291.832 404.762 291.802C402.064 291.717 402.117 293.716 402.117 293.716L406.744 293.746ZM409.67 291.457C410.065 292.883 409.312 296.233 409.312 296.233C409.312 296.233 405.377 296.168 403.222 296.233C402.552 296.254 401.749 296.161 401.55 296.472C401.269 296.909 401.652 297.582 401.977 297.866C402.351 298.193 403.079 298.23 403.341 298.264C405.09 298.486 408.752 298.321 408.752 298.321L408.118 301.129C408.118 301.129 402.943 301.389 400.356 300.771C399.845 300.649 399.366 300.404 399.042 300.055C398.954 299.959 398.877 299.829 398.793 299.717C398.727 299.627 398.532 299.332 398.445 299.099C397.854 297.524 398.514 294.507 399.161 292.89C399.237 292.702 399.331 292.465 399.43 292.263C399.554 292.011 399.659 291.727 399.758 291.576C399.825 291.472 399.908 291.405 399.977 291.308C400.057 291.192 400.15 291.079 400.236 290.979C400.475 290.702 400.746 290.506 401.072 290.263C402.15 289.455 404.102 288.829 406.446 289.069C407.328 289.159 408.661 289.475 409.312 290.382C409.486 290.625 409.572 291.106 409.67 291.457Z" fill="#1A1918"/>
<path fill-rule="evenodd" clip-rule="evenodd" d="M395.429 289.178L398.439 289.16C398.439 289.16 396.762 297.119 395.907 301H392.443C390.023 301 387.867 301.3 386.95 299.567C386.061 297.885 386.91 295.118 387.308 293.238C387.59 291.908 388.184 289.189 388.184 289.189L391.303 289.16C391.303 289.16 390.422 293.393 390.055 295.507C389.924 296.264 389.653 296.977 389.936 297.537C390.204 298.07 390.58 298.108 391.727 298.134C392.09 298.143 393.279 298.134 393.279 298.134L395.429 289.178Z" fill="#1A1918"/>
<path fill-rule="evenodd" clip-rule="evenodd" d="M381.339 294.91C381.654 293.79 382.114 292.576 382.055 291.566C381.992 290.487 381.087 289.504 380.503 289.298C378.744 288.677 377.097 289.545 376.443 290.253C375.596 291.17 375.31 292.241 375.01 293.716C374.787 294.811 374.604 295.967 375.01 296.821C375.729 298.33 377.97 298.001 380.384 298.015C380.742 297.055 381.038 295.977 381.339 294.91ZM385.519 290.492C385.863 292.992 384.543 295.752 383.634 298.152C384.561 298.236 385.373 298.139 385.431 298.208C385.492 298.298 384.81 301.073 384.573 301.08C383.837 301.1 381.4 301.12 380.384 301.12C377.067 301.12 373.965 301.336 372.383 299.687C371.74 299.017 371.296 297.868 371.189 297.06C371.009 295.71 371.234 294.225 371.547 293C371.83 291.894 372.193 290.85 372.741 289.895C374.135 287.462 376.559 285.657 380.623 286.073C381.411 286.155 382.543 286.5 383.25 286.909C383.299 286.938 383.47 287.074 383.509 287.098C384.464 287.706 385.335 289.157 385.519 290.492Z" fill="#1A1918"/>
<path fill-rule="evenodd" clip-rule="evenodd" d="M370.845 289.192C370.644 290.106 370.444 291.141 370.232 292.044H366.889C367.148 291.043 367.346 290.049 367.605 289.178C368.675 289.178 369.67 289.192 370.845 289.192Z" fill="#1A1918"/>
<path fill-rule="evenodd" clip-rule="evenodd" d="M366.77 292.88H369.994C369.573 295.214 368.738 298.977 368.084 301.597C367.674 303.237 367.401 304.434 366.292 305.299C366.193 305.377 366.136 305.34 366.054 305.419C365.849 305.614 364.905 305.839 364.382 305.896C363.532 305.988 362.57 305.908 361.525 305.887C361.799 304.887 362.108 303.687 362.352 302.792C364.899 303.1 364.963 300.692 365.457 298.373C365.742 297.033 366.607 293.417 366.77 292.88Z" fill="#1A1918"/>
<path fill-rule="evenodd" clip-rule="evenodd" d="M359.246 298.97L359.177 299.149C358 301.442 355.913 302.849 352.937 302.911C351.546 302.94 350.221 302.583 349.355 302.194C347.486 301.355 345.915 299.798 345.056 298.134C343.825 295.75 343.603 292.432 346.163 289.954C346.202 289.954 345.852 290.492 345.892 290.492L345.821 290.721C343.976 296.497 349.661 301.447 355.186 300.881C356.514 300.745 358.207 300.018 359.246 298.97Z" fill="#21609B"/>
<path fill-rule="evenodd" clip-rule="evenodd" d="M355.903 296.582C357.293 296.591 358.745 295.942 359.605 295.03C358.853 296.939 356.675 298.167 353.754 297.776C351.308 297.449 348.978 294.988 348.738 292.522C348.563 290.727 349.188 289.656 350.219 288.357C349.861 289.036 349.727 289.56 349.694 289.895C349.302 293.777 352.795 296.562 355.903 296.582Z" fill="#21609B"/>
<path fill-rule="evenodd" clip-rule="evenodd" d="M359.465 291.76C359.249 292.256 358.004 293.192 357.455 293.309C355.279 293.772 353.886 292.74 353.156 291.566C353.047 291.391 352.847 290.912 352.811 290.79C352.528 289.828 352.658 288.372 353.502 287.619C353.248 288.335 353.211 289.167 353.345 289.708C353.426 290.035 353.673 290.606 353.92 290.966C354.37 291.62 354.656 291.779 355.234 292.127C355.494 292.283 355.774 292.408 355.894 292.443C356.442 292.604 357.6 293.029 359.465 291.76Z" fill="#21609B"/>
</g>
<path d="M-67.0307 63.4816C-41.594 77.6266 15.0022 98.4309 37.8932 68.4887C66.5069 31.061 37.7034 23.5559 29.2448 42.2321C20.7861 60.9083 62.9969 86.2871 104.765 47.8093C138.179 17.0271 153.787 -30.4331 157.414 -50.3154" stroke="#0487FF" stroke-dasharray="6 6"/>
<path d="M544.597 443.809C519.16 429.664 462.564 408.86 439.673 438.802C411.06 476.23 439.863 483.735 448.322 465.058C456.78 446.382 414.57 421.003 372.802 459.481C339.388 490.263 323.779 537.724 320.152 557.606" stroke="#0487FF" stroke-dasharray="6 6"/>
</g>
<defs>
<filter id="filter0_dd_540_264" x="20" y="132" width="160" height="160" filterUnits="userSpaceOnUse" color-interpolation-filters="sRGB">
<feFlood flood-opacity="0" result="BackgroundImageFix"/>
<feColorMatrix in="SourceAlpha" type="matrix" values="0 0 0 0 0 0 0 0 0 0 0 0 0 0 0 0 0 0 127 0" result="hardAlpha"/>
<feMorphology radius="5" operator="erode" in="SourceAlpha" result="effect1_dropShadow_540_264"/>
<feOffset dy="20"/>
<feGaussianBlur stdDeviation="12.5"/>
<feComposite in2="hardAlpha" operator="out"/>
<feColorMatrix type="matrix" values="0 0 0 0 0 0 0 0 0 0 0 0 0 0 0 0 0 0 0.1 0"/>
<feBlend mode="normal" in2="BackgroundImageFix" result="effect1_dropShadow_540_264"/>
<feColorMatrix in="SourceAlpha" type="matrix" values="0 0 0 0 0 0 0 0 0 0 0 0 0 0 0 0 0 0 127 0" result="hardAlpha"/>
<feMorphology radius="5" operator="erode" in="SourceAlpha" result="effect2_dropShadow_540_264"/>
<feOffset dy="10"/>
<feGaussianBlur stdDeviation="5"/>
<feComposite in2="hardAlpha" operator="out"/>
<feColorMatrix type="matrix" values="0 0 0 0 0 0 0 0 0 0 0 0 0 0 0 0 0 0 0.1 0"/>
<feBlend mode="normal" in2="effect1_dropShadow_540_264" result="effect2_dropShadow_540_264"/>
<feBlend mode="normal" in="SourceGraphic" in2="effect2_dropShadow_540_264" result="shape"/>
</filter>
<filter id="filter1_dd_540_264" x="20" y="276" width="160" height="160" filterUnits="userSpaceOnUse" color-interpolation-filters="sRGB">
<feFlood flood-opacity="0" result="BackgroundImageFix"/>
<feColorMatrix in="SourceAlpha" type="matrix" values="0 0 0 0 0 0 0 0 0 0 0 0 0 0 0 0 0 0 127 0" result="hardAlpha"/>
<feMorphology radius="5" operator="erode" in="SourceAlpha" result="effect1_dropShadow_540_264"/>
<feOffset dy="20"/>
<feGaussianBlur stdDeviation="12.5"/>
<feComposite in2="hardAlpha" operator="out"/>
<feColorMatrix type="matrix" values="0 0 0 0 0 0 0 0 0 0 0 0 0 0 0 0 0 0 0.1 0"/>
<feBlend mode="normal" in2="BackgroundImageFix" result="effect1_dropShadow_540_264"/>
<feColorMatrix in="SourceAlpha" type="matrix" values="0 0 0 0 0 0 0 0 0 0 0 0 0 0 0 0 0 0 127 0" result="hardAlpha"/>
<feMorphology radius="5" operator="erode" in="SourceAlpha" result="effect2_dropShadow_540_264"/>
<feOffset dy="10"/>
<feGaussianBlur stdDeviation="5"/>
<feComposite in2="hardAlpha" operator="out"/>
<feColorMatrix type="matrix" values="0 0 0 0 0 0 0 0 0 0 0 0 0 0 0 0 0 0 0.1 0"/>
<feBlend mode="normal" in2="effect1_dropShadow_540_264" result="effect2_dropShadow_540_264"/>
<feBlend mode="normal" in="SourceGraphic" in2="effect2_dropShadow_540_264" result="shape"/>
</filter>
<filter id="filter2_dd_540_264" x="164" y="40" width="160" height="160" filterUnits="userSpaceOnUse" color-interpolation-filters="sRGB">
<feFlood flood-opacity="0" result="BackgroundImageFix"/>
<feColorMatrix in="SourceAlpha" type="matrix" values="0 0 0 0 0 0 0 0 0 0 0 0 0 0 0 0 0 0 127 0" result="hardAlpha"/>
<feMorphology radius="5" operator="erode" in="SourceAlpha" result="effect1_dropShadow_540_264"/>
<feOffset dy="20"/>
<feGaussianBlur stdDeviation="12.5"/>
<feComposite in2="hardAlpha" operator="out"/>
<feColorMatrix type="matrix" values="0 0 0 0 0 0 0 0 0 0 0 0 0 0 0 0 0 0 0.1 0"/>
<feBlend mode="normal" in2="BackgroundImageFix" result="effect1_dropShadow_540_264"/>
<feColorMatrix in="SourceAlpha" type="matrix" values="0 0 0 0 0 0 0 0 0 0 0 0 0 0 0 0 0 0 127 0" result="hardAlpha"/>
<feMorphology radius="5" operator="erode" in="SourceAlpha" result="effect2_dropShadow_540_264"/>
<feOffset dy="10"/>
<feGaussianBlur stdDeviation="5"/>
<feComposite in2="hardAlpha" operator="out"/>
<feColorMatrix type="matrix" values="0 0 0 0 0 0 0 0 0 0 0 0 0 0 0 0 0 0 0.1 0"/>
<feBlend mode="normal" in2="effect1_dropShadow_540_264" result="effect2_dropShadow_540_264"/>
<feBlend mode="normal" in="SourceGraphic" in2="effect2_dropShadow_540_264" result="shape"/>
</filter>
<filter id="filter3_dd_540_264" x="164" y="184" width="160" height="160" filterUnits="userSpaceOnUse" color-interpolation-filters="sRGB">
<feFlood flood-opacity="0" result="BackgroundImageFix"/>
<feColorMatrix in="SourceAlpha" type="matrix" values="0 0 0 0 0 0 0 0 0 0 0 0 0 0 0 0 0 0 127 0" result="hardAlpha"/>
<feMorphology radius="5" operator="erode" in="SourceAlpha" result="effect1_dropShadow_540_264"/>
<feOffset dy="20"/>
<feGaussianBlur stdDeviation="12.5"/>
<feComposite in2="hardAlpha" operator="out"/>
<feColorMatrix type="matrix" values="0 0 0 0 0 0 0 0 0 0 0 0 0 0 0 0 0 0 0.1 0"/>
<feBlend mode="normal" in2="BackgroundImageFix" result="effect1_dropShadow_540_264"/>
<feColorMatrix in="SourceAlpha" type="matrix" values="0 0 0 0 0 0 0 0 0 0 0 0 0 0 0 0 0 0 127 0" result="hardAlpha"/>
<feMorphology radius="5" operator="erode" in="SourceAlpha" result="effect2_dropShadow_540_264"/>
<feOffset dy="10"/>
<feGaussianBlur stdDeviation="5"/>
<feComposite in2="hardAlpha" operator="out"/>
<feColorMatrix type="matrix" values="0 0 0 0 0 0 0 0 0 0 0 0 0 0 0 0 0 0 0.1 0"/>
<feBlend mode="normal" in2="effect1_dropShadow_540_264" result="effect2_dropShadow_540_264"/>
<feBlend mode="normal" in="SourceGraphic" in2="effect2_dropShadow_540_264" result="shape"/>
</filter>
<filter id="filter4_dd_540_264" x="164" y="328" width="160" height="160" filterUnits="userSpaceOnUse" color-interpolation-filters="sRGB">
<feFlood flood-opacity="0" result="BackgroundImageFix"/>
<feColorMatrix in="SourceAlpha" type="matrix" values="0 0 0 0 0 0 0 0 0 0 0 0 0 0 0 0 0 0 127 0" result="hardAlpha"/>
<feMorphology radius="5" operator="erode" in="SourceAlpha" result="effect1_dropShadow_540_264"/>
<feOffset dy="20"/>
<feGaussianBlur stdDeviation="12.5"/>
<feComposite in2="hardAlpha" operator="out"/>
<feColorMatrix type="matrix" values="0 0 0 0 0 0 0 0 0 0 0 0 0 0 0 0 0 0 0.1 0"/>
<feBlend mode="normal" in2="BackgroundImageFix" result="effect1_dropShadow_540_264"/>
<feColorMatrix in="SourceAlpha" type="matrix" values="0 0 0 0 0 0 0 0 0 0 0 0 0 0 0 0 0 0 127 0" result="hardAlpha"/>
<feMorphology radius="5" operator="erode" in="SourceAlpha" result="effect2_dropShadow_540_264"/>
<feOffset dy="10"/>
<feGaussianBlur stdDeviation="5"/>
<feComposite in2="hardAlpha" operator="out"/>
<feColorMatrix type="matrix" values="0 0 0 0 0 0 0 0 0 0 0 0 0 0 0 0 0 0 0.1 0"/>
<feBlend mode="normal" in2="effect1_dropShadow_540_264" result="effect2_dropShadow_540_264"/>
<feBlend mode="normal" in="SourceGraphic" in2="effect2_dropShadow_540_264" result="shape"/>
</filter>
<filter id="filter5_dd_540_264" x="308" y="92" width="160" height="160" filterUnits="userSpaceOnUse" color-interpolation-filters="sRGB">
<feFlood flood-opacity="0" result="BackgroundImageFix"/>
<feColorMatrix in="SourceAlpha" type="matrix" values="0 0 0 0 0 0 0 0 0 0 0 0 0 0 0 0 0 0 127 0" result="hardAlpha"/>
<feMorphology radius="5" operator="erode" in="SourceAlpha" result="effect1_dropShadow_540_264"/>
<feOffset dy="20"/>
<feGaussianBlur stdDeviation="12.5"/>
<feComposite in2="hardAlpha" operator="out"/>
<feColorMatrix type="matrix" values="0 0 0 0 0 0 0 0 0 0 0 0 0 0 0 0 0 0 0.1 0"/>
<feBlend mode="normal" in2="BackgroundImageFix" result="effect1_dropShadow_540_264"/>
<feColorMatrix in="SourceAlpha" type="matrix" values="0 0 0 0 0 0 0 0 0 0 0 0 0 0 0 0 0 0 127 0" result="hardAlpha"/>
<feMorphology radius="5" operator="erode" in="SourceAlpha" result="effect2_dropShadow_540_264"/>
<feOffset dy="10"/>
<feGaussianBlur stdDeviation="5"/>
<feComposite in2="hardAlpha" operator="out"/>
<feColorMatrix type="matrix" values="0 0 0 0 0 0 0 0 0 0 0 0 0 0 0 0 0 0 0.1 0"/>
<feBlend mode="normal" in2="effect1_dropShadow_540_264" result="effect2_dropShadow_540_264"/>
<feBlend mode="normal" in="SourceGraphic" in2="effect2_dropShadow_540_264" result="shape"/>
</filter>
<filter id="filter6_dd_540_264" x="308" y="236" width="160" height="160" filterUnits="userSpaceOnUse" color-interpolation-filters="sRGB">
<feFlood flood-opacity="0" result="BackgroundImageFix"/>
<feColorMatrix in="SourceAlpha" type="matrix" values="0 0 0 0 0 0 0 0 0 0 0 0 0 0 0 0 0 0 127 0" result="hardAlpha"/>
<feMorphology radius="5" operator="erode" in="SourceAlpha" result="effect1_dropShadow_540_264"/>
<feOffset dy="20"/>
<feGaussianBlur stdDeviation="12.5"/>
<feComposite in2="hardAlpha" operator="out"/>
<feColorMatrix type="matrix" values="0 0 0 0 0 0 0 0 0 0 0 0 0 0 0 0 0 0 0.1 0"/>
<feBlend mode="normal" in2="BackgroundImageFix" result="effect1_dropShadow_540_264"/>
<feColorMatrix in="SourceAlpha" type="matrix" values="0 0 0 0 0 0 0 0 0 0 0 0 0 0 0 0 0 0 127 0" result="hardAlpha"/>
<feMorphology radius="5" operator="erode" in="SourceAlpha" result="effect2_dropShadow_540_264"/>
<feOffset dy="10"/>
<feGaussianBlur stdDeviation="5"/>
<feComposite in2="hardAlpha" operator="out"/>
<feColorMatrix type="matrix" values="0 0 0 0 0 0 0 0 0 0 0 0 0 0 0 0 0 0 0.1 0"/>
<feBlend mode="normal" in2="effect1_dropShadow_540_264" result="effect2_dropShadow_540_264"/>
<feBlend mode="normal" in="SourceGraphic" in2="effect2_dropShadow_540_264" result="shape"/>
</filter>
<clipPath id="clip0_540_264">
<rect width="488" height="488" rx="24" fill="white"/>
</clipPath>
<clipPath id="clip1_540_264">
<rect width="48" height="48" fill="white" transform="translate(76 168)"/>
</clipPath>
<clipPath id="clip2_540_264">
<rect width="40" height="40" fill="white" transform="translate(80 316)"/>
</clipPath>
<clipPath id="clip3_540_264">
<rect width="88" height="30.1714" fill="white" transform="translate(200 85)"/>
</clipPath>
<clipPath id="clip4_540_264">
<rect width="88" height="22.4204" fill="white" transform="translate(200 377)"/>
</clipPath>
<clipPath id="clip5_540_264">
<rect width="88" height="19.9375" fill="white" transform="translate(344 286)"/>
</clipPath>
</defs>
</svg>
