<svg width="1098" height="554" viewBox="0 0 1098 554" fill="none" xmlns="http://www.w3.org/2000/svg">
<mask id="path-1-inside-1_625_830" fill="white">
<path fill-rule="evenodd" clip-rule="evenodd" d="M1097.41 687.522H0.873047V0.522461H1097.41V687.522ZM2.29818 686.097H1095.99V1.94805H2.29818V686.097Z"/>
<path d="M1096.7 653.24H1.5856V651.815H1096.7V653.24Z"/>
<path d="M1096.7 618.958H1.5856V617.533H1096.7V618.958Z"/>
<path d="M1096.7 584.676H1.5856V583.25H1096.7V584.676Z"/>
<path d="M1096.7 550.394H1.5856V548.968H1096.7V550.394Z"/>
<path d="M1096.7 516.112H1.5856V514.686H1096.7V516.112Z"/>
<path d="M1096.7 481.83H1.5856V480.438H1096.7V481.83Z"/>
<path d="M1096.7 447.548H1.5856V446.156H1096.7V447.548Z"/>
<path d="M1096.7 413.299H1.5856V411.874H1096.7V413.299Z"/>
<path d="M1096.7 379.017H1.5856V377.592H1096.7V379.017Z"/>
<path d="M1096.7 344.735H1.5856V343.31H1096.7V344.735Z"/>
<path d="M1096.7 310.453H1.5856V309.028H1096.7V310.453Z"/>
<path d="M1096.7 276.171H1.5856V274.746H1096.7V276.171Z"/>
<path d="M1096.7 241.889H1.5856V240.463H1096.7V241.889Z"/>
<path d="M1096.7 207.607H1.5856V206.181H1096.7V207.607Z"/>
<path d="M1096.7 173.325H1.5856V171.899H1096.7V173.325Z"/>
<path d="M1096.7 139.042H1.5856V137.651H1096.7V139.042Z"/>
<path d="M1096.7 104.76H1.5856V103.369H1096.7V104.76Z"/>
<path d="M1096.7 70.5122H1.5856V69.0866H1096.7V70.5122Z"/>
<path d="M1096.7 36.2301H1.5856V34.8045H1096.7V36.2301Z"/>
<path d="M1064.23 686.81H1062.8V1.23523H1064.23V686.81Z"/>
<path d="M1031.04 686.81H1029.62V1.23523H1031.04V686.81Z"/>
<path d="M997.858 686.81H996.433V1.23523H997.858V686.81Z"/>
<path d="M964.673 686.81H963.248V1.23523H964.673V686.81Z"/>
<path d="M931.488 686.81H930.062V1.23523H931.488V686.81Z"/>
<path d="M898.302 686.81H896.877V1.23523H898.302V686.81Z"/>
<path d="M865.117 686.81H863.692V1.23523H865.117V686.81Z"/>
<path d="M831.932 686.81H830.506V1.23523H831.932V686.81Z"/>
<path d="M798.746 686.81H797.321V1.23523H798.746V686.81Z"/>
<path d="M765.561 686.81H764.136V1.23523H765.561V686.81Z"/>
<path d="M732.376 686.81H730.951V1.23523H732.376V686.81Z"/>
<path d="M699.19 686.81H697.765V1.23523H699.19V686.81Z"/>
<path d="M666.005 686.81H664.58V1.23523H666.005V686.81Z"/>
<path d="M632.82 686.81H631.394V1.23523H632.82V686.81Z"/>
<path d="M599.634 686.81H598.209V1.23523H599.634V686.81Z"/>
<path d="M566.449 686.81H565.024V1.23523H566.449V686.81Z"/>
<path d="M533.264 686.81H531.838V1.23523H533.264V686.81Z"/>
<path d="M500.078 686.81H498.653V1.23523H500.078V686.81Z"/>
<path d="M466.893 686.81H465.468V1.23523H466.893V686.81Z"/>
<path d="M433.708 686.81H432.282V1.23523H433.708V686.81Z"/>
<path d="M400.522 686.81H399.097V1.23523H400.522V686.81Z"/>
<path d="M367.337 686.81H365.912V1.23523H367.337V686.81Z"/>
<path d="M334.152 686.81H332.726V1.23523H334.152V686.81Z"/>
<path d="M300.966 686.81H299.541V1.23523H300.966V686.81Z"/>
<path d="M267.781 686.81H266.356V1.23523H267.781V686.81Z"/>
<path d="M234.596 686.81H233.17V1.23523H234.596V686.81Z"/>
<path d="M201.41 686.81H199.985V1.23523H201.41V686.81Z"/>
<path d="M168.225 686.81H166.8V1.23523H168.225V686.81Z"/>
<path d="M135.04 686.81H133.614V1.23523H135.04V686.81Z"/>
<path d="M101.854 686.81H100.429V1.23523H101.854V686.81Z"/>
<path d="M68.6689 686.81H67.2437V1.23523H68.6689V686.81Z"/>
<path d="M35.4835 686.81H34.0584V1.23523H35.4835V686.81Z"/>
</mask>
<path fill-rule="evenodd" clip-rule="evenodd" d="M1097.41 687.522H0.873047V0.522461H1097.41V687.522ZM2.29818 686.097H1095.99V1.94805H2.29818V686.097Z" stroke="url(#paint0_radial_625_830)" stroke-width="2.43597" mask="url(#path-1-inside-1_625_830)"/>
<path d="M1096.7 653.24H1.5856V651.815H1096.7V653.24Z" stroke="url(#paint1_radial_625_830)" stroke-width="2.43597" mask="url(#path-1-inside-1_625_830)"/>
<path d="M1096.7 618.958H1.5856V617.533H1096.7V618.958Z" stroke="url(#paint2_radial_625_830)" stroke-width="2.43597" mask="url(#path-1-inside-1_625_830)"/>
<path d="M1096.7 584.676H1.5856V583.25H1096.7V584.676Z" stroke="url(#paint3_radial_625_830)" stroke-width="2.43597" mask="url(#path-1-inside-1_625_830)"/>
<path d="M1096.7 550.394H1.5856V548.968H1096.7V550.394Z" stroke="url(#paint4_radial_625_830)" stroke-width="2.43597" mask="url(#path-1-inside-1_625_830)"/>
<path d="M1096.7 516.112H1.5856V514.686H1096.7V516.112Z" stroke="url(#paint5_radial_625_830)" stroke-width="2.43597" mask="url(#path-1-inside-1_625_830)"/>
<path d="M1096.7 481.83H1.5856V480.438H1096.7V481.83Z" stroke="url(#paint6_radial_625_830)" stroke-width="2.43597" mask="url(#path-1-inside-1_625_830)"/>
<path d="M1096.7 447.548H1.5856V446.156H1096.7V447.548Z" stroke="url(#paint7_radial_625_830)" stroke-width="2.43597" mask="url(#path-1-inside-1_625_830)"/>
<path d="M1096.7 413.299H1.5856V411.874H1096.7V413.299Z" stroke="url(#paint8_radial_625_830)" stroke-width="2.43597" mask="url(#path-1-inside-1_625_830)"/>
<path d="M1096.7 379.017H1.5856V377.592H1096.7V379.017Z" stroke="url(#paint9_radial_625_830)" stroke-width="2.43597" mask="url(#path-1-inside-1_625_830)"/>
<path d="M1096.7 344.735H1.5856V343.31H1096.7V344.735Z" stroke="url(#paint10_radial_625_830)" stroke-width="2.43597" mask="url(#path-1-inside-1_625_830)"/>
<path d="M1096.7 310.453H1.5856V309.028H1096.7V310.453Z" stroke="url(#paint11_radial_625_830)" stroke-width="2.43597" mask="url(#path-1-inside-1_625_830)"/>
<path d="M1096.7 276.171H1.5856V274.746H1096.7V276.171Z" stroke="url(#paint12_radial_625_830)" stroke-width="2.43597" mask="url(#path-1-inside-1_625_830)"/>
<path d="M1096.7 241.889H1.5856V240.463H1096.7V241.889Z" stroke="url(#paint13_radial_625_830)" stroke-width="2.43597" mask="url(#path-1-inside-1_625_830)"/>
<path d="M1096.7 207.607H1.5856V206.181H1096.7V207.607Z" stroke="url(#paint14_radial_625_830)" stroke-width="2.43597" mask="url(#path-1-inside-1_625_830)"/>
<path d="M1096.7 173.325H1.5856V171.899H1096.7V173.325Z" stroke="url(#paint15_radial_625_830)" stroke-width="2.43597" mask="url(#path-1-inside-1_625_830)"/>
<path d="M1096.7 139.042H1.5856V137.651H1096.7V139.042Z" stroke="url(#paint16_radial_625_830)" stroke-width="2.43597" mask="url(#path-1-inside-1_625_830)"/>
<path d="M1096.7 104.76H1.5856V103.369H1096.7V104.76Z" stroke="url(#paint17_radial_625_830)" stroke-width="2.43597" mask="url(#path-1-inside-1_625_830)"/>
<path d="M1096.7 70.5122H1.5856V69.0866H1096.7V70.5122Z" stroke="url(#paint18_radial_625_830)" stroke-width="2.43597" mask="url(#path-1-inside-1_625_830)"/>
<path d="M1096.7 36.2301H1.5856V34.8045H1096.7V36.2301Z" stroke="url(#paint19_radial_625_830)" stroke-width="2.43597" mask="url(#path-1-inside-1_625_830)"/>
<path d="M1064.23 686.81H1062.8V1.23523H1064.23V686.81Z" stroke="url(#paint20_radial_625_830)" stroke-width="2.43597" mask="url(#path-1-inside-1_625_830)"/>
<path d="M1031.04 686.81H1029.62V1.23523H1031.04V686.81Z" stroke="url(#paint21_radial_625_830)" stroke-width="2.43597" mask="url(#path-1-inside-1_625_830)"/>
<path d="M997.858 686.81H996.433V1.23523H997.858V686.81Z" stroke="url(#paint22_radial_625_830)" stroke-width="2.43597" mask="url(#path-1-inside-1_625_830)"/>
<path d="M964.673 686.81H963.248V1.23523H964.673V686.81Z" stroke="url(#paint23_radial_625_830)" stroke-width="2.43597" mask="url(#path-1-inside-1_625_830)"/>
<path d="M931.488 686.81H930.062V1.23523H931.488V686.81Z" stroke="url(#paint24_radial_625_830)" stroke-width="2.43597" mask="url(#path-1-inside-1_625_830)"/>
<path d="M898.302 686.81H896.877V1.23523H898.302V686.81Z" stroke="url(#paint25_radial_625_830)" stroke-width="2.43597" mask="url(#path-1-inside-1_625_830)"/>
<path d="M865.117 686.81H863.692V1.23523H865.117V686.81Z" stroke="url(#paint26_radial_625_830)" stroke-width="2.43597" mask="url(#path-1-inside-1_625_830)"/>
<path d="M831.932 686.81H830.506V1.23523H831.932V686.81Z" stroke="url(#paint27_radial_625_830)" stroke-width="2.43597" mask="url(#path-1-inside-1_625_830)"/>
<path d="M798.746 686.81H797.321V1.23523H798.746V686.81Z" stroke="url(#paint28_radial_625_830)" stroke-width="2.43597" mask="url(#path-1-inside-1_625_830)"/>
<path d="M765.561 686.81H764.136V1.23523H765.561V686.81Z" stroke="url(#paint29_radial_625_830)" stroke-width="2.43597" mask="url(#path-1-inside-1_625_830)"/>
<path d="M732.376 686.81H730.951V1.23523H732.376V686.81Z" stroke="url(#paint30_radial_625_830)" stroke-width="2.43597" mask="url(#path-1-inside-1_625_830)"/>
<path d="M699.19 686.81H697.765V1.23523H699.19V686.81Z" stroke="url(#paint31_radial_625_830)" stroke-width="2.43597" mask="url(#path-1-inside-1_625_830)"/>
<path d="M666.005 686.81H664.58V1.23523H666.005V686.81Z" stroke="url(#paint32_radial_625_830)" stroke-width="2.43597" mask="url(#path-1-inside-1_625_830)"/>
<path d="M632.82 686.81H631.394V1.23523H632.82V686.81Z" stroke="url(#paint33_radial_625_830)" stroke-width="2.43597" mask="url(#path-1-inside-1_625_830)"/>
<path d="M599.634 686.81H598.209V1.23523H599.634V686.81Z" stroke="url(#paint34_radial_625_830)" stroke-width="2.43597" mask="url(#path-1-inside-1_625_830)"/>
<path d="M566.449 686.81H565.024V1.23523H566.449V686.81Z" stroke="url(#paint35_radial_625_830)" stroke-width="2.43597" mask="url(#path-1-inside-1_625_830)"/>
<path d="M533.264 686.81H531.838V1.23523H533.264V686.81Z" stroke="url(#paint36_radial_625_830)" stroke-width="2.43597" mask="url(#path-1-inside-1_625_830)"/>
<path d="M500.078 686.81H498.653V1.23523H500.078V686.81Z" stroke="url(#paint37_radial_625_830)" stroke-width="2.43597" mask="url(#path-1-inside-1_625_830)"/>
<path d="M466.893 686.81H465.468V1.23523H466.893V686.81Z" stroke="url(#paint38_radial_625_830)" stroke-width="2.43597" mask="url(#path-1-inside-1_625_830)"/>
<path d="M433.708 686.81H432.282V1.23523H433.708V686.81Z" stroke="url(#paint39_radial_625_830)" stroke-width="2.43597" mask="url(#path-1-inside-1_625_830)"/>
<path d="M400.522 686.81H399.097V1.23523H400.522V686.81Z" stroke="url(#paint40_radial_625_830)" stroke-width="2.43597" mask="url(#path-1-inside-1_625_830)"/>
<path d="M367.337 686.81H365.912V1.23523H367.337V686.81Z" stroke="url(#paint41_radial_625_830)" stroke-width="2.43597" mask="url(#path-1-inside-1_625_830)"/>
<path d="M334.152 686.81H332.726V1.23523H334.152V686.81Z" stroke="url(#paint42_radial_625_830)" stroke-width="2.43597" mask="url(#path-1-inside-1_625_830)"/>
<path d="M300.966 686.81H299.541V1.23523H300.966V686.81Z" stroke="url(#paint43_radial_625_830)" stroke-width="2.43597" mask="url(#path-1-inside-1_625_830)"/>
<path d="M267.781 686.81H266.356V1.23523H267.781V686.81Z" stroke="url(#paint44_radial_625_830)" stroke-width="2.43597" mask="url(#path-1-inside-1_625_830)"/>
<path d="M234.596 686.81H233.17V1.23523H234.596V686.81Z" stroke="url(#paint45_radial_625_830)" stroke-width="2.43597" mask="url(#path-1-inside-1_625_830)"/>
<path d="M201.41 686.81H199.985V1.23523H201.41V686.81Z" stroke="url(#paint46_radial_625_830)" stroke-width="2.43597" mask="url(#path-1-inside-1_625_830)"/>
<path d="M168.225 686.81H166.8V1.23523H168.225V686.81Z" stroke="url(#paint47_radial_625_830)" stroke-width="2.43597" mask="url(#path-1-inside-1_625_830)"/>
<path d="M135.04 686.81H133.614V1.23523H135.04V686.81Z" stroke="url(#paint48_radial_625_830)" stroke-width="2.43597" mask="url(#path-1-inside-1_625_830)"/>
<path d="M101.854 686.81H100.429V1.23523H101.854V686.81Z" stroke="url(#paint49_radial_625_830)" stroke-width="2.43597" mask="url(#path-1-inside-1_625_830)"/>
<path d="M68.6689 686.81H67.2437V1.23523H68.6689V686.81Z" stroke="url(#paint50_radial_625_830)" stroke-width="2.43597" mask="url(#path-1-inside-1_625_830)"/>
<path d="M35.4835 686.81H34.0584V1.23523H35.4835V686.81Z" stroke="url(#paint51_radial_625_830)" stroke-width="2.43597" mask="url(#path-1-inside-1_625_830)"/>
<defs>
<radialGradient id="paint0_radial_625_830" cx="0" cy="0" r="1" gradientUnits="userSpaceOnUse" gradientTransform="translate(548.968 352.521) rotate(-90) scale(462.226 518.937)">
<stop stop-color="white" stop-opacity="0.16"/>
<stop offset="1" stop-color="white" stop-opacity="0"/>
</radialGradient>
<radialGradient id="paint1_radial_625_830" cx="0" cy="0" r="1" gradientUnits="userSpaceOnUse" gradientTransform="translate(548.968 352.521) rotate(-90) scale(462.226 518.937)">
<stop stop-color="white" stop-opacity="0.16"/>
<stop offset="1" stop-color="white" stop-opacity="0"/>
</radialGradient>
<radialGradient id="paint2_radial_625_830" cx="0" cy="0" r="1" gradientUnits="userSpaceOnUse" gradientTransform="translate(548.968 352.521) rotate(-90) scale(462.226 518.937)">
<stop stop-color="white" stop-opacity="0.16"/>
<stop offset="1" stop-color="white" stop-opacity="0"/>
</radialGradient>
<radialGradient id="paint3_radial_625_830" cx="0" cy="0" r="1" gradientUnits="userSpaceOnUse" gradientTransform="translate(548.968 352.521) rotate(-90) scale(462.226 518.937)">
<stop stop-color="white" stop-opacity="0.16"/>
<stop offset="1" stop-color="white" stop-opacity="0"/>
</radialGradient>
<radialGradient id="paint4_radial_625_830" cx="0" cy="0" r="1" gradientUnits="userSpaceOnUse" gradientTransform="translate(548.968 352.521) rotate(-90) scale(462.226 518.937)">
<stop stop-color="white" stop-opacity="0.16"/>
<stop offset="1" stop-color="white" stop-opacity="0"/>
</radialGradient>
<radialGradient id="paint5_radial_625_830" cx="0" cy="0" r="1" gradientUnits="userSpaceOnUse" gradientTransform="translate(548.968 352.521) rotate(-90) scale(462.226 518.937)">
<stop stop-color="white" stop-opacity="0.16"/>
<stop offset="1" stop-color="white" stop-opacity="0"/>
</radialGradient>
<radialGradient id="paint6_radial_625_830" cx="0" cy="0" r="1" gradientUnits="userSpaceOnUse" gradientTransform="translate(548.968 352.521) rotate(-90) scale(462.226 518.937)">
<stop stop-color="white" stop-opacity="0.16"/>
<stop offset="1" stop-color="white" stop-opacity="0"/>
</radialGradient>
<radialGradient id="paint7_radial_625_830" cx="0" cy="0" r="1" gradientUnits="userSpaceOnUse" gradientTransform="translate(548.968 352.521) rotate(-90) scale(462.226 518.937)">
<stop stop-color="white" stop-opacity="0.16"/>
<stop offset="1" stop-color="white" stop-opacity="0"/>
</radialGradient>
<radialGradient id="paint8_radial_625_830" cx="0" cy="0" r="1" gradientUnits="userSpaceOnUse" gradientTransform="translate(548.968 352.521) rotate(-90) scale(462.226 518.937)">
<stop stop-color="white" stop-opacity="0.16"/>
<stop offset="1" stop-color="white" stop-opacity="0"/>
</radialGradient>
<radialGradient id="paint9_radial_625_830" cx="0" cy="0" r="1" gradientUnits="userSpaceOnUse" gradientTransform="translate(548.968 352.521) rotate(-90) scale(462.226 518.937)">
<stop stop-color="white" stop-opacity="0.16"/>
<stop offset="1" stop-color="white" stop-opacity="0"/>
</radialGradient>
<radialGradient id="paint10_radial_625_830" cx="0" cy="0" r="1" gradientUnits="userSpaceOnUse" gradientTransform="translate(548.968 352.521) rotate(-90) scale(462.226 518.937)">
<stop stop-color="white" stop-opacity="0.16"/>
<stop offset="1" stop-color="white" stop-opacity="0"/>
</radialGradient>
<radialGradient id="paint11_radial_625_830" cx="0" cy="0" r="1" gradientUnits="userSpaceOnUse" gradientTransform="translate(548.968 352.521) rotate(-90) scale(462.226 518.937)">
<stop stop-color="white" stop-opacity="0.16"/>
<stop offset="1" stop-color="white" stop-opacity="0"/>
</radialGradient>
<radialGradient id="paint12_radial_625_830" cx="0" cy="0" r="1" gradientUnits="userSpaceOnUse" gradientTransform="translate(548.968 352.521) rotate(-90) scale(462.226 518.937)">
<stop stop-color="white" stop-opacity="0.16"/>
<stop offset="1" stop-color="white" stop-opacity="0"/>
</radialGradient>
<radialGradient id="paint13_radial_625_830" cx="0" cy="0" r="1" gradientUnits="userSpaceOnUse" gradientTransform="translate(548.968 352.521) rotate(-90) scale(462.226 518.937)">
<stop stop-color="white" stop-opacity="0.16"/>
<stop offset="1" stop-color="white" stop-opacity="0"/>
</radialGradient>
<radialGradient id="paint14_radial_625_830" cx="0" cy="0" r="1" gradientUnits="userSpaceOnUse" gradientTransform="translate(548.968 352.521) rotate(-90) scale(462.226 518.937)">
<stop stop-color="white" stop-opacity="0.16"/>
<stop offset="1" stop-color="white" stop-opacity="0"/>
</radialGradient>
<radialGradient id="paint15_radial_625_830" cx="0" cy="0" r="1" gradientUnits="userSpaceOnUse" gradientTransform="translate(548.968 352.521) rotate(-90) scale(462.226 518.937)">
<stop stop-color="white" stop-opacity="0.16"/>
<stop offset="1" stop-color="white" stop-opacity="0"/>
</radialGradient>
<radialGradient id="paint16_radial_625_830" cx="0" cy="0" r="1" gradientUnits="userSpaceOnUse" gradientTransform="translate(548.968 352.521) rotate(-90) scale(462.226 518.937)">
<stop stop-color="white" stop-opacity="0.16"/>
<stop offset="1" stop-color="white" stop-opacity="0"/>
</radialGradient>
<radialGradient id="paint17_radial_625_830" cx="0" cy="0" r="1" gradientUnits="userSpaceOnUse" gradientTransform="translate(548.968 352.521) rotate(-90) scale(462.226 518.937)">
<stop stop-color="white" stop-opacity="0.16"/>
<stop offset="1" stop-color="white" stop-opacity="0"/>
</radialGradient>
<radialGradient id="paint18_radial_625_830" cx="0" cy="0" r="1" gradientUnits="userSpaceOnUse" gradientTransform="translate(548.968 352.521) rotate(-90) scale(462.226 518.937)">
<stop stop-color="white" stop-opacity="0.16"/>
<stop offset="1" stop-color="white" stop-opacity="0"/>
</radialGradient>
<radialGradient id="paint19_radial_625_830" cx="0" cy="0" r="1" gradientUnits="userSpaceOnUse" gradientTransform="translate(548.968 352.521) rotate(-90) scale(462.226 518.937)">
<stop stop-color="white" stop-opacity="0.16"/>
<stop offset="1" stop-color="white" stop-opacity="0"/>
</radialGradient>
<radialGradient id="paint20_radial_625_830" cx="0" cy="0" r="1" gradientUnits="userSpaceOnUse" gradientTransform="translate(548.968 352.521) rotate(-90) scale(462.226 518.937)">
<stop stop-color="white" stop-opacity="0.16"/>
<stop offset="1" stop-color="white" stop-opacity="0"/>
</radialGradient>
<radialGradient id="paint21_radial_625_830" cx="0" cy="0" r="1" gradientUnits="userSpaceOnUse" gradientTransform="translate(548.968 352.521) rotate(-90) scale(462.226 518.937)">
<stop stop-color="white" stop-opacity="0.16"/>
<stop offset="1" stop-color="white" stop-opacity="0"/>
</radialGradient>
<radialGradient id="paint22_radial_625_830" cx="0" cy="0" r="1" gradientUnits="userSpaceOnUse" gradientTransform="translate(548.968 352.521) rotate(-90) scale(462.226 518.937)">
<stop stop-color="white" stop-opacity="0.16"/>
<stop offset="1" stop-color="white" stop-opacity="0"/>
</radialGradient>
<radialGradient id="paint23_radial_625_830" cx="0" cy="0" r="1" gradientUnits="userSpaceOnUse" gradientTransform="translate(548.968 352.521) rotate(-90) scale(462.226 518.937)">
<stop stop-color="white" stop-opacity="0.16"/>
<stop offset="1" stop-color="white" stop-opacity="0"/>
</radialGradient>
<radialGradient id="paint24_radial_625_830" cx="0" cy="0" r="1" gradientUnits="userSpaceOnUse" gradientTransform="translate(548.968 352.521) rotate(-90) scale(462.226 518.937)">
<stop stop-color="white" stop-opacity="0.16"/>
<stop offset="1" stop-color="white" stop-opacity="0"/>
</radialGradient>
<radialGradient id="paint25_radial_625_830" cx="0" cy="0" r="1" gradientUnits="userSpaceOnUse" gradientTransform="translate(548.968 352.521) rotate(-90) scale(462.226 518.937)">
<stop stop-color="white" stop-opacity="0.16"/>
<stop offset="1" stop-color="white" stop-opacity="0"/>
</radialGradient>
<radialGradient id="paint26_radial_625_830" cx="0" cy="0" r="1" gradientUnits="userSpaceOnUse" gradientTransform="translate(548.968 352.521) rotate(-90) scale(462.226 518.937)">
<stop stop-color="white" stop-opacity="0.16"/>
<stop offset="1" stop-color="white" stop-opacity="0"/>
</radialGradient>
<radialGradient id="paint27_radial_625_830" cx="0" cy="0" r="1" gradientUnits="userSpaceOnUse" gradientTransform="translate(548.968 352.521) rotate(-90) scale(462.226 518.937)">
<stop stop-color="white" stop-opacity="0.16"/>
<stop offset="1" stop-color="white" stop-opacity="0"/>
</radialGradient>
<radialGradient id="paint28_radial_625_830" cx="0" cy="0" r="1" gradientUnits="userSpaceOnUse" gradientTransform="translate(548.968 352.521) rotate(-90) scale(462.226 518.937)">
<stop stop-color="white" stop-opacity="0.16"/>
<stop offset="1" stop-color="white" stop-opacity="0"/>
</radialGradient>
<radialGradient id="paint29_radial_625_830" cx="0" cy="0" r="1" gradientUnits="userSpaceOnUse" gradientTransform="translate(548.968 352.521) rotate(-90) scale(462.226 518.937)">
<stop stop-color="white" stop-opacity="0.16"/>
<stop offset="1" stop-color="white" stop-opacity="0"/>
</radialGradient>
<radialGradient id="paint30_radial_625_830" cx="0" cy="0" r="1" gradientUnits="userSpaceOnUse" gradientTransform="translate(548.968 352.521) rotate(-90) scale(462.226 518.937)">
<stop stop-color="white" stop-opacity="0.16"/>
<stop offset="1" stop-color="white" stop-opacity="0"/>
</radialGradient>
<radialGradient id="paint31_radial_625_830" cx="0" cy="0" r="1" gradientUnits="userSpaceOnUse" gradientTransform="translate(548.968 352.521) rotate(-90) scale(462.226 518.937)">
<stop stop-color="white" stop-opacity="0.16"/>
<stop offset="1" stop-color="white" stop-opacity="0"/>
</radialGradient>
<radialGradient id="paint32_radial_625_830" cx="0" cy="0" r="1" gradientUnits="userSpaceOnUse" gradientTransform="translate(548.968 352.521) rotate(-90) scale(462.226 518.937)">
<stop stop-color="white" stop-opacity="0.16"/>
<stop offset="1" stop-color="white" stop-opacity="0"/>
</radialGradient>
<radialGradient id="paint33_radial_625_830" cx="0" cy="0" r="1" gradientUnits="userSpaceOnUse" gradientTransform="translate(548.968 352.521) rotate(-90) scale(462.226 518.937)">
<stop stop-color="white" stop-opacity="0.16"/>
<stop offset="1" stop-color="white" stop-opacity="0"/>
</radialGradient>
<radialGradient id="paint34_radial_625_830" cx="0" cy="0" r="1" gradientUnits="userSpaceOnUse" gradientTransform="translate(548.968 352.521) rotate(-90) scale(462.226 518.937)">
<stop stop-color="white" stop-opacity="0.16"/>
<stop offset="1" stop-color="white" stop-opacity="0"/>
</radialGradient>
<radialGradient id="paint35_radial_625_830" cx="0" cy="0" r="1" gradientUnits="userSpaceOnUse" gradientTransform="translate(548.968 352.521) rotate(-90) scale(462.226 518.937)">
<stop stop-color="white" stop-opacity="0.16"/>
<stop offset="1" stop-color="white" stop-opacity="0"/>
</radialGradient>
<radialGradient id="paint36_radial_625_830" cx="0" cy="0" r="1" gradientUnits="userSpaceOnUse" gradientTransform="translate(548.968 352.521) rotate(-90) scale(462.226 518.937)">
<stop stop-color="white" stop-opacity="0.16"/>
<stop offset="1" stop-color="white" stop-opacity="0"/>
</radialGradient>
<radialGradient id="paint37_radial_625_830" cx="0" cy="0" r="1" gradientUnits="userSpaceOnUse" gradientTransform="translate(548.968 352.521) rotate(-90) scale(462.226 518.937)">
<stop stop-color="white" stop-opacity="0.16"/>
<stop offset="1" stop-color="white" stop-opacity="0"/>
</radialGradient>
<radialGradient id="paint38_radial_625_830" cx="0" cy="0" r="1" gradientUnits="userSpaceOnUse" gradientTransform="translate(548.968 352.521) rotate(-90) scale(462.226 518.937)">
<stop stop-color="white" stop-opacity="0.16"/>
<stop offset="1" stop-color="white" stop-opacity="0"/>
</radialGradient>
<radialGradient id="paint39_radial_625_830" cx="0" cy="0" r="1" gradientUnits="userSpaceOnUse" gradientTransform="translate(548.968 352.521) rotate(-90) scale(462.226 518.937)">
<stop stop-color="white" stop-opacity="0.16"/>
<stop offset="1" stop-color="white" stop-opacity="0"/>
</radialGradient>
<radialGradient id="paint40_radial_625_830" cx="0" cy="0" r="1" gradientUnits="userSpaceOnUse" gradientTransform="translate(548.968 352.521) rotate(-90) scale(462.226 518.937)">
<stop stop-color="white" stop-opacity="0.16"/>
<stop offset="1" stop-color="white" stop-opacity="0"/>
</radialGradient>
<radialGradient id="paint41_radial_625_830" cx="0" cy="0" r="1" gradientUnits="userSpaceOnUse" gradientTransform="translate(548.968 352.521) rotate(-90) scale(462.226 518.937)">
<stop stop-color="white" stop-opacity="0.16"/>
<stop offset="1" stop-color="white" stop-opacity="0"/>
</radialGradient>
<radialGradient id="paint42_radial_625_830" cx="0" cy="0" r="1" gradientUnits="userSpaceOnUse" gradientTransform="translate(548.968 352.521) rotate(-90) scale(462.226 518.937)">
<stop stop-color="white" stop-opacity="0.16"/>
<stop offset="1" stop-color="white" stop-opacity="0"/>
</radialGradient>
<radialGradient id="paint43_radial_625_830" cx="0" cy="0" r="1" gradientUnits="userSpaceOnUse" gradientTransform="translate(548.968 352.521) rotate(-90) scale(462.226 518.937)">
<stop stop-color="white" stop-opacity="0.16"/>
<stop offset="1" stop-color="white" stop-opacity="0"/>
</radialGradient>
<radialGradient id="paint44_radial_625_830" cx="0" cy="0" r="1" gradientUnits="userSpaceOnUse" gradientTransform="translate(548.968 352.521) rotate(-90) scale(462.226 518.937)">
<stop stop-color="white" stop-opacity="0.16"/>
<stop offset="1" stop-color="white" stop-opacity="0"/>
</radialGradient>
<radialGradient id="paint45_radial_625_830" cx="0" cy="0" r="1" gradientUnits="userSpaceOnUse" gradientTransform="translate(548.968 352.521) rotate(-90) scale(462.226 518.937)">
<stop stop-color="white" stop-opacity="0.16"/>
<stop offset="1" stop-color="white" stop-opacity="0"/>
</radialGradient>
<radialGradient id="paint46_radial_625_830" cx="0" cy="0" r="1" gradientUnits="userSpaceOnUse" gradientTransform="translate(548.968 352.521) rotate(-90) scale(462.226 518.937)">
<stop stop-color="white" stop-opacity="0.16"/>
<stop offset="1" stop-color="white" stop-opacity="0"/>
</radialGradient>
<radialGradient id="paint47_radial_625_830" cx="0" cy="0" r="1" gradientUnits="userSpaceOnUse" gradientTransform="translate(548.968 352.521) rotate(-90) scale(462.226 518.937)">
<stop stop-color="white" stop-opacity="0.16"/>
<stop offset="1" stop-color="white" stop-opacity="0"/>
</radialGradient>
<radialGradient id="paint48_radial_625_830" cx="0" cy="0" r="1" gradientUnits="userSpaceOnUse" gradientTransform="translate(548.968 352.521) rotate(-90) scale(462.226 518.937)">
<stop stop-color="white" stop-opacity="0.16"/>
<stop offset="1" stop-color="white" stop-opacity="0"/>
</radialGradient>
<radialGradient id="paint49_radial_625_830" cx="0" cy="0" r="1" gradientUnits="userSpaceOnUse" gradientTransform="translate(548.968 352.521) rotate(-90) scale(462.226 518.937)">
<stop stop-color="white" stop-opacity="0.16"/>
<stop offset="1" stop-color="white" stop-opacity="0"/>
</radialGradient>
<radialGradient id="paint50_radial_625_830" cx="0" cy="0" r="1" gradientUnits="userSpaceOnUse" gradientTransform="translate(548.968 352.521) rotate(-90) scale(462.226 518.937)">
<stop stop-color="white" stop-opacity="0.16"/>
<stop offset="1" stop-color="white" stop-opacity="0"/>
</radialGradient>
<radialGradient id="paint51_radial_625_830" cx="0" cy="0" r="1" gradientUnits="userSpaceOnUse" gradientTransform="translate(548.968 352.521) rotate(-90) scale(462.226 518.937)">
<stop stop-color="white" stop-opacity="0.16"/>
<stop offset="1" stop-color="white" stop-opacity="0"/>
</radialGradient>
</defs>
</svg>
