<svg width="488" height="488" viewBox="0 0 488 488" fill="none" xmlns="http://www.w3.org/2000/svg">
<g clip-path="url(#clip0_540_785)">
<rect width="488" height="488" rx="24" fill="#E6F3FF"/>
<g filter="url(#filter0_dd_540_785)">
<rect x="40" y="92" width="120" height="120" rx="12" fill="white"/>
</g>
<g clip-path="url(#clip1_540_785)">
<mask id="mask0_540_785" style="mask-type:luminance" maskUnits="userSpaceOnUse" x="56" y="136" width="26" height="33">
<path d="M81.7842 151.103L73.1894 159.7L81.7842 168.298H71.9629L68.2773 164.613L63.3651 159.7L71.9629 151.103H81.7842ZM71.9629 136.369L56 152.332L60.9121 157.244L81.7842 136.369C81.7842 136.369 71.9629 136.369 71.9629 136.369Z" fill="white"/>
</mask>
<g mask="url(#mask0_540_785)">
<path d="M68.2782 164.613L81.7851 151.103H71.9638L63.3691 159.7L68.2782 164.613Z" fill="#39CEFD"/>
</g>
<mask id="mask1_540_785" style="mask-type:luminance" maskUnits="userSpaceOnUse" x="56" y="136" width="26" height="33">
<path d="M81.7842 151.103L73.1894 159.7L81.7842 168.298H71.9629L68.2773 164.613L63.3651 159.7L71.9629 151.103H81.7842ZM71.9629 136.369L56 152.332L60.9121 157.244L81.7842 136.369C81.7842 136.369 71.9629 136.369 71.9629 136.369Z" fill="white"/>
</mask>
<g mask="url(#mask1_540_785)">
<path d="M56 152.332L71.9629 136.369H81.7842L60.9121 157.244L56 152.332Z" fill="#39CEFD"/>
</g>
<mask id="mask2_540_785" style="mask-type:luminance" maskUnits="userSpaceOnUse" x="56" y="136" width="26" height="33">
<path d="M81.7842 151.103L73.1894 159.7L81.7842 168.298H71.9629L68.2773 164.613L63.3651 159.7L71.9629 151.103H81.7842ZM71.9629 136.369L56 152.332L60.9121 157.244L81.7842 136.369C81.7842 136.369 71.9629 136.369 71.9629 136.369Z" fill="white"/>
</mask>
<g mask="url(#mask2_540_785)">
<path d="M71.963 168.295H81.7842L73.1895 159.701L68.2773 164.613L71.963 168.295Z" fill="#03569B"/>
</g>
<mask id="mask3_540_785" style="mask-type:luminance" maskUnits="userSpaceOnUse" x="56" y="136" width="26" height="33">
<path d="M81.7842 151.103L73.1894 159.7L81.7842 168.298H71.9629L68.2773 164.613L63.3651 159.7L71.9629 151.103H81.7842ZM71.9629 136.369L56 152.332L60.9121 157.244L81.7842 136.369C81.7842 136.369 71.9629 136.369 71.9629 136.369Z" fill="white"/>
</mask>
<g mask="url(#mask3_540_785)">
<path d="M73.1895 159.701L68.2773 164.613L75.5626 162.089L73.1895 159.701Z" fill="url(#paint0_linear_540_785)"/>
</g>
<mask id="mask4_540_785" style="mask-type:luminance" maskUnits="userSpaceOnUse" x="56" y="136" width="26" height="33">
<path d="M81.7842 151.103L73.1894 159.7L81.7842 168.298H71.9629L68.2773 164.613L63.3651 159.7L71.9629 151.103H81.7842ZM71.9629 136.369L56 152.332L60.9121 157.244L81.7842 136.369C81.7842 136.369 71.9629 136.369 71.9629 136.369Z" fill="white"/>
</mask>
<g mask="url(#mask4_540_785)">
<path d="M63.3672 159.698L68.2793 154.786L73.1915 159.698L68.2793 164.613L63.3672 159.698Z" fill="#16B9FD"/>
</g>
<path d="M81.7842 151.103L73.1894 159.7L81.7842 168.298H71.9629L68.2773 164.613L63.3651 159.7L71.9629 151.103H81.7842ZM71.9629 136.369L56 152.332L60.9121 157.244L81.7842 136.369H71.9629Z" fill="url(#paint1_radial_540_785)"/>
<path d="M84.8945 144.927H93.5026V146.567H86.6988V151.649H92.847V153.289H86.6988V159.683H84.9772V144.927H84.8945Z" fill="#808080"/>
<path d="M95.5527 144.927H97.2743V159.765H95.5527V144.927Z" fill="#808080"/>
<path d="M103.749 160.093C102.437 160.093 101.535 159.683 100.798 158.945C100.142 158.207 99.8145 157.142 99.8145 155.829V149.189H101.536V155.583C101.536 156.567 101.782 157.305 102.192 157.797C102.684 158.289 103.258 158.535 104.077 158.535C104.651 158.535 105.224 158.371 105.634 158.043C106.126 157.715 106.454 157.305 106.7 156.814C106.946 156.322 107.109 155.748 107.109 155.174V149.189H108.831V159.765H107.191V158.208H107.109C106.782 158.7 106.371 159.191 105.716 159.52C105.143 159.929 104.487 160.093 103.749 160.093Z" fill="#808080"/>
<path d="M115.719 159.929C115.309 159.929 114.899 159.847 114.489 159.683C114.161 159.519 113.834 159.355 113.587 159.109C113.341 158.863 113.095 158.535 112.932 158.208C112.768 157.88 112.686 157.469 112.686 156.978V150.748H110.801V149.191H112.686V146.24H114.407V149.191H116.949V150.748H114.407V156.487C114.407 157.061 114.489 157.47 114.735 157.799C114.981 158.127 115.391 158.291 115.883 158.291C116.292 158.291 116.703 158.209 117.031 157.963V159.685C116.785 159.767 116.621 159.849 116.375 159.931C116.374 159.929 116.046 159.929 115.719 159.929Z" fill="#808080"/>
<path d="M123.179 159.929C122.77 159.929 122.359 159.847 121.95 159.683C121.622 159.519 121.294 159.355 121.048 159.109C120.802 158.863 120.556 158.535 120.392 158.208C120.227 157.88 120.145 157.469 120.145 156.978V150.748H118.424V149.191H120.309V146.24H122.03V149.191H124.572V150.748H122.03V156.487C122.03 157.061 122.112 157.47 122.358 157.799C122.604 158.127 123.014 158.291 123.506 158.291C123.916 158.291 124.326 158.209 124.654 157.963V159.685C124.408 159.767 124.244 159.849 123.998 159.931C123.835 159.929 123.507 159.929 123.179 159.929Z" fill="#808080"/>
<path d="M130.966 160.093C129.983 160.093 129.081 159.847 128.261 159.354C127.441 158.862 126.868 158.207 126.376 157.387C125.967 156.567 125.721 155.583 125.721 154.517C125.721 153.534 125.967 152.55 126.376 151.73C126.786 150.91 127.442 150.172 128.18 149.68C128.917 149.188 129.82 148.942 130.885 148.942C131.95 148.942 132.852 149.188 133.59 149.68C134.328 150.172 134.902 150.746 135.311 151.565C135.721 152.385 135.967 153.287 135.967 154.353C135.967 154.599 135.967 154.763 135.885 154.927H127.441C127.523 155.747 127.687 156.402 128.015 156.976C128.343 157.55 128.835 157.96 129.327 158.206C129.901 158.452 130.393 158.615 130.967 158.615C132.361 158.615 133.344 157.96 134.083 156.73L135.558 157.468C135.066 158.288 134.492 159.026 133.673 159.518C133.016 159.847 132.113 160.093 130.966 160.093ZM133.999 153.371C133.999 152.961 133.835 152.469 133.59 152.058C133.344 151.648 133.016 151.238 132.524 150.911C132.031 150.583 131.458 150.419 130.72 150.419C129.9 150.419 129.163 150.665 128.589 151.238C128.015 151.731 127.687 152.468 127.441 153.37H133.999V153.371Z" fill="#808080"/>
<path d="M137.935 149.19H139.574V150.912H139.656C139.902 150.338 140.23 149.846 140.886 149.518C141.459 149.108 142.115 148.944 142.771 148.944C143.263 148.944 143.672 149.026 144 149.19V151.075C143.591 150.829 143.098 150.747 142.525 150.747C142.032 150.747 141.541 150.912 141.131 151.157C140.721 151.485 140.393 151.812 140.065 152.304C139.819 152.797 139.655 153.288 139.655 153.862V159.764H137.934L137.935 149.19Z" fill="#808080"/>
</g>
<g filter="url(#filter1_dd_540_785)">
<rect x="40" y="236" width="120" height="120" rx="12" fill="white"/>
</g>
<g clip-path="url(#clip2_540_785)">
<mask id="mask5_540_785" style="mask-type:luminance" maskUnits="userSpaceOnUse" x="76" y="272" width="48" height="48">
<path d="M124 272H76V320H124V272Z" fill="white"/>
</mask>
<g mask="url(#mask5_540_785)">
<path fill-rule="evenodd" clip-rule="evenodd" d="M116.458 303.968C116.661 303.851 116.829 303.683 116.947 303.481C117.064 303.279 117.127 303.049 117.127 302.816L117.151 295.1C117.152 294.866 117.214 294.636 117.332 294.434C117.449 294.232 117.618 294.064 117.821 293.948L122.003 291.545C122.206 291.428 122.436 291.367 122.669 291.368C122.903 291.368 123.133 291.43 123.335 291.547C123.538 291.664 123.706 291.833 123.822 292.035C123.939 292.237 124.001 292.467 124.001 292.701V306.729C124.001 306.963 123.939 307.194 123.821 307.397C123.704 307.6 123.535 307.768 123.331 307.885L107.546 316.952C107.344 317.067 107.116 317.128 106.883 317.128C106.651 317.129 106.423 317.068 106.221 316.953L93.8326 309.868C93.6286 309.751 93.4589 309.583 93.3409 309.379C93.2228 309.176 93.1607 308.945 93.1606 308.71V301.637C93.1606 301.629 93.1699 301.623 93.178 301.628C93.1846 301.632 93.1939 301.628 93.1939 301.618V301.61C93.1939 301.605 93.1966 301.599 93.202 301.597L103.405 295.736C103.414 295.73 103.41 295.716 103.399 295.716C103.396 295.716 103.394 295.714 103.392 295.712C103.39 295.71 103.389 295.708 103.389 295.705L103.409 288.77C103.409 288.536 103.349 288.305 103.232 288.102C103.115 287.898 102.947 287.729 102.744 287.612C102.541 287.494 102.311 287.432 102.077 287.432C101.842 287.431 101.612 287.493 101.409 287.61L93.826 291.98C93.6235 292.096 93.3943 292.157 93.1606 292.157C92.9272 292.157 92.6977 292.096 92.4953 291.98L84.8886 287.6C84.686 287.483 84.4562 287.421 84.2223 287.422C83.9885 287.422 83.7588 287.484 83.5563 287.6C83.3538 287.717 83.1857 287.886 83.0687 288.088C82.9517 288.291 82.8901 288.52 82.89 288.754V301.287C82.8901 301.521 82.8289 301.751 82.7124 301.953C82.596 302.156 82.4283 302.324 82.2263 302.441C82.0243 302.559 81.7951 302.621 81.5615 302.622C81.3279 302.623 81.0981 302.562 80.8953 302.446L76.674 300.033C76.4695 299.916 76.2996 299.747 76.1816 299.543C76.0635 299.34 76.0016 299.108 76.002 298.873L76.0393 276.966C76.0398 276.733 76.1016 276.503 76.2186 276.301C76.3356 276.099 76.5036 275.931 76.7059 275.814C76.9081 275.698 77.1375 275.636 77.371 275.636C77.6046 275.635 77.8341 275.697 78.0366 275.813L92.4967 284.118C92.6987 284.234 92.9276 284.295 93.1606 284.295C93.3937 284.295 93.6226 284.234 93.8246 284.118L108.281 275.813C108.483 275.696 108.713 275.635 108.947 275.636C109.181 275.636 109.411 275.698 109.613 275.815C109.815 275.933 109.983 276.101 110.1 276.304C110.217 276.506 110.278 276.736 110.278 276.97V298.882C110.278 299.117 110.216 299.347 110.099 299.55C109.982 299.753 109.813 299.921 109.61 300.038L102.039 304.398C101.836 304.515 101.667 304.684 101.55 304.887C101.433 305.091 101.371 305.322 101.372 305.556C101.372 305.791 101.435 306.021 101.553 306.224C101.671 306.427 101.841 306.595 102.045 306.712L106.221 309.089C106.423 309.204 106.651 309.264 106.883 309.263C107.115 309.263 107.343 309.202 107.545 309.086L116.458 303.968ZM117.334 284.312C117.334 284.547 117.397 284.779 117.516 284.982C117.635 285.186 117.805 285.355 118.01 285.471C118.216 285.587 118.448 285.647 118.684 285.644C118.919 285.641 119.15 285.575 119.353 285.454L123.353 283.054C123.55 282.936 123.713 282.768 123.827 282.568C123.941 282.368 124 282.142 124.001 281.912V277.021C124 276.785 123.937 276.554 123.818 276.35C123.699 276.147 123.529 275.979 123.323 275.863C123.118 275.747 122.886 275.687 122.65 275.69C122.415 275.693 122.184 275.758 121.982 275.88L117.982 278.28C117.784 278.398 117.621 278.565 117.507 278.766C117.394 278.966 117.334 279.192 117.334 279.422V284.312Z" fill="#007FFF"/>
</g>
</g>
<g filter="url(#filter2_dd_540_785)">
<rect x="184" y="40" width="120" height="120" rx="12" fill="white"/>
</g>
<g clip-path="url(#clip3_540_785)">
<path d="M220 76H268V124H220V76Z" fill="#F7DF1E"/>
<path d="M232.621 116.112L236.294 113.889C237.003 115.146 237.648 116.209 239.194 116.209C240.676 116.209 241.611 115.629 241.611 113.374V98.0367H246.122V113.438C246.122 118.11 243.383 120.236 239.387 120.236C235.779 120.236 233.684 118.367 232.621 116.112M248.572 115.629L252.244 113.502C253.211 115.081 254.468 116.241 256.691 116.241C258.56 116.241 259.752 115.307 259.752 114.018C259.752 112.471 258.528 111.923 256.465 111.022L255.338 110.538C252.084 109.153 249.925 107.413 249.925 103.74C249.925 100.356 252.502 97.7787 256.53 97.7787C259.398 97.7787 261.46 98.7777 262.942 101.387L259.43 103.643C258.656 102.258 257.819 101.71 256.53 101.71C255.209 101.71 254.371 102.548 254.371 103.643C254.371 104.996 255.209 105.544 257.142 106.382L258.27 106.865C262.104 108.509 264.263 110.184 264.263 113.954C264.263 118.014 261.073 120.237 256.788 120.237C252.599 120.237 249.892 118.239 248.572 115.629" fill="black"/>
</g>
<g filter="url(#filter3_dd_540_785)">
<rect x="184" y="184" width="120" height="120" rx="12" fill="white"/>
</g>
<g clip-path="url(#clip4_540_785)">
<path d="M220.365 261.811C220.365 265.229 223.136 268 226.554 268H262.176C265.595 268 268.365 265.229 268.365 261.811V226.189C268.365 222.771 265.594 220 262.176 220H226.555C223.136 220 220.365 222.771 220.365 226.189V261.811Z" fill="#563D7C"/>
<path d="M240.269 241.232V234.435H246.253C246.823 234.435 247.372 234.482 247.901 234.577C248.43 234.672 248.899 234.842 249.306 235.086C249.713 235.33 250.038 235.669 250.283 236.103C250.527 236.538 250.649 237.094 250.649 237.772C250.649 238.993 250.283 239.875 249.55 240.418C248.817 240.961 247.881 241.232 246.741 241.232H240.269ZM233.879 229.469V258.531H247.962C249.265 258.531 250.534 258.369 251.768 258.043C253.003 257.717 254.102 257.215 255.065 256.537C256.028 255.858 256.795 254.983 257.365 253.911C257.935 252.839 258.22 251.571 258.22 250.106C258.22 248.287 257.779 246.734 256.897 245.445C256.015 244.156 254.678 243.254 252.887 242.738C254.19 242.114 255.174 241.313 255.839 240.337C256.503 239.36 256.836 238.139 256.836 236.673C256.836 235.317 256.612 234.177 256.164 233.254C255.716 232.332 255.086 231.592 254.271 231.036C253.457 230.48 252.481 230.079 251.341 229.835C250.201 229.591 248.939 229.469 247.555 229.469H233.879ZM240.269 253.565V245.587H247.23C248.614 245.587 249.726 245.906 250.568 246.544C251.409 247.182 251.829 248.247 251.829 249.739C251.829 250.499 251.7 251.123 251.443 251.612C251.185 252.1 250.839 252.487 250.405 252.772C249.971 253.057 249.468 253.26 248.899 253.382C248.329 253.504 247.732 253.565 247.108 253.565H240.269Z" fill="white"/>
</g>
<g filter="url(#filter4_dd_540_785)">
<rect x="184" y="328" width="120" height="120" rx="12" fill="white"/>
</g>
<g clip-path="url(#clip5_540_785)">
<path d="M225.357 382.163V381.39C225.357 380.833 225.314 380.275 225.229 379.717C225.143 379.159 224.971 378.645 224.714 378.13C224.456 377.615 224.113 377.186 223.727 376.757C223.325 376.357 222.861 376.024 222.354 375.77C221.839 375.512 221.324 375.341 220.766 375.255C220.209 375.169 219.651 375.126 219.093 375.126H205.792C205.363 375.126 204.934 375.169 204.548 375.255C204.119 375.341 203.733 375.427 203.347 375.598C203.218 375.641 203.089 375.727 202.961 375.77C202.574 375.941 202.231 376.199 201.931 376.456C201.845 376.542 201.716 376.628 201.63 376.757C201.231 377.159 200.897 377.622 200.644 378.13C200.386 378.645 200.215 379.159 200.129 379.717C200.043 380.275 200 380.833 200 381.39V394.305C200 394.863 200.043 395.421 200.129 395.978C200.215 396.536 200.386 397.051 200.644 397.566C200.901 398.081 201.244 398.51 201.63 398.939C202.033 399.339 202.496 399.672 203.003 399.926C203.518 400.183 204.033 400.355 204.591 400.441C205.149 400.527 205.706 400.569 206.264 400.569H219.136C219.694 400.569 220.252 400.527 220.809 400.441C221.367 400.355 221.882 400.183 222.397 399.926C222.912 399.668 223.341 399.325 223.77 398.939C224.17 398.537 224.503 398.073 224.757 397.566C225.014 397.051 225.186 396.536 225.272 395.978C225.357 395.421 225.4 394.863 225.4 394.305V383.107C225.357 382.763 225.357 382.463 225.357 382.163Z" fill="#F05138"/>
<path d="M220.08 390.83C220.123 390.744 220.123 390.615 220.165 390.529C221.238 386.325 218.621 381.348 214.287 378.73C216.218 381.305 217.033 384.48 216.304 387.226C216.218 387.483 216.175 387.698 216.046 387.955C215.961 387.912 215.832 387.826 215.66 387.741C215.66 387.741 211.327 385.038 206.607 380.318C206.478 380.189 209.139 384.094 212.099 387.226C210.683 386.453 206.779 383.579 204.29 381.305C204.591 381.82 204.977 382.292 205.363 382.764C207.422 385.381 210.125 388.642 213.386 391.13C211.112 392.503 207.894 392.632 204.676 391.13C203.904 390.744 203.132 390.315 202.445 389.8C203.818 391.988 205.878 393.833 208.452 394.949C211.498 396.236 214.502 396.15 216.733 394.992H216.776C216.862 394.949 216.948 394.906 217.033 394.82C218.106 394.262 220.251 393.705 221.41 395.936C221.667 396.408 222.268 393.49 220.08 390.83Z" fill="white"/>
<path d="M233.853 398.081C234.411 398.467 235.054 398.767 235.784 399.025C236.513 399.239 237.285 399.368 238.101 399.368C239.559 399.368 240.718 398.982 241.576 398.252C242.391 397.48 242.82 396.493 242.82 395.249C242.82 394.133 242.52 393.232 241.919 392.503C241.319 391.817 240.289 391.173 238.873 390.572C237.328 390.015 236.127 389.328 235.226 388.47C234.325 387.612 233.853 386.496 233.853 385.123C233.853 384.394 233.982 383.707 234.282 383.107C234.582 382.506 234.969 381.948 235.44 381.519C235.912 381.09 236.556 380.747 237.243 380.489C237.929 380.232 238.701 380.103 239.517 380.103C240.46 380.103 241.276 380.189 241.919 380.404C242.563 380.618 243.078 380.79 243.378 381.004L242.863 382.163C242.606 381.948 242.134 381.777 241.576 381.562C240.975 381.348 240.289 381.262 239.474 381.262C238.701 381.262 238.015 381.39 237.5 381.605C236.942 381.819 236.513 382.12 236.213 382.463C235.87 382.806 235.655 383.192 235.526 383.622C235.398 384.051 235.312 384.437 235.312 384.866C235.312 385.981 235.655 386.839 236.299 387.483C236.942 388.127 237.972 388.727 239.388 389.285C240.203 389.628 240.89 389.972 241.533 390.358C242.134 390.744 242.649 391.13 243.078 391.602C243.507 392.074 243.807 392.546 244.022 393.147C244.236 393.704 244.322 394.348 244.322 395.077C244.322 395.807 244.193 396.493 243.936 397.137C243.678 397.78 243.292 398.381 242.777 398.896C242.263 399.411 241.619 399.797 240.847 400.097C240.074 400.398 239.173 400.526 238.144 400.526C237.714 400.526 237.285 400.484 236.856 400.441L235.569 400.14C235.14 400.012 234.754 399.883 234.411 399.711L233.467 399.196L233.853 398.081ZM246.768 386.11L249.085 394.133L249.728 396.45L250.243 398.553H250.329L250.93 396.45L251.702 394.091L254.491 386.067H255.778L258.438 394.005L259.21 396.407C259.468 397.137 259.639 397.866 259.811 398.51H259.897C260.026 397.823 260.197 397.137 260.412 396.407L261.141 394.005L263.63 386.024H265.046L260.412 400.183H259.21L256.593 392.289L255.778 389.886C255.52 389.113 255.349 388.341 255.177 387.526H255.134L254.448 389.972L253.633 392.374L250.844 400.226H249.642L245.352 386.067L246.768 386.11ZM267.448 381.819C267.448 381.476 267.577 381.219 267.792 380.961C268.006 380.704 268.306 380.618 268.65 380.618C268.993 380.618 269.25 380.747 269.508 380.961C269.722 381.176 269.851 381.476 269.851 381.819C269.851 382.163 269.722 382.42 269.508 382.678C269.25 382.892 268.993 383.021 268.65 383.021C268.306 383.021 268.049 382.892 267.792 382.678C267.577 382.42 267.448 382.163 267.448 381.819ZM267.963 400.269V386.11H269.336V400.269H267.963ZM275 400.269V387.226H272.983V386.153H275V385.338C275 384.437 275.086 383.622 275.214 382.849C275.386 382.077 275.643 381.433 275.987 380.876C276.33 380.318 276.845 379.889 277.402 379.545C278.003 379.202 278.733 379.073 279.591 379.073C280.063 379.073 280.449 379.116 280.792 379.202C281.135 379.288 281.436 379.417 281.65 379.545L281.221 380.618L280.535 380.361C280.277 380.275 279.934 380.232 279.505 380.232C278.818 380.232 278.303 380.361 277.917 380.661C277.531 380.918 277.188 381.305 276.973 381.777C276.759 382.249 276.587 382.763 276.501 383.407C276.416 384.051 276.373 384.694 276.373 385.338V386.153H283.109V387.226H276.416V400.269H275Z" fill="black"/>
<path d="M284.096 382.978V386.153H288V387.226H284.096V396.45C284.096 397.394 284.267 398.124 284.568 398.639C284.868 399.154 285.383 399.411 286.155 399.411L287.056 399.368L287.7 399.239L287.828 400.312C287.356 400.527 286.713 400.655 285.941 400.655C285.297 400.655 284.739 400.527 284.353 400.312C283.924 400.097 283.624 399.797 283.366 399.411C283.109 399.025 282.937 398.553 282.851 398.038C282.766 397.48 282.723 396.922 282.723 396.279V387.312H282.808V386.239H282.723V383.622L284.096 382.978Z" fill="black"/>
</g>
<g filter="url(#filter5_dd_540_785)">
<rect x="328" y="132" width="120" height="120" rx="12" fill="white"/>
</g>
<g clip-path="url(#clip6_540_785)">
<path d="M403.869 184.367C403.331 184.188 402.882 184.008 402.343 183.918C402.433 183.559 402.522 183.2 402.612 182.841C403.78 177.094 403.061 172.514 400.367 170.988C397.763 169.551 393.633 171.078 389.502 174.669C389.053 175.029 388.694 175.388 388.245 175.747C387.976 175.478 387.706 175.208 387.437 175.029C383.037 171.167 378.637 169.461 376.033 170.988C373.518 172.514 372.8 176.824 373.878 182.302C373.967 182.841 374.057 183.38 374.237 183.918C373.608 184.098 372.98 184.278 372.441 184.457C367.322 186.253 364 189.037 364 192C364 194.963 367.502 198.016 372.89 199.812C373.339 199.992 373.788 200.082 374.237 200.261C374.057 200.89 373.967 201.429 373.878 201.967C372.89 207.265 373.698 211.576 376.212 213.012C378.816 214.539 383.216 213.012 387.437 209.241C387.796 208.971 388.155 208.612 388.424 208.343C388.873 208.792 389.322 209.151 389.771 209.51C393.902 213.012 397.943 214.449 400.457 213.012C403.061 211.486 403.869 206.906 402.792 201.429C402.702 200.98 402.612 200.531 402.522 200.171C402.792 200.082 403.151 199.992 403.42 199.902C408.898 198.016 412.49 194.963 412.49 192C412.49 189.037 409.078 186.253 403.869 184.367ZM390.849 176.196C394.441 173.053 397.763 171.886 399.29 172.694C400.906 173.592 401.535 177.363 400.547 182.392C400.457 182.751 400.367 183.02 400.367 183.38C398.392 182.931 396.147 182.571 393.902 182.392C392.555 180.506 391.208 178.8 389.771 177.273C390.131 176.914 390.49 176.555 390.849 176.196ZM379.445 192C380.073 190.653 380.792 189.396 381.51 188.049C382.229 186.792 383.037 185.535 383.845 184.278C385.282 184.188 386.808 184.098 388.245 184.098C389.771 184.098 391.208 184.188 392.645 184.278C393.453 185.445 394.261 186.702 394.98 188.049C395.698 189.396 396.416 190.653 397.045 191.91C396.416 193.167 395.698 194.514 394.98 195.861C394.261 197.208 393.453 198.465 392.645 199.633C391.208 199.722 389.682 199.812 388.245 199.812C386.718 199.812 385.282 199.722 383.845 199.633C383.037 198.465 382.229 197.208 381.51 195.861C380.702 194.604 380.073 193.347 379.445 192ZM378.278 194.424C378.727 195.233 379.176 196.131 379.624 196.939C380.073 197.747 380.612 198.645 381.151 199.453C379.535 199.273 378.098 199.004 376.661 198.735C377.2 197.298 377.739 195.861 378.278 194.424ZM378.278 189.576C377.649 188.139 377.2 186.702 376.751 185.355C378.098 185.086 379.624 184.816 381.151 184.637C380.612 185.445 380.163 186.253 379.624 187.061C379.176 187.869 378.727 188.767 378.278 189.576ZM396.776 196.939C397.314 196.041 397.763 195.233 398.212 194.335C398.841 195.771 399.38 197.208 399.829 198.645C398.392 199.004 396.865 199.184 395.339 199.453C395.788 198.645 396.327 197.747 396.776 196.939ZM398.212 189.576C397.763 188.767 397.314 187.869 396.776 187.061C396.327 186.253 395.788 185.445 395.339 184.637C396.865 184.816 398.392 185.086 399.739 185.445C399.29 186.702 398.841 188.139 398.212 189.576ZM388.245 178.71C389.233 179.788 390.131 180.865 391.118 182.122C390.131 182.122 389.233 182.033 388.245 182.033C387.257 182.033 386.359 182.033 385.371 182.122C386.359 180.955 387.257 179.788 388.245 178.71ZM377.11 172.873C378.727 171.976 382.318 173.233 386.09 176.645C386.359 176.824 386.539 177.094 386.808 177.273C385.371 178.8 384.024 180.506 382.678 182.392C380.433 182.571 378.188 182.931 376.212 183.38C376.122 182.841 375.943 182.392 375.853 181.853C374.955 177.273 375.584 173.682 377.11 172.873ZM374.776 198.196C374.327 198.106 373.967 197.927 373.608 197.837C371.273 197.029 369.298 195.951 367.951 194.873C366.784 193.886 366.155 192.808 366.155 192C366.155 190.204 368.759 187.959 373.159 186.433C373.698 186.253 374.237 186.073 374.865 185.894C375.494 187.869 376.302 189.935 377.2 192C376.122 194.155 375.314 196.22 374.776 198.196ZM386 207.624C384.114 209.241 382.229 210.408 380.612 211.037C379.086 211.576 377.918 211.576 377.2 211.127C375.673 210.229 375.045 206.816 375.943 202.237C376.033 201.698 376.122 201.159 376.302 200.62C378.278 201.069 380.522 201.339 382.857 201.608C384.204 203.494 385.641 205.2 386.988 206.727C386.539 207.086 386.269 207.355 386 207.624ZM388.335 205.29C387.347 204.212 386.359 203.045 385.461 201.788C386.359 201.788 387.347 201.878 388.335 201.878C389.322 201.878 390.31 201.878 391.298 201.788C390.22 203.135 389.233 204.302 388.335 205.29ZM400.906 208.163C400.637 209.69 400.008 210.767 399.29 211.216C397.763 212.114 394.531 210.947 390.939 207.894C390.49 207.535 390.131 207.176 389.682 206.816C391.029 205.29 392.376 203.584 393.722 201.698C396.057 201.518 398.302 201.159 400.278 200.71C400.367 201.069 400.457 201.518 400.547 201.878C401.176 204.212 401.265 206.457 400.906 208.163ZM402.702 197.837C402.433 197.927 402.163 198.016 401.894 198.106C401.265 196.131 400.457 194.065 399.469 192C400.457 189.935 401.265 187.869 401.804 185.984C402.343 186.163 402.792 186.253 403.241 186.433C407.731 187.959 410.424 190.294 410.424 192C410.424 193.796 407.461 196.31 402.702 197.837Z" fill="#01D8F8"/>
<path d="M388.246 187.6C390.67 187.6 392.556 189.575 392.556 191.91C392.556 194.335 390.58 196.22 388.246 196.22C385.911 196.22 383.936 194.245 383.936 191.91C383.936 189.575 385.821 187.6 388.246 187.6Z" fill="#01D8F8"/>
</g>
<g filter="url(#filter6_dd_540_785)">
<rect x="328" y="276" width="120" height="120" rx="12" fill="white"/>
</g>
<g clip-path="url(#clip7_540_785)">
<g opacity="0.54">
<path d="M385.51 326.049H391.032C392.907 326.049 394.542 326.436 395.941 327.212C397.339 327.987 398.413 329.066 399.163 330.445C399.912 331.826 400.287 333.41 400.287 335.2C400.287 336.99 399.912 338.573 399.163 339.955C398.413 341.336 397.339 342.412 395.941 343.188C394.544 343.964 392.909 344.351 391.032 344.351H385.51V326.049ZM391.032 342.284C393.197 342.284 394.913 341.662 396.184 340.418C397.453 339.173 398.088 337.435 398.088 335.202C398.088 332.969 397.453 331.231 396.184 329.986C394.915 328.741 393.197 328.12 391.032 328.12H387.659V342.282H391.032V342.284Z" fill="black"/>
<path d="M403.633 344.2C402.883 343.825 402.304 343.31 401.895 342.653C401.486 341.997 401.281 341.251 401.281 340.416C401.281 339.034 401.8 337.958 402.841 337.182C403.879 336.406 405.192 336.02 406.778 336.02C407.562 336.02 408.289 336.106 408.963 336.276C409.636 336.447 410.151 336.643 410.51 336.863V336.072C410.51 335.099 410.169 334.32 409.488 333.732C408.806 333.145 407.944 332.85 406.906 332.85C406.172 332.85 405.501 333.009 404.885 333.323C404.272 333.638 403.787 334.077 403.428 334.64L401.792 333.414C402.304 332.63 403.007 332.016 403.901 331.573C404.795 331.13 405.789 330.908 406.88 330.908C408.652 330.908 410.045 331.373 411.059 332.301C412.074 333.231 412.581 334.496 412.581 336.098V344.355H410.51V342.488H410.408C410.033 343.12 409.47 343.655 408.72 344.098C407.97 344.541 407.127 344.763 406.188 344.763C405.236 344.763 404.384 344.575 403.633 344.2ZM408.44 342.284C409.069 341.909 409.572 341.406 409.947 340.776C410.322 340.147 410.51 339.455 410.51 338.706C410.101 338.433 409.598 338.211 409.003 338.04C408.405 337.87 407.776 337.784 407.11 337.784C405.918 337.784 405.018 338.03 404.414 338.525C403.809 339.02 403.506 339.66 403.506 340.442C403.506 341.157 403.779 341.737 404.324 342.18C404.869 342.623 405.559 342.845 406.395 342.845C407.127 342.845 407.81 342.659 408.44 342.284Z" fill="black"/>
<path d="M414.875 331.521H416.946V333.592H417.048C417.355 332.824 417.874 332.229 418.607 331.802C419.339 331.377 420.141 331.163 421.011 331.163C421.386 331.163 421.701 331.189 421.957 331.239V333.464C421.666 333.396 421.276 333.362 420.78 333.362C419.672 333.362 418.774 333.728 418.084 334.46C417.395 335.194 417.048 336.148 417.048 337.323V344.557H414.875V331.521ZM428.37 344.503C427.919 344.331 427.54 344.096 427.231 343.799C426.89 343.471 426.634 343.088 426.463 342.655C426.293 342.222 426.207 341.693 426.207 341.067V333.285H423.932V331.317H426.207V327.637H428.38V331.317H431.549V333.285H428.38V340.55C428.38 341.282 428.516 341.821 428.789 342.17C429.111 342.552 429.58 342.745 430.194 342.745C430.687 342.745 431.166 342.601 431.625 342.31V344.433C431.368 344.551 431.11 344.637 430.845 344.689C430.581 344.741 430.244 344.766 429.835 344.766C429.312 344.764 428.823 344.675 428.37 344.503Z" fill="black"/>
</g>
<path d="M349.942 343.838L345.275 339.171C344.722 338.602 344.377 337.8 344.377 337.016C344.377 336.653 344.581 336.086 344.736 335.759L349.044 326.785L349.942 343.838Z" fill="#01579B"/>
<path d="M365.917 327.683L361.251 323.016C360.844 322.607 359.994 322.118 359.276 322.118C358.659 322.118 358.053 322.242 357.661 322.477L349.045 326.785L365.917 327.683Z" fill="#40C4FF"/>
<path d="M355.507 349.402H366.817V344.555L358.38 341.863L350.662 344.555L355.507 349.402Z" fill="#40C4FF"/>
<path d="M349.045 341.326C349.045 342.765 349.225 343.12 349.943 343.84L350.661 344.557H366.815L358.917 335.583L349.045 326.787V341.326Z" fill="#29B6F6"/>
<path d="M363.404 326.785H349.043L366.813 344.555H371.66V333.426L365.917 327.683C365.111 326.873 364.394 326.785 363.404 326.785Z" fill="#01579B"/>
<path opacity="0.2" d="M350.121 344.018C349.404 343.296 349.223 342.587 349.223 341.326V326.965L349.043 326.785V341.324C349.045 342.587 349.045 342.936 350.121 344.018Z" fill="white"/>
<path opacity="0.2" d="M371.482 333.248V344.377H366.635L366.815 344.555H371.662V333.428L371.482 333.248Z" fill="#263238"/>
<path opacity="0.2" d="M365.917 327.683C365.027 326.793 364.298 326.785 363.225 326.785H349.045L349.225 326.965H363.227C363.76 326.965 365.113 326.875 365.917 327.683Z" fill="white"/>
<path opacity="0.2" d="M371.483 333.248L365.918 327.683L361.251 323.016C360.844 322.607 359.994 322.118 359.277 322.118C358.659 322.118 358.054 322.243 357.661 322.477L349.046 326.785L344.738 335.759C344.583 336.086 344.379 336.653 344.379 337.016C344.379 337.8 344.724 338.602 345.277 339.171L349.579 343.441C349.681 343.567 349.801 343.695 349.946 343.838L350.126 344.018L350.665 344.557L355.332 349.224L355.512 349.404H366.642H366.822V344.557H371.669V344.545V333.428L371.483 333.248Z" fill="url(#paint2_radial_540_785)"/>
</g>
<path d="M-67.0307 63.4816C-41.594 77.6266 15.0022 98.4309 37.8932 68.4887C66.5069 31.061 37.7034 23.5559 29.2448 42.2321C20.7861 60.9083 62.9969 86.2871 104.765 47.8093C138.179 17.0271 153.787 -30.4331 157.414 -50.3154" stroke="#0487FF" stroke-dasharray="6 6"/>
<path d="M544.597 443.809C519.16 429.664 462.564 408.86 439.673 438.802C411.06 476.23 439.863 483.735 448.322 465.058C456.78 446.382 414.57 421.003 372.802 459.481C339.388 490.263 323.779 537.724 320.152 557.606" stroke="#0487FF" stroke-dasharray="6 6"/>
</g>
<defs>
<filter id="filter0_dd_540_785" x="20" y="92" width="160" height="160" filterUnits="userSpaceOnUse" color-interpolation-filters="sRGB">
<feFlood flood-opacity="0" result="BackgroundImageFix"/>
<feColorMatrix in="SourceAlpha" type="matrix" values="0 0 0 0 0 0 0 0 0 0 0 0 0 0 0 0 0 0 127 0" result="hardAlpha"/>
<feMorphology radius="5" operator="erode" in="SourceAlpha" result="effect1_dropShadow_540_785"/>
<feOffset dy="20"/>
<feGaussianBlur stdDeviation="12.5"/>
<feComposite in2="hardAlpha" operator="out"/>
<feColorMatrix type="matrix" values="0 0 0 0 0 0 0 0 0 0 0 0 0 0 0 0 0 0 0.1 0"/>
<feBlend mode="normal" in2="BackgroundImageFix" result="effect1_dropShadow_540_785"/>
<feColorMatrix in="SourceAlpha" type="matrix" values="0 0 0 0 0 0 0 0 0 0 0 0 0 0 0 0 0 0 127 0" result="hardAlpha"/>
<feMorphology radius="5" operator="erode" in="SourceAlpha" result="effect2_dropShadow_540_785"/>
<feOffset dy="10"/>
<feGaussianBlur stdDeviation="5"/>
<feComposite in2="hardAlpha" operator="out"/>
<feColorMatrix type="matrix" values="0 0 0 0 0 0 0 0 0 0 0 0 0 0 0 0 0 0 0.1 0"/>
<feBlend mode="normal" in2="effect1_dropShadow_540_785" result="effect2_dropShadow_540_785"/>
<feBlend mode="normal" in="SourceGraphic" in2="effect2_dropShadow_540_785" result="shape"/>
</filter>
<filter id="filter1_dd_540_785" x="20" y="236" width="160" height="160" filterUnits="userSpaceOnUse" color-interpolation-filters="sRGB">
<feFlood flood-opacity="0" result="BackgroundImageFix"/>
<feColorMatrix in="SourceAlpha" type="matrix" values="0 0 0 0 0 0 0 0 0 0 0 0 0 0 0 0 0 0 127 0" result="hardAlpha"/>
<feMorphology radius="5" operator="erode" in="SourceAlpha" result="effect1_dropShadow_540_785"/>
<feOffset dy="20"/>
<feGaussianBlur stdDeviation="12.5"/>
<feComposite in2="hardAlpha" operator="out"/>
<feColorMatrix type="matrix" values="0 0 0 0 0 0 0 0 0 0 0 0 0 0 0 0 0 0 0.1 0"/>
<feBlend mode="normal" in2="BackgroundImageFix" result="effect1_dropShadow_540_785"/>
<feColorMatrix in="SourceAlpha" type="matrix" values="0 0 0 0 0 0 0 0 0 0 0 0 0 0 0 0 0 0 127 0" result="hardAlpha"/>
<feMorphology radius="5" operator="erode" in="SourceAlpha" result="effect2_dropShadow_540_785"/>
<feOffset dy="10"/>
<feGaussianBlur stdDeviation="5"/>
<feComposite in2="hardAlpha" operator="out"/>
<feColorMatrix type="matrix" values="0 0 0 0 0 0 0 0 0 0 0 0 0 0 0 0 0 0 0.1 0"/>
<feBlend mode="normal" in2="effect1_dropShadow_540_785" result="effect2_dropShadow_540_785"/>
<feBlend mode="normal" in="SourceGraphic" in2="effect2_dropShadow_540_785" result="shape"/>
</filter>
<filter id="filter2_dd_540_785" x="164" y="40" width="160" height="160" filterUnits="userSpaceOnUse" color-interpolation-filters="sRGB">
<feFlood flood-opacity="0" result="BackgroundImageFix"/>
<feColorMatrix in="SourceAlpha" type="matrix" values="0 0 0 0 0 0 0 0 0 0 0 0 0 0 0 0 0 0 127 0" result="hardAlpha"/>
<feMorphology radius="5" operator="erode" in="SourceAlpha" result="effect1_dropShadow_540_785"/>
<feOffset dy="20"/>
<feGaussianBlur stdDeviation="12.5"/>
<feComposite in2="hardAlpha" operator="out"/>
<feColorMatrix type="matrix" values="0 0 0 0 0 0 0 0 0 0 0 0 0 0 0 0 0 0 0.1 0"/>
<feBlend mode="normal" in2="BackgroundImageFix" result="effect1_dropShadow_540_785"/>
<feColorMatrix in="SourceAlpha" type="matrix" values="0 0 0 0 0 0 0 0 0 0 0 0 0 0 0 0 0 0 127 0" result="hardAlpha"/>
<feMorphology radius="5" operator="erode" in="SourceAlpha" result="effect2_dropShadow_540_785"/>
<feOffset dy="10"/>
<feGaussianBlur stdDeviation="5"/>
<feComposite in2="hardAlpha" operator="out"/>
<feColorMatrix type="matrix" values="0 0 0 0 0 0 0 0 0 0 0 0 0 0 0 0 0 0 0.1 0"/>
<feBlend mode="normal" in2="effect1_dropShadow_540_785" result="effect2_dropShadow_540_785"/>
<feBlend mode="normal" in="SourceGraphic" in2="effect2_dropShadow_540_785" result="shape"/>
</filter>
<filter id="filter3_dd_540_785" x="164" y="184" width="160" height="160" filterUnits="userSpaceOnUse" color-interpolation-filters="sRGB">
<feFlood flood-opacity="0" result="BackgroundImageFix"/>
<feColorMatrix in="SourceAlpha" type="matrix" values="0 0 0 0 0 0 0 0 0 0 0 0 0 0 0 0 0 0 127 0" result="hardAlpha"/>
<feMorphology radius="5" operator="erode" in="SourceAlpha" result="effect1_dropShadow_540_785"/>
<feOffset dy="20"/>
<feGaussianBlur stdDeviation="12.5"/>
<feComposite in2="hardAlpha" operator="out"/>
<feColorMatrix type="matrix" values="0 0 0 0 0 0 0 0 0 0 0 0 0 0 0 0 0 0 0.1 0"/>
<feBlend mode="normal" in2="BackgroundImageFix" result="effect1_dropShadow_540_785"/>
<feColorMatrix in="SourceAlpha" type="matrix" values="0 0 0 0 0 0 0 0 0 0 0 0 0 0 0 0 0 0 127 0" result="hardAlpha"/>
<feMorphology radius="5" operator="erode" in="SourceAlpha" result="effect2_dropShadow_540_785"/>
<feOffset dy="10"/>
<feGaussianBlur stdDeviation="5"/>
<feComposite in2="hardAlpha" operator="out"/>
<feColorMatrix type="matrix" values="0 0 0 0 0 0 0 0 0 0 0 0 0 0 0 0 0 0 0.1 0"/>
<feBlend mode="normal" in2="effect1_dropShadow_540_785" result="effect2_dropShadow_540_785"/>
<feBlend mode="normal" in="SourceGraphic" in2="effect2_dropShadow_540_785" result="shape"/>
</filter>
<filter id="filter4_dd_540_785" x="164" y="328" width="160" height="160" filterUnits="userSpaceOnUse" color-interpolation-filters="sRGB">
<feFlood flood-opacity="0" result="BackgroundImageFix"/>
<feColorMatrix in="SourceAlpha" type="matrix" values="0 0 0 0 0 0 0 0 0 0 0 0 0 0 0 0 0 0 127 0" result="hardAlpha"/>
<feMorphology radius="5" operator="erode" in="SourceAlpha" result="effect1_dropShadow_540_785"/>
<feOffset dy="20"/>
<feGaussianBlur stdDeviation="12.5"/>
<feComposite in2="hardAlpha" operator="out"/>
<feColorMatrix type="matrix" values="0 0 0 0 0 0 0 0 0 0 0 0 0 0 0 0 0 0 0.1 0"/>
<feBlend mode="normal" in2="BackgroundImageFix" result="effect1_dropShadow_540_785"/>
<feColorMatrix in="SourceAlpha" type="matrix" values="0 0 0 0 0 0 0 0 0 0 0 0 0 0 0 0 0 0 127 0" result="hardAlpha"/>
<feMorphology radius="5" operator="erode" in="SourceAlpha" result="effect2_dropShadow_540_785"/>
<feOffset dy="10"/>
<feGaussianBlur stdDeviation="5"/>
<feComposite in2="hardAlpha" operator="out"/>
<feColorMatrix type="matrix" values="0 0 0 0 0 0 0 0 0 0 0 0 0 0 0 0 0 0 0.1 0"/>
<feBlend mode="normal" in2="effect1_dropShadow_540_785" result="effect2_dropShadow_540_785"/>
<feBlend mode="normal" in="SourceGraphic" in2="effect2_dropShadow_540_785" result="shape"/>
</filter>
<filter id="filter5_dd_540_785" x="308" y="132" width="160" height="160" filterUnits="userSpaceOnUse" color-interpolation-filters="sRGB">
<feFlood flood-opacity="0" result="BackgroundImageFix"/>
<feColorMatrix in="SourceAlpha" type="matrix" values="0 0 0 0 0 0 0 0 0 0 0 0 0 0 0 0 0 0 127 0" result="hardAlpha"/>
<feMorphology radius="5" operator="erode" in="SourceAlpha" result="effect1_dropShadow_540_785"/>
<feOffset dy="20"/>
<feGaussianBlur stdDeviation="12.5"/>
<feComposite in2="hardAlpha" operator="out"/>
<feColorMatrix type="matrix" values="0 0 0 0 0 0 0 0 0 0 0 0 0 0 0 0 0 0 0.1 0"/>
<feBlend mode="normal" in2="BackgroundImageFix" result="effect1_dropShadow_540_785"/>
<feColorMatrix in="SourceAlpha" type="matrix" values="0 0 0 0 0 0 0 0 0 0 0 0 0 0 0 0 0 0 127 0" result="hardAlpha"/>
<feMorphology radius="5" operator="erode" in="SourceAlpha" result="effect2_dropShadow_540_785"/>
<feOffset dy="10"/>
<feGaussianBlur stdDeviation="5"/>
<feComposite in2="hardAlpha" operator="out"/>
<feColorMatrix type="matrix" values="0 0 0 0 0 0 0 0 0 0 0 0 0 0 0 0 0 0 0.1 0"/>
<feBlend mode="normal" in2="effect1_dropShadow_540_785" result="effect2_dropShadow_540_785"/>
<feBlend mode="normal" in="SourceGraphic" in2="effect2_dropShadow_540_785" result="shape"/>
</filter>
<filter id="filter6_dd_540_785" x="308" y="276" width="160" height="160" filterUnits="userSpaceOnUse" color-interpolation-filters="sRGB">
<feFlood flood-opacity="0" result="BackgroundImageFix"/>
<feColorMatrix in="SourceAlpha" type="matrix" values="0 0 0 0 0 0 0 0 0 0 0 0 0 0 0 0 0 0 127 0" result="hardAlpha"/>
<feMorphology radius="5" operator="erode" in="SourceAlpha" result="effect1_dropShadow_540_785"/>
<feOffset dy="20"/>
<feGaussianBlur stdDeviation="12.5"/>
<feComposite in2="hardAlpha" operator="out"/>
<feColorMatrix type="matrix" values="0 0 0 0 0 0 0 0 0 0 0 0 0 0 0 0 0 0 0.1 0"/>
<feBlend mode="normal" in2="BackgroundImageFix" result="effect1_dropShadow_540_785"/>
<feColorMatrix in="SourceAlpha" type="matrix" values="0 0 0 0 0 0 0 0 0 0 0 0 0 0 0 0 0 0 127 0" result="hardAlpha"/>
<feMorphology radius="5" operator="erode" in="SourceAlpha" result="effect2_dropShadow_540_785"/>
<feOffset dy="10"/>
<feGaussianBlur stdDeviation="5"/>
<feComposite in2="hardAlpha" operator="out"/>
<feColorMatrix type="matrix" values="0 0 0 0 0 0 0 0 0 0 0 0 0 0 0 0 0 0 0.1 0"/>
<feBlend mode="normal" in2="effect1_dropShadow_540_785" result="effect2_dropShadow_540_785"/>
<feBlend mode="normal" in="SourceGraphic" in2="effect2_dropShadow_540_785" result="shape"/>
</filter>
<linearGradient id="paint0_linear_540_785" x1="-7142.91" y1="-2924.73" x2="-7142.91" y2="-2924.73" gradientUnits="userSpaceOnUse">
<stop stop-color="#1A237E" stop-opacity="0.4"/>
<stop offset="1" stop-color="#1A237E" stop-opacity="0"/>
</linearGradient>
<radialGradient id="paint1_radial_540_785" cx="0" cy="0" r="1" gradientUnits="userSpaceOnUse" gradientTransform="translate(-7142.91 -2924.73) scale(1.12027e-07)">
<stop stop-color="white" stop-opacity="0.1"/>
<stop offset="1" stop-color="white" stop-opacity="0"/>
</radialGradient>
<radialGradient id="paint2_radial_540_785" cx="0" cy="0" r="1" gradientUnits="userSpaceOnUse" gradientTransform="translate(358.023 335.761) scale(13.644 13.644)">
<stop stop-color="white" stop-opacity="0.1"/>
<stop offset="1" stop-color="white" stop-opacity="0"/>
</radialGradient>
<clipPath id="clip0_540_785">
<rect width="488" height="488" rx="24" fill="white"/>
</clipPath>
<clipPath id="clip1_540_785">
<rect width="88" height="32" fill="white" transform="translate(56 136.334)"/>
</clipPath>
<clipPath id="clip2_540_785">
<rect width="48" height="48" fill="white" transform="translate(76 272)"/>
</clipPath>
<clipPath id="clip3_540_785">
<rect width="48" height="48" fill="white" transform="translate(220 76)"/>
</clipPath>
<clipPath id="clip4_540_785">
<rect width="48" height="48" fill="white" transform="translate(220.365 220)"/>
</clipPath>
<clipPath id="clip5_540_785">
<rect width="88" height="25.7812" fill="white" transform="translate(200 375)"/>
</clipPath>
<clipPath id="clip6_540_785">
<rect width="48.4898" height="44" fill="white" transform="translate(364 170)"/>
</clipPath>
<clipPath id="clip7_540_785">
<rect width="88" height="27.5205" fill="white" transform="translate(344 322)"/>
</clipPath>
</defs>
</svg>
