<svg width="480" height="480" viewBox="0 0 480 480" fill="none" xmlns="http://www.w3.org/2000/svg">
<path fill-rule="evenodd" clip-rule="evenodd" d="M426.144 316.992H252.624C249.552 316.992 247.008 314.448 247.008 311.376V58.608C247.008 55.536 249.552 52.992 252.624 52.992H426.144C429.264 52.992 431.808 55.536 431.808 58.608V311.376C431.808 314.448 429.264 316.992 426.144 316.992ZM252.624 53.232C249.696 53.232 247.248 55.632 247.248 58.608V311.376C247.248 314.352 249.696 316.752 252.624 316.752H426.144C429.12 316.752 431.568 314.352 431.568 311.376V58.608C431.568 55.632 429.12 53.232 426.144 53.232H252.624Z" fill="#E0E0E0"/>
<path fill-rule="evenodd" clip-rule="evenodd" d="M226.08 316.992H52.56C49.44 316.992 46.944 314.448 46.944 311.376V58.608C46.944 55.536 49.44 52.992 52.56 52.992H226.08C229.2 52.992 231.696 55.536 231.696 58.608V311.376C231.696 314.448 229.2 316.992 226.08 316.992ZM52.56 53.232C49.584 53.232 47.184 55.632 47.184 58.608V311.376C47.184 314.352 49.584 316.752 52.56 316.752H226.08C229.056 316.752 231.456 314.352 231.456 311.376V58.608C231.456 55.632 229.056 53.232 226.08 53.232H52.56Z" fill="#E0E0E0"/>
<path d="M480 338.688H0V338.448H480V338.688Z" fill="#E0E0E0"/>
<path d="M49.584 352.128H65.04V352.368H49.584V352.128Z" fill="#E0E0E0"/>
<path d="M163.536 349.536H214.944V349.776H163.536V349.536Z" fill="#E0E0E0"/>
<path d="M66 361.056H100.8V361.296H66V361.056Z" fill="#E0E0E0"/>
<path d="M363.216 349.392H404.688V349.632H363.216V349.392Z" fill="#E0E0E0"/>
<path d="M413.232 349.392H419.328V349.632H413.232V349.392Z" fill="#E0E0E0"/>
<path d="M303.552 355.392H355.296V355.632H303.552V355.392Z" fill="#E0E0E0"/>
<path d="M315.216 48.144C316.128 48.912 316.512 49.968 316.464 51.024L317.712 52.08L323.664 44.928L316.704 39.168L317.472 38.16C318.624 38.256 319.728 37.824 320.496 36.912C321.792 35.376 321.552 33.072 320.016 31.824C318.528 30.528 316.224 30.768 314.976 32.304C314.208 33.216 313.968 34.368 314.256 35.472L313.44 36.432L306.48 30.672L300.576 37.776L301.824 38.832C302.88 38.592 303.984 38.832 304.848 39.552C306.336 40.752 306.528 42.912 305.328 44.4C304.08 45.84 301.92 46.032 300.48 44.832C299.568 44.112 299.184 43.008 299.232 41.952L297.984 40.896L292.224 47.856L309.408 62.112L315.12 55.2L313.872 54.144C312.816 54.384 311.712 54.192 310.848 53.424C309.36 52.224 309.168 50.064 310.368 48.624C311.616 47.136 313.776 46.944 315.216 48.144Z" fill="#F0F0F0"/>
<path d="M73.9681 288.72L75.6481 295.68L82.656 297.216L75.696 298.896L74.112 305.904L72.4801 298.944L65.472 297.36L72.432 295.728L73.9681 288.72Z" fill="#F0F0F0"/>
<path d="M420.624 88.752L421.92 95.76L428.832 97.68L421.824 98.976L419.904 105.888L418.608 98.88L411.696 96.96L418.752 95.664L420.624 88.752Z" fill="#F0F0F0"/>
<path d="M88.896 60.72L90.24 67.776L97.152 69.648L90.096 70.992L88.224 77.856L86.88 70.848L79.968 68.976L87.024 67.632L88.896 60.72Z" fill="#F0F0F0"/>
<path d="M157.824 238.176L158.832 242.304L162.96 243.216L158.832 244.176L157.92 248.352L156.912 244.224L152.784 243.312L156.912 242.304L157.824 238.176Z" fill="#F0F0F0"/>
<path d="M379.584 287.136L380.544 291.264L384.72 292.176L380.592 293.136L379.632 297.312L378.672 293.184L374.496 292.272L378.624 291.264L379.584 287.136Z" fill="#F0F0F0"/>
<path d="M299.232 143.184L300.288 151.152L307.92 153.648L299.952 154.752L297.456 162.384L296.4 154.416L288.768 151.872L296.688 150.816L299.232 143.184Z" fill="white"/>
<path d="M306.768 166.272L307.296 170.256L311.136 171.504L307.152 172.08L305.856 175.872L305.328 171.888L301.536 170.64L305.52 170.112L306.768 166.272Z" fill="white"/>
<path d="M94.656 300.768L94.992 303.264L97.392 304.08L94.896 304.416L94.08 306.816L93.744 304.32L91.344 303.504L93.84 303.168L94.656 300.768Z" fill="#F0F0F0"/>
<path d="M434.592 224.64C435.36 222.24 434.784 219.504 433.152 217.584C431.52 215.664 428.88 214.656 426.384 215.04C424.896 211.056 419.664 208.992 415.872 210.864C412.032 212.784 410.544 218.16 412.8 221.76C409.776 221.472 403.392 224.784 405.552 230.64L440.592 230.352C441.216 227.088 437.76 223.872 434.592 224.64Z" fill="#E6E6E6"/>
<path d="M377.472 323.136C378.24 320.736 377.664 317.952 376.032 316.032C374.4 314.112 371.808 313.152 369.312 313.488C367.824 309.504 362.592 307.44 358.752 309.36C354.96 311.232 353.424 316.656 355.68 320.256C352.656 319.92 346.272 323.232 348.432 329.136L383.472 328.8C384.096 325.584 380.688 322.32 377.472 323.136Z" fill="#E6E6E6"/>
<path d="M320.064 181.92C320.64 180.096 320.208 177.984 318.96 176.544C317.712 175.056 315.696 174.288 313.824 174.576C312.672 171.552 308.64 169.968 305.76 171.408C302.832 172.848 301.68 176.976 303.408 179.76C301.104 179.52 296.208 182.016 297.888 186.528L324.672 186.288C325.104 183.84 322.512 181.344 320.064 181.92Z" fill="#F0F0F0"/>
<path d="M61.2 181.92C61.728 180.096 61.296 177.984 60.096 176.544C58.848 175.056 56.832 174.288 54.912 174.576C53.76 171.552 49.776 169.968 46.848 171.408C43.968 172.848 42.768 176.976 44.544 179.76C42.192 179.52 37.344 182.016 38.976 186.528L65.76 186.288C66.24 183.84 63.6 181.344 61.2 181.92Z" fill="#F0F0F0"/>
<path d="M429.312 423.6C429.312 446.208 344.544 464.592 240 464.592C135.456 464.592 50.688 446.208 50.688 423.6C50.688 400.944 135.456 382.56 240 382.56C344.544 382.56 429.312 400.944 429.312 423.6Z" fill="#F2F2F2"/>
<path d="M136.368 311.328L136.8 413.376L238.224 452.784L344.64 413.184L343.44 307.68L241.344 291.36L136.368 311.328Z" fill="#0487FF"/>
<path opacity="0.2" d="M136.56 357.84L202.944 376.464L231.744 334.896L136.56 347.472V357.84Z" fill="black"/>
<path d="M231.744 334.896L136.368 311.328L241.344 291.36L343.44 307.68L231.744 334.896Z" fill="#0487FF"/>
<path opacity="0.2" d="M231.744 334.896L136.368 311.328L241.344 291.36L343.44 307.68L231.744 334.896Z" fill="black"/>
<path opacity="0.2" d="M148.224 311.664L240.816 293.856L330.576 308.208L231.744 332.256L148.224 311.664Z" fill="black"/>
<path opacity="0.2" d="M238.224 452.784L231.744 334.896L343.44 307.68L344.64 413.184L238.224 452.784Z" fill="black"/>
<path opacity="0.2" d="M233.04 336.384C233.136 337.248 258.768 382.176 261.168 382.656C263.568 383.088 343.776 359.616 344.016 359.376C344.256 359.136 343.824 340.704 343.824 340.704L234.192 335.136" fill="black"/>
<path opacity="0.3" d="M240.816 293.856L241.68 329.856L330.576 308.208L240.816 293.856Z" fill="black"/>
<path d="M138.192 311.952L136.368 311.328L104.928 338.784L196.992 364.032L231.744 334.896L138.192 311.952Z" fill="#0487FF"/>
<path opacity="0.3" d="M138.192 311.952L136.368 311.328L104.928 338.784L196.992 364.032L231.744 334.896L138.192 311.952Z" fill="white"/>
<path d="M231.744 334.896L262.944 371.04L375.072 336.72L343.44 307.68L231.744 334.896Z" fill="#0487FF"/>
<path opacity="0.3" d="M231.744 334.896L262.944 371.04L375.072 336.72L343.44 307.68L231.744 334.896Z" fill="white"/>
<path d="M241.344 291.36L263.472 273.168L371.424 290.304L343.44 307.68L241.344 291.36Z" fill="#0487FF"/>
<path opacity="0.2" d="M241.344 291.36L263.472 273.168L371.424 290.304L343.44 307.68L241.344 291.36Z" fill="black"/>
<path d="M241.344 291.36L212.592 267.744L106.128 280.608C106.128 280.608 135.456 311.136 136.368 311.328C137.808 311.664 241.824 291.888 241.344 291.36Z" fill="#0487FF"/>
<path opacity="0.2" d="M241.344 291.36L212.592 267.744L106.128 280.608C106.128 280.608 135.456 311.136 136.368 311.328C137.808 311.664 241.824 291.888 241.344 291.36Z" fill="black"/>
<path d="M159.936 427.68C165.408 429.888 170.88 432.08 176.352 434.256C185.088 437.776 193.808 441.28 202.512 444.768C204.528 445.568 206.528 446.368 208.512 447.168C209.376 447.504 209.76 446.112 208.896 445.776C203.424 443.568 197.952 441.376 192.48 439.2C183.776 435.712 175.056 432.208 166.32 428.688C164.304 427.888 162.304 427.088 160.32 426.288C159.456 425.952 159.072 427.344 159.936 427.68Z" fill="#0487FF"/>
<path d="M157.2 425.088C156.176 424.704 155.152 424.336 154.128 423.984C153.968 423.92 153.808 423.856 153.648 423.792C153.312 423.648 152.88 423.936 152.784 424.32C152.688 424.704 152.928 425.04 153.312 425.184C154.336 425.568 155.36 425.952 156.384 426.336C156.512 426.368 156.656 426.416 156.816 426.48C157.152 426.624 157.632 426.336 157.68 426C157.776 425.568 157.584 425.232 157.2 425.088Z" fill="#0487FF"/>
<path d="M118.752 189.84C106.512 182.736 90.96 187.056 84 199.488C77.04 211.872 81.264 227.616 93.504 234.72C102.96 240.144 114.384 238.8 122.304 232.224L129.84 233.376L128.064 225.408C128.112 225.264 128.208 225.168 128.256 225.072C135.216 212.64 130.944 196.896 118.752 189.84Z" fill="#0487FF"/>
<path d="M103.968 225.648C103.2 225.008 102.8 224.192 102.768 223.2C102.736 222.208 103.056 221.36 103.728 220.656C104.432 219.984 105.328 219.616 106.416 219.552C107.536 219.52 108.464 219.824 109.2 220.464C109.936 221.104 110.32 221.904 110.352 222.864C110.384 223.856 110.064 224.72 109.392 225.456C108.688 226.16 107.792 226.544 106.704 226.608C105.616 226.64 104.704 226.32 103.968 225.648ZM101.904 199.152L109.248 198.864L108.768 216.72L103.872 216.912L101.904 199.152Z" fill="white"/>
<path d="M391.296 141.072C393.12 139.92 395.328 139.776 397.2 140.544L399.84 138.912L390.432 123.984L375.888 133.152L374.64 131.136C375.408 129.168 375.264 126.864 374.064 124.944C372.048 121.728 367.824 120.768 364.656 122.784C361.44 124.8 360.48 129.024 362.496 132.24C363.696 134.112 365.712 135.216 367.776 135.408L369.072 137.472L354.624 146.592L363.984 161.424L366.624 159.744C366.768 157.776 367.824 155.856 369.648 154.704C372.72 152.784 376.752 153.696 378.672 156.768C380.592 159.792 379.68 163.824 376.608 165.744C374.784 166.896 372.576 167.04 370.704 166.272L368.064 167.952L377.184 182.4L413.04 159.792L403.92 145.392L401.28 147.072C401.136 149.088 400.08 150.96 398.256 152.112C395.184 154.032 391.2 153.12 389.232 150.096C387.312 147.024 388.224 142.992 391.296 141.072Z" fill="#0487FF"/>
<path opacity="0.2" d="M391.296 141.072C393.12 139.92 395.328 139.776 397.2 140.544L399.84 138.912L390.432 123.984L375.888 133.152L374.64 131.136C375.408 129.168 375.264 126.864 374.064 124.944C372.048 121.728 367.824 120.768 364.656 122.784C361.44 124.8 360.48 129.024 362.496 132.24C363.696 134.112 365.712 135.216 367.776 135.408L369.072 137.472L354.624 146.592L363.984 161.424L366.624 159.744C366.768 157.776 367.824 155.856 369.648 154.704C372.72 152.784 376.752 153.696 378.672 156.768C380.592 159.792 379.68 163.824 376.608 165.744C374.784 166.896 372.576 167.04 370.704 166.272L368.064 167.952L377.184 182.4L413.04 159.792L403.92 145.392L401.28 147.072C401.136 149.088 400.08 150.96 398.256 152.112C395.184 154.032 391.2 153.12 389.232 150.096C387.312 147.024 388.224 142.992 391.296 141.072Z" fill="black"/>
<path d="M181.728 45.84C180.144 45.696 178.656 46.272 177.648 47.376L175.344 47.136L176.784 34.176L164.112 32.736H164.016L163.824 34.56C164.928 35.568 165.552 37.056 165.36 38.64C165.072 41.28 162.672 43.2 159.984 42.912C157.344 42.624 155.424 40.224 155.76 37.536C155.904 35.952 156.864 34.608 158.16 33.888L158.352 32.112L158.208 32.064L145.584 30.672L144.144 43.68L142.656 43.488C141.888 42.192 140.544 41.232 138.96 41.04C136.32 40.752 133.92 42.672 133.632 45.312C133.344 48 135.216 50.352 137.904 50.688C139.488 50.832 140.976 50.256 141.984 49.152L143.472 49.344L142.08 61.872L173.28 65.376L174.72 52.8L176.976 53.04C177.744 54.336 179.04 55.296 180.672 55.488C183.312 55.776 185.712 53.856 186 51.216C186.288 48.528 184.416 46.176 181.728 45.84Z" fill="#0487FF"/>
<path opacity="0.2" d="M168.624 33.264C168.624 33.264 174.048 39.552 169.536 43.104C165.024 46.608 142.752 55.68 142.752 55.968C142.704 56.256 141.312 61.824 142.08 61.872C142.8 61.968 147.072 62.448 147.072 62.448C147.072 62.448 142.896 60.72 153.072 55.2C163.296 49.68 174.912 45.696 175.728 43.44C176.592 41.232 176.784 34.176 176.784 34.176L168.624 33.264Z" fill="white"/>
<path d="M73.536 103.2L72.528 109.728C72.432 110.16 72.576 110.544 72.864 110.832L77.712 115.392C78.432 116.064 78.048 117.312 77.088 117.456L70.512 118.512C70.128 118.608 69.792 118.848 69.6 119.232L66.768 125.232C66.336 126.144 65.04 126.144 64.56 125.232L61.536 119.328C61.344 118.992 61.008 118.752 60.624 118.704L54.048 117.84C53.04 117.696 52.608 116.496 53.328 115.776L57.984 111.072C58.272 110.784 58.416 110.352 58.32 109.968L57.12 103.44C56.928 102.432 57.936 101.664 58.848 102.144L64.8 105.12C65.136 105.312 65.568 105.312 65.904 105.12L71.76 101.952C72.624 101.424 73.68 102.192 73.536 103.2Z" fill="#0487FF"/>
<path opacity="0.3" d="M73.536 103.2L72.528 109.728C72.432 110.16 72.576 110.544 72.864 110.832L77.712 115.392C78.432 116.064 78.048 117.312 77.088 117.456L70.512 118.512C70.128 118.608 69.792 118.848 69.6 119.232L66.768 125.232C66.336 126.144 65.04 126.144 64.56 125.232L61.536 119.328C61.344 118.992 61.008 118.752 60.624 118.704L54.048 117.84C53.04 117.696 52.608 116.496 53.328 115.776L57.984 111.072C58.272 110.784 58.416 110.352 58.32 109.968L57.12 103.44C56.928 102.432 57.936 101.664 58.848 102.144L64.8 105.12C65.136 105.312 65.568 105.312 65.904 105.12L71.76 101.952C72.624 101.424 73.68 102.192 73.536 103.2Z" fill="white"/>
<path d="M255.84 48.624L258.144 50.784C258.24 50.88 258.432 50.976 258.624 50.928L261.696 50.256C262.128 50.16 262.512 50.64 262.32 51.072L260.976 53.904C260.88 54.048 260.88 54.24 260.976 54.432L262.56 57.12C262.8 57.552 262.464 58.032 261.984 57.984L258.864 57.552C258.72 57.552 258.528 57.6 258.384 57.744L256.272 60.048C255.984 60.432 255.408 60.24 255.312 59.808L254.736 56.736C254.688 56.544 254.592 56.4 254.4 56.304L251.568 55.008C251.136 54.816 251.088 54.24 251.52 54L254.256 52.512C254.448 52.416 254.544 52.272 254.544 52.08L254.88 48.96C254.928 48.48 255.504 48.288 255.84 48.624Z" fill="#0487FF"/>
<path d="M328.992 163.584L331.968 166.368C332.16 166.56 332.4 166.608 332.64 166.56L336.624 165.744C337.248 165.6 337.728 166.224 337.44 166.8L335.712 170.448C335.616 170.688 335.616 170.928 335.712 171.168L337.776 174.72C338.064 175.248 337.632 175.92 337.008 175.824L332.976 175.296C332.736 175.248 332.496 175.344 332.304 175.536L329.568 178.56C329.136 178.992 328.416 178.8 328.272 178.176L327.552 174.144C327.504 173.904 327.36 173.712 327.12 173.616L323.376 171.936C322.848 171.696 322.8 170.88 323.328 170.592L326.928 168.672C327.168 168.528 327.312 168.336 327.312 168.096L327.744 164.016C327.84 163.392 328.56 163.152 328.992 163.584Z" fill="#0487FF"/>
<path opacity="0.3" d="M328.992 163.584L331.968 166.368C332.16 166.56 332.4 166.608 332.64 166.56L336.624 165.744C337.248 165.6 337.728 166.224 337.44 166.8L335.712 170.448C335.616 170.688 335.616 170.928 335.712 171.168L337.776 174.72C338.064 175.248 337.632 175.92 337.008 175.824L332.976 175.296C332.736 175.248 332.496 175.344 332.304 175.536L329.568 178.56C329.136 178.992 328.416 178.8 328.272 178.176L327.552 174.144C327.504 173.904 327.36 173.712 327.12 173.616L323.376 171.936C322.848 171.696 322.8 170.88 323.328 170.592L326.928 168.672C327.168 168.528 327.312 168.336 327.312 168.096L327.744 164.016C327.84 163.392 328.56 163.152 328.992 163.584Z" fill="white"/>
<path d="M81.312 335.136L84.864 338.496C85.056 338.688 85.344 338.784 85.632 338.736L90.432 337.728C91.152 337.584 91.728 338.304 91.392 338.976L89.328 343.392C89.184 343.632 89.184 343.968 89.328 344.208L91.776 348.432C92.16 349.104 91.632 349.872 90.864 349.776L86.016 349.152C85.728 349.104 85.44 349.2 85.248 349.44L81.984 353.04C81.504 353.568 80.592 353.328 80.448 352.608L79.536 347.808C79.488 347.52 79.296 347.28 79.056 347.136L74.592 345.168C73.92 344.832 73.872 343.92 74.544 343.536L78.816 341.232C79.056 341.088 79.248 340.848 79.296 340.512L79.824 335.664C79.872 334.944 80.784 334.608 81.312 335.136Z" fill="#0487FF"/>
<path opacity="0.3" d="M81.312 335.136L84.864 338.496C85.056 338.688 85.344 338.784 85.632 338.736L90.432 337.728C91.152 337.584 91.728 338.304 91.392 338.976L89.328 343.392C89.184 343.632 89.184 343.968 89.328 344.208L91.776 348.432C92.16 349.104 91.632 349.872 90.864 349.776L86.016 349.152C85.728 349.104 85.44 349.2 85.248 349.44L81.984 353.04C81.504 353.568 80.592 353.328 80.448 352.608L79.536 347.808C79.488 347.52 79.296 347.28 79.056 347.136L74.592 345.168C73.92 344.832 73.872 343.92 74.544 343.536L78.816 341.232C79.056 341.088 79.248 340.848 79.296 340.512L79.824 335.664C79.872 334.944 80.784 334.608 81.312 335.136Z" fill="white"/>
<path d="M412.704 273.84L411.456 279.456C411.408 279.792 411.504 280.128 411.744 280.368L415.632 284.544C416.208 285.216 415.824 286.224 414.96 286.32L409.296 286.896C408.96 286.896 408.624 287.136 408.48 287.424L405.696 292.416C405.264 293.184 404.16 293.136 403.824 292.32L401.52 287.088C401.376 286.8 401.088 286.56 400.752 286.464L395.136 285.408C394.32 285.216 393.984 284.16 394.656 283.584L398.928 279.792C399.168 279.552 399.312 279.216 399.264 278.88L398.592 273.216C398.448 272.352 399.408 271.728 400.128 272.16L405.072 275.04C405.36 275.232 405.744 275.232 406.08 275.088L411.216 272.688C412.032 272.304 412.896 273.024 412.704 273.84Z" fill="#0487FF"/>
<path opacity="0.3" d="M412.704 273.84L411.456 279.456C411.408 279.792 411.504 280.128 411.744 280.368L415.632 284.544C416.208 285.216 415.824 286.224 414.96 286.32L409.296 286.896C408.96 286.896 408.624 287.136 408.48 287.424L405.696 292.416C405.264 293.184 404.16 293.136 403.824 292.32L401.52 287.088C401.376 286.8 401.088 286.56 400.752 286.464L395.136 285.408C394.32 285.216 393.984 284.16 394.656 283.584L398.928 279.792C399.168 279.552 399.312 279.216 399.264 278.88L398.592 273.216C398.448 272.352 399.408 271.728 400.128 272.16L405.072 275.04C405.36 275.232 405.744 275.232 406.08 275.088L411.216 272.688C412.032 272.304 412.896 273.024 412.704 273.84Z" fill="white"/>
<path d="M190.752 70.512C196.352 76.016 201.968 81.536 207.6 87.072C208.272 87.744 209.28 86.688 208.608 86.064C202.976 80.528 197.36 74.992 191.76 69.456C191.088 68.832 190.08 69.84 190.752 70.512Z" fill="#263238"/>
<path d="M234.144 80.4C234.048 69.872 233.968 59.328 233.904 48.768C233.856 47.856 232.416 47.856 232.464 48.768C232.528 59.328 232.608 69.872 232.704 80.4C232.704 81.312 234.144 81.312 234.144 80.4Z" fill="#263238"/>
<path d="M257.424 88.032C263.408 81.952 269.392 75.872 275.376 69.792C276 69.168 274.992 68.112 274.32 68.784C268.368 74.864 262.4 80.944 256.416 87.024C255.744 87.696 256.8 88.704 257.424 88.032Z" fill="#263238"/>
<path d="M190.416 220.848C191.28 218.016 190.608 214.704 188.688 212.4C186.72 210.144 183.6 208.944 180.624 209.376C178.848 204.624 172.608 202.176 168.048 204.432C163.536 206.688 161.712 213.12 164.4 217.44C160.8 217.056 153.168 220.992 155.76 228L197.568 227.616C198.288 223.776 194.16 219.888 190.416 220.848Z" fill="#0487FF"/>
<g opacity="0.8">
<path d="M190.416 220.848C191.28 218.016 190.608 214.704 188.688 212.4C186.72 210.144 183.6 208.944 180.624 209.376C178.848 204.624 172.608 202.176 168.048 204.432C163.536 206.688 161.712 213.12 164.4 217.44C160.8 217.056 153.168 220.992 155.76 228L197.568 227.616C198.288 223.776 194.16 219.888 190.416 220.848Z" fill="white"/>
</g>
<path d="M321.408 126.24C322.368 123.216 321.696 119.664 319.632 117.168C317.568 114.72 314.208 113.424 310.992 113.856C309.12 108.72 302.448 106.032 297.552 108.432C292.656 110.832 290.688 117.744 293.52 122.4C289.632 121.968 281.472 126.096 284.16 133.68L329.04 133.584C329.856 129.456 325.488 125.28 321.408 126.24Z" fill="#0487FF"/>
<g opacity="0.7">
<path d="M321.408 126.24C322.368 123.216 321.696 119.664 319.632 117.168C317.568 114.72 314.208 113.424 310.992 113.856C309.12 108.72 302.448 106.032 297.552 108.432C292.656 110.832 290.688 117.744 293.52 122.4C289.632 121.968 281.472 126.096 284.16 133.68L329.04 133.584C329.856 129.456 325.488 125.28 321.408 126.24Z" fill="white"/>
</g>
<path d="M171.408 283.824C172.272 280.752 171.504 277.248 169.392 274.848C167.232 272.4 163.872 271.2 160.704 271.728C158.688 266.64 151.92 264.144 147.072 266.64C142.272 269.136 140.448 276.144 143.424 280.656C139.536 280.32 131.424 284.736 134.352 292.224L179.184 290.976C179.904 286.848 175.44 282.768 171.408 283.824Z" fill="#0487FF"/>
<g opacity="0.7">
<path d="M171.408 283.824C172.272 280.752 171.504 277.248 169.392 274.848C167.232 272.4 163.872 271.2 160.704 271.728C158.688 266.64 151.92 264.144 147.072 266.64C142.272 269.136 140.448 276.144 143.424 280.656C139.536 280.32 131.424 284.736 134.352 292.224L179.184 290.976C179.904 286.848 175.44 282.768 171.408 283.824Z" fill="white"/>
</g>
<path d="M174.336 137.52C176.448 130.224 174.576 121.872 169.536 116.16C164.496 110.448 156.48 107.568 148.944 108.768C144.192 96.768 128.208 90.816 116.736 96.768C105.312 102.72 100.992 119.232 108.048 130.032C98.8319 129.264 79.6799 139.632 86.5439 157.344L192.816 154.464C194.544 144.672 183.936 134.976 174.336 137.52Z" fill="#0487FF"/>
<g opacity="0.7">
<path d="M174.336 137.52C176.448 130.224 174.576 121.872 169.536 116.16C164.496 110.448 156.48 107.568 148.944 108.768C144.192 96.768 128.208 90.816 116.736 96.768C105.312 102.72 100.992 119.232 108.048 130.032C98.8319 129.264 79.6799 139.632 86.5439 157.344L192.816 154.464C194.544 144.672 183.936 134.976 174.336 137.52Z" fill="white"/>
</g>
<path d="M368.832 242.352C370.704 236.448 369.36 229.584 365.328 224.784C361.344 220.032 354.816 217.488 348.672 218.352C344.976 208.416 332.064 203.232 322.56 207.888C313.056 212.544 309.216 225.936 314.784 234.912C307.248 234.048 291.36 242.16 296.64 256.8L383.616 256.56C385.2 248.592 376.752 240.48 368.832 242.352Z" fill="#0487FF"/>
<g opacity="0.7">
<path d="M368.832 242.352C370.704 236.448 369.36 229.584 365.328 224.784C361.344 220.032 354.816 217.488 348.672 218.352C344.976 208.416 332.064 203.232 322.56 207.888C313.056 212.544 309.216 225.936 314.784 234.912C307.248 234.048 291.36 242.16 296.64 256.8L383.616 256.56C385.2 248.592 376.752 240.48 368.832 242.352Z" fill="white"/>
</g>
<path d="M384.912 79.776C386.448 74.544 385.104 68.544 381.456 64.464C377.856 60.336 372.096 58.272 366.672 59.136C363.264 50.544 351.792 46.272 343.584 50.544C335.376 54.816 332.256 66.624 337.344 74.4C330.72 73.824 316.992 81.264 321.936 93.984L398.16 91.92C399.408 84.864 391.776 77.952 384.912 79.776Z" fill="#0487FF"/>
<g opacity="0.8">
<path d="M384.912 79.776C386.448 74.544 385.104 68.544 381.456 64.464C377.856 60.336 372.096 58.272 366.672 59.136C363.264 50.544 351.792 46.272 343.584 50.544C335.376 54.816 332.256 66.624 337.344 74.4C330.72 73.824 316.992 81.264 321.936 93.984L398.16 91.92C399.408 84.864 391.776 77.952 384.912 79.776Z" fill="white"/>
</g>
<path d="M79.2959 264C80.2559 260.592 79.3919 256.704 77.0399 254.064C74.6879 251.376 70.9439 250.032 67.4399 250.608C65.2319 244.992 57.7439 242.208 52.4159 244.992C47.0879 247.776 45.0719 255.456 48.3839 260.496C44.0639 260.16 35.1359 264.96 38.3519 273.264L87.8879 271.92C88.7039 267.312 83.7599 262.8 79.2959 264Z" fill="#0487FF"/>
<g opacity="0.8">
<path d="M79.2959 264C80.2559 260.592 79.3919 256.704 77.0399 254.064C74.6879 251.376 70.9439 250.032 67.4399 250.608C65.2319 244.992 57.7439 242.208 52.4159 244.992C47.0879 247.776 45.0719 255.456 48.3839 260.496C44.0639 260.16 35.1359 264.96 38.3519 273.264L87.8879 271.92C88.7039 267.312 83.7599 262.8 79.2959 264Z" fill="white"/>
</g>
<path d="M233.376 91.296C192.912 91.152 159.936 123.888 159.792 164.352C159.744 186.336 169.536 207.216 186.48 221.184C189.6 223.728 194.352 226.752 194.304 233.184C194.304 233.376 194.736 249.168 194.736 249.168L271.872 248.544C271.872 248.544 272.064 232.128 272.064 231.936C272.016 226.272 276.336 223.824 279.552 221.232C296.496 207.456 306.384 186.768 306.432 164.88C306.576 124.416 273.888 91.44 233.376 91.296Z" fill="#0487FF"/>
<path opacity="0.3" d="M233.376 91.296C192.912 91.152 159.936 123.888 159.792 164.352C159.744 186.336 169.536 207.216 186.48 221.184C189.6 223.728 194.352 226.752 194.304 233.184C194.304 233.376 194.736 249.168 194.736 249.168L271.872 248.544C271.872 248.544 272.064 232.128 272.064 231.936C272.016 226.272 276.336 223.824 279.552 221.232C296.496 207.456 306.384 186.768 306.432 164.88C306.576 124.416 273.888 91.44 233.376 91.296Z" fill="white"/>
<path d="M213.072 245.856C220.8 221.664 223.824 195.936 222.096 170.64C221.904 167.856 221.76 165.024 221.28 162.288C220.896 160.128 220.32 157.776 218.976 155.952C217.872 154.464 216.096 153.456 214.128 153.984C212.016 154.56 210.624 156.672 209.712 158.544C207.36 163.584 207.072 169.776 207.648 175.2C208.224 180.912 209.856 186.384 212.256 191.568C214.56 196.56 217.584 201.36 221.328 205.392C224.736 209.136 229.296 212.4 234.576 212.256C239.952 212.112 244.752 208.8 248.352 205.056C251.952 201.36 254.784 196.896 256.896 192.192C259.104 187.2 260.592 181.92 261.216 176.496C261.888 171.168 261.888 165.408 260.4 160.224C259.344 156.528 256.896 151.152 252.336 151.152C247.056 151.152 244.656 157.632 244.08 161.856C243.648 164.928 243.744 168 243.888 171.072C244.048 174.4 244.24 177.728 244.464 181.056C244.912 187.616 245.536 194.16 246.336 200.688C247.92 213.696 250.128 226.608 253.008 239.376C253.712 242.48 254.448 245.568 255.216 248.64C255.552 249.984 257.664 249.408 257.328 248.064C251.376 224.688 247.776 200.736 246.336 176.64C246.144 173.76 246 170.832 245.952 167.904C245.856 164.976 245.952 161.952 246.864 159.12C247.536 157.056 248.784 154.656 250.848 153.648C252.576 152.832 254.256 153.696 255.456 155.04C258.528 158.496 259.2 163.872 259.392 168.336C259.632 173.424 259.008 178.512 257.712 183.456C255.216 192.768 249.984 202.8 241.44 207.888C237.072 210.48 232.224 210.816 227.808 208.128C223.536 205.44 220.272 201.12 217.632 196.944C212.064 188.112 208.704 177.552 209.808 167.088C210.048 164.496 210.528 161.808 211.68 159.456C212.4 157.968 213.888 155.376 215.952 156.144C217.68 156.768 218.352 159.264 218.784 160.848C219.408 163.2 219.552 165.6 219.744 168C221.664 191.232 219.504 214.8 213.36 237.312C212.624 239.968 211.84 242.624 211.008 245.28C210.576 246.576 212.64 247.152 213.072 245.856Z" fill="#263238"/>
<path d="M276.096 253.2L190.992 253.872C188.448 253.872 186.336 251.856 186.336 249.264C186.288 246.672 188.352 244.608 190.896 244.56L276 243.888C278.544 243.84 280.656 245.904 280.704 248.496C280.704 251.04 278.64 253.152 276.096 253.2Z" fill="#263238"/>
<path opacity="0.3" d="M276.096 253.2L190.992 253.872C188.448 253.872 186.336 251.856 186.336 249.264C186.288 246.672 188.352 244.608 190.896 244.56L276 243.888C278.544 243.84 280.656 245.904 280.704 248.496C280.704 251.04 278.64 253.152 276.096 253.2Z" fill="white"/>
<path d="M274.752 261.36L192.432 262.032C189.984 262.032 187.92 260.064 187.92 257.568C187.872 255.072 189.888 253.056 192.384 253.008L274.704 252.336C277.152 252.336 279.216 254.304 279.216 256.8V256.848C279.264 259.296 277.248 261.36 274.752 261.36Z" fill="#263238"/>
<path opacity="0.3" d="M274.752 261.36L192.432 262.032C189.984 262.032 187.92 260.064 187.92 257.568C187.872 255.072 189.888 253.056 192.384 253.008L274.704 252.336C277.152 252.336 279.216 254.304 279.216 256.8V256.848C279.264 259.296 277.248 261.36 274.752 261.36Z" fill="white"/>
<path d="M204.768 274.752C210.624 285.312 222.864 296.352 234.912 295.536C246.96 294.72 258.144 284.4 262.56 273.216L204.768 274.752Z" fill="#263238"/>
<path d="M269.328 277.632L198.144 278.208C195.648 278.256 193.632 276.24 193.632 273.744C193.584 271.248 195.6 269.232 198.096 269.232L269.232 268.656C271.728 268.608 273.744 270.624 273.792 273.072V273.12C273.792 275.616 271.824 277.632 269.328 277.632Z" fill="#263238"/>
<path opacity="0.3" d="M269.328 277.632L198.144 278.208C195.648 278.256 193.632 276.24 193.632 273.744C193.584 271.248 195.6 269.232 198.096 269.232L269.232 268.656C271.728 268.608 273.744 270.624 273.792 273.072V273.12C273.792 275.616 271.824 277.632 269.328 277.632Z" fill="white"/>
<path d="M273.6 269.328L193.728 270C191.28 270 189.216 268.032 189.216 265.536C189.168 263.04 191.184 261.024 193.68 260.976L273.504 260.352C276 260.304 278.016 262.32 278.064 264.816C278.064 267.312 276.096 269.328 273.6 269.328Z" fill="#263238"/>
<path opacity="0.3" d="M273.6 269.328L193.728 270C191.28 270 189.216 268.032 189.216 265.536C189.168 263.04 191.184 261.024 193.68 260.976L273.504 260.352C276 260.304 278.016 262.32 278.064 264.816C278.064 267.312 276.096 269.328 273.6 269.328Z" fill="white"/>
<path d="M189.984 254.496C212.688 254.064 235.44 254.16 258.144 253.92C264.576 253.888 271.024 253.808 277.488 253.68C278.4 253.632 278.4 252.192 277.488 252.24C254.784 252.672 232.032 252.576 209.328 252.816C202.896 252.848 196.448 252.928 189.984 253.056C189.072 253.104 189.072 254.544 189.984 254.496Z" fill="#263238"/>
<path d="M191.424 262.512C213.312 262.08 235.2 262.176 257.088 261.984C263.328 261.92 269.584 261.824 275.856 261.696C276.768 261.696 276.816 260.256 275.856 260.256C253.968 260.688 232.128 260.592 210.24 260.784C203.968 260.848 197.696 260.944 191.424 261.072C190.512 261.072 190.512 262.512 191.424 262.512Z" fill="#263238"/>
<path d="M194.928 270.72C215.52 270.336 236.112 270.384 256.752 270.336C261.552 270.304 266.368 270.272 271.2 270.24C272.112 270.192 272.112 268.752 271.2 268.8C252 268.992 232.8 268.848 213.648 269.04C207.408 269.072 201.168 269.152 194.928 269.28C193.968 269.328 193.968 270.768 194.928 270.72Z" fill="#263238"/>
<path opacity="0.2" d="M160.368 173.664C160.368 173.664 192.432 224.976 212.784 205.68C233.136 186.384 209.664 148.848 244.8 132.192C279.936 115.536 275.136 104.496 275.136 104.496C275.136 104.496 286.416 111.216 294.24 125.376C294.24 125.376 246.336 132.576 239.424 146.304C232.512 159.984 261.84 210.288 225.456 222.96C189.072 235.632 168.816 199.776 168.816 199.776C168.816 199.776 160.896 184.752 160.368 173.664Z" fill="white"/>
<path opacity="0.2" d="M210.912 107.136C227.424 98.544 236.88 93.456 240.192 91.632C237.952 91.44 235.68 91.328 233.376 91.296C200.64 91.2 172.8 112.608 163.296 142.224C163.2 142.576 163.088 142.928 162.96 143.28C162.96 143.28 163.248 181.488 182.544 162.384C201.792 143.328 189.84 118.176 210.912 107.136Z" fill="white"/>
<path opacity="0.2" d="M274.416 225.6C274.416 225.6 265.44 227.184 258.816 235.2C252.192 243.216 194.448 239.52 194.448 239.52L194.592 244.464C194.592 244.496 194.592 244.528 194.592 244.56L271.92 243.888C271.92 243.888 271.92 243.872 271.92 243.84L272.064 231.936C272.016 229.44 272.88 227.568 274.08 226.032C274.208 225.872 274.32 225.728 274.416 225.6Z" fill="white"/>
</svg>
