<svg width="390" height="360" viewBox="0 0 390 360" fill="none" xmlns="http://www.w3.org/2000/svg">
<path d="M231.113 101.481H166.777C163.171 101.481 160.248 98.5536 160.248 94.9428V76.8121C160.248 73.2013 163.171 70.2742 166.777 70.2742H231.113C234.719 70.2742 237.643 73.2013 237.643 76.8121V94.9428C237.643 98.5536 234.719 101.481 231.113 101.481Z" fill="white"/>
<path d="M222.059 101.966H175.831C166.971 101.966 159.763 94.7485 159.763 85.8773C159.763 77.0061 166.971 69.7891 175.831 69.7891H222.059C230.919 69.7891 238.127 77.0061 238.127 85.8773C238.127 94.7485 230.919 101.966 222.059 101.966ZM175.831 70.7591C167.505 70.7591 160.732 77.541 160.732 85.8773C160.732 94.2136 167.505 100.996 175.831 100.996H222.059C230.384 100.996 237.158 94.2136 237.158 85.8773C237.158 77.541 230.384 70.7591 222.059 70.7591H175.831Z" fill="#263238"/>
<path d="M192.708 98.7562L204.952 113.69L203.516 95.5776" fill="white"/>
<path d="M205.557 115.193L192.333 99.064L193.082 98.4486L204.347 112.188L203.033 95.6162L203.999 95.5396L205.557 115.193Z" fill="#263238"/>
<path d="M214.691 85.879C214.691 87.7461 213.179 89.2644 211.31 89.2644C209.44 89.2644 207.928 87.7461 207.928 85.879C207.928 84.0067 209.44 82.4885 211.31 82.4885C213.179 82.4885 214.691 84.0067 214.691 85.879Z" fill="#E9E9E9"/>
<path d="M189.967 85.879C189.967 87.7461 188.45 89.2644 186.581 89.2644C184.716 89.2644 183.199 87.7461 183.199 85.879C183.199 84.0067 184.716 82.4885 186.581 82.4885C188.45 82.4885 189.967 84.0067 189.967 85.879Z" fill="#E9E9E9"/>
<path d="M202.329 85.879C202.329 87.7461 200.812 89.2644 198.947 89.2644C197.078 89.2644 195.561 87.7461 195.561 85.879C195.561 84.0067 197.078 82.4885 198.947 82.4885C200.812 82.4885 202.329 84.0067 202.329 85.879Z" fill="#1FB6FF"/>
<path d="M295.981 60.7977C302.141 59.7968 306.324 53.9859 305.324 47.8186C304.325 41.6513 298.521 37.4632 292.361 38.4641C286.202 39.465 282.019 45.2759 283.019 51.4432C284.018 57.6105 289.822 61.7987 295.981 60.7977Z" fill="#263238"/>
<path d="M101.088 60.2315C79.3299 64.9442 56.9737 85.4692 60.8767 103.535C64.7798 121.602 93.4643 130.368 115.223 125.655C136.981 120.943 151.455 102.477 147.552 84.4106C143.649 66.3443 122.847 55.5188 101.088 60.2315Z" fill="#F4F4F4"/>
<path d="M192.011 114.648C191.727 117.451 186.687 125.406 182.872 131.089C182.867 131.093 182.867 131.093 182.867 131.098C182.474 131.881 162.116 174.632 153.082 175.988C149.24 176.565 141.712 174.399 134.293 171.697C128.47 169.585 122.716 167.14 118.861 165.441C115.979 164.168 114.159 163.311 114.159 163.311L128.063 140.395C128.063 140.395 130.931 142.172 134.211 144.159C136.145 145.327 138.226 146.568 139.946 147.562C141.922 148.702 143.427 149.513 143.706 149.513C144.63 149.513 164.522 118.591 164.91 117.996L164.915 117.986L165.317 117.327C165.317 117.327 162.646 100.227 169.882 102.8C169.882 102.8 175.078 83.5795 180.041 85.59C182.78 86.6938 177.397 101.486 177.397 101.486C177.397 101.486 182.542 100.767 182.872 105.264C182.872 105.264 186.764 105.278 187.24 109.51C187.24 109.51 192.459 110.114 192.011 114.648Z" fill="white"/>
<path d="M151.692 176.566C148.076 176.566 142.182 175.086 134.127 172.152C129.493 170.472 124.291 168.363 118.666 165.884C115.812 164.623 113.971 163.758 113.953 163.75L113.465 163.52L127.903 139.725L128.318 139.982C128.347 140 131.221 141.781 134.461 143.744C136.705 145.098 138.686 146.273 140.188 147.141C142.482 148.465 143.312 148.864 143.61 148.983C144.919 147.648 152.709 136.006 164.18 118.233L164.812 117.224C164.589 115.692 163.242 105.485 166.534 102.752C167.35 102.074 168.362 101.887 169.549 102.191C170.298 99.5483 173.962 87.3055 178.058 85.2685C178.797 84.9009 179.525 84.8578 180.222 85.1399C182.998 86.258 179.591 96.7616 178.101 100.957C179.032 100.953 180.63 101.102 181.832 102.074C182.649 102.735 183.145 103.657 183.311 104.818C184.385 104.967 187.108 105.68 187.67 109.083C189.688 109.443 192.86 110.973 192.492 114.695V114.696C192.261 116.982 189.166 122.578 183.292 131.332L183.165 131.593C178.22 141.805 161.44 175.224 153.154 176.467C152.718 176.533 152.23 176.566 151.692 176.566ZM114.854 163.1C115.579 163.436 117.071 164.12 119.056 164.997C124.661 167.467 129.843 169.567 134.458 171.241C143.43 174.508 149.847 175.983 153.011 175.508C159.222 174.576 172.21 151.993 182.294 131.17L182.383 130.986V130.897L182.494 130.783C188.111 122.41 191.32 116.664 191.528 114.599C191.923 110.601 187.377 110.014 187.184 109.991L186.802 109.946L186.758 109.564C186.338 105.826 183.01 105.75 182.868 105.749L182.423 105.745L182.388 105.299C182.31 104.222 181.918 103.39 181.223 102.829C179.777 101.659 177.486 101.963 177.464 101.966L176.666 102.078L176.942 101.32C179.454 94.4177 181.283 86.6133 179.86 86.04C179.424 85.8636 178.976 85.8955 178.489 86.1377C174.378 88.182 170.389 102.78 170.35 102.927L170.213 103.433L169.72 103.257C168.648 102.876 167.808 102.955 167.152 103.499C164.607 105.612 165.31 114.143 165.796 117.252L165.823 117.428L164.994 118.76C144.832 149.998 144.127 149.998 143.706 149.998C143.503 149.998 143.197 149.998 139.704 147.982C138.196 147.111 136.21 145.932 133.96 144.575C131.438 143.046 129.137 141.628 128.224 141.064L114.854 163.1Z" fill="#263238"/>
<path d="M139.946 147.562C138.286 152.155 134.202 164.218 134.293 171.697C128.47 169.585 122.716 167.14 118.861 165.441C117.85 163.348 117.036 161.626 117.036 161.489C117.036 161.141 128.841 147.695 128.841 147.695C128.841 147.695 131.402 145.396 134.21 144.159C136.145 145.327 138.227 146.568 139.946 147.562Z" fill="#263238"/>
<path d="M134.293 172.181C134.237 172.181 134.181 172.172 134.128 172.152C129.493 170.472 124.291 168.363 118.666 165.884C118.56 165.838 118.475 165.755 118.425 165.651C116.552 161.773 116.552 161.653 116.552 161.488C116.552 161.252 116.552 160.957 128.477 147.374C128.49 147.359 128.503 147.346 128.518 147.333C128.625 147.237 131.169 144.968 134.016 143.715C134.159 143.651 134.326 143.662 134.461 143.743C136.705 145.098 138.686 146.273 140.188 147.141C140.392 147.259 140.482 147.505 140.402 147.726C138.681 152.488 134.687 164.355 134.777 171.69C134.779 171.849 134.703 171.999 134.573 172.092C134.49 172.151 134.392 172.181 134.293 172.181ZM119.219 165.069C124.502 167.393 129.406 169.388 133.812 171.005C133.957 163.681 137.605 152.659 139.353 147.778C137.945 146.961 136.169 145.906 134.178 144.706C131.693 145.857 129.424 147.827 129.185 148.038C124.88 152.941 118.471 160.316 117.568 161.548C117.71 161.894 118.134 162.818 119.219 165.069Z" fill="#263238"/>
<path d="M177.374 114.466C177.038 114.466 176.768 114.365 176.568 114.248C174.919 113.289 174.807 109.328 174.8 108.879L175.769 108.863C175.794 110.346 176.165 112.892 177.055 113.41C177.207 113.498 177.464 113.584 177.947 113.319C180.09 112.143 181.89 107.012 182.403 105.134L183.337 105.39C183.258 105.681 181.351 112.557 178.413 114.17C178.018 114.387 177.671 114.466 177.374 114.466Z" fill="#263238"/>
<path d="M181.658 118.473C181.323 118.473 181.053 118.372 180.853 118.256C179.204 117.296 179.092 113.335 179.085 112.887L180.053 112.871C180.078 114.354 180.45 116.9 181.339 117.418C181.491 117.506 181.749 117.592 182.232 117.327C184.811 115.911 186.669 109.209 186.688 109.142L187.622 109.397C187.542 109.689 185.636 116.565 182.698 118.178C182.303 118.395 181.955 118.473 181.658 118.473Z" fill="#263238"/>
<path d="M186.503 121.744C185.912 121.744 185.384 121.581 184.924 121.255C183.176 120.015 183.187 116.85 183.188 116.715L184.157 116.725C184.151 117.499 184.377 119.68 185.486 120.464C186.028 120.848 186.729 120.876 187.629 120.549C190.336 119.566 191.469 114.66 191.481 114.611L192.426 114.823C192.376 115.046 191.165 120.297 187.959 121.461C187.439 121.65 186.953 121.744 186.503 121.744Z" fill="#263238"/>
<path d="M169.882 102.8C169.882 102.8 178.933 110.165 175.226 113.814C171.519 117.463 169.82 110.344 169.741 109.283" fill="white"/>
<path d="M173.237 115.334C172.972 115.334 172.709 115.285 172.451 115.188C170.18 114.333 169.302 109.918 169.258 109.319L170.223 109.247C170.277 109.956 171.151 113.662 172.791 114.28C173.403 114.509 174.106 114.236 174.886 113.468C175.423 112.94 175.666 112.309 175.629 111.539C175.463 108.006 169.636 103.224 169.577 103.176L170.188 102.423C170.442 102.63 176.41 107.531 176.597 111.493C176.647 112.54 176.299 113.438 175.565 114.16C174.772 114.941 173.992 115.334 173.237 115.334Z" fill="#263238"/>
<path d="M176.942 101.314L174.493 107.5L175.393 107.857L177.842 101.671L176.942 101.314Z" fill="#263238"/>
<path d="M137.186 142.431C137.186 149.447 130.578 169.073 127.623 172.013C121.161 171.546 93.0961 154.592 93.0961 154.592L108.208 129.917C110.088 130.31 132.131 137.938 137.186 142.431Z" fill="white"/>
<path d="M127.623 172.498C127.612 172.498 127.6 172.498 127.588 172.497C121.085 172.026 93.9961 155.702 92.8463 155.007C92.7358 154.94 92.6563 154.832 92.6258 154.706C92.5954 154.581 92.6161 154.448 92.6835 154.338L107.795 129.663C107.902 129.488 108.108 129.4 108.307 129.442C110.389 129.878 132.463 137.585 137.508 142.068C137.611 142.16 137.67 142.292 137.67 142.431C137.67 149.769 130.972 169.365 127.965 172.358C127.874 172.448 127.751 172.498 127.623 172.498ZM93.7649 154.427C97.2388 156.507 121.206 170.747 127.433 171.507C130.295 168.229 136.569 149.736 136.699 142.651C131.663 138.411 111.79 131.395 108.436 130.473L93.7649 154.427Z" fill="#263238"/>
<path d="M299.36 50.4926C299.36 50.4926 300.827 47.8402 295.509 44.2152C295.509 44.2152 296.243 33.0752 284.873 35.2855C284.873 35.2855 281.023 29.5388 272.679 34.4899C272.679 34.4899 262.227 32.2795 259.384 40.4134C259.384 40.4134 252.691 40.5018 252.6 46.956C252.6 46.956 248.382 51.6418 250.949 56.8581C250.949 56.8581 244.439 61.3672 248.474 67.3791C248.474 67.3791 237.288 74.6289 243.431 84.7963C243.431 84.7963 230.778 91.2505 244.439 101.683C244.439 101.683 241.138 112.558 251.316 115.122C251.316 115.122 253.414 125.367 269.092 127.666C284.771 129.964 302.936 102.302 302.936 102.302C302.936 102.302 324.299 85.769 306.328 68.7938C306.328 68.7938 317.055 57.2119 299.36 50.4926Z" fill="#263238"/>
<path d="M283.268 139.754L278.347 162.638C277.711 165.606 276.462 168.413 274.687 170.877L246.298 202.733C245.502 203.136 244.61 203.351 243.69 203.347L211.079 203.081C210.466 203.072 209.894 202.838 209.469 202.454C209.048 202.064 208.755 201.524 208.682 200.91C208.554 199.706 209.318 198.593 210.489 198.291L224.576 194.632L235.412 191.815L257.384 157.234L262.461 134.876L283.268 139.754Z" fill="white"/>
<path d="M243.719 203.832C243.709 203.832 243.699 203.832 243.688 203.832L211.075 203.566C210.353 203.555 209.669 203.288 209.144 202.814C208.619 202.328 208.285 201.673 208.201 200.968C208.046 199.506 208.957 198.185 210.368 197.821L235.106 191.393L256.931 157.044L261.989 134.768C262.018 134.642 262.095 134.533 262.205 134.465C262.314 134.396 262.448 134.374 262.572 134.404L283.378 139.281C283.636 139.341 283.797 139.597 283.741 139.855L278.82 162.74C278.167 165.788 276.909 168.622 275.081 171.16C275.071 171.174 275.06 171.187 275.049 171.2L246.659 203.056C246.619 203.101 246.57 203.138 246.516 203.166C245.655 203.602 244.689 203.832 243.719 203.832ZM262.826 135.46L257.857 157.342C257.845 157.396 257.823 157.447 257.793 157.494L235.82 192.076C235.755 192.179 235.652 192.254 235.534 192.285L210.61 198.76C209.669 199.003 209.06 199.886 209.164 200.859C209.22 201.33 209.445 201.772 209.798 202.098C210.144 202.41 210.603 202.589 211.086 202.596L243.695 202.862C244.479 202.864 245.285 202.686 245.999 202.34L274.309 170.573C276.051 168.149 277.25 165.445 277.873 162.536L282.694 140.117L262.826 135.46Z" fill="#263238"/>
<path d="M225.345 194.465L214.683 199.3C213.947 199.634 213.486 200.382 213.518 201.191C213.56 202.258 214.437 203.101 215.503 203.101H221.616" fill="white"/>
<path d="M221.616 203.586H215.503C214.171 203.586 213.087 202.543 213.034 201.21C212.994 200.199 213.562 199.276 214.483 198.858L225.145 194.023C225.388 193.912 225.675 194.02 225.786 194.264C225.896 194.508 225.788 194.796 225.544 194.906L214.883 199.742C214.323 199.996 213.977 200.557 214.002 201.172C214.034 201.982 214.693 202.616 215.502 202.616H221.616C221.883 202.616 222.1 202.833 222.1 203.101C222.1 203.369 221.883 203.586 221.616 203.586Z" fill="#263238"/>
<path d="M233.395 196.517L222.12 199.3C221.383 199.634 220.922 200.382 220.954 201.191C220.997 202.258 221.873 203.101 222.939 203.101H229.052" fill="white"/>
<path d="M229.052 203.586H222.939C221.608 203.586 220.523 202.542 220.471 201.21C220.43 200.199 220.999 199.275 221.92 198.858C221.947 198.846 221.975 198.836 222.004 198.829L233.279 196.046C233.537 195.982 233.802 196.141 233.866 196.401C233.93 196.661 233.771 196.924 233.511 196.988L222.282 199.76C221.745 200.021 221.415 200.571 221.439 201.172C221.471 201.981 222.13 202.616 222.94 202.616H229.052C229.32 202.616 229.537 202.833 229.537 203.101C229.537 203.368 229.32 203.586 229.052 203.586Z" fill="#263238"/>
<path d="M290.015 120.445L284.604 142.689L283.017 149.219C281.828 152.16 259.8 141.691 258.89 138.947L258.922 138.819L263.866 118.069C266.478 108.712 274.299 102.113 274.299 102.113L290.015 120.445Z" fill="#E9E9E9"/>
<path d="M281.734 150.22C281.681 150.22 281.628 150.219 281.573 150.218C276.427 150.052 259.341 141.845 258.43 139.101C258.401 139.013 258.397 138.919 258.42 138.83L258.452 138.701L263.394 117.956C266.021 108.546 273.662 102.016 273.986 101.742C274.189 101.572 274.493 101.595 274.666 101.798L290.382 120.13C290.484 120.249 290.522 120.409 290.485 120.561L283.487 149.335C283.481 149.358 283.474 149.38 283.465 149.402C283.246 149.945 282.663 150.22 281.734 150.22ZM259.399 138.908C260.612 141.204 276.606 149.088 281.604 149.248C282.239 149.269 282.499 149.144 282.558 149.056L289.485 120.573L274.252 102.804C272.701 104.224 266.554 110.237 264.332 118.199L259.399 138.908Z" fill="#263238"/>
<path d="M284.604 142.689L283.017 149.22C281.827 152.16 259.8 141.691 258.89 138.948L258.922 138.819C261.57 140.074 264.223 141.324 266.871 142.579C267.886 143.06 268.92 143.546 270.032 143.692C271.147 143.843 272.369 143.6 273.155 142.799C273.947 141.993 274.162 140.77 274.061 139.648C273.96 138.526 273.585 137.445 273.352 136.342C272.954 134.446 272.982 132.458 273.421 130.567C274.349 126.569 277.624 132.087 278.438 133.324C280.442 136.36 282.44 139.401 284.444 142.442C284.499 142.524 284.554 142.606 284.604 142.689Z" fill="#263238"/>
<path d="M203.564 341.354C203.537 341.841 203.466 342.333 203.352 342.818L191.498 342.467L191 342.451L170 341.823L162.283 341.592C159.618 341.524 157.387 339.732 156.656 337.29C156.5 336.773 156.413 336.233 156.401 335.669L156.197 325.194L155.947 312.401L180.137 310.619L180.644 323.045L193.642 330.377L194.636 330.937L199.308 333.571C201.168 334.621 202.504 336.303 203.146 338.228C203.476 339.224 203.624 340.283 203.564 341.354Z" fill="white"/>
<path d="M203.352 343.304C203.347 343.304 203.342 343.304 203.337 343.303L162.269 342.077C159.446 342.005 157.002 340.137 156.192 337.429C156.022 336.864 155.929 336.275 155.917 335.679L155.463 312.411C155.458 312.153 155.655 311.937 155.912 311.918L180.103 310.135C180.231 310.125 180.363 310.17 180.46 310.257C180.558 310.344 180.617 310.468 180.622 310.599L181.118 322.755L199.546 333.148C201.467 334.232 202.908 335.982 203.607 338.075C203.963 339.151 204.111 340.264 204.048 341.381C204.019 341.897 203.944 342.418 203.824 342.929C203.772 343.149 203.576 343.304 203.352 343.304ZM156.441 312.851L156.885 335.66C156.896 336.167 156.974 336.669 157.12 337.15C157.81 339.456 159.89 341.046 162.296 341.107L202.961 342.322C203.022 341.991 203.062 341.658 203.08 341.327C203.137 340.332 203.004 339.341 202.687 338.381C202.065 336.518 200.781 334.959 199.071 333.993L180.407 323.467C180.26 323.385 180.167 323.232 180.16 323.064L179.674 311.14L156.441 312.851Z" fill="#263238"/>
<path d="M203.564 341.354C203.537 341.841 203.466 342.333 203.352 342.818L191.498 342.467C190.528 340.917 190.015 339.061 190.125 337.099C190.281 334.348 191.631 331.948 193.642 330.377L194.637 330.937L199.308 333.571C201.168 334.621 202.504 336.303 203.147 338.229C203.476 339.224 203.624 340.283 203.564 341.354Z" fill="#263238"/>
<path d="M203.352 343.303C203.347 343.303 203.342 343.303 203.337 343.303L191.483 342.952C191.322 342.948 191.173 342.862 191.087 342.725C190.029 341.033 189.529 339.078 189.642 337.072C189.799 334.29 191.148 331.71 193.344 329.995C193.498 329.874 193.71 329.859 193.879 329.954L199.546 333.148C201.466 334.233 202.908 335.982 203.606 338.075C203.963 339.152 204.111 340.264 204.048 341.382C204.019 341.898 203.943 342.418 203.824 342.929C203.772 343.149 203.576 343.303 203.352 343.303ZM191.775 341.99L202.961 342.322C203.022 341.991 203.062 341.658 203.08 341.327C203.137 340.331 203.004 339.34 202.687 338.381C202.065 336.518 200.781 334.959 199.071 333.993L193.691 330.961C191.863 332.501 190.744 334.73 190.609 337.126C190.512 338.845 190.915 340.52 191.775 341.99Z" fill="#263238"/>
<path d="M170 341.823L162.283 341.592C159.617 341.524 157.387 339.733 156.656 337.29C156.5 336.774 156.412 336.233 156.401 335.67L156.197 325.194C160.592 326.746 170.036 330.72 170.312 339.211C170.345 340.166 170.233 341.034 170 341.823Z" fill="#263238"/>
<path d="M170 342.308C169.995 342.308 169.99 342.308 169.986 342.308L162.269 342.077C159.446 342.005 157.002 340.137 156.192 337.429C156.022 336.864 155.929 336.275 155.917 335.679L155.713 325.204C155.71 325.045 155.785 324.894 155.914 324.801C156.042 324.708 156.208 324.684 156.359 324.737C165.603 328 170.595 333 170.797 339.196C170.83 340.171 170.719 341.102 170.465 341.961C170.403 342.167 170.214 342.308 170 342.308ZM156.695 325.89L156.885 335.66C156.896 336.167 156.974 336.669 157.12 337.15C157.81 339.456 159.89 341.046 162.296 341.107L169.631 341.327C169.787 340.668 169.853 339.964 169.828 339.228C169.645 333.61 165.109 329.007 156.695 325.89Z" fill="#263238"/>
<path d="M203.564 341.354C203.537 341.841 203.466 342.333 203.352 342.818L162.283 341.592C159.617 341.524 157.387 339.732 156.656 337.29L203.146 338.229C203.476 339.224 203.624 340.283 203.564 341.354Z" fill="#263238"/>
<path d="M203.352 343.304C203.347 343.304 203.342 343.304 203.337 343.304L162.269 342.077C159.446 342.005 157.002 340.137 156.192 337.429C156.147 337.281 156.176 337.12 156.27 336.997C156.364 336.873 156.502 336.802 156.665 336.805L203.156 337.744C203.362 337.748 203.542 337.881 203.607 338.076C203.963 339.152 204.111 340.264 204.048 341.382C204.019 341.898 203.943 342.418 203.824 342.929C203.772 343.149 203.576 343.304 203.352 343.304ZM157.354 337.789C158.209 339.745 160.119 341.052 162.295 341.107L202.961 342.322C203.022 341.991 203.061 341.658 203.08 341.327C203.13 340.444 203.031 339.564 202.787 338.706L157.354 337.789Z" fill="#263238"/>
<path d="M183.56 322.295C183.591 322.57 183.5 322.855 183.291 323.066L180.76 325.621C180.398 325.988 179.804 325.992 179.434 325.626C179.277 325.469 179.186 325.271 179.163 325.068C179.132 324.794 179.223 324.509 179.431 324.298L181.962 321.743C182.325 321.376 182.919 321.375 183.288 321.737C183.445 321.895 183.537 322.093 183.56 322.295Z" fill="#263238"/>
<path d="M187.384 324.8C187.415 325.074 187.323 325.36 187.115 325.571L184.584 328.126C184.222 328.493 183.628 328.497 183.258 328.131C183.101 327.974 183.01 327.776 182.987 327.573C182.956 327.299 183.047 327.013 183.255 326.803L185.786 324.248C186.148 323.88 186.743 323.879 187.112 324.242C187.269 324.4 187.361 324.597 187.384 324.8Z" fill="#263238"/>
<path d="M191.208 327.306C191.239 327.58 191.147 327.865 190.939 328.076L188.408 330.631C188.046 330.998 187.452 331.002 187.082 330.636C186.925 330.479 186.833 330.281 186.811 330.078C186.779 329.804 186.871 329.519 187.079 329.308L189.61 326.753C189.972 326.386 190.567 326.385 190.936 326.748C191.093 326.905 191.185 327.103 191.208 327.306Z" fill="#263238"/>
<path d="M159.02 339.744C158.993 340.231 158.922 340.722 158.808 341.208L146.954 340.857L146.455 340.841L125.456 340.213L117.739 339.982C115.073 339.914 112.843 338.122 112.112 335.68C111.956 335.163 111.868 334.622 111.857 334.059L111.653 323.584L111.403 310.791L135.593 309.009L136.1 321.434L149.098 328.767L150.092 329.327L154.764 331.961C156.623 333.011 157.96 334.692 158.602 336.618C158.932 337.613 159.08 338.673 159.02 339.744Z" fill="white"/>
<path d="M158.808 341.693C158.803 341.693 158.798 341.693 158.793 341.693L117.725 340.466C114.901 340.394 112.458 338.527 111.648 335.819C111.478 335.254 111.385 334.665 111.373 334.069L110.919 310.8C110.914 310.543 111.111 310.326 111.368 310.307L135.558 308.525C135.688 308.515 135.818 308.559 135.916 308.647C136.014 308.734 136.072 308.857 136.078 308.989L136.573 321.144L155.002 331.538C156.922 332.622 158.364 334.372 159.062 336.464C159.418 337.541 159.567 338.653 159.504 339.771C159.475 340.287 159.399 340.808 159.28 341.319C159.228 341.538 159.032 341.693 158.808 341.693ZM111.897 311.241L112.341 334.049C112.352 334.557 112.43 335.058 112.576 335.539C113.266 337.845 115.346 339.435 117.752 339.497L158.417 340.711C158.478 340.38 158.518 340.047 158.536 339.716C158.593 338.721 158.46 337.73 158.143 336.77C157.521 334.907 156.237 333.349 154.527 332.383L135.862 321.856C135.716 321.774 135.623 321.622 135.616 321.454L135.13 309.529L111.897 311.241Z" fill="#263238"/>
<path d="M159.02 339.744C158.993 340.231 158.922 340.722 158.808 341.208L146.954 340.857C145.983 339.306 145.471 337.451 145.581 335.489C145.736 332.738 147.087 330.338 149.098 328.767L150.092 329.327L154.764 331.96C156.624 333.01 157.96 334.692 158.602 336.618C158.932 337.613 159.08 338.673 159.02 339.744Z" fill="#263238"/>
<path d="M158.808 341.693C158.803 341.693 158.798 341.693 158.793 341.693L146.939 341.342C146.778 341.337 146.629 341.252 146.543 341.115C145.485 339.422 144.985 337.467 145.098 335.461C145.255 332.679 146.604 330.1 148.8 328.384C148.954 328.264 149.165 328.248 149.336 328.344L155.002 331.538C156.922 332.623 158.364 334.372 159.062 336.465C159.419 337.541 159.567 338.654 159.504 339.771C159.475 340.288 159.4 340.808 159.28 341.319C159.228 341.538 159.032 341.693 158.808 341.693ZM147.232 340.38L158.417 340.711C158.478 340.38 158.518 340.047 158.537 339.716C158.593 338.721 158.46 337.73 158.143 336.77C157.521 334.907 156.237 333.349 154.527 332.383L149.147 329.351C147.319 330.891 146.2 333.12 146.065 335.516C145.968 337.234 146.371 338.91 147.232 340.38Z" fill="#263238"/>
<path d="M125.456 340.213L117.739 339.981C115.073 339.913 112.843 338.122 112.112 335.679C111.956 335.163 111.868 334.622 111.857 334.059L111.653 323.583C116.048 325.135 125.492 329.109 125.768 337.601C125.801 338.555 125.689 339.423 125.456 340.213Z" fill="#263238"/>
<path d="M125.456 340.697C125.451 340.697 125.446 340.697 125.442 340.697L117.725 340.466C114.901 340.394 112.458 338.526 111.647 335.818C111.477 335.254 111.385 334.664 111.372 334.069L111.169 323.593C111.166 323.434 111.241 323.283 111.37 323.19C111.498 323.097 111.664 323.073 111.814 323.126C121.058 326.389 126.051 331.389 126.252 337.585C126.286 338.56 126.174 339.491 125.92 340.35C125.86 340.557 125.67 340.697 125.456 340.697ZM112.151 324.279L112.341 334.049C112.352 334.556 112.43 335.058 112.576 335.539C113.266 337.845 115.346 339.435 117.752 339.496L125.087 339.716C125.243 339.058 125.309 338.353 125.284 337.617C125.101 331.999 120.565 327.397 112.151 324.279Z" fill="#263238"/>
<path d="M159.02 339.744C158.993 340.231 158.922 340.722 158.808 341.208L117.739 339.982C115.073 339.914 112.843 338.122 112.111 335.68L158.602 336.618C158.932 337.613 159.08 338.673 159.02 339.744Z" fill="#263238"/>
<path d="M158.808 341.693C158.803 341.693 158.798 341.693 158.793 341.693L117.725 340.467C114.901 340.395 112.458 338.527 111.648 335.819C111.603 335.67 111.632 335.51 111.726 335.386C111.82 335.263 111.964 335.193 112.121 335.195L158.612 336.133C158.817 336.137 158.998 336.271 159.062 336.466C159.418 337.541 159.567 338.654 159.504 339.771C159.475 340.288 159.399 340.808 159.28 341.319C159.228 341.539 159.032 341.693 158.808 341.693ZM112.81 336.179C113.665 338.135 115.575 339.441 117.751 339.497L158.417 340.711C158.477 340.38 158.517 340.047 158.536 339.717C158.586 338.833 158.488 337.953 158.243 337.096L112.81 336.179Z" fill="#263238"/>
<path d="M139.016 320.685C139.047 320.959 138.955 321.245 138.747 321.455L136.216 324.01C135.854 324.378 135.26 324.382 134.89 324.016C134.733 323.858 134.641 323.661 134.618 323.458C134.587 323.184 134.679 322.898 134.887 322.687L137.418 320.132C137.78 319.765 138.374 319.764 138.744 320.127C138.901 320.284 138.993 320.482 139.016 320.685Z" fill="#263238"/>
<path d="M142.84 323.19C142.871 323.464 142.779 323.749 142.571 323.96L140.04 326.515C139.678 326.882 139.084 326.886 138.714 326.521C138.557 326.363 138.465 326.165 138.442 325.963C138.411 325.688 138.503 325.403 138.711 325.192L141.242 322.637C141.604 322.27 142.198 322.269 142.568 322.632C142.725 322.789 142.817 322.987 142.84 323.19Z" fill="#263238"/>
<path d="M146.664 325.695C146.695 325.969 146.603 326.254 146.395 326.465L143.864 329.02C143.502 329.387 142.908 329.391 142.538 329.026C142.381 328.868 142.289 328.67 142.266 328.467C142.235 328.193 142.327 327.908 142.535 327.697L145.066 325.142C145.428 324.775 146.022 324.774 146.392 325.137C146.549 325.294 146.641 325.492 146.664 325.695Z" fill="#263238"/>
<path d="M84.3323 259.593H73.6866V339.844H84.3323V259.593Z" fill="white"/>
<path d="M84.3323 337.329H73.6865C73.4189 337.329 73.2021 337.112 73.2021 336.844V259.593C73.2021 259.325 73.4191 259.107 73.6865 259.107H84.3323C84.5999 259.107 84.8168 259.325 84.8168 259.593V336.844C84.8168 337.112 84.5999 337.329 84.3323 337.329ZM74.1709 336.359H83.8481V260.078H74.1709V336.359Z" fill="#263238"/>
<path d="M91.8035 339.366V344.383H66.2152V339.366C66.2152 337.008 68.1246 335.096 70.4799 335.096H87.5387C89.894 335.095 91.8035 337.008 91.8035 339.366Z" fill="#263238"/>
<path d="M91.8036 344.868H66.2154C65.9479 344.868 65.731 344.651 65.731 344.383V339.366C65.731 336.743 67.8614 334.61 70.4799 334.61H87.5387C90.1575 334.61 92.2879 336.743 92.2879 339.366V344.383C92.2881 344.651 92.0711 344.868 91.8036 344.868ZM66.6997 343.898H91.3191V339.366C91.3191 337.278 89.6232 335.58 87.5387 335.58H70.4799C68.3954 335.58 66.6997 337.278 66.6997 339.366V343.898Z" fill="#263238"/>
<path d="M91.0574 255.713V260.203C91.0574 261.675 89.8652 262.862 88.3946 262.862H69.6241C68.1538 262.862 66.9615 261.675 66.9615 260.203V255.713C66.9615 254.241 68.1538 253.047 69.6241 253.047H88.3946C89.8652 253.047 91.0574 254.241 91.0574 255.713Z" fill="white"/>
<path d="M88.3944 263.347H69.6241C67.8889 263.347 66.4771 261.937 66.4771 260.203V255.713C66.4771 253.976 67.8889 252.562 69.6241 252.562H88.3944C90.1298 252.562 91.5417 253.976 91.5417 255.713V260.203C91.5417 261.937 90.1298 263.347 88.3944 263.347ZM69.6241 253.532C68.4229 253.532 67.446 254.511 67.446 255.713V260.203C67.446 261.402 68.4232 262.377 69.6241 262.377H88.3944C89.5954 262.377 90.5727 261.402 90.5727 260.203V255.713C90.5727 254.51 89.5954 253.532 88.3944 253.532H69.6241Z" fill="#263238"/>
<path d="M104.656 346.61V348.178C104.656 349.012 103.983 349.686 103.149 349.686H54.8695C54.0357 349.686 53.3626 349.012 53.3626 348.178V346.61C53.3626 343.995 55.4766 341.878 58.0807 341.878H99.9302C102.542 341.879 104.656 343.995 104.656 346.61Z" fill="white"/>
<path d="M103.149 350.171H54.8697C53.7718 350.171 52.8783 349.277 52.8783 348.178V346.61C52.8783 343.734 55.2121 341.394 58.0809 341.394H99.9304C102.803 341.394 105.14 343.734 105.14 346.61V348.178C105.14 349.277 104.247 350.171 103.149 350.171ZM58.0809 342.363C55.7463 342.363 53.8471 344.268 53.8471 346.61V348.177C53.8471 348.742 54.3056 349.201 54.8697 349.201H103.149C103.713 349.201 104.172 348.742 104.172 348.177V346.61C104.172 344.268 102.269 342.363 99.9306 342.363H58.0809Z" fill="#263238"/>
<path d="M108.674 256.296H63.4414C51.1616 256.296 40.1804 248.054 36.7357 236.252L21.0498 179.581C20.2004 176.669 21.8692 173.619 24.7774 172.768C27.687 171.917 30.7324 173.588 31.5825 176.5L47.2684 233.171C49.3543 240.318 56.0051 245.31 63.4417 245.31H108.674C111.704 245.31 114.16 247.769 114.16 250.803C114.16 253.837 111.704 256.296 108.674 256.296Z" fill="#263238"/>
<path d="M108.674 256.782H63.4415C50.9485 256.782 39.7755 248.396 36.2705 236.389L20.5826 179.712C19.6615 176.554 21.4813 173.228 24.6414 172.303C27.8009 171.379 31.1238 173.201 32.0471 176.365L47.735 233.042C49.7591 239.977 56.2185 244.826 63.4415 244.826H108.674C111.966 244.826 114.644 247.508 114.644 250.804C114.644 254.1 111.966 256.782 108.674 256.782ZM26.3133 173.033C25.8501 173.033 25.3794 173.098 24.913 173.234C22.266 174.008 20.7413 176.795 21.5146 179.446L37.2026 236.123C40.5853 247.713 51.376 255.812 63.4415 255.812H108.674C111.432 255.812 113.676 253.565 113.676 250.804C113.676 248.042 111.432 245.796 108.674 245.796H63.4415C55.791 245.796 48.9492 240.66 46.8032 233.308L31.1152 176.63C30.4793 174.452 28.4786 173.033 26.3133 173.033Z" fill="#263238"/>
<path d="M127.755 256.296C130.786 256.296 133.242 253.837 133.242 250.803C133.242 247.769 130.786 245.31 127.755 245.31H91.6311C84.1946 245.31 77.5438 240.318 75.4578 233.171L59.7719 176.5C58.9219 173.588 55.8765 171.917 52.9668 172.768H24.7772C27.6868 171.917 30.7322 173.588 31.5823 176.5L47.2682 233.171C49.3541 240.318 56.0049 245.31 63.4414 245.31H108.674C111.704 245.31 114.16 247.769 114.16 250.803C114.16 253.837 111.704 256.296 108.674 256.296H127.755Z" fill="white"/>
<path d="M127.755 256.782H108.674C108.406 256.782 108.189 256.564 108.189 256.297C108.189 256.029 108.406 255.812 108.674 255.812C111.432 255.812 113.676 253.565 113.676 250.803C113.676 248.042 111.432 245.795 108.674 245.795H63.4415C55.791 245.795 48.9492 240.66 46.8032 233.307L31.1152 176.63C30.6271 174.957 29.3334 173.732 27.7784 173.253H24.7772C24.5361 173.253 24.3319 173.076 24.2978 172.837C24.2635 172.598 24.4103 172.37 24.6414 172.302C25.7493 171.978 26.8778 171.992 27.9152 172.283H52.8989C56.0388 171.405 59.3199 173.223 60.2369 176.364L75.9249 233.041C77.9489 239.977 84.4085 244.825 91.6313 244.825H127.755C131.048 244.825 133.726 247.507 133.726 250.803C133.726 254.1 131.048 256.782 127.755 256.782ZM111.931 255.812H127.755C130.514 255.812 132.757 253.565 132.757 250.803C132.757 248.042 130.514 245.795 127.755 245.795H111.931C113.563 246.863 114.645 248.709 114.645 250.803C114.644 252.897 113.563 254.743 111.931 255.812ZM29.8871 173.253C30.8914 174.002 31.6696 175.071 32.0471 176.364L47.735 233.042C49.7591 239.977 56.2185 244.825 63.4415 244.825H85.9531C80.7711 243.006 76.587 238.768 74.9928 233.307L59.3049 176.63C58.5332 173.986 55.748 172.46 53.1024 173.234C53.0582 173.247 53.0125 173.253 52.9667 173.253L29.8871 173.253Z" fill="#263238"/>
<path d="M88.9719 196.198H114.957L120.616 210.132L155.985 218.126C160.951 219.45 164.862 223.282 166.29 228.225L185.399 311.696L152.969 312.818L139.474 245.31H93.143L88.9719 196.198Z" fill="white"/>
<path d="M152.969 313.303C152.739 313.303 152.54 313.14 152.494 312.913L139.077 245.795H93.143C92.8913 245.795 92.6819 245.602 92.6603 245.351L88.4893 196.239C88.4779 196.104 88.5236 195.97 88.6153 195.87C88.707 195.77 88.8365 195.713 88.9719 195.713H114.957C115.154 195.713 115.332 195.832 115.406 196.015L120.969 209.714L156.092 217.653C161.209 219.017 165.289 223.014 166.755 228.09L185.871 311.587C185.904 311.728 185.871 311.877 185.784 311.991C185.695 312.106 185.561 312.175 185.416 312.181L152.986 313.303C152.98 313.303 152.975 313.303 152.969 313.303ZM93.5879 244.825H139.474C139.705 244.825 139.904 244.988 139.949 245.215L153.364 312.319L184.796 311.231L165.818 228.333C164.452 223.609 160.634 219.867 155.86 218.595L120.509 210.605C120.355 210.57 120.227 210.461 120.167 210.314L114.631 196.683H89.4995L93.5879 244.825Z" fill="#263238"/>
<path d="M55.5385 195.955L56.0171 227.584C57.1564 237.521 65.557 245.021 75.5457 245.021H107.584L108.518 314.071H140.642L139.296 235.666C139.1 225.346 131.797 216.535 121.702 214.441L97.499 209.419L96.1917 195.955L55.5385 195.955Z" fill="white"/>
<path d="M140.642 314.556H108.518C108.253 314.556 108.037 314.343 108.034 314.077L107.106 245.506H75.5459C65.3061 245.506 56.7038 237.825 55.5359 227.64L55.054 195.962C55.0522 195.833 55.1023 195.707 55.1932 195.615C55.2844 195.522 55.4086 195.47 55.5383 195.47H96.1915C96.459 195.47 96.676 195.687 96.676 195.955C96.676 196.223 96.459 196.44 96.1915 196.44H56.0303L56.5018 227.577C57.6102 237.225 65.7988 244.536 75.5461 244.536H107.585C107.85 244.536 108.066 244.749 108.069 245.015L108.996 313.586H140.15L138.812 235.675C138.619 225.514 131.543 216.978 121.604 214.916L106.536 211.54C106.275 211.482 106.111 211.222 106.169 210.961C106.228 210.7 106.488 210.535 106.748 210.594L121.808 213.967C132.186 216.12 139.579 225.04 139.781 235.657L141.127 314.062C141.129 314.192 141.079 314.318 140.988 314.411C140.897 314.504 140.772 314.556 140.642 314.556Z" fill="#263238"/>
<path d="M120.616 203.509C120.77 207.435 53.0198 210.097 52.8662 206.171C52.8662 206.171 50.1459 147.866 56.9705 133.177C60.5162 125.546 104.51 121.337 113.374 134.113C118.615 141.666 120.616 203.509 120.616 203.509Z" fill="white"/>
<path d="M71.7978 208.565C62.4874 208.565 55.0306 208.131 53.1075 207.117C52.6406 206.871 52.3965 206.559 52.3821 206.19C52.2708 203.809 49.7343 147.602 56.5312 132.973C57.2234 131.483 59.276 130.139 62.633 128.976C73.5072 125.208 98.1787 123.954 109.978 129.942C110.217 130.063 110.312 130.355 110.191 130.594C110.07 130.833 109.779 130.928 109.54 130.807C97.9532 124.927 73.668 126.179 62.9496 129.892C59.8941 130.951 57.9784 132.158 57.4097 133.382C50.7757 147.66 53.2745 204.485 53.3486 206.118C54.2019 207.316 66.911 208.083 86.8383 207.3C106.763 206.517 119.374 204.754 120.131 203.493C120.088 202.202 118.928 167.999 116.207 147.991C116.171 147.726 116.357 147.482 116.622 147.445C116.884 147.409 117.131 147.595 117.167 147.861C119.934 168.201 121.089 203.143 121.1 203.493C121.114 203.859 120.895 204.189 120.449 204.471C116.751 206.807 90.5283 208.565 71.7978 208.565ZM120.131 203.526C120.131 203.527 120.131 203.527 120.132 203.528C120.132 203.527 120.131 203.527 120.131 203.526Z" fill="#263238"/>
<path d="M141.84 315.561H106.594C105.879 315.561 105.299 314.98 105.299 314.264V308.089C105.299 307.372 105.879 306.792 106.594 306.792H141.84C142.555 306.792 143.135 307.372 143.135 308.089V314.264C143.135 314.98 142.555 315.561 141.84 315.561Z" fill="#263238"/>
<path d="M140.043 316.046H108.391C106.419 316.046 104.814 314.44 104.814 312.465V309.888C104.814 307.913 106.418 306.307 108.391 306.307H140.043C142.015 306.307 143.62 307.913 143.62 309.888V312.465C143.62 314.44 142.015 316.046 140.043 316.046ZM108.391 307.277C106.953 307.277 105.783 308.448 105.783 309.888V312.465C105.783 313.905 106.953 315.076 108.391 315.076H140.043C141.481 315.076 142.651 313.905 142.651 312.465V309.888C142.651 308.448 141.481 307.277 140.043 307.277H108.391Z" fill="#263238"/>
<path d="M185.398 315.561H150.153C149.438 315.561 148.857 314.98 148.857 314.264V308.089C148.857 307.372 149.438 306.792 150.153 306.792H185.398C186.114 306.792 186.694 307.372 186.694 308.089V314.264C186.694 314.98 186.114 315.561 185.398 315.561Z" fill="#263238"/>
<path d="M183.602 316.046H151.949C149.977 316.046 148.373 314.44 148.373 312.465V309.888C148.373 307.913 149.977 306.307 151.949 306.307H183.602C185.574 306.307 187.178 307.913 187.178 309.888V312.465C187.178 314.44 185.574 316.046 183.602 316.046ZM151.949 307.277C150.512 307.277 149.342 308.448 149.342 309.888V312.465C149.342 313.905 150.512 315.076 151.949 315.076H183.602C185.04 315.076 186.21 313.905 186.21 312.465V309.888C186.21 308.448 185.04 307.277 183.602 307.277H151.949Z" fill="#263238"/>
<path d="M276.417 212.144V216.908C276.417 217.861 275.649 218.629 274.697 218.629H256.852C255.907 218.629 255.139 217.861 255.139 216.908V212.144H276.417Z" fill="white"/>
<path d="M274.697 219.115H256.852C255.64 219.115 254.654 218.125 254.654 216.908V212.143C254.654 211.875 254.871 211.658 255.139 211.658H276.417C276.685 211.658 276.901 211.875 276.901 212.143V216.908C276.901 218.125 275.912 219.115 274.697 219.115ZM255.623 212.628V216.908C255.623 217.59 256.174 218.144 256.852 218.144H274.697C275.378 218.144 275.932 217.59 275.932 216.908V212.628H255.623Z" fill="#263238"/>
<path d="M258.888 206.439V209.12C258.888 210.789 257.536 212.143 255.869 212.143H31.5423C29.8815 212.143 28.5295 210.79 28.5295 209.12V206.439C28.5295 204.77 29.8815 203.416 31.5423 203.416H255.869C257.536 203.416 258.888 204.77 258.888 206.439Z" fill="#F4F4F4"/>
<path d="M255.869 212.629H31.5423C29.6138 212.629 28.045 211.055 28.045 209.121V206.439C28.045 204.505 29.614 202.931 31.5423 202.931H255.869C257.801 202.931 259.373 204.505 259.373 206.439V209.121C259.373 211.055 257.801 212.629 255.869 212.629ZM31.5423 203.901C30.1483 203.901 29.0138 205.04 29.0138 206.439V209.12C29.0138 210.52 30.1483 211.658 31.5423 211.658H255.869C257.267 211.658 258.404 210.52 258.404 209.12V206.439C258.404 205.04 257.267 203.901 255.869 203.901H31.5423Z" fill="#263238"/>
<path d="M297.986 206.439V209.12C297.986 210.789 296.634 212.143 294.973 212.143H240.846C239.178 212.143 237.826 210.79 237.826 209.12V206.439C237.826 204.77 239.178 203.416 240.846 203.416H294.973C296.634 203.416 297.986 204.77 297.986 206.439Z" fill="#263238"/>
<path d="M294.973 212.629H240.846C238.914 212.629 237.342 211.055 237.342 209.121V206.439C237.342 204.505 238.914 202.931 240.846 202.931H294.973C296.901 202.931 298.47 204.505 298.47 206.439V209.121C298.47 211.055 296.901 212.629 294.973 212.629ZM240.846 203.901C239.448 203.901 238.311 205.04 238.311 206.439V209.12C238.311 210.52 239.448 211.658 240.846 211.658H294.973C296.367 211.658 297.501 210.52 297.501 209.12V206.439C297.501 205.04 296.367 203.901 294.973 203.901H240.846Z" fill="#263238"/>
<path d="M212.76 212.144V216.908C212.76 217.861 213.528 218.629 214.479 218.629H232.325C233.27 218.629 234.038 217.861 234.038 216.908V212.144H212.76Z" fill="#263238"/>
<path d="M232.325 219.115H214.479C213.264 219.115 212.275 218.125 212.275 216.908V212.143C212.275 211.875 212.492 211.658 212.76 211.658H234.038C234.305 211.658 234.522 211.875 234.522 212.143V216.908C234.522 218.125 233.537 219.115 232.325 219.115ZM213.244 212.628V216.908C213.244 217.59 213.798 218.144 214.479 218.144H232.325C233.002 218.144 233.553 217.59 233.553 216.908V212.628H213.244Z" fill="#263238"/>
<path d="M284.495 341.693C284.317 341.693 284.146 341.595 284.061 341.425L222.965 218.846C222.846 218.607 222.943 218.315 223.182 218.196C223.422 218.076 223.713 218.174 223.832 218.413L284.928 340.992C285.048 341.231 284.95 341.523 284.711 341.642C284.641 341.677 284.568 341.693 284.495 341.693Z" fill="#263238"/>
<path d="M104.612 212.144V216.908C104.612 217.861 103.845 218.629 102.893 218.629H85.0472C84.1022 218.629 83.3344 217.861 83.3344 216.908V212.144H104.612Z" fill="#263238"/>
<path d="M102.893 219.115H85.0472C83.8355 219.115 82.8499 218.125 82.8499 216.908V212.143C82.8499 211.875 83.0668 211.658 83.3343 211.658H104.612C104.88 211.658 105.097 211.875 105.097 212.143V216.908C105.097 218.125 104.108 219.115 102.893 219.115ZM83.8186 212.628V216.908C83.8186 217.59 84.3697 218.144 85.0472 218.144H102.893C103.574 218.144 104.128 217.59 104.128 216.908V212.628H83.8186Z" fill="#263238"/>
<path d="M44.5136 350C44.4545 350 44.3942 349.99 44.3357 349.968C44.0697 349.871 43.9337 349.579 44.032 349.316L93.0047 218.332C93.1031 218.069 93.3991 217.934 93.6645 218.032C93.9304 218.129 94.0664 218.421 93.9681 218.684L44.9954 349.668C44.9186 349.873 44.7224 350 44.5136 350Z" fill="#263238"/>
<path d="M209.522 343.303C209.455 343.303 209.388 343.289 209.322 343.26C209.079 343.149 208.971 342.862 209.082 342.618L265.337 218.429C265.447 218.185 265.734 218.077 265.978 218.188C266.222 218.298 266.33 218.586 266.219 218.83L209.964 343.019C209.883 343.198 209.707 343.303 209.522 343.303Z" fill="#263238"/>
<path d="M72.6263 217.387C72.6263 217.387 73.4352 217.965 74.5284 218.925L74.5337 218.926C77.0016 221.096 80.9218 225.197 80.2532 228.931C79.5085 233.092 76.4639 234.915 75.1182 235.526L75.1154 235.528C74.7214 235.709 74.4718 235.784 74.4718 235.784" fill="white"/>
<path d="M74.4714 236.269C74.2629 236.269 74.0705 236.133 74.0076 235.923C73.9308 235.666 74.0764 235.396 74.3325 235.319C74.3339 235.318 74.5511 235.252 74.8907 235.098C74.8998 235.093 74.909 235.088 74.9181 235.084C76.1426 234.528 79.0675 232.807 79.7764 228.845C80.4008 225.358 76.6003 221.395 74.2505 219.322C74.2361 219.312 74.2221 219.301 74.2089 219.29C73.1494 218.359 72.3531 217.788 72.3452 217.782C72.1274 217.626 72.0767 217.324 72.2322 217.106C72.387 216.888 72.6895 216.837 72.9077 216.992C72.9409 217.016 73.7307 217.582 74.8109 218.528C74.8255 218.538 74.8397 218.549 74.8529 218.561C77.3534 220.76 81.4414 225.041 80.73 229.016C79.9447 233.404 76.7211 235.325 75.3431 235.956C75.3344 235.96 75.3257 235.965 75.3167 235.969C74.8972 236.161 74.622 236.244 74.6106 236.248C74.5643 236.262 74.5174 236.269 74.4714 236.269Z" fill="#263238"/>
<path d="M75.1182 235.526C80.9527 231.344 74.5284 218.926 74.5284 218.926L74.5337 218.926C77.0016 221.096 80.9218 225.197 80.2532 228.931C79.5085 233.092 76.4639 234.915 75.1182 235.526Z" fill="#263238"/>
<path d="M75.3184 235.968L74.8363 235.132C80.2668 231.24 74.1606 219.269 74.0981 219.149L73.697 218.373L74.7271 218.455L74.8531 218.562C77.3536 220.76 81.4416 225.042 80.7302 229.017C79.94 233.431 76.6823 235.348 75.3184 235.968ZM75.9961 220.988C77.2567 224.064 79.019 229.564 77.4289 233.354C78.4433 232.355 79.4085 230.902 79.7764 228.845C80.2599 226.145 78.0908 223.16 75.9961 220.988Z" fill="#263238"/>
<path d="M150.783 199.296H122.718V203.416H150.783V199.296Z" fill="#263238"/>
<path d="M150.783 203.901H122.718C122.451 203.901 122.234 203.684 122.234 203.416V199.296C122.234 199.029 122.451 198.811 122.718 198.811H150.783C151.051 198.811 151.268 199.029 151.268 199.296V203.416C151.268 203.684 151.051 203.901 150.783 203.901ZM123.203 202.931H150.299V199.781H123.203V202.931Z" fill="#263238"/>
<path d="M213.072 162.258L202.921 203.416H146.01L159.685 160.209C160.181 158.632 161.638 157.568 163.286 157.568H209.401C211.857 157.568 213.658 159.874 213.072 162.258Z" fill="#1FB6FF"/>
<path d="M202.921 203.901H146.01C145.856 203.901 145.71 203.828 145.619 203.703C145.528 203.578 145.502 203.417 145.548 203.27L159.223 160.062C159.785 158.28 161.417 157.083 163.286 157.083H209.401C210.72 157.083 211.943 157.679 212.757 158.718C213.571 159.758 213.857 161.091 213.542 162.374C213.542 162.374 213.542 162.374 213.542 162.374L203.391 203.533C203.338 203.749 203.144 203.901 202.921 203.901ZM146.672 202.931H202.542L212.602 162.142C212.845 161.15 212.624 160.12 211.995 159.317C211.366 158.514 210.421 158.053 209.401 158.053H163.286C161.842 158.053 160.581 158.978 160.146 160.355L146.672 202.931Z" fill="#263238"/>
<path d="M166.991 157.568C165.343 157.568 163.886 158.632 163.39 160.209L149.715 203.416H146.01L159.684 160.209C160.181 158.632 161.638 157.568 163.286 157.568H166.991Z" fill="#263238"/>
<path d="M149.715 203.901H146.01C145.856 203.901 145.71 203.828 145.619 203.703C145.528 203.578 145.502 203.417 145.548 203.27L159.223 160.062C159.785 158.28 161.417 157.083 163.286 157.083H166.991C167.259 157.083 167.476 157.3 167.476 157.568C167.476 157.836 167.259 158.053 166.991 158.053C165.548 158.053 164.286 158.978 163.851 160.355L150.177 203.563C150.114 203.764 149.927 203.901 149.715 203.901ZM146.672 202.931H149.361L162.928 160.062C163.183 159.253 163.659 158.564 164.279 158.053H163.286C161.842 158.053 160.58 158.978 160.146 160.355L146.672 202.931Z" fill="#263238"/>
<path d="M187.967 184.277C187.51 186.127 185.836 187.501 183.846 187.501C181.5 187.501 179.597 185.596 179.597 183.246C179.597 181.726 180.393 180.393 181.591 179.642C181.509 179.972 181.463 180.315 181.463 180.672C181.463 183.022 183.366 184.927 185.712 184.927C186.54 184.927 187.313 184.689 187.967 184.277Z" fill="#263238"/>
<path d="M183.846 187.986C181.236 187.986 179.113 185.859 179.113 183.246C179.113 181.604 179.943 180.103 181.334 179.231C181.502 179.126 181.716 179.133 181.876 179.25C182.036 179.366 182.109 179.568 182.061 179.76C181.986 180.061 181.948 180.368 181.948 180.672C181.948 182.751 183.636 184.442 185.712 184.442C186.421 184.442 187.111 184.242 187.709 183.866C187.876 183.761 188.091 183.767 188.251 183.883C188.411 183.999 188.485 184.201 188.438 184.393C187.914 186.508 186.026 187.986 183.846 187.986ZM180.98 180.8C180.406 181.471 180.081 182.331 180.081 183.246C180.081 185.324 181.77 187.016 183.846 187.016C185.187 187.016 186.389 186.313 187.058 185.216C186.624 185.345 186.171 185.412 185.712 185.412C183.145 185.412 181.048 183.354 180.98 180.8Z" fill="#263238"/>
<path d="M129.783 200.773H125.85V201.941H129.783V200.773Z" fill="white"/>
<path d="M132.372 200.773H130.91V201.941H132.372V200.773Z" fill="white"/>
<path d="M304.514 228.869L300.809 237.337L306.288 320.375H272.186L267.964 242.201C267.717 237.965 268.275 233.719 269.61 229.694L288.212 173.634L289.644 169.324L314 162.359L320.906 160.385L324.497 176.034L325.572 180.71L318.345 197.238L304.514 228.865V228.869Z" fill="white"/>
<path d="M306.288 320.86H272.186C271.928 320.86 271.716 320.659 271.702 320.401L267.48 242.227C267.228 237.909 267.79 233.64 269.15 229.541L289.184 169.171C289.235 169.019 289.357 168.902 289.511 168.858L320.773 159.918C320.9 159.882 321.038 159.9 321.153 159.967C321.267 160.035 321.348 160.147 321.378 160.276L326.044 180.601C326.067 180.702 326.057 180.809 326.015 180.904L304.972 229.026C304.967 229.039 304.962 229.052 304.957 229.064L301.299 237.423L306.771 320.343C306.78 320.477 306.733 320.609 306.641 320.707C306.55 320.805 306.422 320.86 306.288 320.86ZM272.645 319.89H305.771L300.325 237.369C300.32 237.291 300.334 237.214 300.365 237.142L304.055 228.709C304.06 228.696 304.064 228.683 304.07 228.67L325.064 180.662L320.549 160.991L290.023 169.72L270.07 229.846C268.749 233.829 268.203 237.976 268.448 242.172L272.645 319.89Z" fill="#263238"/>
<path d="M318.345 197.237L300.809 237.337C300.809 237.337 303.064 204.166 306.568 198.556C310.071 192.942 315.56 192.708 315.56 192.708L318.345 197.237Z" fill="#263238"/>
<path d="M354.826 312.668L319.685 314.293L304.884 241.912C304.166 238.413 303.928 234.827 304.171 231.259L304.514 228.869V228.864L312.079 175.841L314 162.358L314.796 156.785L314.86 156.346L339.696 155.338L341.274 161.392L344.508 173.789C345.377 177.119 345.953 180.503 346.232 183.901C346.882 191.705 345.985 199.601 343.561 207.116L337.066 233.238L354.826 312.668Z" fill="white"/>
<path d="M346.232 183.901C345.162 183.279 334.024 176.496 324.497 176.033C320.239 175.832 315.875 175.796 312.079 175.841C308.214 175.892 304.935 176.025 302.95 176.144C297.511 176.478 291.625 174.816 288.213 173.634L289.644 169.324L314 162.359L314.796 156.785C323.102 158.228 333.494 160.037 341.274 161.393L344.508 173.79C345.377 177.119 345.953 180.503 346.232 183.901Z" fill="#263238"/>
<path d="M323.15 319.164C322.928 319.164 322.731 319.011 322.679 318.792L304.412 242.027C303.684 238.466 303.441 234.837 303.687 231.226L309.446 189.642C309.483 189.376 309.727 189.191 309.993 189.228C310.258 189.265 310.443 189.51 310.406 189.775L304.65 231.326C304.414 234.816 304.651 238.357 305.358 241.817L323.526 318.162L354.386 315.675L336.748 236.788C336.732 236.72 336.732 236.649 336.746 236.58L343.087 207.013C343.091 206.997 343.095 206.981 343.1 206.966C346.558 196.245 346.883 184.815 344.04 173.914L339.228 155.463C339.161 155.204 339.316 154.939 339.575 154.871C339.833 154.804 340.098 154.958 340.166 155.218L344.978 173.669C347.865 184.742 347.537 196.35 344.029 207.241L337.716 236.68L355.453 316.008C355.484 316.145 355.454 316.289 355.371 316.402C355.287 316.515 355.16 316.586 355.02 316.597L323.189 319.163C323.176 319.164 323.164 319.164 323.15 319.164Z" fill="#263238"/>
<path d="M346.438 160.994C344.558 170.492 287.188 176.033 286.415 170.02C286.415 170.02 284.178 159.877 281.645 152.608C277.555 140.898 268.856 114.346 270.987 107.183C273.151 99.9059 286.616 93.3341 293.317 91.479C300.137 89.5922 313.021 85.9377 320.01 90.1098C324.259 92.6423 328.541 103.794 331.417 112.848C333.563 119.589 334.93 125.167 334.93 125.167L338.845 137.358L346.438 160.994Z" fill="#E9E9E9"/>
<path d="M338.845 137.358C337.153 137.432 335.822 136.713 335.726 134.341C335.461 127.535 323.568 118.813 320.879 116.473C318.194 114.132 316.145 110.16 316.145 110.16H326.77L331.417 112.848C333.562 119.589 334.93 125.167 334.93 125.167L338.845 137.358Z" fill="#263238"/>
<path d="M298.393 173.008C297.468 173.008 296.585 172.994 295.746 172.966C286.263 172.648 286.015 170.718 285.933 170.084C285.918 170.025 283.683 159.924 281.185 152.768C279.306 147.382 275.773 136.905 273.23 127.247C273.162 126.988 273.316 126.723 273.575 126.654C273.831 126.587 274.099 126.74 274.167 127C276.702 136.626 280.225 147.076 282.1 152.448C284.617 159.659 286.864 169.816 286.886 169.918C286.931 170.251 287.536 171.72 295.778 171.996C313.184 172.579 344.314 167.385 345.936 161.015L334.467 125.318C334.384 124.981 326.912 94.7925 319.761 90.5257C313.045 86.5192 300.474 90.001 293.721 91.8719L293.444 91.9485C288.072 93.4357 278.42 97.9541 273.783 103.343C273.607 103.546 273.301 103.568 273.1 103.394C272.897 103.219 272.874 102.913 273.049 102.71C277.819 97.1668 287.696 92.5334 293.186 91.0134L293.463 90.9368C300.355 89.0275 313.186 85.4732 320.257 89.6922C327.754 94.1655 335.091 123.795 335.399 125.054L346.899 160.844C346.924 160.922 346.929 161.006 346.913 161.087C345.476 168.356 315.305 173.008 298.393 173.008Z" fill="#263238"/>
<path d="M312.884 178.081C312.884 178.081 306.009 177.128 305.456 174.275C304.898 171.372 317.243 170.268 317.243 170.268" fill="white"/>
<path d="M312.884 178.566C312.863 178.566 312.84 178.564 312.818 178.561C312.079 178.459 305.583 177.471 304.98 174.368C304.897 173.936 305.007 173.503 305.299 173.116C307.077 170.753 316.169 169.877 317.199 169.785C317.473 169.761 317.701 169.958 317.725 170.225C317.749 170.492 317.552 170.727 317.286 170.751C314.603 170.991 307.36 171.989 306.073 173.7C305.906 173.922 305.912 174.082 305.932 174.183C306.331 176.244 311.133 177.349 312.95 177.6C313.215 177.637 313.4 177.882 313.363 178.147C313.33 178.39 313.123 178.566 312.884 178.566Z" fill="#263238"/>
<path d="M344.638 197.604L324.055 229.615C323.288 230.808 321.701 231.152 320.51 230.384L275.285 201.232C274.093 200.465 273.749 198.875 274.516 197.682L295.099 165.671C295.866 164.478 297.453 164.134 298.644 164.902L343.869 194.054C345.061 194.821 345.405 196.411 344.638 197.604Z" fill="#8EEA7F"/>
<path d="M320.822 229.915C319.598 229.915 318.36 229.576 317.257 228.864L278.013 203.568C276.529 202.611 275.506 201.134 275.133 199.407C274.759 197.68 275.079 195.911 276.034 194.425L292.766 168.403C294.737 165.336 298.834 164.447 301.897 166.421L341.14 191.718C342.624 192.674 343.648 194.152 344.021 195.879C344.395 197.605 344.075 199.375 343.12 200.86L326.388 226.883C325.127 228.845 322.996 229.915 320.822 229.915ZM298.33 166.34C296.475 166.34 294.657 167.254 293.581 168.928L276.849 194.95C276.034 196.218 275.761 197.728 276.079 199.202C276.398 200.675 277.272 201.936 278.537 202.752L317.781 228.049C320.396 229.734 323.89 228.975 325.573 226.358L342.305 200.336C343.12 199.068 343.394 197.558 343.075 196.085C342.756 194.611 341.883 193.35 340.617 192.534L301.373 167.237C300.431 166.63 299.375 166.34 298.33 166.34Z" fill="#263238"/>
<path d="M317.243 170.268L317.728 169.242L322.983 159.057L339.879 126.289L334.5 121.49C334.496 121.49 334.496 121.49 334.496 121.49C334.496 121.49 334.496 121.49 334.496 121.485L330.676 118.078L335.895 112.61L344.453 103.652C344.453 103.652 350.042 107.879 354.973 112.83C358.673 116.54 362.008 120.657 362.332 123.697C362.909 129.042 346.909 157.147 338.997 170.666C336.961 174.142 335.461 176.652 334.917 177.568L334.866 177.65L334.688 177.944L332.62 181.273C332.62 181.273 327.53 195.186 323.784 196.386C320.436 197.453 320.847 192.937 320.875 192.64C320.765 192.818 319.118 195.584 317.161 195.465C315.418 195.351 316.141 190.886 316.145 190.721C316.09 190.868 313.758 194.458 311.485 193.721C308.955 192.892 311.416 187.831 311.517 187.616C311.389 187.754 309.486 189.723 307.935 188.097C305.351 185.395 312.884 178.081 312.884 178.081" fill="white"/>
<path d="M322.841 197.034C322.313 197.034 321.856 196.881 321.474 196.573C320.758 195.997 320.487 194.999 320.397 194.125C319.621 195.039 318.443 196.029 317.131 195.949C316.737 195.923 316.394 195.744 316.136 195.431C315.672 194.87 315.465 193.843 315.517 192.368C314.518 193.476 312.953 194.706 311.335 194.182C310.757 193.992 310.326 193.6 310.089 193.047C309.604 191.917 309.993 190.24 310.438 188.967C310.102 189.115 309.727 189.219 309.331 189.221C308.658 189.23 308.088 188.959 307.584 188.431C304.75 185.467 311.74 178.515 312.546 177.732C312.738 177.546 313.045 177.55 313.231 177.743C313.418 177.935 313.413 178.242 313.221 178.429C311.357 180.24 306.448 185.841 308.285 187.761C308.602 188.093 308.938 188.265 309.325 188.251C310.255 188.246 311.153 187.294 311.162 187.284C311.325 187.11 311.591 187.08 311.788 187.214C311.985 187.347 312.056 187.605 311.955 187.821C311.21 189.393 310.516 191.585 310.979 192.665C311.108 192.966 311.317 193.155 311.634 193.259C313.407 193.833 315.477 190.941 315.709 190.509C315.792 190.287 316.015 190.179 316.247 190.224C316.479 190.27 316.636 190.497 316.629 190.734C316.628 190.753 316.623 190.816 316.611 190.914C316.262 193.713 316.684 194.573 316.883 194.813C316.971 194.921 317.066 194.973 317.192 194.981C318.398 195.053 319.699 193.636 320.453 192.4C320.57 192.207 320.81 192.115 321.023 192.186C321.236 192.257 321.377 192.459 321.357 192.684C321.275 193.566 321.336 195.217 322.081 195.817C322.442 196.107 322.95 196.142 323.636 195.923C326.522 194.999 330.771 184.914 332.166 181.106C332.177 181.075 332.191 181.045 332.209 181.016L334.786 176.838C335.478 175.676 336.83 173.405 338.578 170.421C353.767 144.469 362.25 127.458 361.85 123.749C361.589 121.304 359.092 117.646 354.629 113.172C350.472 108.998 345.789 105.298 344.502 104.302L331.373 118.05L334.818 121.123C334.822 121.127 334.826 121.131 334.831 121.135L340.201 125.927C340.366 126.074 340.41 126.315 340.309 126.512L318.158 169.465L317.681 170.475C317.566 170.717 317.277 170.821 317.035 170.706C316.794 170.591 316.69 170.302 316.805 170.06L317.289 169.034L339.276 126.401L334.202 121.874C334.181 121.858 334.162 121.84 334.144 121.821L330.354 118.44C330.255 118.352 330.197 118.229 330.192 118.097C330.187 117.966 330.235 117.838 330.326 117.743L344.103 103.317C344.273 103.139 344.548 103.117 344.745 103.265C344.801 103.307 350.418 107.569 355.316 112.487C360.002 117.185 362.525 120.94 362.814 123.646C363.391 129 348.401 155.557 339.414 170.911C337.665 173.898 336.311 176.172 335.619 177.335L335.102 178.196L333.058 181.487C332.451 183.14 327.753 195.623 323.931 196.847C323.54 196.972 323.176 197.034 322.841 197.034Z" fill="#263238"/>
<path d="M354.973 112.83C348.761 108.983 334.816 121.206 334.5 121.49C334.496 121.49 334.495 121.49 334.495 121.49C334.495 121.49 334.495 121.49 334.495 121.485C334.523 121.302 335.182 117.034 335.895 112.61L344.453 103.652C344.453 103.652 350.042 107.879 354.973 112.83Z" fill="#263238"/>
<path d="M311.522 188.096C311.428 188.096 311.333 188.069 311.25 188.012C311.029 187.861 310.971 187.559 311.122 187.338L315.12 181.468C315.271 181.247 315.572 181.19 315.793 181.341C316.014 181.492 316.072 181.793 315.921 182.015L311.923 187.884C311.829 188.022 311.677 188.096 311.522 188.096Z" fill="#263238"/>
<path d="M316.145 191.209C316.064 191.209 315.982 191.189 315.907 191.146C315.674 191.014 315.592 190.718 315.724 190.485L318.89 184.883C319.022 184.65 319.318 184.568 319.55 184.7C319.784 184.832 319.865 185.128 319.733 185.361L316.567 190.963C316.478 191.12 316.314 191.209 316.145 191.209Z" fill="#263238"/>
<path d="M320.878 193.112C320.806 193.112 320.732 193.096 320.663 193.062C320.424 192.943 320.326 192.652 320.444 192.412L322.453 188.354C322.571 188.114 322.863 188.016 323.102 188.135C323.341 188.254 323.44 188.545 323.321 188.785L321.313 192.842C321.228 193.013 321.057 193.112 320.878 193.112Z" fill="#263238"/>
<path d="M310.872 88.1992C321.506 88.1943 331.927 91.179 340.958 96.8005C344.559 99.0421 347.465 100.972 347.641 101.465C348.986 105.225 332.355 122.967 332.355 122.967L315.192 110.553" fill="#E9E9E9"/>
<path d="M332.355 123.452C332.257 123.452 332.157 123.422 332.072 123.36L314.908 110.946C314.691 110.789 314.642 110.486 314.799 110.269C314.955 110.052 315.257 110.003 315.475 110.16L332.293 122.324C338.647 115.507 348.078 104.126 347.185 101.629C347.077 101.464 346.196 100.633 340.702 97.2127C331.739 91.6332 321.433 88.6844 310.898 88.6844C310.889 88.6844 310.881 88.6844 310.872 88.6844C310.604 88.6844 310.387 88.4673 310.387 88.1997C310.387 87.9233 310.619 87.7144 310.898 87.7144C321.614 87.7144 332.096 90.7134 341.214 96.3888C347.808 100.494 347.989 101 348.097 101.302C349.501 105.228 334.432 121.461 332.709 123.299C332.614 123.4 332.485 123.452 332.355 123.452Z" fill="#263238"/>
<path d="M250.033 348.512C250.045 349.02 250.102 349.536 250.204 350.047L262.585 350.09H263.105L285.038 350.161L293.097 350.187C295.881 350.208 298.27 348.416 299.117 345.892C299.298 345.359 299.408 344.798 299.439 344.21L300.013 333.287L301.196 317.899L275.536 317.252L274.579 330.2L260.764 337.401L259.707 337.951L254.742 340.537C252.766 341.569 251.313 343.277 250.577 345.265C250.199 346.291 250.007 347.392 250.033 348.512Z" fill="white"/>
<path d="M293.146 350.672C293.128 350.672 293.111 350.672 293.093 350.672L250.202 350.532C249.972 350.531 249.774 350.368 249.729 350.142C249.622 349.605 249.561 349.06 249.549 348.523C249.521 347.357 249.714 346.204 250.121 345.097C250.921 342.941 252.482 341.17 254.518 340.107L274.115 329.894L275.053 317.217C275.071 316.963 275.283 316.768 275.536 316.768C275.539 316.768 275.544 316.768 275.548 316.768L301.208 317.415C301.341 317.418 301.467 317.476 301.556 317.574C301.645 317.673 301.69 317.804 301.679 317.937L300.496 333.325L299.923 344.236C299.89 344.855 299.773 345.465 299.576 346.048C298.645 348.819 296.065 350.672 293.146 350.672ZM250.611 349.563L293.098 349.702C295.638 349.72 297.856 348.128 298.658 345.738C298.827 345.237 298.927 344.715 298.955 344.185L299.529 333.262L300.674 318.371L275.985 317.749L275.062 330.235C275.05 330.403 274.952 330.552 274.803 330.63L254.966 340.968C253.143 341.919 251.746 343.505 251.031 345.434C250.666 346.424 250.493 347.457 250.517 348.5C250.525 348.853 250.557 349.209 250.611 349.563Z" fill="#263238"/>
<path d="M250.033 348.512C250.045 349.02 250.102 349.536 250.204 350.047L262.585 350.09C263.65 348.506 264.249 346.587 264.201 344.536C264.134 341.661 262.808 339.11 260.764 337.401L259.707 337.951L254.742 340.538C252.765 341.569 251.313 343.277 250.576 345.265C250.199 346.291 250.007 347.392 250.033 348.512Z" fill="#263238"/>
<path d="M262.842 350.576L249.807 350.53L249.729 350.142C249.622 349.605 249.561 349.06 249.549 348.523C249.522 347.357 249.715 346.204 250.122 345.097C250.921 342.941 252.482 341.17 254.518 340.108L260.827 336.822L261.075 337.029C263.302 338.891 264.618 341.623 264.686 344.525C264.735 346.618 264.147 348.636 262.986 350.361L262.842 350.576ZM250.611 349.563L262.323 349.604C263.278 348.095 263.759 346.352 263.717 344.548C263.659 342.032 262.562 339.658 260.696 337.983L254.966 340.968C253.143 341.919 251.745 343.505 251.031 345.433C250.666 346.424 250.493 347.457 250.517 348.5C250.525 348.853 250.557 349.209 250.611 349.563Z" fill="#263238"/>
<path d="M285.038 350.161L293.097 350.187C295.881 350.208 298.27 348.416 299.117 345.892C299.298 345.359 299.408 344.798 299.439 344.21L300.013 333.288C295.374 334.755 285.383 338.575 284.802 347.425C284.735 348.42 284.821 349.329 285.038 350.161Z" fill="#263238"/>
<path d="M293.146 350.672C293.128 350.672 293.111 350.672 293.093 350.672L284.663 350.645L284.569 350.284C284.334 349.381 284.25 348.409 284.318 347.393C284.741 340.945 290.118 335.908 299.867 332.825L300.533 332.615L299.923 344.236C299.89 344.855 299.773 345.465 299.576 346.048C298.645 348.819 296.065 350.672 293.146 350.672ZM285.423 349.678L293.098 349.702C295.603 349.725 297.855 348.128 298.658 345.738C298.827 345.238 298.927 344.715 298.955 344.185L299.492 333.966C290.578 336.931 285.67 341.586 285.285 347.457C285.233 348.234 285.279 348.979 285.423 349.678Z" fill="#263238"/>
<path d="M250.033 348.511C250.045 349.02 250.102 349.536 250.204 350.047L293.097 350.187C295.881 350.208 298.27 348.416 299.117 345.892L250.577 345.265C250.199 346.291 250.007 347.391 250.033 348.511Z" fill="#263238"/>
<path d="M293.146 350.672C293.128 350.672 293.111 350.672 293.093 350.672L250.202 350.532C249.972 350.531 249.774 350.368 249.729 350.142C249.622 349.605 249.561 349.06 249.549 348.523C249.521 347.357 249.714 346.204 250.121 345.097C250.192 344.904 250.396 344.772 250.582 344.78L299.123 345.407C299.278 345.409 299.422 345.485 299.512 345.612C299.602 345.738 299.625 345.9 299.576 346.047C298.645 348.819 296.065 350.672 293.146 350.672ZM250.611 349.563L293.098 349.701C293.114 349.701 293.129 349.702 293.144 349.702C295.42 349.702 297.454 348.39 298.405 346.368L250.92 345.754C250.631 346.646 250.496 347.569 250.517 348.5C250.525 348.853 250.557 349.209 250.611 349.563Z" fill="#263238"/>
<path d="M271.563 329.317C271.521 329.602 271.606 329.903 271.816 330.13L274.369 332.883C274.734 333.279 275.354 333.304 275.752 332.935C275.921 332.776 276.024 332.573 276.055 332.362C276.096 332.077 276.011 331.776 275.801 331.549L273.249 328.796C272.883 328.4 272.263 328.379 271.865 328.744C271.696 328.903 271.594 329.106 271.563 329.317Z" fill="#263238"/>
<path d="M267.486 331.799C267.445 332.084 267.53 332.384 267.74 332.611L270.292 335.365C270.658 335.761 271.278 335.785 271.676 335.416C271.845 335.258 271.948 335.054 271.978 334.844C272.02 334.558 271.935 334.258 271.725 334.031L269.172 331.277C268.807 330.882 268.187 330.86 267.789 331.226C267.62 331.384 267.517 331.588 267.486 331.799Z" fill="#263238"/>
<path d="M263.41 334.281C263.368 334.566 263.454 334.866 263.664 335.093L266.216 337.847C266.582 338.242 267.201 338.267 267.6 337.898C267.769 337.74 267.871 337.536 267.902 337.326C267.944 337.04 267.859 336.74 267.649 336.513L265.096 333.759C264.731 333.364 264.111 333.342 263.713 333.708C263.544 333.867 263.441 334.07 263.41 334.281Z" fill="#263238"/>
<path d="M307.446 318.35V321.272C307.446 322.888 306.137 324.194 304.523 324.194H272.529C270.914 324.194 269.606 322.888 269.606 321.272V318.35C269.606 316.733 270.914 315.423 272.529 315.423H304.523C306.137 315.423 307.446 316.733 307.446 318.35Z" fill="#263238"/>
<path d="M304.523 324.678H272.529C270.65 324.678 269.122 323.15 269.122 321.272V318.35C269.122 316.469 270.65 314.938 272.529 314.938H304.523C306.402 314.938 307.93 316.469 307.93 318.35V321.272C307.93 323.15 306.402 324.678 304.523 324.678ZM272.529 315.908C271.184 315.908 270.091 317.003 270.091 318.35V321.271C270.091 322.615 271.184 323.708 272.529 323.708H304.523C305.867 323.708 306.962 322.615 306.962 321.271V318.35C306.962 317.003 305.867 315.908 304.523 315.908H272.529Z" fill="#263238"/>
<path d="M302.389 348.512C302.401 349.02 302.458 349.536 302.561 350.047L314.941 350.09H315.462L337.394 350.161L345.454 350.187C348.238 350.208 350.627 348.416 351.474 345.892C351.654 345.359 351.764 344.798 351.795 344.21L352.369 333.287L353.553 317.899L327.893 317.252L326.936 330.2L313.121 337.401L312.064 337.951L307.098 340.537C305.122 341.569 303.67 343.277 302.933 345.265C302.555 346.291 302.363 347.392 302.389 348.512Z" fill="white"/>
<path d="M345.502 350.672C345.485 350.672 345.467 350.672 345.45 350.672L302.559 350.532C302.329 350.531 302.131 350.368 302.085 350.142C301.978 349.606 301.918 349.061 301.905 348.523C301.878 347.357 302.071 346.204 302.478 345.097C303.277 342.942 304.838 341.17 306.874 340.107L326.472 329.894L327.41 317.217C327.428 316.963 327.639 316.768 327.892 316.768C327.896 316.768 327.901 316.768 327.905 316.768L353.565 317.415C353.697 317.418 353.823 317.476 353.912 317.574C354.001 317.673 354.046 317.804 354.035 317.937L352.852 333.325L352.279 344.236C352.246 344.857 352.129 345.467 351.932 346.048C351.002 348.819 348.422 350.672 345.502 350.672ZM302.967 349.563L345.455 349.702C347.981 349.726 350.212 348.129 351.014 345.738C351.183 345.239 351.283 344.717 351.311 344.185L351.885 333.262L353.03 318.372L328.342 317.749L327.418 330.236C327.406 330.403 327.308 330.552 327.159 330.63L307.322 340.968C305.499 341.919 304.102 343.505 303.387 345.434C303.022 346.425 302.849 347.457 302.874 348.501C302.882 348.853 302.913 349.209 302.967 349.563Z" fill="#263238"/>
<path d="M302.39 348.512C302.401 349.02 302.459 349.536 302.561 350.047L314.941 350.09C316.007 348.506 316.606 346.587 316.558 344.536C316.491 341.661 315.165 339.11 313.121 337.401L312.064 337.951L307.098 340.538C305.122 341.569 303.67 343.277 302.933 345.265C302.555 346.291 302.363 347.392 302.39 348.512Z" fill="#263238"/>
<path d="M315.198 350.576L302.163 350.531L302.086 350.142C301.978 349.606 301.918 349.061 301.905 348.523C301.878 347.357 302.071 346.204 302.478 345.097C303.277 342.942 304.839 341.17 306.875 340.108L313.184 336.822L313.431 337.029C315.659 338.891 316.975 341.623 317.043 344.525C317.091 346.618 316.503 348.636 315.343 350.361L315.198 350.576ZM302.967 349.563L314.679 349.605C315.634 348.095 316.116 346.352 316.074 344.548C316.015 342.032 314.918 339.658 313.053 337.983L307.322 340.968C305.499 341.919 304.102 343.505 303.387 345.434C303.023 346.425 302.85 347.457 302.874 348.501C302.882 348.853 302.913 349.209 302.967 349.563Z" fill="#263238"/>
<path d="M337.394 350.161L345.454 350.187C348.238 350.208 350.627 348.416 351.474 345.892C351.654 345.359 351.764 344.798 351.795 344.21L352.369 333.288C347.73 334.755 337.739 338.575 337.158 347.425C337.091 348.42 337.178 349.329 337.394 350.161Z" fill="#263238"/>
<path d="M345.502 350.672C345.485 350.672 345.467 350.672 345.45 350.672L337.019 350.645L336.925 350.284C336.691 349.381 336.606 348.409 336.674 347.393C337.098 340.945 342.475 335.908 352.223 332.825L352.889 332.615L352.279 344.236C352.246 344.857 352.129 345.467 351.932 346.049C351.002 348.819 348.422 350.672 345.502 350.672ZM337.779 349.678L345.455 349.702C347.981 349.725 350.212 348.128 351.014 345.738C351.184 345.239 351.283 344.717 351.311 344.185L351.848 333.966C342.935 336.931 338.027 341.587 337.641 347.457C337.589 348.234 337.636 348.979 337.779 349.678Z" fill="#263238"/>
<path d="M302.389 348.511C302.401 349.02 302.458 349.536 302.561 350.047L345.454 350.187C348.238 350.208 350.627 348.416 351.474 345.892L302.933 345.265C302.555 346.291 302.363 347.391 302.389 348.511Z" fill="#263238"/>
<path d="M345.502 350.672C345.485 350.672 345.467 350.672 345.45 350.672L302.559 350.532C302.329 350.531 302.131 350.368 302.085 350.142C301.978 349.606 301.918 349.061 301.905 348.523C301.878 347.356 302.071 346.204 302.478 345.097C302.549 344.904 302.743 344.773 302.939 344.78L351.48 345.407C351.634 345.409 351.779 345.485 351.869 345.612C351.958 345.738 351.982 345.9 351.933 346.047C351.002 348.819 348.422 350.672 345.502 350.672ZM302.967 349.563L345.455 349.702C347.765 349.718 349.804 348.404 350.762 346.368L303.276 345.754C302.987 346.646 302.852 347.569 302.874 348.5C302.882 348.853 302.913 349.209 302.967 349.563Z" fill="#263238"/>
<path d="M323.919 329.318C323.877 329.603 323.963 329.904 324.173 330.131L326.725 332.884C327.091 333.28 327.71 333.304 328.109 332.936C328.278 332.777 328.38 332.573 328.411 332.363C328.453 332.077 328.368 331.777 328.157 331.55L325.605 328.796C325.239 328.401 324.62 328.379 324.221 328.745C324.053 328.903 323.95 329.107 323.919 329.318Z" fill="#263238"/>
<path d="M319.843 331.799C319.801 332.084 319.886 332.385 320.096 332.612L322.649 335.365C323.015 335.761 323.634 335.786 324.032 335.417C324.201 335.258 324.304 335.055 324.335 334.844C324.377 334.559 324.291 334.258 324.081 334.031L321.529 331.278C321.163 330.882 320.543 330.861 320.145 331.226C319.976 331.385 319.874 331.588 319.843 331.799Z" fill="#263238"/>
<path d="M315.766 334.281C315.725 334.566 315.81 334.866 316.02 335.093L318.573 337.847C318.938 338.242 319.558 338.267 319.956 337.898C320.125 337.74 320.228 337.536 320.259 337.326C320.3 337.04 320.215 336.74 320.005 336.513L317.453 333.759C317.087 333.364 316.467 333.342 316.069 333.708C315.9 333.867 315.797 334.07 315.766 334.281Z" fill="#263238"/>
<path d="M357.622 316.67L357.706 319.59C357.753 321.206 356.484 322.549 354.87 322.596L322.889 323.528C321.276 323.575 319.93 322.309 319.883 320.693L319.798 317.772C319.751 316.156 321.021 314.809 322.634 314.762L354.615 313.83C356.229 313.783 357.575 315.054 357.622 316.67Z" fill="#263238"/>
<path d="M322.803 324.014C320.97 324.014 319.453 322.551 319.399 320.707L319.314 317.786C319.26 315.906 320.743 314.332 322.621 314.277L354.601 313.345C356.5 313.289 358.051 314.776 358.106 316.656L358.191 319.577C358.217 320.488 357.888 321.354 357.263 322.015C356.639 322.676 355.795 323.055 354.884 323.081L322.903 324.013C322.87 324.014 322.836 324.014 322.803 324.014ZM354.701 314.314C354.677 314.314 354.653 314.314 354.629 314.315L322.649 315.247C321.305 315.286 320.243 316.413 320.283 317.758L320.367 320.679C320.407 322.022 321.542 323.081 322.875 323.044L354.856 322.112C355.508 322.092 356.113 321.822 356.56 321.349C357.006 320.876 357.242 320.256 357.222 319.605L357.138 316.684C357.099 315.363 356.013 314.314 354.701 314.314Z" fill="#263238"/>
<path d="M126.874 169.411C125.502 173.02 102.321 184.524 102.321 184.524C102.321 184.524 63.3935 209.483 48.6017 203.415C40.1491 199.948 40.3139 185.513 42.0061 173.771C43.2777 164.96 45.4092 157.669 45.4092 157.669L64.8754 162.189L63.7274 172.548L62.6525 182.225L92.9039 166.622L97.6516 163.563C97.6516 163.563 98.5435 153.208 101.356 153.918C104.119 154.614 105.949 160.353 105.949 160.353C105.949 160.353 117.118 150.726 119.62 153.41C121.134 155.027 119.085 156.794 118.957 156.9C119.162 156.813 124.262 154.669 124.935 157.197C125.529 159.455 121.934 161.539 121.751 161.607C121.994 161.607 126.316 161.163 126.334 162.862C126.348 164.79 123.549 166.256 123.366 166.352C123.663 166.343 128.104 166.183 126.874 169.411Z" fill="white"/>
<path d="M54.208 204.853C52.0441 204.854 50.0879 204.549 48.418 203.864C39.6476 200.267 39.8294 185.476 41.5265 173.702C42.7884 164.958 44.9226 157.606 44.9437 157.533C45.0162 157.286 45.2669 157.138 45.5184 157.197L64.9848 161.717C65.2239 161.772 65.3839 161.998 65.3569 162.243L63.2338 181.38L92.6819 166.191L97.1905 163.284C97.3362 161.761 98.0777 155.182 100.125 153.722C100.541 153.425 101.008 153.33 101.475 153.448C103.889 154.057 105.572 157.931 106.171 159.527C108.936 157.202 117.485 150.41 119.974 153.079C120.467 153.606 120.697 154.204 120.654 154.853C120.63 155.228 120.514 155.58 120.358 155.893C121.601 155.534 123.255 155.243 124.346 155.779C124.882 156.042 125.247 156.49 125.403 157.073C125.824 158.673 124.543 160.148 123.41 161.074C124.864 161.104 125.837 161.361 126.365 161.851C126.657 162.123 126.814 162.471 126.818 162.857C126.827 164.172 125.784 165.261 124.865 165.963C125.718 166.102 126.677 166.425 127.195 167.154C127.652 167.796 127.696 168.614 127.327 169.584C125.932 173.252 105.061 183.705 102.559 184.948C100.876 186.025 71.2102 204.851 54.208 204.853ZM45.7493 158.246C45.276 159.951 43.5615 166.385 42.4855 173.841C40.8378 185.273 40.593 199.607 48.7852 202.966C50.3314 203.601 52.1574 203.884 54.1824 203.884C71.0099 203.886 101.714 184.338 102.06 184.116C102.074 184.107 102.09 184.098 102.105 184.09C111.355 179.499 125.464 171.756 126.421 169.239L126.422 169.238C126.672 168.581 126.667 168.083 126.407 167.717C125.906 167.013 124.468 166.802 123.388 166.837C123.17 166.84 122.958 166.694 122.901 166.476C122.843 166.257 122.941 166.028 123.141 165.923C124.153 165.391 125.859 164.15 125.85 162.866C125.849 162.746 125.806 162.655 125.707 162.563C125.487 162.359 124.681 161.905 121.935 162.083C121.841 162.089 121.777 162.093 121.752 162.093C121.518 162.093 121.317 161.925 121.275 161.694C121.233 161.464 121.362 161.236 121.582 161.154C121.995 160.957 124.93 159.08 124.467 157.321C124.383 157.006 124.209 156.792 123.92 156.65C122.777 156.089 120.297 156.861 119.145 157.347C118.923 157.441 118.667 157.357 118.542 157.15C118.418 156.944 118.464 156.678 118.65 156.525C118.922 156.302 119.638 155.554 119.688 154.79C119.713 154.414 119.575 154.071 119.267 153.742C117.761 152.126 110.757 156.85 106.265 160.721C106.142 160.827 105.975 160.864 105.817 160.819C105.661 160.775 105.537 160.655 105.488 160.5C105.001 158.976 103.288 154.905 101.239 154.389C101.045 154.34 100.876 154.378 100.688 154.512C99.141 155.615 98.3202 161.45 98.1345 163.605C98.1217 163.755 98.0403 163.89 97.9141 163.971L93.1663 167.03L62.8747 182.657C62.7162 182.738 62.5254 182.726 62.3783 182.625C62.2311 182.523 62.1517 182.349 62.1716 182.172L64.3469 162.564L45.7493 158.246Z" fill="#263238"/>
<path d="M112.29 161.874C112.134 161.874 111.981 161.799 111.888 161.659C111.738 161.437 111.797 161.135 112.019 160.986L118.683 156.503C118.905 156.354 119.206 156.413 119.356 156.635C119.505 156.857 119.446 157.159 119.224 157.308L112.56 161.791C112.477 161.847 112.383 161.874 112.29 161.874Z" fill="#263238"/>
<path d="M115.406 166.005C115.243 166.005 115.084 165.923 114.993 165.774C114.852 165.546 114.923 165.247 115.151 165.107L121.495 161.197C121.723 161.056 122.021 161.128 122.162 161.356C122.302 161.584 122.231 161.883 122.003 162.023L115.659 165.933C115.58 165.982 115.492 166.005 115.406 166.005Z" fill="#263238"/>
<path d="M117.877 170.169C117.714 170.169 117.554 170.085 117.463 169.935C117.324 169.706 117.397 169.408 117.626 169.269L123.104 165.943C123.334 165.804 123.631 165.877 123.77 166.106C123.909 166.335 123.836 166.633 123.607 166.772L118.128 170.098C118.05 170.146 117.963 170.169 117.877 170.169Z" fill="#263238"/>
<path d="M64.8754 162.189L63.7274 172.548C59.8624 171.564 50.7148 169.485 46.9688 170.923C44.6178 171.821 43.026 172.906 42.0061 173.772C43.2777 164.96 45.4091 157.669 45.4091 157.669L64.8754 162.189Z" fill="#263238"/>
<path d="M62.4818 129.431C62.4818 129.431 57.7889 130.621 49.9257 138.494C42.9753 145.453 39.9606 166.089 39.9606 166.089C39.9606 166.089 66.3137 171.95 68.338 168.988C70.3622 166.026 70.8759 141.534 70.8759 141.534" fill="white"/>
<path d="M64.3284 170.28C57.0397 170.28 43.2522 167.318 39.8556 166.563C39.608 166.508 39.4446 166.27 39.4813 166.019C39.6054 165.17 42.5994 145.144 49.5833 138.151C57.4501 130.274 62.166 129.011 62.3629 128.961C62.6245 128.895 62.8857 129.052 62.9513 129.312C63.017 129.571 62.8607 129.834 62.6021 129.901C62.5561 129.913 57.9109 131.185 50.2681 138.837C44.0706 145.043 40.9986 162.679 40.5094 165.714C51.3027 168.088 66.6876 170.545 67.9381 168.714C69.5316 166.382 70.2496 148.296 70.3914 141.524C70.3971 141.256 70.6257 141.044 70.8861 141.049C71.1536 141.055 71.3657 141.277 71.3602 141.544C71.3072 144.066 70.7842 166.267 68.7376 169.262C68.2387 169.992 66.5977 170.28 64.3284 170.28Z" fill="#263238"/>
<path d="M339.138 170.767L334.916 177.567C335.46 176.652 336.961 174.142 338.996 170.666L339.138 170.767Z" fill="white"/>
<path d="M334.916 178.053C334.83 178.053 334.743 178.03 334.664 177.982C334.437 177.844 334.364 177.548 334.5 177.319L334.787 176.838C335.478 175.676 336.831 173.405 338.579 170.421C338.647 170.303 338.762 170.22 338.894 170.192C339.028 170.163 339.165 170.192 339.276 170.27L339.418 170.371C339.627 170.519 339.685 170.804 339.55 171.023L335.328 177.823C335.236 177.971 335.077 178.053 334.916 178.053Z" fill="#263238"/>
<path d="M76.949 105.925L77.6085 125.715C77.6085 125.715 84.3372 135.177 91.3968 135.167C96.6743 135.16 95.5496 126.269 95.5496 126.269V100.057" fill="white"/>
<path d="M91.3859 135.652C84.1633 135.652 77.4944 126.391 77.2139 125.996L77.1293 125.877L76.465 105.941L77.4333 105.908L78.0877 125.549C78.8795 126.616 85.0771 134.682 91.3861 134.682C91.3899 134.682 91.3924 134.682 91.396 134.682C92.3693 134.681 93.1329 134.35 93.73 133.671C95.6863 131.447 95.0751 126.381 95.0688 126.33L95.065 126.269V100.056H96.0337V126.239C96.0926 126.734 96.6388 131.83 94.4583 134.311C93.6772 135.199 92.6474 135.65 91.3975 135.652C91.3938 135.652 91.3895 135.652 91.3859 135.652Z" fill="#263238"/>
<path d="M86.0566 115.281C91.4281 118.507 97.6281 120.026 102.06 119.132C111.165 117.296 114.645 104.28 111.86 92.8575C109.076 81.4354 98.9458 74.2724 88.7034 76.7758C78.461 79.2792 72.4152 90.5679 75.1998 101.99C75.5751 103.529 76.1798 104.997 76.9663 106.379" fill="white"/>
<path d="M99.331 119.872C95.2062 119.872 90.2724 118.378 85.8074 115.696L86.3059 114.865C91.5673 118.025 97.7131 119.514 101.964 118.657C104.818 118.081 107.278 116.279 109.077 113.446C112.283 108.397 113.191 100.36 111.39 92.9725C108.65 81.7308 98.7365 74.8229 88.8187 77.247C84.0001 78.4245 79.9782 81.6282 77.4938 86.2675C74.9999 90.9241 74.3524 96.467 75.6709 101.875C76.0233 103.322 76.601 104.756 77.3877 106.139L76.5455 106.619C75.7146 105.158 75.1034 103.639 74.7295 102.105C73.3544 96.4642 74.0329 90.6768 76.6399 85.809C79.2562 80.9238 83.4996 77.5484 88.5887 76.3046C99.0329 73.7518 109.462 80.9724 112.331 92.7424C114.22 100.492 113.287 108.624 109.895 113.966C107.95 117.028 105.274 118.979 102.155 119.608C101.273 119.786 100.325 119.872 99.331 119.872Z" fill="#263238"/>
<path d="M82.4997 97.4572C82.4997 97.4572 84.3334 95.4954 84.2069 92.963C84.0805 90.4305 82.4997 88.4045 82.4997 88.4045C82.4997 88.4045 113.303 94.7278 115.216 86.1885C119.721 66.0769 96.8564 68.3724 81.534 73.7942C62.966 65.3754 56.9749 99.7163 76.9563 106.385L75.1858 98.2819L82.4997 97.4572Z" fill="#263238"/>
<path d="M77.6117 107.115L76.8031 106.845C70.1419 104.622 65.6057 99.1037 64.3572 91.7049C63.1579 84.5955 65.3276 77.5231 69.7571 74.106C72.0363 72.3477 75.926 70.7891 81.5553 73.2724C92.5489 69.4137 106.495 67.3365 112.886 73.0161C116.083 75.8569 117.026 80.3243 115.689 86.2945C113.887 94.3392 89.1986 90.1685 83.5196 89.0977C84.0086 89.9744 84.6116 91.356 84.6908 92.9385C84.8262 95.6453 82.9341 97.7022 82.8535 97.7884L82.7315 97.9189L75.774 98.7035L77.6117 107.115ZM75.9668 72.959C73.8975 72.959 72.0022 73.5988 70.3484 74.8747C66.2595 78.029 64.1888 84.8835 65.3124 91.5435C66.4474 98.2707 70.4299 103.359 76.2959 105.632L74.5978 97.8603L82.2565 96.9966C82.6312 96.5393 83.82 94.9269 83.7232 92.9873C83.6061 90.6461 82.1323 88.7219 82.1175 88.7026L81.3133 87.6663L82.5969 87.9293C91.0359 89.661 113.26 92.705 114.743 86.0824C115.998 80.4826 115.157 76.3306 112.243 73.7419C106.124 68.3044 91.9629 70.6184 81.6953 74.2516L81.5118 74.3166L81.3342 74.2361C79.4549 73.384 77.6531 72.959 75.9668 72.959Z" fill="#263238"/>
<path d="M76.3434 104.446C72.9434 104.446 70.187 101.686 70.187 98.2821C70.187 94.8778 72.9434 92.1179 76.3434 92.1179C79.7434 92.1179 82.4997 94.8778 82.4997 98.2821" fill="white"/>
<path d="M76.3433 104.931C72.6817 104.931 69.7027 101.949 69.7027 98.2821C69.7027 94.6156 72.6817 91.6328 76.3433 91.6328C80.005 91.6328 82.984 94.6156 82.984 98.2821H82.0152C82.0152 95.1505 79.4709 92.6028 76.3433 92.6028C73.2157 92.6028 70.6715 95.1505 70.6715 98.2821C70.6715 101.414 73.2157 103.961 76.3433 103.961V104.931Z" fill="#263238"/>
<path d="M95.914 99.8897C96.0654 101.013 96.8545 101.834 97.6768 101.723C98.499 101.612 99.0428 100.611 98.8914 99.4875C98.74 98.3638 97.9508 97.543 97.1286 97.6541C96.3065 97.7653 95.7625 98.7662 95.914 99.8897Z" fill="#263238"/>
<path d="M101.783 96.4182C102.878 101.567 105.776 104.316 104.735 105.19C103.238 106.447 101.354 106.385 101.354 106.385" fill="white"/>
<path d="M101.402 106.871C101.367 106.871 101.346 106.87 101.338 106.87C101.071 106.861 100.861 106.637 100.87 106.369C100.879 106.102 101.089 105.89 101.37 105.9C101.386 105.901 103.094 105.935 104.424 104.819C104.646 104.632 104.112 103.58 103.641 102.652C102.895 101.183 101.873 99.1707 101.309 96.5193C101.253 96.2574 101.42 95.9997 101.682 95.944C101.943 95.8877 102.201 96.0554 102.257 96.3173C102.794 98.8441 103.783 100.791 104.504 102.212C105.32 103.819 105.859 104.88 105.046 105.562C103.565 106.805 101.766 106.871 101.402 106.871Z" fill="#263238"/>
<path d="M98.5094 96.192C98.5094 96.192 96.2596 95.7845 95.0097 97.6331Z" fill="white"/>
<path d="M95.0095 98.1179C94.9161 98.1179 94.8217 98.0909 94.7383 98.0344C94.5167 97.8842 94.4588 97.5826 94.6086 97.3609C96.0189 95.2749 98.4913 95.6954 98.5956 95.7145C98.8589 95.7621 99.0336 96.0145 98.9859 96.2781C98.9384 96.5411 98.6898 96.7163 98.4249 96.6693C98.3445 96.6553 96.463 96.3492 95.411 97.9047C95.3174 98.0433 95.1648 98.1179 95.0095 98.1179Z" fill="#263238"/>
<path d="M105.62 96.9787C105.782 98.1857 106.63 99.0675 107.513 98.9482C108.397 98.8289 108.981 97.7536 108.818 96.5466C108.656 95.3397 107.808 94.4578 106.924 94.5769C106.041 94.6964 105.457 95.7717 105.62 96.9787Z" fill="#263238"/>
<path d="M108.456 93.4019C108.456 93.4019 106.207 92.9944 104.957 94.843Z" fill="white"/>
<path d="M104.956 95.3279C104.863 95.3279 104.769 95.3009 104.685 95.2446C104.464 95.0944 104.406 94.7928 104.556 94.5711C105.966 92.4852 108.439 92.9056 108.543 92.9247C108.806 92.9725 108.981 93.2247 108.933 93.4883C108.886 93.7515 108.635 93.9265 108.371 93.8793C108.28 93.8637 106.406 93.5641 105.358 95.115C105.264 95.2534 105.112 95.3279 104.956 95.3279Z" fill="#263238"/>
<path d="M94.4741 108.776C94.4741 108.776 96.0453 112.853 99.6879 112.352Z" fill="white"/>
<path d="M99.0771 112.88C95.5795 112.88 94.0383 108.993 94.0223 108.951C93.9263 108.702 94.0503 108.421 94.2994 108.325C94.548 108.228 94.8289 108.352 94.9259 108.601C94.985 108.753 96.4074 112.313 99.6219 111.871C99.8866 111.835 100.131 112.021 100.168 112.286C100.204 112.551 100.019 112.796 99.754 112.832C99.5206 112.865 99.2949 112.88 99.0771 112.88Z" fill="#263238"/>
<path d="M296.38 90.6434L291.27 70.9434L271.831 76.7645L279.921 97.6345C284.137 108.054 297.622 91.8852 296.38 90.6434Z" fill="white"/>
<path d="M284.259 101.601C284.249 101.601 284.241 101.601 284.232 101.601C282.085 101.59 280.484 100.317 279.472 97.8165L271.38 76.9399C271.331 76.8137 271.337 76.6729 271.397 76.5513C271.456 76.4298 271.564 76.3386 271.693 76.2997L291.131 70.4786C291.257 70.4408 291.393 70.4561 291.508 70.5207C291.622 70.5853 291.706 70.6938 291.739 70.8213L296.826 90.4293C297.095 90.8623 296.836 91.4832 296.746 91.7013C295.683 94.2526 289.338 101.601 284.259 101.601ZM272.473 77.0785L280.373 97.4588C281.44 100.096 283.142 101.077 285.584 100.451C290.416 99.2108 296.003 92.1744 295.979 90.9138C295.948 90.8685 295.926 90.8183 295.912 90.7652L290.927 71.5519L272.473 77.0785Z" fill="#263238"/>
<path d="M255.456 70.1776C256.47 81.1864 266.201 89.2898 277.201 88.2744C288.196 87.2595 296.288 77.5108 295.275 66.502C295.165 65.306 294.952 64.1393 294.643 63.0219C292.131 53.8349 283.33 47.5005 273.53 48.4052C266.467 49.0572 260.609 53.3071 257.581 59.1805C255.894 62.4523 255.093 66.2354 255.456 70.1776Z" fill="white"/>
<path d="M275.35 88.845C264.899 88.845 255.952 80.8436 254.974 70.2222C254.614 66.3135 255.367 62.4184 257.15 58.9582C260.38 52.6939 266.487 48.5683 273.486 47.9225C283.388 47.0081 292.487 53.3042 295.11 62.894C295.428 64.042 295.645 65.2415 295.757 66.4576C296.259 71.9109 294.61 77.2339 291.113 81.446C287.617 85.6581 282.692 88.2546 277.245 88.7574C276.609 88.8161 275.977 88.845 275.35 88.845ZM255.939 70.1332C256.926 80.8587 266.435 88.7806 277.157 87.7914C282.346 87.3124 287.037 84.8387 290.369 80.8257C293.7 76.813 295.271 71.7418 294.792 66.5464C294.686 65.3874 294.479 64.245 294.176 63.1513C291.678 54.0147 283.008 48.0168 273.575 48.8882C266.907 49.5036 261.089 53.4344 258.011 59.4031C256.312 62.6983 255.596 66.4092 255.939 70.1332Z" fill="#263238"/>
<path d="M290.909 63.4242C290.909 63.4242 285.427 65.4734 282.942 61.7411C282.942 61.7411 275.779 63.8634 272.782 59.4724C272.782 59.4724 266.042 62.3266 263.93 58.3746C263.93 58.3746 253.632 61.2287 255.752 53.6908C257.872 46.1528 266.058 45.2746 266.058 45.2746C266.058 45.2746 274.244 42.5668 279.507 44.3965C284.769 46.2261 285.208 47.8361 285.208 47.8361C285.208 47.8361 292.616 49.4288 294.417 53.5444C297.268 60.0577 290.909 63.4242 290.909 63.4242Z" fill="#263238"/>
<path d="M293.516 72.7513C296.771 73.7979 300.257 72.0042 301.302 68.7452C302.347 65.486 300.556 61.9955 297.301 60.9491C294.046 59.9025 290.56 61.6962 289.515 64.9554" fill="white"/>
<path d="M295.404 73.5336C294.729 73.5336 294.044 73.4304 293.368 73.2129L293.664 72.2892C296.658 73.2521 299.879 71.596 300.841 68.5966C301.307 67.1437 301.18 65.5961 300.483 64.2387C299.787 62.8813 298.604 61.877 297.153 61.4104C294.158 60.4475 290.937 62.1036 289.976 65.103L289.053 64.8065C290.179 61.2982 293.944 59.3602 297.449 60.4869C299.146 61.0328 300.53 62.2076 301.345 63.7955C302.16 65.3833 302.308 67.1937 301.763 68.8933C300.855 71.7251 298.226 73.5336 295.404 73.5336Z" fill="#263238"/>
<path d="M270.444 70.9349C270.393 72.1585 269.625 73.1198 268.73 73.082C267.834 73.0442 267.15 72.0217 267.202 70.7981C267.253 69.5745 268.021 68.6132 268.916 68.651C269.812 68.6888 270.496 69.7112 270.444 70.9349Z" fill="#263238"/>
<path d="M267.274 67.6156C267.274 67.6156 269.489 66.9999 270.911 68.735Z" fill="white"/>
<path d="M270.911 69.2201C270.771 69.2201 270.632 69.1595 270.536 69.0426C269.338 67.5806 267.481 68.0623 267.402 68.0834C267.144 68.1533 266.878 68.0009 266.808 67.7434C266.737 67.4857 266.887 67.2197 267.144 67.1483C267.246 67.1197 269.681 66.4695 271.285 68.4273C271.455 68.6343 271.425 68.94 271.218 69.1099C271.128 69.1841 271.019 69.2201 270.911 69.2201Z" fill="#263238"/>
<path d="M261.994 69.6365C261.943 70.8602 261.175 71.8215 260.28 71.7837C259.384 71.7459 258.7 70.7234 258.752 69.4998C258.803 68.2761 259.571 67.3148 260.466 67.3526C261.362 67.3904 262.046 68.4129 261.994 69.6365Z" fill="#263238"/>
<path d="M258.824 66.3176C258.824 66.3176 261.039 65.7016 262.461 67.437Z" fill="white"/>
<path d="M262.461 67.922C262.321 67.922 262.182 67.8614 262.086 67.7445C260.888 66.2823 259.031 66.7641 258.952 66.7853C258.694 66.8552 258.428 66.7028 258.358 66.4453C258.287 66.1876 258.437 65.9216 258.694 65.8502C258.796 65.8216 261.231 65.1714 262.835 67.1292C263.005 67.3362 262.975 67.6419 262.768 67.8118C262.678 67.8858 262.569 67.922 262.461 67.922Z" fill="#263238"/>
<path d="M264.121 70.21C264.121 70.21 263.345 78.0237 264.925 78.9472C266.505 79.8707 269.436 79.6858 269.436 79.6858" fill="white"/>
<path d="M268.81 80.1864C267.812 80.1864 265.908 80.083 264.681 79.366C262.965 78.3634 263.449 72.0676 263.639 70.1617C263.666 69.8951 263.908 69.7006 264.168 69.727C264.435 69.7534 264.629 69.991 264.603 70.2576C264.245 73.8668 264.359 78.0549 265.169 78.5281C266.605 79.3674 269.378 79.2032 269.406 79.2014C269.653 79.1845 269.903 79.3873 269.919 79.655C269.936 79.9222 269.733 80.1527 269.466 80.1696C269.432 80.1718 269.185 80.1864 268.81 80.1864Z" fill="#263238"/>
<path d="M271.733 82.358C271.836 83.4825 272.83 84.3098 273.953 84.2062C275.076 84.1026 275.903 83.1069 275.799 81.9827C275.696 80.8582 274.701 80.0309 273.578 80.1345C272.456 80.2381 271.629 81.2338 271.733 82.358Z" fill="#263238"/>
<path d="M266.423 51.9959C267.712 46.5305 264.332 41.0537 258.874 39.7631C253.415 38.4726 247.945 41.857 246.656 47.3224C245.367 52.7879 248.748 58.2647 254.206 59.5552C259.665 60.8458 265.134 57.4614 266.423 51.9959Z" fill="#263238"/>
<path d="M171.931 63.5606C173.243 67.5651 177.541 69.7465 181.541 68.4325C183.281 67.8608 184.673 66.7241 185.588 65.2926C185.808 64.9375 186.056 64.6006 186.315 64.2817L190.884 78.2245L153.217 90.5991L148.548 76.3521C148.138 76.8073 147.762 77.3006 147.43 77.8284C146.515 79.2597 145.123 80.3966 143.383 80.9683C139.383 82.2821 135.085 80.1009 133.773 76.0965C132.464 72.1016 134.636 67.7949 138.635 66.4811C140.375 65.9094 142.174 65.998 143.755 66.6146C144.335 66.8428 144.93 67.0172 145.529 67.1407L140.857 52.8842L178.525 40.5095L183.097 54.4618C182.7 54.3588 182.301 54.2344 181.913 54.079C180.332 53.4624 178.533 53.3738 176.793 53.9454C172.794 55.2591 170.622 59.5657 171.931 63.5606Z" fill="#1FB6FF"/>
<path d="M153.217 91.0843C153.141 91.0843 153.067 91.0666 152.998 91.032C152.883 90.9739 152.796 90.8727 152.756 90.7504L148.361 77.3366C148.175 77.5803 148.001 77.8309 147.84 78.0869C146.833 79.6615 145.305 80.8474 143.534 81.429C139.291 82.8228 134.706 80.4984 133.313 76.2475C132.639 74.1914 132.805 71.9955 133.781 70.0642C134.758 68.1319 136.428 66.6955 138.485 66.02C140.263 65.4357 142.198 65.4863 143.931 66.1624C144.213 66.2734 144.502 66.3721 144.796 66.4583L140.397 53.035C140.357 52.9129 140.367 52.7795 140.425 52.6649C140.483 52.5501 140.584 52.4631 140.707 52.4231L178.374 40.0482C178.628 39.9647 178.902 40.1035 178.985 40.3579L183.557 54.3103C183.613 54.4787 183.572 54.6641 183.451 54.7933C183.329 54.9228 183.147 54.9754 182.976 54.9311C182.52 54.8131 182.113 54.6814 181.733 54.5289C180.212 53.9359 178.51 53.8918 176.944 54.406C173.209 55.6331 171.167 59.6723 172.391 63.4095C172.985 65.2235 174.248 66.6969 175.946 67.5584C177.646 68.4199 179.578 68.5666 181.389 67.9718C182.971 67.4521 184.282 66.4354 185.18 65.0312C185.392 64.6888 185.642 64.3417 185.939 63.9757C186.051 63.8381 186.23 63.773 186.403 63.805C186.577 63.8373 186.72 63.9621 186.775 64.1307L191.344 78.0735C191.384 78.1956 191.374 78.329 191.316 78.4436C191.258 78.5584 191.157 78.6454 191.035 78.6854L153.367 91.0603C153.318 91.0763 153.268 91.0843 153.217 91.0843ZM148.548 75.8672C148.582 75.8672 148.615 75.8707 148.648 75.8778C148.817 75.9136 148.955 76.0367 149.009 76.2011L153.526 89.9872L190.273 77.915L186.146 65.3212C186.095 65.3973 186.046 65.4731 186 65.5487C184.991 67.1259 183.463 68.3118 181.692 68.8936C179.635 69.5696 177.439 69.4025 175.509 68.424C173.58 67.4456 172.146 65.7722 171.47 63.7121C170.08 59.4666 172.4 54.8785 176.642 53.4845C178.422 52.9003 180.356 52.9509 182.089 53.627C182.173 53.6607 182.259 53.6935 182.346 53.725L178.216 41.1217L141.469 53.1939L145.99 66.9898C146.044 67.1542 146.006 67.3349 145.891 67.4639C145.776 67.593 145.601 67.6511 145.432 67.6161C144.795 67.4848 144.172 67.2999 143.579 67.0664C142.055 66.4721 140.352 66.4278 138.787 66.9424C136.976 67.5373 135.506 68.8018 134.646 70.5028C133.787 72.203 133.64 74.1359 134.234 75.9457C135.46 79.6886 139.496 81.7351 143.232 80.508C144.814 79.9883 146.125 78.9716 147.022 77.5675C147.361 77.0299 147.754 76.5109 148.189 76.028C148.281 75.9243 148.413 75.8672 148.548 75.8672Z" fill="#263238"/>
<path d="M216.965 30.7548C220.451 33.1186 225.183 32.2107 227.544 28.7211C228.571 27.203 228.977 25.4511 228.826 23.7584C228.794 23.4371 228.777 23.1134 228.778 22.7896L240.788 30.9349L232.389 43.3492C233 43.3953 233.62 43.3912 234.239 43.3311C235.93 43.1803 237.68 43.5871 239.196 44.6153C242.681 46.979 243.588 51.7175 241.23 55.2027C238.872 58.6879 234.141 59.6029 230.656 57.2391C229.14 56.2109 228.109 54.732 227.629 53.1026C227.455 52.504 227.228 51.9263 226.959 51.3757L218.555 63.7985L206.152 55.3869C206.111 56.0012 206.115 56.6215 206.175 57.2423C206.325 58.9352 205.919 60.6871 204.892 62.2052C202.531 65.6947 197.799 66.6025 194.314 64.2389C190.833 61.8782 189.923 57.144 192.284 53.6545C193.311 52.1364 194.788 51.1044 196.411 50.6207C197.009 50.4461 197.59 50.2226 198.136 49.95L185.733 41.5382L194.134 29.1194C193.524 29.0735 192.904 29.0776 192.284 29.1373C190.593 29.2883 188.844 28.8814 187.328 27.8531C183.842 25.4893 182.936 20.751 185.293 17.2659C187.651 13.7807 192.382 12.8655 195.867 15.2293C197.384 16.2574 198.414 17.7365 198.894 19.366C199.069 19.9647 199.295 20.5423 199.564 21.0931L207.965 8.67432L219.979 16.8224C219.68 16.9435 219.373 17.0472 219.063 17.1366C217.44 17.6203 215.963 18.6523 214.936 20.1702C212.575 23.6599 213.485 28.3941 216.965 30.7548Z" fill="#8EEA7F"/>
<path d="M198.574 66.0409C196.969 66.0409 195.401 65.5623 194.042 64.6405C190.347 62.1346 189.379 57.0844 191.883 53.3826C192.931 51.8329 194.49 50.6869 196.273 50.1559C196.571 50.0689 196.861 49.9703 197.141 49.861L185.461 41.9399C185.355 41.8678 185.281 41.7562 185.257 41.63C185.233 41.5036 185.26 41.3729 185.332 41.2664L193.242 29.574C192.935 29.576 192.631 29.5915 192.33 29.6203C190.47 29.7866 188.599 29.3013 187.056 28.255C185.263 27.0395 184.052 25.1989 183.643 23.0719C183.235 20.9459 183.679 18.7874 184.892 16.9941C187.396 13.2923 192.441 12.3204 196.139 14.8279C197.689 15.8792 198.833 17.4422 199.359 19.229C199.444 19.5196 199.542 19.8088 199.654 20.095L207.564 8.40255C207.714 8.18083 208.015 8.1227 208.237 8.27289L220.251 16.421C220.399 16.5216 220.48 16.6955 220.461 16.8738C220.442 17.052 220.327 17.2052 220.161 17.2723C219.861 17.3934 219.537 17.5046 219.197 17.6028C217.632 18.069 216.26 19.078 215.337 20.4425C213.132 23.7013 213.985 28.1475 217.237 30.3534C220.494 32.5627 224.938 31.7081 227.142 28.4491C228.076 27.0692 228.491 25.4618 228.344 23.8015C228.309 23.4592 228.292 23.1166 228.293 22.7886C228.293 22.6093 228.392 22.4447 228.551 22.361C228.709 22.2772 228.901 22.2874 229.049 22.3882L241.059 30.5334C241.165 30.6056 241.239 30.7172 241.263 30.8434C241.287 30.9696 241.26 31.1005 241.188 31.2069L233.281 42.8951C233.588 42.8931 233.892 42.8776 234.192 42.8485C236.052 42.6827 237.925 43.1676 239.468 44.214C243.165 46.7215 244.135 51.7732 241.631 55.4752C239.126 59.177 234.082 60.1485 230.384 57.6412C228.834 56.5901 227.691 55.0273 227.164 53.2405C227.079 52.9497 226.981 52.6605 226.869 52.3743L218.956 64.0712C218.884 64.1777 218.773 64.2513 218.647 64.2755C218.519 64.2998 218.39 64.2728 218.283 64.2007L206.609 56.2832C206.612 56.5932 206.628 56.8982 206.657 57.1959C206.822 59.0585 206.338 60.9329 205.293 62.4777C204.079 64.2724 202.24 65.4857 200.116 65.8938C199.602 65.9921 199.086 66.0409 198.574 66.0409ZM186.406 41.4087L198.408 49.5484C198.55 49.6452 198.631 49.8102 198.619 49.9821C198.608 50.154 198.506 50.3071 198.352 50.3839C197.792 50.6635 197.185 50.8999 196.547 51.0861C194.981 51.5527 193.608 52.5617 192.685 53.9262C190.48 57.1852 191.333 61.6312 194.585 63.8371C196.164 64.9079 198.064 65.2997 199.933 64.9404C201.803 64.5811 203.422 63.5131 204.491 61.933C205.424 60.5529 205.84 58.9458 205.692 57.2852C205.632 56.6657 205.624 56.0148 205.669 55.3539C205.681 55.1805 205.784 55.0269 205.94 54.9509C206.096 54.8747 206.281 54.8879 206.424 54.9852L218.426 63.125L226.558 51.1035C226.655 50.9605 226.819 50.8796 226.993 50.8918C227.166 50.904 227.318 51.007 227.394 51.1623C227.68 51.748 227.916 52.355 228.094 52.9667C228.557 54.5369 229.563 55.9119 230.928 56.8375C234.182 59.0447 238.624 58.1897 240.829 54.9307C243.034 51.6716 242.179 47.2243 238.924 45.0168C237.546 44.0822 235.942 43.6661 234.282 43.8141C233.652 43.8753 233.002 43.8816 232.353 43.8326C232.181 43.8196 232.029 43.7157 231.953 43.5599C231.878 43.4042 231.892 43.2201 231.988 43.0768L240.115 31.0641L229.311 23.7366C229.469 25.5917 228.985 27.4553 227.945 28.9928C225.441 32.6946 220.393 33.6652 216.694 31.1561C212.999 28.6503 212.03 23.5999 214.535 19.898C215.579 18.3547 217.129 17.2119 218.903 16.6781L208.095 9.34777L199.965 21.3647C199.868 21.508 199.702 21.5891 199.53 21.5765C199.358 21.5643 199.205 21.4613 199.129 21.3058C198.843 20.7201 198.608 20.113 198.429 19.5017C197.967 17.9314 196.96 16.5561 195.596 15.6306C192.341 13.4229 187.899 14.2787 185.695 17.5377C184.626 19.1166 184.236 21.0168 184.595 22.8883C184.955 24.7607 186.021 26.3813 187.599 27.4515C188.978 28.3863 190.585 28.8019 192.241 28.654C192.873 28.5932 193.523 28.5869 194.171 28.6357C194.343 28.6487 194.495 28.7525 194.57 28.9082C194.646 29.0641 194.632 29.248 194.535 29.3913L186.406 41.4087Z" fill="#263238"/>
</svg>
