<svg width="480" height="480" viewBox="0 0 480 480" fill="none" xmlns="http://www.w3.org/2000/svg">
<g clip-path="url(#clip0_464_1770)">
<g clip-path="url(#clip1_464_1770)">
<rect width="480" height="480" rx="24" fill="#E6F3FF"/>
<path d="M240.529 151C236.599 151 233.402 147.674 233.402 143.585V140.611C233.402 136.522 236.599 133.196 240.528 133.196C244.458 133.196 247.655 136.522 247.655 140.611V143.585C247.656 147.674 244.458 151 240.529 151ZM240.529 135.796C238.033 135.796 236.003 137.956 236.003 140.61V143.585C236.003 146.239 238.033 148.399 240.529 148.399C243.024 148.399 245.055 146.239 245.055 143.585V140.61C245.055 137.956 243.025 135.796 240.529 135.796ZM243.786 128.183C243.783 128.183 243.781 128.183 243.778 128.183L238.416 128.151C237.229 128.296 236.026 127.935 235.099 127.15C234.104 126.308 233.52 125.067 233.495 123.745C233.375 117.25 235.722 111.969 240.473 108.048C241.062 107.562 241.673 107.075 242.32 106.561C247.024 102.819 252.357 98.5764 251.534 92.4864C251.179 89.8611 249.692 88.2487 248.507 87.3584C246.63 85.9478 244.21 85.3393 241.871 85.6869C238.514 86.1868 235.409 88.5918 233.353 92.284L233.333 92.3195C231.993 94.7218 229.072 95.6232 226.683 94.3721L222.997 92.4416C220.591 91.182 219.58 88.1892 220.695 85.6283C222.948 80.4531 226.822 76.3585 231.897 73.7873C236.56 71.4245 241.987 70.5208 247.176 71.2419C257.558 72.6855 264.886 80.0824 266.301 90.5456C267.364 98.4128 264.382 105.512 257.437 111.644C256.62 112.366 255.773 113.054 254.954 113.718C251.334 116.657 248.207 119.194 247.738 124.04C247.532 126.172 245.986 127.87 243.978 128.169C243.914 128.178 243.85 128.183 243.786 128.183ZM243.166 82.9911C245.641 82.9911 248.087 83.7905 250.069 85.2794C252.305 86.9591 253.74 89.3949 254.11 92.138C255.131 99.6914 248.925 104.629 243.938 108.596C243.301 109.103 242.699 109.581 242.128 110.053C237.962 113.492 235.988 117.955 236.095 123.696C236.105 124.271 236.355 124.806 236.778 125.165C237.169 125.495 237.652 125.636 238.142 125.564C238.208 125.554 238.276 125.547 238.341 125.55L243.679 125.582C244.462 125.423 245.061 124.698 245.149 123.789C245.723 117.861 249.582 114.728 253.315 111.699C254.113 111.051 254.939 110.381 255.716 109.695C262.057 104.095 264.676 97.945 263.724 90.8937C262.453 81.4963 256.133 75.1126 246.817 73.817C238.579 72.6721 227.635 76.2034 223.079 86.6664C222.515 87.9609 223.019 89.5184 224.202 90.1379L227.889 92.0684C229.039 92.6701 230.403 92.234 231.062 91.0533L231.081 91.0184C233.534 86.6156 237.327 83.7347 241.488 83.1149C242.045 83.0318 242.607 82.9911 243.166 82.9911Z" fill="#0487FF"/>
<g clip-path="url(#clip2_464_1770)">
<path d="M72.0003 296C67.2541 295.999 62.6146 294.591 58.6685 291.954C54.7224 289.317 51.6468 285.569 49.8306 281.184C48.0144 276.799 47.5391 271.974 48.4649 267.319C49.3906 262.664 51.6758 258.388 55.0315 255.031C59.2345 250.82 64.8516 248.321 70.7933 248.017C76.735 247.714 82.5777 249.628 87.1879 253.388C91.7982 257.149 94.8473 262.488 95.7439 268.369C96.6405 274.25 95.3206 280.255 92.0403 285.219C91.9422 285.381 91.8123 285.521 91.6586 285.632C91.5048 285.742 91.3303 285.821 91.1455 285.862C90.9608 285.904 90.7695 285.907 90.5832 285.873C90.397 285.839 90.2195 285.767 90.0616 285.663C89.9036 285.558 89.7684 285.423 89.6641 285.265C89.5597 285.107 89.4883 284.93 89.4542 284.743C89.4201 284.557 89.424 284.366 89.4657 284.181C89.5073 283.996 89.5858 283.822 89.6965 283.668C91.9826 280.207 93.197 276.148 93.1878 272C93.1878 260.317 83.6834 250.812 72.0003 250.812C60.3172 250.812 50.8128 260.317 50.8128 272C50.8128 283.683 60.3172 293.187 72.0003 293.187C75.9585 293.192 79.8383 292.084 83.1978 289.991C83.3545 289.888 83.5301 289.818 83.7143 289.784C83.8985 289.75 84.0876 289.753 84.2705 289.794C84.4534 289.834 84.6265 289.91 84.7794 290.019C84.9324 290.127 85.0623 290.264 85.1614 290.423C85.2605 290.582 85.3268 290.759 85.3565 290.944C85.3863 291.129 85.3787 291.318 85.3344 291.5C85.2901 291.682 85.2099 291.853 85.0985 292.004C84.987 292.154 84.8467 292.281 84.6856 292.377C80.8801 294.749 76.4847 296.004 72.0003 296Z" fill="#0487FF"/>
<path d="M72 256.407C71.627 256.407 71.2694 256.258 71.0056 255.995C70.7419 255.731 70.5938 255.373 70.5938 255V249.406C70.5938 249.033 70.7419 248.676 71.0056 248.412C71.2694 248.148 71.627 248 72 248C72.373 248 72.7306 248.148 72.9944 248.412C73.2581 248.676 73.4062 249.033 73.4062 249.406V255C73.4062 255.373 73.2581 255.731 72.9944 255.995C72.7306 256.258 72.373 256.407 72 256.407Z" fill="#0487FF"/>
<path d="M72 296C71.627 296 71.2694 295.852 71.0056 295.588C70.7419 295.324 70.5938 294.967 70.5938 294.594V289C70.5938 288.627 70.7419 288.269 71.0056 288.005C71.2694 287.742 71.627 287.593 72 287.593C72.373 287.593 72.7306 287.742 72.9944 288.005C73.2581 288.269 73.4062 288.627 73.4062 289V294.594C73.4062 294.967 73.2581 295.324 72.9944 295.588C72.7306 295.852 72.373 296 72 296Z" fill="#0487FF"/>
<path d="M94.5941 273.406H89C88.627 273.406 88.2694 273.258 88.0056 272.994C87.7419 272.731 87.5938 272.373 87.5938 272C87.5938 271.627 87.7419 271.269 88.0056 271.006C88.2694 270.742 88.627 270.594 89 270.594H94.5941C94.967 270.594 95.3247 270.742 95.5884 271.006C95.8522 271.269 96.0003 271.627 96.0003 272C96.0003 272.373 95.8522 272.731 95.5884 272.994C95.3247 273.258 94.967 273.406 94.5941 273.406Z" fill="#0487FF"/>
<path d="M55.0003 273.406H49.4063C49.0333 273.406 48.6756 273.258 48.4119 272.994C48.1482 272.731 48 272.373 48 272C48 271.627 48.1482 271.269 48.4119 271.006C48.6756 270.742 49.0333 270.594 49.4063 270.594H55.0003C55.3733 270.594 55.731 270.742 55.9947 271.006C56.2584 271.269 56.4066 271.627 56.4066 272C56.4066 272.373 56.2584 272.731 55.9947 272.994C55.731 273.258 55.3733 273.406 55.0003 273.406Z" fill="#0487FF"/>
<path d="M72 273.219C71.627 273.219 71.2694 273.071 71.0056 272.807C70.7419 272.543 70.5938 272.185 70.5938 271.812V262.344C70.5938 261.971 70.7419 261.613 71.0056 261.349C71.2694 261.086 71.627 260.938 72 260.938C72.373 260.938 72.7306 261.086 72.9944 261.349C73.2581 261.613 73.4062 261.971 73.4062 262.344V271.812C73.4062 272.185 73.2581 272.543 72.9944 272.807C72.7306 273.071 72.373 273.219 72 273.219Z" fill="#0487FF"/>
<path d="M80.5792 281.796C80.3945 281.796 80.2117 281.76 80.0411 281.689C79.8706 281.618 79.7157 281.514 79.5854 281.383L71.0054 272.804C70.7417 272.541 70.5937 272.183 70.5938 271.81C70.5938 271.437 70.7421 271.079 71.0059 270.815C71.2697 270.552 71.6275 270.404 72.0005 270.404C72.3734 270.404 72.7311 270.552 72.9948 270.816L81.5739 279.395C81.7707 279.592 81.9047 279.842 81.959 280.115C82.0133 280.388 81.9855 280.671 81.879 280.928C81.7725 281.185 81.5922 281.405 81.3608 281.559C81.1294 281.714 80.8574 281.796 80.5792 281.796Z" fill="#0487FF"/>
</g>
<path d="M389.94 280.901V289.842C389.94 291.955 391.349 293.364 393.087 293.364H432.916C434.654 293.364 436.063 291.954 436.062 289.841L436.053 257.143C436.06 256.429 435.467 255.389 434.538 254.828C434.047 254.531 433.481 254.371 432.905 254.372H429.965V256.329C429.965 257.432 429.071 258.326 427.968 258.326C426.867 258.326 425.973 257.432 425.973 256.329V254.372H420.122V256.329C420.122 257.432 419.228 258.326 418.126 258.326C417.024 258.326 416.129 257.432 416.129 256.329V254.372H410.279V256.329C410.279 257.432 409.385 258.326 408.283 258.326C407.18 258.326 406.286 257.432 406.286 256.329V254.372H400.436V256.329C400.436 257.432 399.543 258.326 398.44 258.326C397.337 258.326 396.444 257.432 396.444 256.329V254.372H393.087C391.349 254.372 389.94 255.782 389.94 257.144V272.65" stroke="#0487FF" stroke-width="1.875" stroke-miterlimit="10" stroke-linecap="round" stroke-linejoin="round"/>
<path d="M436.052 257.143V263.232H389.94V257.144C389.94 255.779 391.349 254.372 393.087 254.372H396.443V256.329C396.443 257.432 397.337 258.326 398.44 258.326C399.542 258.326 400.436 257.432 400.436 256.329V254.372H406.286V256.329C406.286 257.432 407.18 258.326 408.282 258.326C409.385 258.326 410.279 257.432 410.279 256.329V254.372H416.129V256.329C416.129 257.432 417.023 258.326 418.125 258.326C419.228 258.326 420.122 257.432 420.122 256.329V254.372H425.973V256.329C425.973 257.432 426.866 258.326 427.968 258.326C429.071 258.326 429.964 257.432 429.964 256.329V254.372H432.905C433.481 254.371 434.046 254.531 434.537 254.828C435.467 255.389 436.052 256.42 436.052 257.143Z" stroke="#0487FF" stroke-width="1.875" stroke-miterlimit="10" stroke-linecap="round" stroke-linejoin="round"/>
<path d="M398.44 258.325H398.439C397.337 258.325 396.443 257.432 396.443 256.33V252.631C396.443 251.529 397.337 250.636 398.439 250.636H398.44C399.542 250.636 400.435 251.529 400.435 252.631V256.33C400.435 257.432 399.542 258.325 398.44 258.325Z" stroke="#0487FF" stroke-width="1.875" stroke-miterlimit="10" stroke-linecap="round" stroke-linejoin="round"/>
<path d="M408.284 258.325H408.283C407.181 258.325 406.287 257.432 406.287 256.33V252.631C406.287 251.529 407.181 250.636 408.283 250.636H408.284C409.386 250.636 410.279 251.529 410.279 252.631V256.33C410.279 257.432 409.386 258.325 408.284 258.325Z" stroke="#0487FF" stroke-width="1.875" stroke-miterlimit="10" stroke-linecap="round" stroke-linejoin="round"/>
<path d="M418.126 258.325H418.126C417.023 258.325 416.13 257.432 416.13 256.33V252.631C416.13 251.529 417.023 250.636 418.126 250.636H418.126C419.229 250.636 420.122 251.529 420.122 252.631V256.33C420.122 257.432 419.229 258.325 418.126 258.325Z" stroke="#0487FF" stroke-width="1.875" stroke-miterlimit="10" stroke-linecap="round" stroke-linejoin="round"/>
<path d="M427.969 258.325H427.968C426.866 258.325 425.973 257.432 425.973 256.33V252.631C425.973 251.529 426.866 250.636 427.968 250.636H427.969C429.071 250.636 429.965 251.529 429.965 252.631V256.33C429.965 257.432 429.071 258.325 427.969 258.325Z" stroke="#0487FF" stroke-width="1.875" stroke-miterlimit="10" stroke-linecap="round" stroke-linejoin="round"/>
<path d="M407.84 288.226L410.089 282.32C410.135 282.208 410.294 282.208 410.341 282.32L412.57 288.226" stroke="#0487FF" stroke-width="1.875" stroke-miterlimit="10" stroke-linecap="round" stroke-linejoin="round"/>
<path d="M408.542 286.755H411.88" stroke="#0487FF" stroke-width="1.875" stroke-miterlimit="10" stroke-linecap="round" stroke-linejoin="round"/>
<path d="M424.616 282.852C424.616 282.852 423.541 281.948 422.274 282.33C421.11 282.681 420.947 284.023 421.789 284.572C421.789 284.572 422.615 284.94 423.532 285.278C425.738 286.092 424.787 288.226 423.011 288.226C422.122 288.226 421.376 287.837 420.924 287.338" stroke="#0487FF" stroke-width="1.875" stroke-miterlimit="10" stroke-linecap="round" stroke-linejoin="round"/>
<path d="M414.537 282.236L416.451 285.166L418.348 282.251" stroke="#0487FF" stroke-width="1.875" stroke-miterlimit="10" stroke-linecap="round" stroke-linejoin="round"/>
<path d="M416.443 288.226L416.451 285.166" stroke="#0487FF" stroke-width="1.875" stroke-miterlimit="10" stroke-linecap="round" stroke-linejoin="round"/>
<path d="M401.195 282.257V288.129" stroke="#0487FF" stroke-width="1.875" stroke-miterlimit="10" stroke-linecap="round" stroke-linejoin="round"/>
<path d="M405.301 285.239C405.301 286.885 404.387 288.188 402.937 288.213C402.455 288.222 401.207 288.226 401.207 288.226C401.207 288.226 401.2 286.062 401.2 285.232C401.2 284.55 401.195 282.251 401.195 282.251C401.195 282.251 402.317 282.251 402.888 282.251C404.478 282.251 405.301 283.592 405.301 285.239Z" stroke="#0487FF" stroke-width="1.875" stroke-miterlimit="10" stroke-linecap="round" stroke-linejoin="round"/>
<path d="M420.156 274.468C420.156 276.064 418.863 277.357 417.267 277.357C415.671 277.357 414.378 276.064 414.378 274.468V270.41C414.378 268.815 415.671 267.521 417.267 267.521C418.863 267.521 420.156 268.815 420.156 270.41V274.468Z" stroke="#0487FF" stroke-width="1.875" stroke-miterlimit="10" stroke-linecap="round" stroke-linejoin="round"/>
<path d="M405.898 269.509C406.121 268.376 407.12 267.521 408.318 267.521C409.68 267.521 410.784 268.625 410.784 269.987C410.784 271.349 409.68 272.453 408.318 272.453" stroke="#0487FF" stroke-width="1.875" stroke-miterlimit="10" stroke-linecap="round" stroke-linejoin="round"/>
<path d="M408.319 272.453C409.681 272.453 410.785 273.558 410.785 274.92C410.785 276.282 409.681 277.386 408.319 277.386C407.073 277.386 406.044 276.463 405.876 275.264C405.861 275.151 405.853 275.036 405.853 274.92" stroke="#0487FF" stroke-width="1.875" stroke-miterlimit="10" stroke-linecap="round" stroke-linejoin="round"/>
<circle cx="389.938" cy="276.803" r="0.9375" fill="#0487FF"/>
<path d="M-63.0307 40.7969C-37.594 54.9419 19.0022 75.7462 41.8932 45.8041C70.5069 8.37631 41.7034 0.871165 33.2448 19.5474C24.7861 38.2236 66.9969 63.6024 108.765 25.1246C142.179 -5.65761 157.787 -53.1178 161.414 -73" stroke="#0487FF" stroke-dasharray="6 6"/>
<path d="M479.529 315.123C454.601 330.146 408.389 368.881 422.967 403.637C441.189 447.083 462.034 425.835 450.045 409.203C438.056 392.572 395.035 416.553 407.622 471.93C417.691 516.232 451.088 553.391 466.527 566.432" stroke="#0487FF" stroke-dasharray="6 6"/>
</g>
<mask id="path-32-inside-1_464_1770" fill="white">
<path fill-rule="evenodd" clip-rule="evenodd" d="M386.339 319.49C383.939 320.201 381.532 320.915 379.304 321.999C374.997 324.089 371.429 327.657 369.233 331.922C368.743 332.875 367.963 333.784 366.632 335.336C365.9 336.189 365.001 337.237 363.892 338.593C363.871 338.619 363.852 338.644 363.834 338.669C361.174 341.519 358.497 345.153 354.963 349.949C354.083 351.143 353.151 352.409 352.152 353.753C349.542 357.27 345.623 361.695 341.222 366.663L341.221 366.664L341.219 366.667C340.057 367.978 338.862 369.327 337.649 370.707C335.792 362.797 334.035 357.242 333.678 356.751C316.872 331.668 281.867 352.211 287.947 374.654C288.682 377.368 289.401 380.28 290.148 383.303C295.576 405.288 302.454 433.143 327.492 433.032C330.688 433.016 333.269 432.093 335.331 430.462C338.951 428.011 342.473 423.931 346.262 418.908C352.322 410.867 364.287 388.911 373.005 372.914L373.005 372.914C378.227 363.331 382.284 355.887 383.209 354.851C385.696 352.051 390.824 352.296 396.908 352.586C401.248 352.794 406.074 353.024 410.774 352.189C415.128 352.15 419.739 350.842 424.042 348.327C429.553 345.117 434.008 340.43 437.935 336.292C439.413 334.73 439.349 332.281 437.787 330.782C437.568 330.571 437.329 330.392 437.078 330.244C437.481 329.912 437.893 329.598 438.316 329.304C440.089 328.079 440.532 325.651 439.308 323.878C438.139 322.233 435.947 321.742 434.216 322.699L434.24 322.674C435.739 321.133 435.697 318.663 434.156 317.164C432.663 315.711 430.297 315.706 428.788 317.109C428.737 316.184 428.359 315.273 427.654 314.567C426.133 313.047 423.663 313.047 422.143 314.567C416.018 320.726 408.292 325.163 399.945 327.421C398.477 327.466 396.97 327.46 395.46 327.454L395.111 327.453C397.623 325.047 399.834 322.343 401.642 319.338C402.17 318.43 402.697 317.48 402.824 316.425C402.951 315.369 402.592 314.208 401.726 313.617C400.029 312.472 397.937 313.999 396.253 315.228L396.089 315.348C393.215 317.451 389.783 318.468 386.339 319.49Z"/>
</mask>
<path fill-rule="evenodd" clip-rule="evenodd" d="M386.339 319.49C383.939 320.201 381.532 320.915 379.304 321.999C374.997 324.089 371.429 327.657 369.233 331.922C368.743 332.875 367.963 333.784 366.632 335.336C365.9 336.189 365.001 337.237 363.892 338.593C363.871 338.619 363.852 338.644 363.834 338.669C361.174 341.519 358.497 345.153 354.963 349.949C354.083 351.143 353.151 352.409 352.152 353.753C349.542 357.27 345.623 361.695 341.222 366.663L341.221 366.664L341.219 366.667C340.057 367.978 338.862 369.327 337.649 370.707C335.792 362.797 334.035 357.242 333.678 356.751C316.872 331.668 281.867 352.211 287.947 374.654C288.682 377.368 289.401 380.28 290.148 383.303C295.576 405.288 302.454 433.143 327.492 433.032C330.688 433.016 333.269 432.093 335.331 430.462C338.951 428.011 342.473 423.931 346.262 418.908C352.322 410.867 364.287 388.911 373.005 372.914L373.005 372.914C378.227 363.331 382.284 355.887 383.209 354.851C385.696 352.051 390.824 352.296 396.908 352.586C401.248 352.794 406.074 353.024 410.774 352.189C415.128 352.15 419.739 350.842 424.042 348.327C429.553 345.117 434.008 340.43 437.935 336.292C439.413 334.73 439.349 332.281 437.787 330.782C437.568 330.571 437.329 330.392 437.078 330.244C437.481 329.912 437.893 329.598 438.316 329.304C440.089 328.079 440.532 325.651 439.308 323.878C438.139 322.233 435.947 321.742 434.216 322.699L434.24 322.674C435.739 321.133 435.697 318.663 434.156 317.164C432.663 315.711 430.297 315.706 428.788 317.109C428.737 316.184 428.359 315.273 427.654 314.567C426.133 313.047 423.663 313.047 422.143 314.567C416.018 320.726 408.292 325.163 399.945 327.421C398.477 327.466 396.97 327.46 395.46 327.454L395.111 327.453C397.623 325.047 399.834 322.343 401.642 319.338C402.17 318.43 402.697 317.48 402.824 316.425C402.951 315.369 402.592 314.208 401.726 313.617C400.029 312.472 397.937 313.999 396.253 315.228L396.089 315.348C393.215 317.451 389.783 318.468 386.339 319.49Z" fill="white"/>
<path d="M379.304 321.999L379.741 322.898L379.741 322.898L379.304 321.999ZM386.339 319.49L386.623 320.448V320.448L386.339 319.49ZM369.233 331.922L368.344 331.464L368.344 331.464L369.233 331.922ZM366.632 335.336L367.391 335.987L366.632 335.336ZM363.892 338.593L363.117 337.96L363.113 337.966L363.892 338.593ZM363.834 338.669L364.565 339.351L364.609 339.304L364.646 339.252L363.834 338.669ZM354.963 349.949L354.158 349.356L354.963 349.949ZM352.152 353.753L351.349 353.156L351.349 353.157L352.152 353.753ZM341.222 366.663L341.97 367.327L341.971 367.326L341.222 366.663ZM341.221 366.664L340.473 366L340.473 366.001L341.221 366.664ZM341.219 366.667L340.47 366.004L340.47 366.004L341.219 366.667ZM337.649 370.707L336.676 370.935L337.119 372.824L338.4 371.367L337.649 370.707ZM333.678 356.751L332.847 357.307L332.858 357.323L332.869 357.339L333.678 356.751ZM287.947 374.654L286.982 374.916H286.982L287.947 374.654ZM290.148 383.303L289.177 383.543H289.177L290.148 383.303ZM327.492 433.032L327.496 434.032L327.497 434.032L327.492 433.032ZM335.331 430.462L334.77 429.634L334.74 429.655L334.711 429.678L335.331 430.462ZM346.262 418.908L347.06 419.51L347.06 419.51L346.262 418.908ZM373.005 372.914L373.883 373.393L373.886 373.387L373.005 372.914ZM373.005 372.914L372.127 372.435L372.124 372.44L373.005 372.914ZM383.209 354.851L383.955 355.517L383.957 355.515L383.209 354.851ZM396.908 352.586L396.861 353.585L396.908 352.586ZM410.774 352.189L410.765 351.189L410.682 351.19L410.599 351.205L410.774 352.189ZM424.042 348.327L423.539 347.463L423.538 347.463L424.042 348.327ZM437.935 336.292L438.66 336.981L438.661 336.979L437.935 336.292ZM437.787 330.782L438.479 330.06L438.479 330.06L437.787 330.782ZM437.078 330.244L436.442 329.472L435.338 330.38L436.57 331.106L437.078 330.244ZM438.316 329.304L437.747 328.481L437.745 328.483L438.316 329.304ZM439.308 323.878L440.131 323.31L440.123 323.298L439.308 323.878ZM434.216 322.699L433.497 322.004L434.7 323.574L434.216 322.699ZM434.24 322.674L433.524 321.977L433.522 321.979L434.24 322.674ZM434.156 317.164L433.459 317.88V317.88L434.156 317.164ZM428.788 317.109L427.789 317.163L427.905 319.295L429.469 317.841L428.788 317.109ZM427.654 314.567L428.361 313.86V313.86L427.654 314.567ZM422.143 314.567L421.436 313.86L421.434 313.862L422.143 314.567ZM399.945 327.421L399.976 328.421L400.093 328.417L400.206 328.387L399.945 327.421ZM395.46 327.454L395.464 326.454L395.464 326.454L395.46 327.454ZM395.111 327.453L394.419 326.731L392.631 328.443L395.107 328.453L395.111 327.453ZM401.642 319.338L402.499 319.854L402.502 319.847L402.506 319.841L401.642 319.338ZM402.824 316.425L403.817 316.544L402.824 316.425ZM401.726 313.617L402.29 312.791L402.285 312.788L401.726 313.617ZM396.253 315.228L396.842 316.036L396.843 316.036L396.253 315.228ZM396.089 315.348L395.5 314.54L395.499 314.541L396.089 315.348ZM379.741 322.898C381.883 321.856 384.209 321.164 386.623 320.448L386.054 318.531C383.668 319.238 381.182 319.973 378.867 321.099L379.741 322.898ZM370.122 332.379C372.223 328.299 375.636 324.89 379.741 322.898L378.867 321.099C374.358 323.287 370.635 327.015 368.344 331.464L370.122 332.379ZM367.391 335.987C368.691 334.472 369.566 333.461 370.122 332.379L368.344 331.464C367.92 332.289 367.235 333.097 365.873 334.685L367.391 335.987ZM364.666 339.226C365.767 337.88 366.659 336.84 367.391 335.987L365.873 334.685C365.14 335.539 364.235 336.594 363.117 337.96L364.666 339.226ZM364.646 339.252C364.653 339.243 364.661 339.233 364.67 339.221L363.113 337.966C363.081 338.005 363.051 338.045 363.022 338.086L364.646 339.252ZM355.768 350.543C359.314 345.73 361.953 342.15 364.565 339.351L363.103 337.987C360.395 340.889 357.68 344.576 354.158 349.356L355.768 350.543ZM352.955 354.349C353.955 353.004 354.889 351.736 355.768 350.543L354.158 349.356C353.278 350.55 352.347 351.814 351.349 353.156L352.955 354.349ZM341.971 367.326C346.36 362.371 350.313 357.909 352.955 354.349L351.349 353.157C348.771 356.631 344.886 361.018 340.473 366L341.971 367.326ZM341.969 367.328L341.97 367.327L340.474 365.999L340.473 366L341.969 367.328ZM341.967 367.33L341.97 367.327L340.473 366.001L340.47 366.004L341.967 367.33ZM338.4 371.367C339.612 369.989 340.806 368.641 341.967 367.33L340.47 366.004C339.309 367.315 338.113 368.665 336.898 370.047L338.4 371.367ZM332.869 357.339C332.828 357.282 332.853 357.303 332.947 357.539C333.024 357.731 333.123 358.001 333.242 358.35C333.48 359.045 333.786 360.018 334.142 361.229C334.852 363.649 335.751 366.997 336.676 370.935L338.623 370.478C337.691 366.507 336.782 363.123 336.061 360.665C335.7 359.437 335.385 358.435 335.134 357.703C335.01 357.338 334.898 357.032 334.804 356.795C334.726 356.602 334.617 356.342 334.487 356.162L332.869 357.339ZM288.912 374.393C286.037 363.78 292.856 353.452 302.66 348.783C307.534 346.462 313.067 345.591 318.368 346.786C323.652 347.977 328.779 351.235 332.847 357.307L334.509 356.194C330.174 349.725 324.623 346.145 318.807 344.835C313.008 343.528 307.019 344.493 301.8 346.978C291.42 351.921 283.777 363.086 286.982 374.916L288.912 374.393ZM291.119 383.063C290.373 380.043 289.651 377.119 288.912 374.393L286.982 374.916C287.714 377.616 288.43 380.517 289.177 383.543L291.119 383.063ZM327.488 432.032C315.445 432.086 307.75 425.459 302.335 415.958C296.889 406.404 293.841 394.089 291.119 383.063L289.177 383.543C291.883 394.502 294.988 407.107 300.597 416.949C306.238 426.845 314.5 434.09 327.496 434.032L327.488 432.032ZM334.711 429.678C332.839 431.158 330.479 432.017 327.487 432.032L327.497 434.032C330.897 434.015 333.7 433.028 335.952 431.247L334.711 429.678ZM345.463 418.306C341.678 423.325 338.241 427.284 334.77 429.634L335.892 431.29C339.661 428.738 343.269 424.538 347.06 419.51L345.463 418.306ZM372.127 372.435C363.384 388.478 351.466 410.34 345.463 418.306L347.06 419.51C353.178 411.393 365.189 389.345 373.883 373.393L372.127 372.435ZM372.124 372.44L372.124 372.441L373.886 373.387L373.886 373.387L372.124 372.44ZM382.464 354.184C382.155 354.53 381.676 355.284 381.1 356.251C380.501 357.256 379.738 358.593 378.846 360.189C377.06 363.384 374.737 367.646 372.127 372.435L373.883 373.392C376.495 368.599 378.812 364.348 380.591 361.165C381.481 359.573 382.233 358.256 382.818 357.274C383.426 356.254 383.802 355.689 383.955 355.517L382.464 354.184ZM396.956 351.588C393.938 351.444 391.05 351.303 388.603 351.566C386.161 351.828 383.952 352.509 382.462 354.186L383.957 355.515C384.953 354.393 386.552 353.797 388.816 353.554C391.077 353.312 393.794 353.439 396.861 353.585L396.956 351.588ZM410.599 351.205C406.027 352.017 401.313 351.796 396.956 351.588L396.861 353.585C401.183 353.792 406.12 354.031 410.949 353.174L410.599 351.205ZM423.538 347.463C419.369 349.9 414.927 351.152 410.765 351.189L410.783 353.189C415.328 353.148 420.108 351.785 424.547 349.19L423.538 347.463ZM437.209 335.604C433.268 339.758 428.906 344.337 423.539 347.463L424.546 349.191C430.199 345.898 434.748 341.103 438.66 336.981L437.209 335.604ZM437.095 331.503C438.264 332.625 438.306 334.445 437.208 335.605L438.661 336.979C440.52 335.015 440.435 331.937 438.479 330.06L437.095 331.503ZM436.57 331.106C436.756 331.215 436.932 331.347 437.095 331.503L438.479 330.06C438.203 329.795 437.903 329.569 437.585 329.382L436.57 331.106ZM437.745 328.483C437.298 328.794 436.865 329.124 436.442 329.472L437.713 331.016C438.098 330.699 438.488 330.402 438.886 330.125L437.745 328.483ZM438.485 324.446C439.396 325.765 439.066 327.57 437.747 328.481L438.884 330.127C441.112 328.588 441.669 325.537 440.131 323.31L438.485 324.446ZM434.7 323.574C435.983 322.864 437.617 323.225 438.493 324.457L440.123 323.298C438.661 321.242 435.911 320.619 433.732 321.824L434.7 323.574ZM433.522 321.979L433.497 322.004L434.935 323.395L434.959 323.369L433.522 321.979ZM433.459 317.88C434.607 318.997 434.635 320.834 433.524 321.977L434.957 323.371C436.844 321.431 436.788 318.328 434.853 316.447L433.459 317.88ZM429.469 317.841C430.592 316.796 432.352 316.804 433.459 317.88L434.853 316.447C432.973 314.618 430.002 314.615 428.107 316.376L429.469 317.841ZM426.946 315.274C427.471 315.799 427.752 316.474 427.789 317.163L429.786 317.054C429.723 315.893 429.248 314.747 428.361 313.86L426.946 315.274ZM422.85 315.274C423.98 314.145 425.817 314.145 426.946 315.274L428.361 313.86C426.45 311.949 423.347 311.949 421.436 313.86L422.85 315.274ZM400.206 328.387C408.72 326.083 416.601 321.558 422.852 315.272L421.434 313.862C415.435 319.894 407.865 324.243 399.684 326.456L400.206 328.387ZM395.457 328.454C396.963 328.46 398.487 328.466 399.976 328.421L399.915 326.422C398.467 326.466 396.977 326.46 395.464 326.454L395.457 328.454ZM395.107 328.453L395.457 328.454L395.464 326.454L395.114 326.453L395.107 328.453ZM400.785 318.823C399.026 321.746 396.873 324.381 394.419 326.731L395.802 328.175C398.373 325.713 400.642 322.941 402.499 319.854L400.785 318.823ZM401.831 316.306C401.732 317.128 401.315 317.91 400.777 318.836L402.506 319.841C403.024 318.95 403.662 317.832 403.817 316.544L401.831 316.306ZM401.162 314.442C401.63 314.762 401.928 315.498 401.831 316.306L403.817 316.544C403.973 315.24 403.554 313.654 402.29 312.791L401.162 314.442ZM396.843 316.036C397.708 315.404 398.553 314.794 399.368 314.456C400.161 314.127 400.714 314.14 401.167 314.446L402.285 312.788C401.042 311.949 399.699 312.153 398.601 312.609C397.525 313.055 396.482 313.823 395.663 314.421L396.843 316.036ZM396.678 316.156L396.842 316.036L395.664 314.42L395.5 314.54L396.678 316.156ZM386.623 320.448C390.036 319.436 393.641 318.378 396.679 316.155L395.499 314.541C392.788 316.524 389.529 317.5 386.054 318.531L386.623 320.448Z" fill="black" mask="url(#path-32-inside-1_464_1770)"/>
<path d="M386.946 330.634C386.566 330.634 386.207 330.359 386.101 329.958C385.996 329.494 386.291 329.029 386.756 328.924L394.441 327.108C394.906 327.002 395.37 327.277 395.497 327.762C395.602 328.227 395.307 328.691 394.842 328.797L387.157 330.613C387.087 330.627 387.016 330.634 386.946 330.634Z" fill="black"/>
<path d="M409.832 346.87C409.537 346.87 409.262 346.722 409.093 346.448C406.94 342.753 404.174 339.522 400.88 336.799C400.522 336.503 400.479 335.954 400.775 335.574C401.07 335.215 401.619 335.152 401.999 335.469C405.441 338.319 408.333 341.718 410.592 345.561C410.825 345.983 410.698 346.511 410.276 346.743C410.149 346.828 409.98 346.87 409.832 346.87Z" fill="black"/>
<path d="M416.886 346.258C416.548 346.258 416.231 346.046 416.083 345.709C415.915 345.265 416.126 344.758 416.569 344.59L420.095 343.154C421.467 342.584 422.776 341.824 423.959 340.895L434.557 332.492C434.937 332.196 435.486 332.26 435.782 332.64C436.078 332.998 436.014 333.547 435.634 333.843L425.035 342.246C423.726 343.281 422.27 344.125 420.749 344.758L417.224 346.194C417.111 346.236 416.998 346.258 416.886 346.258Z" fill="black"/>
<path d="M413.402 339.037C413.064 339.037 412.726 338.826 412.599 338.488C412.409 338.045 412.642 337.538 413.064 337.369L416.59 335.933C417.983 335.363 419.292 334.624 420.453 333.695L431.073 325.271C431.453 324.976 431.981 325.039 432.277 325.419C432.572 325.799 432.509 326.348 432.15 326.644L421.53 335.047C420.221 336.081 418.785 336.926 417.244 337.538L413.718 338.974C413.62 339.016 413.514 339.037 413.402 339.037Z" fill="black"/>
<path d="M409.834 333.695C409.496 333.695 409.179 333.484 409.032 333.146C408.863 332.703 409.074 332.196 409.517 332.027L412.283 330.887C413.677 330.317 414.986 329.578 416.147 328.628L426.767 320.225C427.147 319.93 427.696 319.993 427.991 320.373C428.287 320.753 428.223 321.281 427.843 321.576L417.224 330.001C415.936 331.035 414.479 331.858 412.938 332.492L410.172 333.611C410.059 333.667 409.947 333.695 409.834 333.695Z" fill="black"/>
<path d="M235.27 169.14C225.073 169.963 215.255 174.608 208.224 181.934C198.428 192.153 194.606 206.531 192.453 220.445C190.299 234.337 189.392 246.773 184.029 259.799C179.236 271.412 170.96 281.926 169.609 294.383C168.891 300.949 170.411 308.064 175.077 312.814C179.553 317.396 186.351 319.191 192.812 319.17C210.378 319.127 226.086 307.072 235.165 292.271C244.243 277.471 247.917 260.158 251.464 243.226C254.547 228.425 257.629 215.483 260.712 200.704C262.654 191.309 268.27 179.042 257.46 173.405C250.788 169.921 242.765 168.528 235.27 169.14Z" fill="black"/>
<mask id="path-40-inside-2_464_1770" fill="white">
<path fill-rule="evenodd" clip-rule="evenodd" d="M93.6597 319.49C96.0597 320.201 98.4659 320.915 100.694 321.998C105.001 324.089 108.569 327.657 110.765 331.922C111.255 332.875 112.036 333.784 113.366 335.336C114.099 336.189 114.998 337.237 116.107 338.593C116.126 338.618 116.145 338.642 116.162 338.666C118.823 341.516 121.501 345.151 125.036 349.95C125.916 351.143 126.848 352.409 127.847 353.753C130.457 357.27 134.376 361.695 138.777 366.663C139.941 367.977 141.138 369.328 142.354 370.711C144.067 363.991 145.665 359.295 146.194 358.588C162.979 333.505 198.133 352.212 192.052 374.655C191.324 377.344 190.611 380.225 189.871 383.213C184.44 405.163 177.576 432.902 152.507 433.033C148.373 433.051 145.242 431.622 142.917 429.148C139.901 426.667 136.913 423.119 133.738 418.908C127.677 410.867 115.712 388.911 106.994 372.914L106.994 372.914C101.772 363.331 97.715 355.887 96.7896 354.851C94.3035 352.051 89.175 352.296 83.0907 352.587C78.7502 352.794 73.9232 353.024 69.2221 352.189C64.8693 352.149 60.2592 350.842 55.9561 348.326C50.4456 345.117 45.9907 340.43 42.0637 336.292C40.5858 334.729 40.6491 332.28 42.2115 330.781C42.4311 330.571 42.6697 330.391 42.9215 330.243C42.518 329.911 42.1065 329.597 41.6843 329.304C39.9108 328.079 39.4674 325.651 40.692 323.878C41.8605 322.234 44.0507 321.742 45.7815 322.698L45.7585 322.674C44.2595 321.133 44.3017 318.663 45.843 317.164C47.3369 315.711 49.7036 315.706 51.2127 317.11C51.2626 316.184 51.6408 315.273 52.3471 314.566C53.8673 313.046 56.3375 313.046 57.8577 314.566C63.9837 320.726 71.7102 325.164 80.0589 327.422C81.5254 327.466 83.031 327.46 84.5386 327.454C84.6551 327.454 84.7715 327.454 84.888 327.453C82.3755 325.047 80.1643 322.343 78.3565 319.338C77.8287 318.43 77.3008 317.48 77.1742 316.425C77.0475 315.369 77.4064 314.208 78.272 313.617C79.9689 312.472 82.0617 313.999 83.7453 315.228C83.8004 315.268 83.855 315.308 83.9092 315.348C86.7836 317.451 90.2152 318.468 93.6597 319.49Z"/>
</mask>
<path fill-rule="evenodd" clip-rule="evenodd" d="M93.6597 319.49C96.0597 320.201 98.4659 320.915 100.694 321.998C105.001 324.089 108.569 327.657 110.765 331.922C111.255 332.875 112.036 333.784 113.366 335.336C114.099 336.189 114.998 337.237 116.107 338.593C116.126 338.618 116.145 338.642 116.162 338.666C118.823 341.516 121.501 345.151 125.036 349.95C125.916 351.143 126.848 352.409 127.847 353.753C130.457 357.27 134.376 361.695 138.777 366.663C139.941 367.977 141.138 369.328 142.354 370.711C144.067 363.991 145.665 359.295 146.194 358.588C162.979 333.505 198.133 352.212 192.052 374.655C191.324 377.344 190.611 380.225 189.871 383.213C184.44 405.163 177.576 432.902 152.507 433.033C148.373 433.051 145.242 431.622 142.917 429.148C139.901 426.667 136.913 423.119 133.738 418.908C127.677 410.867 115.712 388.911 106.994 372.914L106.994 372.914C101.772 363.331 97.715 355.887 96.7896 354.851C94.3035 352.051 89.175 352.296 83.0907 352.587C78.7502 352.794 73.9232 353.024 69.2221 352.189C64.8693 352.149 60.2592 350.842 55.9561 348.326C50.4456 345.117 45.9907 340.43 42.0637 336.292C40.5858 334.729 40.6491 332.28 42.2115 330.781C42.4311 330.571 42.6697 330.391 42.9215 330.243C42.518 329.911 42.1065 329.597 41.6843 329.304C39.9108 328.079 39.4674 325.651 40.692 323.878C41.8605 322.234 44.0507 321.742 45.7815 322.698L45.7585 322.674C44.2595 321.133 44.3017 318.663 45.843 317.164C47.3369 315.711 49.7036 315.706 51.2127 317.11C51.2626 316.184 51.6408 315.273 52.3471 314.566C53.8673 313.046 56.3375 313.046 57.8577 314.566C63.9837 320.726 71.7102 325.164 80.0589 327.422C81.5254 327.466 83.031 327.46 84.5386 327.454C84.6551 327.454 84.7715 327.454 84.888 327.453C82.3755 325.047 80.1643 322.343 78.3565 319.338C77.8287 318.43 77.3008 317.48 77.1742 316.425C77.0475 315.369 77.4064 314.208 78.272 313.617C79.9689 312.472 82.0617 313.999 83.7453 315.228C83.8004 315.268 83.855 315.308 83.9092 315.348C86.7836 317.451 90.2152 318.468 93.6597 319.49Z" fill="white"/>
<path d="M100.694 321.998L100.257 322.898L100.258 322.898L100.694 321.998ZM93.6597 319.49L93.944 318.531L93.6597 319.49ZM110.765 331.922L111.654 331.464L111.654 331.464L110.765 331.922ZM113.366 335.336L114.125 334.684L113.366 335.336ZM116.107 338.593L116.885 337.966L116.881 337.96L116.107 338.593ZM116.162 338.666L115.351 339.251L115.388 339.302L115.431 339.348L116.162 338.666ZM125.036 349.95L125.841 349.356L125.036 349.95ZM127.847 353.753L128.65 353.157L128.65 353.156L127.847 353.753ZM138.777 366.663L138.029 367.326L138.777 366.663ZM142.354 370.711L141.602 371.371L142.854 372.795L143.322 370.958L142.354 370.711ZM146.194 358.588L146.995 359.187L147.011 359.166L147.026 359.144L146.194 358.588ZM192.052 374.655L193.017 374.916H193.017L192.052 374.655ZM189.871 383.213L188.901 382.973L189.871 383.213ZM152.507 433.033L152.512 434.033L152.512 434.033L152.507 433.033ZM142.917 429.148L143.646 428.463L143.602 428.416L143.553 428.376L142.917 429.148ZM133.738 418.908L132.939 419.51L132.939 419.51L133.738 418.908ZM106.994 372.914L107.872 372.435L107.864 372.421L107.856 372.407L106.994 372.914ZM106.994 372.914L106.116 373.392L106.124 373.407L106.132 373.421L106.994 372.914ZM96.7896 354.851L96.042 355.515L96.0438 355.517L96.7896 354.851ZM83.0907 352.587L83.1384 353.585L83.0907 352.587ZM69.2221 352.189L69.397 351.204L69.3147 351.19L69.2312 351.189L69.2221 352.189ZM55.9561 348.326L56.4607 347.463L56.4593 347.462L55.9561 348.326ZM42.0637 336.292L41.3372 336.979L41.3383 336.98L42.0637 336.292ZM42.2115 330.781L41.5194 330.06L41.5191 330.06L42.2115 330.781ZM42.9215 330.243L43.4285 331.105L44.6619 330.38L43.5566 329.471L42.9215 330.243ZM41.6843 329.304L42.2552 328.483L42.2525 328.481L41.6843 329.304ZM40.692 323.878L39.8769 323.298L39.8691 323.309L40.692 323.878ZM45.7815 322.698L45.298 323.573L46.5001 322.002L45.7815 322.698ZM45.7585 322.674L46.4771 321.979L46.4754 321.977L45.7585 322.674ZM45.843 317.164L46.5402 317.881L45.843 317.164ZM51.2127 317.11L50.5314 317.842L52.0962 319.299L52.2113 317.164L51.2127 317.11ZM52.3471 314.566L53.0542 315.274V315.274L52.3471 314.566ZM57.8577 314.566L58.5667 313.861L58.5648 313.859L57.8577 314.566ZM80.0589 327.422L79.7978 328.387L79.9111 328.418L80.0284 328.421L80.0589 327.422ZM84.5386 327.454L84.5347 326.454H84.5347L84.5386 327.454ZM84.888 327.453L84.8917 328.453L87.3682 328.444L85.5796 326.731L84.888 327.453ZM78.3565 319.338L77.492 319.841L77.4957 319.847L77.4996 319.854L78.3565 319.338ZM77.1742 316.425L76.1813 316.544L77.1742 316.425ZM78.272 313.617L77.7127 312.788L77.7081 312.791L78.272 313.617ZM83.7453 315.228L84.3349 314.42L84.3348 314.42L83.7453 315.228ZM83.9092 315.348L84.4997 314.541L84.498 314.539L83.9092 315.348ZM101.132 321.099C98.8166 319.973 96.3299 319.238 93.944 318.531L93.3754 320.448C95.7896 321.164 98.1152 321.856 100.257 322.898L101.132 321.099ZM111.654 331.464C109.364 327.015 105.64 323.287 101.131 321.099L100.258 322.898C104.362 324.89 107.775 328.299 109.876 332.379L111.654 331.464ZM114.125 334.684C112.764 333.097 112.078 332.289 111.654 331.464L109.876 332.379C110.432 333.461 111.308 334.471 112.607 335.987L114.125 334.684ZM116.881 337.96C115.764 336.594 114.858 335.539 114.125 334.684L112.607 335.987C113.339 336.84 114.232 337.88 115.333 339.226L116.881 337.96ZM116.973 338.081C116.945 338.042 116.916 338.003 116.885 337.966L115.328 339.221C115.337 339.232 115.345 339.242 115.351 339.251L116.973 338.081ZM125.841 349.356C122.318 344.574 119.602 340.886 116.893 337.983L115.431 339.348C118.044 342.147 120.684 345.728 124.231 350.543L125.841 349.356ZM128.65 353.156C127.652 351.815 126.721 350.55 125.841 349.356L124.231 350.543C125.111 351.736 126.044 353.004 127.044 354.349L128.65 353.156ZM139.526 366C135.113 361.019 131.228 356.632 128.65 353.157L127.044 354.349C129.686 357.909 133.639 362.371 138.029 367.326L139.526 366ZM143.105 370.051C141.888 368.666 140.689 367.313 139.526 366L138.029 367.326C139.192 368.64 140.388 369.99 141.602 371.371L143.105 370.051ZM145.394 357.989C145.262 358.164 145.144 358.394 145.042 358.613C144.932 358.849 144.81 359.139 144.68 359.473C144.42 360.142 144.11 361.025 143.767 362.087C143.079 364.213 142.246 367.088 141.385 370.464L143.322 370.958C144.175 367.615 144.997 364.781 145.67 362.702C146.006 361.662 146.303 360.818 146.544 360.198C146.665 359.888 146.769 359.642 146.854 359.459C146.896 359.368 146.932 359.299 146.959 359.249C146.989 359.195 147.001 359.179 146.995 359.187L145.394 357.989ZM193.017 374.916C196.227 363.071 188.525 352.359 178.092 347.88C167.584 343.37 154.059 345.038 145.363 358.032L147.026 359.144C155.115 347.056 167.559 345.535 177.303 349.718C187.123 353.933 193.958 363.796 191.087 374.393L193.017 374.916ZM190.842 383.453C191.582 380.463 192.292 377.593 193.017 374.916L191.087 374.393C190.355 377.095 189.639 379.987 188.901 382.973L190.842 383.453ZM152.512 434.033C165.518 433.965 173.781 426.692 179.422 416.8C185.032 406.962 188.135 394.395 190.842 383.453L188.901 382.973C186.177 393.981 183.131 406.258 177.685 415.81C172.269 425.308 164.565 431.97 152.502 432.033L152.512 434.033ZM142.189 429.833C144.713 432.52 148.115 434.052 152.512 434.033L152.503 432.033C148.631 432.049 145.77 430.724 143.646 428.463L142.189 429.833ZM132.939 419.51C136.123 423.732 139.17 427.36 142.282 429.92L143.553 428.376C140.633 425.974 137.703 422.506 134.536 418.306L132.939 419.51ZM106.116 373.392C114.81 389.345 126.821 411.393 132.939 419.51L134.536 418.306C128.533 410.34 116.615 388.478 107.872 372.435L106.116 373.392ZM106.132 373.421L106.132 373.421L107.856 372.407L107.856 372.407L106.132 373.421ZM96.0438 355.517C96.1975 355.689 96.573 356.254 97.1811 357.275C97.766 358.256 98.5178 359.574 99.4078 361.165C101.187 364.348 103.504 368.599 106.116 373.392L107.872 372.435C105.262 367.646 102.939 363.384 101.153 360.189C100.261 358.593 99.4983 357.256 98.8991 356.251C98.3231 355.284 97.8445 354.531 97.5355 354.185L96.0438 355.517ZM83.1384 353.585C86.2048 353.439 88.9226 353.312 91.1828 353.554C93.4474 353.797 95.0458 354.393 96.042 355.515L97.5373 354.187C96.0473 352.509 93.8385 351.828 91.3961 351.566C88.9495 351.303 86.0609 351.444 83.043 351.588L83.1384 353.585ZM69.0472 353.174C73.8766 354.031 78.8153 353.792 83.1384 353.585L83.043 351.588C78.685 351.796 73.9698 352.017 69.397 351.204L69.0472 353.174ZM55.4514 349.19C59.8897 351.784 64.669 353.148 69.213 353.189L69.2312 351.189C65.0695 351.151 60.6286 349.899 56.4607 347.463L55.4514 349.19ZM41.3383 336.98C45.2505 341.103 49.7991 345.898 55.4528 349.19L56.4593 347.462C51.0921 344.336 46.7309 339.757 42.789 335.603L41.3383 336.98ZM41.5191 330.06C39.5634 331.936 39.4787 335.014 41.3372 336.979L42.7901 335.605C41.6928 334.445 41.7348 332.624 42.9038 331.503L41.5191 330.06ZM42.4145 329.381C42.0963 329.568 41.7956 329.795 41.5194 330.06L42.9036 331.503C43.0667 331.347 43.243 331.214 43.4285 331.105L42.4145 329.381ZM41.1135 330.125C41.5111 330.401 41.9012 330.699 42.2864 331.016L43.5566 329.471C43.1348 329.124 42.7019 328.793 42.2552 328.483L41.1135 330.125ZM39.8691 323.309C38.3311 325.537 38.8877 328.588 41.1161 330.127L42.2525 328.481C40.9339 327.57 40.6038 325.765 41.5149 324.446L39.8691 323.309ZM46.265 321.823C44.0865 320.619 41.3383 321.242 39.8769 323.298L41.5071 324.457C42.3826 323.225 44.0149 322.865 45.298 323.573L46.265 321.823ZM45.0399 323.37L45.0629 323.393L46.5001 322.002L46.4771 321.979L45.0399 323.37ZM45.1458 316.447C43.2113 318.328 43.155 321.432 45.0417 323.371L46.4754 321.977C45.364 320.834 45.3922 318.997 46.5402 317.881L45.1458 316.447ZM51.8941 316.378C49.9995 314.615 47.0263 314.618 45.1458 316.447L46.5402 317.881C47.6475 316.804 49.4078 316.797 50.5314 317.842L51.8941 316.378ZM51.64 313.859C50.7523 314.747 50.2768 315.894 50.2142 317.057L52.2113 317.164C52.2485 316.474 52.5293 315.799 53.0542 315.274L51.64 313.859ZM58.5648 313.859C56.6541 311.949 53.5507 311.949 51.64 313.859L53.0542 315.274C54.1839 314.144 56.0209 314.144 57.1505 315.274L58.5648 313.859ZM80.3199 326.456C72.1379 324.243 64.5667 319.894 58.5667 313.861L57.1486 315.272C63.4006 321.558 71.2825 326.084 79.7978 328.387L80.3199 326.456ZM84.5347 326.454C83.0238 326.46 81.5357 326.466 80.0893 326.422L80.0284 328.421C81.5151 328.466 83.0381 328.46 84.5425 328.454L84.5347 326.454ZM84.8842 326.453C84.7677 326.454 84.6511 326.454 84.5347 326.454L84.5425 328.454C84.659 328.454 84.7753 328.453 84.8917 328.453L84.8842 326.453ZM77.4996 319.854C79.3567 322.941 81.6251 325.713 84.1963 328.175L85.5796 326.731C83.1258 324.381 80.9718 321.746 79.2134 318.823L77.4996 319.854ZM76.1813 316.544C76.3359 317.832 76.9742 318.95 77.492 319.841L79.221 318.836C78.6831 317.91 78.2658 317.128 78.167 316.305L76.1813 316.544ZM77.7081 312.791C76.4446 313.654 76.0248 315.24 76.1813 316.544L78.167 316.305C78.0701 315.498 78.3682 314.762 78.836 314.442L77.7081 312.791ZM84.3348 314.42C83.5165 313.823 82.4736 313.055 81.3969 312.609C80.2988 312.153 78.9564 311.948 77.7127 312.788L78.8313 314.445C79.2845 314.14 79.8369 314.127 80.6304 314.456C81.4452 314.794 82.2904 315.404 83.1557 316.036L84.3348 314.42ZM84.498 314.539C84.4443 314.5 84.39 314.461 84.3349 314.42L83.1557 316.036C83.2107 316.076 83.2658 316.116 83.3205 316.156L84.498 314.539ZM93.944 318.531C90.4687 317.5 87.2104 316.524 84.4997 314.541L83.3188 316.155C86.3567 318.377 89.9618 319.436 93.3754 320.448L93.944 318.531Z" fill="black" mask="url(#path-40-inside-2_464_1770)"/>
<path d="M256.067 175.558C265.737 175.453 274.668 181.618 279.819 189.662C284.971 197.706 286.871 207.376 287.568 216.877C288.244 226.378 287.842 234.063 288.898 243.521C290.207 255.281 293.775 266.788 299.37 277.239C303.424 284.861 308.723 292.799 307.309 301.266C305.577 311.717 294.704 317.755 287.99 326.031C285.689 328.882 283.789 332.26 283.831 335.912C283.852 339.544 286.343 343.344 289.996 343.872C285.457 347.44 278.257 347.546 272.937 345.223C267.616 342.901 263.52 338.446 260.438 333.59C252.858 321.619 250.81 307.093 249.776 293.01C248.762 278.949 248.572 264.592 244.096 251.185C240.866 241.473 235.44 232.458 233.392 222.429C230.14 206.552 236.538 175.812 256.067 175.558Z" fill="black"/>
<path d="M237.318 283.319C243.737 284.291 249.332 281.884 253.744 277.872C253.385 276.69 253.132 275.339 252.984 273.818C252.625 269.976 252.625 265.183 253.259 259.124L220.322 261.911C220.533 262.481 220.871 263.473 221.209 264.761C221.61 266.323 221.821 268.181 221.758 270.187C224.777 276.584 229.95 281.461 237.318 283.319Z" fill="black"/>
<path d="M222.139 272.029C225.296 277.741 230.305 282.067 237.197 283.804L237.22 283.81L237.244 283.814C243.564 284.77 249.096 282.534 253.501 278.755C255.205 283.722 258.541 285.906 261.515 286.819C263.064 287.295 264.507 287.425 265.562 287.437C265.982 287.442 266.341 287.428 266.624 287.409C265.188 294.904 261.949 302.383 256.427 307.786C250.761 313.33 242.654 316.727 231.496 315.674C225.955 315.151 221.969 313.121 219.093 310.39C216.21 307.652 214.416 304.185 213.309 300.756C212.202 297.327 211.788 293.957 211.652 291.439C211.585 290.182 211.586 289.14 211.605 288.415C211.614 288.06 211.627 287.781 211.638 287.59C218.577 284.635 221.52 277.982 222.139 272.029Z" fill="white" stroke="black"/>
<mask id="path-45-inside-3_464_1770" fill="white">
<path fill-rule="evenodd" clip-rule="evenodd" d="M237.086 275.318C249.848 275.318 261.716 263.708 267.402 247.593C269.06 248.241 271.065 247.587 272.556 246.561C274.71 245.083 276.335 242.845 277.053 240.333C277.855 237.588 277.243 234.083 274.688 232.817C273.357 232.172 271.811 232.309 270.44 232.919C269.415 230.405 267.808 227.496 266.201 225.427C255.665 211.877 252.686 202.167 251.251 197.49C250.987 196.629 250.775 195.938 250.578 195.426C249.804 196.086 246.29 197.532 241.598 199.464C235.796 201.851 228.192 204.98 221.737 208.284C203.707 217.51 202.63 231.804 202.63 231.804C202.686 232.659 202.752 233.518 202.828 234.38C201.586 233.761 200.15 233.575 198.893 234.126C196.486 235.203 195.811 238.412 196.444 240.967C197.035 243.289 198.45 245.4 200.371 246.836C201.726 247.857 203.574 248.531 205.134 247.958C209.53 262.888 221.945 275.318 237.086 275.318Z"/>
</mask>
<path fill-rule="evenodd" clip-rule="evenodd" d="M237.086 275.318C249.848 275.318 261.716 263.708 267.402 247.593C269.06 248.241 271.065 247.587 272.556 246.561C274.71 245.083 276.335 242.845 277.053 240.333C277.855 237.588 277.243 234.083 274.688 232.817C273.357 232.172 271.811 232.309 270.44 232.919C269.415 230.405 267.808 227.496 266.201 225.427C255.665 211.877 252.686 202.167 251.251 197.49C250.987 196.629 250.775 195.938 250.578 195.426C249.804 196.086 246.29 197.532 241.598 199.464C235.796 201.851 228.192 204.98 221.737 208.284C203.707 217.51 202.63 231.804 202.63 231.804C202.686 232.659 202.752 233.518 202.828 234.38C201.586 233.761 200.15 233.575 198.893 234.126C196.486 235.203 195.811 238.412 196.444 240.967C197.035 243.289 198.45 245.4 200.371 246.836C201.726 247.857 203.574 248.531 205.134 247.958C209.53 262.888 221.945 275.318 237.086 275.318Z" fill="white"/>
<path d="M267.402 247.593L267.766 246.662L266.803 246.286L266.459 247.261L267.402 247.593ZM272.556 246.561L271.99 245.737L271.989 245.738L272.556 246.561ZM277.053 240.333L276.093 240.052L276.092 240.058L277.053 240.333ZM274.688 232.817L275.133 231.921L275.124 231.917L274.688 232.817ZM270.44 232.919L269.514 233.296L269.904 234.252L270.846 233.833L270.44 232.919ZM266.201 225.427L266.991 224.814L266.991 224.813L266.201 225.427ZM251.251 197.49L250.295 197.783V197.783L251.251 197.49ZM250.578 195.426L251.511 195.067L251.004 193.747L249.928 194.665L250.578 195.426ZM241.598 199.464L241.978 200.388L241.598 199.464ZM221.737 208.284L222.193 209.174L222.193 209.174L221.737 208.284ZM202.63 231.804L201.633 231.728L201.627 231.799L201.632 231.869L202.63 231.804ZM202.828 234.38L202.382 235.275L203.982 236.072L203.824 234.292L202.828 234.38ZM198.893 234.126L198.492 233.21L198.485 233.213L198.893 234.126ZM196.444 240.967L195.473 241.207L195.475 241.213L196.444 240.967ZM200.371 246.836L200.973 246.037L200.97 246.035L200.371 246.836ZM205.134 247.958L206.093 247.676L205.792 246.651L204.789 247.019L205.134 247.958ZM266.459 247.261C260.834 263.202 249.225 274.318 237.086 274.318V276.318C250.47 276.318 262.598 264.215 268.345 247.926L266.459 247.261ZM271.989 245.738C270.612 246.685 268.97 247.132 267.766 246.662L267.038 248.525C269.15 249.349 271.519 248.489 273.123 247.385L271.989 245.738ZM276.092 240.058C275.439 242.344 273.955 244.389 271.99 245.737L273.122 247.386C275.465 245.778 277.232 243.347 278.015 240.608L276.092 240.058ZM274.244 233.713C275.199 234.186 275.845 235.101 276.164 236.281C276.485 237.467 276.447 238.842 276.093 240.052L278.013 240.614C278.461 239.079 278.519 237.329 278.095 235.76C277.67 234.185 276.732 232.714 275.133 231.921L274.244 233.713ZM270.846 233.833C272.03 233.306 273.257 233.235 274.253 233.717L275.124 231.917C273.456 231.109 271.591 231.312 270.033 232.005L270.846 233.833ZM265.412 226.041C266.953 228.025 268.517 230.852 269.514 233.296L271.366 232.541C270.312 229.958 268.663 226.966 266.991 224.814L265.412 226.041ZM250.295 197.783C251.75 202.527 254.774 212.362 265.412 226.041L266.991 224.813C256.555 211.393 253.621 201.807 252.207 197.197L250.295 197.783ZM249.644 195.785C249.826 196.257 250.026 196.908 250.295 197.783L252.207 197.197C251.947 196.349 251.724 195.619 251.511 195.067L249.644 195.785ZM241.978 200.388C244.32 199.424 246.384 198.575 247.959 197.884C248.746 197.538 249.424 197.227 249.959 196.956C250.467 196.699 250.932 196.438 251.227 196.186L249.928 194.665C249.837 194.744 249.572 194.911 249.057 195.171C248.569 195.418 247.93 195.713 247.155 196.053C245.606 196.732 243.567 197.572 241.217 198.539L241.978 200.388ZM222.193 209.174C228.604 205.893 236.169 202.779 241.978 200.388L241.217 198.539C235.423 200.923 227.78 204.068 221.282 207.393L222.193 209.174ZM202.63 231.804C203.627 231.879 203.627 231.879 203.627 231.88C203.627 231.88 203.627 231.88 203.627 231.88C203.627 231.881 203.627 231.881 203.627 231.881C203.627 231.881 203.627 231.88 203.627 231.878C203.627 231.874 203.628 231.867 203.629 231.857C203.631 231.836 203.634 231.802 203.64 231.755C203.651 231.661 203.669 231.517 203.699 231.328C203.759 230.948 203.865 230.385 204.048 229.676C204.414 228.258 205.085 226.258 206.304 223.974C208.737 219.417 213.37 213.688 222.193 209.174L221.282 207.393C212.074 212.105 207.153 218.137 204.54 223.033C203.236 225.475 202.511 227.626 202.112 229.176C201.912 229.952 201.793 230.577 201.724 231.015C201.689 231.234 201.667 231.406 201.653 231.527C201.646 231.587 201.641 231.634 201.638 231.668C201.636 231.685 201.635 231.698 201.634 231.709C201.634 231.714 201.634 231.718 201.633 231.721C201.633 231.723 201.633 231.724 201.633 231.725C201.633 231.726 201.633 231.727 201.633 231.727C201.633 231.728 201.633 231.728 202.63 231.804ZM203.824 234.292C203.749 233.438 203.683 232.586 203.628 231.738L201.632 231.869C201.689 232.732 201.755 233.599 201.832 234.469L203.824 234.292ZM203.274 233.485C201.846 232.774 200.092 232.509 198.492 233.21L199.294 235.042C200.207 234.642 201.325 234.749 202.382 235.275L203.274 233.485ZM198.485 233.213C196.952 233.899 196.025 235.244 195.573 236.695C195.124 238.141 195.117 239.769 195.473 241.207L197.415 240.726C197.138 239.61 197.152 238.356 197.483 237.289C197.813 236.228 198.427 235.43 199.301 235.039L198.485 233.213ZM195.475 241.213C196.123 243.758 197.669 246.065 199.772 247.637L200.97 246.035C199.231 244.736 197.948 242.82 197.413 240.72L195.475 241.213ZM199.769 247.635C201.237 248.741 203.45 249.642 205.479 248.897L204.789 247.019C203.698 247.42 202.215 246.974 200.973 246.037L199.769 247.635ZM237.086 274.318C222.528 274.318 210.408 262.33 206.093 247.676L204.175 248.24C208.652 263.445 221.363 276.318 237.086 276.318V274.318Z" fill="black" mask="url(#path-45-inside-3_464_1770)"/>
<path d="M265.975 287.944C266.069 287.675 266.145 287.449 266.202 287.271C271.707 288.613 280.283 291.935 288.331 295.838C292.463 297.842 296.444 299.994 299.788 302.102C303.141 304.216 305.819 306.264 307.374 308.054C314.13 315.837 320.998 329.167 326.19 340.598C328.781 346.304 330.949 351.522 332.468 355.313C333.227 357.208 333.825 358.747 334.232 359.811C334.332 360.072 334.42 360.304 334.497 360.506C331.023 359.526 327.072 359.526 323.082 360.083C318.701 360.694 314.236 361.981 310.237 363.419C306.236 364.859 302.69 366.454 300.144 367.69C298.87 368.308 297.846 368.836 297.14 369.21C296.787 369.398 296.513 369.546 296.327 369.648C296.234 369.699 296.163 369.739 296.115 369.766L296.06 369.796L296.046 369.804L296.042 369.806L296.041 369.807C296.041 369.807 296.041 369.807 296.06 369.841L296.041 369.807L295.838 369.922L295.796 370.15L295.796 370.15L295.795 370.151L295.795 370.155L295.792 370.168L295.783 370.22C295.774 370.266 295.762 370.335 295.745 370.424C295.713 370.603 295.665 370.866 295.606 371.206C295.486 371.884 295.318 372.866 295.12 374.081C294.727 376.511 294.219 379.875 293.764 383.609C292.558 393.491 289.393 402.637 286.525 409.321C285.091 412.66 283.734 415.381 282.735 417.265C282.236 418.207 281.826 418.94 281.542 419.436C281.416 419.657 281.315 419.831 281.241 419.956L198.163 421.905C198.07 421.72 197.934 421.446 197.758 421.093C197.408 420.388 196.904 419.367 196.288 418.107C195.057 415.586 193.381 412.107 191.6 408.275C188.032 400.599 184.063 391.542 182.397 385.914C180.809 380.55 180.011 376.629 179.611 374.055C179.411 372.769 179.31 371.819 179.26 371.194C179.234 370.882 179.221 370.65 179.215 370.499C179.212 370.423 179.21 370.367 179.209 370.331L179.208 370.292L179.208 370.283L179.208 370.282V370.282L179.208 370.282V370.282L179.207 370.03L179.004 369.881C172.476 365.088 163.544 363.889 156.314 363.865C152.688 363.853 149.467 364.137 147.151 364.423C145.993 364.566 145.061 364.711 144.417 364.819C144.371 364.827 144.327 364.835 144.284 364.842C144.411 364.467 144.561 364.006 144.733 363.471C144.887 362.99 145.065 362.427 145.264 361.8C145.502 361.049 145.769 360.207 146.058 359.305C147.132 355.95 148.587 351.519 150.414 346.508C154.07 336.482 159.208 324.151 165.749 313.477C167.317 310.921 170.471 308.137 174.517 305.348C178.549 302.57 183.415 299.822 188.348 297.326C197.843 292.521 207.537 288.674 211.937 287.346C211.97 287.477 212.011 287.631 212.059 287.806C212.229 288.426 212.493 289.31 212.869 290.378C213.621 292.511 214.823 295.382 216.626 298.328C220.23 304.216 226.271 310.457 235.949 311.622L235.965 311.624L235.981 311.625C247.463 312.271 255.07 306.023 259.778 299.674C262.131 296.5 263.771 293.289 264.822 290.874C265.348 289.666 265.727 288.655 265.975 287.944Z" fill="#D0D2D3" stroke="black"/>
<path d="M190.771 490.633L190.769 490.632C185.885 489.291 181.139 487.386 176.923 484.778L176.923 484.778C174.774 483.449 173.649 480.914 174.193 478.449L174.193 478.446C176.205 469.104 179.149 458.682 182.757 449.107C186.369 439.524 190.633 430.822 195.274 424.896L195.368 424.776L195.379 424.624L195.931 417.12C226.391 421.814 256.212 422.24 284.135 415.48L286.215 424.259L286.232 424.331L286.269 424.395C293.308 436.497 301.338 459.394 306.148 478.107L306.148 478.108C306.926 481.104 305.254 484.204 302.307 485.238L302.306 485.238C300.917 485.729 299.528 486.199 298.139 486.648L298.139 486.648C283.379 491.421 267.81 492.917 252.35 494.248L252.349 494.248C231.891 496.041 210.827 496.204 190.771 490.633Z" fill="white" stroke="black"/>
<path d="M177.505 368.807C177.477 368.807 177.442 368.799 177.4 368.785C176.935 368.722 176.598 368.3 176.661 367.814C177.421 361.755 179.385 352.402 181.095 346.532C181.221 346.068 181.707 345.793 182.171 345.941C182.615 346.068 182.889 346.553 182.742 347.018C181.074 352.803 179.131 362.05 178.371 368.046C178.308 368.49 177.949 368.807 177.505 368.807Z" fill="black"/>
<path d="M296.266 368.828C295.802 368.828 295.422 368.469 295.4 368.004C295.372 367.526 295.351 367.068 295.337 366.632C295.126 361.903 294.978 358.778 290.65 347.06C290.481 346.617 290.713 346.131 291.157 345.962C291.6 345.793 292.107 346.026 292.276 346.469C296.709 358.44 296.857 361.839 297.068 366.548C297.082 366.984 297.104 367.441 297.132 367.92C297.153 368.384 296.773 368.786 296.308 368.828C296.294 368.828 296.28 368.828 296.266 368.828Z" fill="black"/>
<path d="M93.3701 330.381C93.2997 330.381 93.2293 330.374 93.1589 330.359L85.4738 328.544C85.0093 328.438 84.7137 327.974 84.8192 327.509C84.9248 327.045 85.3893 326.749 85.8538 326.855L93.5601 328.67C94.0246 328.797 94.3201 329.262 94.1935 329.726C94.109 330.127 93.7501 330.381 93.3701 330.381Z" fill="black"/>
<path d="M70.4623 343.429C70.3145 343.429 70.1667 343.386 70.04 343.302C69.6178 343.07 69.4911 342.521 69.7233 342.12C71.9824 338.256 74.8749 334.857 78.3164 332.028C78.6964 331.711 79.2242 331.774 79.5409 332.133C79.8365 332.513 79.7943 333.041 79.4143 333.358C76.1417 336.06 73.3759 339.312 71.2224 342.985C71.0535 343.26 70.779 343.429 70.4623 343.429Z" fill="black"/>
<path d="M63.4103 342.795C63.3118 342.795 63.2062 342.774 63.0936 342.732L59.5678 341.296C58.0265 340.684 56.5908 339.839 55.2818 338.804L44.683 330.401C44.303 330.106 44.2397 329.557 44.5352 329.177C44.8308 328.797 45.3798 328.734 45.7387 329.029L56.3586 337.453C57.5409 338.382 58.8288 339.142 60.2223 339.691L63.7482 341.127C64.1915 341.317 64.4027 341.824 64.2126 342.267C64.086 342.584 63.7693 342.795 63.4103 342.795Z" fill="black"/>
<path d="M66.9149 335.574C66.8023 335.574 66.6896 335.553 66.577 335.511L63.0723 334.096C61.531 333.463 60.0742 332.618 58.7863 331.584L48.1664 323.181C47.7864 322.885 47.7231 322.336 48.0186 321.977C48.3142 321.597 48.8632 321.534 49.2432 321.83L59.8631 330.233C61.0243 331.162 62.3333 331.922 63.7268 332.492L67.2316 333.906C67.6749 334.096 67.8861 334.603 67.7171 335.046C67.5694 335.384 67.2527 335.574 66.9149 335.574Z" fill="black"/>
<path d="M70.4604 330.233C70.3619 330.233 70.2564 330.212 70.1437 330.17L67.3568 329.051C65.8156 328.417 64.3799 327.573 63.0709 326.538L52.4721 318.135C52.0921 317.839 52.0287 317.291 52.3243 316.91C52.6199 316.552 53.1688 316.488 53.5489 316.784L64.1476 325.187C65.33 326.116 66.639 326.876 68.0113 327.446L70.7983 328.565C71.2416 328.755 71.4528 329.262 71.2627 329.705C71.1361 330.022 70.8194 330.233 70.4604 330.233Z" fill="black"/>
<path d="M232.526 247.976C231.491 247.976 230.457 247.533 229.76 246.773C228.958 245.907 228.62 244.662 228.852 243.521C229.063 242.529 229.654 241.727 230.161 241.03C230.274 240.875 230.386 240.713 230.499 240.545C231.935 238.475 232.589 235.836 232.251 233.345C232.188 232.859 232.526 232.437 233.011 232.374C233.476 232.31 233.919 232.648 233.983 233.113C234.363 236.047 233.603 239.109 231.935 241.537C231.808 241.706 231.681 241.882 231.555 242.065C231.111 242.677 230.689 243.247 230.562 243.859C230.436 244.472 230.626 245.147 231.027 245.612C231.449 246.055 232.104 246.308 232.737 246.245C233.201 246.182 233.624 246.52 233.687 247.005C233.75 247.47 233.391 247.913 232.927 247.955C232.786 247.969 232.653 247.976 232.526 247.976Z" fill="black"/>
<path d="M270.065 241.917C269.896 241.917 269.706 241.874 269.559 241.769C269.179 241.494 269.073 240.967 269.347 240.565C270.34 239.109 272.134 238.285 273.908 238.454C274.372 238.496 274.71 238.919 274.668 239.404C274.626 239.869 274.203 240.228 273.718 240.164C272.599 240.059 271.416 240.608 270.762 241.537C270.593 241.79 270.34 241.917 270.065 241.917Z" fill="black"/>
<path d="M203.58 242.508C203.221 242.508 202.883 242.297 202.757 241.938C202.482 241.114 201.616 240.502 200.751 240.481C200.286 240.46 199.906 240.059 199.906 239.594C199.927 239.109 200.35 238.729 200.814 238.75C202.398 238.792 203.854 239.869 204.403 241.347C204.551 241.811 204.319 242.297 203.876 242.466C203.777 242.494 203.678 242.508 203.58 242.508Z" fill="black"/>
<path d="M238.987 252.621C239.303 252.811 239.472 253.191 239.367 253.571C239.261 254.036 238.776 254.31 238.311 254.205C236.305 253.698 234.131 253.782 232.167 254.458C231.724 254.606 231.217 254.373 231.069 253.93C230.9 253.466 231.154 252.98 231.597 252.832C233.877 252.03 236.411 251.924 238.754 252.515C238.839 252.544 238.916 252.579 238.987 252.621Z" fill="black"/>
<path d="M252.815 231.571C252.689 233.746 251.612 235.456 250.43 235.393C249.247 235.329 248.382 233.493 248.508 231.318C248.656 229.143 249.712 227.433 250.894 227.496C252.077 227.581 252.942 229.397 252.815 231.571Z" fill="black"/>
<path d="M249.521 222.155C251.865 222.197 254.187 222.725 256.319 223.717C256.974 224.013 257.607 224.372 258.325 224.477C259.043 224.604 259.845 224.435 260.289 223.865C260.711 223.337 260.69 222.535 260.415 221.901C260.12 221.289 259.592 220.804 259.043 220.381C256.594 218.481 253.089 217.573 249.986 217.763C247.114 217.932 245.868 222.091 249.521 222.155Z" fill="black"/>
<path d="M216.985 231.867C217.112 234.063 218.168 235.773 219.35 235.688C220.532 235.625 221.398 233.809 221.271 231.613C221.145 229.439 220.068 227.729 218.885 227.813C217.703 227.876 216.859 229.692 216.985 231.867Z" fill="black"/>
<path d="M220.998 221.395C218.675 221.796 216.459 222.661 214.495 223.97C213.904 224.35 213.313 224.794 212.637 225.026C211.94 225.237 211.117 225.195 210.61 224.709C210.104 224.224 209.998 223.443 210.188 222.788C210.378 222.134 210.821 221.564 211.307 221.078C213.439 218.84 216.775 217.383 219.879 217.109C222.729 216.855 224.587 220.782 220.998 221.395Z" fill="black"/>
<path d="M251.59 193.716C251.534 193.73 251.478 193.73 251.421 193.716C250.957 193.61 250.64 193.167 250.725 192.702C251.97 186.347 253.195 183.054 256.362 177.416C256.594 176.994 257.122 176.846 257.544 177.079C257.966 177.311 258.114 177.839 257.861 178.261C254.799 183.708 253.638 186.875 252.435 193.019C252.35 193.441 251.991 193.716 251.59 193.716Z" fill="#2E2420"/>
<path d="M275.638 226.61C275.258 226.61 274.899 226.356 274.794 225.955C273.464 220.487 270.951 215.209 267.531 210.712C267.257 210.331 267.32 209.804 267.7 209.508C268.08 209.212 268.629 209.297 268.924 209.677C272.471 214.343 275.09 219.832 276.483 225.554C276.589 226.019 276.314 226.483 275.85 226.589C275.779 226.603 275.709 226.61 275.638 226.61Z" fill="white"/>
<path d="M198.617 212.316C198.589 212.316 198.561 212.316 198.533 212.316C198.068 212.274 197.71 211.852 197.773 211.366C198.871 200.029 206.134 189.303 216.268 184.046C216.69 183.835 217.218 184.004 217.429 184.426C217.661 184.848 217.493 185.376 217.07 185.587C207.443 190.57 200.539 200.768 199.483 211.535C199.441 212 199.061 212.316 198.617 212.316Z" fill="white"/>
<path d="M319.216 389.561C319.026 389.561 318.815 389.476 318.646 389.35C318.288 389.033 318.245 388.484 318.562 388.125C323.692 382.108 329.351 376.471 335.389 371.361C335.769 371.045 336.318 371.087 336.614 371.446C336.93 371.826 336.888 372.375 336.508 372.67C330.554 377.737 324.959 383.311 319.871 389.244C319.702 389.455 319.47 389.561 319.216 389.561Z" fill="black"/>
<path d="M160.593 390.658C160.319 390.658 160.044 390.511 159.875 390.278C155.547 383.839 150.269 378.16 144.146 373.409C143.766 373.114 143.703 372.586 143.977 372.206C144.273 371.826 144.822 371.762 145.202 372.037C151.472 376.914 156.899 382.72 161.311 389.307C161.586 389.708 161.48 390.236 161.079 390.511C160.931 390.595 160.762 390.658 160.593 390.658Z" fill="black"/>
<path d="M238.986 430.077C224.333 430.077 209.66 428.599 195.282 425.664C194.817 425.558 194.522 425.115 194.606 424.629C194.712 424.165 195.155 423.869 195.641 423.975C225.241 430.034 256.256 429.802 285.329 423.257C285.794 423.152 286.258 423.447 286.364 423.912C286.469 424.376 286.174 424.841 285.709 424.946C270.508 428.366 254.778 430.077 238.986 430.077Z" fill="black"/>
<path d="M217.45 494.387C217.049 494.387 216.711 494.134 216.606 493.733C211.116 473.021 207.105 450.641 204.698 427.205C204.656 426.72 204.993 426.297 205.479 426.255C205.922 426.192 206.366 426.551 206.429 427.015C208.815 450.366 212.805 472.683 218.274 493.289C218.4 493.754 218.126 494.239 217.661 494.366C217.591 494.38 217.521 494.387 217.45 494.387Z" fill="black"/>
<path d="M207.549 493.775C207.105 493.775 206.725 493.437 206.683 492.994C204.699 471.247 203.981 449.205 204.593 427.48C204.614 427.015 205.015 426.635 205.48 426.635C205.965 426.656 206.345 427.057 206.324 427.543C205.733 449.184 206.43 471.163 208.414 492.825C208.457 493.31 208.098 493.733 207.633 493.775C207.605 493.775 207.577 493.775 207.549 493.775Z" fill="black"/>
</g>
<defs>
<clipPath id="clip0_464_1770">
<rect width="480" height="480" rx="24" fill="white"/>
</clipPath>
<clipPath id="clip1_464_1770">
<rect width="480" height="480" rx="24" fill="white"/>
</clipPath>
<clipPath id="clip2_464_1770">
<rect x="48" y="248" width="48" height="48" rx="24" fill="white"/>
</clipPath>
</defs>
</svg>
