<svg width="48" height="48" viewBox="0 0 48 48" fill="none" xmlns="http://www.w3.org/2000/svg">
<g clip-path="url(#clip0_464_1552)">
<path d="M24.0003 48C19.2541 47.9993 14.6146 46.5913 10.6685 43.9541C6.72239 41.3169 3.64681 37.5689 1.83061 33.1839C0.0144007 28.7989 -0.460873 23.9739 0.464872 19.3188C1.39062 14.6638 3.67581 10.3877 7.03154 7.03124C11.2345 2.8204 16.8516 0.320733 22.7933 0.0171318C28.735 -0.286469 34.5777 1.62764 39.1879 5.38815C43.7982 9.14867 46.8473 14.4875 47.7439 20.369C48.6405 26.2505 47.3206 32.2554 44.0403 37.2187C43.9422 37.3807 43.8123 37.5212 43.6586 37.6318C43.5048 37.7424 43.3303 37.8208 43.1455 37.8623C42.9608 37.9037 42.7695 37.9075 42.5832 37.8732C42.397 37.839 42.2195 37.7675 42.0616 37.663C41.9036 37.5585 41.7684 37.4231 41.6641 37.2651C41.5597 37.1071 41.4883 36.9296 41.4542 36.7433C41.4201 36.557 41.424 36.3657 41.4657 36.181C41.5073 35.9962 41.5858 35.8218 41.6965 35.6681C43.9826 32.2068 45.197 28.1481 45.1878 24C45.1878 12.3169 35.6834 2.81249 24.0003 2.81249C12.3172 2.81249 2.81279 12.3169 2.81279 24C2.81279 35.6831 12.3172 45.1875 24.0003 45.1875C27.9585 45.1915 31.8383 44.0839 35.1978 41.9906C35.3545 41.888 35.5301 41.8178 35.7143 41.784C35.8985 41.7502 36.0876 41.7535 36.2705 41.7938C36.4534 41.8341 36.6265 41.9105 36.7794 42.0185C36.9324 42.1266 37.0623 42.2641 37.1614 42.423C37.2605 42.582 37.3268 42.7591 37.3565 42.944C37.3863 43.1289 37.3787 43.3179 37.3344 43.4999C37.2901 43.6818 37.2099 43.8531 37.0985 44.0037C36.987 44.1542 36.8467 44.281 36.6856 44.3766C32.8801 46.7489 28.4847 48.0044 24.0003 48Z" fill="#0487FF"/>
<path d="M24 8.40656C23.627 8.40656 23.2694 8.25841 23.0056 7.99468C22.7419 7.73096 22.5938 7.37327 22.5938 7.00031V1.40625C22.5938 1.03329 22.7419 0.675604 23.0056 0.411881C23.2694 0.148158 23.627 0 24 0C24.373 0 24.7306 0.148158 24.9944 0.411881C25.2581 0.675604 25.4062 1.03329 25.4062 1.40625V7.00031C25.4062 7.37327 25.2581 7.73096 24.9944 7.99468C24.7306 8.25841 24.373 8.40656 24 8.40656Z" fill="#0487FF"/>
<path d="M24 48C23.627 48 23.2694 47.8518 23.0056 47.5881C22.7419 47.3244 22.5938 46.9667 22.5938 46.5937V40.9997C22.5938 40.6267 22.7419 40.269 23.0056 40.0053C23.2694 39.7416 23.627 39.5934 24 39.5934C24.373 39.5934 24.7306 39.7416 24.9944 40.0053C25.2581 40.269 25.4062 40.6267 25.4062 40.9997V46.5937C25.4062 46.9667 25.2581 47.3244 24.9944 47.5881C24.7306 47.8518 24.373 48 24 48Z" fill="#0487FF"/>
<path d="M46.5941 25.4062H41C40.627 25.4062 40.2694 25.2581 40.0056 24.9944C39.7419 24.7306 39.5938 24.373 39.5938 24C39.5938 23.627 39.7419 23.2694 40.0056 23.0056C40.2694 22.7419 40.627 22.5938 41 22.5938H46.5941C46.967 22.5938 47.3247 22.7419 47.5884 23.0056C47.8522 23.2694 48.0003 23.627 48.0003 24C48.0003 24.373 47.8522 24.7306 47.5884 24.9944C47.3247 25.2581 46.967 25.4062 46.5941 25.4062Z" fill="#0487FF"/>
<path d="M7.00031 25.4062H1.40625C1.03329 25.4062 0.675604 25.2581 0.411881 24.9944C0.148158 24.7306 0 24.373 0 24C0 23.627 0.148158 23.2694 0.411881 23.0056C0.675604 22.7419 1.03329 22.5938 1.40625 22.5938H7.00031C7.37327 22.5938 7.73096 22.7419 7.99468 23.0056C8.25841 23.2694 8.40656 23.627 8.40656 24C8.40656 24.373 8.25841 24.7306 7.99468 24.9944C7.73096 25.2581 7.37327 25.4062 7.00031 25.4062Z" fill="#0487FF"/>
<path d="M24 25.2188C23.627 25.2188 23.2694 25.0706 23.0056 24.8069C22.7419 24.5431 22.5938 24.1855 22.5938 23.8125V14.3438C22.5938 13.9708 22.7419 13.6131 23.0056 13.3494C23.2694 13.0857 23.627 12.9375 24 12.9375C24.373 12.9375 24.7306 13.0857 24.9944 13.3494C25.2581 13.6131 25.4062 13.9708 25.4062 14.3438V23.8125C25.4062 24.1855 25.2581 24.5431 24.9944 24.8069C24.7306 25.0706 24.373 25.2188 24 25.2188Z" fill="#0487FF"/>
<path d="M32.5792 33.7959C32.3945 33.7961 32.2117 33.7597 32.0411 33.6889C31.8706 33.6181 31.7157 33.5143 31.5854 33.3834L23.0054 24.8044C22.7417 24.5406 22.5937 24.1828 22.5938 23.8098C22.5938 23.4368 22.7421 23.0791 23.0059 22.8155C23.2697 22.5518 23.6275 22.4037 24.0005 22.4038C24.3734 22.4039 24.7311 22.5521 24.9948 22.8159L33.5739 31.395C33.7707 31.5917 33.9047 31.8423 33.959 32.1152C34.0133 32.388 33.9855 32.6709 33.879 32.9279C33.7725 33.185 33.5922 33.4046 33.3608 33.5591C33.1294 33.7136 32.8574 33.7961 32.5792 33.7959Z" fill="#0487FF"/>
</g>
<defs>
<clipPath id="clip0_464_1552">
<rect width="48" height="48" fill="white"/>
</clipPath>
</defs>
</svg>
