<svg width="77" height="76" viewBox="0 0 77 76" fill="none" xmlns="http://www.w3.org/2000/svg">
<circle cx="44.334" cy="44" r="32" fill="#B4DBFF"/>
<path fill-rule="evenodd" clip-rule="evenodd" d="M6.75877 35.8072C7.27579 36.0062 7.53405 36.5876 7.33502 37.1048C7.136 37.6219 6.5546 37.8802 6.03758 37.6812L5.06754 37.3078C4.6799 37.1586 4.42415 36.7862 4.42415 36.3708V29.0228C4.42415 28.6075 4.6799 28.2351 5.06754 28.0859C5.06754 28.0859 9.08059 26.5414 9.08059 26.5415C9.6453 24.3937 10.4957 22.3414 11.617 20.4289L9.86817 16.4959C9.69938 16.1162 9.78196 15.6718 10.0756 15.378L15.2703 10.1834C15.564 9.88959 16.0084 9.80714 16.3881 9.97593C16.3881 9.97593 20.3211 11.7246 20.321 11.7248C22.2335 10.6036 24.2854 9.75356 26.4272 9.1945L27.9784 5.17442C28.1279 4.78728 28.5001 4.53191 28.9151 4.53191H34.5989C35.1529 4.53191 35.6028 4.98179 35.6028 5.53583C35.6028 6.08987 35.1529 6.53975 34.5989 6.53975H29.6038L28.1127 10.4037C27.9936 10.7124 27.7301 10.9426 27.4082 11.019C25.1147 11.5641 22.9274 12.4702 20.9172 13.7089C20.6351 13.8827 20.2854 13.9062 19.9827 13.7716L16.2024 12.0908L11.9831 16.3102L13.6639 20.0903C13.7984 20.3931 13.7751 20.7429 13.6011 21.025C12.3619 23.0359 11.4557 25.2241 10.9033 27.5256C10.8263 27.8467 10.596 28.1095 10.2878 28.2282L6.432 29.7121V35.6815L6.75877 35.8072ZM56.7681 28.9537C56.251 28.7547 55.9927 28.1733 56.1917 27.6562C56.3908 27.1391 56.9722 26.8808 57.4893 27.0799L60.1033 28.0859C60.4909 28.2351 60.7467 28.6075 60.7467 29.0228V36.3708C60.7467 36.7862 60.4909 37.1586 60.1033 37.3078L56.0912 38.8518C55.5314 40.9933 54.6763 43.0449 53.5602 44.9569L55.3032 48.8917C55.4712 49.271 55.3885 49.7148 55.0951 50.0082L49.9004 55.2028C49.607 55.4962 49.1634 55.5789 48.7839 55.4109C48.7839 55.4109 44.8512 53.6689 44.8513 53.6689C42.9437 54.7899 40.8866 55.6399 38.7441 56.1991L37.2001 60.211C37.0508 60.5987 36.6784 60.8543 36.2631 60.8543H28.9151C28.361 60.8543 27.9111 60.4045 27.9111 59.8504C27.9111 59.2963 28.361 58.8465 28.9151 58.8465H35.5737L37.0578 54.9908C37.1767 54.6817 37.4404 54.4512 37.7625 54.3746C40.0555 53.8297 42.2494 52.9241 44.2522 51.6856C44.5341 51.5113 44.8838 51.4873 45.1869 51.6215L48.9675 53.2962C48.9675 53.2962 53.1884 49.0753 53.1885 49.0753L51.5137 45.2946C51.3802 44.993 51.4033 44.6449 51.5756 44.3635C52.8078 42.3525 53.7216 40.1646 54.2669 37.8703C54.3434 37.5481 54.5739 37.2844 54.883 37.1655L58.7388 35.6815V29.7121L56.7681 28.9537ZM20.1257 32.4876C20.1171 33.0416 19.6602 33.4844 19.1061 33.4756C18.5521 33.4668 18.1095 33.0099 18.1181 32.4559C18.2382 24.8678 24.1925 18.7045 31.6946 18.2509C32.2476 18.2174 32.7238 18.6393 32.7573 19.1923C32.7907 19.7455 32.3688 20.2216 31.8158 20.2551C25.3557 20.6457 20.2291 25.9536 20.1257 32.4876ZM44.9897 31.4902C44.937 30.9386 45.3421 30.448 45.8938 30.3954C46.4453 30.3429 46.9358 30.7479 46.9884 31.2995C47.0321 31.7569 47.0544 32.2204 47.0544 32.6893C47.0544 40.3505 41.0992 46.6223 33.5664 47.1292C33.0135 47.1663 32.5345 46.7477 32.4973 46.1949C32.46 45.642 32.8787 45.163 33.4316 45.1259C39.9189 44.6893 45.0466 39.287 45.0466 32.6893C45.0466 32.2847 45.0274 31.8848 44.9897 31.4902ZM47.2919 29.8164C39.3245 29.8164 32.8228 23.3148 32.8228 15.3474C32.8228 7.38003 39.3245 0.878387 47.2919 0.878387C55.2592 0.878387 61.7609 7.38003 61.7609 15.3474C61.7609 23.3148 55.2592 29.8164 47.2919 29.8164ZM47.2919 27.8086C54.1537 27.8086 59.753 22.2092 59.753 15.3474C59.753 8.4856 54.1537 2.88623 47.2919 2.88623C40.4301 2.88623 34.8307 8.4856 34.8307 15.3474C34.8307 22.2092 40.4301 27.8086 47.2919 27.8086ZM46.2879 7.82013V6.82537C46.2879 6.27133 46.7378 5.82145 47.2919 5.82145C47.8459 5.82145 48.2958 6.27133 48.2958 6.82537V7.80796C49.9051 8.08178 51.4202 9.05621 52.1812 10.8663C52.3959 11.377 52.1555 11.9661 51.6447 12.1808C51.134 12.3955 50.5449 12.1552 50.3302 11.6443C49.5494 9.78706 47.4742 9.39566 45.9801 9.98383C45.0807 10.338 44.374 11.0738 44.4248 12.1302C44.4661 12.9714 44.997 13.4617 45.6457 13.7788C46.207 14.0532 46.8555 14.209 47.4668 14.3096C49.7362 14.6809 52.2564 15.6791 52.5858 18.3771L52.5859 18.3785C52.9126 21.0843 50.6038 22.5745 48.2958 22.8997V23.8694C48.2958 24.4236 47.8459 24.8734 47.2919 24.8734C46.7378 24.8734 46.2879 24.4236 46.2879 23.8694V22.8852C44.287 22.5647 42.5226 21.3153 41.9989 19.2118C41.865 18.674 42.1929 18.1289 42.7305 17.995C43.2683 17.8611 43.8134 18.189 43.9473 18.7266C44.3382 20.2967 45.9095 20.9948 47.4436 20.9587C48.2517 20.9396 49.1501 20.7333 49.8131 20.2763C50.3345 19.917 50.6837 19.3766 50.5926 18.6198C50.5003 17.8655 50.0742 17.378 49.5233 17.0457C48.8241 16.6239 47.9482 16.4229 47.1427 16.2911L47.1416 16.291C44.9333 15.9274 42.5477 14.8534 42.4193 12.228V12.2273C42.3233 10.2391 43.5517 8.78201 45.2447 8.11553C45.5778 7.9844 45.9282 7.88538 46.2879 7.82013ZM17.3762 63.1215C9.40887 63.1215 2.90723 56.6199 2.90723 48.6525C2.90723 40.6851 9.40887 34.1835 17.3762 34.1835C25.3436 34.1835 31.8453 40.6851 31.8453 48.6525C31.8453 56.6199 25.3436 63.1215 17.3762 63.1215ZM17.3762 61.1137C24.2381 61.1137 29.8374 55.5143 29.8374 48.6525C29.8374 41.7907 24.2381 36.1913 17.3762 36.1913C10.5144 36.1913 4.91507 41.7907 4.91507 48.6525C4.91507 55.5143 10.5144 61.1137 17.3762 61.1137ZM16.3723 41.1252V40.1305C16.3723 39.5763 16.8222 39.1265 17.3762 39.1265C17.9303 39.1265 18.3802 39.5763 18.3802 40.1305V41.1131C19.9893 41.3869 21.5046 42.3612 22.2656 44.1713C22.4803 44.6821 22.2399 45.2712 21.7291 45.4859C21.2184 45.7006 20.6293 45.4602 20.4146 44.9494C19.6338 43.0922 17.5586 42.7008 16.0645 43.2889C15.1651 43.6431 14.4583 44.3789 14.5092 45.4353C14.5505 46.2765 15.0814 46.7666 15.7301 47.0839C16.2914 47.3583 16.9399 47.5141 17.5512 47.6147C19.8205 47.9859 22.3408 48.9841 22.6702 51.6822L22.6703 51.6836C22.997 54.3894 20.6882 55.8795 18.3802 56.2048V57.1745C18.3802 57.7286 17.9303 58.1785 17.3762 58.1785C16.8222 58.1785 16.3723 57.7286 16.3723 57.1745V56.1903C14.3714 55.8698 12.607 54.6204 12.0833 52.5169C11.9494 51.9791 12.2773 51.4339 12.8149 51.3001C13.3527 51.1662 13.8978 51.4941 14.0317 52.0317C14.4226 53.6018 15.9938 54.2999 17.5278 54.2638C18.3361 54.2447 19.2345 54.0384 19.8975 53.5814C20.4189 53.222 20.7681 52.6817 20.677 51.9249C20.5847 51.1706 20.1586 50.6831 19.6077 50.3508C18.9085 49.929 18.0324 49.728 17.227 49.5962L17.2259 49.5961C15.0177 49.2324 12.6321 48.1583 12.5037 45.5329V45.5324C12.4077 43.5442 13.6361 42.0871 15.329 41.4206C15.6621 41.2895 16.0125 41.1905 16.3723 41.1252Z" fill="#0487FF"/>
</svg>
