<svg width="48" height="48" viewBox="0 0 48 48" fill="none" xmlns="http://www.w3.org/2000/svg">
<path d="M0.94043 32.9011V41.8415C0.94043 43.9551 2.34884 45.3644 4.08734 45.3644H43.9155C45.654 45.3644 47.0634 43.9541 47.0624 41.8405L47.0531 9.14326C47.0598 8.42926 46.4671 7.38901 45.5378 6.8281C45.0466 6.53054 44.4814 6.37116 43.9053 6.37238H40.9647V8.32932C40.9647 9.43201 40.0711 10.3256 38.9684 10.3256C37.8667 10.3256 36.9731 9.43201 36.9731 8.32932V6.37238H31.1219V8.32932C31.1219 9.43201 30.2283 10.3256 29.1256 10.3256C28.0239 10.3256 27.1293 9.43201 27.1293 8.32932V6.37238H21.2791V8.32932C21.2791 9.43201 20.3855 10.3256 19.2828 10.3256C18.1801 10.3256 17.2865 9.43201 17.2865 8.32932V6.37238H11.4363V8.32932C11.4363 9.43201 10.5427 10.3256 9.43999 10.3256C8.3373 10.3256 7.44368 9.43201 7.44368 8.32932V6.37238H4.08734C2.34884 6.37238 0.94043 7.78173 0.94043 9.1442V24.6502" stroke="#0487FF" stroke-width="1.875" stroke-miterlimit="10" stroke-linecap="round" stroke-linejoin="round"/>
<path d="M47.052 9.14316V15.2316H0.94043V9.1441C0.94043 7.77919 2.34884 6.37228 4.08734 6.37228H7.44331V8.32922C7.44331 9.43191 8.33693 10.3255 9.43962 10.3255C10.5423 10.3255 11.4359 9.43191 11.4359 8.32922V6.37238H17.2861V8.32932C17.2861 9.432 18.1797 10.3256 19.2824 10.3256C20.3851 10.3256 21.2787 9.432 21.2787 8.32932V6.37238H27.1289V8.32932C27.1289 9.432 28.0235 10.3256 29.1252 10.3256C30.2279 10.3256 31.1216 9.432 31.1216 8.32932V6.37238H36.9727V8.32932C36.9727 9.432 37.8663 10.3256 38.9681 10.3256C40.0707 10.3256 40.9644 9.432 40.9644 8.32932V6.37238H43.9049C44.4811 6.37097 45.0462 6.53053 45.5374 6.8281C46.4674 7.3891 47.052 8.41978 47.052 9.14316Z" stroke="#0487FF" stroke-width="1.875" stroke-miterlimit="10" stroke-linecap="round" stroke-linejoin="round"/>
<path d="M9.43977 10.3253H9.43902C8.3368 10.3253 7.44336 9.43181 7.44336 8.32968V4.63134C7.44336 3.52912 8.33689 2.63568 9.43902 2.63568H9.43977C10.542 2.63568 11.4354 3.52921 11.4354 4.63134V8.32968C11.4354 9.4319 10.542 10.3253 9.43977 10.3253Z" stroke="#0487FF" stroke-width="1.875" stroke-miterlimit="10" stroke-linecap="round" stroke-linejoin="round"/>
<path d="M19.2835 10.3253H19.2828C18.1805 10.3253 17.2871 9.43181 17.2871 8.32968V4.63134C17.2871 3.52912 18.1806 2.63568 19.2828 2.63568H19.2835C20.3857 2.63568 21.2792 3.52921 21.2792 4.63134V8.32968C21.2792 9.4319 20.3856 10.3253 19.2835 10.3253Z" stroke="#0487FF" stroke-width="1.875" stroke-miterlimit="10" stroke-linecap="round" stroke-linejoin="round"/>
<path d="M29.1263 10.3253H29.1255C28.0233 10.3253 27.1299 9.43181 27.1299 8.32968V4.63134C27.1299 3.52912 28.0234 2.63568 29.1255 2.63568H29.1263C30.2285 2.63568 31.1219 3.52921 31.1219 4.63134V8.32968C31.1219 9.4319 30.2285 10.3253 29.1263 10.3253Z" stroke="#0487FF" stroke-width="1.875" stroke-miterlimit="10" stroke-linecap="round" stroke-linejoin="round"/>
<path d="M38.9691 10.3253H38.9683C37.8661 10.3253 36.9727 9.43181 36.9727 8.32968V4.63134C36.9727 3.52912 37.8662 2.63568 38.9683 2.63568H38.9691C40.0713 2.63568 40.9647 3.52921 40.9647 4.63134V8.32968C40.9647 9.4319 40.0712 10.3253 38.9691 10.3253Z" stroke="#0487FF" stroke-width="1.875" stroke-miterlimit="10" stroke-linecap="round" stroke-linejoin="round"/>
<path d="M18.8398 40.2263L21.0893 34.3202C21.1352 34.2078 21.2943 34.2077 21.3405 34.3199L23.5695 40.2262" stroke="#0487FF" stroke-width="1.875" stroke-miterlimit="10" stroke-linecap="round" stroke-linejoin="round"/>
<path d="M19.542 38.7553H22.8799" stroke="#0487FF" stroke-width="1.875" stroke-miterlimit="10" stroke-linecap="round" stroke-linejoin="round"/>
<path d="M35.6161 34.8517C35.6161 34.8517 34.5411 33.9481 33.2735 34.3299C32.1096 34.6806 31.9468 36.0227 32.7889 36.5716C32.7889 36.5716 33.6152 36.9402 34.5316 37.2783C36.7377 38.092 35.7874 40.2263 34.0114 40.2263C33.122 40.2263 32.3756 39.8369 31.9238 39.3384" stroke="#0487FF" stroke-width="1.875" stroke-miterlimit="10" stroke-linecap="round" stroke-linejoin="round"/>
<path d="M25.5371 34.2358L27.4505 37.1662L29.3483 34.251" stroke="#0487FF" stroke-width="1.875" stroke-miterlimit="10" stroke-linecap="round" stroke-linejoin="round"/>
<path d="M27.4434 40.2263L27.4509 37.1662" stroke="#0487FF" stroke-width="1.875" stroke-miterlimit="10" stroke-linecap="round" stroke-linejoin="round"/>
<path d="M12.1953 34.2572V40.1292" stroke="#0487FF" stroke-width="1.875" stroke-miterlimit="10" stroke-linecap="round" stroke-linejoin="round"/>
<path d="M16.3007 37.2386C16.3007 38.8851 15.3869 40.1878 13.9372 40.2131C13.4547 40.2216 12.2074 40.2263 12.2074 40.2263C12.2074 40.2263 12.1996 38.0619 12.1996 37.232C12.1996 36.5504 12.1953 34.2509 12.1953 34.2509C12.1953 34.2509 13.3173 34.2509 13.8877 34.2509C15.4778 34.251 16.3007 35.5922 16.3007 37.2386Z" stroke="#0487FF" stroke-width="1.875" stroke-miterlimit="10" stroke-linecap="round" stroke-linejoin="round"/>
<path d="M31.1563 26.4681C31.1563 28.0638 29.8627 29.3573 28.2671 29.3573C26.6715 29.3573 25.3779 28.0638 25.3779 26.4681V22.4103C25.3779 20.8146 26.6715 19.5211 28.2671 19.5211C29.8627 19.5211 31.1563 20.8146 31.1563 22.4103V26.4681Z" stroke="#0487FF" stroke-width="1.875" stroke-miterlimit="10" stroke-linecap="round" stroke-linejoin="round"/>
<path d="M16.8984 21.5092C17.121 20.376 18.1198 19.5211 19.3183 19.5211C20.6803 19.5211 21.7845 20.6252 21.7845 21.9872C21.7845 23.3492 20.6804 24.4534 19.3183 24.4534" stroke="#0487FF" stroke-width="1.875" stroke-miterlimit="10" stroke-linecap="round" stroke-linejoin="round"/>
<path d="M19.3187 24.4535C20.6807 24.4535 21.7849 25.5576 21.7849 26.9196C21.7849 28.2816 20.6808 29.3856 19.3187 29.3856C18.0734 29.3856 17.0437 28.4627 16.8764 27.2635C16.8607 27.1511 16.8525 27.0363 16.8525 26.9196" stroke="#0487FF" stroke-width="1.875" stroke-miterlimit="10" stroke-linecap="round" stroke-linejoin="round"/>
<circle cx="0.9375" cy="28.8027" r="0.9375" fill="#0487FF"/>
</svg>
