<svg width="77" height="76" viewBox="0 0 77 76" fill="none" xmlns="http://www.w3.org/2000/svg">
<circle cx="44.667" cy="44" r="32" fill="#B4DBFF"/>
<path d="M46.3097 41.7136L36.643 47.344C36.2732 47.5594 35.8985 47.7251 35.5122 47.8425C35.6311 47.6042 35.7285 47.3464 35.8026 47.0701C36.3162 45.1526 35.179 43.1514 33.2133 42.5143C33.1705 42.5004 33.1268 42.4894 33.0825 42.4814C30.3163 41.9825 27.5807 40.9935 25.3826 40.1989C24.6157 39.9216 23.8913 39.6598 23.2742 39.4596C20.7461 38.6395 18.4742 39.6471 16.5847 40.7409L9.51721 44.8327L8.90996 43.7598C8.25171 42.597 6.77008 42.1864 5.60746 42.8444L2.89533 44.3794C1.73246 45.0374 1.32171 46.5189 1.97996 47.6819L9.95383 61.7714C10.272 62.3332 10.7911 62.7381 11.416 62.9114C11.6321 62.9712 11.8513 63.0009 12.0695 63.0009C12.4818 63.0009 12.8888 62.8947 13.2563 62.6867L15.9686 61.1516C17.1315 60.4934 17.5421 59.0119 16.8838 57.8493L16.1312 56.5194L17.5975 55.6729L29.9216 58.975C30.6172 59.1615 31.3093 59.254 31.9901 59.254C33.3672 59.254 34.6977 58.8747 35.9141 58.126L53.4568 47.3239C55.1187 46.3006 55.6486 43.7267 54.5687 41.9236C54.0457 41.0505 51.9043 38.4554 46.3097 41.7136ZM14.9835 59.4111L12.2712 60.9463C12.0718 61.0591 11.8075 60.9861 11.6943 60.7864L3.72058 46.697C3.60758 46.4972 3.68071 46.2331 3.88033 46.1201L6.59258 44.5851C6.65646 44.549 6.72683 44.5319 6.79683 44.5319C6.94571 44.5319 7.09258 44.6092 7.16946 44.7451L15.1433 58.8345C15.2563 59.0339 15.1832 59.2981 14.9835 59.4111ZM52.4082 45.6209L34.8656 56.423C33.5088 57.2581 32.0195 57.4668 30.4393 57.0431L17.7151 53.6336C17.459 53.565 17.186 53.6009 16.9563 53.7335L15.1462 54.7785L10.5026 46.5734L17.5872 42.4716C19.171 41.5546 20.8817 40.7859 22.6575 41.3619C23.2432 41.5518 23.9196 41.7964 24.7028 42.0795C26.9527 42.8929 29.7482 43.9035 32.6542 44.4361C33.5868 44.7673 34.1082 45.6669 33.8708 46.5524C33.5582 47.7189 32.5773 47.8636 31.795 47.7749C30.3796 47.4834 29.0318 47.0987 27.6058 46.6916C26.9262 46.4975 26.2236 46.2969 25.5008 46.1031C24.9675 45.9604 24.4191 46.2769 24.2761 46.8102C24.1331 47.3436 24.4498 47.892 24.9832 48.035C25.6901 48.2244 26.3848 48.4227 27.0566 48.6146C28.5347 49.0368 29.9308 49.4355 31.4368 49.7434C31.4433 49.7447 31.4497 49.7451 31.4562 49.7464C31.4631 49.7476 31.4697 49.7496 31.4766 49.7508L32.679 49.9461C34.5112 50.2391 36.1367 49.9533 37.6496 49.0721L47.3163 43.4417C50.023 41.8655 52.0927 41.6819 52.8528 42.9511C53.3721 43.8184 53.1477 45.1656 52.4082 45.6209ZM7.30946 47.1824C7.38683 47.7116 7.02058 48.2033 6.49133 48.2806C5.9622 48.358 5.47046 47.9918 5.39308 47.4625C5.31571 46.9334 5.68195 46.4416 6.21121 46.3643C6.74046 46.2869 7.23208 46.6533 7.30946 47.1824ZM29.3372 14.4829C28.3705 14.4829 27.5207 15.1001 27.222 16.0198C26.9226 16.9409 27.2487 17.9412 28.0333 18.5091L31.8406 21.2641C31.9272 21.3269 31.9556 21.4139 31.9222 21.5156L30.4612 25.9825C30.1603 26.9031 30.4847 27.9041 31.2681 28.4731C31.6593 28.7574 32.1175 28.8994 32.5755 28.8994C33.035 28.8994 33.4945 28.7564 33.8862 28.4706L37.683 25.701C37.7695 25.6379 37.861 25.6381 37.9472 25.701L41.7438 28.4706C42.5265 29.0415 43.5787 29.0424 44.3622 28.473C45.1456 27.9037 45.4696 26.9028 45.1687 25.9823L43.7078 21.5156C43.6746 21.4139 43.7028 21.327 43.7895 21.2642L47.5967 18.5093C48.3815 17.9415 48.7076 16.941 48.4082 16.0199C48.1092 15.1001 47.2597 14.483 46.293 14.483C46.2915 14.483 46.2901 14.483 46.2886 14.483L41.589 14.492C41.5888 14.492 41.5886 14.492 41.5883 14.492C41.4816 14.492 41.4081 14.4384 41.3752 14.3366L39.9315 9.86438C39.634 8.94263 38.7833 8.32337 37.8146 8.32337C36.8462 8.3235 35.9956 8.94275 35.698 9.86438L34.2545 14.3366C34.2215 14.4383 34.1477 14.492 34.0411 14.492C34.0408 14.492 34.0406 14.492 34.0405 14.492L29.341 14.483C29.3402 14.4829 29.3387 14.4829 29.3372 14.4829ZM34.0416 16.492C35.0102 16.492 35.8605 15.8733 36.1583 14.9511L37.602 10.4789C37.6348 10.3772 37.7087 10.3234 37.8153 10.3234C37.9221 10.3234 37.9958 10.377 38.0287 10.4786L39.4725 14.9509C39.77 15.8733 40.6202 16.4921 41.5891 16.4921H41.5935L46.2931 16.4831H46.2937C46.4002 16.4831 46.4737 16.5367 46.5067 16.6381C46.5397 16.7396 46.5115 16.8264 46.425 16.889L42.6178 19.644C41.8313 20.2129 41.5058 21.2149 41.8076 22.1375L43.2683 26.6039C43.3017 26.7055 43.2735 26.7924 43.1872 26.8551C43.101 26.918 43.0095 26.9176 42.9232 26.8549L39.1266 24.0854C38.3427 23.5135 37.2891 23.5135 36.5048 24.0854L32.7081 26.855C32.622 26.918 32.5305 26.9179 32.4441 26.8551C32.3578 26.7924 32.3296 26.7055 32.3628 26.6041L33.8237 22.1375C34.1253 21.2153 33.8 20.2132 33.0137 19.6441L29.2065 16.889C29.12 16.8265 29.0916 16.7396 29.1247 16.6379C29.1577 16.5365 29.2313 16.483 29.3377 16.483H29.3383L34.0378 16.492H34.0416ZM36.8152 5.6615V2C36.8152 1.44775 37.263 1 37.8152 1C38.3675 1 38.8152 1.44775 38.8152 2V5.6615C38.8152 6.21375 38.3675 6.6615 37.8152 6.6615C37.263 6.6615 36.8152 6.21387 36.8152 5.6615ZM46.266 10.1619C45.8755 9.77137 45.8755 9.13825 46.266 8.74775L48.8551 6.15863C49.246 5.76813 49.879 5.76825 50.2693 6.15863C50.6598 6.54913 50.6598 7.18225 50.2693 7.57275L47.6802 10.1619C47.485 10.3571 47.229 10.4548 46.9731 10.4548C46.7171 10.4549 46.4612 10.3571 46.266 10.1619ZM25.3613 7.57288C24.9708 7.18237 24.9708 6.54925 25.3613 6.15875C25.7518 5.76837 26.3848 5.76813 26.7756 6.15875L29.3647 8.74788C29.7552 9.13838 29.7552 9.7715 29.3647 10.162C29.1695 10.3572 28.9136 10.4549 28.6576 10.4549C28.4017 10.4549 28.1457 10.3572 27.9505 10.162L25.3613 7.57288ZM63.5695 25.1431C63.308 24.3378 62.5641 23.7974 61.7178 23.7974C61.7165 23.7974 61.7151 23.7974 61.7137 23.7974L58.1151 23.8043L57.0097 20.3796C56.7492 19.5726 56.0045 19.0305 55.1563 19.0305C54.3083 19.0306 53.5637 19.5728 53.3032 20.3796L52.1977 23.8043L48.5992 23.7974C48.5977 23.7974 48.5966 23.7974 48.5952 23.7974C47.749 23.7974 47.0051 24.3376 46.7433 25.1431C46.4813 25.9495 46.7668 26.8254 47.4538 27.3225L50.3692 29.4321L49.2507 32.8524C48.9871 33.6584 49.2708 34.5349 49.9568 35.0332C50.2993 35.2821 50.7005 35.4065 51.1016 35.4065C51.504 35.4065 51.9063 35.2814 52.2493 35.0311L55.1566 32.9104L58.064 35.0311C58.7491 35.531 59.6705 35.5316 60.3563 35.0332C61.0421 34.5349 61.326 33.6585 61.0625 32.8525L59.944 29.4322L62.8592 27.3226C63.5461 26.8254 63.8316 25.9494 63.5695 25.1431ZM58.7403 27.8342C58.0516 28.3324 57.7666 29.2098 58.0308 30.0174L59.1107 33.3194L56.3041 31.272C55.6176 30.7711 54.6952 30.7712 54.0087 31.272L51.2021 33.3194L52.282 30.0173C52.546 29.2097 52.261 28.3324 51.5726 27.8344L48.758 25.7978L52.2321 25.8044H52.2358C53.0838 25.8044 53.8283 25.2626 54.0891 24.4552L55.1563 21.1491L56.2235 24.4554C56.4842 25.2628 57.2286 25.8045 58.0767 25.8045H58.0805L61.5546 25.7979L58.7403 27.8342ZM12.7097 27.3225L15.6251 29.4321L14.5066 32.8524C14.243 33.6584 14.5267 34.5349 15.2127 35.0332C15.5553 35.2822 15.9565 35.4066 16.3575 35.4066C16.7598 35.4066 17.1621 35.2815 17.5051 35.0311L20.4125 32.9104L23.3198 35.0311C24.0048 35.531 24.9262 35.5316 25.6122 35.0332C26.298 34.5349 26.5818 33.6585 26.3183 32.8525L25.1998 29.4322L28.1151 27.3226C28.8021 26.8255 29.0876 25.9497 28.8257 25.143C28.5638 24.3377 27.82 23.7975 26.974 23.7975C26.9726 23.7975 26.9712 23.7975 26.9698 23.7975L23.3712 23.8044L22.2658 20.3797C22.0053 19.5728 21.2606 19.0306 20.4125 19.0306C19.5645 19.0308 18.8198 19.5729 18.5593 20.3797L17.4538 23.8044L13.8555 23.7975C13.854 23.7975 13.8528 23.7975 13.8515 23.7975C13.0052 23.7975 12.2612 24.3377 11.9995 25.1432C11.7372 25.9495 12.0228 26.8254 12.7097 27.3225ZM17.4881 25.8044H17.4918C18.3402 25.8044 19.0847 25.2625 19.3451 24.4552L20.4123 21.1491L21.4795 24.4554C21.7402 25.2628 22.4846 25.8045 23.3327 25.8045H23.3365L26.8106 25.7979L23.996 27.8345C23.3075 28.3326 23.0225 29.21 23.2867 30.0175L24.3666 33.3195L21.56 31.2721C21.2167 31.0217 20.8145 30.8965 20.4122 30.8965C20.01 30.8965 19.6077 31.0217 19.2645 31.2721L16.4578 33.3195L17.5377 30.0175C17.8017 29.21 17.5167 28.3326 16.8283 27.8346L14.0137 25.798L17.4881 25.8044Z" fill="#0487FF"/>
</svg>
