<svg width="76" height="76" viewBox="0 0 76 76" fill="none" xmlns="http://www.w3.org/2000/svg">
<circle cx="44" cy="44" r="32" fill="#B4DBFF"/>
<g clip-path="url(#clip0_464_1526)">
<path d="M62.973 16.7157L47.2838 1.02647C45.9313 -0.326044 43.7153 -0.326044 42.3627 1.02647L35.7562 7.63299C35.4753 7.9139 35.4129 8.35086 35.6106 8.6942C35.8083 9.04793 36.2036 9.2248 36.599 9.13116C37.4001 8.94389 38.222 9.18318 38.8046 9.7658C39.304 10.2652 39.5641 10.9623 39.4913 11.6697C39.4288 12.3876 39.0543 13.0222 38.4405 13.4384C37.6602 13.9794 36.5781 13.9794 35.7978 13.4488C34.9551 12.8766 34.5598 11.8882 34.7783 10.931C34.8719 10.5461 34.695 10.1403 34.3413 9.94267C33.998 9.745 33.561 9.80742 33.2801 10.0883L26.6736 16.6948C25.3211 18.0474 25.3211 20.2634 26.6736 21.6159L33.2801 28.2224C33.561 28.5033 33.998 28.5658 34.3413 28.3681C34.695 28.1704 34.8719 27.7751 34.7783 27.3901C34.6014 26.589 34.8303 25.7671 35.4129 25.1845C35.9227 24.6747 36.6198 24.425 37.3376 24.4978C38.0659 24.5707 38.6902 24.9452 39.1063 25.559C39.6369 26.3393 39.6369 27.4317 39.1063 28.212C38.5445 29.034 37.5561 29.4293 36.599 29.2108C36.214 29.1276 35.8083 29.3045 35.621 29.6478C35.4233 30.0015 35.4857 30.4281 35.7666 30.709L42.3732 37.3155C43.0286 37.971 43.9025 38.3351 44.8389 38.3351C45.7648 38.3351 46.6388 37.971 47.3046 37.3155L52.5066 32.1135C52.7875 32.9667 53.3597 33.7365 54.1608 34.2775C55.555 35.2243 57.4381 35.2139 58.8322 34.2567C59.8726 33.5389 60.5281 32.4152 60.6425 31.1772C60.757 29.9391 60.3096 28.7218 59.4357 27.8479C58.9675 27.3797 58.4057 27.0364 57.7918 26.8283L62.9938 21.6263C64.3359 20.2842 64.3359 18.0786 62.973 16.7157ZM61.7141 20.3779L55.1076 26.9844C54.8267 27.2653 54.7643 27.7022 54.962 28.0456C55.1596 28.3993 55.555 28.5762 55.9503 28.4825C56.7514 28.2953 57.5733 28.5346 58.156 29.1172C58.6554 29.6166 58.9155 30.3136 58.8426 31.0211C58.7802 31.739 58.4057 32.3736 57.7918 32.7898C57.0115 33.3308 55.9295 33.3308 55.1492 32.8002C54.3065 32.228 53.9112 31.2396 54.1296 30.2824C54.2233 29.8975 54.0464 29.4917 53.6927 29.2941C53.3389 29.0964 52.9124 29.1588 52.6315 29.4397L46.0249 36.0462C45.3903 36.6809 44.2667 36.6809 43.632 36.0462L38.4301 30.8442C39.2832 30.5633 40.0427 30.0015 40.5837 29.2108C41.5304 27.8271 41.5304 25.9544 40.5837 24.5498C39.8762 23.499 38.7526 22.8332 37.5041 22.7083C36.266 22.5835 35.0384 23.0309 34.154 23.9152C33.6858 24.3834 33.3425 24.9452 33.1344 25.559L27.9324 20.357C27.277 19.7016 27.277 18.6196 27.9324 17.9641L33.1344 12.7621C33.4153 13.6153 33.9876 14.3852 34.7887 14.9262C36.1828 15.8729 38.0659 15.8625 39.46 14.9054C40.5004 14.1875 41.1559 13.0639 41.2703 11.8258C41.3848 10.5877 40.9374 9.37045 40.0635 8.49652C39.5953 8.02834 39.0335 7.68501 38.4196 7.47693L43.6216 2.27495C44.2771 1.6195 45.3591 1.6195 46.0145 2.27495L61.7141 17.9745C62.3696 18.6404 62.3696 19.712 61.7141 20.3779Z" fill="#0487FF"/>
<path d="M32.1252 37.1596C32.9783 36.8786 33.7378 36.3168 34.2788 35.5261C35.2256 34.1424 35.2256 32.2697 34.2788 30.8652C33.5713 29.8144 32.4477 29.1485 31.1992 29.0236C29.9507 28.8988 28.7335 29.3462 27.8491 30.2305C27.381 30.6987 27.0376 31.2605 26.8296 31.8743L21.6276 26.6724C20.3167 25.3615 18.0174 25.3615 16.7065 26.6724L11.5045 31.8743C11.3068 31.2709 10.9635 30.7091 10.4849 30.2409C9.60059 29.3566 8.39373 28.9196 7.15566 29.0341C5.91758 29.1485 4.79396 29.8039 4.07608 30.8443C3.10851 32.2385 3.09811 34.1112 4.05527 35.5157C4.59628 36.3168 5.36617 36.8786 6.2193 37.17L1.01732 42.3719C-0.335199 43.7245 -0.335199 45.9405 1.01732 47.293L16.7169 62.9926C17.3932 63.6689 18.2879 64.0122 19.1826 64.0122C20.0774 64.0122 20.9617 63.6689 21.6484 62.9926L26.8504 57.7906C27.1313 58.6437 27.7035 59.4136 28.5046 59.9546C29.8987 60.9014 31.7818 60.891 33.176 59.9338C34.2164 59.216 34.8718 58.0923 34.9863 56.8543C35.1007 55.6162 34.6533 54.3989 33.7794 53.525C33.3112 53.0568 32.7494 52.7135 32.146 52.5054L37.348 47.3034C38.7005 45.9509 38.7005 43.7349 37.348 42.3823L32.1252 37.1596ZM36.0683 46.0237L29.4618 52.6303C29.1809 52.9112 29.1184 53.3481 29.3161 53.6915C29.5138 54.0452 29.9091 54.2221 30.3045 54.1284C31.0952 53.9411 31.9275 54.1804 32.5101 54.7735C33.0095 55.2729 33.2696 55.9699 33.1968 56.6774C33.1344 57.3953 32.7598 58.0299 32.146 58.4461C31.3657 58.9871 30.2837 58.9871 29.5034 58.4565C28.6607 57.8843 28.2653 56.8959 28.4838 55.9387C28.5774 55.5538 28.4006 55.148 28.0468 54.9503C27.7035 54.7527 27.2665 54.8151 26.9856 55.096L20.3791 61.7025C19.7236 62.358 18.6416 62.3684 17.9862 61.7025L2.2866 46.0133C1.63115 45.3579 1.63115 44.2759 2.2866 43.6204L8.89312 37.0139C9.17403 36.733 9.23645 36.296 9.03877 35.9527C8.88272 35.6614 8.581 35.4949 8.25848 35.4949C8.19605 35.4949 8.12322 35.5053 8.0504 35.5157C7.09323 35.7342 6.10486 35.3389 5.53264 34.4961C5.00204 33.7158 5.01244 32.6234 5.54304 31.8535C5.9696 31.2397 6.59384 30.8652 7.31172 30.8027C8.01919 30.7403 8.71625 30.99 9.21564 31.4998C9.79826 32.0824 10.0376 32.9043 9.86069 33.7054C9.76705 34.0904 9.94392 34.4961 10.2977 34.6938C10.6514 34.8915 11.078 34.8291 11.3589 34.5482L17.9654 27.9416C18.6 27.307 19.7236 27.307 20.3583 27.9416L26.9648 34.5482C27.2457 34.8291 27.6827 34.8915 28.026 34.6938C28.3797 34.5065 28.5566 34.1008 28.463 33.7158C28.2861 32.9147 28.515 32.0824 29.0976 31.5102C29.6074 31.0004 30.3045 30.7507 31.0224 30.8235C31.7506 30.8964 32.3749 31.2709 32.791 31.8847C33.3216 32.665 33.3216 33.7575 32.791 34.5378C32.2292 35.3597 31.2408 35.755 30.2837 35.5365C29.8987 35.4429 29.493 35.6302 29.3057 35.9735C29.108 36.3272 29.1704 36.7538 29.4514 37.0347L36.0579 43.6412C36.7237 44.2863 36.7237 45.3683 36.0683 46.0237Z" fill="#0487FF"/>
<path d="M47.742 46.4813C47.3882 46.1276 46.8264 46.1276 46.4831 46.4813C46.1398 46.8351 46.1294 47.3969 46.4831 47.7402L49.6355 50.8926C49.8124 51.0695 50.0413 51.1527 50.2701 51.1527C50.499 51.1527 50.7279 51.0695 50.9048 50.8926C51.2585 50.5389 51.2585 49.9771 50.9048 49.6337L47.742 46.4813Z" fill="#0487FF"/>
<path d="M54.8479 44.5776L50.1453 43.7453C49.6563 43.662 49.1985 43.9845 49.1049 44.4735C49.0216 44.9625 49.3442 45.4203 49.8332 45.5139L54.5357 46.3462C54.5878 46.3566 54.6398 46.3566 54.6918 46.3566C55.1184 46.3566 55.4929 46.0549 55.5657 45.618C55.6594 45.129 55.3264 44.6608 54.8479 44.5776Z" fill="#0487FF"/>
<path d="M44.464 49.1032C43.975 49.1864 43.6525 49.6546 43.7357 50.1436L44.5681 54.8462C44.6409 55.2831 45.0258 55.5848 45.442 55.5848C45.494 55.5848 45.546 55.5848 45.598 55.5744C46.087 55.4912 46.4096 55.023 46.3263 54.534L45.494 49.8314C45.4212 49.3425 44.953 49.0199 44.464 49.1032Z" fill="#0487FF"/>
<path d="M16.2589 17.5168C16.4357 17.6937 16.6646 17.7769 16.8935 17.7769C17.1224 17.7769 17.3513 17.6937 17.5281 17.5168C17.8819 17.1631 17.8819 16.6012 17.5281 16.2579L14.3757 13.1055C14.022 12.7518 13.4602 12.7518 13.1169 13.1055C12.7631 13.4592 12.7631 14.0211 13.1169 14.3644L16.2589 17.5168Z" fill="#0487FF"/>
<path d="M19.3801 14.9156C19.4321 14.9156 19.4842 14.9156 19.5362 14.9052C20.0252 14.822 20.3477 14.3538 20.2645 13.8648L19.4321 9.16225C19.3489 8.67327 18.8807 8.35074 18.3917 8.43397C17.9028 8.51721 17.5802 8.98538 17.6635 9.47437L18.4958 14.177C18.5686 14.6035 18.9536 14.9156 19.3801 14.9156Z" fill="#0487FF"/>
<path d="M9.15396 19.4206L13.8565 20.253C13.9086 20.2634 13.9606 20.2634 14.0126 20.2634C14.4392 20.2634 14.8137 19.9616 14.8865 19.5247C14.9698 19.0357 14.6472 18.5779 14.1583 18.4843L9.45567 17.652C8.96668 17.5687 8.50891 17.8913 8.41527 18.3802C8.34245 18.8692 8.67537 19.3374 9.15396 19.4206Z" fill="#0487FF"/>
</g>
<defs>
<clipPath id="clip0_464_1526">
<rect width="64" height="64" fill="white"/>
</clipPath>
</defs>
</svg>
